<?xml version="1.0" encoding="utf-8"?>
<!-- Generator: Adobe Illustrator 27.0.0, SVG Export Plug-In . SVG Version: 6.00 Build 0)  -->
<svg version="1.1" id="Layer_1" xmlns="http://www.w3.org/2000/svg" xmlns:xlink="http://www.w3.org/1999/xlink" x="0px" y="0px"
	 viewBox="0 0 160 600" style="enable-background:new 0 0 160 600;" xml:space="preserve">
<style type="text/css">
	.st0{clip-path:url(#SVGID_00000092453870590981041830000006546394016491340943_);}
	.st1{enable-background:new    ;}
	.st2{fill:#4D4D4F;}
	.st3{fill:#AD1AAC;}
	.st4{fill:#43B02A;}
	.st5{fill:#4EC3E0;}
	.st6{fill:#007A33;}
	.st7{fill:#007A33;stroke:#007A33;stroke-width:0.5;}
	.st8{fill:none;}
	.st9{fill:none;stroke:#BBBCBC;}
</style>
<g>
	<defs>
		<rect id="SVGID_1_" y="0" width="160" height="600"/>
	</defs>
	<clipPath id="SVGID_00000068644462795300626950000010862916142208089501_">
		<use xlink:href="#SVGID_1_"  style="overflow:visible;"/>
	</clipPath>
	<g id="Skyscraper_160x600" style="clip-path:url(#SVGID_00000068644462795300626950000010862916142208089501_);">
		<g class="st1">
			<path class="st2" d="M30.5,133.2h-2.2v-0.3c0-0.9-0.2-1.7-1.4-1.7c-1.1,0-1.4,0.6-1.4,1.6v4.8c0,1,0.4,1.6,1.4,1.6
				c1.3,0,1.4-0.8,1.4-1.8v-0.6h2.2v0.5c0,2.4-1.1,3.8-3.6,3.8c-2.5,0-3.6-1.4-3.6-3.8v-4.3c0-2.4,1.2-3.8,3.6-3.8
				C29.3,129.3,30.5,130.6,30.5,133.2z"/>
			<path class="st2" d="M38.3,134.7v5.6c0,0.1,0,0.3,0.1,0.7h-2l-0.1-0.8c-0.6,0.6-1.4,1-2.4,1c-1.2,0-2-0.7-2-2.1
				c0-2.1,2.1-2.9,4.4-3.6v-0.6c0-0.7-0.4-1-1-1c-0.6,0-1.1,0.4-1.1,1.1h-2c0.1-1.8,1.5-2.7,3.2-2.7
				C37.3,132.1,38.3,133.1,38.3,134.7z M34.7,139.7c0.6,0,1-0.3,1.5-0.8v-2.1c-0.9,0.3-2.4,1-2.4,2
				C33.8,139.3,34.2,139.7,34.7,139.7z"/>
			<path class="st2" d="M44.4,134.3c-0.3-0.1-0.7-0.2-1.1-0.2c-0.6,0-1,0.4-1,1v6h-2v-8.7h2v1.2h0c0.5-0.8,1.1-1.3,2.1-1.3V134.3z"
				/>
			<path class="st2" d="M51.7,129.4V141h-1.9v-1.1h0c-0.4,0.7-1.4,1.2-2.1,1.2c-1.5,0-2.2-1.2-2.2-3.4v-2.2c0-2.2,0.7-3.4,2.2-3.4
				c0.6,0,1.1,0.3,2,1v-3.6H51.7z M49.7,134.3c-0.4-0.4-0.8-0.6-1.2-0.6c-0.7,0-1,0.7-1,2v2.1c0,1.3,0.3,1.9,1,1.9
				c0.4,0,0.8-0.2,1.2-0.6V134.3z"/>
			<path class="st2" d="M55.9,129v1.8h-2V129H55.9z M55.9,132.3v8.7h-2v-8.7H55.9z"/>
			<path class="st2" d="M64.3,135.3v2.6c0,2-1.1,3.2-3.2,3.2c-2.2,0-3.2-1.2-3.2-3.2v-2.6c0-2.1,1.1-3.2,3.2-3.2
				C63.2,132.1,64.3,133.3,64.3,135.3z M59.9,138.4c0,0.6,0.4,1,1.2,1s1.2-0.4,1.2-1v-3.5c0-0.6-0.4-1-1.2-1c-0.7,0-1.2,0.4-1.2,1
				V138.4z"/>
			<path class="st2" d="M67.3,132.3l1.3,5.6h0l1.3-5.6l0,0h2l-2.4,8.7h-2l-2.4-8.7H67.3z"/>
			<path class="st2" d="M79.2,134.7v5.6c0,0.1,0,0.3,0.1,0.7h-2l-0.1-0.8c-0.6,0.6-1.4,1-2.4,1c-1.2,0-2-0.7-2-2.1
				c0-2.1,2.1-2.9,4.4-3.6v-0.6c0-0.7-0.4-1-1-1c-0.6,0-1.1,0.4-1.1,1.1h-2c0.1-1.8,1.5-2.7,3.2-2.7
				C78.2,132.1,79.2,133.1,79.2,134.7z M75.6,139.7c0.6,0,1-0.3,1.5-0.8v-2.1c-0.9,0.3-2.4,1-2.4,2
				C74.7,139.3,75.1,139.7,75.6,139.7z"/>
			<path class="st2" d="M86.7,134.3l-1.7,0.6c-0.3-0.8-0.8-1.2-1.4-1.2c-0.5,0-0.8,0.3-0.8,0.8c0,0.5,0.5,0.8,1.6,1.3
				c1.5,0.7,2.4,1.4,2.4,2.7c0,1.7-1.2,2.6-2.9,2.6c-1.8,0-2.5-0.9-3.3-2.5l1.8-0.5c0.2,0.8,0.7,1.3,1.5,1.3c0.6,0,1-0.3,1-0.8
				c0-0.7-0.7-1.1-1.7-1.5c-1.1-0.5-2.2-1.1-2.2-2.7c0-1.6,1.2-2.4,2.8-2.4C85,132.1,86.1,132.9,86.7,134.3z"/>
			<path class="st2" d="M94.5,135.3h-2v-0.4c0-0.6-0.4-1-1.2-1c-0.8,0-1.2,0.4-1.2,1v3.5c0,0.6,0.4,1,1.2,1c0.7,0,1.2-0.4,1.2-1
				v-0.6h2c0,2.2-1.1,3.3-3.2,3.3c-2.2,0-3.2-1.2-3.2-3.2v-2.6c0-2,1-3.2,3.2-3.2C93.4,132.1,94.5,133.2,94.5,135.3z"/>
			<path class="st2" d="M98.3,132.3v6.4c0,0.5,0.2,0.9,0.7,0.9c0.4,0,0.8-0.4,1.3-0.8v-6.6h2v8.7h-2v-1c-0.9,0.8-1.6,1.2-2.3,1.2
				c-1.3,0-1.9-0.8-1.9-2.2v-6.7H98.3z"/>
			<path class="st2" d="M106.5,129.4V141h-2v-11.6H106.5z"/>
			<path class="st2" d="M114.7,134.7v5.6c0,0.1,0,0.3,0.1,0.7h-2l-0.1-0.8c-0.6,0.6-1.4,1-2.4,1c-1.2,0-2-0.7-2-2.1
				c0-2.1,2.1-2.9,4.4-3.6v-0.6c0-0.7-0.4-1-1-1c-0.6,0-1.1,0.4-1.1,1.1h-2c0.1-1.8,1.5-2.7,3.2-2.7
				C113.7,132.1,114.7,133.1,114.7,134.7z M111.2,139.7c0.6,0,1-0.3,1.5-0.8v-2.1c-0.9,0.3-2.4,1-2.4,2
				C110.3,139.3,110.6,139.7,111.2,139.7z"/>
			<path class="st2" d="M120.8,134.3c-0.3-0.1-0.7-0.2-1.1-0.2c-0.6,0-1,0.4-1,1v6h-2v-8.7h2v1.2h0c0.5-0.8,1.1-1.3,2.1-1.3V134.3z"
				/>
		</g>
		<g class="st1">
			<path class="st2" d="M24,155.3l-1.7,0.6c-0.3-0.8-0.8-1.2-1.4-1.2c-0.5,0-0.8,0.3-0.8,0.8c0,0.5,0.5,0.8,1.6,1.3
				c1.5,0.7,2.4,1.4,2.4,2.7c0,1.7-1.2,2.6-2.9,2.6c-1.8,0-2.5-0.9-3.3-2.5l1.8-0.5c0.2,0.8,0.7,1.3,1.5,1.3c0.6,0,1-0.3,1-0.8
				c0-0.7-0.7-1.1-1.7-1.5c-1.1-0.5-2.2-1.1-2.2-2.7c0-1.6,1.2-2.4,2.8-2.4C22.4,153.1,23.4,153.9,24,155.3z"/>
			<path class="st2" d="M31.6,155.7v5.6c0,0.1,0,0.3,0.1,0.7h-2l-0.1-0.8c-0.6,0.6-1.4,1-2.4,1c-1.2,0-2-0.7-2-2.1
				c0-2.1,2.1-2.9,4.4-3.6v-0.6c0-0.7-0.4-1-1-1c-0.6,0-1.1,0.4-1.1,1.1h-2c0.1-1.8,1.5-2.7,3.2-2.7
				C30.6,153.1,31.6,154.1,31.6,155.7z M28.1,160.7c0.6,0,1-0.3,1.5-0.8v-2.1c-0.9,0.3-2.4,1-2.4,2
				C27.2,160.3,27.5,160.7,28.1,160.7z"/>
			<path class="st2" d="M37,150.4v1.7h-0.5c-0.7,0-0.8,0.3-0.8,0.9v0.8h1.2v1.6h-1.2v6.7h-2v-6.7h-0.9v-1.6h0.9v-0.5
				c0-1.8,0.3-2.9,2.3-2.9C36.3,150.3,36.6,150.3,37,150.4z"/>
			<path class="st2" d="M44.3,156.1v2.1h-4.4v1.2c0,0.7,0.4,1.2,1.2,1.2c0.7,0,1.2-0.4,1.2-1.2h2c-0.1,1.8-1.2,2.8-3.2,2.8
				c-1.9,0-3.2-1.2-3.2-3.1v-2.9c0-1.8,1.3-3,3.2-3C42.9,153.1,44.3,154.3,44.3,156.1z M42.3,156.5V156c0-0.7-0.4-1.2-1.2-1.2
				c-0.8,0-1.2,0.5-1.2,1.2v0.6H42.3z"/>
			<path class="st2" d="M48,151.3v2.4h1.3v1.6H48v4.4c0,0.4,0.3,0.6,1,0.6c0.1,0,0.2,0,0.3,0v1.7c-0.4,0.1-0.8,0.1-1.1,0.1
				c-1.6,0-2.2-0.7-2.2-1.7v-5.2h-0.8v-1.6H46v-2.4H48z"/>
			<path class="st2" d="M51.8,153.3l1.4,5.8h0l1.3-5.8h2l-2.3,8.7c-0.5,2-1.2,3.1-3.4,3.1c-0.3,0-0.4,0-0.6,0v-1.8
				c0.1,0,0.3,0,0.5,0c1.2,0,1.6-0.9,1.6-1.2c0-0.6-0.2-1.3-0.4-1.8l-2-7H51.8z"/>
			<path class="st2" d="M68.3,156.5v2.2c0,2.2-0.7,3.4-2.2,3.4c-0.6,0-1.3-0.4-2-1v3.9h-2v-11.8h1.9v1.1h0c0.4-0.7,1.4-1.2,2.2-1.2
				C67.6,153.1,68.3,154.3,68.3,156.5z M64.1,160c0.4,0.4,0.8,0.6,1.2,0.6c0.7,0,1-0.8,1-2v-2c0-1.3-0.2-2-1-2
				c-0.4,0-0.8,0.2-1.2,0.6V160z"/>
			<path class="st2" d="M74.1,155.3c-0.3-0.1-0.7-0.2-1.1-0.2c-0.6,0-1,0.4-1,1v6h-2v-8.7h2v1.2h0c0.5-0.8,1.1-1.3,2.1-1.3V155.3z"
				/>
			<path class="st2" d="M81.6,156.3v2.6c0,2-1.1,3.2-3.2,3.2c-2.2,0-3.2-1.2-3.2-3.2v-2.6c0-2.1,1.1-3.2,3.2-3.2
				C80.6,153.1,81.6,154.3,81.6,156.3z M77.2,159.4c0,0.6,0.4,1,1.2,1s1.2-0.4,1.2-1v-3.5c0-0.6-0.4-1-1.2-1c-0.7,0-1.2,0.4-1.2,1
				V159.4z"/>
			<path class="st2" d="M86.7,150.4v1.7h-0.5c-0.5,0-0.8,0.2-0.8,0.8v0.9h1.2v1.6h-1.2v6.7h-2v-6.7h-0.9v-1.6h0.9v-0.6
				c0-1.7,0.3-2.8,2.3-2.8C86.1,150.3,86.4,150.3,86.7,150.4z M89.6,150.3v1.8h-2v-1.8H89.6z M89.6,153.7v8.3h-2v-8.3H89.6z"/>
			<path class="st2" d="M93.7,150.4V162h-2v-11.6H93.7z"/>
			<path class="st2" d="M102.1,156.1v2.1h-4.4v1.2c0,0.7,0.4,1.2,1.2,1.2c0.7,0,1.2-0.4,1.2-1.2h2c-0.1,1.8-1.2,2.8-3.2,2.8
				c-1.9,0-3.2-1.2-3.2-3.1v-2.9c0-1.8,1.3-3,3.2-3C100.7,153.1,102.1,154.3,102.1,156.1z M100.1,156.5V156c0-0.7-0.4-1.2-1.2-1.2
				c-0.8,0-1.2,0.5-1.2,1.2v0.6H100.1z"/>
			<path class="st2" d="M114.5,156.3v2.6c0,2-1.1,3.2-3.2,3.2c-2.2,0-3.2-1.2-3.2-3.2v-2.6c0-2.1,1.1-3.2,3.2-3.2
				C113.5,153.1,114.5,154.3,114.5,156.3z M110.1,159.4c0,0.6,0.4,1,1.2,1s1.2-0.4,1.2-1v-3.5c0-0.6-0.4-1-1.2-1
				c-0.7,0-1.2,0.4-1.2,1V159.4z"/>
			<path class="st2" d="M119.6,150.4v1.7h-0.5c-0.7,0-0.8,0.3-0.8,0.9v0.8h1.2v1.6h-1.2v6.7h-2v-6.7h-0.9v-1.6h0.9v-0.5
				c0-1.8,0.3-2.9,2.3-2.9C119,150.3,119.3,150.3,119.6,150.4z"/>
		</g>
		<g class="st1">
			<path class="st2" d="M24.3,192v1.8h-2V192H24.3z M24.3,195.3v8.7h-2v-8.7H24.3z"/>
			<path class="st2" d="M32.6,197.3v6.7h-2v-6.4c0-0.5-0.2-0.9-0.7-0.9c-0.4,0-0.8,0.4-1.3,0.8v6.6h-2v-8.7h2v1
				c0.9-0.8,1.6-1.2,2.3-1.2C32,195.1,32.6,195.9,32.6,197.3z"/>
			<path class="st2" d="M45.2,198.5v2.2c0,2.2-0.7,3.4-2.2,3.4c-0.6,0-1.3-0.4-2-1v3.9h-2v-11.8h1.9v1.1h0c0.4-0.7,1.4-1.2,2.2-1.2
				C44.5,195.1,45.2,196.3,45.2,198.5z M41,202c0.4,0.4,0.8,0.6,1.2,0.6c0.7,0,1-0.8,1-2v-2c0-1.3-0.2-2-1-2c-0.4,0-0.8,0.2-1.2,0.6
				V202z"/>
			<path class="st2" d="M52.9,197.7v5.6c0,0.1,0,0.3,0.1,0.7h-2l-0.1-0.8c-0.6,0.6-1.4,1-2.4,1c-1.2,0-2-0.7-2-2.1
				c0-2.1,2.1-2.9,4.4-3.6v-0.6c0-0.7-0.4-1-1-1c-0.6,0-1.1,0.4-1.1,1.1h-2c0.1-1.8,1.5-2.7,3.2-2.7C52,195.1,52.9,196.1,52.9,197.7
				z M49.4,202.7c0.6,0,1-0.3,1.5-0.8v-2.1c-0.9,0.3-2.4,1-2.4,2C48.5,202.3,48.9,202.7,49.4,202.7z"/>
			<path class="st2" d="M56.9,193.3v2.4h1.3v1.6h-1.3v4.4c0,0.4,0.3,0.6,1,0.6c0.1,0,0.2,0,0.3,0v1.7c-0.4,0.1-0.8,0.1-1.1,0.1
				c-1.6,0-2.2-0.7-2.2-1.7v-5.2h-0.8v-1.6h0.8v-2.4H56.9z"/>
			<path class="st2" d="M61.7,192v1.8h-2V192H61.7z M61.7,195.3v8.7h-2v-8.7H61.7z"/>
			<path class="st2" d="M70.1,198.1v2.1h-4.4v1.2c0,0.7,0.4,1.2,1.2,1.2c0.7,0,1.2-0.4,1.2-1.2h2c-0.1,1.8-1.2,2.8-3.2,2.8
				c-1.9,0-3.2-1.2-3.2-3.1v-2.9c0-1.8,1.3-3,3.2-3C68.7,195.1,70.1,196.3,70.1,198.1z M68.1,198.5V198c0-0.7-0.4-1.2-1.2-1.2
				c-0.8,0-1.2,0.5-1.2,1.2v0.6H68.1z"/>
			<path class="st2" d="M77.9,197.3v6.7h-2v-6.4c0-0.5-0.2-0.9-0.7-0.9c-0.4,0-0.8,0.4-1.3,0.8v6.6h-2v-8.7h2v1
				c0.9-0.8,1.6-1.2,2.3-1.2C77.4,195.1,77.9,195.9,77.9,197.3z"/>
			<path class="st2" d="M81.8,193.3v2.4h1.3v1.6h-1.3v4.4c0,0.4,0.3,0.6,1,0.6c0.1,0,0.2,0,0.3,0v1.7c-0.4,0.1-0.8,0.1-1.1,0.1
				c-1.6,0-2.2-0.7-2.2-1.7v-5.2H79v-1.6h0.8v-2.4H81.8z"/>
			<path class="st2" d="M89.8,197.3l-1.7,0.6c-0.3-0.8-0.8-1.2-1.4-1.2c-0.5,0-0.8,0.3-0.8,0.8c0,0.5,0.5,0.8,1.6,1.3
				c1.5,0.7,2.4,1.4,2.4,2.7c0,1.7-1.2,2.6-2.9,2.6c-1.8,0-2.5-0.9-3.3-2.5l1.8-0.5c0.2,0.8,0.7,1.3,1.5,1.3c0.6,0,1-0.3,1-0.8
				c0-0.7-0.7-1.1-1.7-1.5c-1.1-0.5-2.2-1.1-2.2-2.7c0-1.6,1.2-2.4,2.8-2.4C88.1,195.1,89.2,195.9,89.8,197.3z"/>
			<path class="st2" d="M97,195.3l1.2,5.4h0l1.2-5.4h1.7l1.2,5.4h0l1.1-5.4h1.9l-2,8.7h-1.9l-1.2-5.4h0l-1.1,5.4h-1.9l-2.1-8.7H97z"
				/>
			<path class="st2" d="M108.8,192v1.8h-2V192H108.8z M108.8,195.3v8.7h-2v-8.7H108.8z"/>
			<path class="st2" d="M112.9,193.3v2.4h1.3v1.6h-1.3v4.4c0,0.4,0.3,0.6,1,0.6c0.1,0,0.2,0,0.3,0v1.7c-0.4,0.1-0.8,0.1-1.1,0.1
				c-1.6,0-2.2-0.7-2.2-1.7v-5.2h-0.8v-1.6h0.8v-2.4H112.9z"/>
			<path class="st2" d="M117.4,192.4v3.8c0.8-0.8,1.5-1.2,2.2-1.2c1.3,0,1.9,0.8,1.9,2.2v6.7h-2v-6.5c0-0.5-0.2-0.9-0.7-0.9
				c-0.5,0-0.9,0.4-1.3,0.8v6.6h-2v-11.6H117.4z"/>
		</g>
		<g class="st1">
			<path class="st2" d="M46.9,218.7v5.6c0,0.1,0,0.3,0.1,0.7h-2l-0.1-0.8c-0.6,0.6-1.4,1-2.4,1c-1.2,0-2-0.7-2-2.1
				c0-2.1,2.1-2.9,4.4-3.6v-0.6c0-0.7-0.4-1-1-1c-0.6,0-1.1,0.4-1.1,1.1h-2c0.1-1.8,1.5-2.7,3.2-2.7
				C45.9,216.1,46.9,217.1,46.9,218.7z M43.4,223.7c0.6,0,1-0.3,1.5-0.8v-2.1c-0.9,0.3-2.4,1-2.4,2
				C42.5,223.3,42.8,223.7,43.4,223.7z"/>
			<path class="st2" d="M55,218.3v6.7h-2v-6.4c0-0.5-0.2-0.9-0.7-0.9c-0.4,0-0.8,0.4-1.3,0.8v6.6h-2v-8.7h2v1
				c0.9-0.8,1.6-1.2,2.3-1.2C54.5,216.1,55,216.9,55,218.3z"/>
			<path class="st2" d="M62.9,218.7v5.6c0,0.1,0,0.3,0.1,0.7h-2l-0.1-0.8c-0.6,0.6-1.4,1-2.4,1c-1.2,0-2-0.7-2-2.1
				c0-2.1,2.1-2.9,4.4-3.6v-0.6c0-0.7-0.4-1-1-1c-0.6,0-1.1,0.4-1.1,1.1h-2c0.1-1.8,1.5-2.7,3.2-2.7
				C61.9,216.1,62.9,217.1,62.9,218.7z M59.4,223.7c0.6,0,1-0.3,1.5-0.8v-2.1c-0.9,0.3-2.4,1-2.4,2
				C58.5,223.3,58.8,223.7,59.4,223.7z"/>
			<path class="st2" d="M71.2,219.1v2.1h-4.4v1.2c0,0.7,0.4,1.2,1.2,1.2c0.7,0,1.2-0.4,1.2-1.2h2c-0.1,1.8-1.2,2.8-3.2,2.8
				c-1.9,0-3.2-1.2-3.2-3.1v-2.9c0-1.8,1.3-3,3.2-3C69.8,216.1,71.2,217.3,71.2,219.1z M69.1,219.5V219c0-0.7-0.4-1.2-1.2-1.2
				c-0.8,0-1.2,0.5-1.2,1.2v0.6H69.1z"/>
			<path class="st2" d="M78.6,217.4c0.7-0.7,1.2-1.3,2.1-1.3c1.2,0,1.8,0.8,1.8,2.2v6.6h-2v-6.7c0-0.5-0.2-0.7-0.5-0.7
				c-0.4,0-1.1,0.5-1.3,0.8v6.6h-2v-6.7c0-0.5-0.2-0.7-0.5-0.7c-0.4,0-0.9,0.4-1.2,0.8v6.6h-2v-8.7h2v1c0.7-0.6,1.3-1.2,2.2-1.2
				C77.8,216.1,78.3,216.6,78.6,217.4z"/>
			<path class="st2" d="M86.7,213v1.8h-2V213H86.7z M86.7,216.3v8.7h-2v-8.7H86.7z"/>
			<path class="st2" d="M94.9,218.7v5.6c0,0.1,0,0.3,0.1,0.7h-2l-0.1-0.8c-0.6,0.6-1.4,1-2.4,1c-1.2,0-2-0.7-2-2.1
				c0-2.1,2.1-2.9,4.4-3.6v-0.6c0-0.7-0.4-1-1-1c-0.6,0-1.1,0.4-1.1,1.1h-2c0.1-1.8,1.5-2.7,3.2-2.7
				C93.9,216.1,94.9,217.1,94.9,218.7z M91.4,223.7c0.6,0,1-0.3,1.5-0.8v-2.1c-0.9,0.3-2.4,1-2.4,2
				C90.5,223.3,90.8,223.7,91.4,223.7z"/>
			<path class="st2" d="M107.6,219.3v2.6c0,2-1.1,3.2-3.2,3.2c-2.2,0-3.2-1.2-3.2-3.2v-2.6c0-2.1,1.1-3.2,3.2-3.2
				C106.6,216.1,107.6,217.3,107.6,219.3z M103.2,222.4c0,0.6,0.4,1,1.2,1s1.2-0.4,1.2-1v-3.5c0-0.6-0.4-1-1.2-1
				c-0.7,0-1.2,0.4-1.2,1V222.4z"/>
			<path class="st2" d="M112.7,213.4v1.7h-0.5c-0.7,0-0.8,0.3-0.8,0.9v0.8h1.2v1.6h-1.2v6.7h-2v-6.7h-0.9v-1.6h0.9v-0.5
				c0-1.8,0.3-2.9,2.3-2.9C112.1,213.3,112.4,213.3,112.7,213.4z"/>
		</g>
		<g class="st1">
			<path class="st2" d="M72.5,238.2h-2.2v-0.3c0-0.9-0.2-1.7-1.4-1.7c-1.1,0-1.4,0.6-1.4,1.6v4.8c0,1,0.4,1.6,1.4,1.6
				c1.3,0,1.4-0.8,1.4-1.8v-0.6h2.2v0.5c0,2.4-1.1,3.8-3.6,3.8c-2.5,0-3.6-1.4-3.6-3.8v-4.3c0-2.4,1.2-3.8,3.6-3.8
				C71.3,234.3,72.5,235.6,72.5,238.2z"/>
			<path class="st2" d="M76.5,234.4v4.8h0l2.9-4.8h2.4l-3,4.7l3.3,6.9h-2.5l-2.3-4.8l-0.9,1.3v3.5h-2.2v-11.6H76.5z"/>
			<path class="st2" d="M86.3,234.4c2.4,0,4,1.2,4,4.1v3.3c0,2.4-1,4.1-4,4.1h-3.2v-11.6H86.3z M85.4,244h0.7c1.6,0,2-0.8,2-2.2
				v-3.2c0-1.5-0.5-2.2-1.9-2.2h-0.8V244z"/>
		</g>
		<g class="st1">
			<path class="st2" d="M94.4,233.8v6.8h-1.2v-5.2h-1v-0.7c0.6-0.1,1-0.2,1.5-0.9H94.4z"/>
		</g>
		<g class="st1">
			<path class="st2" d="M48.8,171.4v2H45v2.7h2.9v2H45v3h4v2h-6.2v-11.6H48.8z"/>
			<path class="st2" d="M52.2,171.4l2,8.3h0l2-8.3h2.2L55.5,183H53l-3-11.6H52.2z"/>
			<path class="st2" d="M62.9,171.4c2.3,0,3.9,1.1,3.9,3.5c0,1.4-0.5,2.5-1.7,2.9l2.2,5.2h-2.4l-1.9-4.7h-1.1v4.7h-2.2v-11.6H62.9z
				 M63,176.5c1,0,1.5-0.5,1.5-1.6c0-1-0.5-1.6-1.5-1.6h-1.2v3.2H63z"/>
			<path class="st2" d="M74.6,171.4v2h-3.8v2.7h2.9v2h-2.9v3h4v2h-6.2v-11.6H74.6z"/>
			<path class="st2" d="M79.1,171.4l3.1,6.9h0v-6.9h2V183h-2.1l-3.4-7.5h0v7.5h-2v-11.6H79.1z"/>
			<path class="st2" d="M92.7,171.4v1.9l-4.4,7.7h4.5v2h-6.9v-1.9l4.4-7.7h-3.9v-2H92.7z"/>
			<path class="st2" d="M100.5,172.3c0.6,0.7,0.9,1.6,0.9,2.8v4.3c0,2.4-1.2,3.8-3.7,3.8s-3.6-1.4-3.6-3.8v-4.3
				c0-2.4,1.2-3.8,3.6-3.8C99,171.3,99.9,171.6,100.5,172.3z M96.3,179.6c0,1,0.4,1.6,1.4,1.6c1.1,0,1.4-0.6,1.4-1.6v-4.8
				c0-1-0.4-1.6-1.5-1.6c-1,0-1.4,0.6-1.4,1.6V179.6z"/>
			<path class="st2" d="M108.2,171.4v1.3h-1.8v5.2h-1.8v-5.2h-1.8v-1.3H108.2z M111.7,171.4l1.5,4l1.5-4h2.4v6.6h-1.7v-4.5h0
				l-1.6,4.5h-1.3l-1.6-4.5h0v4.5h-1.7v-6.6H111.7z"/>
		</g>
		<g class="st1">
			<path class="st2" d="M39.7,261.2v0.9H37v1.4h2v0.9h-2v1.6h2.8v0.9h-3.9v-5.8H39.7z"/>
			<path class="st2" d="M41.3,261.2l1,4.3h0l1.1-4.3h1.1L43,267h-1.2l-1.5-5.8H41.3z"/>
			<path class="st2" d="M47.5,261.2c1.1,0,1.8,0.6,1.8,1.7c0,0.7-0.4,1.3-1.1,1.5l1.3,2.6h-1.2l-1.1-2.4h-1v2.4h-1.1v-5.8H47.5z
				 M47.2,263.8c0.7,0,1.1-0.2,1.1-0.8c0-0.6-0.4-0.8-0.9-0.8h-1v1.6H47.2z"/>
			<path class="st2" d="M54.4,261.2v0.9h-2.7v1.4h2v0.9h-2v1.6h2.8v0.9h-3.9v-5.8H54.4z"/>
			<path class="st2" d="M56.6,261.2l2.3,3.9h0v-3.9h1v5.8h-1.1l-2.4-4.1h0v4.1h-1v-5.8H56.6z"/>
			<path class="st2" d="M64.8,261.2v0.9l-2.8,4h2.8v0.9h-4.1v-0.9l2.7-3.9h-2.5v-0.9H64.8z"/>
			<path class="st2" d="M70.1,264.1c0,1.9-0.9,3-2.4,3s-2.4-1.1-2.4-3c0-1.9,0.9-3,2.4-3S70.1,262.2,70.1,264.1z M67.7,266.2
				c0.9,0,1.3-0.7,1.3-2c0-1.4-0.4-2-1.3-2c-0.9,0-1.3,0.6-1.3,2.1C66.4,265.5,66.8,266.2,67.7,266.2z"/>
			<path class="st2" d="M75.2,261.1c-0.8,1-1.2,2.1-1.2,3.3c0,1.2,0.4,2.3,1.2,3.3h-1c-0.9-1.3-1.1-2.2-1.1-3.3
				c0-1.1,0.2-1.9,1.1-3.3H75.2z"/>
			<path class="st2" d="M78,263.8c0,0-0.1,0-0.2,0c-0.5,0-0.9,0.5-0.9,0.7v2.5h-1v-4.2h0.9v0.7h0c0.2-0.5,0.6-0.8,1.2-0.8V263.8z"/>
			<path class="st2" d="M81.9,264.9c0,1.3-0.7,2.2-1.8,2.2c-1.1,0-1.8-0.8-1.8-2.2c0-1.3,0.7-2.2,1.8-2.2S81.9,263.6,81.9,264.9z
				 M80.1,266.3c0.5,0,0.8-0.4,0.8-1.4c0-0.9-0.3-1.4-0.8-1.4c-0.6,0-0.8,0.5-0.8,1.4C79.3,265.9,79.6,266.3,80.1,266.3z"/>
			<path class="st2" d="M83.3,262.8l0.6,1.2l0.6-1.2h1.1l-1.2,2l1.3,2.2h-1.1l-0.7-1.3l-0.7,1.3h-1.1l1.2-2.2l-1.2-2H83.3z"/>
			<path class="st2" d="M89.2,264.4v2c0,0.1,0,0.4,0.1,0.6h-1l-0.1-0.4c-0.4,0.3-0.8,0.4-1.3,0.4c-0.7,0-1.1-0.5-1.1-1.1
				c0-0.9,0.8-1.4,2.4-1.6V264c0-0.3-0.3-0.5-0.6-0.5c-0.3,0-0.6,0.2-0.9,0.5l-0.6-0.5c0.3-0.4,0.9-0.8,1.5-0.8
				C88.7,262.8,89.2,263.2,89.2,264.4z M87.3,266.3c0.3,0,0.6-0.2,0.9-0.4V265c-1.1,0.2-1.4,0.5-1.4,0.8
				C86.8,266.2,87,266.3,87.3,266.3z"/>
			<path class="st2" d="M93.6,261.2v5.8h-0.8l0-0.4c-0.4,0.3-0.7,0.5-1.1,0.5c-1.1,0-1.7-0.9-1.7-2.3c0-1.1,0.6-2.1,1.7-2.1
				c0.4,0,0.8,0.2,1,0.5h0v-2H93.6z M91.8,266.3c0.4,0,0.6-0.2,0.8-0.4v-2c-0.2-0.2-0.4-0.4-0.8-0.4c-0.6,0-0.9,0.5-0.9,1.4
				S91.3,266.3,91.8,266.3z"/>
			<path class="st2" d="M95.6,262.8v2.7c0,0.5,0.1,0.7,0.5,0.7c0.3,0,0.7-0.2,0.9-0.4v-3h1v4.2h-0.9v-0.4c-0.5,0.4-0.9,0.5-1.3,0.5
				c-0.8,0-1.2-0.5-1.2-1.4v-2.9H95.6z"/>
			<path class="st2" d="M101.7,263.4l-0.6,0.5c-0.3-0.3-0.5-0.4-0.8-0.4c-0.4,0-0.6,0.2-0.6,0.4c0,0.2,0.2,0.4,0.7,0.6
				c1,0.3,1.3,0.7,1.3,1.4c0,0.8-0.6,1.2-1.5,1.2c-0.7,0-1.2-0.3-1.6-0.8l0.7-0.5c0.3,0.4,0.6,0.6,1,0.6c0.4,0,0.6-0.2,0.6-0.5
				c0-0.2-0.2-0.4-0.8-0.6c-1-0.3-1.3-0.7-1.3-1.3c0-0.7,0.6-1.2,1.4-1.2C100.8,262.8,101.4,263,101.7,263.4z"/>
			<path class="st2" d="M103.8,261.5v1.4h0.8v0.8h-0.8v2.4c0,0.2,0.1,0.3,0.4,0.3c0.2,0,0.3,0,0.5-0.1v0.8c-0.3,0-0.5,0.1-0.8,0.1
				c-0.7,0-1-0.3-1-1v-2.5h-0.6v-0.8h0.6v-1.4H103.8z"/>
			<path class="st2" d="M108.3,264.4v2c0,0.1,0,0.4,0.1,0.6h-1l-0.1-0.4c-0.4,0.3-0.8,0.4-1.3,0.4c-0.7,0-1.1-0.5-1.1-1.1
				c0-0.9,0.8-1.4,2.4-1.6V264c0-0.3-0.3-0.5-0.6-0.5c-0.3,0-0.6,0.2-0.9,0.5l-0.6-0.5c0.3-0.4,0.9-0.8,1.5-0.8
				C107.8,262.8,108.3,263.2,108.3,264.4z M106.4,266.3c0.3,0,0.6-0.2,0.9-0.4V265c-1.1,0.2-1.4,0.5-1.4,0.8
				C105.9,266.2,106.1,266.3,106.4,266.3z"/>
			<path class="st2" d="M110.4,261.5v1.4h0.8v0.8h-0.8v2.4c0,0.2,0.1,0.3,0.4,0.3c0.2,0,0.3,0,0.5-0.1v0.8c-0.3,0-0.5,0.1-0.8,0.1
				c-0.7,0-1-0.3-1-1v-2.5h-0.6v-0.8h0.6v-1.4H110.4z"/>
			<path class="st2" d="M112.6,261.1c0.9,1.3,1.1,2.2,1.1,3.3c0,1.1-0.2,1.9-1.1,3.3h-1c0.8-1,1.2-2,1.2-3.3c0-1.2-0.4-2.3-1.2-3.3
				H112.6z"/>
			<path class="st2" d="M118.2,261.1v0.9h-1v-0.9H118.2z M118.2,262.8v4.2h-1v-4.2H118.2z"/>
			<path class="st2" d="M121.9,263.4l-0.6,0.5c-0.3-0.3-0.5-0.4-0.8-0.4c-0.4,0-0.6,0.2-0.6,0.4c0,0.2,0.2,0.4,0.7,0.6
				c1,0.3,1.3,0.7,1.3,1.4c0,0.8-0.6,1.2-1.5,1.2c-0.7,0-1.2-0.3-1.6-0.8l0.7-0.5c0.3,0.4,0.6,0.6,1,0.6s0.6-0.2,0.6-0.5
				c0-0.2-0.2-0.4-0.8-0.6c-1-0.3-1.3-0.7-1.3-1.3c0-0.7,0.6-1.2,1.4-1.2C121,262.8,121.6,263,121.9,263.4z"/>
		</g>
		<g class="st1">
			<path class="st2" d="M25.5,270.1v0.9h-1v-0.9H25.5z M25.5,271.8v4.2h-1v-4.2H25.5z"/>
			<path class="st2" d="M30.1,273.1v2.9h-1v-2.7c0-0.5-0.1-0.7-0.5-0.7c-0.3,0-0.7,0.2-0.9,0.4v3h-1v-4.2h0.9v0.4
				c0.5-0.4,0.9-0.5,1.3-0.5C29.6,271.8,30.1,272.3,30.1,273.1z"/>
			<path class="st2" d="M34.5,270.2v5.8h-0.8l0-0.4c-0.4,0.3-0.7,0.5-1.1,0.5c-1.1,0-1.7-0.9-1.7-2.3c0-1.1,0.6-2.1,1.7-2.1
				c0.4,0,0.8,0.2,1,0.5h0v-2H34.5z M32.7,275.3c0.4,0,0.6-0.2,0.8-0.4v-2c-0.2-0.2-0.4-0.4-0.8-0.4c-0.6,0-0.9,0.5-0.9,1.4
				S32.2,275.3,32.7,275.3z"/>
			<path class="st2" d="M36.6,270.1v0.9h-1v-0.9H36.6z M36.6,271.8v4.2h-1v-4.2H36.6z"/>
			<path class="st2" d="M40.9,272.9l-0.8,0.3c-0.2-0.5-0.4-0.6-0.8-0.6c-0.6,0-0.8,0.4-0.8,1.4c0,0.9,0.3,1.4,0.8,1.4
				c0.4,0,0.6-0.2,0.9-0.7l0.8,0.4c-0.4,0.7-0.9,1-1.6,1c-1.2,0-1.8-0.8-1.8-2.2c0-1.3,0.7-2.2,1.8-2.2
				C40,271.8,40.6,272.2,40.9,272.9z"/>
			<path class="st2" d="M44.8,273.4v2c0,0.1,0,0.4,0.1,0.6h-1l-0.1-0.4c-0.4,0.3-0.8,0.4-1.3,0.4c-0.7,0-1.1-0.5-1.1-1.1
				c0-0.9,0.8-1.4,2.4-1.6V273c0-0.3-0.3-0.5-0.6-0.5c-0.3,0-0.6,0.2-0.9,0.5l-0.6-0.5c0.3-0.4,0.9-0.8,1.5-0.8
				C44.3,271.8,44.8,272.2,44.8,273.4z M42.9,275.3c0.3,0,0.6-0.2,0.9-0.4V274c-1.1,0.2-1.4,0.5-1.4,0.8
				C42.4,275.2,42.6,275.3,42.9,275.3z"/>
			<path class="st2" d="M46.9,270.5v1.4h0.8v0.8h-0.8v2.4c0,0.2,0.1,0.3,0.4,0.3c0.2,0,0.3,0,0.5-0.1v0.8c-0.3,0-0.5,0.1-0.8,0.1
				c-0.7,0-1-0.3-1-1v-2.5h-0.6v-0.8h0.6v-1.4H46.9z"/>
			<path class="st2" d="M51.6,273.6v0.4h-2.5c0,0.8,0.3,1.2,0.9,1.2c0.4,0,0.6-0.1,0.9-0.5l0.7,0.4c-0.4,0.6-0.9,0.8-1.7,0.8
				c-1.1,0-1.8-0.8-1.8-2.2s0.7-2.2,1.8-2.2C51.1,271.8,51.6,272.8,51.6,273.6z M50.7,273.4c0-0.6-0.3-0.9-0.8-0.9
				c-0.5,0-0.8,0.3-0.8,0.9H50.7z"/>
			<path class="st2" d="M55.8,270.2v5.8H55l0-0.4c-0.4,0.3-0.7,0.5-1.1,0.5c-1.1,0-1.7-0.9-1.7-2.3c0-1.1,0.6-2.1,1.7-2.1
				c0.4,0,0.8,0.2,1,0.5h0v-2H55.8z M54.1,275.3c0.4,0,0.6-0.2,0.8-0.4v-2c-0.2-0.2-0.4-0.4-0.8-0.4c-0.6,0-0.9,0.5-0.9,1.4
				S53.5,275.3,54.1,275.3z"/>
			<path class="st2" d="M61.3,270.1v0.8H61c-0.5,0-0.6,0.2-0.6,0.5v0.4h0.8v0.8h-0.8v3.4h-1v-3.4h-0.6v-0.8h0.6v-0.5
				c0-0.8,0.3-1.2,1.1-1.2H61.3z"/>
			<path class="st2" d="M65.3,273.9c0,1.3-0.7,2.2-1.8,2.2c-1.1,0-1.8-0.8-1.8-2.2c0-1.3,0.7-2.2,1.8-2.2S65.3,272.6,65.3,273.9z
				 M63.5,275.3c0.5,0,0.8-0.4,0.8-1.4c0-0.9-0.3-1.4-0.8-1.4c-0.6,0-0.8,0.5-0.8,1.4C62.6,274.9,62.9,275.3,63.5,275.3z"/>
			<path class="st2" d="M68,272.8c0,0-0.1,0-0.2,0c-0.5,0-0.9,0.5-0.9,0.7v2.5h-1v-4.2h0.9v0.7h0c0.2-0.5,0.6-0.8,1.2-0.8V272.8z"/>
			<path class="st2" d="M72.2,270.5v1.4H73v0.8h-0.8v2.4c0,0.2,0.1,0.3,0.4,0.3c0.2,0,0.3,0,0.5-0.1v0.8c-0.3,0-0.5,0.1-0.8,0.1
				c-0.7,0-1-0.3-1-1v-2.5h-0.6v-0.8h0.6v-1.4H72.2z"/>
			<path class="st2" d="M75.8,272.8c0,0-0.1,0-0.2,0c-0.5,0-0.9,0.5-0.9,0.7v2.5h-1v-4.2h0.9v0.7h0c0.2-0.5,0.6-0.8,1.2-0.8V272.8z"
				/>
			<path class="st2" d="M79.6,273.6v0.4h-2.5c0,0.8,0.3,1.2,0.9,1.2c0.4,0,0.6-0.1,0.9-0.5l0.7,0.4c-0.4,0.6-0.9,0.8-1.7,0.8
				c-1.1,0-1.8-0.8-1.8-2.2s0.7-2.2,1.8-2.2C79.1,271.8,79.6,272.8,79.6,273.6z M78.7,273.4c0-0.6-0.3-0.9-0.8-0.9
				c-0.5,0-0.8,0.3-0.8,0.9H78.7z"/>
			<path class="st2" d="M83.4,273.4v2c0,0.1,0,0.4,0.1,0.6h-1l-0.1-0.4c-0.4,0.3-0.8,0.4-1.3,0.4c-0.7,0-1.1-0.5-1.1-1.1
				c0-0.9,0.8-1.4,2.4-1.6V273c0-0.3-0.3-0.5-0.6-0.5c-0.3,0-0.6,0.2-0.9,0.5l-0.6-0.5c0.3-0.4,0.9-0.8,1.5-0.8
				C83,271.8,83.4,272.2,83.4,273.4z M81.5,275.3c0.3,0,0.6-0.2,0.9-0.4V274c-1.1,0.2-1.4,0.5-1.4,0.8
				C81,275.2,81.2,275.3,81.5,275.3z"/>
			<path class="st2" d="M85.6,270.5v1.4h0.8v0.8h-0.8v2.4c0,0.2,0.1,0.3,0.4,0.3c0.2,0,0.3,0,0.5-0.1v0.8c-0.3,0-0.5,0.1-0.8,0.1
				c-0.7,0-1-0.3-1-1v-2.5H84v-0.8h0.6v-1.4H85.6z"/>
			<path class="st2" d="M90.2,272.4c0.4-0.4,0.9-0.6,1.4-0.6c0.6,0,1,0.5,1,1.2v3h-1v-2.9c0-0.3-0.2-0.5-0.5-0.5
				c-0.2,0-0.5,0.2-0.8,0.4v3h-1v-2.9c0-0.3-0.2-0.5-0.5-0.5c-0.2,0-0.5,0.2-0.8,0.4v3h-1v-4.2H88v0.4c0.4-0.4,0.7-0.5,1.2-0.5
				C89.7,271.8,90.1,272,90.2,272.4z"/>
			<path class="st2" d="M96.9,273.6v0.4h-2.5c0,0.8,0.3,1.2,0.9,1.2c0.4,0,0.6-0.1,0.9-0.5l0.7,0.4c-0.4,0.6-0.9,0.8-1.7,0.8
				c-1.1,0-1.8-0.8-1.8-2.2s0.7-2.2,1.8-2.2C96.4,271.8,96.9,272.8,96.9,273.6z M96,273.4c0-0.6-0.3-0.9-0.8-0.9
				c-0.5,0-0.8,0.3-0.8,0.9H96z"/>
			<path class="st2" d="M101.2,273.1v2.9h-1v-2.7c0-0.5-0.1-0.7-0.5-0.7c-0.3,0-0.7,0.2-0.9,0.4v3h-1v-4.2h0.9v0.4
				c0.5-0.4,0.9-0.5,1.3-0.5C100.7,271.8,101.2,272.3,101.2,273.1z"/>
			<path class="st2" d="M103.3,270.5v1.4h0.8v0.8h-0.8v2.4c0,0.2,0.1,0.3,0.4,0.3c0.2,0,0.3,0,0.5-0.1v0.8c-0.3,0-0.5,0.1-0.8,0.1
				c-0.7,0-1-0.3-1-1v-2.5h-0.6v-0.8h0.6v-1.4H103.3z"/>
			<path class="st2" d="M110.6,273.9c0,1.3-0.7,2.2-1.8,2.2c-1.1,0-1.8-0.8-1.8-2.2c0-1.3,0.7-2.2,1.8-2.2S110.6,272.6,110.6,273.9z
				 M108.8,275.3c0.5,0,0.8-0.4,0.8-1.4c0-0.9-0.3-1.4-0.8-1.4c-0.6,0-0.8,0.5-0.8,1.4C108,274.9,108.2,275.3,108.8,275.3z"/>
			<path class="st2" d="M113.3,270.1v0.8H113c-0.5,0-0.6,0.2-0.6,0.5v0.4h0.8v0.8h-0.8v3.4h-1v-3.4h-0.6v-0.8h0.6v-0.5
				c0-0.8,0.3-1.2,1.1-1.2H113.3z"/>
			<path class="st2" d="M119.4,273.4v2c0,0.1,0,0.4,0.1,0.6h-1l-0.1-0.4c-0.4,0.3-0.8,0.4-1.3,0.4c-0.7,0-1.1-0.5-1.1-1.1
				c0-0.9,0.8-1.4,2.4-1.6V273c0-0.3-0.3-0.5-0.6-0.5c-0.3,0-0.6,0.2-0.9,0.5l-0.6-0.5c0.3-0.4,0.9-0.8,1.5-0.8
				C118.9,271.8,119.4,272.2,119.4,273.4z M117.5,275.3c0.3,0,0.6-0.2,0.9-0.4V274c-1.1,0.2-1.4,0.5-1.4,0.8
				C117,275.2,117.2,275.3,117.5,275.3z"/>
			<path class="st2" d="M123.8,270.2v5.8H123l0-0.4c-0.4,0.3-0.7,0.5-1.1,0.5c-1.1,0-1.7-0.9-1.7-2.3c0-1.1,0.6-2.1,1.7-2.1
				c0.4,0,0.8,0.2,1,0.5h0v-2H123.8z M122,275.3c0.4,0,0.6-0.2,0.8-0.4v-2c-0.2-0.2-0.4-0.4-0.8-0.4c-0.6,0-0.9,0.5-0.9,1.4
				S121.5,275.3,122,275.3z"/>
			<path class="st2" d="M125.8,271.8v2.7c0,0.5,0.1,0.7,0.5,0.7c0.3,0,0.7-0.2,0.9-0.4v-3h1v4.2h-0.9v-0.4c-0.5,0.4-0.9,0.5-1.3,0.5
				c-0.8,0-1.2-0.5-1.2-1.4v-2.9H125.8z"/>
			<path class="st2" d="M130.4,270.2v5.8h-1v-5.8H130.4z"/>
			<path class="st2" d="M132.7,270.5v1.4h0.8v0.8h-0.8v2.4c0,0.2,0.1,0.3,0.4,0.3c0.2,0,0.3,0,0.5-0.1v0.8c-0.3,0-0.5,0.1-0.8,0.1
				c-0.7,0-1-0.3-1-1v-2.5h-0.6v-0.8h0.6v-1.4H132.7z"/>
		</g>
		<g class="st1">
			<path class="st2" d="M37,283c0,1.1-0.7,2.1-1.7,2.1c-0.3,0-0.8-0.2-1-0.5h0v1.9h-1v-5.7h1v0.4c0.3-0.3,0.6-0.5,1.1-0.5
				C36.4,280.8,37,281.7,37,283z M34.3,283.9c0.2,0.2,0.5,0.4,0.8,0.4c0.6,0,0.9-0.5,0.9-1.4c0-0.9-0.3-1.4-0.9-1.4
				c-0.4,0-0.7,0.3-0.8,0.4V283.9z"/>
			<path class="st2" d="M40.8,282.4v2c0,0.1,0,0.4,0.1,0.6h-1l-0.1-0.4c-0.4,0.3-0.8,0.4-1.3,0.4c-0.7,0-1.1-0.5-1.1-1.1
				c0-0.9,0.8-1.4,2.4-1.6V282c0-0.3-0.3-0.5-0.6-0.5c-0.3,0-0.6,0.2-0.9,0.5l-0.6-0.5c0.3-0.4,0.9-0.8,1.5-0.8
				C40.3,280.8,40.8,281.2,40.8,282.4z M38.9,284.3c0.3,0,0.6-0.2,0.9-0.4V283c-1.1,0.2-1.4,0.5-1.4,0.8
				C38.4,284.2,38.6,284.3,38.9,284.3z"/>
			<path class="st2" d="M42.9,279.5v1.4h0.8v0.8h-0.8v2.4c0,0.2,0.1,0.3,0.4,0.3c0.2,0,0.3,0,0.5-0.1v0.8c-0.3,0-0.5,0.1-0.8,0.1
				c-0.7,0-1-0.3-1-1v-2.5h-0.6v-0.8h0.6v-1.4H42.9z"/>
			<path class="st2" d="M45.5,279.1v0.9h-1v-0.9H45.5z M45.5,280.8v4.2h-1v-4.2H45.5z"/>
			<path class="st2" d="M49.8,282.6v0.4h-2.5c0,0.8,0.3,1.2,0.9,1.2c0.4,0,0.6-0.1,0.9-0.5l0.7,0.4c-0.4,0.6-0.9,0.8-1.7,0.8
				c-1.1,0-1.8-0.8-1.8-2.2s0.7-2.2,1.8-2.2C49.3,280.8,49.8,281.8,49.8,282.6z M48.9,282.4c0-0.6-0.3-0.9-0.8-0.9
				c-0.5,0-0.8,0.3-0.8,0.9H48.9z"/>
			<path class="st2" d="M54.1,282.1v2.9h-1v-2.7c0-0.5-0.1-0.7-0.5-0.7c-0.3,0-0.7,0.2-0.9,0.4v3h-1v-4.2h0.9v0.4
				c0.5-0.4,0.9-0.5,1.3-0.5C53.6,280.8,54.1,281.3,54.1,282.1z"/>
			<path class="st2" d="M56.2,279.5v1.4h0.8v0.8h-0.8v2.4c0,0.2,0.1,0.3,0.4,0.3c0.2,0,0.3,0,0.5-0.1v0.8c-0.3,0-0.5,0.1-0.8,0.1
				c-0.7,0-1-0.3-1-1v-2.5h-0.6v-0.8h0.6v-1.4H56.2z"/>
			<path class="st2" d="M60.4,281.4l-0.6,0.5c-0.3-0.3-0.5-0.4-0.8-0.4c-0.4,0-0.6,0.2-0.6,0.4c0,0.2,0.2,0.4,0.7,0.6
				c1,0.3,1.3,0.7,1.3,1.4c0,0.8-0.6,1.2-1.5,1.2c-0.7,0-1.2-0.3-1.6-0.8l0.7-0.5c0.3,0.4,0.6,0.6,1,0.6c0.4,0,0.6-0.2,0.6-0.5
				c0-0.2-0.2-0.4-0.8-0.6c-1-0.3-1.3-0.7-1.3-1.3c0-0.7,0.6-1.2,1.4-1.2C59.5,280.8,60,281,60.4,281.4z"/>
			<path class="st2" d="M64.3,280.8l0.6,2.6h0l0.6-2.6h0.9l0.6,2.6h0l0.6-2.6h0.9l-1.1,4.2h-0.9l-0.6-2.6h0l-0.6,2.6h-0.9l-1.1-4.2
				H64.3z"/>
			<path class="st2" d="M70.2,279.1v0.9h-1v-0.9H70.2z M70.2,280.8v4.2h-1v-4.2H70.2z"/>
			<path class="st2" d="M72.5,279.5v1.4h0.8v0.8h-0.8v2.4c0,0.2,0.1,0.3,0.4,0.3c0.2,0,0.3,0,0.5-0.1v0.8c-0.3,0-0.5,0.1-0.8,0.1
				c-0.7,0-1-0.3-1-1v-2.5h-0.6v-0.8h0.6v-1.4H72.5z"/>
			<path class="st2" d="M75,279.2v2.1c0.4-0.4,0.8-0.5,1.2-0.5c0.8,0,1.2,0.5,1.2,1.4v2.9h-1v-2.7c0-0.5-0.1-0.7-0.5-0.7
				c-0.3,0-0.7,0.2-0.9,0.4v3h-1v-5.8H75z"/>
			<path class="st2" d="M83.5,281.4l-0.6,0.5c-0.3-0.3-0.5-0.4-0.8-0.4c-0.4,0-0.6,0.2-0.6,0.4c0,0.2,0.2,0.4,0.7,0.6
				c1,0.3,1.3,0.7,1.3,1.4c0,0.8-0.6,1.2-1.5,1.2c-0.7,0-1.2-0.3-1.6-0.8l0.7-0.5c0.3,0.4,0.6,0.6,1,0.6c0.4,0,0.6-0.2,0.6-0.5
				c0-0.2-0.2-0.4-0.8-0.6c-1-0.3-1.3-0.7-1.3-1.3c0-0.7,0.6-1.2,1.4-1.2C82.6,280.8,83.1,281,83.5,281.4z"/>
			<path class="st2" d="M85,280.8l0.7,2.6h0l0.7-2.6h1l-1.3,4.2c-0.1,0.2-0.2,0.5-0.4,0.8c-0.3,0.5-0.7,0.7-1.2,0.7
				c-0.2,0-0.3,0-0.5,0v-0.8c0.1,0,0.3,0,0.5,0c0.2,0,0.4,0,0.5-0.2c0.1-0.1,0.3-0.4,0.3-0.6c0-0.1,0-0.1,0-0.2l-1.2-3.9H85z"/>
			<path class="st2" d="M91.1,281.4c0.4-0.4,0.9-0.6,1.4-0.6c0.6,0,1,0.5,1,1.2v3h-1v-2.9c0-0.3-0.2-0.5-0.5-0.5
				c-0.2,0-0.5,0.2-0.8,0.4v3h-1v-2.9c0-0.3-0.2-0.5-0.5-0.5c-0.2,0-0.5,0.2-0.8,0.4v3h-1v-4.2h0.9v0.4c0.4-0.4,0.7-0.5,1.2-0.5
				C90.6,280.8,90.9,281,91.1,281.4z"/>
			<path class="st2" d="M98.3,283c0,1.1-0.7,2.1-1.7,2.1c-0.3,0-0.8-0.2-1-0.5h0v1.9h-1v-5.7h1v0.4c0.3-0.3,0.6-0.5,1.1-0.5
				C97.7,280.8,98.3,281.7,98.3,283z M95.6,283.9c0.2,0.2,0.5,0.4,0.8,0.4c0.6,0,0.9-0.5,0.9-1.4c0-0.9-0.3-1.4-0.9-1.4
				c-0.4,0-0.7,0.3-0.8,0.4V283.9z"/>
			<path class="st2" d="M100.2,279.5v1.4h0.8v0.8h-0.8v2.4c0,0.2,0.1,0.3,0.4,0.3c0.2,0,0.3,0,0.5-0.1v0.8c-0.3,0-0.5,0.1-0.8,0.1
				c-0.7,0-1-0.3-1-1v-2.5h-0.6v-0.8h0.6v-1.4H100.2z"/>
			<path class="st2" d="M105,282.9c0,1.3-0.7,2.2-1.8,2.2c-1.1,0-1.8-0.8-1.8-2.2c0-1.3,0.7-2.2,1.8-2.2S105,281.6,105,282.9z
				 M103.2,284.3c0.5,0,0.8-0.4,0.8-1.4c0-0.9-0.3-1.4-0.8-1.4c-0.6,0-0.8,0.5-0.8,1.4C102.4,283.9,102.7,284.3,103.2,284.3z"/>
			<path class="st2" d="M108.9,281.4c0.4-0.4,0.9-0.6,1.4-0.6c0.6,0,1,0.5,1,1.2v3h-1v-2.9c0-0.3-0.2-0.5-0.5-0.5
				c-0.2,0-0.5,0.2-0.8,0.4v3h-1v-2.9c0-0.3-0.2-0.5-0.5-0.5c-0.2,0-0.5,0.2-0.8,0.4v3h-1v-4.2h0.9v0.4c0.4-0.4,0.7-0.5,1.2-0.5
				C108.3,280.8,108.7,281,108.9,281.4z"/>
			<path class="st2" d="M115.4,282.4v2c0,0.1,0,0.4,0.1,0.6h-1l-0.1-0.4c-0.4,0.3-0.8,0.4-1.3,0.4c-0.7,0-1.1-0.5-1.1-1.1
				c0-0.9,0.8-1.4,2.4-1.6V282c0-0.3-0.3-0.5-0.6-0.5c-0.3,0-0.6,0.2-0.9,0.5l-0.6-0.5c0.3-0.4,0.9-0.8,1.5-0.8
				C114.9,280.8,115.4,281.2,115.4,282.4z M113.5,284.3c0.3,0,0.6-0.2,0.9-0.4V283c-1.1,0.2-1.4,0.5-1.4,0.8
				C113,284.2,113.2,284.3,113.5,284.3z"/>
			<path class="st2" d="M117.5,279.5v1.4h0.8v0.8h-0.8v2.4c0,0.2,0.1,0.3,0.4,0.3c0.2,0,0.3,0,0.5-0.1v0.8c-0.3,0-0.5,0.1-0.8,0.1
				c-0.7,0-1-0.3-1-1v-2.5H116v-0.8h0.6v-1.4H117.5z"/>
			<path class="st2" d="M120.2,279.1v0.9h-1v-0.9H120.2z M120.2,280.8v4.2h-1v-4.2H120.2z"/>
			<path class="st2" d="M124.4,281.9l-0.8,0.3c-0.2-0.5-0.4-0.6-0.8-0.6c-0.6,0-0.8,0.4-0.8,1.4c0,0.9,0.3,1.4,0.8,1.4
				c0.4,0,0.6-0.2,0.9-0.7l0.8,0.4c-0.4,0.7-0.9,1-1.6,1c-1.2,0-1.8-0.8-1.8-2.2c0-1.3,0.7-2.2,1.8-2.2
				C123.5,280.8,124.2,281.2,124.4,281.9z"/>
		</g>
		<g class="st1">
			<path class="st2" d="M29.2,291.4v2c0,0.1,0,0.4,0.1,0.6h-1l-0.1-0.4c-0.4,0.3-0.8,0.4-1.3,0.4c-0.7,0-1.1-0.5-1.1-1.1
				c0-0.9,0.8-1.4,2.4-1.6V291c0-0.3-0.3-0.5-0.6-0.5c-0.3,0-0.6,0.2-0.9,0.5l-0.6-0.5c0.3-0.4,0.9-0.8,1.5-0.8
				C28.8,289.8,29.2,290.2,29.2,291.4z M27.3,293.3c0.3,0,0.6-0.2,0.9-0.4V292c-1.1,0.2-1.4,0.5-1.4,0.8
				C26.8,293.2,27,293.3,27.3,293.3z"/>
			<path class="st2" d="M33.6,291.1v2.9h-1v-2.7c0-0.5-0.1-0.7-0.5-0.7c-0.3,0-0.7,0.2-0.9,0.4v3h-1v-4.2h0.9v0.4
				c0.5-0.4,0.9-0.5,1.3-0.5C33.2,289.8,33.6,290.3,33.6,291.1z"/>
			<path class="st2" d="M37.7,291.4v2c0,0.1,0,0.4,0.1,0.6h-1l-0.1-0.4c-0.4,0.3-0.8,0.4-1.3,0.4c-0.7,0-1.1-0.5-1.1-1.1
				c0-0.9,0.8-1.4,2.4-1.6V291c0-0.3-0.3-0.5-0.6-0.5c-0.3,0-0.6,0.2-0.9,0.5l-0.6-0.5c0.3-0.4,0.9-0.8,1.5-0.8
				C37.2,289.8,37.7,290.2,37.7,291.4z M35.8,293.3c0.3,0,0.6-0.2,0.9-0.4V292c-1.1,0.2-1.4,0.5-1.4,0.8
				C35.3,293.2,35.5,293.3,35.8,293.3z"/>
			<path class="st2" d="M41.8,291.6v0.4h-2.5c0,0.8,0.3,1.2,0.9,1.2c0.4,0,0.6-0.1,0.9-0.5l0.7,0.4c-0.4,0.6-0.9,0.8-1.7,0.8
				c-1.1,0-1.8-0.8-1.8-2.2s0.7-2.2,1.8-2.2C41.3,289.8,41.8,290.8,41.8,291.6z M40.9,291.4c0-0.6-0.3-0.9-0.8-0.9
				c-0.5,0-0.8,0.3-0.8,0.9H40.9z"/>
			<path class="st2" d="M45.8,290.4c0.4-0.4,0.9-0.6,1.4-0.6c0.6,0,1,0.5,1,1.2v3h-1v-2.9c0-0.3-0.2-0.5-0.5-0.5
				c-0.2,0-0.5,0.2-0.8,0.4v3h-1v-2.9c0-0.3-0.2-0.5-0.5-0.5c-0.2,0-0.5,0.2-0.8,0.4v3h-1v-4.2h0.9v0.4c0.4-0.4,0.7-0.5,1.2-0.5
				C45.3,289.8,45.6,290,45.8,290.4z"/>
			<path class="st2" d="M50.4,288.1v0.9h-1v-0.9H50.4z M50.4,289.8v4.2h-1v-4.2H50.4z"/>
			<path class="st2" d="M54.5,291.4v2c0,0.1,0,0.4,0.1,0.6h-1l-0.1-0.4c-0.4,0.3-0.8,0.4-1.3,0.4c-0.7,0-1.1-0.5-1.1-1.1
				c0-0.9,0.8-1.4,2.4-1.6V291c0-0.3-0.3-0.5-0.6-0.5c-0.3,0-0.6,0.2-0.9,0.5l-0.6-0.5c0.3-0.4,0.9-0.8,1.5-0.8
				C54.1,289.8,54.5,290.2,54.5,291.4z M52.6,293.3c0.3,0,0.6-0.2,0.9-0.4V292c-1.1,0.2-1.4,0.5-1.4,0.8
				C52.2,293.2,52.4,293.3,52.6,293.3z"/>
			<path class="st2" d="M61,291.4v2c0,0.1,0,0.4,0.1,0.6h-1l-0.1-0.4c-0.4,0.3-0.8,0.4-1.3,0.4c-0.7,0-1.1-0.5-1.1-1.1
				c0-0.9,0.8-1.4,2.4-1.6V291c0-0.3-0.3-0.5-0.6-0.5c-0.3,0-0.6,0.2-0.9,0.5l-0.6-0.5c0.3-0.4,0.9-0.8,1.5-0.8
				C60.5,289.8,61,290.2,61,291.4z M59.1,293.3c0.3,0,0.6-0.2,0.9-0.4V292c-1.1,0.2-1.4,0.5-1.4,0.8
				C58.6,293.2,58.8,293.3,59.1,293.3z"/>
			<path class="st2" d="M64.6,290.4l-0.6,0.5c-0.3-0.3-0.5-0.4-0.8-0.4c-0.4,0-0.6,0.2-0.6,0.4c0,0.2,0.2,0.4,0.7,0.6
				c1,0.3,1.3,0.7,1.3,1.4c0,0.8-0.6,1.2-1.5,1.2c-0.7,0-1.2-0.3-1.6-0.8l0.7-0.5c0.3,0.4,0.6,0.6,1,0.6c0.4,0,0.6-0.2,0.6-0.5
				c0-0.2-0.2-0.4-0.8-0.6c-1-0.3-1.3-0.7-1.3-1.3c0-0.7,0.6-1.2,1.4-1.2C63.7,289.8,64.3,290,64.6,290.4z"/>
			<path class="st2" d="M68.2,290.4l-0.6,0.5c-0.3-0.3-0.5-0.4-0.8-0.4c-0.4,0-0.6,0.2-0.6,0.4c0,0.2,0.2,0.4,0.7,0.6
				c1,0.3,1.3,0.7,1.3,1.4c0,0.8-0.6,1.2-1.5,1.2c-0.7,0-1.2-0.3-1.6-0.8l0.7-0.5c0.3,0.4,0.6,0.6,1,0.6c0.4,0,0.6-0.2,0.6-0.5
				c0-0.2-0.2-0.4-0.8-0.6c-1-0.3-1.3-0.7-1.3-1.3c0-0.7,0.6-1.2,1.4-1.2C67.3,289.8,67.8,290,68.2,290.4z"/>
			<path class="st2" d="M72.4,291.9c0,1.3-0.7,2.2-1.8,2.2c-1.1,0-1.8-0.8-1.8-2.2c0-1.3,0.7-2.2,1.8-2.2S72.4,290.6,72.4,291.9z
				 M70.6,293.3c0.5,0,0.8-0.4,0.8-1.4c0-0.9-0.3-1.4-0.8-1.4c-0.6,0-0.8,0.5-0.8,1.4C69.8,292.9,70,293.3,70.6,293.3z"/>
			<path class="st2" d="M76.2,290.9l-0.8,0.3c-0.2-0.5-0.4-0.6-0.8-0.6c-0.6,0-0.8,0.4-0.8,1.4c0,0.9,0.3,1.4,0.8,1.4
				c0.4,0,0.6-0.2,0.9-0.7l0.8,0.4c-0.4,0.7-0.9,1-1.6,1c-1.2,0-1.8-0.8-1.8-2.2c0-1.3,0.7-2.2,1.8-2.2
				C75.3,289.8,76,290.2,76.2,290.9z"/>
			<path class="st2" d="M78.2,288.1v0.9h-1v-0.9H78.2z M78.2,289.8v4.2h-1v-4.2H78.2z"/>
			<path class="st2" d="M82.3,291.4v2c0,0.1,0,0.4,0.1,0.6h-1l-0.1-0.4c-0.4,0.3-0.8,0.4-1.3,0.4c-0.7,0-1.1-0.5-1.1-1.1
				c0-0.9,0.8-1.4,2.4-1.6V291c0-0.3-0.3-0.5-0.6-0.5c-0.3,0-0.6,0.2-0.9,0.5l-0.6-0.5c0.3-0.4,0.9-0.8,1.5-0.8
				C81.9,289.8,82.3,290.2,82.3,291.4z M80.4,293.3c0.3,0,0.6-0.2,0.9-0.4V292c-1.1,0.2-1.4,0.5-1.4,0.8
				C79.9,293.2,80.1,293.3,80.4,293.3z"/>
			<path class="st2" d="M84.5,288.5v1.4h0.8v0.8h-0.8v2.4c0,0.2,0.1,0.3,0.4,0.3c0.2,0,0.3,0,0.5-0.1v0.8c-0.3,0-0.5,0.1-0.8,0.1
				c-0.7,0-1-0.3-1-1v-2.5h-0.6v-0.8h0.6v-1.4H84.5z"/>
			<path class="st2" d="M89.2,291.6v0.4h-2.5c0,0.8,0.3,1.2,0.9,1.2c0.4,0,0.6-0.1,0.9-0.5l0.7,0.4c-0.4,0.6-0.9,0.8-1.7,0.8
				c-1.1,0-1.8-0.8-1.8-2.2s0.7-2.2,1.8-2.2C88.6,289.8,89.2,290.8,89.2,291.6z M88.2,291.4c0-0.6-0.3-0.9-0.8-0.9
				c-0.5,0-0.8,0.3-0.8,0.9H88.2z"/>
			<path class="st2" d="M93.4,288.2v5.8h-0.8l0-0.4c-0.4,0.3-0.7,0.5-1.1,0.5c-1.1,0-1.7-0.9-1.7-2.3c0-1.1,0.6-2.1,1.7-2.1
				c0.4,0,0.8,0.2,1,0.5h0v-2H93.4z M91.6,293.3c0.4,0,0.6-0.2,0.8-0.4v-2c-0.2-0.2-0.4-0.4-0.8-0.4c-0.6,0-0.9,0.5-0.9,1.4
				S91,293.3,91.6,293.3z"/>
			<path class="st2" d="M97.4,289.8l0.6,2.6h0l0.6-2.6h0.9l0.6,2.6h0l0.6-2.6h0.9l-1.1,4.2h-0.9l-0.6-2.6h0l-0.6,2.6h-0.9l-1.1-4.2
				H97.4z"/>
			<path class="st2" d="M103.3,288.1v0.9h-1v-0.9H103.3z M103.3,289.8v4.2h-1v-4.2H103.3z"/>
			<path class="st2" d="M105.6,288.5v1.4h0.8v0.8h-0.8v2.4c0,0.2,0.1,0.3,0.4,0.3c0.2,0,0.3,0,0.5-0.1v0.8c-0.3,0-0.5,0.1-0.8,0.1
				c-0.7,0-1-0.3-1-1v-2.5H104v-0.8h0.6v-1.4H105.6z"/>
			<path class="st2" d="M108.1,288.2v2.1c0.4-0.4,0.8-0.5,1.2-0.5c0.8,0,1.2,0.5,1.2,1.4v2.9h-1v-2.7c0-0.5-0.1-0.7-0.5-0.7
				c-0.3,0-0.7,0.2-0.9,0.4v3h-1v-5.8H108.1z"/>
			<path class="st2" d="M118,289.7l-1,0.2c-0.2-0.5-0.5-0.8-1-0.8c-0.7,0-1.2,0.7-1.2,2.1c0,1.4,0.4,2,1.2,2c0.6,0,0.8-0.3,1.1-0.9
				l1,0.3c-0.3,1-1.1,1.5-2.2,1.5c-1.5,0-2.3-1.1-2.3-3c0-1.9,0.8-3,2.3-3C117.1,288.1,117.8,288.6,118,289.7z"/>
			<path class="st2" d="M120.1,288.2v2.6l1.9-2.6h1.3l-1.6,2.2l1.9,3.6h-1.2l-1.4-2.7l-0.8,1v1.7H119v-5.8H120.1z"/>
			<path class="st2" d="M126.2,288.2c1.6,0,2.6,1,2.6,2.9c0,1.9-0.9,2.9-2.6,2.9h-1.9v-5.8H126.2z M126.2,293.1c1,0,1.5-0.6,1.5-2
				c0-1.4-0.6-2-1.5-2h-0.8v3.9H126.2z"/>
		</g>
		<g class="st1">
			<path class="st2" d="M131.5,288.9c0,0.4-0.2,0.6-0.4,0.9c-0.2,0.2-0.9,0.8-1.2,1h1.6v0.5h-2.3v-0.6c0-0.2,0.2-0.4,0.7-0.8
				c0.8-0.6,1-0.9,1-1.1c0-0.3-0.2-0.5-0.5-0.5c-0.3,0-0.5,0.2-0.6,0.5l-0.5-0.1c0.1-0.5,0.6-0.9,1.2-0.9
				C131.1,287.9,131.5,288.3,131.5,288.9z"/>
		</g>
		<g id="Layer_1_00000129192407846988517540000004071230356440901257_" transform="translate(-10 6.278)">
			<g id="Group_11" transform="translate(23.5 21.808)">
				<path id="Path_80" class="st3" d="M13.3,31.9h1.5V34h0.1c0.8-1.5,1.7-2.3,3.5-2.3v1.5c-1.9,0.1-2.8,1.3-3.5,3.4v5.9h-1.5
					L13.3,31.9L13.3,31.9z"/>
				<path id="Path_81" class="st3" d="M23.1,42.8c-2.9,0-4.4-2.4-4.4-5.5s1.5-5.5,4.4-5.5s4.4,2.4,4.4,5.5
					C27.4,40.3,26,42.8,23.1,42.8 M23.1,32.9c-1.7,0-2.9,1.5-2.9,4.3s1.1,4.3,2.9,4.3c1.7,0,2.9-1.5,2.9-4.3
					C26,34.5,24.8,32.9,23.1,32.9"/>
				<path id="Path_82" class="st3" d="M32,35.7l2.3-3.8h1.6l-3,5.1l3.5,5.6h-1.7L32,38.2l-2.6,4.4h-1.6l3.3-5.6L28,31.9h1.7L32,35.7
					z"/>
				<path id="Path_83" class="st3" d="M37.1,33.9c0.8-1.4,2.3-2.3,4-2.2c1.8,0,3.7,0.8,3.7,3.2v5.4c-0.1,0.8,0,1.6,0.3,2.3h-1.5
					l-0.1-1.5c-0.9,1-2.2,1.6-3.6,1.7c-1.5,0.1-2.9-1-3.1-2.6c0-0.1,0-0.3,0-0.4c0-2.4,1.8-3.5,6.6-4.3V35c0-1.4-0.9-2-2.2-2
					c-1.2-0.1-2.3,0.6-2.7,1.7L37.1,33.9z M43.3,36.8c-3.4,0.6-5,1.6-5,3.1c0.1,0.9,0.8,1.6,1.7,1.7c1.3-0.1,2.5-0.8,3.3-1.7V36.8z"
					/>
				<path id="Path_84" class="st3" d="M55.1,27.7v12.5c0,0.8,0,1.6,0.1,2.4h-1.3l-0.2-1c-0.7,0.8-1.7,1.3-2.8,1.3
					c-1.9,0-4.4-1.3-4.4-5.5c0-4.1,2.5-5.5,4.3-5.5c1,0,2,0.5,2.8,1.2l0.1,0.1v-5.2h1.5L55.1,27.7z M53.6,34.4
					c-0.7-0.8-1.6-1.4-2.7-1.5c-1.7,0-3,1.1-3,4.3c0,2.7,1.2,4.2,3,4.2c1,0,1.7-0.4,2.7-1.5V34.4z"/>
				<path id="Path_85" class="st3" d="M64.3,42.6v-1.5h-0.1c-0.8,1-1.9,1.6-3.1,1.7c-1.6,0.1-2.9-1-3.1-2.6c0-0.2,0-0.4,0-0.6v-7.7
					h1.5v7.7c0,1.4,0.7,1.9,1.7,1.9c1.2-0.2,2.3-0.7,3.1-1.6v-8h1.5v10.7H64.3z"/>
				<path id="Path_86" class="st3" d="M68.5,39.8c0.7,1,1.8,1.7,3.1,1.7c1.6,0,2.3-0.8,2.3-1.7c0-2.7-6.4-1.3-6.2-5.2
					c0.1-1.8,1.5-2.9,3.6-2.9c1.4,0,2.8,0.7,3.6,1.9l-1,0.9c-0.6-0.9-1.6-1.4-2.7-1.5c-1.3,0-2,0.6-2,1.6c0,2.3,6.2,1.1,6.2,5.1
					c0,2.1-1.8,3.1-3.8,3.1c-1.7,0-3.2-0.7-4.3-2L68.5,39.8z"/>
				<path id="Path_87" class="st3" d="M77.4,31.9v-3.5h1.5v3.5h2.4v1.3h-2.4v7.6c0,0.5,0.3,0.8,1.2,0.8c0.5,0,0.9-0.1,1.3-0.1v1.2
					c-0.6,0.1-1.2,0.2-1.7,0.1c-1.6,0-2.3-0.4-2.3-1.7v-7.9h-1.7v-1.3H77.4z"/>
				<path id="Path_88" class="st3" d="M82.5,33.9c0.8-1.4,2.3-2.3,4-2.2c1.8,0,3.7,0.8,3.7,3.2v5.4c-0.1,0.8,0,1.6,0.3,2.3H89
					l-0.1-1.5c-0.9,1-2.2,1.6-3.6,1.7c-1.5,0.1-2.9-1-3.1-2.6c0-0.1,0-0.3,0-0.4c0-2.4,1.8-3.5,6.6-4.3V35c0-1.4-0.9-2-2.2-2
					c-1.2-0.1-2.3,0.6-2.7,1.7L82.5,33.9z M88.8,36.8c-3.4,0.6-5,1.6-5,3.1c0.1,0.9,0.8,1.6,1.7,1.7c1.3-0.1,2.5-0.8,3.3-1.7V36.8z"
					/>
				<path id="Path_89" class="st3" d="M93,31.9v-3.5h1.5v3.5h2.4v1.3h-2.4v7.6c0,0.5,0.3,0.8,1.2,0.8c0.5,0,0.9-0.1,1.3-0.1v1.2
					c-0.6,0.1-1.2,0.2-1.7,0.1c-1.6,0-2.3-0.4-2.3-1.7v-7.9h-1.7v-1.3H93z"/>
				<path id="Path_90" class="st4" d="M113.3,11.1l13.5-5.7c2.7,1.7,4.5,4,5,6.3L113.3,11.1z"/>
				<path id="Path_91" class="st3" d="M108.4,0h-0.1c-6.4,0-4.7,3.4-2.7,7L108.4,0z"/>
				<path id="Path_92" class="st5" d="M125.3,4.5c-2.4-1.3-5-2.3-7.6-3.1l-7.2,7.7L125.3,4.5z"/>
				<path id="Path_93" class="st3" d="M107.5,9.4L116,1c-2.2-0.5-4.5-0.9-6.8-1L107.5,9.4z"/>
				<path id="Path_94" class="st5" d="M117.9,23.2c2.7-0.7,5.3-1.8,7.7-3.2l-15.2-4.9L117.9,23.2z"/>
				<path id="Path_95" class="st4" d="M113.3,13.3l14,6c2.6-2,4.3-4.3,4.6-6.5L113.3,13.3z"/>
				<path id="Path_96" class="st3" d="M105.6,17.3c-2,3.7-3.9,7.4,2.6,7.4h0.4L105.6,17.3z"/>
				<path id="Path_97" class="st3" d="M109.3,24.7c2.4-0.1,4.7-0.5,7-1l-8.7-8.7L109.3,24.7z"/>
				<path id="Path_98" class="st6" d="M0,24.4v-22h12.6v3.2H3.8v5.7h7.7v3.2H3.8v6.6h9.4v3.2L0,24.4z"/>
				<path id="Path_99" class="st6" d="M24.4,8h3.4l-5.2,16.4h-3.3L14.1,8h3.5l3.3,11.6H21L24.4,8z"/>
				<path id="Path_100" class="st6" d="M30.4,24.4V8h3.2v1.7h0.1c1.4-1.1,2.4-2,4.3-2l0.3,3.4c-0.4,0-0.7-0.1-1.1-0.1
					c-1.3,0.1-2.5,0.5-3.5,1.2v12.2L30.4,24.4L30.4,24.4z"/>
				<path id="Path_101" class="st6" d="M52.5,17.2h-9v2.4c0,1.8,1,2.4,2.8,2.4c1.7,0,2.9-0.3,2.9-2.4l3.3,0.3
					c-0.1,3.6-2.8,4.8-6.2,4.8c-3.8,0-6.2-1.4-6.2-5.2V13c0-3.8,2.3-5.3,6.2-5.3c3.8,0,6.2,1.5,6.2,5.3L52.5,17.2z M49.1,14.4V13
					c0-1.8-1-2.5-2.8-2.5s-2.8,0.7-2.8,2.5v1.4H49.1z"/>
				<path id="Path_102" class="st6" d="M56,24.4V8h3.2v1.6h0.1c1.2-1.1,2.8-1.8,4.5-1.9c2.9,0,4,1.8,4,4.7v12h-3.4V13.3
					c0-1.6-0.4-2.5-2-2.5c-1.2,0.1-2.3,0.7-3.1,1.5v12.2H56V24.4z"/>
				<path id="Path_103" class="st6" d="M70.5,10.8V8h11.8v2.8l-8,10.6v0.2h8.2v2.8H70.2v-2.8l8-10.7v-0.1H70.5z"/>
				<path id="Path_104" class="st6" d="M84.4,12.8c0-3.8,2.4-5.2,6.2-5.2s6.3,1.3,6.3,5.2v6.6c0,3.8-2.3,5.2-6.3,5.2
					s-6.2-1.5-6.2-5.2V12.8z M87.8,19.5c0,1.8,1,2.4,2.9,2.4s2.9-0.6,2.9-2.4v-6.6c0-1.8-1-2.4-2.9-2.4s-2.9,0.6-2.9,2.4V19.5z"/>
				<path id="Path_105" class="st6" d="M98.1,8.2h-0.7V7.7h2v0.4h-0.7v2h-0.6V8.2z"/>
				<path id="Path_106" class="st6" d="M99.6,7.7h0.8l0.6,1.6l0,0l0.6-1.6h0.7v2.4h-0.5V8.4l0,0l-0.6,1.7h-0.4l-0.6-1.7l0,0v1.7
					h-0.5V7.7z"/>
			</g>
			<path id="Polygon_1" d="M157,27.6l-5.4-9.7h11L157,27.6z"/>
		</g>
		<g class="st1">
			<path class="st2" d="M15.3,570.2v0.5h-2.8v1.9h2v0.5h-2v2.2h3v0.5h-3.6v-5.8H15.3z"/>
			<path class="st2" d="M16.7,570.2l1.4,4.7h0l1.4-4.7h0.6l-1.8,5.8h-0.6l-1.8-5.8H16.7z"/>
			<path class="st2" d="M24.4,570.2v0.4l-2.9,4.8h3v0.5h-3.7v-0.5l2.9-4.8H21v-0.5H24.4z"/>
			<path class="st2" d="M28.8,576.6v0.4h-4v-0.4H28.8z"/>
			<path class="st2" d="M33.1,571.7c0,0.6-0.2,1-0.6,1.4c-0.2,0.2-0.5,0.5-1,0.8c-0.7,0.5-1.2,0.9-1.5,1.6h3.1v0.5h-3.8v-0.6
				c0.3-0.7,0.9-1.3,1.5-1.7c0.3-0.2,0.6-0.4,0.9-0.6c0.5-0.4,0.8-0.8,0.8-1.4c0-0.7-0.4-1.1-1.2-1.1c-0.7,0-1.2,0.5-1.4,1.3
				l-0.6-0.1c0.3-1.1,0.9-1.6,1.9-1.6C32.3,570.1,33.1,570.7,33.1,571.7z"/>
			<path class="st2" d="M38.1,573.1c0,2-0.7,3-2,3c-1.3,0-2-1-2-3c0-2,0.7-3,2-3C37.5,570.1,38.1,571.2,38.1,573.1z M36.1,575.6
				c1,0,1.4-0.8,1.4-2.5c0-1.7-0.4-2.5-1.4-2.5c-1,0-1.4,0.8-1.4,2.5C34.7,574.8,35.1,575.6,36.1,575.6z"/>
			<path class="st2" d="M42.8,571.7c0,0.6-0.2,1-0.6,1.4c-0.2,0.2-0.5,0.5-1,0.8c-0.7,0.5-1.2,0.9-1.5,1.6h3.1v0.5h-3.8v-0.6
				c0.3-0.7,0.9-1.3,1.5-1.7c0.3-0.2,0.6-0.4,0.9-0.6c0.5-0.4,0.8-0.8,0.8-1.4c0-0.7-0.4-1.1-1.2-1.1c-0.7,0-1.2,0.5-1.4,1.3
				l-0.6-0.1c0.3-1.1,0.9-1.6,1.9-1.6C42.1,570.1,42.8,570.7,42.8,571.7z"/>
			<path class="st2" d="M47.7,571.7c0,0.6-0.2,1-0.6,1.4c-0.2,0.2-0.5,0.5-1,0.8c-0.7,0.5-1.2,0.9-1.5,1.6h3.1v0.5H44v-0.6
				c0.3-0.7,0.9-1.3,1.5-1.7c0.3-0.2,0.6-0.4,0.9-0.6c0.5-0.4,0.8-0.8,0.8-1.4c0-0.7-0.4-1.1-1.2-1.1c-0.7,0-1.2,0.5-1.4,1.3
				l-0.6-0.1c0.3-1.1,0.9-1.6,1.9-1.6C47,570.1,47.7,570.7,47.7,571.7z"/>
			<path class="st2" d="M52.3,576.6v0.4h-4v-0.4H52.3z"/>
			<path class="st2" d="M56.8,573.1c0,2-0.7,3-2,3c-1.3,0-2-1-2-3c0-2,0.7-3,2-3C56.1,570.1,56.8,571.2,56.8,573.1z M54.8,575.6
				c1,0,1.4-0.8,1.4-2.5c0-1.7-0.4-2.5-1.4-2.5c-1,0-1.4,0.8-1.4,2.5C53.3,574.8,53.8,575.6,54.8,575.6z"/>
			<path class="st2" d="M61.5,571.7c0,0.6-0.2,1-0.6,1.4c-0.2,0.2-0.5,0.5-1,0.8c-0.7,0.5-1.2,0.9-1.5,1.6h3.1v0.5h-3.8v-0.6
				c0.3-0.7,0.9-1.3,1.5-1.7c0.3-0.2,0.6-0.4,0.9-0.6c0.5-0.4,0.8-0.8,0.8-1.4c0-0.7-0.4-1.1-1.2-1.1c-0.7,0-1.2,0.5-1.4,1.3
				l-0.6-0.1c0.3-1.1,0.9-1.6,1.9-1.6C60.7,570.1,61.5,570.7,61.5,571.7z"/>
			<path class="st2" d="M66.4,570.2v0.4l-2.4,5.4h-0.7l2.4-5.3h-2.9v-0.5H66.4z"/>
			<path class="st2" d="M71.1,571.6c0,0.6-0.3,1.1-0.9,1.3c0.7,0.3,1.1,0.8,1.1,1.5c0,1.1-0.9,1.7-2,1.7c-0.9,0-1.6-0.4-2-1.1
				l0.5-0.3c0.4,0.6,1,1,1.6,1c0.7,0,1.4-0.4,1.4-1.1c0-0.9-0.6-1.3-1.6-1.3h-0.6v-0.5h0.4c0.8,0,1.6-0.2,1.6-1.1c0-0.6-0.5-1-1.1-1
				c-0.6,0-1,0.3-1.4,0.8l-0.5-0.3c0.5-0.7,1.1-1,1.9-1C70.4,570.1,71.1,570.6,71.1,571.6z"/>
			<path class="st2" d="M75.9,576.6v0.4h-4v-0.4H75.9z"/>
			<path class="st2" d="M77.4,570.2v4.1c0,0.8,0.6,1.2,1.4,1.2c0.8,0,1.4-0.5,1.4-1.2v-4.1h0.6v4c0,1.1-0.8,1.8-2,1.8
				c-1.2,0-2-0.7-2-1.8v-4H77.4z"/>
			<path class="st2" d="M83.2,570.2v3l2.4-3h0.8l-1.8,2.2l2,3.6h-0.7l-1.7-3.1l-0.9,1.1v1.9h-0.6v-5.8H83.2z"/>
		</g>
		<g class="st1">
			<path class="st2" d="M12.8,579.2l2.5,4.4h0v-4.4h0.6v5.8h-0.5l-2.9-5.1h0v5.1h-0.6v-5.8H12.8z"/>
			<path class="st2" d="M21.7,582.1c0,1.6-0.6,3-2.3,3s-2.3-1.4-2.3-3c0-1.6,0.6-3,2.3-3C21.1,579.1,21.7,580.5,21.7,582.1z
				 M19.4,584.5c1,0,1.6-0.8,1.6-2.4c0-1.6-0.6-2.4-1.6-2.4c-1,0-1.6,0.8-1.6,2.4C17.8,583.7,18.4,584.5,19.4,584.5z"/>
			<path class="st2" d="M22.9,579.2l1.4,4.7h0l1.4-4.7h0.6l-1.8,5.8H24l-1.8-5.8H22.9z"/>
			<path class="st2" d="M30.9,579.2v0.5h-2.8v1.9h2v0.5h-2v2.2h3v0.5h-3.6v-5.8H30.9z"/>
			<path class="st2" d="M33.3,579.2l1.5,4.7h0l1.4-4.7h1v5.8h-0.6v-5.4L35,585h-0.5l-1.6-5.4v5.4h-0.6v-5.8H33.3z"/>
			<path class="st2" d="M41,579.2c1,0,1.7,0.5,1.7,1.4c0,0.7-0.3,1.1-1,1.3l0,0c0.7,0.2,1.1,0.8,1.1,1.5c0,1-0.7,1.6-2.1,1.6H39
				v-5.8H41z M40.7,581.7c0.7,0,1.4-0.3,1.4-1c0-0.7-0.4-0.9-1.1-0.9h-1.4v1.9H40.7z M40.8,584.5c0.9,0,1.4-0.3,1.4-1
				c0-0.8-0.7-1.2-1.5-1.2h-1.1v2.2H40.8z"/>
			<path class="st2" d="M47.8,579.2v0.5H45v1.9h2v0.5h-2v2.2h3v0.5h-3.6v-5.8H47.8z"/>
			<path class="st2" d="M51,579.2c1.1,0,1.9,0.5,1.9,1.5c0,0.7-0.4,1.2-1.2,1.5L53,585h-0.7l-1.2-2.6h-1.4v2.6h-0.6v-5.8H51z
				 M51,581.8c0.8,0,1.3-0.3,1.3-1.1c0-0.7-0.4-1-1.3-1h-1.2v2.1H51z"/>
			<path class="st2" d="M60.4,580.7c0,0.6-0.2,1-0.6,1.4c-0.2,0.2-0.5,0.5-1,0.8c-0.7,0.5-1.2,0.9-1.5,1.6h3.1v0.5h-3.8v-0.6
				c0.3-0.7,0.9-1.3,1.5-1.7c0.3-0.2,0.6-0.4,0.9-0.6c0.5-0.4,0.8-0.8,0.8-1.4c0-0.7-0.4-1.1-1.2-1.1c-0.7,0-1.2,0.5-1.4,1.3
				l-0.6-0.1c0.3-1.1,0.9-1.6,1.9-1.6C59.6,579.1,60.4,579.7,60.4,580.7z"/>
			<path class="st2" d="M65.5,582.1c0,2-0.7,3-2,3c-1.3,0-2-1-2-3c0-2,0.7-3,2-3C64.8,579.1,65.5,580.2,65.5,582.1z M63.4,584.6
				c1,0,1.4-0.8,1.4-2.5c0-1.7-0.4-2.5-1.4-2.5c-1,0-1.4,0.8-1.4,2.5C62,583.8,62.5,584.6,63.4,584.6z"/>
			<path class="st2" d="M70.2,580.7c0,0.6-0.2,1-0.6,1.4c-0.2,0.2-0.5,0.5-1,0.8c-0.7,0.5-1.2,0.9-1.5,1.6h3.1v0.5h-3.8v-0.6
				c0.3-0.7,0.9-1.3,1.5-1.7c0.3-0.2,0.6-0.4,0.9-0.6c0.5-0.4,0.8-0.8,0.8-1.4c0-0.7-0.4-1.1-1.2-1.1c-0.7,0-1.2,0.5-1.4,1.3
				l-0.6-0.1c0.3-1.1,0.9-1.6,1.9-1.6C69.4,579.1,70.2,579.7,70.2,580.7z"/>
			<path class="st2" d="M75.1,580.7c0,0.6-0.2,1-0.6,1.4c-0.2,0.2-0.5,0.5-1,0.8c-0.7,0.5-1.2,0.9-1.5,1.6h3.1v0.5h-3.8v-0.6
				c0.3-0.7,0.9-1.3,1.5-1.7c0.3-0.2,0.6-0.4,0.9-0.6c0.5-0.4,0.8-0.8,0.8-1.4c0-0.7-0.4-1.1-1.2-1.1c-0.7,0-1.2,0.5-1.4,1.3
				l-0.6-0.1c0.3-1.1,0.9-1.6,1.9-1.6C74.3,579.1,75.1,579.7,75.1,580.7z"/>
		</g>
		<g class="st1">
			<path class="st2" d="M14.1,474.1v5.1H15v0.8h-2.8v-0.8h0.9v-4h-1v-0.7c0.5,0,1-0.1,1.3-0.4H14.1z"/>
			<path class="st2" d="M17.7,478.9v1.1h-1.1v-1.1H17.7z"/>
		</g>
		<g class="st1">
			<path class="st2" d="M23.7,474.2c1,0,1.7,0.5,1.7,1.4c0,0.7-0.3,1.1-1,1.3l0,0c0.7,0.2,1.1,0.8,1.1,1.5c0,1-0.7,1.6-2.1,1.6h-1.8
				v-5.8H23.7z M23.4,476.7c0.7,0,1.4-0.3,1.4-1c0-0.7-0.4-0.9-1.1-0.9h-1.4v1.9H23.4z M23.5,479.5c0.9,0,1.4-0.3,1.4-1
				c0-0.8-0.7-1.2-1.5-1.2h-1.1v2.2H23.5z"/>
			<path class="st2" d="M29.6,477v2.2c0,0.2,0,0.5,0.1,0.8h-0.6l-0.1-0.6c-0.4,0.4-0.9,0.7-1.4,0.7c-0.7,0-1.2-0.5-1.2-1.2
				c0-1.2,1.4-1.5,2.5-1.7V477c0-0.6-0.4-0.8-0.9-0.8c-0.5,0-0.9,0.3-1.1,0.6l-0.5-0.3c0.3-0.6,0.9-0.9,1.6-0.9
				C28.9,475.8,29.6,476.2,29.6,477z M27.7,479.6c0.4,0,1-0.3,1.3-0.7v-1.1c-0.7,0.1-2,0.4-2,1.2C27,479.3,27.4,479.6,27.7,479.6z"
				/>
			<path class="st2" d="M32.6,476.4c-0.8,0-1.1,0.5-1.4,1.3v2.3h-0.6v-4.2h0.6v0.8h0c0.3-0.6,0.7-0.9,1.3-0.9h0V476.4z"/>
			<path class="st2" d="M35.3,476.4c-0.8,0-1.1,0.5-1.4,1.3v2.3h-0.6v-4.2h0.6v0.8h0c0.3-0.6,0.7-0.9,1.3-0.9h0V476.4z"/>
			<path class="st2" d="M38.9,477v2.2c0,0.2,0,0.5,0.1,0.8h-0.6l-0.1-0.6c-0.4,0.4-0.9,0.7-1.4,0.7c-0.7,0-1.2-0.5-1.2-1.2
				c0-1.2,1.4-1.5,2.5-1.7V477c0-0.6-0.4-0.8-0.9-0.8c-0.5,0-0.9,0.3-1.1,0.6l-0.5-0.3c0.3-0.6,0.9-0.9,1.6-0.9
				C38.2,475.8,38.9,476.2,38.9,477z M37,479.6c0.4,0,1-0.3,1.3-0.7v-1.1c-0.7,0.1-2,0.4-2,1.2C36.3,479.3,36.7,479.6,37,479.6z"/>
			<path class="st2" d="M40.8,474.5v1.4h1v0.5h-1v3c0,0.2,0.1,0.3,0.5,0.3c0.2,0,0.3,0,0.5,0v0.5c-0.1,0-0.3,0.1-0.7,0.1
				c-0.6,0-0.9-0.1-0.9-0.7v-3.1h-0.7v-0.5h0.7v-1.4H40.8z"/>
			<path class="st2" d="M43.5,474.5v1.4h1v0.5h-1v3c0,0.2,0.1,0.3,0.5,0.3c0.2,0,0.3,0,0.5,0v0.5c-0.1,0-0.3,0.1-0.7,0.1
				c-0.6,0-0.9-0.1-0.9-0.7v-3.1h-0.7v-0.5h0.7v-1.4H43.5z"/>
			<path class="st2" d="M50,474.2v4.3c0,1-0.4,1.5-1.3,1.5c-0.6,0-1-0.2-1.4-0.7l0.5-0.3c0.2,0.3,0.5,0.5,0.9,0.5
				c0.5,0,0.7-0.3,0.7-0.8v-4.5H50z"/>
			<path class="st2" d="M56.8,477.6v0.4h-2.7c0,1,0.6,1.6,1.2,1.6c0.5,0,0.9-0.3,1.1-0.7l0.4,0.2c-0.4,0.7-0.9,1-1.6,1
				c-1.1,0-1.8-0.8-1.8-2.2c0-1.5,0.8-2.2,1.7-2.2C56.1,475.8,56.8,476.4,56.8,477.6z M56.2,477.5c0-0.8-0.4-1.3-1-1.3
				c-0.6,0-1,0.4-1.1,1.3H56.2z"/>
			<path class="st2" d="M58.6,474.5v1.4h1v0.5h-1v3c0,0.2,0.1,0.3,0.5,0.3c0.2,0,0.3,0,0.5,0v0.5c-0.1,0-0.3,0.1-0.7,0.1
				c-0.6,0-0.9-0.1-0.9-0.7v-3.1h-0.7v-0.5H58v-1.4H58.6z"/>
			<path class="st2" d="M65.7,477v2.2c0,0.2,0,0.5,0.1,0.8h-0.6l-0.1-0.6c-0.4,0.4-0.9,0.7-1.4,0.7c-0.7,0-1.2-0.5-1.2-1.2
				c0-1.2,1.4-1.5,2.5-1.7V477c0-0.6-0.4-0.8-0.9-0.8c-0.5,0-0.9,0.3-1.1,0.6l-0.5-0.3c0.3-0.6,0.9-0.9,1.6-0.9
				C65.1,475.8,65.7,476.2,65.7,477z M63.9,479.6c0.4,0,1-0.3,1.3-0.7v-1.1c-0.7,0.1-2,0.4-2,1.2C63.2,479.3,63.6,479.6,63.9,479.6z
				"/>
			<path class="st2" d="M67.7,474.2v5.8h-0.6v-5.8H67.7z"/>
			<path class="st2" d="M70.1,479.1v0.9h-0.8v-0.9H70.1z"/>
			<path class="st2" d="M76.3,474.2l1.8,5.8h-0.7l-0.5-1.8h-2.1l-0.5,1.8h-0.7l1.8-5.8H76.3z M75,477.6h1.8l-0.8-3h-0.1L75,477.6z"
				/>
			<path class="st2" d="M79.6,474.2v2c0.4-0.3,0.7-0.5,1.1-0.5c0.8,0,1.7,0.6,1.7,2.2c0,1.5-0.8,2.2-1.7,2.2c-0.5,0-0.9-0.2-1.2-0.5
				l-0.1,0.4H79c0-0.1,0-0.3,0-0.4v-5.4H79.6z M79.6,479c0.4,0.4,0.7,0.6,1,0.6c0.9,0,1.2-0.8,1.2-1.6c0-1.1-0.4-1.7-1.2-1.7
				c-0.3,0-0.7,0.2-1,0.6V479z"/>
			<path class="st2" d="M85.9,476.5l-0.4,0.4c-0.3-0.4-0.6-0.6-1.1-0.6c-0.5,0-0.8,0.2-0.8,0.6c0,0.3,0.3,0.5,0.9,0.7
				c0.8,0.2,1.5,0.5,1.5,1.3c0,0.8-0.7,1.2-1.5,1.2c-0.6,0-1.3-0.3-1.7-0.8l0.5-0.3c0.3,0.4,0.7,0.6,1.2,0.6c0.5,0,0.9-0.2,0.9-0.7
				c0-0.4-0.3-0.6-0.9-0.7c-0.9-0.3-1.5-0.5-1.5-1.2c0-0.8,0.6-1.2,1.3-1.2C84.9,475.8,85.6,476,85.9,476.5z"/>
			<path class="st2" d="M87.7,474.5v1.4h1v0.5h-1v3c0,0.2,0.1,0.3,0.5,0.3c0.2,0,0.3,0,0.5,0v0.5c-0.1,0-0.3,0.1-0.7,0.1
				c-0.6,0-0.9-0.1-0.9-0.7v-3.1h-0.7v-0.5h0.7v-1.4H87.7z"/>
			<path class="st2" d="M91.5,476.4c-0.8,0-1.1,0.5-1.4,1.3v2.3h-0.6v-4.2h0.6v0.8h0c0.3-0.6,0.7-0.9,1.3-0.9h0V476.4z"/>
			<path class="st2" d="M95.1,477v2.2c0,0.2,0,0.5,0.1,0.8h-0.6l-0.1-0.6c-0.4,0.4-0.9,0.7-1.4,0.7c-0.7,0-1.2-0.5-1.2-1.2
				c0-1.2,1.4-1.5,2.5-1.7V477c0-0.6-0.4-0.8-0.9-0.8c-0.5,0-0.9,0.3-1.1,0.6l-0.5-0.3c0.3-0.6,0.9-0.9,1.6-0.9
				C94.4,475.8,95.1,476.2,95.1,477z M93.2,479.6c0.4,0,1-0.3,1.3-0.7v-1.1c-0.7,0.1-2,0.4-2,1.2C92.5,479.3,92.9,479.6,93.2,479.6z
				"/>
			<path class="st2" d="M99.2,476.9l-0.5,0.2c-0.2-0.5-0.5-0.8-1-0.8c-0.9,0-1.1,0.8-1.1,1.7c0,1.1,0.4,1.7,1.1,1.7
				c0.6,0,0.8-0.2,1.1-0.8l0.5,0.2c-0.4,0.7-0.8,1.1-1.6,1.1c-1.2,0-1.7-1-1.7-2.2s0.5-2.2,1.7-2.2
				C98.4,475.8,98.8,476.1,99.2,476.9z"/>
			<path class="st2" d="M101,474.5v1.4h1v0.5h-1v3c0,0.2,0.1,0.3,0.5,0.3c0.2,0,0.3,0,0.5,0v0.5c-0.1,0-0.3,0.1-0.7,0.1
				c-0.6,0-0.9-0.1-0.9-0.7v-3.1h-0.7v-0.5h0.7v-1.4H101z"/>
			<path class="st2" d="M108.5,476.9v3.1h-0.6v-3c0-0.4-0.2-0.7-0.7-0.7c-0.4,0-0.9,0.3-1.2,0.6v3.1h-0.6v-4.2h0.6v0.6h0
				c0.4-0.4,0.8-0.6,1.2-0.6C108,475.8,108.5,476.2,108.5,476.9z"/>
			<path class="st2" d="M112.9,477.9c0,1.1-0.5,2.2-1.7,2.2s-1.7-1-1.7-2.2c0-1.1,0.5-2.2,1.7-2.2S112.9,476.8,112.9,477.9z
				 M111.2,479.6c0.8,0,1.1-0.8,1.1-1.7s-0.3-1.7-1.1-1.7c-0.8,0-1.1,0.9-1.1,1.7C110,478.7,110.3,479.6,111.2,479.6z"/>
			<path class="st2" d="M114.8,479.1v0.9H114v-0.9H114.8z"/>
			<path class="st2" d="M122.3,475.7c0,0.6-0.2,1-0.6,1.4c-0.2,0.2-0.5,0.5-1,0.8c-0.7,0.5-1.2,0.9-1.5,1.6h3.1v0.5h-3.8v-0.6
				c0.3-0.7,0.9-1.3,1.5-1.7c0.3-0.2,0.6-0.4,0.9-0.6c0.5-0.4,0.8-0.8,0.8-1.4c0-0.7-0.4-1.1-1.2-1.1c-0.7,0-1.2,0.5-1.4,1.3
				l-0.6-0.1c0.3-1.1,0.9-1.6,1.9-1.6C121.6,474.1,122.3,474.7,122.3,475.7z"/>
			<path class="st2" d="M127,475.6c0,0.6-0.3,1.1-0.9,1.3c0.7,0.3,1.1,0.8,1.1,1.5c0,1.1-0.9,1.7-2,1.7c-0.9,0-1.6-0.4-2-1.1
				l0.5-0.3c0.4,0.6,1,1,1.6,1c0.7,0,1.4-0.4,1.4-1.1c0-0.9-0.6-1.3-1.6-1.3h-0.6v-0.5h0.4c0.8,0,1.6-0.2,1.6-1.1c0-0.6-0.5-1-1.1-1
				c-0.6,0-1,0.3-1.4,0.8l-0.5-0.3c0.5-0.7,1.1-1,1.9-1C126.3,474.1,127,474.6,127,475.6z"/>
			<path class="st2" d="M132.1,474.2v0.4l-2.4,5.4H129l2.4-5.3h-2.9v-0.5H132.1z"/>
			<path class="st2" d="M137.1,476.8c0,1.6-0.7,3.3-2.4,3.3c-0.5,0-1-0.1-1.2-0.3l0.2-0.5c0.3,0.2,0.6,0.3,1,0.3
				c1.2,0,1.7-1.2,1.8-2.4c-0.5,0.5-0.9,0.7-1.6,0.7c-0.8,0-1.7-0.5-1.7-1.9c0-1.2,0.8-1.9,1.9-1.9
				C136.4,474.1,137.1,475.1,137.1,476.8z M135,477.4c0.7,0,1.2-0.4,1.5-1.1c0-0.9-0.5-1.7-1.4-1.7c-0.7,0-1.3,0.5-1.3,1.3
				C133.8,476.9,134.4,477.4,135,477.4z"/>
		</g>
		<g class="st1">
			<path class="st2" d="M15.1,485.9c0,1.7-1.1,2.2-1.7,2.2c-0.4,0-0.8-0.2-1.1-0.5v1.9h-0.6v-5.7h0.6v0.5c0.2-0.3,0.7-0.6,1.1-0.6
				C13.9,483.8,15.1,484.1,15.1,485.9z M12.3,487c0.4,0.4,0.7,0.6,1.1,0.6c0.8,0,1.2-0.6,1.2-1.7c0-1-0.4-1.6-1.2-1.6
				c-0.4,0-0.8,0.3-1,0.6V487z"/>
			<path class="st2" d="M18,484.4c-0.8,0-1.1,0.5-1.4,1.3v2.3H16v-4.2h0.6v0.8h0c0.3-0.6,0.7-0.9,1.3-0.9h0V484.4z"/>
			<path class="st2" d="M21.7,485.6v0.4H19c0,1,0.6,1.6,1.2,1.6c0.5,0,0.9-0.3,1.1-0.7l0.4,0.2c-0.4,0.7-0.9,1-1.6,1
				c-1.1,0-1.8-0.8-1.8-2.2c0-1.5,0.8-2.2,1.7-2.2C21,483.8,21.7,484.4,21.7,485.6z M21.1,485.5c0-0.8-0.4-1.3-1-1.3s-1,0.4-1.1,1.3
				H21.1z"/>
			<path class="st2" d="M25.2,484.5l-0.4,0.4c-0.3-0.4-0.6-0.6-1.1-0.6c-0.5,0-0.8,0.2-0.8,0.6c0,0.3,0.3,0.5,0.9,0.7
				c0.8,0.2,1.5,0.5,1.5,1.3c0,0.8-0.7,1.2-1.5,1.2c-0.6,0-1.3-0.3-1.7-0.8l0.5-0.3c0.3,0.4,0.7,0.6,1.2,0.6c0.5,0,0.9-0.2,0.9-0.7
				c0-0.4-0.3-0.6-0.9-0.7c-0.9-0.3-1.5-0.5-1.5-1.2c0-0.8,0.6-1.2,1.3-1.2C24.3,483.8,24.9,484,25.2,484.5z"/>
			<path class="st2" d="M29.3,485.6v0.4h-2.7c0,1,0.6,1.6,1.2,1.6c0.5,0,0.9-0.3,1.1-0.7l0.4,0.2c-0.4,0.7-0.9,1-1.6,1
				c-1.1,0-1.8-0.8-1.8-2.2c0-1.5,0.8-2.2,1.7-2.2C28.6,483.8,29.3,484.4,29.3,485.6z M28.7,485.5c0-0.8-0.4-1.3-1-1.3
				s-1,0.4-1.1,1.3H28.7z"/>
			<path class="st2" d="M33.4,484.9v3.1h-0.6v-3c0-0.4-0.2-0.7-0.7-0.7c-0.4,0-0.9,0.3-1.2,0.6v3.1h-0.6v-4.2H31v0.6h0
				c0.4-0.4,0.8-0.6,1.2-0.6C33,483.8,33.4,484.2,33.4,484.9z"/>
			<path class="st2" d="M35.5,482.5v1.4h1v0.5h-1v3c0,0.2,0.1,0.3,0.5,0.3c0.2,0,0.3,0,0.5,0v0.5c-0.1,0-0.3,0.1-0.7,0.1
				c-0.6,0-0.9-0.1-0.9-0.7v-3.1h-0.7v-0.5h0.7v-1.4H35.5z"/>
			<path class="st2" d="M40.4,485.6v0.4h-2.7c0,1,0.6,1.6,1.2,1.6c0.5,0,0.9-0.3,1.1-0.7l0.4,0.2c-0.4,0.7-0.9,1-1.6,1
				c-1.1,0-1.8-0.8-1.8-2.2c0-1.5,0.8-2.2,1.7-2.2C39.7,483.8,40.4,484.4,40.4,485.6z M39.8,485.5c0-0.8-0.4-1.3-1-1.3
				s-1,0.4-1.1,1.3H39.8z"/>
			<path class="st2" d="M44.5,482.2v5.4c0,0.1,0,0.3,0,0.4H44l-0.1-0.4c-0.2,0.3-0.6,0.5-1.1,0.5c-0.9,0-1.7-0.7-1.7-2.2
				c0-1.5,0.9-2.2,1.7-2.2c0.4,0,0.8,0.2,1.1,0.5v-2H44.5z M42.9,487.6c0.4,0,0.7-0.2,1-0.6v-2.2c-0.3-0.3-0.7-0.6-1.1-0.6
				c-0.8,0-1.2,0.6-1.2,1.7C41.7,486.8,42.1,487.6,42.9,487.6z"/>
			<path class="st2" d="M51.1,485v2.2c0,0.2,0,0.5,0.1,0.8h-0.6l-0.1-0.6c-0.4,0.4-0.9,0.7-1.4,0.7c-0.7,0-1.2-0.5-1.2-1.2
				c0-1.2,1.4-1.5,2.5-1.7V485c0-0.6-0.4-0.8-0.9-0.8c-0.5,0-0.9,0.3-1.1,0.6l-0.5-0.3c0.3-0.6,0.9-0.9,1.6-0.9
				C50.5,483.8,51.1,484.2,51.1,485z M49.3,487.6c0.4,0,1-0.3,1.3-0.7v-1.1c-0.7,0.1-2,0.4-2,1.2C48.6,487.3,48.9,487.6,49.3,487.6z
				"/>
			<path class="st2" d="M53.1,482.5v1.4h1v0.5h-1v3c0,0.2,0.1,0.3,0.5,0.3c0.2,0,0.3,0,0.5,0v0.5c-0.1,0-0.3,0.1-0.7,0.1
				c-0.6,0-0.9-0.1-0.9-0.7v-3.1h-0.7v-0.5h0.7v-1.4H53.1z"/>
			<path class="st2" d="M58.2,482.5v1.4h1v0.5h-1v3c0,0.2,0.1,0.3,0.5,0.3c0.2,0,0.3,0,0.5,0v0.5c-0.1,0-0.3,0.1-0.7,0.1
				c-0.6,0-0.9-0.1-0.9-0.7v-3.1h-0.7v-0.5h0.7v-1.4H58.2z"/>
			<path class="st2" d="M60.7,482.2v2.2h0c0.4-0.4,0.8-0.6,1.2-0.6c0.8,0,1.2,0.5,1.2,1.2v3.1h-0.6v-3c0-0.4-0.2-0.7-0.7-0.7
				c-0.4,0-0.9,0.3-1.2,0.6v3.1h-0.6v-5.8H60.7z"/>
			<path class="st2" d="M67.5,485.6v0.4h-2.7c0,1,0.6,1.6,1.2,1.6c0.5,0,0.9-0.3,1.1-0.7l0.4,0.2c-0.4,0.7-0.9,1-1.6,1
				c-1.1,0-1.8-0.8-1.8-2.2c0-1.5,0.8-2.2,1.7-2.2C66.8,483.8,67.5,484.4,67.5,485.6z M66.9,485.5c0-0.8-0.4-1.3-1-1.3
				s-1,0.4-1.1,1.3H66.9z"/>
			<path class="st2" d="M74.3,482.2v0.5h-2.5l-0.1,1.8c0.4-0.3,0.8-0.5,1.2-0.5c1,0,1.8,0.7,1.8,1.9c0,0.9-0.6,2-2,2
				c-0.8,0-1.3-0.3-1.8-1.1l0.5-0.3c0.3,0.6,0.8,0.9,1.3,0.9c0.9,0,1.4-0.6,1.4-1.5c0-0.8-0.5-1.5-1.3-1.5c-0.6,0-1,0.3-1.2,0.9
				l-0.5-0.1l0.3-3.1H74.3z"/>
			<path class="st2" d="M79.6,484.8c0,1.6-0.7,3.3-2.4,3.3c-0.5,0-1-0.1-1.2-0.3l0.2-0.5c0.3,0.2,0.6,0.3,1,0.3
				c1.2,0,1.7-1.2,1.8-2.4c-0.5,0.5-0.9,0.7-1.6,0.7c-0.8,0-1.7-0.5-1.7-1.9c0-1.2,0.8-1.9,1.9-1.9
				C78.9,482.1,79.6,483.1,79.6,484.8z M77.5,485.4c0.7,0,1.2-0.4,1.5-1.1c0-0.9-0.5-1.7-1.4-1.7c-0.7,0-1.3,0.5-1.3,1.3
				C76.3,484.9,76.9,485.4,77.5,485.4z"/>
			<path class="st2" d="M81.5,482.5v1.4h1v0.5h-1v3c0,0.2,0.1,0.3,0.5,0.3c0.2,0,0.3,0,0.5,0v0.5c-0.1,0-0.3,0.1-0.7,0.1
				c-0.6,0-0.9-0.1-0.9-0.7v-3.1h-0.7v-0.5h0.7v-1.4H81.5z"/>
			<path class="st2" d="M84,482.2v2.2h0c0.4-0.4,0.8-0.6,1.2-0.6c0.8,0,1.2,0.5,1.2,1.2v3.1h-0.6v-3c0-0.4-0.2-0.7-0.7-0.7
				c-0.4,0-0.9,0.3-1.2,0.6v3.1h-0.6v-5.8H84z"/>
			<path class="st2" d="M94,482.2v0.5h-2.8v1.9h2v0.5h-2v2.2h3v0.5h-3.6v-5.8H94z"/>
			<path class="st2" d="M97.2,482.2c1.1,0,1.9,0.5,1.9,1.5c0,0.7-0.4,1.2-1.2,1.5l1.2,2.8h-0.7l-1.2-2.6H96v2.6h-0.6v-5.8H97.2z
				 M97.2,484.8c0.8,0,1.3-0.3,1.3-1.1c0-0.7-0.4-1-1.3-1H96v2.1H97.2z"/>
			<path class="st2" d="M102.8,482.2l1.8,5.8h-0.7l-0.5-1.8h-2.1l-0.5,1.8h-0.7l1.8-5.8H102.8z M101.4,485.6h1.8l-0.8-3h-0.1
				L101.4,485.6z"/>
			<path class="st2" d="M111.7,483.8l-0.6,0.2c-0.2-0.8-0.6-1.3-1.4-1.3c-1.1,0-1.5,1.2-1.5,2.4c0,1.6,0.6,2.4,1.6,2.4
				c0.7,0,1.2-0.4,1.4-1.4l0.6,0.1c-0.3,1.2-1,1.8-2,1.8c-1.6,0-2.2-1.4-2.2-3c0-1.6,0.6-3,2.2-3
				C110.8,482.1,111.4,482.7,111.7,483.8z"/>
			<path class="st2" d="M115.8,485.9c0,1.1-0.5,2.2-1.7,2.2s-1.7-1-1.7-2.2c0-1.1,0.5-2.2,1.7-2.2S115.8,484.8,115.8,485.9z
				 M114.1,487.6c0.8,0,1.1-0.8,1.1-1.7s-0.3-1.7-1.1-1.7c-0.8,0-1.1,0.9-1.1,1.7C113,486.7,113.2,487.6,114.1,487.6z"/>
			<path class="st2" d="M119.8,484.9v3.1h-0.6v-3c0-0.4-0.2-0.7-0.7-0.7c-0.4,0-0.9,0.3-1.2,0.6v3.1h-0.6v-4.2h0.6v0.6h0
				c0.4-0.4,0.8-0.6,1.2-0.6C119.4,483.8,119.8,484.2,119.8,484.9z"/>
			<path class="st2" d="M124.4,484.3c-0.3,0-0.5,0-0.6,0.1c0.2,0.2,0.3,0.5,0.3,0.8c0,0.8-0.7,1.5-1.5,1.5c-0.3,0-0.4,0-0.7-0.1
				c-0.2,0.1-0.3,0.2-0.3,0.4c0,0.2,0.1,0.3,0.4,0.3c1.8,0,2.6,0.3,2.6,1.2c0,0.6-0.6,1.1-1.9,1.1c-1.2,0-1.8-0.3-1.8-1
				c0-0.4,0.3-0.6,0.7-0.8c-0.3-0.1-0.5-0.3-0.5-0.6c0-0.4,0.3-0.5,0.6-0.7c-0.4-0.3-0.6-0.7-0.6-1.2c0-0.9,0.7-1.5,1.6-1.5
				c0.4,0,0.8,0.1,1,0.3c0.2-0.2,0.6-0.3,0.9-0.4V484.3z M122.6,489c0.8,0,1.3-0.2,1.3-0.6c0-0.4-0.4-0.6-1.4-0.6
				c-0.6,0-1.2,0.2-1.2,0.7C121.2,488.9,121.5,489,122.6,489z M122.5,486.2c0.6,0,1-0.4,1-0.9c0-0.6-0.4-1-1.1-1c-0.6,0-1,0.4-1,1
				S121.9,486.2,122.5,486.2z"/>
			<path class="st2" d="M127,484.4c-0.8,0-1.1,0.5-1.4,1.3v2.3h-0.6v-4.2h0.6v0.8h0c0.3-0.6,0.7-0.9,1.3-0.9h0V484.4z"/>
			<path class="st2" d="M130.8,485.6v0.4h-2.7c0,1,0.6,1.6,1.2,1.6c0.5,0,0.9-0.3,1.1-0.7l0.4,0.2c-0.4,0.7-0.9,1-1.6,1
				c-1.1,0-1.8-0.8-1.8-2.2c0-1.5,0.8-2.2,1.7-2.2C130.1,483.8,130.8,484.4,130.8,485.6z M130.2,485.5c0-0.8-0.4-1.3-1-1.3
				s-1,0.4-1.1,1.3H130.2z"/>
			<path class="st2" d="M134.3,484.5l-0.4,0.4c-0.3-0.4-0.6-0.6-1.1-0.6c-0.5,0-0.8,0.2-0.8,0.6c0,0.3,0.3,0.5,0.9,0.7
				c0.8,0.2,1.5,0.5,1.5,1.3c0,0.8-0.7,1.2-1.5,1.2c-0.6,0-1.3-0.3-1.7-0.8l0.5-0.3c0.3,0.4,0.7,0.6,1.2,0.6c0.5,0,0.9-0.2,0.9-0.7
				c0-0.4-0.3-0.6-0.9-0.7c-0.9-0.3-1.5-0.5-1.5-1.2c0-0.8,0.6-1.2,1.3-1.2C133.4,483.8,134,484,134.3,484.5z"/>
			<path class="st2" d="M137.9,484.5l-0.4,0.4c-0.3-0.4-0.6-0.6-1.1-0.6c-0.5,0-0.8,0.2-0.8,0.6c0,0.3,0.3,0.5,0.9,0.7
				c0.8,0.2,1.5,0.5,1.5,1.3c0,0.8-0.7,1.2-1.5,1.2c-0.6,0-1.3-0.3-1.7-0.8l0.5-0.3c0.3,0.4,0.7,0.6,1.2,0.6c0.5,0,0.9-0.2,0.9-0.7
				c0-0.4-0.3-0.6-0.9-0.7c-0.9-0.3-1.5-0.5-1.5-1.2c0-0.8,0.6-1.2,1.3-1.2C136.9,483.8,137.6,484,137.9,484.5z"/>
			<path class="st2" d="M139.9,487.1v0.9l-0.5,1.2h-0.3l0.4-1.2h-0.3v-0.9H139.9z"/>
		</g>
		<g class="st1">
			<path class="st2" d="M13.8,490.2c1.1,0,1.8,0.5,1.8,1.6c0,1.2-1,1.6-2.1,1.6h-1v2.6h-0.6v-5.8H13.8z M13.6,492.9
				c1,0,1.4-0.3,1.4-1.1s-0.5-1.1-1.3-1.1h-1.2v2.1H13.6z"/>
			<path class="st2" d="M19.3,493v2.2c0,0.2,0,0.5,0.1,0.8h-0.6l-0.1-0.6c-0.4,0.4-0.9,0.7-1.4,0.7c-0.7,0-1.2-0.5-1.2-1.2
				c0-1.2,1.4-1.5,2.5-1.7V493c0-0.6-0.4-0.8-0.9-0.8c-0.5,0-0.9,0.3-1.1,0.6l-0.5-0.3c0.3-0.6,0.9-0.9,1.6-0.9
				C18.7,491.8,19.3,492.2,19.3,493z M17.5,495.6c0.4,0,1-0.3,1.3-0.7v-1.1c-0.7,0.1-2,0.4-2,1.2C16.8,495.3,17.2,495.6,17.5,495.6z
				"/>
			<path class="st2" d="M22.4,492.4c-0.8,0-1.1,0.5-1.4,1.3v2.3h-0.6v-4.2H21v0.8h0c0.3-0.6,0.7-0.9,1.3-0.9h0V492.4z"/>
			<path class="st2" d="M24,490.1v0.7h-0.6v-0.7H24z M24,491.8v4.2h-0.6v-4.2H24z"/>
			<path class="st2" d="M27.9,492.5l-0.4,0.4c-0.3-0.4-0.6-0.6-1.1-0.6c-0.5,0-0.8,0.2-0.8,0.6c0,0.3,0.3,0.5,0.9,0.7
				c0.8,0.2,1.5,0.5,1.5,1.3c0,0.8-0.7,1.2-1.5,1.2c-0.6,0-1.3-0.3-1.7-0.8l0.5-0.3c0.3,0.4,0.7,0.6,1.2,0.6c0.5,0,0.9-0.2,0.9-0.7
				c0-0.4-0.3-0.6-0.9-0.7c-0.9-0.3-1.5-0.5-1.5-1.2c0-0.8,0.6-1.2,1.3-1.2C27,491.8,27.6,492,27.9,492.5z"/>
			<path class="st2" d="M29.9,495.1v0.9l-0.5,1.2h-0.3l0.4-1.2h-0.3v-0.9H29.9z"/>
			<path class="st2" d="M37.4,490.2v0.5h-2.8v1.9h2.1v0.5h-2.1v2.8H34v-5.8H37.4z"/>
			<path class="st2" d="M40.2,492.4c-0.8,0-1.1,0.5-1.4,1.3v2.3h-0.6v-4.2h0.6v0.8h0c0.3-0.6,0.7-0.9,1.3-0.9h0V492.4z"/>
			<path class="st2" d="M43.8,493v2.2c0,0.2,0,0.5,0.1,0.8h-0.6l-0.1-0.6c-0.4,0.4-0.9,0.7-1.4,0.7c-0.7,0-1.2-0.5-1.2-1.2
				c0-1.2,1.4-1.5,2.5-1.7V493c0-0.6-0.4-0.8-0.9-0.8c-0.5,0-0.9,0.3-1.1,0.6l-0.5-0.3c0.3-0.6,0.9-0.9,1.6-0.9
				C43.1,491.8,43.8,492.2,43.8,493z M41.9,495.6c0.4,0,1-0.3,1.3-0.7v-1.1c-0.7,0.1-2,0.4-2,1.2C41.2,495.3,41.6,495.6,41.9,495.6z
				"/>
			<path class="st2" d="M48.1,492.9v3.1h-0.6v-3c0-0.4-0.2-0.7-0.7-0.7c-0.4,0-0.9,0.3-1.2,0.6v3.1H45v-4.2h0.6v0.6h0
				c0.4-0.4,0.8-0.6,1.2-0.6C47.6,491.8,48.1,492.2,48.1,492.9z"/>
			<path class="st2" d="M52.3,492.9l-0.5,0.2c-0.2-0.5-0.5-0.8-1-0.8c-0.9,0-1.1,0.8-1.1,1.7c0,1.1,0.4,1.7,1.1,1.7
				c0.6,0,0.8-0.2,1.1-0.8l0.5,0.2c-0.4,0.7-0.8,1.1-1.6,1.1c-1.2,0-1.7-1-1.7-2.2s0.5-2.2,1.7-2.2C51.5,491.8,52,492.1,52.3,492.9z
				"/>
			<path class="st2" d="M56.4,493.6v0.4h-2.7c0,1,0.6,1.6,1.2,1.6c0.5,0,0.9-0.3,1.1-0.7l0.4,0.2c-0.4,0.7-0.9,1-1.6,1
				c-1.1,0-1.8-0.8-1.8-2.2c0-1.5,0.8-2.2,1.7-2.2C55.7,491.8,56.4,492.4,56.4,493.6z M55.8,493.5c0-0.8-0.4-1.3-1-1.3
				s-1,0.4-1.1,1.3H55.8z"/>
			<path class="st2" d="M58.4,495.1v0.9h-0.8v-0.9H58.4z"/>
			<path class="st2" d="M64.5,490.1v5.4h1v0.5h-2.6v-0.5h1v-4.7l-1.1,0.1v-0.4c0.5-0.1,0.9-0.2,1.1-0.4H64.5z"/>
			<path class="st2" d="M70.9,492.8c0,1.6-0.7,3.3-2.4,3.3c-0.5,0-1-0.1-1.2-0.3l0.2-0.5c0.3,0.2,0.6,0.3,1,0.3
				c1.2,0,1.7-1.2,1.8-2.4c-0.5,0.5-0.9,0.7-1.6,0.7c-0.8,0-1.7-0.5-1.7-1.9c0-1.2,0.8-1.9,1.9-1.9
				C70.3,490.1,70.9,491.1,70.9,492.8z M68.8,493.4c0.7,0,1.2-0.4,1.5-1.1c0-0.9-0.5-1.7-1.4-1.7c-0.7,0-1.3,0.5-1.3,1.3
				C67.6,492.9,68.2,493.4,68.8,493.4z"/>
			<path class="st2" d="M75.4,493.7v0.4h-4v-0.4H75.4z"/>
			<path class="st2" d="M79.7,491.7c0,0.6-0.2,1-0.6,1.4c-0.2,0.2-0.5,0.5-1,0.8c-0.7,0.5-1.2,0.9-1.5,1.6h3.1v0.5H76v-0.6
				c0.3-0.7,0.9-1.3,1.5-1.7c0.3-0.2,0.6-0.4,0.9-0.6c0.5-0.4,0.8-0.8,0.8-1.4c0-0.7-0.4-1.1-1.2-1.1c-0.7,0-1.2,0.5-1.4,1.3
				l-0.6-0.1c0.3-1.1,0.9-1.6,1.9-1.6C78.9,490.1,79.7,490.7,79.7,491.7z"/>
			<path class="st2" d="M84.6,491.7c0,0.6-0.2,1-0.6,1.4c-0.2,0.2-0.5,0.5-1,0.8c-0.7,0.5-1.2,0.9-1.5,1.6h3.1v0.5h-3.8v-0.6
				c0.3-0.7,0.9-1.3,1.5-1.7c0.3-0.2,0.6-0.4,0.9-0.6c0.5-0.4,0.8-0.8,0.8-1.4c0-0.7-0.4-1.1-1.2-1.1c-0.7,0-1.2,0.5-1.4,1.3
				l-0.6-0.1c0.3-1.1,0.9-1.6,1.9-1.6C83.8,490.1,84.6,490.7,84.6,491.7z"/>
			<path class="st2" d="M89.5,490.2l1.5,4.7h0l1.4-4.7h1v5.8h-0.6v-5.4l-1.6,5.4h-0.5l-1.6-5.4v5.4h-0.6v-5.8H89.5z"/>
			<path class="st2" d="M97.8,493v2.2c0,0.2,0,0.5,0.1,0.8h-0.6l-0.1-0.6c-0.4,0.4-0.9,0.7-1.4,0.7c-0.7,0-1.2-0.5-1.2-1.2
				c0-1.2,1.4-1.5,2.5-1.7V493c0-0.6-0.4-0.8-0.9-0.8c-0.5,0-0.9,0.3-1.1,0.6l-0.5-0.3c0.3-0.6,0.9-0.9,1.6-0.9
				C97.1,491.8,97.8,492.2,97.8,493z M95.9,495.6c0.4,0,1-0.3,1.3-0.7v-1.1c-0.7,0.1-2,0.4-2,1.2C95.2,495.3,95.6,495.6,95.9,495.6z
				"/>
			<path class="st2" d="M99,491.8l1.1,3.2h0l1-3.2h0.6l-1.5,4.5c-0.3,0.8-0.7,1.2-1.4,1.2c-0.2,0-0.3,0-0.4,0V497c0.1,0,0.2,0,0.3,0
				c0.6,0,0.9-0.4,1.1-1l-1.4-4.2H99z"/>
			<path class="st2" d="M108.6,491.7c0,0.6-0.2,1-0.6,1.4c-0.2,0.2-0.5,0.5-1,0.8c-0.7,0.5-1.2,0.9-1.5,1.6h3.1v0.5h-3.8v-0.6
				c0.3-0.7,0.9-1.3,1.5-1.7c0.3-0.2,0.6-0.4,0.9-0.6c0.5-0.4,0.8-0.8,0.8-1.4c0-0.7-0.4-1.1-1.2-1.1s-1.2,0.5-1.4,1.3l-0.6-0.1
				c0.3-1.1,0.9-1.6,1.9-1.6C107.8,490.1,108.6,490.7,108.6,491.7z"/>
			<path class="st2" d="M113.7,493.1c0,2-0.7,3-2,3c-1.3,0-2-1-2-3c0-2,0.7-3,2-3C113,490.1,113.7,491.2,113.7,493.1z M111.6,495.6
				c1,0,1.4-0.8,1.4-2.5c0-1.7-0.4-2.5-1.4-2.5c-1,0-1.4,0.8-1.4,2.5C110.2,494.8,110.7,495.6,111.6,495.6z"/>
			<path class="st2" d="M118.4,491.7c0,0.6-0.2,1-0.6,1.4c-0.2,0.2-0.5,0.5-1,0.8c-0.7,0.5-1.2,0.9-1.5,1.6h3.1v0.5h-3.8v-0.6
				c0.3-0.7,0.9-1.3,1.5-1.7c0.3-0.2,0.6-0.4,0.9-0.6c0.5-0.4,0.8-0.8,0.8-1.4c0-0.7-0.4-1.1-1.2-1.1c-0.7,0-1.2,0.5-1.4,1.3
				l-0.6-0.1c0.3-1.1,0.9-1.6,1.9-1.6C117.6,490.1,118.4,490.7,118.4,491.7z"/>
			<path class="st2" d="M123.2,491.7c0,0.6-0.2,1-0.6,1.4c-0.2,0.2-0.5,0.5-1,0.8c-0.7,0.5-1.2,0.9-1.5,1.6h3.1v0.5h-3.8v-0.6
				c0.3-0.7,0.9-1.3,1.5-1.7c0.3-0.2,0.6-0.4,0.9-0.6c0.5-0.4,0.8-0.8,0.8-1.4c0-0.7-0.4-1.1-1.2-1.1s-1.2,0.5-1.4,1.3l-0.6-0.1
				c0.3-1.1,0.9-1.6,1.9-1.6C122.5,490.1,123.2,490.7,123.2,491.7z"/>
			<path class="st2" d="M125.5,495.1v0.9h-0.8v-0.9H125.5z"/>
		</g>
		<g class="st1">
			<path class="st2" d="M15.3,499.8c0,0.6-0.3,1.1-0.7,1.6c-0.4,0.4-1.6,1.3-2,1.7h2.7v0.9h-3.9v-1c0.1-0.3,0.4-0.7,1.2-1.3
				c1.4-1.1,1.6-1.5,1.6-1.9c0-0.5-0.3-0.8-0.9-0.8c-0.5,0-0.9,0.3-1,0.9l-0.9-0.2c0.1-0.9,1-1.6,2-1.6
				C14.5,498.1,15.3,498.8,15.3,499.8z"/>
			<path class="st2" d="M17.7,502.9v1.1h-1.1v-1.1H17.7z"/>
		</g>
		<g class="st1">
			<path class="st2" d="M25.1,498.2v0.5h-2.8v1.9h2v0.5h-2v2.2h3v0.5h-3.6v-5.8H25.1z"/>
			<path class="st2" d="M26.4,498.2l1.4,4.7h0l1.4-4.7H30l-1.8,5.8h-0.6l-1.8-5.8H26.4z"/>
			<path class="st2" d="M32.8,498.2c1.1,0,1.9,0.5,1.9,1.5c0,0.7-0.4,1.2-1.2,1.5l1.2,2.8h-0.7l-1.2-2.6h-1.4v2.6h-0.6v-5.8H32.8z
				 M32.7,500.8c0.8,0,1.3-0.3,1.3-1.1c0-0.7-0.4-1-1.3-1h-1.2v2.1H32.7z"/>
			<path class="st2" d="M39.8,498.2v0.5h-2.8v1.9h2v0.5h-2v2.2h3v0.5h-3.6v-5.8H39.8z"/>
			<path class="st2" d="M42.1,498.2l2.5,4.4h0v-4.4h0.6v5.8h-0.5l-2.9-5.1h0v5.1h-0.6v-5.8H42.1z"/>
			<path class="st2" d="M50.2,498.2v0.4l-2.9,4.8h3v0.5h-3.7v-0.5l2.9-4.8h-2.6v-0.5H50.2z"/>
			<path class="st2" d="M55.5,501.1c0,1.6-0.6,3-2.3,3s-2.3-1.4-2.3-3c0-1.6,0.6-3,2.3-3C54.9,498.1,55.5,499.5,55.5,501.1z
				 M53.2,503.5c1,0,1.6-0.8,1.6-2.4c0-1.6-0.6-2.4-1.6-2.4c-1,0-1.6,0.8-1.6,2.4C51.6,502.7,52.2,503.5,53.2,503.5z"/>
			<path class="st2" d="M62.5,499.6l-0.6,0.1c-0.2-0.6-0.7-1-1.3-1c-0.7,0-1.1,0.3-1.1,0.9c0,0.5,0.5,0.7,1.1,1
				c1.1,0.4,2.1,0.7,2.1,1.8c0,1.2-0.8,1.7-1.9,1.7c-1,0-1.6-0.5-2.1-1.5l0.6-0.2c0.3,0.8,0.8,1.2,1.5,1.2c0.7,0,1.3-0.3,1.3-1
				c0-0.7-0.7-1-1.6-1.3c-1-0.4-1.7-0.7-1.7-1.6c0-0.9,0.8-1.5,1.7-1.5C61.5,498.1,62.2,498.7,62.5,499.6z"/>
			<path class="st2" d="M68.1,499.8c0.8,0,1.1,0.4,1.1,1.2v3h-0.6v-3c0-0.5-0.2-0.7-0.6-0.7c-0.5,0-0.8,0.3-1.2,0.6v3.1h-0.6v-3
				c0-0.5-0.2-0.7-0.6-0.7c-0.5,0-0.8,0.3-1.2,0.6v3.1h-0.6v-4.2h0.6v0.6c0.4-0.4,0.8-0.6,1.2-0.6c0.5,0,0.9,0.3,1.1,0.7
				C67.1,500,67.6,499.8,68.1,499.8z"/>
			<path class="st2" d="M72.7,498.2c1.1,0,1.8,0.5,1.8,1.6c0,1.2-1,1.6-2.1,1.6h-1v2.6h-0.6v-5.8H72.7z M72.4,500.9
				c1,0,1.4-0.3,1.4-1.1s-0.5-1.1-1.3-1.1h-1.2v2.1H72.4z"/>
			<path class="st2" d="M79.3,499.8l-0.6,0.2c-0.2-0.8-0.6-1.3-1.4-1.3c-1.1,0-1.5,1.2-1.5,2.4c0,1.6,0.6,2.4,1.6,2.4
				c0.7,0,1.2-0.4,1.4-1.4l0.6,0.1c-0.3,1.2-1,1.8-2,1.8c-1.6,0-2.2-1.4-2.2-3c0-1.6,0.6-3,2.2-3C78.3,498.1,79,498.7,79.3,499.8z"
				/>
			<path class="st2" d="M81.3,503.1v0.9h-0.8v-0.9H81.3z"/>
		</g>
		<g class="st1">
			<path class="st2" d="M15.5,517.8l-0.6,0.2c-0.2-0.8-0.6-1.3-1.4-1.3c-1.1,0-1.5,1.2-1.5,2.4c0,1.6,0.6,2.4,1.6,2.4
				c0.7,0,1.2-0.4,1.4-1.4l0.6,0.1c-0.3,1.2-1,1.8-2,1.8c-1.6,0-2.2-1.4-2.2-3c0-1.6,0.6-3,2.2-3C14.6,516.1,15.2,516.7,15.5,517.8z
				"/>
			<path class="st2" d="M17.5,516.2v3l2.4-3h0.8l-1.8,2.2l2,3.6h-0.7l-1.7-3.1l-0.9,1.1v1.9h-0.6v-5.8H17.5z"/>
			<path class="st2" d="M23.6,516.2c1.7,0,2.6,1.2,2.6,2.9c0,1.7-0.9,2.9-2.6,2.9H22v-5.8H23.6z M23.6,521.5c1.4,0,2-0.9,2-2.3
				c0-1.6-0.7-2.3-2-2.3h-0.9v4.7H23.6z"/>
			<path class="st2" d="M28.2,521.1v0.9l-0.5,1.2h-0.3l0.4-1.2h-0.3v-0.9H28.2z"/>
			<path class="st2" d="M35,518.9l-0.5,0.2c-0.2-0.5-0.5-0.8-1-0.8c-0.9,0-1.1,0.8-1.1,1.7c0,1.1,0.4,1.7,1.1,1.7
				c0.6,0,0.8-0.2,1.1-0.8l0.5,0.2c-0.4,0.7-0.8,1.1-1.6,1.1c-1.2,0-1.7-1-1.7-2.2s0.5-2.2,1.7-2.2C34.2,517.8,34.7,518.1,35,518.9z
				"/>
			<path class="st2" d="M36.7,516.2v2.2h0c0.4-0.4,0.8-0.6,1.2-0.6c0.8,0,1.2,0.5,1.2,1.2v3.1h-0.6v-3c0-0.4-0.2-0.7-0.7-0.7
				c-0.4,0-0.9,0.3-1.2,0.6v3.1h-0.6v-5.8H36.7z"/>
			<path class="st2" d="M42.4,518.4c-0.8,0-1.1,0.5-1.4,1.3v2.3h-0.6v-4.2H41v0.8h0c0.3-0.6,0.7-0.9,1.3-0.9h0V518.4z"/>
			<path class="st2" d="M46.3,519.9c0,1.1-0.5,2.2-1.7,2.2s-1.7-1-1.7-2.2c0-1.1,0.5-2.2,1.7-2.2S46.3,518.8,46.3,519.9z
				 M44.6,521.6c0.8,0,1.1-0.8,1.1-1.7s-0.3-1.7-1.1-1.7c-0.8,0-1.1,0.9-1.1,1.7C43.4,520.7,43.7,521.6,44.6,521.6z"/>
			<path class="st2" d="M50.3,518.9v3.1h-0.6v-3c0-0.4-0.2-0.7-0.7-0.7c-0.4,0-0.9,0.3-1.2,0.6v3.1h-0.6v-4.2h0.6v0.6h0
				c0.4-0.4,0.8-0.6,1.2-0.6C49.8,517.8,50.3,518.2,50.3,518.9z"/>
			<path class="st2" d="M52.4,516.1v0.7h-0.6v-0.7H52.4z M52.4,517.8v4.2h-0.6v-4.2H52.4z"/>
			<path class="st2" d="M56.8,518.9l-0.5,0.2c-0.2-0.5-0.5-0.8-1-0.8c-0.9,0-1.1,0.8-1.1,1.7c0,1.1,0.4,1.7,1.1,1.7
				c0.6,0,0.8-0.2,1.1-0.8l0.5,0.2c-0.4,0.7-0.8,1.1-1.6,1.1c-1.2,0-1.7-1-1.7-2.2s0.5-2.2,1.7-2.2C56,517.8,56.4,518.1,56.8,518.9z
				"/>
			<path class="st2" d="M60.9,516.2v3.7h0l1.7-2.1h0.7l-1.2,1.5l1.4,2.6h-0.7l-1.1-2.1l-0.8,0.9v1.2h-0.6v-5.8H60.9z"/>
			<path class="st2" d="M65.1,516.1v0.7h-0.6v-0.7H65.1z M65.1,517.8v4.2h-0.6v-4.2H65.1z"/>
			<path class="st2" d="M69.6,516.2v5.4c0,0.1,0,0.3,0,0.4h-0.5l-0.1-0.4c-0.2,0.3-0.6,0.5-1.1,0.5c-0.9,0-1.7-0.7-1.7-2.2
				c0-1.5,0.9-2.2,1.7-2.2c0.4,0,0.8,0.2,1.1,0.5v-2H69.6z M68,521.6c0.4,0,0.7-0.2,1-0.6v-2.2c-0.3-0.3-0.7-0.6-1.1-0.6
				c-0.8,0-1.2,0.6-1.2,1.7C66.8,520.8,67.2,521.6,68,521.6z"/>
			<path class="st2" d="M74.1,518.9v3.1h-0.6v-3c0-0.4-0.2-0.7-0.7-0.7c-0.4,0-0.9,0.3-1.2,0.6v3.1H71v-4.2h0.6v0.6h0
				c0.4-0.4,0.8-0.6,1.2-0.6C73.6,517.8,74.1,518.2,74.1,518.9z"/>
			<path class="st2" d="M78.4,519.6v0.4h-2.7c0,1,0.6,1.6,1.2,1.6c0.5,0,0.9-0.3,1.1-0.7l0.4,0.2c-0.4,0.7-0.9,1-1.6,1
				c-1.1,0-1.8-0.8-1.8-2.2c0-1.5,0.8-2.2,1.7-2.2C77.7,517.8,78.4,518.4,78.4,519.6z M77.8,519.5c0-0.8-0.4-1.3-1-1.3
				s-1,0.4-1.1,1.3H77.8z"/>
			<path class="st2" d="M79.5,517.8l1.1,3.2h0l1-3.2h0.6l-1.5,4.5c-0.3,0.8-0.7,1.2-1.4,1.2c-0.2,0-0.3,0-0.4,0V523
				c0.1,0,0.2,0,0.3,0c0.6,0,0.9-0.4,1.1-1l-1.4-4.2H79.5z"/>
			<path class="st2" d="M88.5,516.2v5.4c0,0.1,0,0.3,0,0.4H88l-0.1-0.4c-0.2,0.3-0.6,0.5-1.1,0.5c-0.9,0-1.7-0.7-1.7-2.2
				c0-1.5,0.9-2.2,1.7-2.2c0.4,0,0.8,0.2,1.1,0.5v-2H88.5z M86.9,521.6c0.4,0,0.7-0.2,1-0.6v-2.2c-0.3-0.3-0.7-0.6-1.1-0.6
				c-0.8,0-1.2,0.6-1.2,1.7C85.7,520.8,86.1,521.6,86.9,521.6z"/>
			<path class="st2" d="M90.6,516.1v0.7H90v-0.7H90.6z M90.6,517.8v4.2H90v-4.2H90.6z"/>
			<path class="st2" d="M94.6,518.5l-0.4,0.4c-0.3-0.4-0.6-0.6-1.1-0.6c-0.5,0-0.8,0.2-0.8,0.6c0,0.3,0.3,0.5,0.9,0.7
				c0.8,0.2,1.5,0.5,1.5,1.3c0,0.8-0.7,1.2-1.5,1.2c-0.6,0-1.3-0.3-1.7-0.8l0.5-0.3c0.3,0.4,0.7,0.6,1.2,0.6c0.5,0,0.9-0.2,0.9-0.7
				c0-0.4-0.3-0.6-0.9-0.7c-0.9-0.3-1.5-0.5-1.5-1.2c0-0.8,0.6-1.2,1.3-1.2C93.6,517.8,94.3,518,94.6,518.5z"/>
			<path class="st2" d="M98.6,519.6v0.4h-2.7c0,1,0.6,1.6,1.2,1.6c0.5,0,0.9-0.3,1.1-0.7l0.4,0.2c-0.4,0.7-0.9,1-1.6,1
				c-1.1,0-1.8-0.8-1.8-2.2c0-1.5,0.8-2.2,1.7-2.2C97.9,517.8,98.6,518.4,98.6,519.6z M98,519.5c0-0.8-0.4-1.3-1-1.3
				c-0.6,0-1,0.4-1.1,1.3H98z"/>
			<path class="st2" d="M102.5,519v2.2c0,0.2,0,0.5,0.1,0.8H102l-0.1-0.6c-0.4,0.4-0.9,0.7-1.4,0.7c-0.7,0-1.2-0.5-1.2-1.2
				c0-1.2,1.4-1.5,2.5-1.7V519c0-0.6-0.4-0.8-0.9-0.8c-0.5,0-0.9,0.3-1.1,0.6l-0.5-0.3c0.3-0.6,0.9-0.9,1.6-0.9
				C101.8,517.8,102.5,518.2,102.5,519z M100.6,521.6c0.4,0,1-0.3,1.3-0.7v-1.1c-0.7,0.1-2,0.4-2,1.2
				C99.9,521.3,100.3,521.6,100.6,521.6z"/>
			<path class="st2" d="M106.1,518.5l-0.4,0.4c-0.3-0.4-0.6-0.6-1.1-0.6c-0.5,0-0.8,0.2-0.8,0.6c0,0.3,0.3,0.5,0.9,0.7
				c0.8,0.2,1.5,0.5,1.5,1.3c0,0.8-0.7,1.2-1.5,1.2c-0.6,0-1.3-0.3-1.7-0.8l0.5-0.3c0.3,0.4,0.7,0.6,1.2,0.6c0.5,0,0.9-0.2,0.9-0.7
				c0-0.4-0.3-0.6-0.9-0.7c-0.9-0.3-1.5-0.5-1.5-1.2c0-0.8,0.6-1.2,1.3-1.2C105.2,517.8,105.8,518,106.1,518.5z"/>
			<path class="st2" d="M110.1,519.6v0.4h-2.7c0,1,0.6,1.6,1.2,1.6c0.5,0,0.9-0.3,1.1-0.7l0.4,0.2c-0.4,0.7-0.9,1-1.6,1
				c-1.1,0-1.8-0.8-1.8-2.2c0-1.5,0.8-2.2,1.7-2.2C109.5,517.8,110.1,518.4,110.1,519.6z M109.6,519.5c0-0.8-0.4-1.3-1-1.3
				s-1,0.4-1.1,1.3H109.6z"/>
		</g>
		<g class="st1">
			<path class="st2" d="M15.3,524.2v0.9h-2.6v1.4h1.9v0.9h-1.9v2.5h-1.1v-5.8H15.3z"/>
			<path class="st2" d="M19.3,527.9c0,1.3-0.7,2.2-1.8,2.2c-1.1,0-1.8-0.8-1.8-2.2c0-1.3,0.7-2.2,1.8-2.2S19.3,526.6,19.3,527.9z
				 M17.4,529.3c0.5,0,0.8-0.4,0.8-1.4c0-0.9-0.3-1.4-0.8-1.4c-0.6,0-0.8,0.5-0.8,1.4C16.6,528.9,16.9,529.3,17.4,529.3z"/>
			<path class="st2" d="M22,526.8c0,0-0.1,0-0.2,0c-0.5,0-0.9,0.5-0.9,0.7v2.5h-1v-4.2h0.9v0.7h0c0.2-0.5,0.6-0.8,1.2-0.8V526.8z"/>
			<path class="st2" d="M26.3,524.2v2.3h2.2v-2.3h1.1v5.8h-1.1v-2.5h-2.2v2.5h-1.1v-5.8H26.3z"/>
			<path class="st2" d="M34,527.6v0.4h-2.5c0,0.8,0.3,1.2,0.9,1.2c0.4,0,0.6-0.1,0.9-0.5l0.7,0.4c-0.4,0.6-0.9,0.8-1.7,0.8
				c-1.1,0-1.8-0.8-1.8-2.2s0.7-2.2,1.8-2.2C33.5,525.8,34,526.8,34,527.6z M33.1,527.4c0-0.6-0.3-0.9-0.8-0.9
				c-0.5,0-0.8,0.3-0.8,0.9H33.1z"/>
			<path class="st2" d="M37.8,527.4v2c0,0.1,0,0.4,0.1,0.6h-1l-0.1-0.4c-0.4,0.3-0.8,0.4-1.3,0.4c-0.7,0-1.1-0.5-1.1-1.1
				c0-0.9,0.8-1.4,2.4-1.6V527c0-0.3-0.3-0.5-0.6-0.5c-0.3,0-0.6,0.2-0.9,0.5l-0.6-0.5c0.3-0.4,0.9-0.8,1.5-0.8
				C37.4,525.8,37.8,526.2,37.8,527.4z M35.9,529.3c0.3,0,0.6-0.2,0.9-0.4V528c-1.1,0.2-1.4,0.5-1.4,0.8
				C35.5,529.2,35.7,529.3,35.9,529.3z"/>
			<path class="st2" d="M39.9,524.2v5.8h-1v-5.8H39.9z"/>
			<path class="st2" d="M42.2,524.5v1.4H43v0.8h-0.8v2.4c0,0.2,0.1,0.3,0.4,0.3c0.2,0,0.3,0,0.5-0.1v0.8c-0.3,0-0.5,0.1-0.8,0.1
				c-0.7,0-1-0.3-1-1v-2.5h-0.6v-0.8h0.6v-1.4H42.2z"/>
			<path class="st2" d="M44.7,524.2v2.1c0.4-0.4,0.8-0.5,1.2-0.5c0.8,0,1.2,0.5,1.2,1.4v2.9h-1v-2.7c0-0.5-0.1-0.7-0.5-0.7
				c-0.3,0-0.7,0.2-0.9,0.4v3h-1v-5.8H44.7z"/>
			<path class="st2" d="M51.3,526.9l-0.8,0.3c-0.2-0.5-0.4-0.6-0.8-0.6c-0.6,0-0.8,0.4-0.8,1.4c0,0.9,0.3,1.4,0.8,1.4
				c0.4,0,0.6-0.2,0.9-0.7l0.8,0.4c-0.4,0.7-0.9,1-1.6,1c-1.2,0-1.8-0.8-1.8-2.2c0-1.3,0.7-2.2,1.8-2.2
				C50.4,525.8,51.1,526.2,51.3,526.9z"/>
			<path class="st2" d="M55.2,527.4v2c0,0.1,0,0.4,0.1,0.6h-1l-0.1-0.4c-0.4,0.3-0.8,0.4-1.3,0.4c-0.7,0-1.1-0.5-1.1-1.1
				c0-0.9,0.8-1.4,2.4-1.6V527c0-0.3-0.3-0.5-0.6-0.5c-0.3,0-0.6,0.2-0.9,0.5l-0.6-0.5c0.3-0.4,0.9-0.8,1.5-0.8
				C54.7,525.8,55.2,526.2,55.2,527.4z M53.3,529.3c0.3,0,0.6-0.2,0.9-0.4V528c-1.1,0.2-1.4,0.5-1.4,0.8
				C52.8,529.2,53,529.3,53.3,529.3z"/>
			<path class="st2" d="M58.2,526.8c0,0-0.1,0-0.2,0c-0.5,0-0.9,0.5-0.9,0.7v2.5h-1v-4.2H57v0.7h0c0.2-0.5,0.6-0.8,1.2-0.8V526.8z"
				/>
			<path class="st2" d="M62,527.6v0.4h-2.5c0,0.8,0.3,1.2,0.9,1.2c0.4,0,0.6-0.1,0.9-0.5l0.7,0.4c-0.4,0.6-0.9,0.8-1.7,0.8
				c-1.1,0-1.8-0.8-1.8-2.2s0.7-2.2,1.8-2.2C61.5,525.8,62,526.8,62,527.6z M61.1,527.4c0-0.6-0.3-0.9-0.8-0.9
				c-0.5,0-0.8,0.3-0.8,0.9H61.1z"/>
			<path class="st2" d="M67.4,524.2c1.3,0,2,0.6,2,1.7s-0.7,1.7-2,1.7h-1v2.3h-1.1v-5.8H67.4z M67.3,526.8c0.7,0,1-0.2,1-0.8
				s-0.4-0.8-1-0.8h-0.9v1.6H67.3z"/>
			<path class="st2" d="M72.2,526.8c0,0-0.1,0-0.2,0c-0.5,0-0.9,0.5-0.9,0.7v2.5h-1v-4.2H71v0.7h0c0.2-0.5,0.6-0.8,1.2-0.8V526.8z"
				/>
			<path class="st2" d="M76.1,527.9c0,1.3-0.7,2.2-1.8,2.2c-1.1,0-1.8-0.8-1.8-2.2c0-1.3,0.7-2.2,1.8-2.2S76.1,526.6,76.1,527.9z
				 M74.3,529.3c0.5,0,0.8-0.4,0.8-1.4c0-0.9-0.3-1.4-0.8-1.4c-0.6,0-0.8,0.5-0.8,1.4C73.5,528.9,73.8,529.3,74.3,529.3z"/>
			<path class="st2" d="M78.8,524.1v0.8h-0.2c-0.5,0-0.6,0.2-0.6,0.5v0.4h0.8v0.8H78v3.4h-1v-3.4h-0.6v-0.8H77v-0.5
				c0-0.8,0.3-1.2,1.1-1.2H78.8z"/>
			<path class="st2" d="M82.7,527.6v0.4h-2.5c0,0.8,0.3,1.2,0.9,1.2c0.4,0,0.6-0.1,0.9-0.5l0.7,0.4c-0.4,0.6-0.9,0.8-1.7,0.8
				c-1.1,0-1.8-0.8-1.8-2.2s0.7-2.2,1.8-2.2C82.1,525.8,82.7,526.8,82.7,527.6z M81.8,527.4c0-0.6-0.3-0.9-0.8-0.9
				c-0.5,0-0.8,0.3-0.8,0.9H81.8z"/>
			<path class="st2" d="M86.1,526.4l-0.6,0.5c-0.3-0.3-0.5-0.4-0.8-0.4c-0.4,0-0.6,0.2-0.6,0.4c0,0.2,0.2,0.4,0.7,0.6
				c1,0.3,1.3,0.7,1.3,1.4c0,0.8-0.6,1.2-1.5,1.2c-0.7,0-1.2-0.3-1.6-0.8l0.7-0.5c0.3,0.4,0.6,0.6,1,0.6c0.4,0,0.6-0.2,0.6-0.5
				c0-0.2-0.2-0.4-0.8-0.6c-1-0.3-1.3-0.7-1.3-1.3c0-0.7,0.6-1.2,1.4-1.2C85.2,525.8,85.8,526,86.1,526.4z"/>
			<path class="st2" d="M89.7,526.4l-0.6,0.5c-0.3-0.3-0.5-0.4-0.8-0.4c-0.4,0-0.6,0.2-0.6,0.4c0,0.2,0.2,0.4,0.7,0.6
				c1,0.3,1.3,0.7,1.3,1.4c0,0.8-0.6,1.2-1.5,1.2c-0.7,0-1.2-0.3-1.6-0.8l0.7-0.5c0.3,0.4,0.6,0.6,1,0.6s0.6-0.2,0.6-0.5
				c0-0.2-0.2-0.4-0.8-0.6c-1-0.3-1.3-0.7-1.3-1.3c0-0.7,0.6-1.2,1.4-1.2C88.8,525.8,89.3,526,89.7,526.4z"/>
			<path class="st2" d="M91.7,524.1v0.9h-1v-0.9H91.7z M91.7,525.8v4.2h-1v-4.2H91.7z"/>
			<path class="st2" d="M96.1,527.9c0,1.3-0.7,2.2-1.8,2.2c-1.1,0-1.8-0.8-1.8-2.2c0-1.3,0.7-2.2,1.8-2.2S96.1,526.6,96.1,527.9z
				 M94.3,529.3c0.5,0,0.8-0.4,0.8-1.4c0-0.9-0.3-1.4-0.8-1.4c-0.6,0-0.8,0.5-0.8,1.4C93.5,528.9,93.8,529.3,94.3,529.3z"/>
			<path class="st2" d="M100.2,527.1v2.9h-1v-2.7c0-0.5-0.1-0.7-0.5-0.7c-0.3,0-0.7,0.2-0.9,0.4v3h-1v-4.2h0.9v0.4
				c0.5-0.4,0.9-0.5,1.3-0.5C99.8,525.8,100.2,526.3,100.2,527.1z"/>
			<path class="st2" d="M104.3,527.4v2c0,0.1,0,0.4,0.1,0.6h-1l-0.1-0.4c-0.4,0.3-0.8,0.4-1.3,0.4c-0.7,0-1.1-0.5-1.1-1.1
				c0-0.9,0.8-1.4,2.4-1.6V527c0-0.3-0.3-0.5-0.6-0.5c-0.3,0-0.6,0.2-0.9,0.5l-0.6-0.5c0.3-0.4,0.9-0.8,1.5-0.8
				C103.8,525.8,104.3,526.2,104.3,527.4z M102.4,529.3c0.3,0,0.6-0.2,0.9-0.4V528c-1.1,0.2-1.4,0.5-1.4,0.8
				C101.9,529.2,102.1,529.3,102.4,529.3z"/>
			<path class="st2" d="M106.4,524.2v5.8h-1v-5.8H106.4z"/>
			<path class="st2" d="M110.1,526.4l-0.6,0.5c-0.3-0.3-0.5-0.4-0.8-0.4c-0.4,0-0.6,0.2-0.6,0.4c0,0.2,0.2,0.4,0.7,0.6
				c1,0.3,1.3,0.7,1.3,1.4c0,0.8-0.6,1.2-1.5,1.2c-0.7,0-1.2-0.3-1.6-0.8l0.7-0.5c0.3,0.4,0.6,0.6,1,0.6c0.4,0,0.6-0.2,0.6-0.5
				c0-0.2-0.2-0.4-0.8-0.6c-1-0.3-1.3-0.7-1.3-1.3c0-0.7,0.6-1.2,1.4-1.2C109.2,525.8,109.8,526,110.1,526.4z"/>
			<path class="st2" d="M118.1,527.1c0,1.9-0.9,3-2.4,3s-2.4-1.1-2.4-3c0-1.9,0.9-3,2.4-3S118.1,525.2,118.1,527.1z M115.6,529.2
				c0.9,0,1.3-0.7,1.3-2c0-1.4-0.4-2-1.3-2c-0.9,0-1.3,0.6-1.3,2.1C114.3,528.5,114.7,529.2,115.6,529.2z"/>
			<path class="st2" d="M122.2,527.1v2.9h-1v-2.7c0-0.5-0.1-0.7-0.5-0.7c-0.3,0-0.7,0.2-0.9,0.4v3h-1v-4.2h0.9v0.4
				c0.5-0.4,0.9-0.5,1.3-0.5C121.8,525.8,122.2,526.3,122.2,527.1z"/>
			<path class="st2" d="M124.4,524.2v5.8h-1v-5.8H124.4z"/>
			<path class="st2" d="M126.1,525.8l0.7,2.6h0l0.7-2.6h1l-1.3,4.2c-0.1,0.2-0.2,0.5-0.4,0.8c-0.3,0.5-0.7,0.7-1.2,0.7
				c-0.2,0-0.3,0-0.5,0v-0.8c0.1,0,0.3,0,0.5,0c0.2,0,0.4,0,0.5-0.2c0.1-0.1,0.3-0.4,0.3-0.6c0-0.1,0-0.1,0-0.2l-1.2-3.9H126.1z"/>
		</g>
		<g id="Group_38" transform="translate(-398.282 198.729)">
			<path id="Path_109" class="st7" d="M398.3,152.9l4.4-10c0.1-0.3,0.4-0.5,0.7-0.4c0.3,0,0.5,0.3,0.6,0.6l5,29.4l11.9-70.5
				c0.1-0.3,0.4-0.6,0.7-0.6c0.4,0,0.6,0.3,0.7,0.6l7.3,95.9l7.6-58.2c0-0.4,0.3-0.6,0.7-0.6c0.4,0,0.6,0.3,0.7,0.6l3,30.3l4.3-16.5
				c0.1-0.3,0.4-0.5,0.7-0.5h40.8l4.4-10c0.1-0.3,0.4-0.5,0.7-0.4c0.3,0,0.5,0.3,0.6,0.6l5,29.4l11.9-70.5c0.1-0.3,0.4-0.6,0.7-0.6
				c0.4,0,0.6,0.3,0.7,0.6l7.3,95.9l7.6-58.2c0-0.4,0.3-0.6,0.7-0.6c0.4,0,0.6,0.3,0.7,0.6l3,30.3l4.3-16.5c0.1-0.3,0.4-0.5,0.7-0.5
				h22.5c0.4,0,0.7,0.2,0.8,0.6c0,0.4-0.2,0.7-0.6,0.8c0,0-0.1,0-0.1,0h-21.9l-5.2,19.8c-0.1,0.4-0.5,0.6-0.9,0.5
				c-0.3-0.1-0.5-0.3-0.5-0.6l-2.8-28.1l-7.7,58.9c0,0.3-0.3,0.6-0.7,0.6h0c-0.4,0-0.6-0.3-0.7-0.6l-7.4-96.9l-11.6,69
				c-0.1,0.4-0.4,0.6-0.8,0.6c-0.3-0.1-0.5-0.3-0.6-0.6l-5.3-31.2l-3.7,8.3c-0.1,0.3-0.4,0.4-0.6,0.4h-40.7L442,174
				c-0.1,0.4-0.5,0.6-0.9,0.5c-0.3-0.1-0.5-0.3-0.5-0.6l-2.8-28.1l-7.7,58.9c0,0.4-0.4,0.6-0.7,0.6c-0.4,0-0.6-0.3-0.7-0.6
				l-7.4-96.9l-11.6,69c-0.1,0.4-0.4,0.6-0.8,0.6c-0.3-0.1-0.5-0.3-0.6-0.6l-5.3-31.2l-3.7,8.3c-0.1,0.3-0.4,0.4-0.6,0.4"/>
		</g>
		<path id="Polygon_1-2" d="M122.5,178.9l-4.5-8h9L122.5,178.9z"/>
		<g id="_1px-Border">
			<rect y="0" class="st8" width="160" height="600"/>
			<rect x="0.5" y="0.5" class="st9" width="159" height="599"/>
		</g>
	</g>
</g>
</svg>
