<?xml version="1.0" encoding="utf-8"?>
<!-- Generator: Adobe Illustrator 27.0.0, SVG Export Plug-In . SVG Version: 6.00 Build 0)  -->
<svg version="1.1" id="Layer_1" xmlns="http://www.w3.org/2000/svg" xmlns:xlink="http://www.w3.org/1999/xlink" x="0px" y="0px"
	 viewBox="0 0 160 600" style="enable-background:new 0 0 160 600;" xml:space="preserve">
<style type="text/css">
	.st0{clip-path:url(#SVGID_00000041990372674728505630000011056143611202016650_);}
	.st1{enable-background:new    ;}
	.st2{fill:#4D4D4F;}
	.st3{fill:#AD1AAC;}
	.st4{fill:#43B02A;}
	.st5{fill:#4EC3E0;}
	.st6{fill:#007A33;}
	.st7{fill:none;}
	.st8{fill:none;stroke:#BBBCBC;}
</style>
<g>
	<defs>
		<rect id="SVGID_1_" y="0" width="160" height="600"/>
	</defs>
	<clipPath id="SVGID_00000028305679628788159220000013304014638964168840_">
		<use xlink:href="#SVGID_1_"  style="overflow:visible;"/>
	</clipPath>
	<g id="Skyscraper_160x600" style="clip-path:url(#SVGID_00000028305679628788159220000013304014638964168840_);">
		<g class="st1">
			<path class="st2" d="M18.7,104.6v9.4h-1.8v-9.4H18.7z"/>
			<path class="st2" d="M25.3,108.6v5.4h-1.6v-5.2c0-0.4-0.2-0.8-0.6-0.8c-0.4,0-0.7,0.3-1.1,0.6v5.3h-1.6v-7.1H22v0.8
				c0.8-0.7,1.3-0.9,1.8-0.9C24.9,106.8,25.3,107.4,25.3,108.6z"/>
			<path class="st2" d="M35.6,109.5v1.8c0,1.8-0.5,2.8-1.8,2.8c-0.5,0-1.1-0.3-1.7-0.8v3.1h-1.6v-9.6H32v0.9h0c0.4-0.6,1.1-1,1.8-1
				C35,106.8,35.6,107.7,35.6,109.5z M32.1,112.4c0.3,0.4,0.6,0.5,1,0.5c0.6,0,0.8-0.6,0.8-1.6v-1.6c0-1-0.2-1.6-0.8-1.6
				c-0.4,0-0.6,0.2-1,0.5V112.4z"/>
			<path class="st2" d="M41.9,108.9v4.6c0,0.1,0,0.3,0.1,0.6h-1.6l-0.1-0.7c-0.5,0.5-1.1,0.8-2,0.8c-1,0-1.6-0.5-1.6-1.7
				c0-1.7,1.7-2.4,3.6-3V109c0-0.6-0.3-0.8-0.8-0.8c-0.5,0-0.9,0.4-0.9,0.9h-1.6c0.1-1.5,1.2-2.2,2.6-2.2
				C41.1,106.8,41.9,107.6,41.9,108.9z M39,112.9c0.5,0,0.8-0.3,1.2-0.7v-1.7c-0.7,0.3-2,0.8-2,1.6C38.3,112.6,38.6,112.9,39,112.9z
				"/>
			<path class="st2" d="M45.1,105.3v1.9h1.1v1.3h-1.1v3.6c0,0.3,0.2,0.5,0.8,0.5c0.1,0,0.1,0,0.2,0v1.4c-0.3,0.1-0.6,0.1-0.9,0.1
				c-1.3,0-1.8-0.5-1.8-1.4v-4.2h-0.6v-1.3h0.6v-1.9H45.1z"/>
			<path class="st2" d="M49,104.2v1.5h-1.6v-1.5H49z M49,106.9v7.1h-1.6v-7.1H49z"/>
			<path class="st2" d="M55.8,109.2v1.7h-3.6v1c0,0.6,0.4,1,1,1c0.6,0,1-0.3,1-1h1.6c-0.1,1.5-1,2.3-2.6,2.3c-1.5,0-2.6-1-2.6-2.5
				v-2.4c0-1.5,1.1-2.5,2.6-2.5C54.7,106.8,55.8,107.7,55.8,109.2z M54.2,109.5v-0.4c0-0.6-0.3-1-1-1c-0.6,0-1,0.4-1,0.9v0.5H54.2z"
				/>
			<path class="st2" d="M62.2,108.6v5.4h-1.6v-5.2c0-0.4-0.2-0.8-0.6-0.8c-0.4,0-0.7,0.3-1.1,0.6v5.3h-1.6v-7.1h1.6v0.8
				c0.8-0.7,1.3-0.9,1.8-0.9C61.7,106.8,62.2,107.4,62.2,108.6z"/>
			<path class="st2" d="M65.3,105.3v1.9h1.1v1.3h-1.1v3.6c0,0.3,0.2,0.5,0.8,0.5c0.1,0,0.1,0,0.2,0v1.4c-0.3,0.1-0.6,0.1-0.9,0.1
				c-1.3,0-1.8-0.5-1.8-1.4v-4.2H63v-1.3h0.6v-1.9H65.3z"/>
			<path class="st2" d="M71.8,108.6l-1.4,0.5c-0.2-0.7-0.6-1-1.1-1c-0.4,0-0.7,0.3-0.7,0.6c0,0.4,0.4,0.7,1.3,1.1
				c1.2,0.6,1.9,1.1,1.9,2.2c0,1.4-1,2.1-2.4,2.1c-1.5,0-2.1-0.7-2.7-2l1.5-0.4c0.1,0.7,0.5,1.1,1.2,1.1c0.5,0,0.8-0.2,0.8-0.6
				c0-0.6-0.5-0.9-1.4-1.2c-0.9-0.4-1.8-0.9-1.8-2.2c0-1.3,1-2,2.2-2C70.5,106.8,71.4,107.4,71.8,108.6z"/>
			<path class="st2" d="M81.7,108.6v5.4H80v-5.2c0-0.4-0.2-0.8-0.6-0.8c-0.4,0-0.7,0.3-1.1,0.6v5.3h-1.6v-7.1h1.6v0.8
				c0.8-0.7,1.3-0.9,1.8-0.9C81.2,106.8,81.7,107.4,81.7,108.6z"/>
			<path class="st2" d="M88.3,109.4v2.1c0,1.7-0.9,2.6-2.6,2.6c-1.8,0-2.6-1-2.6-2.6v-2.1c0-1.7,0.9-2.6,2.6-2.6
				C87.4,106.8,88.3,107.7,88.3,109.4z M84.7,111.9c0,0.5,0.4,0.8,1,0.8c0.6,0,1-0.3,1-0.8V109c0-0.5-0.4-0.8-1-0.8
				c-0.6,0-1,0.3-1,0.8V111.9z"/>
			<path class="st2" d="M91.3,105.3v1.9h1.1v1.3h-1.1v3.6c0,0.3,0.2,0.5,0.8,0.5c0.1,0,0.1,0,0.2,0v1.4c-0.3,0.1-0.6,0.1-0.9,0.1
				c-1.3,0-1.8-0.5-1.8-1.4v-4.2H89v-1.3h0.7v-1.9H91.3z"/>
			<path class="st2" d="M102,109.4v2.1c0,1.7-0.9,2.6-2.6,2.6c-1.8,0-2.6-1-2.6-2.6v-2.1c0-1.7,0.9-2.6,2.6-2.6S102,107.7,102,109.4
				z M98.5,111.9c0,0.5,0.4,0.8,1,0.8s1-0.3,1-0.8V109c0-0.5-0.4-0.8-1-0.8c-0.6,0-1,0.3-1,0.8V111.9z"/>
			<path class="st2" d="M108.4,108.6v5.4h-1.6v-5.2c0-0.4-0.2-0.8-0.6-0.8c-0.4,0-0.7,0.3-1.1,0.6v5.3h-1.6v-7.1h1.6v0.8
				c0.8-0.7,1.3-0.9,1.8-0.9C108,106.8,108.4,107.4,108.4,108.6z"/>
		</g>
		<g class="st1">
			<path class="st2" d="M21.7,120.6v9.4h-1.5v-0.9h0c-0.3,0.5-1.1,1-1.7,1c-1.2,0-1.8-1-1.8-2.7v-1.8c0-1.8,0.6-2.8,1.8-2.8
				c0.5,0,0.9,0.2,1.6,0.8v-3H21.7z M20.1,124.5c-0.3-0.4-0.6-0.5-1-0.5c-0.6,0-0.8,0.5-0.8,1.6v1.7c0,1,0.2,1.6,0.8,1.6
				c0.4,0,0.7-0.1,1-0.5V124.5z"/>
			<path class="st2" d="M25.1,120.2v1.5h-1.6v-1.5H25.1z M25.1,122.9v7.1h-1.6v-7.1H25.1z"/>
			<path class="st2" d="M31.8,124.9v4.6c0,0.1,0,0.3,0.1,0.6h-1.6l-0.1-0.7c-0.5,0.5-1.1,0.8-2,0.8c-1,0-1.6-0.5-1.6-1.7
				c0-1.7,1.7-2.4,3.6-3V125c0-0.6-0.3-0.8-0.8-0.8c-0.5,0-0.9,0.4-0.9,0.9h-1.6c0.1-1.5,1.2-2.2,2.6-2.2
				C31,122.8,31.8,123.6,31.8,124.9z M28.9,128.9c0.5,0,0.8-0.3,1.2-0.7v-1.7c-0.7,0.3-2,0.8-2,1.6
				C28.2,128.6,28.5,128.9,28.9,128.9z"/>
			<path class="st2" d="M35.2,120.6v9.4h-1.6v-9.4H35.2z"/>
			<path class="st2" d="M38,122.9l1.1,4.7h0l1-4.7h1.7L40,130c-0.4,1.6-0.9,2.5-2.8,2.5c-0.3,0-0.4,0-0.5,0V131c0.1,0,0.2,0,0.4,0
				c1,0,1.3-0.7,1.3-0.9c0-0.5-0.2-1-0.3-1.5l-1.6-5.7H38z"/>
			<path class="st2" d="M47.3,124.6l-1.4,0.5c-0.2-0.7-0.6-1-1.1-1c-0.4,0-0.7,0.3-0.7,0.6c0,0.4,0.4,0.7,1.3,1.1
				c1.2,0.6,1.9,1.1,1.9,2.2c0,1.4-1,2.1-2.4,2.1c-1.5,0-2.1-0.7-2.7-2l1.5-0.4c0.1,0.7,0.5,1.1,1.2,1.1c0.5,0,0.8-0.2,0.8-0.6
				c0-0.6-0.5-0.9-1.4-1.2c-0.9-0.4-1.8-0.9-1.8-2.2c0-1.3,1-2,2.2-2C45.9,122.8,46.8,123.4,47.3,124.6z"/>
			<path class="st2" d="M50.4,120.2v1.5h-1.6v-1.5H50.4z M50.4,122.9v7.1h-1.6v-7.1H50.4z"/>
			<path class="st2" d="M56.6,124.6l-1.4,0.5c-0.2-0.7-0.6-1-1.1-1c-0.4,0-0.7,0.3-0.7,0.6c0,0.4,0.4,0.7,1.3,1.1
				c1.2,0.6,1.9,1.1,1.9,2.2c0,1.4-1,2.1-2.4,2.1c-1.5,0-2.1-0.7-2.7-2l1.5-0.4c0.1,0.7,0.5,1.1,1.2,1.1c0.5,0,0.8-0.2,0.8-0.6
				c0-0.6-0.5-0.9-1.4-1.2c-0.9-0.4-1.8-0.9-1.8-2.2c0-1.3,1-2,2.2-2C55.3,122.8,56.2,123.4,56.6,124.6z"/>
			<path class="st2" d="M66.4,124.9v4.6c0,0.1,0,0.3,0.1,0.6h-1.6l-0.1-0.7c-0.5,0.5-1.1,0.8-2,0.8c-1,0-1.6-0.5-1.6-1.7
				c0-1.7,1.7-2.4,3.6-3V125c0-0.6-0.3-0.8-0.8-0.8c-0.5,0-0.9,0.4-0.9,0.9h-1.6c0.1-1.5,1.2-2.2,2.6-2.2
				C65.6,122.8,66.4,123.6,66.4,124.9z M63.6,128.9c0.5,0,0.8-0.3,1.2-0.7v-1.7c-0.7,0.3-2,0.8-2,1.6
				C62.8,128.6,63.1,128.9,63.6,128.9z"/>
			<path class="st2" d="M73,124.6v5.4h-1.6v-5.2c0-0.4-0.2-0.8-0.6-0.8c-0.4,0-0.7,0.3-1.1,0.6v5.3h-1.6v-7.1h1.6v0.8
				c0.8-0.7,1.3-0.9,1.8-0.9C72.6,122.8,73,123.4,73,124.6z"/>
			<path class="st2" d="M79.5,120.6v9.4H78v-0.9h0c-0.3,0.5-1.1,1-1.7,1c-1.2,0-1.8-1-1.8-2.7v-1.8c0-1.8,0.6-2.8,1.8-2.8
				c0.5,0,0.9,0.2,1.6,0.8v-3H79.5z M77.9,124.5c-0.3-0.4-0.6-0.5-1-0.5c-0.6,0-0.8,0.5-0.8,1.6v1.7c0,1,0.2,1.6,0.8,1.6
				c0.4,0,0.7-0.1,1-0.5V124.5z"/>
			<path class="st2" d="M86.3,121.3v1.9h1.1v1.3h-1.1v3.6c0,0.3,0.2,0.5,0.8,0.5c0.1,0,0.1,0,0.2,0v1.4c-0.3,0.1-0.6,0.1-0.9,0.1
				c-1.3,0-1.8-0.5-1.8-1.4v-4.2H84v-1.3h0.7v-1.9H86.3z"/>
			<path class="st2" d="M89.9,120.6v3.1c0.7-0.7,1.2-0.9,1.8-0.9c1.1,0,1.5,0.6,1.5,1.8v5.4h-1.6v-5.2c0-0.4-0.2-0.7-0.6-0.7
				c-0.4,0-0.7,0.3-1.1,0.6v5.3h-1.6v-9.4H89.9z"/>
			<path class="st2" d="M99.8,125.4v2.1c0,1.7-0.9,2.6-2.6,2.6c-1.8,0-2.6-1-2.6-2.6v-2.1c0-1.7,0.9-2.6,2.6-2.6
				S99.8,123.7,99.8,125.4z M96.3,127.9c0,0.5,0.4,0.8,1,0.8c0.6,0,1-0.3,1-0.8V125c0-0.5-0.4-0.8-1-0.8c-0.6,0-1,0.3-1,0.8V127.9z"
				/>
			<path class="st2" d="M105.8,124.6l-1.4,0.5c-0.2-0.7-0.6-1-1.1-1c-0.4,0-0.7,0.3-0.7,0.6c0,0.4,0.4,0.7,1.3,1.1
				c1.2,0.6,1.9,1.1,1.9,2.2c0,1.4-1,2.1-2.4,2.1c-1.5,0-2.1-0.7-2.7-2l1.5-0.4c0.1,0.7,0.5,1.1,1.2,1.1c0.5,0,0.8-0.2,0.8-0.6
				c0-0.6-0.5-0.9-1.4-1.2c-0.9-0.4-1.8-0.9-1.8-2.2c0-1.3,1-2,2.2-2C104.4,122.8,105.3,123.4,105.8,124.6z"/>
			<path class="st2" d="M112.1,125.2v1.7h-3.6v1c0,0.6,0.4,1,1,1c0.6,0,1-0.3,1-1h1.6c-0.1,1.5-1,2.3-2.6,2.3c-1.5,0-2.6-1-2.6-2.5
				v-2.4c0-1.5,1.1-2.5,2.6-2.5C111,122.8,112.1,123.7,112.1,125.2z M110.5,125.5v-0.4c0-0.6-0.3-1-1-1c-0.6,0-1,0.4-1,0.9v0.5
				H110.5z"/>
		</g>
		<g class="st1">
			<path class="st2" d="M18.6,138.9v7.7c0,1.2-0.8,1.9-2,1.9c-0.2,0-0.4,0-0.6,0V147c0.7,0,1-0.2,1-0.6v-7.5H18.6z M18.6,136.2v1.5
				H17v-1.5H18.6z"/>
			<path class="st2" d="M22,138.9v5.2c0,0.4,0.1,0.8,0.6,0.8c0.4,0,0.7-0.3,1.1-0.6v-5.3h1.6v7.1h-1.6v-0.8
				c-0.7,0.7-1.3,0.9-1.8,0.9c-1.1,0-1.5-0.7-1.5-1.8v-5.4H22z"/>
			<path class="st2" d="M31.4,140.6l-1.4,0.5c-0.2-0.7-0.6-1-1.1-1c-0.4,0-0.7,0.3-0.7,0.6c0,0.4,0.4,0.7,1.3,1.1
				c1.2,0.6,1.9,1.1,1.9,2.2c0,1.4-1,2.1-2.4,2.1c-1.5,0-2.1-0.7-2.7-2l1.5-0.4c0.1,0.7,0.5,1.1,1.2,1.1c0.5,0,0.8-0.2,0.8-0.6
				c0-0.6-0.5-0.9-1.4-1.2c-0.9-0.4-1.8-0.9-1.8-2.2c0-1.3,1-2,2.2-2C30,138.8,30.9,139.4,31.4,140.6z"/>
			<path class="st2" d="M34.3,137.3v1.9h1.1v1.3h-1.1v3.6c0,0.3,0.2,0.5,0.8,0.5c0.1,0,0.1,0,0.2,0v1.4c-0.3,0.1-0.6,0.1-0.9,0.1
				c-1.3,0-1.8-0.5-1.8-1.4v-4.2H32v-1.3h0.6v-1.9H34.3z"/>
			<path class="st2" d="M44.4,140.6l-1.4,0.5c-0.2-0.7-0.6-1-1.1-1c-0.4,0-0.7,0.3-0.7,0.6c0,0.4,0.4,0.7,1.3,1.1
				c1.2,0.6,1.9,1.1,1.9,2.2c0,1.4-1,2.1-2.4,2.1c-1.5,0-2.1-0.7-2.7-2l1.5-0.4c0.1,0.7,0.5,1.1,1.2,1.1c0.5,0,0.8-0.2,0.8-0.6
				c0-0.6-0.5-0.9-1.4-1.2c-0.9-0.4-1.8-0.9-1.8-2.2c0-1.3,1-2,2.2-2C43,138.8,43.9,139.4,44.4,140.6z"/>
			<path class="st2" d="M47.3,137.3v1.9h1.1v1.3h-1.1v3.6c0,0.3,0.2,0.5,0.8,0.5c0.1,0,0.1,0,0.2,0v1.4c-0.3,0.1-0.6,0.1-0.9,0.1
				c-1.3,0-1.8-0.5-1.8-1.4v-4.2H45v-1.3h0.6v-1.9H47.3z"/>
			<path class="st2" d="M54.2,140.9v4.6c0,0.1,0,0.3,0.1,0.6h-1.6l-0.1-0.7c-0.5,0.5-1.1,0.8-2,0.8c-1,0-1.6-0.5-1.6-1.7
				c0-1.7,1.7-2.4,3.6-3V141c0-0.6-0.3-0.8-0.8-0.8c-0.5,0-0.9,0.4-0.9,0.9h-1.6c0.1-1.5,1.2-2.2,2.6-2.2
				C53.3,138.8,54.2,139.6,54.2,140.9z M51.3,144.9c0.5,0,0.8-0.3,1.2-0.7v-1.7c-0.7,0.3-2,0.8-2,1.6
				C50.6,144.6,50.8,144.9,51.3,144.9z"/>
			<path class="st2" d="M59.1,140.6c-0.3-0.1-0.6-0.2-0.9-0.2c-0.5,0-0.8,0.4-0.8,0.8v4.8h-1.6v-7.1h1.6v0.9h0
				c0.4-0.7,0.9-1.1,1.7-1.1V140.6z"/>
			<path class="st2" d="M61.7,137.3v1.9h1.1v1.3h-1.1v3.6c0,0.3,0.2,0.5,0.8,0.5c0.1,0,0.1,0,0.2,0v1.4c-0.3,0.1-0.6,0.1-0.9,0.1
				c-1.3,0-1.8-0.5-1.8-1.4v-4.2h-0.6v-1.3h0.6v-1.9H61.7z"/>
			<path class="st2" d="M68.8,141.2v1.7h-3.6v1c0,0.6,0.4,1,1,1c0.6,0,1-0.3,1-1h1.6c-0.1,1.5-1,2.3-2.6,2.3c-1.5,0-2.6-1-2.6-2.5
				v-2.4c0-1.5,1.1-2.5,2.6-2.5C67.7,138.8,68.8,139.7,68.8,141.2z M67.2,141.5v-0.4c0-0.6-0.3-1-1-1c-0.6,0-1,0.4-1,0.9v0.5H67.2z"
				/>
			<path class="st2" d="M75.2,136.6v9.4h-1.5v-0.9h0c-0.3,0.5-1.1,1-1.7,1c-1.2,0-1.8-1-1.8-2.7v-1.8c0-1.8,0.6-2.8,1.8-2.8
				c0.5,0,0.9,0.2,1.6,0.8v-3H75.2z M73.5,140.5c-0.3-0.4-0.6-0.5-1-0.5c-0.6,0-0.8,0.5-0.8,1.6v1.7c0,1,0.2,1.6,0.8,1.6
				c0.4,0,0.7-0.1,1-0.5V140.5z"/>
			<path class="st2" d="M85.4,141.4v2.1c0,1.7-0.9,2.6-2.6,2.6c-1.8,0-2.6-1-2.6-2.6v-2.1c0-1.7,0.9-2.6,2.6-2.6
				S85.4,139.7,85.4,141.4z M81.8,143.9c0,0.5,0.4,0.8,1,0.8s1-0.3,1-0.8V141c0-0.5-0.4-0.8-1-0.8c-0.6,0-1,0.3-1,0.8V143.9z"/>
			<path class="st2" d="M91.8,140.6v5.4h-1.6v-5.2c0-0.4-0.2-0.8-0.6-0.8c-0.4,0-0.7,0.3-1.1,0.6v5.3h-1.6v-7.1h1.6v0.8
				c0.8-0.7,1.3-0.9,1.8-0.9C91.3,138.8,91.8,139.4,91.8,140.6z"/>
		</g>
		<g class="st1">
			<path class="st2" d="M21.7,152.6v9.4h-1.5v-0.9h0c-0.3,0.5-1.1,1-1.7,1c-1.2,0-1.8-1-1.8-2.7v-1.8c0-1.8,0.6-2.8,1.8-2.8
				c0.5,0,0.9,0.2,1.6,0.8v-3H21.7z M20.1,156.5c-0.3-0.4-0.6-0.5-1-0.5c-0.6,0-0.8,0.5-0.8,1.6v1.7c0,1,0.2,1.6,0.8,1.6
				c0.4,0,0.7-0.1,1-0.5V156.5z"/>
			<path class="st2" d="M25.1,152.2v1.5h-1.6v-1.5H25.1z M25.1,154.9v7.1h-1.6v-7.1H25.1z"/>
			<path class="st2" d="M31.8,156.9v4.6c0,0.1,0,0.3,0.1,0.6h-1.6l-0.1-0.7c-0.5,0.5-1.1,0.8-2,0.8c-1,0-1.6-0.5-1.6-1.7
				c0-1.7,1.7-2.4,3.6-3V157c0-0.6-0.3-0.8-0.8-0.8c-0.5,0-0.9,0.4-0.9,0.9h-1.6c0.1-1.5,1.2-2.2,2.6-2.2
				C31,154.8,31.8,155.6,31.8,156.9z M28.9,160.9c0.5,0,0.8-0.3,1.2-0.7v-1.7c-0.7,0.3-2,0.8-2,1.6
				C28.2,160.6,28.5,160.9,28.9,160.9z"/>
			<path class="st2" d="M35.2,152.6v9.4h-1.6v-9.4H35.2z"/>
			<path class="st2" d="M38,154.9l1.1,4.7h0l1-4.7h1.7L40,162c-0.4,1.6-0.9,2.5-2.8,2.5c-0.3,0-0.4,0-0.5,0V163c0.1,0,0.2,0,0.4,0
				c1,0,1.3-0.7,1.3-0.9c0-0.5-0.2-1-0.3-1.5l-1.6-5.7H38z"/>
			<path class="st2" d="M47.3,156.6l-1.4,0.5c-0.2-0.7-0.6-1-1.1-1c-0.4,0-0.7,0.3-0.7,0.6c0,0.4,0.4,0.7,1.3,1.1
				c1.2,0.6,1.9,1.1,1.9,2.2c0,1.4-1,2.1-2.4,2.1c-1.5,0-2.1-0.7-2.7-2l1.5-0.4c0.1,0.7,0.5,1.1,1.2,1.1c0.5,0,0.8-0.2,0.8-0.6
				c0-0.6-0.5-0.9-1.4-1.2c-0.9-0.4-1.8-0.9-1.8-2.2c0-1.3,1-2,2.2-2C45.9,154.8,46.8,155.4,47.3,156.6z"/>
			<path class="st2" d="M50.4,152.2v1.5h-1.6v-1.5H50.4z M50.4,154.9v7.1h-1.6v-7.1H50.4z"/>
			<path class="st2" d="M56.6,156.6l-1.4,0.5c-0.2-0.7-0.6-1-1.1-1c-0.4,0-0.7,0.3-0.7,0.6c0,0.4,0.4,0.7,1.3,1.1
				c1.2,0.6,1.9,1.1,1.9,2.2c0,1.4-1,2.1-2.4,2.1c-1.5,0-2.1-0.7-2.7-2l1.5-0.4c0.1,0.7,0.5,1.1,1.2,1.1c0.5,0,0.8-0.2,0.8-0.6
				c0-0.6-0.5-0.9-1.4-1.2c-0.9-0.4-1.8-0.9-1.8-2.2c0-1.3,1-2,2.2-2C55.3,154.8,56.2,155.4,56.6,156.6z"/>
			<path class="st2" d="M59.9,160.2v1.8l-0.8,1.9h-0.9l0.7-1.9H58v-1.8H59.9z"/>
			<path class="st2" d="M66.8,153.3v1.9h1.1v1.3h-1.1v3.6c0,0.3,0.2,0.5,0.8,0.5c0.1,0,0.1,0,0.2,0v1.4c-0.3,0.1-0.6,0.1-0.9,0.1
				c-1.3,0-1.8-0.5-1.8-1.4v-4.2h-0.6v-1.3h0.6v-1.9H66.8z"/>
			<path class="st2" d="M70.4,152.6v3.1c0.7-0.7,1.2-0.9,1.8-0.9c1.1,0,1.5,0.6,1.5,1.8v5.4h-1.6v-5.2c0-0.4-0.2-0.7-0.6-0.7
				c-0.4,0-0.7,0.3-1.1,0.6v5.3h-1.6v-9.4H70.4z"/>
			<path class="st2" d="M80.3,157.2v1.7h-3.6v1c0,0.6,0.4,1,1,1c0.6,0,1-0.3,1-1h1.6c-0.1,1.5-1,2.3-2.6,2.3c-1.5,0-2.6-1-2.6-2.5
				v-2.4c0-1.5,1.1-2.5,2.6-2.5C79.2,154.8,80.3,155.7,80.3,157.2z M78.7,157.5v-0.4c0-0.6-0.3-1-1-1c-0.6,0-1,0.4-1,0.9v0.5H78.7z"
				/>
			<path class="st2" d="M88.7,156.6c-0.3-0.1-0.6-0.2-0.9-0.2c-0.5,0-0.8,0.4-0.8,0.8v4.8h-1.6v-7.1H87v0.9h0
				c0.4-0.7,0.9-1.1,1.7-1.1V156.6z"/>
			<path class="st2" d="M91.6,152.2v1.5h-1.6v-1.5H91.6z M91.6,154.9v7.1h-1.6v-7.1H91.6z"/>
			<path class="st2" d="M97.8,156.6l-1.4,0.5c-0.2-0.7-0.6-1-1.1-1c-0.4,0-0.7,0.3-0.7,0.6c0,0.4,0.4,0.7,1.3,1.1
				c1.2,0.6,1.9,1.1,1.9,2.2c0,1.4-1,2.1-2.4,2.1c-1.5,0-2.1-0.7-2.7-2l1.5-0.4c0.1,0.7,0.5,1.1,1.2,1.1c0.5,0,0.8-0.2,0.8-0.6
				c0-0.6-0.5-0.9-1.4-1.2c-0.9-0.4-1.8-0.9-1.8-2.2c0-1.3,1-2,2.2-2C96.5,154.8,97.4,155.4,97.8,156.6z"/>
			<path class="st2" d="M100.8,152.6v5.1h0l1.7-2.7h1.8l-1.6,2.4l1.8,4.7h-1.7l-1.2-3.3l-0.8,1.2v2.2h-1.6v-9.4H100.8z"/>
		</g>
		<g class="st1">
			<path class="st2" d="M21.9,173.4v2.1c0,1.7-0.9,2.6-2.6,2.6c-1.8,0-2.6-1-2.6-2.6v-2.1c0-1.7,0.9-2.6,2.6-2.6
				S21.9,171.7,21.9,173.4z M18.3,175.9c0,0.5,0.4,0.8,1,0.8c0.6,0,1-0.3,1-0.8V173c0-0.5-0.4-0.8-1-0.8c-0.6,0-1,0.3-1,0.8V175.9z"
				/>
			<path class="st2" d="M26,168.6v1.4h-0.4c-0.5,0-0.7,0.2-0.7,0.7v0.6h1v1.3h-1v5.4h-1.6v-5.4h-0.7v-1.3h0.7v-0.4
				c0-1.5,0.2-2.4,1.9-2.4C25.5,168.5,25.7,168.5,26,168.6z"/>
			<path class="st2" d="M35.1,171.9c0.6-0.6,1-1.1,1.7-1.1c1,0,1.5,0.6,1.5,1.8v5.4h-1.6v-5.4c0-0.4-0.2-0.6-0.4-0.6
				c-0.3,0-0.9,0.4-1,0.6v5.3h-1.6v-5.4c0-0.4-0.2-0.6-0.4-0.6c-0.3,0-0.7,0.3-1,0.6v5.3h-1.6v-7.1h1.6v0.8c0.6-0.5,1.1-0.9,1.8-0.9
				C34.5,170.8,34.9,171.2,35.1,171.9z"/>
			<path class="st2" d="M44.8,172.9v4.6c0,0.1,0,0.3,0.1,0.6h-1.6l-0.1-0.7c-0.5,0.5-1.1,0.8-2,0.8c-1,0-1.6-0.5-1.6-1.7
				c0-1.7,1.7-2.4,3.6-3V173c0-0.6-0.3-0.8-0.8-0.8c-0.5,0-0.9,0.4-0.9,0.9h-1.6c0.1-1.5,1.2-2.2,2.6-2.2
				C44,170.8,44.8,171.6,44.8,172.9z M41.9,176.9c0.5,0,0.8-0.3,1.2-0.7v-1.7c-0.7,0.3-2,0.8-2,1.6
				C41.2,176.6,41.5,176.9,41.9,176.9z"/>
			<path class="st2" d="M48.2,170.9v7.7c0,1.2-0.8,1.9-2,1.9c-0.2,0-0.4,0-0.6,0V179c0.7,0,1-0.2,1-0.6v-7.5H48.2z M48.2,168.2v1.5
				h-1.6v-1.5H48.2z"/>
			<path class="st2" d="M55.1,173.4v2.1c0,1.7-0.9,2.6-2.6,2.6c-1.8,0-2.6-1-2.6-2.6v-2.1c0-1.7,0.9-2.6,2.6-2.6
				C54.2,170.8,55.1,171.7,55.1,173.4z M51.5,175.9c0,0.5,0.4,0.8,1,0.8s1-0.3,1-0.8V173c0-0.5-0.4-0.8-1-0.8c-0.6,0-1,0.3-1,0.8
				V175.9z"/>
			<path class="st2" d="M59.8,172.6c-0.3-0.1-0.6-0.2-0.9-0.2c-0.5,0-0.8,0.4-0.8,0.8v4.8h-1.6v-7.1h1.6v0.9h0
				c0.4-0.7,0.9-1.1,1.7-1.1V172.6z"/>
			<path class="st2" d="M69.3,172.9v4.6c0,0.1,0,0.3,0.1,0.6h-1.6l-0.1-0.7c-0.5,0.5-1.1,0.8-2,0.8c-1,0-1.6-0.5-1.6-1.7
				c0-1.7,1.7-2.4,3.6-3V173c0-0.6-0.3-0.8-0.8-0.8c-0.5,0-0.9,0.4-0.9,0.9h-1.6c0.1-1.5,1.2-2.2,2.6-2.2
				C68.5,170.8,69.3,171.6,69.3,172.9z M66.5,176.9c0.5,0,0.8-0.3,1.2-0.7v-1.7c-0.7,0.3-2,0.8-2,1.6
				C65.7,176.6,66,176.9,66.5,176.9z"/>
			<path class="st2" d="M75.9,168.6v9.4h-1.5v-0.9h0c-0.3,0.5-1.1,1-1.7,1c-1.2,0-1.8-1-1.8-2.7v-1.8c0-1.8,0.6-2.8,1.8-2.8
				c0.5,0,0.9,0.2,1.6,0.8v-3H75.9z M74.3,172.5c-0.3-0.4-0.6-0.5-1-0.5c-0.6,0-0.8,0.5-0.8,1.6v1.7c0,1,0.2,1.6,0.8,1.6
				c0.4,0,0.7-0.1,1-0.5V172.5z"/>
			<path class="st2" d="M78.5,170.9l1.1,4.5h0l1.1-4.5l0,0h1.6l-1.9,7.1h-1.6l-1.9-7.1H78.5z"/>
			<path class="st2" d="M88.3,173.2v1.7h-3.6v1c0,0.6,0.4,1,1,1c0.6,0,1-0.3,1-1h1.6c-0.1,1.5-1,2.3-2.6,2.3c-1.5,0-2.6-1-2.6-2.5
				v-2.4c0-1.5,1.1-2.5,2.6-2.5C87.2,170.8,88.3,171.7,88.3,173.2z M86.7,173.5v-0.4c0-0.6-0.3-1-1-1c-0.6,0-1,0.4-1,0.9v0.5H86.7z"
				/>
			<path class="st2" d="M93,172.6c-0.3-0.1-0.6-0.2-0.9-0.2c-0.5,0-0.8,0.4-0.8,0.8v4.8h-1.6v-7.1h1.6v0.9h0
				c0.4-0.7,0.9-1.1,1.7-1.1V172.6z"/>
			<path class="st2" d="M98.5,172.6l-1.4,0.5c-0.2-0.7-0.6-1-1.1-1c-0.4,0-0.7,0.3-0.7,0.6c0,0.4,0.4,0.7,1.3,1.1
				c1.2,0.6,1.9,1.1,1.9,2.2c0,1.4-1,2.1-2.4,2.1c-1.5,0-2.1-0.7-2.7-2l1.5-0.4c0.1,0.7,0.5,1.1,1.2,1.1c0.5,0,0.8-0.2,0.8-0.6
				c0-0.6-0.5-0.9-1.4-1.2c-0.9-0.4-1.8-0.9-1.8-2.2c0-1.3,1-2,2.2-2C97.2,170.8,98.1,171.4,98.5,172.6z"/>
			<path class="st2" d="M104.9,173.2v1.7h-3.6v1c0,0.6,0.4,1,1,1c0.6,0,1-0.3,1-1h1.6c-0.1,1.5-1,2.3-2.6,2.3c-1.5,0-2.6-1-2.6-2.5
				v-2.4c0-1.5,1.1-2.5,2.6-2.5C103.8,170.8,104.9,171.7,104.9,173.2z M103.3,173.5v-0.4c0-0.6-0.3-1-1-1c-0.6,0-1,0.4-1,0.9v0.5
				H103.3z"/>
		</g>
		<g class="st1">
			<path class="st2" d="M22.6,187.7h-1.8v-0.2c0-0.7-0.1-1.4-1.2-1.4c-0.9,0-1.2,0.5-1.2,1.3v3.9c0,0.8,0.3,1.3,1.2,1.3
				c1.1,0,1.2-0.7,1.2-1.5v-0.5h1.8v0.4c0,1.9-0.9,3.1-3,3.1c-2,0-3-1.1-3-3.1v-3.5c0-2,0.9-3.1,3-3.1
				C21.6,184.5,22.6,185.6,22.6,187.7z"/>
			<path class="st2" d="M25.2,184.6l1.7,6.7h0l1.6-6.7h1.8l-2.4,9.4h-2l-2.4-9.4H25.2z"/>
			<path class="st2" d="M39.9,189.2v1.7h-3.6v1c0,0.6,0.4,1,1,1c0.6,0,1-0.3,1-1h1.6c-0.1,1.5-1,2.3-2.6,2.3c-1.5,0-2.6-1-2.6-2.5
				v-2.4c0-1.5,1.1-2.5,2.6-2.5C38.8,186.8,39.9,187.7,39.9,189.2z M38.3,189.5v-0.4c0-0.6-0.3-1-1-1c-0.6,0-1,0.4-1,0.9v0.5H38.3z"
				/>
			<path class="st2" d="M42.4,186.9l1.1,4.5h0l1.1-4.5l0,0h1.6l-1.9,7.1h-1.6l-1.9-7.1H42.4z"/>
			<path class="st2" d="M52.2,189.2v1.7h-3.6v1c0,0.6,0.4,1,1,1c0.6,0,1-0.3,1-1h1.6c-0.1,1.5-1,2.3-2.6,2.3c-1.5,0-2.6-1-2.6-2.5
				v-2.4c0-1.5,1.1-2.5,2.6-2.5C51.1,186.8,52.2,187.7,52.2,189.2z M50.6,189.5v-0.4c0-0.6-0.3-1-1-1c-0.6,0-1,0.4-1,0.9v0.5H50.6z"
				/>
			<path class="st2" d="M58.6,188.6v5.4h-1.6v-5.2c0-0.4-0.2-0.8-0.6-0.8c-0.4,0-0.7,0.3-1.1,0.6v5.3h-1.6v-7.1h1.6v0.8
				c0.8-0.7,1.3-0.9,1.8-0.9C58.1,186.8,58.6,187.4,58.6,188.6z"/>
			<path class="st2" d="M61.7,185.3v1.9h1.1v1.3h-1.1v3.6c0,0.3,0.2,0.5,0.8,0.5c0.1,0,0.1,0,0.2,0v1.4c-0.3,0.1-0.6,0.1-0.9,0.1
				c-1.3,0-1.8-0.5-1.8-1.4v-4.2h-0.6v-1.3h0.6v-1.9H61.7z"/>
			<path class="st2" d="M68.2,188.6l-1.4,0.5c-0.2-0.7-0.6-1-1.1-1c-0.4,0-0.7,0.3-0.7,0.6c0,0.4,0.4,0.7,1.3,1.1
				c1.2,0.6,1.9,1.1,1.9,2.2c0,1.4-1,2.1-2.4,2.1c-1.5,0-2.1-0.7-2.7-2l1.5-0.4c0.1,0.7,0.5,1.1,1.2,1.1c0.5,0,0.8-0.2,0.8-0.6
				c0-0.6-0.5-0.9-1.4-1.2c-0.9-0.4-1.8-0.9-1.8-2.2c0-1.3,1-2,2.2-2C66.9,186.8,67.8,187.4,68.2,188.6z"/>
			<path class="st2" d="M78.2,189.4v2.1c0,1.7-0.9,2.6-2.6,2.6c-1.8,0-2.6-1-2.6-2.6v-2.1c0-1.7,0.9-2.6,2.6-2.6
				S78.2,187.7,78.2,189.4z M74.6,191.9c0,0.5,0.4,0.8,1,0.8c0.6,0,1-0.3,1-0.8V189c0-0.5-0.4-0.8-1-0.8c-0.6,0-1,0.3-1,0.8V191.9z"
				/>
			<path class="st2" d="M82.9,188.6c-0.3-0.1-0.6-0.2-0.9-0.2c-0.5,0-0.8,0.4-0.8,0.8v4.8h-1.6v-7.1h1.6v0.9h0
				c0.4-0.7,0.9-1.1,1.7-1.1V188.6z"/>
		</g>
		<g class="st1">
			<path class="st2" d="M21.7,204.9v4.6c0,0.1,0,0.3,0.1,0.6h-1.6l-0.1-0.7c-0.5,0.5-1.1,0.8-2,0.8c-1,0-1.6-0.5-1.6-1.7
				c0-1.7,1.7-2.4,3.6-3V205c0-0.6-0.3-0.8-0.8-0.8c-0.5,0-0.9,0.4-0.9,0.9h-1.6c0.1-1.5,1.2-2.2,2.6-2.2
				C20.8,202.8,21.7,203.6,21.7,204.9z M18.8,208.9c0.5,0,0.8-0.3,1.2-0.7v-1.7c-0.7,0.3-2,0.8-2,1.6
				C18.1,208.6,18.3,208.9,18.8,208.9z"/>
			<path class="st2" d="M25.1,200.6v9.4h-1.6v-9.4H25.1z"/>
			<path class="st2" d="M28.7,200.6v9.4h-1.6v-9.4H28.7z"/>
			<path class="st2" d="M33.5,205.7v1.4h-3.2v-1.4H33.5z"/>
			<path class="st2" d="M39.9,205.4h-1.6V205c0-0.5-0.3-0.8-1-0.8c-0.6,0-1,0.3-1,0.8v2.8c0,0.5,0.4,0.8,1,0.8c0.6,0,1-0.3,1-0.8
				v-0.5h1.6c0,1.8-0.9,2.7-2.6,2.7c-1.8,0-2.6-1-2.6-2.6v-2.1c0-1.6,0.8-2.6,2.6-2.6C39,202.8,39.9,203.7,39.9,205.4z"/>
			<path class="st2" d="M46.2,204.9v4.6c0,0.1,0,0.3,0.1,0.6h-1.6l-0.1-0.7c-0.5,0.5-1.1,0.8-2,0.8c-1,0-1.6-0.5-1.6-1.7
				c0-1.7,1.7-2.4,3.6-3V205c0-0.6-0.3-0.8-0.8-0.8c-0.5,0-0.9,0.4-0.9,0.9h-1.6c0.1-1.5,1.2-2.2,2.6-2.2
				C45.4,202.8,46.2,203.6,46.2,204.9z M43.3,208.9c0.5,0,0.8-0.3,1.2-0.7v-1.7c-0.7,0.3-2,0.8-2,1.6
				C42.6,208.6,42.9,208.9,43.3,208.9z"/>
			<path class="st2" d="M49.5,202.9v5.2c0,0.4,0.1,0.8,0.6,0.8c0.4,0,0.7-0.3,1.1-0.6v-5.3h1.6v7.1h-1.6v-0.8
				c-0.7,0.7-1.3,0.9-1.8,0.9c-1.1,0-1.5-0.7-1.5-1.8v-5.4H49.5z"/>
			<path class="st2" d="M58.8,204.6l-1.4,0.5c-0.2-0.7-0.6-1-1.1-1c-0.4,0-0.7,0.3-0.7,0.6c0,0.4,0.4,0.7,1.3,1.1
				c1.2,0.6,1.9,1.1,1.9,2.2c0,1.4-1,2.1-2.4,2.1c-1.5,0-2.1-0.7-2.7-2l1.5-0.4c0.1,0.7,0.5,1.1,1.2,1.1c0.5,0,0.8-0.2,0.8-0.6
				c0-0.6-0.5-0.9-1.4-1.2c-0.9-0.4-1.8-0.9-1.8-2.2c0-1.3,1-2,2.2-2C57.5,202.8,58.4,203.4,58.8,204.6z"/>
			<path class="st2" d="M65.2,205.2v1.7h-3.6v1c0,0.6,0.4,1,1,1c0.6,0,1-0.3,1-1h1.6c-0.1,1.5-1,2.3-2.6,2.3c-1.5,0-2.6-1-2.6-2.5
				v-2.4c0-1.5,1.1-2.5,2.6-2.5C64.1,202.8,65.2,203.7,65.2,205.2z M63.5,205.5v-0.4c0-0.6-0.3-1-1-1c-0.6,0-1,0.4-1,0.9v0.5H63.5z"
				/>
			<path class="st2" d="M74.8,203.9c0.6-0.6,1-1.1,1.7-1.1c1,0,1.5,0.6,1.5,1.8v5.4h-1.6v-5.4c0-0.4-0.2-0.6-0.4-0.6
				c-0.3,0-0.9,0.4-1,0.6v5.3h-1.6v-5.4c0-0.4-0.2-0.6-0.4-0.6c-0.3,0-0.7,0.3-1,0.6v5.3h-1.6v-7.1h1.6v0.8c0.6-0.5,1.1-0.9,1.8-0.9
				C74.2,202.8,74.6,203.2,74.8,203.9z"/>
			<path class="st2" d="M84.7,205.4v2.1c0,1.7-0.9,2.6-2.6,2.6c-1.8,0-2.6-1-2.6-2.6v-2.1c0-1.7,0.9-2.6,2.6-2.6
				C83.8,202.8,84.7,203.7,84.7,205.4z M81.1,207.9c0,0.5,0.4,0.8,1,0.8c0.6,0,1-0.3,1-0.8V205c0-0.5-0.4-0.8-1-0.8
				c-0.6,0-1,0.3-1,0.8V207.9z"/>
			<path class="st2" d="M89.4,204.6c-0.3-0.1-0.6-0.2-0.9-0.2c-0.5,0-0.8,0.4-0.8,0.8v4.8h-1.6v-7.1h1.6v0.9h0
				c0.4-0.7,0.9-1.1,1.7-1.1V204.6z"/>
			<path class="st2" d="M92,201.3v1.9h1.1v1.3H92v3.6c0,0.3,0.2,0.5,0.8,0.5c0.1,0,0.1,0,0.2,0v1.4c-0.3,0.1-0.7,0.1-0.9,0.1
				c-1.3,0-1.8-0.5-1.8-1.4v-4.2h-0.6v-1.3h0.6v-1.9H92z"/>
			<path class="st2" d="M98.9,204.9v4.6c0,0.1,0,0.3,0.1,0.6h-1.6l-0.1-0.7c-0.5,0.5-1.1,0.8-2,0.8c-1,0-1.6-0.5-1.6-1.7
				c0-1.7,1.7-2.4,3.6-3V205c0-0.6-0.3-0.8-0.8-0.8c-0.5,0-0.9,0.4-0.9,0.9h-1.6c0.1-1.5,1.2-2.2,2.6-2.2
				C98.1,202.8,98.9,203.6,98.9,204.9z M96.1,208.9c0.5,0,0.8-0.3,1.2-0.7v-1.7c-0.7,0.3-2,0.8-2,1.6
				C95.3,208.6,95.6,208.9,96.1,208.9z"/>
			<path class="st2" d="M102.4,200.6v9.4h-1.6v-9.4H102.4z"/>
			<path class="st2" d="M106,200.2v1.5h-1.6v-1.5H106z M106,202.9v7.1h-1.6v-7.1H106z"/>
			<path class="st2" d="M109.4,201.3v1.9h1.1v1.3h-1.1v3.6c0,0.3,0.2,0.5,0.8,0.5c0.1,0,0.1,0,0.2,0v1.4c-0.3,0.1-0.7,0.1-0.9,0.1
				c-1.3,0-1.8-0.5-1.8-1.4v-4.2h-0.6v-1.3h0.6v-1.9H109.4z"/>
			<path class="st2" d="M112.4,202.9l1.1,4.7h0l1-4.7h1.7l-1.9,7.1c-0.4,1.6-0.9,2.5-2.8,2.5c-0.3,0-0.4,0-0.5,0V211
				c0.1,0,0.2,0,0.4,0c1,0,1.3-0.7,1.3-0.9c0-0.5-0.2-1-0.3-1.5l-1.6-5.7H112.4z"/>
		</g>
		<g class="st1">
			<path class="st2" d="M17.7,218.9l0.9,4.4h0l0.9-4.4H21l1,4.4h0l0.9-4.4h1.5l-1.7,7.1h-1.5l-1-4.4h0l-0.9,4.4h-1.5l-1.7-7.1H17.7z
				"/>
			<path class="st2" d="M30.3,220.9v4.6c0,0.1,0,0.3,0.1,0.6h-1.6l-0.1-0.7c-0.5,0.5-1.1,0.8-2,0.8c-1,0-1.6-0.5-1.6-1.7
				c0-1.7,1.7-2.4,3.6-3V221c0-0.6-0.3-0.8-0.8-0.8c-0.5,0-0.9,0.4-0.9,0.9h-1.6c0.1-1.5,1.2-2.2,2.6-2.2
				C29.5,218.8,30.3,219.6,30.3,220.9z M27.5,224.9c0.5,0,0.8-0.3,1.2-0.7v-1.7c-0.7,0.3-2,0.8-2,1.6
				C26.7,224.6,27,224.9,27.5,224.9z"/>
			<path class="st2" d="M36.4,220.6l-1.4,0.5c-0.2-0.7-0.6-1-1.1-1c-0.4,0-0.7,0.3-0.7,0.6c0,0.4,0.4,0.7,1.3,1.1
				c1.2,0.6,1.9,1.1,1.9,2.2c0,1.4-1,2.1-2.4,2.1c-1.5,0-2.1-0.7-2.7-2l1.5-0.4c0.1,0.7,0.5,1.1,1.2,1.1c0.5,0,0.8-0.2,0.8-0.6
				c0-0.6-0.5-0.9-1.4-1.2c-0.9-0.4-1.8-0.9-1.8-2.2c0-1.3,1-2,2.2-2C35.1,218.8,36,219.4,36.4,220.6z"/>
			<path class="st2" d="M46.4,221.4h-1.6V221c0-0.5-0.3-0.8-1-0.8c-0.6,0-1,0.3-1,0.8v2.8c0,0.5,0.4,0.8,1,0.8c0.6,0,1-0.3,1-0.8
				v-0.5h1.6c0,1.8-0.9,2.7-2.6,2.7c-1.8,0-2.6-1-2.6-2.6v-2.1c0-1.6,0.8-2.6,2.6-2.6C45.5,218.8,46.4,219.7,46.4,221.4z"/>
			<path class="st2" d="M52.9,221.4v2.1c0,1.7-0.9,2.6-2.6,2.6c-1.8,0-2.6-1-2.6-2.6v-2.1c0-1.7,0.9-2.6,2.6-2.6
				S52.9,219.7,52.9,221.4z M49.3,223.9c0,0.5,0.4,0.8,1,0.8c0.6,0,1-0.3,1-0.8V221c0-0.5-0.4-0.8-1-0.8c-0.6,0-1,0.3-1,0.8V223.9z"
				/>
			<path class="st2" d="M58.9,219.9c0.6-0.6,1-1.1,1.7-1.1c1,0,1.5,0.6,1.5,1.8v5.4h-1.6v-5.4c0-0.4-0.2-0.6-0.4-0.6
				c-0.3,0-0.9,0.4-1,0.6v5.3h-1.6v-5.4c0-0.4-0.2-0.6-0.4-0.6c-0.3,0-0.7,0.3-1,0.6v5.3h-1.6v-7.1h1.6v0.8c0.6-0.5,1.1-0.9,1.8-0.9
				C58.3,218.8,58.7,219.2,58.9,219.9z"/>
			<path class="st2" d="M68.8,221.5v1.8c0,1.8-0.5,2.8-1.8,2.8c-0.5,0-1.1-0.3-1.7-0.8v3.1h-1.6v-9.6h1.5v0.9h0c0.4-0.6,1.1-1,1.8-1
				C68.2,218.8,68.8,219.7,68.8,221.5z M65.4,224.4c0.3,0.4,0.6,0.5,1,0.5c0.6,0,0.8-0.6,0.8-1.6v-1.6c0-1-0.2-1.6-0.8-1.6
				c-0.4,0-0.6,0.2-1,0.5V224.4z"/>
			<path class="st2" d="M75.1,220.9v4.6c0,0.1,0,0.3,0.1,0.6h-1.6l-0.1-0.7c-0.5,0.5-1.1,0.8-2,0.8c-1,0-1.6-0.5-1.6-1.7
				c0-1.7,1.7-2.4,3.6-3V221c0-0.6-0.3-0.8-0.8-0.8c-0.5,0-0.9,0.4-0.9,0.9h-1.6c0.1-1.5,1.2-2.2,2.6-2.2
				C74.3,218.8,75.1,219.6,75.1,220.9z M72.2,224.9c0.5,0,0.8-0.3,1.2-0.7v-1.7c-0.7,0.3-2,0.8-2,1.6
				C71.5,224.6,71.8,224.9,72.2,224.9z"/>
			<path class="st2" d="M80,220.6c-0.3-0.1-0.6-0.2-0.9-0.2c-0.5,0-0.8,0.4-0.8,0.8v4.8h-1.6v-7.1h1.6v0.9h0
				c0.4-0.7,0.9-1.1,1.7-1.1V220.6z"/>
			<path class="st2" d="M85.9,220.9v4.6c0,0.1,0,0.3,0.1,0.6h-1.6l-0.1-0.7c-0.5,0.5-1.1,0.8-2,0.8c-1,0-1.6-0.5-1.6-1.7
				c0-1.7,1.7-2.4,3.6-3V221c0-0.6-0.3-0.8-0.8-0.8c-0.5,0-0.9,0.4-0.9,0.9h-1.6c0.1-1.5,1.2-2.2,2.6-2.2
				C85.1,218.8,85.9,219.6,85.9,220.9z M83.1,224.9c0.5,0,0.8-0.3,1.2-0.7v-1.7c-0.7,0.3-2,0.8-2,1.6
				C82.3,224.6,82.6,224.9,83.1,224.9z"/>
			<path class="st2" d="M89.2,216.6v3c0.5-0.4,1-0.8,1.7-0.8c1.2,0,1.8,0.9,1.8,2.7v1.8c0,1.8-0.5,2.8-1.8,2.8c-0.6,0-1.4-0.4-1.8-1
				h0v0.9h-1.5v-9.4H89.2z M89.2,224.4c0.3,0.4,0.6,0.5,1,0.5c0.6,0,0.8-0.6,0.8-1.6v-1.7c0-1-0.3-1.6-0.8-1.6c-0.4,0-0.7,0.2-1,0.5
				V224.4z"/>
			<path class="st2" d="M95.9,216.6v9.4h-1.6v-9.4H95.9z"/>
			<path class="st2" d="M102.7,221.2v1.7h-3.6v1c0,0.6,0.4,1,1,1c0.6,0,1-0.3,1-1h1.6c-0.1,1.5-1,2.3-2.6,2.3c-1.5,0-2.6-1-2.6-2.5
				v-2.4c0-1.5,1.1-2.5,2.6-2.5C101.6,218.8,102.7,219.7,102.7,221.2z M101.1,221.5v-0.4c0-0.6-0.3-1-1-1c-0.6,0-1,0.4-1,0.9v0.5
				H101.1z"/>
		</g>
		<g class="st1">
			<path class="st2" d="M18.4,232.6v3c0.5-0.4,1-0.8,1.7-0.8c1.2,0,1.8,0.9,1.8,2.7v1.8c0,1.8-0.5,2.8-1.8,2.8c-0.6,0-1.4-0.4-1.8-1
				h0v0.9h-1.5v-9.4H18.4z M18.4,240.4c0.3,0.4,0.6,0.5,1,0.5c0.6,0,0.8-0.6,0.8-1.6v-1.7c0-1-0.3-1.6-0.8-1.6c-0.4,0-0.7,0.2-1,0.5
				V240.4z"/>
			<path class="st2" d="M28.4,237.2v1.7h-3.6v1c0,0.6,0.4,1,1,1c0.6,0,1-0.3,1-1h1.6c-0.1,1.5-1,2.3-2.6,2.3c-1.5,0-2.6-1-2.6-2.5
				v-2.4c0-1.5,1.1-2.5,2.6-2.5C27.2,234.8,28.4,235.7,28.4,237.2z M26.7,237.5v-0.4c0-0.6-0.3-1-1-1c-0.6,0-1,0.4-1,0.9v0.5H26.7z"
				/>
			<path class="st2" d="M31.4,233.3v1.9h1.1v1.3h-1.1v3.6c0,0.3,0.2,0.5,0.8,0.5c0.1,0,0.1,0,0.2,0v1.4c-0.3,0.1-0.6,0.1-0.9,0.1
				c-1.3,0-1.8-0.5-1.8-1.4v-4.2h-0.6v-1.3h0.6v-1.9H31.4z"/>
			<path class="st2" d="M34.3,234.9l0.9,4.4h0l0.9-4.4h1.4l1,4.4h0l0.9-4.4h1.5l-1.7,7.1h-1.5l-1-4.4h0L36,242h-1.5l-1.7-7.1H34.3z"
				/>
			<path class="st2" d="M47.1,237.2v1.7h-3.6v1c0,0.6,0.4,1,1,1c0.6,0,1-0.3,1-1h1.6c-0.1,1.5-1,2.3-2.6,2.3c-1.5,0-2.6-1-2.6-2.5
				v-2.4c0-1.5,1.1-2.5,2.6-2.5C46,234.8,47.1,235.7,47.1,237.2z M45.5,237.5v-0.4c0-0.6-0.3-1-1-1c-0.6,0-1,0.4-1,0.9v0.5H45.5z"/>
			<path class="st2" d="M53.6,237.2v1.7h-3.6v1c0,0.6,0.4,1,1,1c0.6,0,1-0.3,1-1h1.6c-0.1,1.5-1,2.3-2.6,2.3c-1.5,0-2.6-1-2.6-2.5
				v-2.4c0-1.5,1.1-2.5,2.6-2.5C52.5,234.8,53.6,235.7,53.6,237.2z M52,237.5v-0.4c0-0.6-0.3-1-1-1c-0.6,0-1,0.4-1,0.9v0.5H52z"/>
			<path class="st2" d="M60,236.6v5.4h-1.6v-5.2c0-0.4-0.2-0.8-0.6-0.8c-0.4,0-0.7,0.3-1.1,0.6v5.3h-1.6v-7.1h1.6v0.8
				c0.8-0.7,1.3-0.9,1.8-0.9C59.6,234.8,60,235.4,60,236.6z"/>
		</g>
		<g class="st1">
			<path class="st2" d="M21.7,248.6v1.6h-3.1v2.2H21v1.6h-2.4v2.5h3.2v1.6h-5v-9.4H21.7z"/>
			<path class="st2" d="M24.5,248.6l1.7,6.7h0l1.6-6.7h1.8l-2.4,9.4h-2l-2.4-9.4H24.5z"/>
			<path class="st2" d="M33.2,248.6c1.9,0,3.1,0.9,3.1,2.8c0,1.2-0.4,2-1.4,2.4l1.8,4.2h-1.9l-1.6-3.8h-0.9v3.8h-1.8v-9.4H33.2z
				 M33.3,252.7c0.8,0,1.2-0.4,1.2-1.3c0-0.8-0.4-1.3-1.2-1.3h-0.9v2.6H33.3z"/>
			<path class="st2" d="M42.7,248.6v1.6h-3.1v2.2h2.4v1.6h-2.4v2.5h3.2v1.6h-5v-9.4H42.7z"/>
			<path class="st2" d="M46.3,248.6l2.5,5.6h0v-5.6h1.6v9.4h-1.7l-2.7-6.1h0v6.1h-1.6v-9.4H46.3z"/>
			<path class="st2" d="M57.4,248.6v1.5l-3.5,6.3h3.6v1.6h-5.6v-1.5l3.5-6.3h-3.2v-1.6H57.4z"/>
			<path class="st2" d="M63.7,249.3c0.5,0.5,0.7,1.3,0.7,2.3v3.5c0,2-1,3.1-3,3.1c-2,0-3-1.1-3-3.1v-3.5c0-2,1-3.1,3-3.1
				C62.5,248.5,63.3,248.8,63.7,249.3z M60.3,255.3c0,0.8,0.3,1.3,1.2,1.3s1.2-0.5,1.2-1.3v-3.9c0-0.8-0.3-1.3-1.2-1.3
				c-0.8,0-1.2,0.5-1.2,1.3V255.3z"/>
			<path class="st2" d="M74.4,252.9v4.6c0,0.1,0,0.3,0.1,0.6h-1.6l-0.1-0.7c-0.5,0.5-1.1,0.8-2,0.8c-1,0-1.6-0.5-1.6-1.7
				c0-1.7,1.7-2.4,3.6-3V253c0-0.6-0.3-0.8-0.8-0.8c-0.5,0-0.9,0.4-0.9,0.9h-1.6c0.1-1.5,1.2-2.2,2.6-2.2
				C73.6,250.8,74.4,251.6,74.4,252.9z M71.5,256.9c0.5,0,0.8-0.3,1.2-0.7v-1.7c-0.7,0.3-2,0.8-2,1.6
				C70.8,256.6,71.1,256.9,71.5,256.9z"/>
			<path class="st2" d="M81,252.6v5.4h-1.6v-5.2c0-0.4-0.2-0.8-0.6-0.8c-0.4,0-0.7,0.3-1.1,0.6v5.3H76v-7.1h1.6v0.8
				c0.8-0.7,1.3-0.9,1.8-0.9C80.5,250.8,81,251.4,81,252.6z"/>
			<path class="st2" d="M87.5,248.6v9.4H86v-0.9h0c-0.3,0.5-1.1,1-1.7,1c-1.2,0-1.8-1-1.8-2.7v-1.8c0-1.8,0.6-2.8,1.8-2.8
				c0.5,0,0.9,0.2,1.6,0.8v-3H87.5z M85.8,252.5c-0.3-0.4-0.6-0.5-1-0.5c-0.6,0-0.8,0.5-0.8,1.6v1.7c0,1,0.2,1.6,0.8,1.6
				c0.4,0,0.7-0.1,1-0.5V252.5z"/>
		</g>
		<g class="st1">
			<path class="st2" d="M21.7,264.6v1.6h-3.1v2.2H21v1.6h-2.4v2.5h3.2v1.6h-5v-9.4H21.7z"/>
			<path class="st2" d="M28.9,266.8l-1.6,0.5c-0.3-0.9-0.7-1.3-1.3-1.3c-0.6,0-1,0.4-1,1c0,0.7,0.9,1.1,1.8,1.5
				c1.4,0.8,2.2,1.6,2.2,2.9c0,1.7-1.3,2.7-3,2.7c-1.6,0-2.6-0.9-3.1-2.6l1.8-0.4c0.2,1,0.7,1.5,1.4,1.5s1.1-0.5,1.1-1.1
				c0-0.9-0.9-1.3-2.2-2c-1.2-0.7-1.8-1.4-1.8-2.4c0-1.7,1.1-2.6,2.8-2.6C27.5,264.5,28.5,265.3,28.9,266.8z"/>
			<path class="st2" d="M34.5,264.6l2.3,9.4h-1.7l-0.5-2h-2.5l-0.5,2h-1.7l2.3-9.4H34.5z M33.3,266.6l-0.9,3.8h1.8L33.3,266.6
				L33.3,266.6z"/>
		</g>
		<g class="st1">
			<path class="st2" d="M39.7,264.1v5.6h-1v-4.2h-0.8v-0.6c0.5-0.1,0.8-0.2,1.2-0.8H39.7z"/>
			<path class="st2" d="M42.8,268.6v1.1l-0.5,1.1h-0.5l0.4-1.1h-0.5v-1.1H42.8z"/>
			<path class="st2" d="M47.1,265.7c0,0.9-0.7,1.6-1.4,2.3l-0.9,0.8H47v0.9h-3.5v-0.9c0.8-0.8,1.4-1.3,1.6-1.6
				c0.5-0.5,0.9-0.9,0.9-1.5c0-0.5-0.3-0.8-0.7-0.8s-0.8,0.2-0.8,0.8v0.2h-1v-0.2c0-1,0.8-1.6,1.7-1.6
				C46.4,264.1,47.1,264.6,47.1,265.7z"/>
		</g>
		<g class="st1">
			<path class="st2" d="M14.1,474.1v5.1H15v0.8h-2.8v-0.8h0.9v-4h-1v-0.7c0.5,0,1-0.1,1.3-0.4H14.1z"/>
			<path class="st2" d="M17.7,478.9v1.1h-1.1v-1.1H17.7z"/>
		</g>
		<g class="st1">
			<path class="st2" d="M23.7,474.2c1,0,1.7,0.5,1.7,1.4c0,0.7-0.3,1.1-1,1.3l0,0c0.7,0.2,1.1,0.8,1.1,1.5c0,1-0.7,1.6-2.1,1.6h-1.8
				v-5.8H23.7z M23.4,476.7c0.7,0,1.4-0.3,1.4-1c0-0.7-0.4-0.9-1.1-0.9h-1.4v1.9H23.4z M23.5,479.5c0.9,0,1.4-0.3,1.4-1
				c0-0.8-0.7-1.2-1.5-1.2h-1.1v2.2H23.5z"/>
			<path class="st2" d="M29.6,477v2.2c0,0.2,0,0.5,0.1,0.8h-0.6l-0.1-0.6c-0.4,0.4-0.9,0.7-1.4,0.7c-0.7,0-1.2-0.5-1.2-1.2
				c0-1.2,1.4-1.5,2.5-1.7V477c0-0.6-0.4-0.8-0.9-0.8c-0.5,0-0.9,0.3-1.1,0.6l-0.5-0.3c0.3-0.6,0.9-0.9,1.6-0.9
				C28.9,475.8,29.6,476.2,29.6,477z M27.7,479.6c0.4,0,1-0.3,1.3-0.7v-1.1c-0.7,0.1-2,0.4-2,1.2C27,479.3,27.4,479.6,27.7,479.6z"
				/>
			<path class="st2" d="M32.6,476.4c-0.8,0-1.1,0.5-1.4,1.3v2.3h-0.6v-4.2h0.6v0.8h0c0.3-0.6,0.7-0.9,1.3-0.9h0V476.4z"/>
			<path class="st2" d="M35.3,476.4c-0.8,0-1.1,0.5-1.4,1.3v2.3h-0.6v-4.2h0.6v0.8h0c0.3-0.6,0.7-0.9,1.3-0.9h0V476.4z"/>
			<path class="st2" d="M38.9,477v2.2c0,0.2,0,0.5,0.1,0.8h-0.6l-0.1-0.6c-0.4,0.4-0.9,0.7-1.4,0.7c-0.7,0-1.2-0.5-1.2-1.2
				c0-1.2,1.4-1.5,2.5-1.7V477c0-0.6-0.4-0.8-0.9-0.8c-0.5,0-0.9,0.3-1.1,0.6l-0.5-0.3c0.3-0.6,0.9-0.9,1.6-0.9
				C38.2,475.8,38.9,476.2,38.9,477z M37,479.6c0.4,0,1-0.3,1.3-0.7v-1.1c-0.7,0.1-2,0.4-2,1.2C36.3,479.3,36.7,479.6,37,479.6z"/>
			<path class="st2" d="M40.8,474.5v1.4h1v0.5h-1v3c0,0.2,0.1,0.3,0.5,0.3c0.2,0,0.3,0,0.5,0v0.5c-0.1,0-0.3,0.1-0.7,0.1
				c-0.6,0-0.9-0.1-0.9-0.7v-3.1h-0.7v-0.5h0.7v-1.4H40.8z"/>
			<path class="st2" d="M43.5,474.5v1.4h1v0.5h-1v3c0,0.2,0.1,0.3,0.5,0.3c0.2,0,0.3,0,0.5,0v0.5c-0.1,0-0.3,0.1-0.7,0.1
				c-0.6,0-0.9-0.1-0.9-0.7v-3.1h-0.7v-0.5h0.7v-1.4H43.5z"/>
			<path class="st2" d="M50,474.2v4.3c0,1-0.4,1.5-1.3,1.5c-0.6,0-1-0.2-1.4-0.7l0.5-0.3c0.2,0.3,0.5,0.5,0.9,0.5
				c0.5,0,0.7-0.3,0.7-0.8v-4.5H50z"/>
			<path class="st2" d="M56.8,477.6v0.4h-2.7c0,1,0.6,1.6,1.2,1.6c0.5,0,0.9-0.3,1.1-0.7l0.4,0.2c-0.4,0.7-0.9,1-1.6,1
				c-1.1,0-1.8-0.8-1.8-2.2c0-1.5,0.8-2.2,1.7-2.2C56.1,475.8,56.8,476.4,56.8,477.6z M56.2,477.5c0-0.8-0.4-1.3-1-1.3
				c-0.6,0-1,0.4-1.1,1.3H56.2z"/>
			<path class="st2" d="M58.6,474.5v1.4h1v0.5h-1v3c0,0.2,0.1,0.3,0.5,0.3c0.2,0,0.3,0,0.5,0v0.5c-0.1,0-0.3,0.1-0.7,0.1
				c-0.6,0-0.9-0.1-0.9-0.7v-3.1h-0.7v-0.5H58v-1.4H58.6z"/>
			<path class="st2" d="M65.7,477v2.2c0,0.2,0,0.5,0.1,0.8h-0.6l-0.1-0.6c-0.4,0.4-0.9,0.7-1.4,0.7c-0.7,0-1.2-0.5-1.2-1.2
				c0-1.2,1.4-1.5,2.5-1.7V477c0-0.6-0.4-0.8-0.9-0.8c-0.5,0-0.9,0.3-1.1,0.6l-0.5-0.3c0.3-0.6,0.9-0.9,1.6-0.9
				C65.1,475.8,65.7,476.2,65.7,477z M63.9,479.6c0.4,0,1-0.3,1.3-0.7v-1.1c-0.7,0.1-2,0.4-2,1.2C63.2,479.3,63.6,479.6,63.9,479.6z
				"/>
			<path class="st2" d="M67.7,474.2v5.8h-0.6v-5.8H67.7z"/>
			<path class="st2" d="M70.1,479.1v0.9h-0.8v-0.9H70.1z"/>
			<path class="st2" d="M76.3,474.2l1.8,5.8h-0.7l-0.5-1.8h-2.1l-0.5,1.8h-0.7l1.8-5.8H76.3z M75,477.6h1.8l-0.8-3h-0.1L75,477.6z"
				/>
			<path class="st2" d="M79.6,474.2v2c0.4-0.3,0.7-0.5,1.1-0.5c0.8,0,1.7,0.6,1.7,2.2c0,1.5-0.8,2.2-1.7,2.2c-0.5,0-0.9-0.2-1.2-0.5
				l-0.1,0.4H79c0-0.1,0-0.3,0-0.4v-5.4H79.6z M79.6,479c0.4,0.4,0.7,0.6,1,0.6c0.9,0,1.2-0.8,1.2-1.6c0-1.1-0.4-1.7-1.2-1.7
				c-0.3,0-0.7,0.2-1,0.6V479z"/>
			<path class="st2" d="M85.9,476.5l-0.4,0.4c-0.3-0.4-0.6-0.6-1.1-0.6c-0.5,0-0.8,0.2-0.8,0.6c0,0.3,0.3,0.5,0.9,0.7
				c0.8,0.2,1.5,0.5,1.5,1.3c0,0.8-0.7,1.2-1.5,1.2c-0.6,0-1.3-0.3-1.7-0.8l0.5-0.3c0.3,0.4,0.7,0.6,1.2,0.6c0.5,0,0.9-0.2,0.9-0.7
				c0-0.4-0.3-0.6-0.9-0.7c-0.9-0.3-1.5-0.5-1.5-1.2c0-0.8,0.6-1.2,1.3-1.2C84.9,475.8,85.6,476,85.9,476.5z"/>
			<path class="st2" d="M87.7,474.5v1.4h1v0.5h-1v3c0,0.2,0.1,0.3,0.5,0.3c0.2,0,0.3,0,0.5,0v0.5c-0.1,0-0.3,0.1-0.7,0.1
				c-0.6,0-0.9-0.1-0.9-0.7v-3.1h-0.7v-0.5h0.7v-1.4H87.7z"/>
			<path class="st2" d="M91.5,476.4c-0.8,0-1.1,0.5-1.4,1.3v2.3h-0.6v-4.2h0.6v0.8h0c0.3-0.6,0.7-0.9,1.3-0.9h0V476.4z"/>
			<path class="st2" d="M95.1,477v2.2c0,0.2,0,0.5,0.1,0.8h-0.6l-0.1-0.6c-0.4,0.4-0.9,0.7-1.4,0.7c-0.7,0-1.2-0.5-1.2-1.2
				c0-1.2,1.4-1.5,2.5-1.7V477c0-0.6-0.4-0.8-0.9-0.8c-0.5,0-0.9,0.3-1.1,0.6l-0.5-0.3c0.3-0.6,0.9-0.9,1.6-0.9
				C94.4,475.8,95.1,476.2,95.1,477z M93.2,479.6c0.4,0,1-0.3,1.3-0.7v-1.1c-0.7,0.1-2,0.4-2,1.2C92.5,479.3,92.9,479.6,93.2,479.6z
				"/>
			<path class="st2" d="M99.2,476.9l-0.5,0.2c-0.2-0.5-0.5-0.8-1-0.8c-0.9,0-1.1,0.8-1.1,1.7c0,1.1,0.4,1.7,1.1,1.7
				c0.6,0,0.8-0.2,1.1-0.8l0.5,0.2c-0.4,0.7-0.8,1.1-1.6,1.1c-1.2,0-1.7-1-1.7-2.2s0.5-2.2,1.7-2.2
				C98.4,475.8,98.8,476.1,99.2,476.9z"/>
			<path class="st2" d="M101,474.5v1.4h1v0.5h-1v3c0,0.2,0.1,0.3,0.5,0.3c0.2,0,0.3,0,0.5,0v0.5c-0.1,0-0.3,0.1-0.7,0.1
				c-0.6,0-0.9-0.1-0.9-0.7v-3.1h-0.7v-0.5h0.7v-1.4H101z"/>
			<path class="st2" d="M108.5,476.9v3.1h-0.6v-3c0-0.4-0.2-0.7-0.7-0.7c-0.4,0-0.9,0.3-1.2,0.6v3.1h-0.6v-4.2h0.6v0.6h0
				c0.4-0.4,0.8-0.6,1.2-0.6C108,475.8,108.5,476.2,108.5,476.9z"/>
			<path class="st2" d="M112.9,477.9c0,1.1-0.5,2.2-1.7,2.2s-1.7-1-1.7-2.2c0-1.1,0.5-2.2,1.7-2.2S112.9,476.8,112.9,477.9z
				 M111.2,479.6c0.8,0,1.1-0.8,1.1-1.7s-0.3-1.7-1.1-1.7c-0.8,0-1.1,0.9-1.1,1.7C110,478.7,110.3,479.6,111.2,479.6z"/>
			<path class="st2" d="M114.8,479.1v0.9H114v-0.9H114.8z"/>
			<path class="st2" d="M122.3,475.7c0,0.6-0.2,1-0.6,1.4c-0.2,0.2-0.5,0.5-1,0.8c-0.7,0.5-1.2,0.9-1.5,1.6h3.1v0.5h-3.8v-0.6
				c0.3-0.7,0.9-1.3,1.5-1.7c0.3-0.2,0.6-0.4,0.9-0.6c0.5-0.4,0.8-0.8,0.8-1.4c0-0.7-0.4-1.1-1.2-1.1c-0.7,0-1.2,0.5-1.4,1.3
				l-0.6-0.1c0.3-1.1,0.9-1.6,1.9-1.6C121.6,474.1,122.3,474.7,122.3,475.7z"/>
			<path class="st2" d="M127,475.6c0,0.6-0.3,1.1-0.9,1.3c0.7,0.3,1.1,0.8,1.1,1.5c0,1.1-0.9,1.7-2,1.7c-0.9,0-1.6-0.4-2-1.1
				l0.5-0.3c0.4,0.6,1,1,1.6,1c0.7,0,1.4-0.4,1.4-1.1c0-0.9-0.6-1.3-1.6-1.3h-0.6v-0.5h0.4c0.8,0,1.6-0.2,1.6-1.1c0-0.6-0.5-1-1.1-1
				c-0.6,0-1,0.3-1.4,0.8l-0.5-0.3c0.5-0.7,1.1-1,1.9-1C126.3,474.1,127,474.6,127,475.6z"/>
			<path class="st2" d="M132.1,474.2v0.4l-2.4,5.4H129l2.4-5.3h-2.9v-0.5H132.1z"/>
			<path class="st2" d="M137.1,476.8c0,1.6-0.7,3.3-2.4,3.3c-0.5,0-1-0.1-1.2-0.3l0.2-0.5c0.3,0.2,0.6,0.3,1,0.3
				c1.2,0,1.7-1.2,1.8-2.4c-0.5,0.5-0.9,0.7-1.6,0.7c-0.8,0-1.7-0.5-1.7-1.9c0-1.2,0.8-1.9,1.9-1.9
				C136.4,474.1,137.1,475.1,137.1,476.8z M135,477.4c0.7,0,1.2-0.4,1.5-1.1c0-0.9-0.5-1.7-1.4-1.7c-0.7,0-1.3,0.5-1.3,1.3
				C133.8,476.9,134.4,477.4,135,477.4z"/>
		</g>
		<g class="st1">
			<path class="st2" d="M15.1,485.9c0,1.7-1.1,2.2-1.7,2.2c-0.4,0-0.8-0.2-1.1-0.5v1.9h-0.6v-5.7h0.6v0.5c0.2-0.3,0.7-0.6,1.1-0.6
				C13.9,483.8,15.1,484.1,15.1,485.9z M12.3,487c0.4,0.4,0.7,0.6,1.1,0.6c0.8,0,1.2-0.6,1.2-1.7c0-1-0.4-1.6-1.2-1.6
				c-0.4,0-0.8,0.3-1,0.6V487z"/>
			<path class="st2" d="M18,484.4c-0.8,0-1.1,0.5-1.4,1.3v2.3H16v-4.2h0.6v0.8h0c0.3-0.6,0.7-0.9,1.3-0.9h0V484.4z"/>
			<path class="st2" d="M21.7,485.6v0.4H19c0,1,0.6,1.6,1.2,1.6c0.5,0,0.9-0.3,1.1-0.7l0.4,0.2c-0.4,0.7-0.9,1-1.6,1
				c-1.1,0-1.8-0.8-1.8-2.2c0-1.5,0.8-2.2,1.7-2.2C21,483.8,21.7,484.4,21.7,485.6z M21.1,485.5c0-0.8-0.4-1.3-1-1.3s-1,0.4-1.1,1.3
				H21.1z"/>
			<path class="st2" d="M25.2,484.5l-0.4,0.4c-0.3-0.4-0.6-0.6-1.1-0.6c-0.5,0-0.8,0.2-0.8,0.6c0,0.3,0.3,0.5,0.9,0.7
				c0.8,0.2,1.5,0.5,1.5,1.3c0,0.8-0.7,1.2-1.5,1.2c-0.6,0-1.3-0.3-1.7-0.8l0.5-0.3c0.3,0.4,0.7,0.6,1.2,0.6c0.5,0,0.9-0.2,0.9-0.7
				c0-0.4-0.3-0.6-0.9-0.7c-0.9-0.3-1.5-0.5-1.5-1.2c0-0.8,0.6-1.2,1.3-1.2C24.3,483.8,24.9,484,25.2,484.5z"/>
			<path class="st2" d="M29.3,485.6v0.4h-2.7c0,1,0.6,1.6,1.2,1.6c0.5,0,0.9-0.3,1.1-0.7l0.4,0.2c-0.4,0.7-0.9,1-1.6,1
				c-1.1,0-1.8-0.8-1.8-2.2c0-1.5,0.8-2.2,1.7-2.2C28.6,483.8,29.3,484.4,29.3,485.6z M28.7,485.5c0-0.8-0.4-1.3-1-1.3
				s-1,0.4-1.1,1.3H28.7z"/>
			<path class="st2" d="M33.4,484.9v3.1h-0.6v-3c0-0.4-0.2-0.7-0.7-0.7c-0.4,0-0.9,0.3-1.2,0.6v3.1h-0.6v-4.2H31v0.6h0
				c0.4-0.4,0.8-0.6,1.2-0.6C33,483.8,33.4,484.2,33.4,484.9z"/>
			<path class="st2" d="M35.5,482.5v1.4h1v0.5h-1v3c0,0.2,0.1,0.3,0.5,0.3c0.2,0,0.3,0,0.5,0v0.5c-0.1,0-0.3,0.1-0.7,0.1
				c-0.6,0-0.9-0.1-0.9-0.7v-3.1h-0.7v-0.5h0.7v-1.4H35.5z"/>
			<path class="st2" d="M40.4,485.6v0.4h-2.7c0,1,0.6,1.6,1.2,1.6c0.5,0,0.9-0.3,1.1-0.7l0.4,0.2c-0.4,0.7-0.9,1-1.6,1
				c-1.1,0-1.8-0.8-1.8-2.2c0-1.5,0.8-2.2,1.7-2.2C39.7,483.8,40.4,484.4,40.4,485.6z M39.8,485.5c0-0.8-0.4-1.3-1-1.3
				s-1,0.4-1.1,1.3H39.8z"/>
			<path class="st2" d="M44.5,482.2v5.4c0,0.1,0,0.3,0,0.4H44l-0.1-0.4c-0.2,0.3-0.6,0.5-1.1,0.5c-0.9,0-1.7-0.7-1.7-2.2
				c0-1.5,0.9-2.2,1.7-2.2c0.4,0,0.8,0.2,1.1,0.5v-2H44.5z M42.9,487.6c0.4,0,0.7-0.2,1-0.6v-2.2c-0.3-0.3-0.7-0.6-1.1-0.6
				c-0.8,0-1.2,0.6-1.2,1.7C41.7,486.8,42.1,487.6,42.9,487.6z"/>
			<path class="st2" d="M51.1,485v2.2c0,0.2,0,0.5,0.1,0.8h-0.6l-0.1-0.6c-0.4,0.4-0.9,0.7-1.4,0.7c-0.7,0-1.2-0.5-1.2-1.2
				c0-1.2,1.4-1.5,2.5-1.7V485c0-0.6-0.4-0.8-0.9-0.8c-0.5,0-0.9,0.3-1.1,0.6l-0.5-0.3c0.3-0.6,0.9-0.9,1.6-0.9
				C50.5,483.8,51.1,484.2,51.1,485z M49.3,487.6c0.4,0,1-0.3,1.3-0.7v-1.1c-0.7,0.1-2,0.4-2,1.2C48.6,487.3,48.9,487.6,49.3,487.6z
				"/>
			<path class="st2" d="M53.1,482.5v1.4h1v0.5h-1v3c0,0.2,0.1,0.3,0.5,0.3c0.2,0,0.3,0,0.5,0v0.5c-0.1,0-0.3,0.1-0.7,0.1
				c-0.6,0-0.9-0.1-0.9-0.7v-3.1h-0.7v-0.5h0.7v-1.4H53.1z"/>
			<path class="st2" d="M58.2,482.5v1.4h1v0.5h-1v3c0,0.2,0.1,0.3,0.5,0.3c0.2,0,0.3,0,0.5,0v0.5c-0.1,0-0.3,0.1-0.7,0.1
				c-0.6,0-0.9-0.1-0.9-0.7v-3.1h-0.7v-0.5h0.7v-1.4H58.2z"/>
			<path class="st2" d="M60.7,482.2v2.2h0c0.4-0.4,0.8-0.6,1.2-0.6c0.8,0,1.2,0.5,1.2,1.2v3.1h-0.6v-3c0-0.4-0.2-0.7-0.7-0.7
				c-0.4,0-0.9,0.3-1.2,0.6v3.1h-0.6v-5.8H60.7z"/>
			<path class="st2" d="M67.5,485.6v0.4h-2.7c0,1,0.6,1.6,1.2,1.6c0.5,0,0.9-0.3,1.1-0.7l0.4,0.2c-0.4,0.7-0.9,1-1.6,1
				c-1.1,0-1.8-0.8-1.8-2.2c0-1.5,0.8-2.2,1.7-2.2C66.8,483.8,67.5,484.4,67.5,485.6z M66.9,485.5c0-0.8-0.4-1.3-1-1.3
				s-1,0.4-1.1,1.3H66.9z"/>
			<path class="st2" d="M74.3,482.2v0.5h-2.5l-0.1,1.8c0.4-0.3,0.8-0.5,1.2-0.5c1,0,1.8,0.7,1.8,1.9c0,0.9-0.6,2-2,2
				c-0.8,0-1.3-0.3-1.8-1.1l0.5-0.3c0.3,0.6,0.8,0.9,1.3,0.9c0.9,0,1.4-0.6,1.4-1.5c0-0.8-0.5-1.5-1.3-1.5c-0.6,0-1,0.3-1.2,0.9
				l-0.5-0.1l0.3-3.1H74.3z"/>
			<path class="st2" d="M79.6,484.8c0,1.6-0.7,3.3-2.4,3.3c-0.5,0-1-0.1-1.2-0.3l0.2-0.5c0.3,0.2,0.6,0.3,1,0.3
				c1.2,0,1.7-1.2,1.8-2.4c-0.5,0.5-0.9,0.7-1.6,0.7c-0.8,0-1.7-0.5-1.7-1.9c0-1.2,0.8-1.9,1.9-1.9
				C78.9,482.1,79.6,483.1,79.6,484.8z M77.5,485.4c0.7,0,1.2-0.4,1.5-1.1c0-0.9-0.5-1.7-1.4-1.7c-0.7,0-1.3,0.5-1.3,1.3
				C76.3,484.9,76.9,485.4,77.5,485.4z"/>
			<path class="st2" d="M81.5,482.5v1.4h1v0.5h-1v3c0,0.2,0.1,0.3,0.5,0.3c0.2,0,0.3,0,0.5,0v0.5c-0.1,0-0.3,0.1-0.7,0.1
				c-0.6,0-0.9-0.1-0.9-0.7v-3.1h-0.7v-0.5h0.7v-1.4H81.5z"/>
			<path class="st2" d="M84,482.2v2.2h0c0.4-0.4,0.8-0.6,1.2-0.6c0.8,0,1.2,0.5,1.2,1.2v3.1h-0.6v-3c0-0.4-0.2-0.7-0.7-0.7
				c-0.4,0-0.9,0.3-1.2,0.6v3.1h-0.6v-5.8H84z"/>
			<path class="st2" d="M94,482.2v0.5h-2.8v1.9h2v0.5h-2v2.2h3v0.5h-3.6v-5.8H94z"/>
			<path class="st2" d="M97.2,482.2c1.1,0,1.9,0.5,1.9,1.5c0,0.7-0.4,1.2-1.2,1.5l1.2,2.8h-0.7l-1.2-2.6H96v2.6h-0.6v-5.8H97.2z
				 M97.2,484.8c0.8,0,1.3-0.3,1.3-1.1c0-0.7-0.4-1-1.3-1H96v2.1H97.2z"/>
			<path class="st2" d="M102.8,482.2l1.8,5.8h-0.7l-0.5-1.8h-2.1l-0.5,1.8h-0.7l1.8-5.8H102.8z M101.4,485.6h1.8l-0.8-3h-0.1
				L101.4,485.6z"/>
			<path class="st2" d="M111.7,483.8l-0.6,0.2c-0.2-0.8-0.6-1.3-1.4-1.3c-1.1,0-1.5,1.2-1.5,2.4c0,1.6,0.6,2.4,1.6,2.4
				c0.7,0,1.2-0.4,1.4-1.4l0.6,0.1c-0.3,1.2-1,1.8-2,1.8c-1.6,0-2.2-1.4-2.2-3c0-1.6,0.6-3,2.2-3
				C110.8,482.1,111.4,482.7,111.7,483.8z"/>
			<path class="st2" d="M115.8,485.9c0,1.1-0.5,2.2-1.7,2.2s-1.7-1-1.7-2.2c0-1.1,0.5-2.2,1.7-2.2S115.8,484.8,115.8,485.9z
				 M114.1,487.6c0.8,0,1.1-0.8,1.1-1.7s-0.3-1.7-1.1-1.7c-0.8,0-1.1,0.9-1.1,1.7C113,486.7,113.2,487.6,114.1,487.6z"/>
			<path class="st2" d="M119.8,484.9v3.1h-0.6v-3c0-0.4-0.2-0.7-0.7-0.7c-0.4,0-0.9,0.3-1.2,0.6v3.1h-0.6v-4.2h0.6v0.6h0
				c0.4-0.4,0.8-0.6,1.2-0.6C119.4,483.8,119.8,484.2,119.8,484.9z"/>
			<path class="st2" d="M124.4,484.3c-0.3,0-0.5,0-0.6,0.1c0.2,0.2,0.3,0.5,0.3,0.8c0,0.8-0.7,1.5-1.5,1.5c-0.3,0-0.4,0-0.7-0.1
				c-0.2,0.1-0.3,0.2-0.3,0.4c0,0.2,0.1,0.3,0.4,0.3c1.8,0,2.6,0.3,2.6,1.2c0,0.6-0.6,1.1-1.9,1.1c-1.2,0-1.8-0.3-1.8-1
				c0-0.4,0.3-0.6,0.7-0.8c-0.3-0.1-0.5-0.3-0.5-0.6c0-0.4,0.3-0.5,0.6-0.7c-0.4-0.3-0.6-0.7-0.6-1.2c0-0.9,0.7-1.5,1.6-1.5
				c0.4,0,0.8,0.1,1,0.3c0.2-0.2,0.6-0.3,0.9-0.4V484.3z M122.6,489c0.8,0,1.3-0.2,1.3-0.6c0-0.4-0.4-0.6-1.4-0.6
				c-0.6,0-1.2,0.2-1.2,0.7C121.2,488.9,121.5,489,122.6,489z M122.5,486.2c0.6,0,1-0.4,1-0.9c0-0.6-0.4-1-1.1-1c-0.6,0-1,0.4-1,1
				S121.9,486.2,122.5,486.2z"/>
			<path class="st2" d="M127,484.4c-0.8,0-1.1,0.5-1.4,1.3v2.3h-0.6v-4.2h0.6v0.8h0c0.3-0.6,0.7-0.9,1.3-0.9h0V484.4z"/>
			<path class="st2" d="M130.8,485.6v0.4h-2.7c0,1,0.6,1.6,1.2,1.6c0.5,0,0.9-0.3,1.1-0.7l0.4,0.2c-0.4,0.7-0.9,1-1.6,1
				c-1.1,0-1.8-0.8-1.8-2.2c0-1.5,0.8-2.2,1.7-2.2C130.1,483.8,130.8,484.4,130.8,485.6z M130.2,485.5c0-0.8-0.4-1.3-1-1.3
				s-1,0.4-1.1,1.3H130.2z"/>
			<path class="st2" d="M134.3,484.5l-0.4,0.4c-0.3-0.4-0.6-0.6-1.1-0.6c-0.5,0-0.8,0.2-0.8,0.6c0,0.3,0.3,0.5,0.9,0.7
				c0.8,0.2,1.5,0.5,1.5,1.3c0,0.8-0.7,1.2-1.5,1.2c-0.6,0-1.3-0.3-1.7-0.8l0.5-0.3c0.3,0.4,0.7,0.6,1.2,0.6c0.5,0,0.9-0.2,0.9-0.7
				c0-0.4-0.3-0.6-0.9-0.7c-0.9-0.3-1.5-0.5-1.5-1.2c0-0.8,0.6-1.2,1.3-1.2C133.4,483.8,134,484,134.3,484.5z"/>
			<path class="st2" d="M137.9,484.5l-0.4,0.4c-0.3-0.4-0.6-0.6-1.1-0.6c-0.5,0-0.8,0.2-0.8,0.6c0,0.3,0.3,0.5,0.9,0.7
				c0.8,0.2,1.5,0.5,1.5,1.3c0,0.8-0.7,1.2-1.5,1.2c-0.6,0-1.3-0.3-1.7-0.8l0.5-0.3c0.3,0.4,0.7,0.6,1.2,0.6c0.5,0,0.9-0.2,0.9-0.7
				c0-0.4-0.3-0.6-0.9-0.7c-0.9-0.3-1.5-0.5-1.5-1.2c0-0.8,0.6-1.2,1.3-1.2C136.9,483.8,137.6,484,137.9,484.5z"/>
			<path class="st2" d="M139.9,487.1v0.9l-0.5,1.2h-0.3l0.4-1.2h-0.3v-0.9H139.9z"/>
		</g>
		<g class="st1">
			<path class="st2" d="M13.8,490.2c1.1,0,1.8,0.5,1.8,1.6c0,1.2-1,1.6-2.1,1.6h-1v2.6h-0.6v-5.8H13.8z M13.6,492.9
				c1,0,1.4-0.3,1.4-1.1s-0.5-1.1-1.3-1.1h-1.2v2.1H13.6z"/>
			<path class="st2" d="M19.3,493v2.2c0,0.2,0,0.5,0.1,0.8h-0.6l-0.1-0.6c-0.4,0.4-0.9,0.7-1.4,0.7c-0.7,0-1.2-0.5-1.2-1.2
				c0-1.2,1.4-1.5,2.5-1.7V493c0-0.6-0.4-0.8-0.9-0.8c-0.5,0-0.9,0.3-1.1,0.6l-0.5-0.3c0.3-0.6,0.9-0.9,1.6-0.9
				C18.7,491.8,19.3,492.2,19.3,493z M17.5,495.6c0.4,0,1-0.3,1.3-0.7v-1.1c-0.7,0.1-2,0.4-2,1.2C16.8,495.3,17.2,495.6,17.5,495.6z
				"/>
			<path class="st2" d="M22.4,492.4c-0.8,0-1.1,0.5-1.4,1.3v2.3h-0.6v-4.2H21v0.8h0c0.3-0.6,0.7-0.9,1.3-0.9h0V492.4z"/>
			<path class="st2" d="M24,490.1v0.7h-0.6v-0.7H24z M24,491.8v4.2h-0.6v-4.2H24z"/>
			<path class="st2" d="M27.9,492.5l-0.4,0.4c-0.3-0.4-0.6-0.6-1.1-0.6c-0.5,0-0.8,0.2-0.8,0.6c0,0.3,0.3,0.5,0.9,0.7
				c0.8,0.2,1.5,0.5,1.5,1.3c0,0.8-0.7,1.2-1.5,1.2c-0.6,0-1.3-0.3-1.7-0.8l0.5-0.3c0.3,0.4,0.7,0.6,1.2,0.6c0.5,0,0.9-0.2,0.9-0.7
				c0-0.4-0.3-0.6-0.9-0.7c-0.9-0.3-1.5-0.5-1.5-1.2c0-0.8,0.6-1.2,1.3-1.2C27,491.8,27.6,492,27.9,492.5z"/>
			<path class="st2" d="M29.9,495.1v0.9l-0.5,1.2h-0.3l0.4-1.2h-0.3v-0.9H29.9z"/>
			<path class="st2" d="M37.4,490.2v0.5h-2.8v1.9h2.1v0.5h-2.1v2.8H34v-5.8H37.4z"/>
			<path class="st2" d="M40.2,492.4c-0.8,0-1.1,0.5-1.4,1.3v2.3h-0.6v-4.2h0.6v0.8h0c0.3-0.6,0.7-0.9,1.3-0.9h0V492.4z"/>
			<path class="st2" d="M43.8,493v2.2c0,0.2,0,0.5,0.1,0.8h-0.6l-0.1-0.6c-0.4,0.4-0.9,0.7-1.4,0.7c-0.7,0-1.2-0.5-1.2-1.2
				c0-1.2,1.4-1.5,2.5-1.7V493c0-0.6-0.4-0.8-0.9-0.8c-0.5,0-0.9,0.3-1.1,0.6l-0.5-0.3c0.3-0.6,0.9-0.9,1.6-0.9
				C43.1,491.8,43.8,492.2,43.8,493z M41.9,495.6c0.4,0,1-0.3,1.3-0.7v-1.1c-0.7,0.1-2,0.4-2,1.2C41.2,495.3,41.6,495.6,41.9,495.6z
				"/>
			<path class="st2" d="M48.1,492.9v3.1h-0.6v-3c0-0.4-0.2-0.7-0.7-0.7c-0.4,0-0.9,0.3-1.2,0.6v3.1H45v-4.2h0.6v0.6h0
				c0.4-0.4,0.8-0.6,1.2-0.6C47.6,491.8,48.1,492.2,48.1,492.9z"/>
			<path class="st2" d="M52.3,492.9l-0.5,0.2c-0.2-0.5-0.5-0.8-1-0.8c-0.9,0-1.1,0.8-1.1,1.7c0,1.1,0.4,1.7,1.1,1.7
				c0.6,0,0.8-0.2,1.1-0.8l0.5,0.2c-0.4,0.7-0.8,1.1-1.6,1.1c-1.2,0-1.7-1-1.7-2.2s0.5-2.2,1.7-2.2C51.5,491.8,52,492.1,52.3,492.9z
				"/>
			<path class="st2" d="M56.4,493.6v0.4h-2.7c0,1,0.6,1.6,1.2,1.6c0.5,0,0.9-0.3,1.1-0.7l0.4,0.2c-0.4,0.7-0.9,1-1.6,1
				c-1.1,0-1.8-0.8-1.8-2.2c0-1.5,0.8-2.2,1.7-2.2C55.7,491.8,56.4,492.4,56.4,493.6z M55.8,493.5c0-0.8-0.4-1.3-1-1.3
				s-1,0.4-1.1,1.3H55.8z"/>
			<path class="st2" d="M58.4,495.1v0.9h-0.8v-0.9H58.4z"/>
			<path class="st2" d="M64.5,490.1v5.4h1v0.5h-2.6v-0.5h1v-4.7l-1.1,0.1v-0.4c0.5-0.1,0.9-0.2,1.1-0.4H64.5z"/>
			<path class="st2" d="M70.9,492.8c0,1.6-0.7,3.3-2.4,3.3c-0.5,0-1-0.1-1.2-0.3l0.2-0.5c0.3,0.2,0.6,0.3,1,0.3
				c1.2,0,1.7-1.2,1.8-2.4c-0.5,0.5-0.9,0.7-1.6,0.7c-0.8,0-1.7-0.5-1.7-1.9c0-1.2,0.8-1.9,1.9-1.9
				C70.3,490.1,70.9,491.1,70.9,492.8z M68.8,493.4c0.7,0,1.2-0.4,1.5-1.1c0-0.9-0.5-1.7-1.4-1.7c-0.7,0-1.3,0.5-1.3,1.3
				C67.6,492.9,68.2,493.4,68.8,493.4z"/>
			<path class="st2" d="M75.4,493.7v0.4h-4v-0.4H75.4z"/>
			<path class="st2" d="M79.7,491.7c0,0.6-0.2,1-0.6,1.4c-0.2,0.2-0.5,0.5-1,0.8c-0.7,0.5-1.2,0.9-1.5,1.6h3.1v0.5H76v-0.6
				c0.3-0.7,0.9-1.3,1.5-1.7c0.3-0.2,0.6-0.4,0.9-0.6c0.5-0.4,0.8-0.8,0.8-1.4c0-0.7-0.4-1.1-1.2-1.1c-0.7,0-1.2,0.5-1.4,1.3
				l-0.6-0.1c0.3-1.1,0.9-1.6,1.9-1.6C78.9,490.1,79.7,490.7,79.7,491.7z"/>
			<path class="st2" d="M84.6,491.7c0,0.6-0.2,1-0.6,1.4c-0.2,0.2-0.5,0.5-1,0.8c-0.7,0.5-1.2,0.9-1.5,1.6h3.1v0.5h-3.8v-0.6
				c0.3-0.7,0.9-1.3,1.5-1.7c0.3-0.2,0.6-0.4,0.9-0.6c0.5-0.4,0.8-0.8,0.8-1.4c0-0.7-0.4-1.1-1.2-1.1c-0.7,0-1.2,0.5-1.4,1.3
				l-0.6-0.1c0.3-1.1,0.9-1.6,1.9-1.6C83.8,490.1,84.6,490.7,84.6,491.7z"/>
			<path class="st2" d="M89.5,490.2l1.5,4.7h0l1.4-4.7h1v5.8h-0.6v-5.4l-1.6,5.4h-0.5l-1.6-5.4v5.4h-0.6v-5.8H89.5z"/>
			<path class="st2" d="M97.8,493v2.2c0,0.2,0,0.5,0.1,0.8h-0.6l-0.1-0.6c-0.4,0.4-0.9,0.7-1.4,0.7c-0.7,0-1.2-0.5-1.2-1.2
				c0-1.2,1.4-1.5,2.5-1.7V493c0-0.6-0.4-0.8-0.9-0.8c-0.5,0-0.9,0.3-1.1,0.6l-0.5-0.3c0.3-0.6,0.9-0.9,1.6-0.9
				C97.1,491.8,97.8,492.2,97.8,493z M95.9,495.6c0.4,0,1-0.3,1.3-0.7v-1.1c-0.7,0.1-2,0.4-2,1.2C95.2,495.3,95.6,495.6,95.9,495.6z
				"/>
			<path class="st2" d="M99,491.8l1.1,3.2h0l1-3.2h0.6l-1.5,4.5c-0.3,0.8-0.7,1.2-1.4,1.2c-0.2,0-0.3,0-0.4,0V497c0.1,0,0.2,0,0.3,0
				c0.6,0,0.9-0.4,1.1-1l-1.4-4.2H99z"/>
			<path class="st2" d="M108.6,491.7c0,0.6-0.2,1-0.6,1.4c-0.2,0.2-0.5,0.5-1,0.8c-0.7,0.5-1.2,0.9-1.5,1.6h3.1v0.5h-3.8v-0.6
				c0.3-0.7,0.9-1.3,1.5-1.7c0.3-0.2,0.6-0.4,0.9-0.6c0.5-0.4,0.8-0.8,0.8-1.4c0-0.7-0.4-1.1-1.2-1.1s-1.2,0.5-1.4,1.3l-0.6-0.1
				c0.3-1.1,0.9-1.6,1.9-1.6C107.8,490.1,108.6,490.7,108.6,491.7z"/>
			<path class="st2" d="M113.7,493.1c0,2-0.7,3-2,3c-1.3,0-2-1-2-3c0-2,0.7-3,2-3C113,490.1,113.7,491.2,113.7,493.1z M111.6,495.6
				c1,0,1.4-0.8,1.4-2.5c0-1.7-0.4-2.5-1.4-2.5c-1,0-1.4,0.8-1.4,2.5C110.2,494.8,110.7,495.6,111.6,495.6z"/>
			<path class="st2" d="M118.4,491.7c0,0.6-0.2,1-0.6,1.4c-0.2,0.2-0.5,0.5-1,0.8c-0.7,0.5-1.2,0.9-1.5,1.6h3.1v0.5h-3.8v-0.6
				c0.3-0.7,0.9-1.3,1.5-1.7c0.3-0.2,0.6-0.4,0.9-0.6c0.5-0.4,0.8-0.8,0.8-1.4c0-0.7-0.4-1.1-1.2-1.1c-0.7,0-1.2,0.5-1.4,1.3
				l-0.6-0.1c0.3-1.1,0.9-1.6,1.9-1.6C117.6,490.1,118.4,490.7,118.4,491.7z"/>
			<path class="st2" d="M123.2,491.7c0,0.6-0.2,1-0.6,1.4c-0.2,0.2-0.5,0.5-1,0.8c-0.7,0.5-1.2,0.9-1.5,1.6h3.1v0.5h-3.8v-0.6
				c0.3-0.7,0.9-1.3,1.5-1.7c0.3-0.2,0.6-0.4,0.9-0.6c0.5-0.4,0.8-0.8,0.8-1.4c0-0.7-0.4-1.1-1.2-1.1s-1.2,0.5-1.4,1.3l-0.6-0.1
				c0.3-1.1,0.9-1.6,1.9-1.6C122.5,490.1,123.2,490.7,123.2,491.7z"/>
			<path class="st2" d="M125.5,495.1v0.9h-0.8v-0.9H125.5z"/>
		</g>
		<g class="st1">
			<path class="st2" d="M15.3,499.8c0,0.6-0.3,1.1-0.7,1.6c-0.4,0.4-1.6,1.3-2,1.7h2.7v0.9h-3.9v-1c0.1-0.3,0.4-0.7,1.2-1.3
				c1.4-1.1,1.6-1.5,1.6-1.9c0-0.5-0.3-0.8-0.9-0.8c-0.5,0-0.9,0.3-1,0.9l-0.9-0.2c0.1-0.9,1-1.6,2-1.6
				C14.5,498.1,15.3,498.8,15.3,499.8z"/>
			<path class="st2" d="M17.7,502.9v1.1h-1.1v-1.1H17.7z"/>
		</g>
		<g class="st1">
			<path class="st2" d="M25.1,498.2v0.5h-2.8v1.9h2v0.5h-2v2.2h3v0.5h-3.6v-5.8H25.1z"/>
			<path class="st2" d="M26.4,498.2l1.4,4.7h0l1.4-4.7H30l-1.8,5.8h-0.6l-1.8-5.8H26.4z"/>
			<path class="st2" d="M32.8,498.2c1.1,0,1.9,0.5,1.9,1.5c0,0.7-0.4,1.2-1.2,1.5l1.2,2.8h-0.7l-1.2-2.6h-1.4v2.6h-0.6v-5.8H32.8z
				 M32.7,500.8c0.8,0,1.3-0.3,1.3-1.1c0-0.7-0.4-1-1.3-1h-1.2v2.1H32.7z"/>
			<path class="st2" d="M39.8,498.2v0.5h-2.8v1.9h2v0.5h-2v2.2h3v0.5h-3.6v-5.8H39.8z"/>
			<path class="st2" d="M42.1,498.2l2.5,4.4h0v-4.4h0.6v5.8h-0.5l-2.9-5.1h0v5.1h-0.6v-5.8H42.1z"/>
			<path class="st2" d="M50.2,498.2v0.4l-2.9,4.8h3v0.5h-3.7v-0.5l2.9-4.8h-2.6v-0.5H50.2z"/>
			<path class="st2" d="M55.5,501.1c0,1.6-0.6,3-2.3,3s-2.3-1.4-2.3-3c0-1.6,0.6-3,2.3-3C54.9,498.1,55.5,499.5,55.5,501.1z
				 M53.2,503.5c1,0,1.6-0.8,1.6-2.4c0-1.6-0.6-2.4-1.6-2.4c-1,0-1.6,0.8-1.6,2.4C51.6,502.7,52.2,503.5,53.2,503.5z"/>
			<path class="st2" d="M62.5,499.6l-0.6,0.1c-0.2-0.6-0.7-1-1.3-1c-0.7,0-1.1,0.3-1.1,0.9c0,0.5,0.5,0.7,1.1,1
				c1.1,0.4,2.1,0.7,2.1,1.8c0,1.2-0.8,1.7-1.9,1.7c-1,0-1.6-0.5-2.1-1.5l0.6-0.2c0.3,0.8,0.8,1.2,1.5,1.2c0.7,0,1.3-0.3,1.3-1
				c0-0.7-0.7-1-1.6-1.3c-1-0.4-1.7-0.7-1.7-1.6c0-0.9,0.8-1.5,1.7-1.5C61.5,498.1,62.2,498.7,62.5,499.6z"/>
			<path class="st2" d="M68.1,499.8c0.8,0,1.1,0.4,1.1,1.2v3h-0.6v-3c0-0.5-0.2-0.7-0.6-0.7c-0.5,0-0.8,0.3-1.2,0.6v3.1h-0.6v-3
				c0-0.5-0.2-0.7-0.6-0.7c-0.5,0-0.8,0.3-1.2,0.6v3.1h-0.6v-4.2h0.6v0.6c0.4-0.4,0.8-0.6,1.2-0.6c0.5,0,0.9,0.3,1.1,0.7
				C67.1,500,67.6,499.8,68.1,499.8z"/>
			<path class="st2" d="M72.7,498.2c1.1,0,1.8,0.5,1.8,1.6c0,1.2-1,1.6-2.1,1.6h-1v2.6h-0.6v-5.8H72.7z M72.4,500.9
				c1,0,1.4-0.3,1.4-1.1s-0.5-1.1-1.3-1.1h-1.2v2.1H72.4z"/>
			<path class="st2" d="M79.3,499.8l-0.6,0.2c-0.2-0.8-0.6-1.3-1.4-1.3c-1.1,0-1.5,1.2-1.5,2.4c0,1.6,0.6,2.4,1.6,2.4
				c0.7,0,1.2-0.4,1.4-1.4l0.6,0.1c-0.3,1.2-1,1.8-2,1.8c-1.6,0-2.2-1.4-2.2-3c0-1.6,0.6-3,2.2-3C78.3,498.1,79,498.7,79.3,499.8z"
				/>
			<path class="st2" d="M81.3,503.1v0.9h-0.8v-0.9H81.3z"/>
		</g>
		<g class="st1">
			<path class="st2" d="M15.5,517.8l-0.6,0.2c-0.2-0.8-0.6-1.3-1.4-1.3c-1.1,0-1.5,1.2-1.5,2.4c0,1.6,0.6,2.4,1.6,2.4
				c0.7,0,1.2-0.4,1.4-1.4l0.6,0.1c-0.3,1.2-1,1.8-2,1.8c-1.6,0-2.2-1.4-2.2-3c0-1.6,0.6-3,2.2-3C14.6,516.1,15.2,516.7,15.5,517.8z
				"/>
			<path class="st2" d="M16.7,516.2l1.4,4.7h0l1.4-4.7h0.6l-1.8,5.8h-0.6l-1.8-5.8H16.7z"/>
			<path class="st2" d="M21.1,521.1v0.9l-0.5,1.2h-0.3l0.4-1.2h-0.3v-0.9H21.1z"/>
			<path class="st2" d="M27.9,518.9l-0.5,0.2c-0.2-0.5-0.5-0.8-1-0.8c-0.9,0-1.1,0.8-1.1,1.7c0,1.1,0.4,1.7,1.1,1.7
				c0.6,0,0.8-0.2,1.1-0.8L28,521c-0.4,0.7-0.8,1.1-1.6,1.1c-1.2,0-1.7-1-1.7-2.2s0.5-2.2,1.7-2.2C27.1,517.8,27.6,518.1,27.9,518.9
				z"/>
			<path class="st2" d="M31.8,519v2.2c0,0.2,0,0.5,0.1,0.8h-0.6l-0.1-0.6c-0.4,0.4-0.9,0.7-1.4,0.7c-0.7,0-1.2-0.5-1.2-1.2
				c0-1.2,1.4-1.5,2.5-1.7V519c0-0.6-0.4-0.8-0.9-0.8c-0.5,0-0.9,0.3-1.1,0.6l-0.5-0.3c0.3-0.6,0.9-0.9,1.6-0.9
				C31.1,517.8,31.8,518.2,31.8,519z M29.9,521.6c0.4,0,1-0.3,1.3-0.7v-1.1c-0.7,0.1-2,0.4-2,1.2C29.2,521.3,29.6,521.6,29.9,521.6z
				"/>
			<path class="st2" d="M34.8,518.4c-0.8,0-1.1,0.5-1.4,1.3v2.3h-0.6v-4.2h0.6v0.8h0c0.3-0.6,0.7-0.9,1.3-0.9h0V518.4z"/>
			<path class="st2" d="M38.7,516.2v5.4c0,0.1,0,0.3,0,0.4h-0.5l-0.1-0.4c-0.2,0.3-0.6,0.5-1.1,0.5c-0.9,0-1.7-0.7-1.7-2.2
				c0-1.5,0.9-2.2,1.7-2.2c0.4,0,0.8,0.2,1.1,0.5v-2H38.7z M37.1,521.6c0.4,0,0.7-0.2,1-0.6v-2.2c-0.3-0.3-0.7-0.6-1.1-0.6
				c-0.8,0-1.2,0.6-1.2,1.7C35.9,520.8,36.3,521.6,37.1,521.6z"/>
			<path class="st2" d="M40.8,516.1v0.7h-0.6v-0.7H40.8z M40.8,517.8v4.2h-0.6v-4.2H40.8z"/>
			<path class="st2" d="M45.4,519.9c0,1.1-0.5,2.2-1.7,2.2s-1.7-1-1.7-2.2c0-1.1,0.5-2.2,1.7-2.2S45.4,518.8,45.4,519.9z
				 M43.7,521.6c0.8,0,1.1-0.8,1.1-1.7s-0.3-1.7-1.1-1.7c-0.8,0-1.1,0.9-1.1,1.7C42.5,520.7,42.8,521.6,43.7,521.6z"/>
			<path class="st2" d="M46.4,517.8l1.1,3.4h0l1.1-3.4h0.6l-1.2,4.2h-0.8l-1.3-4.2H46.4z"/>
			<path class="st2" d="M52.7,519v2.2c0,0.2,0,0.5,0.1,0.8h-0.6l-0.1-0.6c-0.4,0.4-0.9,0.7-1.4,0.7c-0.7,0-1.2-0.5-1.2-1.2
				c0-1.2,1.4-1.5,2.5-1.7V519c0-0.6-0.4-0.8-0.9-0.8c-0.5,0-0.9,0.3-1.1,0.6l-0.5-0.3c0.3-0.6,0.9-0.9,1.6-0.9
				C52,517.8,52.7,518.2,52.7,519z M50.8,521.6c0.4,0,1-0.3,1.3-0.7v-1.1c-0.7,0.1-2,0.4-2,1.2C50.1,521.3,50.5,521.6,50.8,521.6z"
				/>
			<path class="st2" d="M56.3,518.5l-0.4,0.4c-0.3-0.4-0.6-0.6-1.1-0.6c-0.5,0-0.8,0.2-0.8,0.6c0,0.3,0.3,0.5,0.9,0.7
				c0.8,0.2,1.5,0.5,1.5,1.3c0,0.8-0.7,1.2-1.5,1.2c-0.6,0-1.3-0.3-1.7-0.8l0.5-0.3c0.3,0.4,0.7,0.6,1.2,0.6c0.5,0,0.9-0.2,0.9-0.7
				c0-0.4-0.3-0.6-0.9-0.7c-0.9-0.3-1.5-0.5-1.5-1.2c0-0.8,0.6-1.2,1.3-1.2C55.4,517.8,56,518,56.3,518.5z"/>
			<path class="st2" d="M60.3,518.9l-0.5,0.2c-0.2-0.5-0.5-0.8-1-0.8c-0.9,0-1.1,0.8-1.1,1.7c0,1.1,0.4,1.7,1.1,1.7
				c0.6,0,0.8-0.2,1.1-0.8l0.5,0.2c-0.4,0.7-0.8,1.1-1.6,1.1c-1.2,0-1.7-1-1.7-2.2s0.5-2.2,1.7-2.2C59.5,517.8,60,518.1,60.3,518.9z
				"/>
			<path class="st2" d="M62.1,517.8v3c0,0.4,0.2,0.7,0.7,0.7c0.4,0,0.9-0.3,1.2-0.6v-3.1h0.6v4.2h-0.6v-0.6h0
				c-0.4,0.4-0.8,0.6-1.2,0.6c-0.7,0-1.2-0.5-1.2-1.2v-3H62.1z"/>
			<path class="st2" d="M66.6,516.2v5.8H66v-5.8H66.6z"/>
			<path class="st2" d="M70.9,519v2.2c0,0.2,0,0.5,0.1,0.8h-0.6l-0.1-0.6c-0.4,0.4-0.9,0.7-1.4,0.7c-0.7,0-1.2-0.5-1.2-1.2
				c0-1.2,1.4-1.5,2.5-1.7V519c0-0.6-0.4-0.8-0.9-0.8c-0.5,0-0.9,0.3-1.1,0.6l-0.5-0.3c0.3-0.6,0.9-0.9,1.6-0.9
				C70.3,517.8,70.9,518.2,70.9,519z M69,521.6c0.4,0,1-0.3,1.3-0.7v-1.1c-0.7,0.1-2,0.4-2,1.2C68.4,521.3,68.7,521.6,69,521.6z"/>
			<path class="st2" d="M73.9,518.4c-0.8,0-1.1,0.5-1.4,1.3v2.3H72v-4.2h0.6v0.8h0c0.3-0.6,0.7-0.9,1.3-0.9h0V518.4z"/>
			<path class="st2" d="M75.7,521.1v0.9l-0.5,1.2h-0.3l0.4-1.2h-0.3v-0.9H75.7z M75.7,518.8v0.9h-0.8v-0.9H75.7z"/>
			<path class="st2" d="M83.3,516.2v0.5h-2.8v1.9h2v0.5h-2v2.2h3v0.5h-3.6v-5.8H83.3z"/>
			<path class="st2" d="M88,517.6l-0.6,0.1c-0.2-0.6-0.7-1-1.3-1c-0.7,0-1.1,0.3-1.1,0.9c0,0.5,0.5,0.7,1.1,1
				c1.1,0.4,2.1,0.7,2.1,1.8c0,1.2-0.8,1.7-1.9,1.7c-1,0-1.6-0.5-2.1-1.5l0.6-0.2c0.3,0.8,0.8,1.2,1.5,1.2c0.7,0,1.3-0.3,1.3-1
				c0-0.7-0.7-1-1.6-1.3c-1-0.4-1.7-0.7-1.7-1.6c0-0.9,0.8-1.5,1.7-1.5C87.1,516.1,87.7,516.7,88,517.6z"/>
			<path class="st2" d="M91.7,516.2l1.8,5.8h-0.7l-0.5-1.8h-2.1l-0.5,1.8H89l1.8-5.8H91.7z M90.3,519.6h1.8l-0.8-3h-0.1L90.3,519.6z
				"/>
			<path class="st2" d="M95.3,521.1v0.9l-0.5,1.2h-0.3l0.4-1.2h-0.3v-0.9H95.3z"/>
		</g>
		<g class="st1">
			<path class="st2" d="M14.6,527.6v0.4h-2.7c0,1,0.6,1.6,1.2,1.6c0.5,0,0.9-0.3,1.1-0.7l0.4,0.2c-0.4,0.7-0.9,1-1.6,1
				c-1.1,0-1.8-0.8-1.8-2.2c0-1.5,0.8-2.2,1.7-2.2C13.9,525.8,14.6,526.4,14.6,527.6z M14,527.5c0-0.8-0.4-1.3-1-1.3s-1,0.4-1.1,1.3
				H14z"/>
			<path class="st2" d="M17.5,526.4c-0.8,0-1.1,0.5-1.4,1.3v2.3h-0.6v-4.2h0.6v0.8h0c0.3-0.6,0.7-0.9,1.3-0.9h0V526.4z"/>
			<path class="st2" d="M18.4,525.8l1.1,3.2h0l1-3.2h0.6l-1.5,4.5c-0.3,0.8-0.7,1.2-1.4,1.2c-0.2,0-0.3,0-0.4,0V531
				c0.1,0,0.2,0,0.3,0c0.6,0,0.9-0.4,1.1-1l-1.4-4.2H18.4z"/>
			<path class="st2" d="M22.6,524.5v1.4h1v0.5h-1v3c0,0.2,0.1,0.3,0.5,0.3c0.2,0,0.3,0,0.5,0v0.5c-0.1,0-0.3,0.1-0.7,0.1
				c-0.6,0-0.9-0.1-0.9-0.7v-3.1h-0.7v-0.5H22v-1.4H22.6z"/>
			<path class="st2" d="M25.2,524.2v2.2h0c0.4-0.4,0.8-0.6,1.2-0.6c0.8,0,1.2,0.5,1.2,1.2v3.1H27v-3c0-0.4-0.2-0.7-0.7-0.7
				c-0.4,0-0.9,0.3-1.2,0.6v3.1h-0.6v-5.8H25.2z"/>
			<path class="st2" d="M30.8,526.4c-0.8,0-1.1,0.5-1.4,1.3v2.3h-0.6v-4.2h0.6v0.8h0c0.3-0.6,0.7-0.9,1.3-0.9h0V526.4z"/>
			<path class="st2" d="M34.7,527.9c0,1.1-0.5,2.2-1.7,2.2s-1.7-1-1.7-2.2c0-1.1,0.5-2.2,1.7-2.2S34.7,526.8,34.7,527.9z M33,529.6
				c0.8,0,1.1-0.8,1.1-1.7s-0.3-1.7-1.1-1.7c-0.8,0-1.1,0.9-1.1,1.7C31.9,528.7,32.2,529.6,33,529.6z"/>
			<path class="st2" d="M39.1,527.9c0,1.7-1.1,2.2-1.7,2.2c-0.4,0-0.8-0.2-1.1-0.5v1.9h-0.6v-5.7h0.6v0.5c0.2-0.3,0.7-0.6,1.1-0.6
				C37.9,525.8,39.1,526.1,39.1,527.9z M36.3,529c0.4,0.4,0.7,0.6,1.1,0.6c0.8,0,1.2-0.6,1.2-1.7c0-1-0.4-1.6-1.2-1.6
				c-0.4,0-0.8,0.3-1,0.6V529z"/>
			<path class="st2" d="M43.1,527.9c0,1.1-0.5,2.2-1.7,2.2s-1.7-1-1.7-2.2c0-1.1,0.5-2.2,1.7-2.2S43.1,526.8,43.1,527.9z
				 M41.4,529.6c0.8,0,1.1-0.8,1.1-1.7s-0.3-1.7-1.1-1.7c-0.8,0-1.1,0.9-1.1,1.7C40.3,528.7,40.6,529.6,41.4,529.6z"/>
			<path class="st2" d="M44.8,524.1v0.7h-0.6v-0.7H44.8z M44.8,525.8v4.2h-0.6v-4.2H44.8z"/>
			<path class="st2" d="M49.3,527.6v0.4h-2.7c0,1,0.6,1.6,1.2,1.6c0.5,0,0.9-0.3,1.1-0.7l0.4,0.2c-0.4,0.7-0.9,1-1.6,1
				c-1.1,0-1.8-0.8-1.8-2.2c0-1.5,0.8-2.2,1.7-2.2C48.6,525.8,49.3,526.4,49.3,527.6z M48.7,527.5c0-0.8-0.4-1.3-1-1.3
				s-1,0.4-1.1,1.3H48.7z"/>
			<path class="st2" d="M52.8,526.5l-0.4,0.4c-0.3-0.4-0.6-0.6-1.1-0.6c-0.5,0-0.8,0.2-0.8,0.6c0,0.3,0.3,0.5,0.9,0.7
				c0.8,0.2,1.5,0.5,1.5,1.3c0,0.8-0.7,1.2-1.5,1.2c-0.6,0-1.3-0.3-1.7-0.8l0.5-0.3c0.3,0.4,0.7,0.6,1.2,0.6c0.5,0,0.9-0.2,0.9-0.7
				c0-0.4-0.3-0.6-0.9-0.7c-0.9-0.3-1.5-0.5-1.5-1.2c0-0.8,0.6-1.2,1.3-1.2C51.9,525.8,52.5,526,52.8,526.5z"/>
			<path class="st2" d="M54.6,524.1v0.7H54v-0.7H54.6z M54.6,525.8v4.2H54v-4.2H54.6z"/>
			<path class="st2" d="M58.6,526.5l-0.4,0.4c-0.3-0.4-0.6-0.6-1.1-0.6c-0.5,0-0.8,0.2-0.8,0.6c0,0.3,0.3,0.5,0.9,0.7
				c0.8,0.2,1.5,0.5,1.5,1.3c0,0.8-0.7,1.2-1.5,1.2c-0.6,0-1.3-0.3-1.7-0.8l0.5-0.3c0.3,0.4,0.7,0.6,1.2,0.6c0.5,0,0.9-0.2,0.9-0.7
				c0-0.4-0.3-0.6-0.9-0.7c-0.9-0.3-1.5-0.5-1.5-1.2c0-0.8,0.6-1.2,1.3-1.2C57.6,525.8,58.3,526,58.6,526.5z"/>
			<path class="st2" d="M61.3,527.7v0.5h-2v-0.5H61.3z"/>
			<path class="st2" d="M64.8,526.5l-0.4,0.4c-0.3-0.4-0.6-0.6-1.1-0.6c-0.5,0-0.8,0.2-0.8,0.6c0,0.3,0.3,0.5,0.9,0.7
				c0.8,0.2,1.5,0.5,1.5,1.3c0,0.8-0.7,1.2-1.5,1.2c-0.6,0-1.3-0.3-1.7-0.8l0.5-0.3c0.3,0.4,0.7,0.6,1.2,0.6c0.5,0,0.9-0.2,0.9-0.7
				c0-0.4-0.3-0.6-0.9-0.7c-0.9-0.3-1.5-0.5-1.5-1.2c0-0.8,0.6-1.2,1.3-1.2C63.9,525.8,64.5,526,64.8,526.5z"/>
			<path class="st2" d="M66.6,524.5v1.4h1v0.5h-1v3c0,0.2,0.1,0.3,0.5,0.3c0.2,0,0.3,0,0.5,0v0.5c-0.1,0-0.3,0.1-0.7,0.1
				c-0.6,0-0.9-0.1-0.9-0.7v-3.1h-0.7v-0.5H66v-1.4H66.6z"/>
			<path class="st2" d="M69.3,524.1v0.7h-0.6v-0.7H69.3z M69.3,525.8v4.2h-0.6v-4.2H69.3z"/>
			<path class="st2" d="M74.9,525.8c0.8,0,1.1,0.4,1.1,1.2v3h-0.6v-3c0-0.5-0.2-0.7-0.6-0.7c-0.5,0-0.8,0.3-1.2,0.6v3.1h-0.6v-3
				c0-0.5-0.2-0.7-0.6-0.7c-0.5,0-0.8,0.3-1.2,0.6v3.1h-0.6v-4.2h0.6v0.6c0.4-0.4,0.8-0.6,1.2-0.6c0.5,0,0.9,0.3,1.1,0.7
				C74,526,74.5,525.8,74.9,525.8z"/>
			<path class="st2" d="M78,525.8v3c0,0.4,0.2,0.7,0.7,0.7c0.4,0,0.9-0.3,1.2-0.6v-3.1h0.6v4.2h-0.6v-0.6h0
				c-0.4,0.4-0.8,0.6-1.2,0.6c-0.7,0-1.2-0.5-1.2-1.2v-3H78z"/>
			<path class="st2" d="M82.6,524.2v5.8H82v-5.8H82.6z"/>
			<path class="st2" d="M86.9,527v2.2c0,0.2,0,0.5,0.1,0.8h-0.6l-0.1-0.6c-0.4,0.4-0.9,0.7-1.4,0.7c-0.7,0-1.2-0.5-1.2-1.2
				c0-1.2,1.4-1.5,2.5-1.7V527c0-0.6-0.4-0.8-0.9-0.8c-0.5,0-0.9,0.3-1.1,0.6l-0.5-0.3c0.3-0.6,0.9-0.9,1.6-0.9
				C86.2,525.8,86.9,526.2,86.9,527z M85,529.6c0.4,0,1-0.3,1.3-0.7v-1.1c-0.7,0.1-2,0.4-2,1.2C84.3,529.3,84.7,529.6,85,529.6z"/>
			<path class="st2" d="M88.8,524.5v1.4h1v0.5h-1v3c0,0.2,0.1,0.3,0.5,0.3c0.2,0,0.3,0,0.5,0v0.5c-0.1,0-0.3,0.1-0.7,0.1
				c-0.6,0-0.9-0.1-0.9-0.7v-3.1h-0.7v-0.5h0.7v-1.4H88.8z"/>
			<path class="st2" d="M91.5,524.1v0.7h-0.6v-0.7H91.5z M91.5,525.8v4.2h-0.6v-4.2H91.5z"/>
			<path class="st2" d="M96.1,526.9v3.1h-0.6v-3c0-0.4-0.2-0.7-0.7-0.7c-0.4,0-0.9,0.3-1.2,0.6v3.1H93v-4.2h0.6v0.6h0
				c0.4-0.4,0.8-0.6,1.2-0.6C95.6,525.8,96.1,526.2,96.1,526.9z"/>
			<path class="st2" d="M100.6,526.3c-0.3,0-0.5,0-0.6,0.1c0.2,0.2,0.3,0.5,0.3,0.8c0,0.8-0.7,1.5-1.5,1.5c-0.3,0-0.4,0-0.7-0.1
				c-0.2,0.1-0.3,0.2-0.3,0.4c0,0.2,0.1,0.3,0.4,0.3c1.8,0,2.6,0.3,2.6,1.2c0,0.6-0.6,1.1-1.9,1.1c-1.2,0-1.8-0.3-1.8-1
				c0-0.4,0.3-0.6,0.7-0.8c-0.3-0.1-0.5-0.3-0.5-0.6c0-0.4,0.3-0.5,0.6-0.7c-0.4-0.3-0.6-0.7-0.6-1.2c0-0.9,0.7-1.5,1.6-1.5
				c0.4,0,0.8,0.1,1,0.3c0.2-0.2,0.6-0.3,0.9-0.4V526.3z M98.8,531c0.8,0,1.3-0.2,1.3-0.6c0-0.4-0.4-0.6-1.4-0.6
				c-0.6,0-1.2,0.2-1.2,0.7C97.5,530.9,97.7,531,98.8,531z M98.7,528.2c0.6,0,1-0.4,1-0.9c0-0.6-0.4-1-1.1-1c-0.6,0-1,0.4-1,1
				S98.1,528.2,98.7,528.2z"/>
			<path class="st2" d="M106.7,527v2.2c0,0.2,0,0.5,0.1,0.8h-0.6l-0.1-0.6c-0.4,0.4-0.9,0.7-1.4,0.7c-0.7,0-1.2-0.5-1.2-1.2
				c0-1.2,1.4-1.5,2.5-1.7V527c0-0.6-0.4-0.8-0.9-0.8c-0.5,0-0.9,0.3-1.1,0.6l-0.5-0.3c0.3-0.6,0.9-0.9,1.6-0.9
				C106,525.8,106.7,526.2,106.7,527z M104.8,529.6c0.4,0,1-0.3,1.3-0.7v-1.1c-0.7,0.1-2,0.4-2,1.2
				C104.1,529.3,104.5,529.6,104.8,529.6z"/>
			<path class="st2" d="M111,526.3c-0.3,0-0.5,0-0.6,0.1c0.2,0.2,0.3,0.5,0.3,0.8c0,0.8-0.7,1.5-1.5,1.5c-0.3,0-0.4,0-0.7-0.1
				c-0.2,0.1-0.3,0.2-0.3,0.4c0,0.2,0.1,0.3,0.4,0.3c1.8,0,2.6,0.3,2.6,1.2c0,0.6-0.6,1.1-1.9,1.1c-1.2,0-1.8-0.3-1.8-1
				c0-0.4,0.3-0.6,0.7-0.8c-0.3-0.1-0.5-0.3-0.5-0.6c0-0.4,0.3-0.5,0.6-0.7c-0.4-0.3-0.6-0.7-0.6-1.2c0-0.9,0.7-1.5,1.6-1.5
				c0.4,0,0.8,0.1,1,0.3c0.2-0.2,0.6-0.3,0.9-0.4V526.3z M109.2,531c0.8,0,1.3-0.2,1.3-0.6c0-0.4-0.4-0.6-1.4-0.6
				c-0.6,0-1.2,0.2-1.2,0.7C107.9,530.9,108.2,531,109.2,531z M109.2,528.2c0.6,0,1-0.4,1-0.9c0-0.6-0.4-1-1.1-1c-0.6,0-1,0.4-1,1
				S108.6,528.2,109.2,528.2z"/>
			<path class="st2" d="M114.8,527.6v0.4h-2.7c0,1,0.6,1.6,1.2,1.6c0.5,0,0.9-0.3,1.1-0.7l0.4,0.2c-0.4,0.7-0.9,1-1.6,1
				c-1.1,0-1.8-0.8-1.8-2.2c0-1.5,0.8-2.2,1.7-2.2C114.1,525.8,114.8,526.4,114.8,527.6z M114.2,527.5c0-0.8-0.4-1.3-1-1.3
				c-0.6,0-1,0.4-1.1,1.3H114.2z"/>
			<path class="st2" d="M118.9,526.9v3.1h-0.6v-3c0-0.4-0.2-0.7-0.7-0.7c-0.4,0-0.9,0.3-1.2,0.6v3.1h-0.6v-4.2h0.6v0.6h0
				c0.4-0.4,0.8-0.6,1.2-0.6C118.5,525.8,118.9,526.2,118.9,526.9z"/>
			<path class="st2" d="M121.1,524.5v1.4h1v0.5h-1v3c0,0.2,0.1,0.3,0.5,0.3c0.2,0,0.3,0,0.5,0v0.5c-0.1,0-0.3,0.1-0.7,0.1
				c-0.6,0-0.9-0.1-0.9-0.7v-3.1h-0.7v-0.5h0.7v-1.4H121.1z"/>
		</g>
		<g class="st1">
			<path class="st2" d="M15.3,532.2v0.9h-2.6v1.4h1.9v0.9h-1.9v2.5h-1.1v-5.8H15.3z"/>
			<path class="st2" d="M19.3,535.9c0,1.3-0.7,2.2-1.8,2.2c-1.1,0-1.8-0.8-1.8-2.2c0-1.3,0.7-2.2,1.8-2.2S19.3,534.6,19.3,535.9z
				 M17.4,537.3c0.5,0,0.8-0.4,0.8-1.4c0-0.9-0.3-1.4-0.8-1.4c-0.6,0-0.8,0.5-0.8,1.4C16.6,536.9,16.9,537.3,17.4,537.3z"/>
			<path class="st2" d="M22,534.8c0,0-0.1,0-0.2,0c-0.5,0-0.9,0.5-0.9,0.7v2.5h-1v-4.2h0.9v0.7h0c0.2-0.5,0.6-0.8,1.2-0.8V534.8z"/>
			<path class="st2" d="M26.3,532.2v2.3h2.2v-2.3h1.1v5.8h-1.1v-2.5h-2.2v2.5h-1.1v-5.8H26.3z"/>
			<path class="st2" d="M34,535.6v0.4h-2.5c0,0.8,0.3,1.2,0.9,1.2c0.4,0,0.6-0.1,0.9-0.5l0.7,0.4c-0.4,0.6-0.9,0.8-1.7,0.8
				c-1.1,0-1.8-0.8-1.8-2.2s0.7-2.2,1.8-2.2C33.5,533.8,34,534.8,34,535.6z M33.1,535.4c0-0.6-0.3-0.9-0.8-0.9
				c-0.5,0-0.8,0.3-0.8,0.9H33.1z"/>
			<path class="st2" d="M37.8,535.4v2c0,0.1,0,0.4,0.1,0.6h-1l-0.1-0.4c-0.4,0.3-0.8,0.4-1.3,0.4c-0.7,0-1.1-0.5-1.1-1.1
				c0-0.9,0.8-1.4,2.4-1.6V535c0-0.3-0.3-0.5-0.6-0.5c-0.3,0-0.6,0.2-0.9,0.5l-0.6-0.5c0.3-0.4,0.9-0.8,1.5-0.8
				C37.4,533.8,37.8,534.2,37.8,535.4z M35.9,537.3c0.3,0,0.6-0.2,0.9-0.4V536c-1.1,0.2-1.4,0.5-1.4,0.8
				C35.5,537.2,35.7,537.3,35.9,537.3z"/>
			<path class="st2" d="M39.9,532.2v5.8h-1v-5.8H39.9z"/>
			<path class="st2" d="M42.2,532.5v1.4H43v0.8h-0.8v2.4c0,0.2,0.1,0.3,0.4,0.3c0.2,0,0.3,0,0.5-0.1v0.8c-0.3,0-0.5,0.1-0.8,0.1
				c-0.7,0-1-0.3-1-1v-2.5h-0.6v-0.8h0.6v-1.4H42.2z"/>
			<path class="st2" d="M44.7,532.2v2.1c0.4-0.4,0.8-0.5,1.2-0.5c0.8,0,1.2,0.5,1.2,1.4v2.9h-1v-2.7c0-0.5-0.1-0.7-0.5-0.7
				c-0.3,0-0.7,0.2-0.9,0.4v3h-1v-5.8H44.7z"/>
			<path class="st2" d="M51.3,534.9l-0.8,0.3c-0.2-0.5-0.4-0.6-0.8-0.6c-0.6,0-0.8,0.4-0.8,1.4c0,0.9,0.3,1.4,0.8,1.4
				c0.4,0,0.6-0.2,0.9-0.7l0.8,0.4c-0.4,0.7-0.9,1-1.6,1c-1.2,0-1.8-0.8-1.8-2.2c0-1.3,0.7-2.2,1.8-2.2
				C50.4,533.8,51.1,534.2,51.3,534.9z"/>
			<path class="st2" d="M55.2,535.4v2c0,0.1,0,0.4,0.1,0.6h-1l-0.1-0.4c-0.4,0.3-0.8,0.4-1.3,0.4c-0.7,0-1.1-0.5-1.1-1.1
				c0-0.9,0.8-1.4,2.4-1.6V535c0-0.3-0.3-0.5-0.6-0.5c-0.3,0-0.6,0.2-0.9,0.5l-0.6-0.5c0.3-0.4,0.9-0.8,1.5-0.8
				C54.7,533.8,55.2,534.2,55.2,535.4z M53.3,537.3c0.3,0,0.6-0.2,0.9-0.4V536c-1.1,0.2-1.4,0.5-1.4,0.8
				C52.8,537.2,53,537.3,53.3,537.3z"/>
			<path class="st2" d="M58.2,534.8c0,0-0.1,0-0.2,0c-0.5,0-0.9,0.5-0.9,0.7v2.5h-1v-4.2H57v0.7h0c0.2-0.5,0.6-0.8,1.2-0.8V534.8z"
				/>
			<path class="st2" d="M62,535.6v0.4h-2.5c0,0.8,0.3,1.2,0.9,1.2c0.4,0,0.6-0.1,0.9-0.5l0.7,0.4c-0.4,0.6-0.9,0.8-1.7,0.8
				c-1.1,0-1.8-0.8-1.8-2.2s0.7-2.2,1.8-2.2C61.5,533.8,62,534.8,62,535.6z M61.1,535.4c0-0.6-0.3-0.9-0.8-0.9
				c-0.5,0-0.8,0.3-0.8,0.9H61.1z"/>
			<path class="st2" d="M67.4,532.2c1.3,0,2,0.6,2,1.7s-0.7,1.7-2,1.7h-1v2.3h-1.1v-5.8H67.4z M67.3,534.8c0.7,0,1-0.2,1-0.8
				s-0.4-0.8-1-0.8h-0.9v1.6H67.3z"/>
			<path class="st2" d="M72.2,534.8c0,0-0.1,0-0.2,0c-0.5,0-0.9,0.5-0.9,0.7v2.5h-1v-4.2H71v0.7h0c0.2-0.5,0.6-0.8,1.2-0.8V534.8z"
				/>
			<path class="st2" d="M76.1,535.9c0,1.3-0.7,2.2-1.8,2.2c-1.1,0-1.8-0.8-1.8-2.2c0-1.3,0.7-2.2,1.8-2.2S76.1,534.6,76.1,535.9z
				 M74.3,537.3c0.5,0,0.8-0.4,0.8-1.4c0-0.9-0.3-1.4-0.8-1.4c-0.6,0-0.8,0.5-0.8,1.4C73.5,536.9,73.8,537.3,74.3,537.3z"/>
			<path class="st2" d="M78.8,532.1v0.8h-0.2c-0.5,0-0.6,0.2-0.6,0.5v0.4h0.8v0.8H78v3.4h-1v-3.4h-0.6v-0.8H77v-0.5
				c0-0.8,0.3-1.2,1.1-1.2H78.8z"/>
			<path class="st2" d="M82.7,535.6v0.4h-2.5c0,0.8,0.3,1.2,0.9,1.2c0.4,0,0.6-0.1,0.9-0.5l0.7,0.4c-0.4,0.6-0.9,0.8-1.7,0.8
				c-1.1,0-1.8-0.8-1.8-2.2s0.7-2.2,1.8-2.2C82.1,533.8,82.7,534.8,82.7,535.6z M81.8,535.4c0-0.6-0.3-0.9-0.8-0.9
				c-0.5,0-0.8,0.3-0.8,0.9H81.8z"/>
			<path class="st2" d="M86.1,534.4l-0.6,0.5c-0.3-0.3-0.5-0.4-0.8-0.4c-0.4,0-0.6,0.2-0.6,0.4c0,0.2,0.2,0.4,0.7,0.6
				c1,0.3,1.3,0.7,1.3,1.4c0,0.8-0.6,1.2-1.5,1.2c-0.7,0-1.2-0.3-1.6-0.8l0.7-0.5c0.3,0.4,0.6,0.6,1,0.6c0.4,0,0.6-0.2,0.6-0.5
				c0-0.2-0.2-0.4-0.8-0.6c-1-0.3-1.3-0.7-1.3-1.3c0-0.7,0.6-1.2,1.4-1.2C85.2,533.8,85.8,534,86.1,534.4z"/>
			<path class="st2" d="M89.7,534.4l-0.6,0.5c-0.3-0.3-0.5-0.4-0.8-0.4c-0.4,0-0.6,0.2-0.6,0.4c0,0.2,0.2,0.4,0.7,0.6
				c1,0.3,1.3,0.7,1.3,1.4c0,0.8-0.6,1.2-1.5,1.2c-0.7,0-1.2-0.3-1.6-0.8l0.7-0.5c0.3,0.4,0.6,0.6,1,0.6s0.6-0.2,0.6-0.5
				c0-0.2-0.2-0.4-0.8-0.6c-1-0.3-1.3-0.7-1.3-1.3c0-0.7,0.6-1.2,1.4-1.2C88.8,533.8,89.3,534,89.7,534.4z"/>
			<path class="st2" d="M91.7,532.1v0.9h-1v-0.9H91.7z M91.7,533.8v4.2h-1v-4.2H91.7z"/>
			<path class="st2" d="M96.1,535.9c0,1.3-0.7,2.2-1.8,2.2c-1.1,0-1.8-0.8-1.8-2.2c0-1.3,0.7-2.2,1.8-2.2S96.1,534.6,96.1,535.9z
				 M94.3,537.3c0.5,0,0.8-0.4,0.8-1.4c0-0.9-0.3-1.4-0.8-1.4c-0.6,0-0.8,0.5-0.8,1.4C93.5,536.9,93.8,537.3,94.3,537.3z"/>
			<path class="st2" d="M100.2,535.1v2.9h-1v-2.7c0-0.5-0.1-0.7-0.5-0.7c-0.3,0-0.7,0.2-0.9,0.4v3h-1v-4.2h0.9v0.4
				c0.5-0.4,0.9-0.5,1.3-0.5C99.8,533.8,100.2,534.3,100.2,535.1z"/>
			<path class="st2" d="M104.3,535.4v2c0,0.1,0,0.4,0.1,0.6h-1l-0.1-0.4c-0.4,0.3-0.8,0.4-1.3,0.4c-0.7,0-1.1-0.5-1.1-1.1
				c0-0.9,0.8-1.4,2.4-1.6V535c0-0.3-0.3-0.5-0.6-0.5c-0.3,0-0.6,0.2-0.9,0.5l-0.6-0.5c0.3-0.4,0.9-0.8,1.5-0.8
				C103.8,533.8,104.3,534.2,104.3,535.4z M102.4,537.3c0.3,0,0.6-0.2,0.9-0.4V536c-1.1,0.2-1.4,0.5-1.4,0.8
				C101.9,537.2,102.1,537.3,102.4,537.3z"/>
			<path class="st2" d="M106.4,532.2v5.8h-1v-5.8H106.4z"/>
			<path class="st2" d="M110.1,534.4l-0.6,0.5c-0.3-0.3-0.5-0.4-0.8-0.4c-0.4,0-0.6,0.2-0.6,0.4c0,0.2,0.2,0.4,0.7,0.6
				c1,0.3,1.3,0.7,1.3,1.4c0,0.8-0.6,1.2-1.5,1.2c-0.7,0-1.2-0.3-1.6-0.8l0.7-0.5c0.3,0.4,0.6,0.6,1,0.6c0.4,0,0.6-0.2,0.6-0.5
				c0-0.2-0.2-0.4-0.8-0.6c-1-0.3-1.3-0.7-1.3-1.3c0-0.7,0.6-1.2,1.4-1.2C109.2,533.8,109.8,534,110.1,534.4z"/>
			<path class="st2" d="M118.1,535.1c0,1.9-0.9,3-2.4,3s-2.4-1.1-2.4-3c0-1.9,0.9-3,2.4-3S118.1,533.2,118.1,535.1z M115.6,537.2
				c0.9,0,1.3-0.7,1.3-2c0-1.4-0.4-2-1.3-2c-0.9,0-1.3,0.6-1.3,2.1C114.3,536.5,114.7,537.2,115.6,537.2z"/>
			<path class="st2" d="M122.2,535.1v2.9h-1v-2.7c0-0.5-0.1-0.7-0.5-0.7c-0.3,0-0.7,0.2-0.9,0.4v3h-1v-4.2h0.9v0.4
				c0.5-0.4,0.9-0.5,1.3-0.5C121.8,533.8,122.2,534.3,122.2,535.1z"/>
			<path class="st2" d="M124.4,532.2v5.8h-1v-5.8H124.4z"/>
			<path class="st2" d="M126.1,533.8l0.7,2.6h0l0.7-2.6h1l-1.3,4.2c-0.1,0.2-0.2,0.5-0.4,0.8c-0.3,0.5-0.7,0.7-1.2,0.7
				c-0.2,0-0.3,0-0.5,0v-0.8c0.1,0,0.3,0,0.5,0c0.2,0,0.4,0,0.5-0.2c0.1-0.1,0.3-0.4,0.3-0.6c0-0.1,0-0.1,0-0.2l-1.2-3.9H126.1z"/>
		</g>
		<g id="Layer_1_00000156550375272236805960000009674560554511112594_" transform="translate(-10 6.278)">
			<g id="Group_11" transform="translate(23.5 21.808)">
				<path id="Path_80" class="st3" d="M13.3,31.9h1.5V34h0.1c0.8-1.5,1.7-2.3,3.5-2.3v1.5c-1.9,0.1-2.8,1.3-3.5,3.4v5.9h-1.5
					L13.3,31.9L13.3,31.9z"/>
				<path id="Path_81" class="st3" d="M23.1,42.8c-2.9,0-4.4-2.4-4.4-5.5s1.5-5.5,4.4-5.5s4.4,2.4,4.4,5.5
					C27.4,40.3,26,42.8,23.1,42.8 M23.1,32.9c-1.7,0-2.9,1.5-2.9,4.3s1.1,4.3,2.9,4.3c1.7,0,2.9-1.5,2.9-4.3
					C26,34.5,24.8,32.9,23.1,32.9"/>
				<path id="Path_82" class="st3" d="M32,35.7l2.3-3.8h1.6l-3,5.1l3.5,5.6h-1.7L32,38.2l-2.6,4.4h-1.6l3.3-5.6L28,31.9h1.7L32,35.7
					z"/>
				<path id="Path_83" class="st3" d="M37.1,33.9c0.8-1.4,2.3-2.3,4-2.2c1.8,0,3.7,0.8,3.7,3.2v5.4c-0.1,0.8,0,1.6,0.3,2.3h-1.5
					l-0.1-1.5c-0.9,1-2.2,1.6-3.6,1.7c-1.5,0.1-2.9-1-3.1-2.6c0-0.1,0-0.3,0-0.4c0-2.4,1.8-3.5,6.6-4.3V35c0-1.4-0.9-2-2.2-2
					c-1.2-0.1-2.3,0.6-2.7,1.7L37.1,33.9z M43.3,36.8c-3.4,0.6-5,1.6-5,3.1c0.1,0.9,0.8,1.6,1.7,1.7c1.3-0.1,2.5-0.8,3.3-1.7V36.8z"
					/>
				<path id="Path_84" class="st3" d="M55.1,27.7v12.5c0,0.8,0,1.6,0.1,2.4h-1.3l-0.2-1c-0.7,0.8-1.7,1.3-2.8,1.3
					c-1.9,0-4.4-1.3-4.4-5.5c0-4.1,2.5-5.5,4.3-5.5c1,0,2,0.5,2.8,1.2l0.1,0.1v-5.2h1.5L55.1,27.7z M53.6,34.4
					c-0.7-0.8-1.6-1.4-2.7-1.5c-1.7,0-3,1.1-3,4.3c0,2.7,1.2,4.2,3,4.2c1,0,1.7-0.4,2.7-1.5V34.4z"/>
				<path id="Path_85" class="st3" d="M64.3,42.6v-1.5h-0.1c-0.8,1-1.9,1.6-3.1,1.7c-1.6,0.1-2.9-1-3.1-2.6c0-0.2,0-0.4,0-0.6v-7.7
					h1.5v7.7c0,1.4,0.7,1.9,1.7,1.9c1.2-0.2,2.3-0.7,3.1-1.6v-8h1.5v10.7H64.3z"/>
				<path id="Path_86" class="st3" d="M68.5,39.8c0.7,1,1.8,1.7,3.1,1.7c1.6,0,2.3-0.8,2.3-1.7c0-2.7-6.4-1.3-6.2-5.2
					c0.1-1.8,1.5-2.9,3.6-2.9c1.4,0,2.8,0.7,3.6,1.9l-1,0.9c-0.6-0.9-1.6-1.4-2.7-1.5c-1.3,0-2,0.6-2,1.6c0,2.3,6.2,1.1,6.2,5.1
					c0,2.1-1.8,3.1-3.8,3.1c-1.7,0-3.2-0.7-4.3-2L68.5,39.8z"/>
				<path id="Path_87" class="st3" d="M77.4,31.9v-3.5h1.5v3.5h2.4v1.3h-2.4v7.6c0,0.5,0.3,0.8,1.2,0.8c0.5,0,0.9-0.1,1.3-0.1v1.2
					c-0.6,0.1-1.2,0.2-1.7,0.1c-1.6,0-2.3-0.4-2.3-1.7v-7.9h-1.7v-1.3H77.4z"/>
				<path id="Path_88" class="st3" d="M82.5,33.9c0.8-1.4,2.3-2.3,4-2.2c1.8,0,3.7,0.8,3.7,3.2v5.4c-0.1,0.8,0,1.6,0.3,2.3H89
					l-0.1-1.5c-0.9,1-2.2,1.6-3.6,1.7c-1.5,0.1-2.9-1-3.1-2.6c0-0.1,0-0.3,0-0.4c0-2.4,1.8-3.5,6.6-4.3V35c0-1.4-0.9-2-2.2-2
					c-1.2-0.1-2.3,0.6-2.7,1.7L82.5,33.9z M88.8,36.8c-3.4,0.6-5,1.6-5,3.1c0.1,0.9,0.8,1.6,1.7,1.7c1.3-0.1,2.5-0.8,3.3-1.7V36.8z"
					/>
				<path id="Path_89" class="st3" d="M93,31.9v-3.5h1.5v3.5h2.4v1.3h-2.4v7.6c0,0.5,0.3,0.8,1.2,0.8c0.5,0,0.9-0.1,1.3-0.1v1.2
					c-0.6,0.1-1.2,0.2-1.7,0.1c-1.6,0-2.3-0.4-2.3-1.7v-7.9h-1.7v-1.3H93z"/>
				<path id="Path_90" class="st4" d="M113.3,11.1l13.5-5.7c2.7,1.7,4.5,4,5,6.3L113.3,11.1z"/>
				<path id="Path_91" class="st3" d="M108.4,0h-0.1c-6.4,0-4.7,3.4-2.7,7L108.4,0z"/>
				<path id="Path_92" class="st5" d="M125.3,4.5c-2.4-1.3-5-2.3-7.6-3.1l-7.2,7.7L125.3,4.5z"/>
				<path id="Path_93" class="st3" d="M107.5,9.4L116,1c-2.2-0.5-4.5-0.9-6.8-1L107.5,9.4z"/>
				<path id="Path_94" class="st5" d="M117.9,23.2c2.7-0.7,5.3-1.8,7.7-3.2l-15.2-4.9L117.9,23.2z"/>
				<path id="Path_95" class="st4" d="M113.3,13.3l14,6c2.6-2,4.3-4.3,4.6-6.5L113.3,13.3z"/>
				<path id="Path_96" class="st3" d="M105.6,17.3c-2,3.7-3.9,7.4,2.6,7.4h0.4L105.6,17.3z"/>
				<path id="Path_97" class="st3" d="M109.3,24.7c2.4-0.1,4.7-0.5,7-1l-8.7-8.7L109.3,24.7z"/>
				<path id="Path_98" class="st6" d="M0,24.4v-22h12.6v3.2H3.8v5.7h7.7v3.2H3.8v6.6h9.4v3.2L0,24.4z"/>
				<path id="Path_99" class="st6" d="M24.4,8h3.4l-5.2,16.4h-3.3L14.1,8h3.5l3.3,11.6H21L24.4,8z"/>
				<path id="Path_100" class="st6" d="M30.4,24.4V8h3.2v1.7h0.1c1.4-1.1,2.4-2,4.3-2l0.3,3.4c-0.4,0-0.7-0.1-1.1-0.1
					c-1.3,0.1-2.5,0.5-3.5,1.2v12.2L30.4,24.4L30.4,24.4z"/>
				<path id="Path_101" class="st6" d="M52.5,17.2h-9v2.4c0,1.8,1,2.4,2.8,2.4c1.7,0,2.9-0.3,2.9-2.4l3.3,0.3
					c-0.1,3.6-2.8,4.8-6.2,4.8c-3.8,0-6.2-1.4-6.2-5.2V13c0-3.8,2.3-5.3,6.2-5.3c3.8,0,6.2,1.5,6.2,5.3L52.5,17.2z M49.1,14.4V13
					c0-1.8-1-2.5-2.8-2.5s-2.8,0.7-2.8,2.5v1.4H49.1z"/>
				<path id="Path_102" class="st6" d="M56,24.4V8h3.2v1.6h0.1c1.2-1.1,2.8-1.8,4.5-1.9c2.9,0,4,1.8,4,4.7v12h-3.4V13.3
					c0-1.6-0.4-2.5-2-2.5c-1.2,0.1-2.3,0.7-3.1,1.5v12.2H56V24.4z"/>
				<path id="Path_103" class="st6" d="M70.5,10.8V8h11.8v2.8l-8,10.6v0.2h8.2v2.8H70.2v-2.8l8-10.7v-0.1H70.5z"/>
				<path id="Path_104" class="st6" d="M84.4,12.8c0-3.8,2.4-5.2,6.2-5.2s6.3,1.3,6.3,5.2v6.6c0,3.8-2.3,5.2-6.3,5.2
					s-6.2-1.5-6.2-5.2V12.8z M87.8,19.5c0,1.8,1,2.4,2.9,2.4s2.9-0.6,2.9-2.4v-6.6c0-1.8-1-2.4-2.9-2.4s-2.9,0.6-2.9,2.4V19.5z"/>
				<path id="Path_105" class="st6" d="M98.1,8.2h-0.7V7.7h2v0.4h-0.7v2h-0.6V8.2z"/>
				<path id="Path_106" class="st6" d="M99.6,7.7h0.8l0.6,1.6l0,0l0.6-1.6h0.7v2.4h-0.5V8.4l0,0l-0.6,1.7h-0.4l-0.6-1.7l0,0v1.7
					h-0.5V7.7z"/>
			</g>
			<path id="Polygon_1" d="M157,27.6l-5.4-9.7h11L157,27.6z"/>
		</g>
		<g id="_1px-Border">
			<rect y="0" class="st7" width="160" height="600"/>
			<rect x="0.5" y="0.5" class="st8" width="159" height="599"/>
		</g>
		<g class="st1">
			<path class="st2" d="M15.3,570.2v0.5h-2.8v1.9h2v0.5h-2v2.2h3v0.5h-3.6v-5.8H15.3z"/>
			<path class="st2" d="M16.7,570.2l1.4,4.7h0l1.4-4.7h0.6l-1.8,5.8h-0.6l-1.8-5.8H16.7z"/>
			<path class="st2" d="M24.4,570.2v0.4l-2.9,4.8h3v0.5h-3.7v-0.5l2.9-4.8H21v-0.5H24.4z"/>
			<path class="st2" d="M28.8,576.6v0.4h-4v-0.4H28.8z"/>
			<path class="st2" d="M33.1,571.7c0,0.6-0.2,1-0.6,1.4c-0.2,0.2-0.5,0.5-1,0.8c-0.7,0.5-1.2,0.9-1.5,1.6h3.1v0.5h-3.8v-0.6
				c0.3-0.7,0.9-1.3,1.5-1.7c0.3-0.2,0.6-0.4,0.9-0.6c0.5-0.4,0.8-0.8,0.8-1.4c0-0.7-0.4-1.1-1.2-1.1c-0.7,0-1.2,0.5-1.4,1.3
				l-0.6-0.1c0.3-1.1,0.9-1.6,1.9-1.6C32.3,570.1,33.1,570.7,33.1,571.7z"/>
			<path class="st2" d="M38.1,573.1c0,2-0.7,3-2,3c-1.3,0-2-1-2-3c0-2,0.7-3,2-3C37.5,570.1,38.1,571.2,38.1,573.1z M36.1,575.6
				c1,0,1.4-0.8,1.4-2.5c0-1.7-0.4-2.5-1.4-2.5c-1,0-1.4,0.8-1.4,2.5C34.7,574.8,35.1,575.6,36.1,575.6z"/>
			<path class="st2" d="M42.8,571.7c0,0.6-0.2,1-0.6,1.4c-0.2,0.2-0.5,0.5-1,0.8c-0.7,0.5-1.2,0.9-1.5,1.6h3.1v0.5h-3.8v-0.6
				c0.3-0.7,0.9-1.3,1.5-1.7c0.3-0.2,0.6-0.4,0.9-0.6c0.5-0.4,0.8-0.8,0.8-1.4c0-0.7-0.4-1.1-1.2-1.1c-0.7,0-1.2,0.5-1.4,1.3
				l-0.6-0.1c0.3-1.1,0.9-1.6,1.9-1.6C42.1,570.1,42.8,570.7,42.8,571.7z"/>
			<path class="st2" d="M47.7,571.7c0,0.6-0.2,1-0.6,1.4c-0.2,0.2-0.5,0.5-1,0.8c-0.7,0.5-1.2,0.9-1.5,1.6h3.1v0.5H44v-0.6
				c0.3-0.7,0.9-1.3,1.5-1.7c0.3-0.2,0.6-0.4,0.9-0.6c0.5-0.4,0.8-0.8,0.8-1.4c0-0.7-0.4-1.1-1.2-1.1c-0.7,0-1.2,0.5-1.4,1.3
				l-0.6-0.1c0.3-1.1,0.9-1.6,1.9-1.6C47,570.1,47.7,570.7,47.7,571.7z"/>
			<path class="st2" d="M52.3,576.6v0.4h-4v-0.4H52.3z"/>
			<path class="st2" d="M56.8,573.1c0,2-0.7,3-2,3c-1.3,0-2-1-2-3c0-2,0.7-3,2-3C56.1,570.1,56.8,571.2,56.8,573.1z M54.8,575.6
				c1,0,1.4-0.8,1.4-2.5c0-1.7-0.4-2.5-1.4-2.5c-1,0-1.4,0.8-1.4,2.5C53.3,574.8,53.8,575.6,54.8,575.6z"/>
			<path class="st2" d="M61.5,571.7c0,0.6-0.2,1-0.6,1.4c-0.2,0.2-0.5,0.5-1,0.8c-0.7,0.5-1.2,0.9-1.5,1.6h3.1v0.5h-3.8v-0.6
				c0.3-0.7,0.9-1.3,1.5-1.7c0.3-0.2,0.6-0.4,0.9-0.6c0.5-0.4,0.8-0.8,0.8-1.4c0-0.7-0.4-1.1-1.2-1.1c-0.7,0-1.2,0.5-1.4,1.3
				l-0.6-0.1c0.3-1.1,0.9-1.6,1.9-1.6C60.7,570.1,61.5,570.7,61.5,571.7z"/>
			<path class="st2" d="M66.4,570.2v0.4l-2.4,5.4h-0.7l2.4-5.3h-2.9v-0.5H66.4z"/>
			<path class="st2" d="M71.1,571.6c0,0.6-0.3,1.1-0.9,1.3c0.7,0.3,1.1,0.8,1.1,1.5c0,1.1-0.9,1.7-2,1.7c-0.9,0-1.6-0.4-2-1.1
				l0.5-0.3c0.4,0.6,1,1,1.6,1c0.7,0,1.4-0.4,1.4-1.1c0-0.9-0.6-1.3-1.6-1.3h-0.6v-0.5h0.4c0.8,0,1.6-0.2,1.6-1.1c0-0.6-0.5-1-1.1-1
				c-0.6,0-1,0.3-1.4,0.8l-0.5-0.3c0.5-0.7,1.1-1,1.9-1C70.4,570.1,71.1,570.6,71.1,571.6z"/>
			<path class="st2" d="M75.9,576.6v0.4h-4v-0.4H75.9z"/>
			<path class="st2" d="M77.4,570.2v4.1c0,0.8,0.6,1.2,1.4,1.2c0.8,0,1.4-0.5,1.4-1.2v-4.1h0.6v4c0,1.1-0.8,1.8-2,1.8
				c-1.2,0-2-0.7-2-1.8v-4H77.4z"/>
			<path class="st2" d="M83.2,570.2v3l2.4-3h0.8l-1.8,2.2l2,3.6h-0.7l-1.7-3.1l-0.9,1.1v1.9h-0.6v-5.8H83.2z"/>
		</g>
		<g class="st1">
			<path class="st2" d="M12.8,579.2l2.5,4.4h0v-4.4h0.6v5.8h-0.5l-2.9-5.1h0v5.1h-0.6v-5.8H12.8z"/>
			<path class="st2" d="M21.7,582.1c0,1.6-0.6,3-2.3,3s-2.3-1.4-2.3-3c0-1.6,0.6-3,2.3-3C21.1,579.1,21.7,580.5,21.7,582.1z
				 M19.4,584.5c1,0,1.6-0.8,1.6-2.4c0-1.6-0.6-2.4-1.6-2.4c-1,0-1.6,0.8-1.6,2.4C17.8,583.7,18.4,584.5,19.4,584.5z"/>
			<path class="st2" d="M22.9,579.2l1.4,4.7h0l1.4-4.7h0.6l-1.8,5.8H24l-1.8-5.8H22.9z"/>
			<path class="st2" d="M30.9,579.2v0.5h-2.8v1.9h2v0.5h-2v2.2h3v0.5h-3.6v-5.8H30.9z"/>
			<path class="st2" d="M33.3,579.2l1.5,4.7h0l1.4-4.7h1v5.8h-0.6v-5.4L35,585h-0.5l-1.6-5.4v5.4h-0.6v-5.8H33.3z"/>
			<path class="st2" d="M41,579.2c1,0,1.7,0.5,1.7,1.4c0,0.7-0.3,1.1-1,1.3l0,0c0.7,0.2,1.1,0.8,1.1,1.5c0,1-0.7,1.6-2.1,1.6H39
				v-5.8H41z M40.7,581.7c0.7,0,1.4-0.3,1.4-1c0-0.7-0.4-0.9-1.1-0.9h-1.4v1.9H40.7z M40.8,584.5c0.9,0,1.4-0.3,1.4-1
				c0-0.8-0.7-1.2-1.5-1.2h-1.1v2.2H40.8z"/>
			<path class="st2" d="M47.8,579.2v0.5H45v1.9h2v0.5h-2v2.2h3v0.5h-3.6v-5.8H47.8z"/>
			<path class="st2" d="M51,579.2c1.1,0,1.9,0.5,1.9,1.5c0,0.7-0.4,1.2-1.2,1.5L53,585h-0.7l-1.2-2.6h-1.4v2.6h-0.6v-5.8H51z
				 M51,581.8c0.8,0,1.3-0.3,1.3-1.1c0-0.7-0.4-1-1.3-1h-1.2v2.1H51z"/>
			<path class="st2" d="M60.4,580.7c0,0.6-0.2,1-0.6,1.4c-0.2,0.2-0.5,0.5-1,0.8c-0.7,0.5-1.2,0.9-1.5,1.6h3.1v0.5h-3.8v-0.6
				c0.3-0.7,0.9-1.3,1.5-1.7c0.3-0.2,0.6-0.4,0.9-0.6c0.5-0.4,0.8-0.8,0.8-1.4c0-0.7-0.4-1.1-1.2-1.1c-0.7,0-1.2,0.5-1.4,1.3
				l-0.6-0.1c0.3-1.1,0.9-1.6,1.9-1.6C59.6,579.1,60.4,579.7,60.4,580.7z"/>
			<path class="st2" d="M65.5,582.1c0,2-0.7,3-2,3c-1.3,0-2-1-2-3c0-2,0.7-3,2-3C64.8,579.1,65.5,580.2,65.5,582.1z M63.4,584.6
				c1,0,1.4-0.8,1.4-2.5c0-1.7-0.4-2.5-1.4-2.5c-1,0-1.4,0.8-1.4,2.5C62,583.8,62.5,584.6,63.4,584.6z"/>
			<path class="st2" d="M70.2,580.7c0,0.6-0.2,1-0.6,1.4c-0.2,0.2-0.5,0.5-1,0.8c-0.7,0.5-1.2,0.9-1.5,1.6h3.1v0.5h-3.8v-0.6
				c0.3-0.7,0.9-1.3,1.5-1.7c0.3-0.2,0.6-0.4,0.9-0.6c0.5-0.4,0.8-0.8,0.8-1.4c0-0.7-0.4-1.1-1.2-1.1c-0.7,0-1.2,0.5-1.4,1.3
				l-0.6-0.1c0.3-1.1,0.9-1.6,1.9-1.6C69.4,579.1,70.2,579.7,70.2,580.7z"/>
			<path class="st2" d="M75.1,580.7c0,0.6-0.2,1-0.6,1.4c-0.2,0.2-0.5,0.5-1,0.8c-0.7,0.5-1.2,0.9-1.5,1.6h3.1v0.5h-3.8v-0.6
				c0.3-0.7,0.9-1.3,1.5-1.7c0.3-0.2,0.6-0.4,0.9-0.6c0.5-0.4,0.8-0.8,0.8-1.4c0-0.7-0.4-1.1-1.2-1.1c-0.7,0-1.2,0.5-1.4,1.3
				l-0.6-0.1c0.3-1.1,0.9-1.6,1.9-1.6C74.3,579.1,75.1,579.7,75.1,580.7z"/>
		</g>
	</g>
</g>
</svg>
