<?xml version="1.0" encoding="utf-8"?>
<!-- Generator: Adobe Illustrator 27.0.0, SVG Export Plug-In . SVG Version: 6.00 Build 0)  -->
<svg version="1.1" id="Layer_1" xmlns="http://www.w3.org/2000/svg" xmlns:xlink="http://www.w3.org/1999/xlink" x="0px" y="0px"
	 viewBox="0 0 160 600" style="enable-background:new 0 0 160 600;" xml:space="preserve">
<style type="text/css">
	.st0{clip-path:url(#SVGID_00000011717809928140690260000004704885959637872536_);}
	.st1{fill:#FFFFFF;}
	.st2{fill:#007A33;}
	.st3{font-family:'TradeGothicLTStd-Bold';}
	.st4{font-size:15px;}
	.st5{font-size:8.75px;}
	.st6{font-family:'TradeGothicLTStd-Bd2';}
	.st7{font-size:10px;}
	.st8{fill:#43B02A;}
	.st9{fill:#4D4D4F;}
	.st10{font-size:8px;}
	.st11{font-family:'TradeGothicLTStd';}
	.st12{fill:#AD1AAC;}
	.st13{fill:#4EC3E0;}
	.st14{fill:none;}
	.st15{fill:none;stroke:#BBBCBC;}
</style>
<g>
	<defs>
		<rect id="SVGID_1_" y="0" width="160" height="600"/>
	</defs>
	<clipPath id="SVGID_00000032606201142609950810000011960889087013772442_">
		<use xlink:href="#SVGID_1_"  style="overflow:visible;"/>
	</clipPath>
	<g id="Skyscraper_160x600_1" style="clip-path:url(#SVGID_00000032606201142609950810000011960889087013772442_);">
		<rect y="0" class="st1" width="160" height="600"/>
		<rect id="Green-bg" y="0" class="st2" width="160" height="419"/>
		<text transform="matrix(1 0 0 1 14 34)" class="st1 st3 st4">EVRENZO: the </text>
		<text transform="matrix(1 0 0 1 14 50)" class="st1 st3 st4">convenience of </text>
		<text transform="matrix(1 0 0 1 14 66)" class="st1 st3 st4">an oral tablet</text>
		<text transform="matrix(1 0 0 1 96.5149 61.0005)" class="st1 st3 st5">1,2</text>
		<g id="Astellas-Logo" transform="translate(74.5 380.267)">
			<g id="Group_10">
				<g id="Group_9">
					<path id="Path_51" class="st1" d="M33.9,13.5c0-0.7,0.6-1.2,1.2-1.2c0,0,0,0,0.1,0c1,0,1.2,0.4,1.4,0.9l0.2,0.6H37l0.1-1.7
						c-0.5-0.1-1.1-0.2-1.7-0.2c-2,0-2.8,1.2-2.8,2.1c0,2.3,3.6,1.9,3.6,3.9c0,0.9-0.8,1.3-1.6,1.3c-0.4,0-0.7-0.1-1-0.3
						c-0.3-0.4-0.5-0.8-0.6-1.3h-0.2l-0.1,1.9c0.5,0.1,1,0.1,1.5,0.1c2.6,0,3.2-1.3,3.2-2.2C37.4,14.9,33.9,15.4,33.9,13.5"/>
					<path id="Path_52" class="st1" d="M42.8,18.4c-0.3,0.3-0.7,0.6-1.2,0.6c-0.5-0.1-0.9-0.5-0.8-1c0,0,0,0,0,0v-5.4h1.8v-0.4h-1.8
						v-1.9h-0.2c-0.4,1-1.2,1.7-2.3,2v0.3h1.3v2.7c0,0.9,0,2.2,0,3c0,1.3,0.8,1.5,1.3,1.5c0.9-0.1,1.7-0.4,2.2-1L42.8,18.4"/>
					<path id="Path_53" class="st1" d="M49.8,14.8c0.4,0,0.5-0.1,0.5-0.5c0-1.4-0.9-2.5-2.8-2.5c-2.1,0-3.7,1.7-3.7,3.8
						c0,0.1,0,0.2,0,0.2c0,2.3,1.4,3.8,3.4,3.8c1.1,0.1,2.1-0.4,2.8-1.2l-0.2-0.3C49.4,18.7,48.7,19,48,19c-1.9,0-2.8-1.8-2.8-3.6
						c0-0.2,0-0.4,0-0.5L49.8,14.8z M47.2,12.2c1.1,0,1.6,0.8,1.6,1.8v0.3c-0.2,0-0.5,0-1,0l-2.5,0.1C45.6,13.1,46.3,12.2,47.2,12.2
						"/>
					<path id="Path_54" class="st1" d="M53.3,17.8v-6.3c0-1.1,0.1-2.2,0.1-3.3c-0.9,0.1-1.8,0.1-2.6,0.1v0.2l0.9,0.3
						C51.8,8.9,51.9,9,52,9c0.1,0.4,0.1,0.9,0.1,1.4v7.4c0,0.8-0.1,1.1-0.6,1.2l-0.8,0.3v0.2c0.6-0.1,1.2-0.1,1.9-0.1
						c0.7,0,1.3,0.1,2,0.1v-0.2L53.8,19C53.3,18.9,53.3,18.6,53.3,17.8"/>
					<path id="Path_55" class="st1" d="M58.3,19c-0.5-0.2-0.5-0.4-0.5-1.2v-6.3c0-1.1,0.1-2.2,0.1-3.3c-0.9,0.1-1.8,0.1-2.6,0.1v0.2
						l0.9,0.3c0.1,0,0.2,0.1,0.3,0.2c0.1,0.4,0.1,0.9,0.1,1.4v7.4c0,0.8-0.1,1.1-0.6,1.2l-0.8,0.3v0.2c0.6-0.1,1.2-0.1,1.9-0.1
						c0.7,0,1.3,0.1,2,0.1v-0.2L58.3,19"/>
					<path id="Path_56" class="st1" d="M65.6,18.3v-4.5c0-1.5-1.1-1.9-2.4-1.9c-1.2,0-2.4,0.7-2.9,1.8l0.4,0.2
						c0.5-0.7,1.3-1.2,2.1-1.2c0.9,0,1.6,0.3,1.6,1.5v0.8h-0.1c-2.6,0-4.5,0.8-4.5,2.6c-0.1,1,0.7,1.9,1.8,2c0.1,0,0.2,0,0.3,0
						c1-0.1,2-0.6,2.5-1.5h0l0,1.4c0.4-0.1,0.8-0.1,1.2-0.1c0.4,0,0.8,0.1,1.2,0.1v-0.2C65.8,19.1,65.6,19,65.6,18.3 M64.4,16.8
						c0.1,1-0.7,1.9-1.7,2c-0.1,0-0.1,0-0.2,0c-0.7,0.1-1.3-0.4-1.4-1.1c0-0.1,0-0.2,0-0.3c0-1.7,1.9-2,3.2-2V16.8"/>
					<path id="Path_57" class="st1" d="M30.5,18.3v-4.5c0-1.5-1.1-1.9-2.4-1.9c-1.2,0-2.4,0.7-2.9,1.8l0.4,0.2
						c0.5-0.7,1.3-1.2,2.1-1.2c0.9,0,1.6,0.3,1.6,1.5v0.8h-0.1c-2.6,0-4.5,0.8-4.5,2.6c-0.1,1,0.7,1.9,1.8,2c0.1,0,0.2,0,0.3,0
						c1-0.1,2-0.6,2.5-1.5h0l0,1.4c0.4-0.1,0.8-0.1,1.2-0.1c0.4,0,0.8,0.1,1.2,0.1v-0.2C30.7,19.1,30.5,19,30.5,18.3 M29.3,16.8
						c0.1,1-0.7,1.9-1.7,2c-0.1,0-0.1,0-0.2,0c-0.7,0.1-1.3-0.4-1.4-1.1c0-0.1,0-0.2,0-0.3c0-1.7,1.9-2,3.2-2L29.3,16.8"/>
					<path id="Path_58" class="st1" d="M68.9,13.5c0-0.7,0.6-1.2,1.2-1.2c0,0,0,0,0.1,0c1,0,1.2,0.4,1.4,0.9l0.2,0.6h0.2l0.1-1.7
						c-0.5-0.1-1.1-0.2-1.7-0.2c-2,0-2.8,1.2-2.8,2.1c0,2.3,3.6,1.9,3.6,3.9c0,0.9-0.8,1.3-1.6,1.3c-0.4,0-0.7-0.1-1-0.3
						c-0.3-0.4-0.5-0.8-0.6-1.3h-0.2l-0.1,1.9c0.5,0.1,1,0.1,1.5,0.1c2.5,0,3.2-1.3,3.2-2.2C72.5,14.9,68.9,15.4,68.9,13.5"/>
					<path id="Path_59" class="st1" d="M21.6,8c-2.1,1.6-4.3,3.1-6.6,4.3c-0.4,2.7-1.3,5.2-2.6,7.6c2.7-1.3,5.3-4.8,6.7-7.8
						c1.3,0.3,2.5,1,3.5,1.9C22.9,11.9,22.5,9.8,21.6,8"/>
					<path id="Path_60" class="st1" d="M19.2,0c-1.2,1.3-2,2.8-2.4,4.5c1.3,0.3,2.5,0.6,3.6,0.8C19.4,3.7,19,1.9,19.2,0"/>
					<path id="Path_61" class="st1" d="M0,2c4.9,0.7,9.4,3.2,12.6,7.1c-1.9,2.1-4.5,5.6-5.1,9.1c1.4-2.2,4.5-4.1,7.6-5.9
						c0.6-2.7,1-5.4,1.7-7.7C11.6,3.2,5,1,0,2"/>
					<path id="Path_62" class="st1" d="M20.4,5.4c0.4,0.8,0.8,1.7,1.2,2.6c0.9-0.7,1.6-1.6,2-2.6C22.6,5.6,21.5,5.6,20.4,5.4"/>
					<path id="Path_63" class="st1" d="M20.4,5.4c-1.1-0.2-2.3-0.5-3.6-0.8c-0.7,2.3-1.2,5.1-1.7,7.8c2.3-1.2,4.5-2.7,6.6-4.3
						C21.2,7.1,20.8,6.2,20.4,5.4"/>
				</g>
			</g>
		</g>
		<text transform="matrix(1 0 0 1 15 286)" class="st1 st6 st7">Please note that indications </text>
		<text transform="matrix(1 0 0 1 15 297)" class="st1 st6 st7">and availability may vary in </text>
		<text transform="matrix(1 0 0 1 15 308)" class="st1 st6 st7">different countries.</text>
		<path id="Rectangle_3" class="st8" d="M27,94h106c6.1,0,11,4.9,11,11v140c0,6.1-4.9,11-11,11H27c-6.1,0-11-4.9-11-11V105
			C16,98.9,20.9,94,27,94z"/>
		<text transform="matrix(1 0 0 1 11 500)" class="st9 st6 st10">1. </text>
		<text transform="matrix(1 0 0 1 20.7678 500)" class="st9 st11 st10">EVRENZO SmPC.</text>
		<text transform="matrix(1 0 0 1 11 508)" class="st9 st6 st10">2. </text>
		<text transform="matrix(1 0 0 1 20.7678 508)" class="st9 st11 st10">Akizawa T et al. J Am Soc Nephrol. </text>
		<text transform="matrix(1 0 0 1 11 516)" class="st9 st11 st10">2020;31(7):1628–1639.</text>
		<text transform="matrix(1 0 0 1 11 529)" class="st9 st6 st10">This advert is intended for UK and EU </text>
		<text transform="matrix(1 0 0 1 11 537)" class="st9 st6 st10">Healthcare Professionals and has been </text>
		<text transform="matrix(1 0 0 1 11 545)" class="st9 st6 st10">approved consistent with UK regulations</text>
		<g id="Layer_1_00000127022399959100588580000004259809907976588170_" transform="translate(-7.5 413.463)">
			<g id="Group_11" transform="translate(23.5 21.808)">
				<path id="Path_80" class="st12" d="M13.3,31.9h1.5V34h0.1c0.8-1.5,1.7-2.3,3.5-2.3v1.5c-1.9,0.1-2.8,1.3-3.5,3.4v5.9h-1.5
					L13.3,31.9L13.3,31.9z"/>
				<path id="Path_81" class="st12" d="M23.1,42.8c-2.9,0-4.4-2.4-4.4-5.5s1.5-5.5,4.4-5.5s4.4,2.4,4.4,5.5
					C27.4,40.3,26,42.8,23.1,42.8 M23.1,32.9c-1.7,0-2.9,1.5-2.9,4.3s1.1,4.3,2.9,4.3c1.7,0,2.9-1.5,2.9-4.3
					C26,34.5,24.8,32.9,23.1,32.9"/>
				<path id="Path_82" class="st12" d="M32,35.7l2.3-3.8h1.6l-3,5.1l3.5,5.6h-1.7L32,38.2l-2.6,4.4h-1.6l3.3-5.6L28,31.9h1.7
					L32,35.7z"/>
				<path id="Path_83" class="st12" d="M37.1,33.9c0.8-1.4,2.3-2.3,4-2.2c1.8,0,3.7,0.8,3.7,3.2v5.4c-0.1,0.8,0,1.6,0.3,2.3h-1.5
					l-0.1-1.5c-0.9,1-2.2,1.6-3.6,1.7c-1.5,0.1-2.9-1-3.1-2.6c0-0.1,0-0.3,0-0.4c0-2.4,1.8-3.5,6.6-4.3V35c0-1.4-0.9-2-2.2-2
					c-1.2-0.1-2.3,0.6-2.7,1.7L37.1,33.9z M43.3,36.8c-3.4,0.6-5,1.6-5,3.1c0.1,0.9,0.8,1.6,1.7,1.7c1.3-0.1,2.5-0.8,3.3-1.7V36.8z"
					/>
				<path id="Path_84" class="st12" d="M55.1,27.7v12.5c0,0.8,0,1.6,0.1,2.4h-1.3l-0.2-1c-0.7,0.8-1.7,1.3-2.8,1.3
					c-1.9,0-4.4-1.3-4.4-5.5c0-4.1,2.5-5.5,4.3-5.5c1,0,2,0.5,2.8,1.2l0.1,0.1v-5.2h1.5L55.1,27.7z M53.6,34.4
					c-0.7-0.8-1.6-1.4-2.7-1.5c-1.7,0-3,1.1-3,4.3c0,2.7,1.2,4.2,3,4.2c1,0,1.7-0.4,2.7-1.5V34.4z"/>
				<path id="Path_85" class="st12" d="M64.3,42.6v-1.5h-0.1c-0.8,1-1.9,1.6-3.1,1.7c-1.6,0.1-2.9-1-3.1-2.6c0-0.2,0-0.4,0-0.6v-7.7
					h1.5v7.7c0,1.4,0.7,1.9,1.7,1.9c1.2-0.2,2.3-0.7,3.1-1.6v-8h1.5v10.7H64.3z"/>
				<path id="Path_86" class="st12" d="M68.5,39.8c0.7,1,1.8,1.7,3.1,1.7c1.6,0,2.3-0.8,2.3-1.7c0-2.7-6.4-1.3-6.2-5.2
					c0.1-1.8,1.5-2.9,3.6-2.9c1.4,0,2.8,0.7,3.6,1.9l-1,0.9c-0.6-0.9-1.6-1.4-2.7-1.5c-1.3,0-2,0.6-2,1.6c0,2.3,6.2,1.1,6.2,5.1
					c0,2.1-1.8,3.1-3.8,3.1c-1.7,0-3.2-0.7-4.3-2L68.5,39.8z"/>
				<path id="Path_87" class="st12" d="M77.4,31.9v-3.5h1.5v3.5h2.4v1.3h-2.4v7.6c0,0.5,0.3,0.8,1.2,0.8c0.5,0,0.9-0.1,1.3-0.1v1.2
					c-0.6,0.1-1.2,0.2-1.7,0.1c-1.6,0-2.3-0.4-2.3-1.7v-7.9h-1.7v-1.3H77.4z"/>
				<path id="Path_88" class="st12" d="M82.5,33.9c0.8-1.4,2.3-2.3,4-2.2c1.8,0,3.7,0.8,3.7,3.2v5.4c-0.1,0.8,0,1.6,0.3,2.3H89
					l-0.1-1.5c-0.9,1-2.2,1.6-3.6,1.7c-1.5,0.1-2.9-1-3.1-2.6c0-0.1,0-0.3,0-0.4c0-2.4,1.8-3.5,6.6-4.3V35c0-1.4-0.9-2-2.2-2
					c-1.2-0.1-2.3,0.6-2.7,1.7L82.5,33.9z M88.8,36.8c-3.4,0.6-5,1.6-5,3.1c0.1,0.9,0.8,1.6,1.7,1.7c1.3-0.1,2.5-0.8,3.3-1.7V36.8z"
					/>
				<path id="Path_89" class="st12" d="M93,31.9v-3.5h1.5v3.5h2.4v1.3h-2.4v7.6c0,0.5,0.3,0.8,1.2,0.8c0.5,0,0.9-0.1,1.3-0.1v1.2
					c-0.6,0.1-1.2,0.2-1.7,0.1c-1.6,0-2.3-0.4-2.3-1.7v-7.9h-1.7v-1.3H93z"/>
				<path id="Path_90" class="st8" d="M113.3,11.1l13.5-5.7c2.7,1.7,4.5,4,5,6.3L113.3,11.1z"/>
				<path id="Path_91" class="st12" d="M108.4,0h-0.1c-6.4,0-4.7,3.4-2.7,7L108.4,0z"/>
				<path id="Path_92" class="st13" d="M125.3,4.5c-2.4-1.3-5-2.3-7.6-3.1l-7.2,7.7L125.3,4.5z"/>
				<path id="Path_93" class="st12" d="M107.5,9.4L116,1c-2.2-0.5-4.5-0.9-6.8-1L107.5,9.4z"/>
				<path id="Path_94" class="st13" d="M117.9,23.2c2.7-0.7,5.3-1.8,7.7-3.2l-15.2-4.9L117.9,23.2z"/>
				<path id="Path_95" class="st8" d="M113.3,13.3l14,6c2.6-2,4.3-4.3,4.6-6.5L113.3,13.3z"/>
				<path id="Path_96" class="st12" d="M105.6,17.3c-2,3.7-3.9,7.4,2.6,7.4h0.4L105.6,17.3z"/>
				<path id="Path_97" class="st12" d="M109.3,24.7c2.4-0.1,4.7-0.5,7-1l-8.7-8.7L109.3,24.7z"/>
				<path id="Path_98" class="st2" d="M0,24.4v-22h12.6v3.2H3.8v5.7h7.7v3.2H3.8v6.6h9.4v3.2L0,24.4z"/>
				<path id="Path_99" class="st2" d="M24.4,8h3.4l-5.2,16.4h-3.3L14.1,8h3.5l3.3,11.6H21L24.4,8z"/>
				<path id="Path_100" class="st2" d="M30.4,24.4V8h3.2v1.7h0.1c1.4-1.1,2.4-2,4.3-2l0.3,3.4c-0.4,0-0.7-0.1-1.1-0.1
					c-1.3,0.1-2.5,0.5-3.5,1.2v12.2L30.4,24.4L30.4,24.4z"/>
				<path id="Path_101" class="st2" d="M52.5,17.2h-9v2.4c0,1.8,1,2.4,2.8,2.4c1.7,0,2.9-0.3,2.9-2.4l3.3,0.3
					c-0.1,3.6-2.8,4.8-6.2,4.8c-3.8,0-6.2-1.4-6.2-5.2V13c0-3.8,2.3-5.3,6.2-5.3c3.8,0,6.2,1.5,6.2,5.3L52.5,17.2z M49.1,14.4V13
					c0-1.8-1-2.5-2.8-2.5s-2.8,0.7-2.8,2.5v1.4H49.1z"/>
				<path id="Path_102" class="st2" d="M56,24.4V8h3.2v1.6h0.1c1.2-1.1,2.8-1.8,4.5-1.9c2.9,0,4,1.8,4,4.7v12h-3.4V13.3
					c0-1.6-0.4-2.5-2-2.5c-1.2,0.1-2.3,0.7-3.1,1.5v12.2H56V24.4z"/>
				<path id="Path_103" class="st2" d="M70.5,10.8V8h11.8v2.8l-8,10.6v0.2h8.2v2.8H70.2v-2.8l8-10.7v-0.1H70.5z"/>
				<path id="Path_104" class="st2" d="M84.4,12.8c0-3.8,2.4-5.2,6.2-5.2s6.3,1.3,6.3,5.2v6.6c0,3.8-2.3,5.2-6.3,5.2
					s-6.2-1.5-6.2-5.2V12.8z M87.8,19.5c0,1.8,1,2.4,2.9,2.4s2.9-0.6,2.9-2.4v-6.6c0-1.8-1-2.4-2.9-2.4s-2.9,0.6-2.9,2.4V19.5z"/>
				<path id="Path_105" class="st2" d="M98.1,8.2h-0.7V7.7h2v0.4h-0.7v2h-0.6V8.2z"/>
				<path id="Path_106" class="st2" d="M99.6,7.7h0.8l0.6,1.6l0,0l0.6-1.6h0.7v2.4h-0.5V8.4l0,0l-0.6,1.7h-0.4l-0.6-1.7l0,0v1.7
					h-0.5V7.7z"/>
			</g>
			<path id="Polygon_1" d="M157,27.6l-5.4-9.7h11L157,27.6z"/>
		</g>
		<g id="_1px-Border">
			<rect y="0" class="st14" width="160" height="600"/>
			<rect x="0.5" y="0.5" class="st15" width="159" height="599"/>
		</g>
		<text transform="matrix(1 0 0 1 11 576)" class="st9 st11 st10">EVZ_2022_0273_UK</text>
		<text transform="matrix(1 0 0 1 11 585)" class="st9 st11 st10">NOVEMBER 2022</text>
	</g>
</g>
</svg>
