<?xml version="1.0" encoding="utf-8"?>
<!-- Generator: Adobe Illustrator 27.0.0, SVG Export Plug-In . SVG Version: 6.00 Build 0)  -->
<svg version="1.1" id="Layer_1" xmlns="http://www.w3.org/2000/svg" xmlns:xlink="http://www.w3.org/1999/xlink" x="0px" y="0px"
	 viewBox="0 0 160 600" style="enable-background:new 0 0 160 600;" xml:space="preserve">
<style type="text/css">
	.st0{clip-path:url(#SVGID_00000166633778630363703770000001684015171009926820_);}
	.st1{enable-background:new    ;}
	.st2{fill:#4D4D4F;}
	.st3{fill:#AD1AAC;}
	.st4{fill:#43B02A;}
	.st5{fill:#4EC3E0;}
	.st6{fill:#007A33;}
	.st7{fill:none;}
	.st8{fill:none;stroke:#BBBCBC;}
</style>
<g>
	<defs>
		<rect id="SVGID_1_" y="0" width="160" height="600"/>
	</defs>
	<clipPath id="SVGID_00000031891863135650579630000017910310685972250496_">
		<use xlink:href="#SVGID_1_"  style="overflow:visible;"/>
	</clipPath>
	<g id="Skyscraper_160x600_2" style="clip-path:url(#SVGID_00000031891863135650579630000017910310685972250496_);">
		<g class="st1">
			<path class="st2" d="M23.5,25.7v2.1h-4.1v2.8h3.1v2.1h-3.1v3.2h4.2V38h-6.6V25.7H23.5z"/>
			<path class="st2" d="M27.1,25.7l2.2,8.8h0l2.1-8.8h2.3L30.6,38h-2.7l-3.1-12.3H27.1z"/>
			<path class="st2" d="M38.5,25.7c2.5,0,4.1,1.1,4.1,3.7c0,1.5-0.5,2.6-1.9,3.1L43,38h-2.5l-2-5h-1.1v5H35V25.7H38.5z M38.6,31.1
				c1,0,1.6-0.6,1.6-1.7c0-1.1-0.6-1.7-1.6-1.7h-1.2v3.4H38.6z"/>
			<path class="st2" d="M50.9,25.7v2.1h-4.1v2.8h3.1v2.1h-3.1v3.2h4.2V38h-6.6V25.7H50.9z"/>
			<path class="st2" d="M55.7,25.7l3.3,7.3h0v-7.3h2.1V38h-2.2l-3.6-7.9h0V38h-2.1V25.7H55.7z"/>
			<path class="st2" d="M70.1,25.7v2l-4.6,8.2h4.7V38h-7.4v-2l4.6-8.2h-4.2v-2.1H70.1z"/>
			<path class="st2" d="M78.4,26.6c0.6,0.7,1,1.7,1,3v4.6c0,2.5-1.3,4-3.9,4s-3.9-1.5-3.9-4v-4.6c0-2.5,1.3-4,3.9-4
				C76.8,25.6,77.8,25.9,78.4,26.6z M74,34.4c0,1.1,0.4,1.7,1.5,1.7c1.1,0,1.5-0.6,1.5-1.7v-5.1c0-1-0.4-1.7-1.5-1.7
				c-1.1,0-1.5,0.6-1.5,1.7V34.4z"/>
		</g>
		<g class="st1">
			<path class="st2" d="M23.4,50.3v6c0,0.1,0,0.4,0.1,0.7h-2.1l-0.2-0.9c-0.6,0.6-1.5,1.1-2.5,1.1c-1.3,0-2.1-0.7-2.1-2.2
				c0-2.3,2.3-3.1,4.7-3.9v-0.7c0-0.7-0.4-1.1-1.1-1.1c-0.6,0-1.2,0.5-1.2,1.1h-2.1c0.2-1.9,1.5-2.9,3.4-2.9
				C22.3,47.6,23.4,48.6,23.4,50.3z M19.6,55.6c0.6,0,1.1-0.3,1.6-0.8v-2.2c-1,0.3-2.6,1-2.6,2.1C18.7,55.2,19.1,55.6,19.6,55.6z"/>
			<path class="st2" d="M32.1,50.9H30v-0.4c0-0.6-0.4-1.1-1.3-1.1c-0.8,0-1.3,0.4-1.3,1.1v3.7c0,0.6,0.5,1.1,1.3,1.1
				c0.8,0,1.3-0.4,1.3-1.1v-0.6h2.1c0,2.3-1.1,3.5-3.4,3.5c-2.3,0-3.4-1.3-3.4-3.4V51c0-2.1,1.1-3.4,3.4-3.4
				C30.9,47.6,32.1,48.7,32.1,50.9z"/>
			<path class="st2" d="M36.2,44.7v4.1c0.9-0.9,1.6-1.2,2.3-1.2c1.4,0,2,0.8,2,2.3V57h-2.1v-6.9c0-0.5-0.2-1-0.8-1
				c-0.5,0-0.9,0.4-1.4,0.8v7H34V44.7H36.2z"/>
			<path class="st2" d="M44.9,44.2v1.9h-2.1v-1.9H44.9z M44.9,47.8V57h-2.1v-9.2H44.9z"/>
			<path class="st2" d="M53.9,50.7v2.2h-4.7v1.3c0,0.8,0.5,1.3,1.3,1.3c0.8,0,1.3-0.4,1.3-1.3h2.1c-0.1,1.9-1.3,3-3.4,3
				c-2,0-3.4-1.3-3.4-3.3v-3.1c0-2,1.4-3.2,3.4-3.2C52.4,47.6,53.9,48.8,53.9,50.7z M51.7,51.2v-0.5c0-0.8-0.4-1.3-1.3-1.3
				c-0.8,0-1.3,0.5-1.3,1.2v0.6H51.7z"/>
			<path class="st2" d="M57.1,47.8l1.4,5.9h0l1.4-5.9l0,0h2.1L59.6,57h-2.1l-2.5-9.2H57.1z"/>
			<path class="st2" d="M69.9,50.7v2.2h-4.7v1.3c0,0.8,0.5,1.3,1.3,1.3c0.8,0,1.3-0.4,1.3-1.3h2.1c-0.1,1.9-1.3,3-3.4,3
				c-2,0-3.4-1.3-3.4-3.3v-3.1c0-2,1.4-3.2,3.4-3.2C68.5,47.6,69.9,48.8,69.9,50.7z M67.8,51.2v-0.5c0-0.8-0.4-1.3-1.3-1.3
				c-0.8,0-1.3,0.5-1.3,1.2v0.6H67.8z"/>
			<path class="st2" d="M77.6,49.9l-1.8,0.7c-0.3-0.9-0.8-1.3-1.5-1.3c-0.5,0-0.9,0.3-0.9,0.8c0,0.6,0.5,0.9,1.7,1.4
				c1.6,0.8,2.5,1.5,2.5,2.8c0,1.8-1.3,2.8-3.1,2.8c-1.9,0-2.7-1-3.5-2.6l1.9-0.5c0.2,0.9,0.7,1.4,1.6,1.4c0.6,0,1-0.3,1-0.8
				c0-0.7-0.7-1.1-1.9-1.6c-1.1-0.5-2.3-1.2-2.3-2.8c0-1.6,1.3-2.6,2.9-2.6C75.9,47.6,77,48.4,77.6,49.9z"/>
			<path class="st2" d="M90.4,50.3v6c0,0.1,0,0.4,0.1,0.7h-2.1l-0.2-0.9c-0.6,0.6-1.5,1.1-2.5,1.1c-1.3,0-2.1-0.7-2.1-2.2
				c0-2.3,2.3-3.1,4.7-3.9v-0.7c0-0.7-0.4-1.1-1.1-1.1c-0.6,0-1.2,0.5-1.2,1.1h-2.1c0.2-1.9,1.5-2.9,3.4-2.9
				C89.4,47.6,90.4,48.6,90.4,50.3z M86.7,55.6c0.6,0,1.1-0.3,1.6-0.8v-2.2c-1,0.3-2.6,1-2.6,2.1C85.7,55.2,86.1,55.6,86.7,55.6z"/>
			<path class="st2" d="M99,49.9V57h-2.1v-6.8c0-0.5-0.2-1-0.8-1c-0.5,0-0.9,0.4-1.4,0.8v7h-2.1v-9.2h2.1v1.1c1-0.9,1.7-1.2,2.4-1.2
				C98.5,47.6,99,48.4,99,49.9z"/>
			<path class="st2" d="M107.5,44.7V57h-2v-1.1h0c-0.4,0.7-1.5,1.3-2.3,1.3c-1.6,0-2.3-1.3-2.3-3.6v-2.4c0-2.4,0.7-3.6,2.3-3.6
				c0.6,0,1.2,0.3,2.1,1v-3.9H107.5z M105.4,49.8c-0.4-0.5-0.8-0.7-1.3-0.7c-0.7,0-1,0.7-1,2.1v2.2c0,1.3,0.3,2,1.1,2
				c0.5,0,0.9-0.2,1.3-0.7V49.8z"/>
		</g>
		<g class="st1">
			<path class="st2" d="M23,68c0.7-0.8,1.3-1.4,2.3-1.4c1.3,0,2,0.8,2,2.4v7h-2.1v-7.1c0-0.5-0.2-0.7-0.6-0.7
				c-0.4,0-1.1,0.5-1.3,0.8v7h-2.1v-7.1c0-0.5-0.2-0.7-0.6-0.7c-0.4,0-1,0.4-1.3,0.8v7H17v-9.2h2.1v1.1c0.8-0.7,1.4-1.2,2.3-1.2
				C22.2,66.6,22.8,67.1,23,68z"/>
			<path class="st2" d="M35.7,69.3v6c0,0.1,0,0.4,0.1,0.7h-2.1l-0.2-0.9c-0.6,0.6-1.5,1.1-2.5,1.1c-1.3,0-2.1-0.7-2.1-2.2
				c0-2.3,2.3-3.1,4.7-3.9v-0.7c0-0.7-0.4-1.1-1.1-1.1c-0.6,0-1.2,0.5-1.2,1.1h-2.1c0.2-1.9,1.5-2.9,3.4-2.9
				C34.6,66.6,35.7,67.6,35.7,69.3z M31.9,74.6c0.6,0,1.1-0.3,1.6-0.8v-2.2c-1,0.3-2.6,1-2.6,2.1C31,74.2,31.3,74.6,31.9,74.6z"/>
			<path class="st2" d="M40.2,63.2v1.9h-2.1v-1.9H40.2z M40.2,66.8V76h-2.1v-9.2H40.2z"/>
			<path class="st2" d="M49,68.9V76h-2.1v-6.8c0-0.5-0.2-1-0.8-1c-0.5,0-0.9,0.4-1.4,0.8v7h-2.1v-9.2h2.1v1.1c1-0.9,1.7-1.2,2.4-1.2
				C48.4,66.6,49,67.4,49,68.9z"/>
			<path class="st2" d="M53.1,64.6v2.5h1.4v1.7h-1.4v4.7c0,0.4,0.3,0.7,1.1,0.7c0.1,0,0.2,0,0.3,0v1.8c-0.4,0.1-0.9,0.1-1.2,0.1
				c-1.7,0-2.3-0.7-2.3-1.8v-5.5h-0.8v-1.7H51v-2.5H53.1z"/>
			<path class="st2" d="M62.1,69.3v6c0,0.1,0,0.4,0.1,0.7h-2.1l-0.2-0.9c-0.6,0.6-1.5,1.1-2.5,1.1c-1.3,0-2.1-0.7-2.1-2.2
				c0-2.3,2.3-3.1,4.7-3.9v-0.7c0-0.7-0.4-1.1-1.1-1.1c-0.6,0-1.2,0.5-1.2,1.1h-2.1c0.2-1.9,1.5-2.9,3.4-2.9
				C61.1,66.6,62.1,67.6,62.1,69.3z M58.4,74.6c0.6,0,1.1-0.3,1.6-0.8v-2.2c-1,0.3-2.6,1-2.6,2.1C57.4,74.2,57.8,74.6,58.4,74.6z"/>
			<path class="st2" d="M66.7,63.2v1.9h-2.1v-1.9H66.7z M66.7,66.8V76h-2.1v-9.2H66.7z"/>
			<path class="st2" d="M75.4,68.9V76h-2.1v-6.8c0-0.5-0.2-1-0.8-1c-0.5,0-0.9,0.4-1.4,0.8v7H69v-9.2H71v1.1c1-0.9,1.7-1.2,2.4-1.2
				C74.9,66.6,75.4,67.4,75.4,68.9z"/>
			<path class="st2" d="M83.3,68.9l-1.8,0.7c-0.3-0.9-0.8-1.3-1.5-1.3c-0.5,0-0.9,0.3-0.9,0.8c0,0.6,0.5,0.9,1.7,1.4
				c1.6,0.8,2.5,1.5,2.5,2.8c0,1.8-1.3,2.8-3.1,2.8c-1.9,0-2.7-1-3.5-2.6l1.9-0.5c0.2,0.9,0.7,1.4,1.6,1.4c0.6,0,1-0.3,1-0.8
				c0-0.7-0.7-1.1-1.9-1.6c-1.1-0.5-2.3-1.2-2.3-2.8c0-1.6,1.3-2.6,2.9-2.6C81.6,66.6,82.7,67.4,83.3,68.9z"/>
		</g>
		<g class="st1">
			<path class="st2" d="M19.1,83.6v2.5h1.4v1.7h-1.4v4.7c0,0.4,0.3,0.7,1.1,0.7c0.1,0,0.2,0,0.3,0v1.8c-0.4,0.1-0.8,0.1-1.2,0.1
				c-1.7,0-2.3-0.7-2.3-1.8v-5.5h-0.9v-1.7H17v-2.5H19.1z"/>
			<path class="st2" d="M28.1,88.3v6c0,0.1,0,0.4,0.1,0.7h-2.1l-0.2-0.9c-0.6,0.6-1.5,1.1-2.5,1.1c-1.3,0-2.1-0.7-2.1-2.2
				c0-2.3,2.3-3.1,4.7-3.9v-0.7c0-0.7-0.4-1.1-1.1-1.1c-0.6,0-1.2,0.5-1.2,1.1h-2.1c0.2-1.9,1.5-2.9,3.4-2.9
				C27.1,85.6,28.1,86.6,28.1,88.3z M24.4,93.6c0.6,0,1.1-0.3,1.6-0.8v-2.2c-1,0.3-2.6,1-2.6,2.1C23.4,93.2,23.8,93.6,24.4,93.6z"/>
			<path class="st2" d="M34.6,87.9c-0.3-0.1-0.8-0.2-1.1-0.2c-0.6,0-1.1,0.5-1.1,1V95h-2.1v-9.2h2.1V87h0c0.5-0.9,1.1-1.4,2.2-1.4
				V87.9z"/>
			<path class="st2" d="M41.1,86.7c0.6-0.7,1.1-1.1,1.9-1.1v1.9c-0.2-0.1-0.4-0.1-0.7-0.1c-0.2,0-0.4,0.1-0.7,0.2
				c0.1,0.6,0.3,1.1,0.3,1.6c0,2.4-1.1,3.6-3.1,3.6c-0.3,0-0.5,0-0.9-0.1c-0.1,0.1-0.4,0.4-0.4,0.5c0,0.4,0.5,0.5,1.6,0.5
				c2,0.1,3.8,0.3,3.8,2.2c0,1.5-1.5,2.3-4.1,2.3c-2.3,0-3.5-0.7-3.5-1.7c0-0.8,0.9-1.2,1.3-1.4c-0.5-0.3-0.9-0.7-0.9-1.3
				c0-0.5,0.4-1,1.3-1.6c-1.1-0.7-1.4-1.8-1.4-3.2c0-2.3,1.1-3.5,3.2-3.5C39.5,85.6,40.6,86,41.1,86.7z M37.7,95.5
				c-0.2,0.2-0.4,0.4-0.4,0.7c0,0.5,0.7,0.7,1.9,0.7c1.1,0,1.6-0.3,1.6-0.7c0-0.3-0.1-0.4-0.6-0.5L37.7,95.5L37.7,95.5z M38.6,91.1
				c0.9,0,1.2-0.4,1.2-1.9c0-1.2-0.4-1.8-1.1-1.8c-0.9,0-1.1,0.7-1.1,2C37.6,90.5,38,91.1,38.6,91.1z"/>
			<path class="st2" d="M51,88.7v2.2h-4.7v1.3c0,0.8,0.5,1.3,1.3,1.3c0.8,0,1.3-0.4,1.3-1.3H51c-0.1,1.9-1.3,3-3.4,3
				c-2,0-3.4-1.3-3.4-3.3v-3.1c0-2,1.4-3.2,3.4-3.2C49.6,85.6,51,86.8,51,88.7z M48.9,89.2v-0.5c0-0.8-0.4-1.3-1.3-1.3
				c-0.8,0-1.3,0.5-1.3,1.2v0.6H48.9z"/>
			<path class="st2" d="M55,83.6v2.5h1.4v1.7H55v4.7c0,0.4,0.3,0.7,1.1,0.7c0.1,0,0.2,0,0.3,0v1.8c-0.4,0.1-0.8,0.1-1.2,0.1
				c-1.7,0-2.3-0.7-2.3-1.8v-5.5H52v-1.7h0.9v-2.5H55z"/>
			<path class="st2" d="M64.9,82.7v4.9h3.3v-4.9h2.3V95h-2.3v-5.3h-3.3V95h-2.3V82.7H64.9z"/>
			<path class="st2" d="M74.9,82.7v3.9c0.7-0.5,1.4-1,2.2-1c1.6,0,2.3,1.2,2.3,3.6v2.4c0,2.4-0.7,3.6-2.3,3.6
				c-0.8,0-1.8-0.6-2.3-1.3h0V95h-2V82.7H74.9z M74.9,92.9c0.4,0.5,0.8,0.7,1.3,0.7c0.8,0,1.1-0.8,1.1-2.1v-2.2c0-1.4-0.3-2.1-1-2.1
				c-0.5,0-0.9,0.2-1.3,0.7V92.9z"/>
		</g>
		<g class="st1">
			<path class="st2" d="M19.4,101.7V114h-2.1v-12.3H19.4z"/>
			<path class="st2" d="M28.4,107.7v2.2h-4.7v1.3c0,0.8,0.5,1.3,1.3,1.3c0.8,0,1.3-0.4,1.3-1.3h2.1c-0.1,1.9-1.3,3-3.4,3
				c-2,0-3.4-1.3-3.4-3.3v-3.1c0-2,1.4-3.2,3.4-3.2C26.9,104.6,28.4,105.8,28.4,107.7z M26.2,108.2v-0.5c0-0.8-0.4-1.3-1.3-1.3
				c-0.8,0-1.3,0.5-1.3,1.2v0.6H26.2z"/>
			<path class="st2" d="M31.6,104.8l1.4,5.9h0l1.4-5.9l0,0h2.1l-2.5,9.2h-2.1l-2.5-9.2H31.6z"/>
			<path class="st2" d="M44.4,107.7v2.2h-4.7v1.3c0,0.8,0.5,1.3,1.3,1.3c0.8,0,1.3-0.4,1.3-1.3h2.1c-0.1,1.9-1.3,3-3.4,3
				c-2,0-3.4-1.3-3.4-3.3v-3.1c0-2,1.4-3.2,3.4-3.2C43,104.6,44.4,105.8,44.4,107.7z M42.3,108.2v-0.5c0-0.8-0.4-1.3-1.3-1.3
				c-0.8,0-1.3,0.5-1.3,1.2v0.6H42.3z"/>
			<path class="st2" d="M48.7,101.7V114h-2.1v-12.3H48.7z"/>
			<path class="st2" d="M56.9,106.9l-1.8,0.7c-0.3-0.9-0.8-1.3-1.5-1.3c-0.5,0-0.9,0.3-0.9,0.8c0,0.6,0.5,0.9,1.7,1.4
				c1.6,0.8,2.5,1.5,2.5,2.8c0,1.8-1.3,2.8-3.1,2.8c-1.9,0-2.7-1-3.5-2.6l1.9-0.5c0.2,0.9,0.7,1.4,1.6,1.4c0.6,0,1-0.3,1-0.8
				c0-0.7-0.7-1.1-1.9-1.6c-1.1-0.5-2.3-1.2-2.3-2.8c0-1.6,1.3-2.6,2.9-2.6C55.1,104.6,56.3,105.4,56.9,106.9z"/>
		</g>
		<g class="st1">
			<path class="st2" d="M61.1,101.1v7.3h-1.2v-5.5h-1.1v-0.8c0.6-0.1,1-0.2,1.6-1H61.1z"/>
			<path class="st2" d="M65.1,106.9v1.4l-0.6,1.5h-0.7l0.5-1.5h-0.6v-1.4H65.1z"/>
			<path class="st2" d="M70.8,103.2c0,1.2-0.9,2.1-1.8,3l-1.2,1.1h2.9v1.1h-4.5v-1.2c1.1-1.1,1.8-1.7,2.1-2c0.6-0.7,1.2-1.2,1.2-2
				c0-0.6-0.4-1-1-1s-1,0.3-1,1v0.2h-1.3v-0.3c0-1.3,1-2,2.2-2C69.8,101.1,70.8,101.8,70.8,103.2z"/>
		</g>
		<g class="st1">
			<path class="st2" d="M78.3,104.8l1.2,5.8h0l1.2-5.8h1.8l1.3,5.8h0l1.2-5.8h2L85,114h-2l-1.3-5.8h0l-1.1,5.8h-2l-2.2-9.2H78.3z"/>
			<path class="st2" d="M90.8,101.2v1.9h-2.1v-1.9H90.8z M90.8,104.8v9.2h-2.1v-9.2H90.8z"/>
			<path class="st2" d="M95.2,102.6v2.5h1.4v1.7h-1.4v4.7c0,0.4,0.3,0.7,1.1,0.7c0.1,0,0.2,0,0.3,0v1.8c-0.4,0.1-0.8,0.1-1.2,0.1
				c-1.7,0-2.3-0.7-2.3-1.8v-5.5h-0.9v-1.7h0.9v-2.5H95.2z"/>
			<path class="st2" d="M100,101.7v4.1c0.9-0.9,1.6-1.2,2.3-1.2c1.4,0,2,0.8,2,2.3v7.1h-2.1v-6.9c0-0.5-0.2-1-0.8-1
				c-0.5,0-0.9,0.4-1.4,0.8v7h-2.1v-12.3H100z"/>
		</g>
		<g class="st1">
			<path class="st2" d="M23.4,126.3v6c0,0.1,0,0.4,0.1,0.7h-2.1l-0.2-0.9c-0.6,0.6-1.5,1.1-2.5,1.1c-1.3,0-2.1-0.7-2.1-2.2
				c0-2.3,2.3-3.1,4.7-3.9v-0.7c0-0.7-0.4-1.1-1.1-1.1c-0.6,0-1.2,0.5-1.2,1.1h-2.1c0.2-1.9,1.5-2.9,3.4-2.9
				C22.3,123.6,23.4,124.6,23.4,126.3z M19.6,131.6c0.6,0,1.1-0.3,1.6-0.8v-2.2c-1,0.3-2.6,1-2.6,2.1
				C18.7,131.2,19.1,131.6,19.6,131.6z"/>
			<path class="st2" d="M34.6,125.9c-0.3-0.1-0.8-0.2-1.1-0.2c-0.6,0-1.1,0.5-1.1,1v6.3h-2.1v-9.2h2.1v1.2h0
				c0.5-0.9,1.1-1.4,2.2-1.4V125.9z"/>
			<path class="st2" d="M42.5,126.7v2.2h-4.7v1.3c0,0.8,0.5,1.3,1.3,1.3c0.8,0,1.3-0.4,1.3-1.3h2.1c-0.1,1.9-1.3,3-3.4,3
				c-2,0-3.4-1.3-3.4-3.3v-3.1c0-2,1.4-3.2,3.4-3.2C41.1,123.6,42.5,124.8,42.5,126.7z M40.4,127.2v-0.5c0-0.8-0.4-1.3-1.3-1.3
				c-0.8,0-1.3,0.5-1.3,1.2v0.6H40.4z"/>
			<path class="st2" d="M50.9,120.7V133h-2v-1.1h0c-0.4,0.7-1.5,1.3-2.3,1.3c-1.6,0-2.3-1.3-2.3-3.6v-2.4c0-2.4,0.7-3.6,2.3-3.6
				c0.6,0,1.2,0.3,2.1,1v-3.9H50.9z M48.7,125.8c-0.4-0.5-0.8-0.7-1.3-0.7c-0.7,0-1,0.7-1,2.1v2.2c0,1.3,0.3,2,1.1,2
				c0.5,0,0.9-0.2,1.3-0.7V125.8z"/>
			<path class="st2" d="M55,123.8v6.8c0,0.5,0.2,1,0.8,1c0.5,0,0.9-0.4,1.4-0.8v-7h2.1v9.2h-2.1v-1.1c-1,0.9-1.7,1.2-2.4,1.2
				c-1.4,0-2-0.9-2-2.3v-7.1H55z"/>
			<path class="st2" d="M68,126.9h-2.1v-0.4c0-0.6-0.4-1.1-1.3-1.1c-0.8,0-1.3,0.4-1.3,1.1v3.7c0,0.6,0.5,1.1,1.3,1.1
				c0.8,0,1.3-0.4,1.3-1.1v-0.6H68c0,2.3-1.1,3.5-3.4,3.5c-2.3,0-3.4-1.3-3.4-3.4V127c0-2.1,1.1-3.4,3.4-3.4
				C66.8,123.6,68,124.7,68,126.9z"/>
			<path class="st2" d="M76.5,126.7v2.2h-4.7v1.3c0,0.8,0.5,1.3,1.3,1.3c0.8,0,1.3-0.4,1.3-1.3h2.1c-0.1,1.9-1.3,3-3.4,3
				c-2,0-3.4-1.3-3.4-3.3v-3.1c0-2,1.4-3.2,3.4-3.2C75.1,123.6,76.5,124.8,76.5,126.7z M74.4,127.2v-0.5c0-0.8-0.4-1.3-1.3-1.3
				c-0.8,0-1.3,0.5-1.3,1.2v0.6H74.4z"/>
			<path class="st2" d="M84.9,120.7V133h-2v-1.1h0c-0.4,0.7-1.5,1.3-2.3,1.3c-1.6,0-2.3-1.3-2.3-3.6v-2.4c0-2.4,0.7-3.6,2.3-3.6
				c0.6,0,1.2,0.3,2.1,1v-3.9H84.9z M82.7,125.8c-0.4-0.5-0.8-0.7-1.3-0.7c-0.7,0-1,0.7-1,2.1v2.2c0,1.3,0.3,2,1.1,2
				c0.5,0,0.9-0.2,1.3-0.7V125.8z"/>
		</g>
		<g class="st1">
			<path class="st2" d="M19.2,142.8v6.8c0,0.5,0.2,1,0.8,1c0.5,0,0.9-0.4,1.4-0.8v-7h2.1v9.2h-2.1v-1.1c-1,0.9-1.7,1.2-2.4,1.2
				c-1.4,0-2-0.9-2-2.3v-7.1H19.2z"/>
			<path class="st2" d="M31.4,144.9l-1.8,0.7c-0.3-0.9-0.8-1.3-1.5-1.3c-0.5,0-0.9,0.3-0.9,0.8c0,0.6,0.5,0.9,1.7,1.4
				c1.6,0.8,2.5,1.5,2.5,2.8c0,1.8-1.3,2.8-3.1,2.8c-1.9,0-2.7-1-3.5-2.6l1.9-0.5c0.2,0.9,0.7,1.4,1.6,1.4c0.6,0,1-0.3,1-0.8
				c0-0.7-0.7-1.1-1.9-1.6c-1.1-0.5-2.3-1.2-2.3-2.8c0-1.6,1.3-2.6,2.9-2.6C29.6,142.6,30.8,143.4,31.4,144.9z"/>
			<path class="st2" d="M39.7,145.7v2.2H35v1.3c0,0.8,0.5,1.3,1.3,1.3c0.8,0,1.3-0.4,1.3-1.3h2.1c-0.1,1.9-1.3,3-3.4,3
				c-2,0-3.4-1.3-3.4-3.3v-3.1c0-2,1.4-3.2,3.4-3.2C38.2,142.6,39.7,143.8,39.7,145.7z M37.6,146.2v-0.5c0-0.8-0.4-1.3-1.3-1.3
				c-0.8,0-1.3,0.5-1.3,1.2v0.6H37.6z"/>
			<path class="st2" d="M52.9,146v2.8c0,2.2-1.1,3.4-3.4,3.4c-2.3,0-3.4-1.3-3.4-3.4V146c0-2.2,1.1-3.4,3.4-3.4S52.9,143.8,52.9,146
				z M48.3,149.2c0,0.6,0.5,1.1,1.3,1.1c0.8,0,1.3-0.4,1.3-1.1v-3.7c0-0.6-0.5-1.1-1.3-1.1c-0.8,0-1.3,0.4-1.3,1.1V149.2z"/>
			<path class="st2" d="M58.4,139.7v1.8h-0.5c-0.7,0-0.9,0.3-0.9,0.9v0.8h1.3v1.7H57v7.1h-2.1v-7.1h-1v-1.7h1v-0.5
				c0-1.9,0.3-3.1,2.4-3.1C57.6,139.6,58,139.6,58.4,139.7z"/>
			<path class="st2" d="M66.8,139.7V152h-2.3v-12.3H66.8z"/>
			<path class="st2" d="M70.5,139.7l2.2,8.8h0l2.1-8.8h2.3L74,152h-2.7l-3.1-12.3H70.5z"/>
			<path class="st2" d="M85.6,139.2v1.9h-2.1v-1.9H85.6z M85.6,142.8v9.2h-2.1v-9.2H85.6z"/>
			<path class="st2" d="M92.2,144.9c-0.3-0.1-0.8-0.2-1.1-0.2c-0.6,0-1.1,0.5-1.1,1v6.3h-2.1v-9.2H90v1.2h0c0.5-0.9,1.1-1.4,2.2-1.4
				V144.9z"/>
			<path class="st2" d="M100.2,146v2.8c0,2.2-1.1,3.4-3.4,3.4c-2.3,0-3.4-1.3-3.4-3.4V146c0-2.2,1.1-3.4,3.4-3.4
				C99,142.6,100.2,143.8,100.2,146z M95.5,149.2c0,0.6,0.5,1.1,1.3,1.1c0.8,0,1.3-0.4,1.3-1.1v-3.7c0-0.6-0.5-1.1-1.3-1.1
				c-0.8,0-1.3,0.4-1.3,1.1V149.2z"/>
			<path class="st2" d="M108.5,144.9v7.1h-2.1v-6.8c0-0.5-0.2-1-0.8-1c-0.5,0-0.9,0.4-1.4,0.8v7H102v-9.2h2.1v1.1
				c1-0.9,1.7-1.2,2.4-1.2C107.9,142.6,108.5,143.4,108.5,144.9z"/>
		</g>
		<g class="st1">
			<path class="st2" d="M18.3,161.8l1.4,5.9h0l1.4-5.9l0,0h2.1l-2.5,9.2h-2.1l-2.5-9.2H18.3z"/>
			<path class="st2" d="M30.4,163.9l-1.8,0.7c-0.3-0.9-0.8-1.3-1.5-1.3c-0.5,0-0.9,0.3-0.9,0.8c0,0.6,0.5,0.9,1.7,1.4
				c1.6,0.8,2.5,1.5,2.5,2.8c0,1.8-1.3,2.8-3.1,2.8c-1.9,0-2.7-1-3.5-2.6l1.9-0.5c0.2,0.9,0.7,1.4,1.6,1.4c0.6,0,1-0.3,1-0.8
				c0-0.7-0.7-1.1-1.9-1.6c-1.1-0.5-2.3-1.2-2.3-2.8c0-1.6,1.3-2.6,2.9-2.6C28.7,161.6,29.8,162.4,30.4,163.9z"/>
			<path class="st2" d="M34.7,168.6v2.4h-2.4v-2.4H34.7z"/>
			<path class="st2" d="M48,158.7v2.1h-4.1v2.8h3.1v2.1h-3.1v3.2h4.2v2.1h-6.6v-12.3H48z"/>
			<path class="st2" d="M57.4,161.5l-2.1,0.6c-0.4-1.2-0.9-1.6-1.7-1.6c-0.8,0-1.3,0.5-1.3,1.3c0,0.9,1.1,1.4,2.3,2
				c1.9,1,2.9,2.1,2.9,3.8c0,2.3-1.7,3.5-3.9,3.5c-2.1,0-3.4-1.2-4-3.5l2.3-0.5c0.2,1.3,1,2,1.8,2c0.9,0,1.4-0.6,1.4-1.5
				c0-1.1-1.2-1.6-2.9-2.6c-1.6-0.9-2.3-1.9-2.3-3.2c0-2.3,1.4-3.4,3.7-3.4C55.5,158.6,56.9,159.6,57.4,161.5z"/>
			<path class="st2" d="M64.8,158.7l3,12.3h-2.2l-0.6-2.6h-3.2L61,171h-2.3l3-12.3H64.8z M63.2,161.4l-1.2,5h2.3L63.2,161.4
				L63.2,161.4z"/>
		</g>
		<g class="st1">
			<path class="st2" d="M73,160.2c0,1.2-0.9,2.1-1.8,3l-1.2,1.1h2.9v1.1h-4.5v-1.2c1.1-1.1,1.8-1.7,2.1-2c0.6-0.7,1.2-1.2,1.2-2
				c0-0.6-0.4-1-1-1s-1,0.3-1,1v0.2h-1.3v-0.3c0-1.3,1-2,2.2-2C72,158.1,73,158.8,73,160.2z"/>
		</g>
		<g class="st1">
			<path class="st2" d="M15.3,518.2v0.5h-2.8v1.9h2v0.5h-2v2.2h3v0.5h-3.6v-5.8H15.3z"/>
			<path class="st2" d="M20,519.6l-0.6,0.1c-0.2-0.6-0.7-1-1.3-1c-0.7,0-1.1,0.3-1.1,0.9c0,0.5,0.5,0.7,1.1,1
				c1.1,0.4,2.1,0.7,2.1,1.8c0,1.2-0.8,1.7-1.9,1.7c-1,0-1.6-0.5-2.1-1.5l0.6-0.2c0.3,0.8,0.8,1.2,1.5,1.2c0.7,0,1.3-0.3,1.3-1
				c0-0.7-0.7-1-1.6-1.3c-1-0.4-1.7-0.7-1.7-1.6c0-0.9,0.8-1.5,1.7-1.5C19.1,518.1,19.7,518.7,20,519.6z"/>
			<path class="st2" d="M23.7,518.2l1.8,5.8h-0.7l-0.5-1.8h-2.1l-0.5,1.8H21l1.8-5.8H23.7z M22.3,521.6h1.8l-0.8-3h-0.1L22.3,521.6z
				"/>
			<path class="st2" d="M27.3,523.1v0.9l-0.5,1.2h-0.3l0.4-1.2h-0.3v-0.9H27.3z"/>
			<path class="st2" d="M34.1,521.6v0.4h-2.7c0,1,0.6,1.6,1.2,1.6c0.5,0,0.9-0.3,1.1-0.7l0.4,0.2c-0.4,0.7-0.9,1-1.6,1
				c-1.1,0-1.8-0.8-1.8-2.2c0-1.5,0.8-2.2,1.7-2.2C33.5,519.8,34.1,520.4,34.1,521.6z M33.6,521.5c0-0.8-0.4-1.3-1-1.3
				s-1,0.4-1.1,1.3H33.6z"/>
			<path class="st2" d="M37,520.4c-0.8,0-1.1,0.5-1.4,1.3v2.3h-0.6v-4.2h0.6v0.8h0c0.3-0.6,0.7-0.9,1.3-0.9h0V520.4z"/>
			<path class="st2" d="M37.9,519.8L39,523h0l1-3.2h0.6l-1.5,4.5c-0.3,0.8-0.7,1.2-1.4,1.2c-0.2,0-0.3,0-0.4,0V525
				c0.1,0,0.2,0,0.3,0c0.6,0,0.9-0.4,1.1-1l-1.4-4.2H37.9z"/>
			<path class="st2" d="M42.2,518.5v1.4h1v0.5h-1v3c0,0.2,0.1,0.3,0.5,0.3c0.2,0,0.3,0,0.5,0v0.5c-0.1,0-0.3,0.1-0.7,0.1
				c-0.6,0-0.9-0.1-0.9-0.7v-3.1h-0.7v-0.5h0.7v-1.4H42.2z"/>
			<path class="st2" d="M44.7,518.2v2.2h0c0.4-0.4,0.8-0.6,1.2-0.6c0.8,0,1.2,0.5,1.2,1.2v3.1h-0.6v-3c0-0.4-0.2-0.7-0.7-0.7
				c-0.4,0-0.9,0.3-1.2,0.6v3.1h-0.6v-5.8H44.7z"/>
			<path class="st2" d="M50.4,520.4c-0.8,0-1.1,0.5-1.4,1.3v2.3h-0.6v-4.2H49v0.8h0c0.3-0.6,0.7-0.9,1.3-0.9h0V520.4z"/>
			<path class="st2" d="M54.2,521.9c0,1.1-0.5,2.2-1.7,2.2s-1.7-1-1.7-2.2c0-1.1,0.5-2.2,1.7-2.2S54.2,520.8,54.2,521.9z
				 M52.5,523.6c0.8,0,1.1-0.8,1.1-1.7s-0.3-1.7-1.1-1.7c-0.8,0-1.1,0.9-1.1,1.7C51.4,522.7,51.7,523.6,52.5,523.6z"/>
			<path class="st2" d="M58.6,521.9c0,1.7-1.1,2.2-1.7,2.2c-0.4,0-0.8-0.2-1.1-0.5v1.9h-0.6v-5.7h0.6v0.5c0.2-0.3,0.7-0.6,1.1-0.6
				C57.5,519.8,58.6,520.1,58.6,521.9z M55.8,523c0.4,0.4,0.7,0.6,1.1,0.6c0.8,0,1.2-0.6,1.2-1.7c0-1-0.4-1.6-1.2-1.6
				c-0.4,0-0.8,0.3-1,0.6V523z"/>
			<path class="st2" d="M62.7,521.9c0,1.1-0.5,2.2-1.7,2.2s-1.7-1-1.7-2.2c0-1.1,0.5-2.2,1.7-2.2S62.7,520.8,62.7,521.9z M61,523.6
				c0.8,0,1.1-0.8,1.1-1.7s-0.3-1.7-1.1-1.7c-0.8,0-1.1,0.9-1.1,1.7C59.9,522.7,60.1,523.6,61,523.6z"/>
			<path class="st2" d="M64.4,518.1v0.7h-0.6v-0.7H64.4z M64.4,519.8v4.2h-0.6v-4.2H64.4z"/>
			<path class="st2" d="M68.8,521.6v0.4h-2.7c0,1,0.6,1.6,1.2,1.6c0.5,0,0.9-0.3,1.1-0.7l0.4,0.2c-0.4,0.7-0.9,1-1.6,1
				c-1.1,0-1.8-0.8-1.8-2.2c0-1.5,0.8-2.2,1.7-2.2C68.1,519.8,68.8,520.4,68.8,521.6z M68.2,521.5c0-0.8-0.4-1.3-1-1.3
				s-1,0.4-1.1,1.3H68.2z"/>
			<path class="st2" d="M72.3,520.5l-0.4,0.4c-0.3-0.4-0.6-0.6-1.1-0.6c-0.5,0-0.8,0.2-0.8,0.6c0,0.3,0.3,0.5,0.9,0.7
				c0.8,0.2,1.5,0.5,1.5,1.3c0,0.8-0.7,1.2-1.5,1.2c-0.6,0-1.3-0.3-1.7-0.8l0.5-0.3c0.3,0.4,0.7,0.6,1.2,0.6c0.5,0,0.9-0.2,0.9-0.7
				c0-0.4-0.3-0.6-0.9-0.7c-0.9-0.3-1.5-0.5-1.5-1.2c0-0.8,0.6-1.2,1.3-1.2C71.4,519.8,72,520,72.3,520.5z"/>
			<path class="st2" d="M74.2,518.1v0.7h-0.6v-0.7H74.2z M74.2,519.8v4.2h-0.6v-4.2H74.2z"/>
			<path class="st2" d="M78.1,520.5l-0.4,0.4c-0.3-0.4-0.6-0.6-1.1-0.6c-0.5,0-0.8,0.2-0.8,0.6c0,0.3,0.3,0.5,0.9,0.7
				c0.8,0.2,1.5,0.5,1.5,1.3c0,0.8-0.7,1.2-1.5,1.2c-0.6,0-1.3-0.3-1.7-0.8l0.5-0.3c0.3,0.4,0.7,0.6,1.2,0.6c0.5,0,0.9-0.2,0.9-0.7
				c0-0.4-0.3-0.6-0.9-0.7c-0.9-0.3-1.5-0.5-1.5-1.2c0-0.8,0.6-1.2,1.3-1.2C77.2,519.8,77.8,520,78.1,520.5z"/>
			<path class="st2" d="M80.9,521.7v0.5h-2v-0.5H80.9z"/>
			<path class="st2" d="M84.3,520.5l-0.4,0.4c-0.3-0.4-0.6-0.6-1.1-0.6c-0.5,0-0.8,0.2-0.8,0.6c0,0.3,0.3,0.5,0.9,0.7
				c0.8,0.2,1.5,0.5,1.5,1.3c0,0.8-0.7,1.2-1.5,1.2c-0.6,0-1.3-0.3-1.7-0.8l0.5-0.3c0.3,0.4,0.7,0.6,1.2,0.6c0.5,0,0.9-0.2,0.9-0.7
				c0-0.4-0.3-0.6-0.9-0.7c-0.9-0.3-1.5-0.5-1.5-1.2c0-0.8,0.6-1.2,1.3-1.2C83.4,519.8,84,520,84.3,520.5z"/>
			<path class="st2" d="M86.2,518.5v1.4h1v0.5h-1v3c0,0.2,0.1,0.3,0.5,0.3c0.2,0,0.3,0,0.5,0v0.5c-0.1,0-0.3,0.1-0.7,0.1
				c-0.6,0-0.9-0.1-0.9-0.7v-3.1h-0.7v-0.5h0.7v-1.4H86.2z"/>
			<path class="st2" d="M88.8,518.1v0.7h-0.6v-0.7H88.8z M88.8,519.8v4.2h-0.6v-4.2H88.8z"/>
			<path class="st2" d="M94.5,519.8c0.8,0,1.1,0.4,1.1,1.2v3h-0.6v-3c0-0.5-0.2-0.7-0.6-0.7c-0.5,0-0.8,0.3-1.2,0.6v3.1h-0.6v-3
				c0-0.5-0.2-0.7-0.6-0.7c-0.5,0-0.8,0.3-1.2,0.6v3.1h-0.6v-4.2h0.6v0.6c0.4-0.4,0.8-0.6,1.2-0.6c0.5,0,0.9,0.3,1.1,0.7
				C93.5,520,94,519.8,94.5,519.8z"/>
			<path class="st2" d="M97.6,519.8v3c0,0.4,0.2,0.7,0.7,0.7c0.4,0,0.9-0.3,1.2-0.6v-3.1h0.6v4.2h-0.6v-0.6h0
				c-0.4,0.4-0.8,0.6-1.2,0.6c-0.7,0-1.2-0.5-1.2-1.2v-3H97.6z"/>
			<path class="st2" d="M102.2,518.2v5.8h-0.6v-5.8H102.2z"/>
			<path class="st2" d="M106.4,521v2.2c0,0.2,0,0.5,0.1,0.8h-0.6l-0.1-0.6c-0.4,0.4-0.9,0.7-1.4,0.7c-0.7,0-1.2-0.5-1.2-1.2
				c0-1.2,1.4-1.5,2.5-1.7V521c0-0.6-0.4-0.8-0.9-0.8c-0.5,0-0.9,0.3-1.1,0.6l-0.5-0.3c0.3-0.6,0.9-0.9,1.6-0.9
				C105.8,519.8,106.4,520.2,106.4,521z M104.6,523.6c0.4,0,1-0.3,1.3-0.7v-1.1c-0.7,0.1-2,0.4-2,1.2
				C103.9,523.3,104.2,523.6,104.6,523.6z"/>
			<path class="st2" d="M108.4,518.5v1.4h1v0.5h-1v3c0,0.2,0.1,0.3,0.5,0.3c0.2,0,0.3,0,0.5,0v0.5c-0.1,0-0.3,0.1-0.7,0.1
				c-0.6,0-0.9-0.1-0.9-0.7v-3.1h-0.7v-0.5h0.7v-1.4H108.4z"/>
			<path class="st2" d="M111,518.1v0.7h-0.6v-0.7H111z M111,519.8v4.2h-0.6v-4.2H111z"/>
			<path class="st2" d="M115.6,520.9v3.1H115v-3c0-0.4-0.2-0.7-0.7-0.7c-0.4,0-0.9,0.3-1.2,0.6v3.1h-0.6v-4.2h0.6v0.6h0
				c0.4-0.4,0.8-0.6,1.2-0.6C115.1,519.8,115.6,520.2,115.6,520.9z"/>
			<path class="st2" d="M120.1,520.3c-0.3,0-0.5,0-0.6,0.1c0.2,0.2,0.3,0.5,0.3,0.8c0,0.8-0.7,1.5-1.5,1.5c-0.3,0-0.4,0-0.7-0.1
				c-0.2,0.1-0.3,0.2-0.3,0.4c0,0.2,0.1,0.3,0.4,0.3c1.8,0,2.6,0.3,2.6,1.2c0,0.6-0.6,1.1-1.9,1.1c-1.2,0-1.8-0.3-1.8-1
				c0-0.4,0.3-0.6,0.7-0.8c-0.3-0.1-0.5-0.3-0.5-0.6c0-0.4,0.3-0.5,0.6-0.7c-0.4-0.3-0.6-0.7-0.6-1.2c0-0.9,0.7-1.5,1.6-1.5
				c0.4,0,0.8,0.1,1,0.3c0.2-0.2,0.6-0.3,0.9-0.4V520.3z M118.3,525c0.8,0,1.3-0.2,1.3-0.6c0-0.4-0.4-0.6-1.4-0.6
				c-0.6,0-1.2,0.2-1.2,0.7C117,524.9,117.3,525,118.3,525z M118.3,522.2c0.6,0,1-0.4,1-0.9c0-0.6-0.4-1-1.1-1c-0.6,0-1,0.4-1,1
				S117.7,522.2,118.3,522.2z"/>
			<path class="st2" d="M126.2,521v2.2c0,0.2,0,0.5,0.1,0.8h-0.6l-0.1-0.6c-0.4,0.4-0.9,0.7-1.4,0.7c-0.7,0-1.2-0.5-1.2-1.2
				c0-1.2,1.4-1.5,2.5-1.7V521c0-0.6-0.4-0.8-0.9-0.8c-0.5,0-0.9,0.3-1.1,0.6l-0.5-0.3c0.3-0.6,0.9-0.9,1.6-0.9
				C125.6,519.8,126.2,520.2,126.2,521z M124.4,523.6c0.4,0,1-0.3,1.3-0.7v-1.1c-0.7,0.1-2,0.4-2,1.2
				C123.7,523.3,124,523.6,124.4,523.6z"/>
			<path class="st2" d="M130.6,520.3c-0.3,0-0.5,0-0.6,0.1c0.2,0.2,0.3,0.5,0.3,0.8c0,0.8-0.7,1.5-1.5,1.5c-0.3,0-0.4,0-0.7-0.1
				c-0.2,0.1-0.3,0.2-0.3,0.4c0,0.2,0.1,0.3,0.4,0.3c1.8,0,2.6,0.3,2.6,1.2c0,0.6-0.6,1.1-1.9,1.1c-1.2,0-1.8-0.3-1.8-1
				c0-0.4,0.3-0.6,0.7-0.8c-0.3-0.1-0.5-0.3-0.5-0.6c0-0.4,0.3-0.5,0.6-0.7c-0.4-0.3-0.6-0.7-0.6-1.2c0-0.9,0.7-1.5,1.6-1.5
				c0.4,0,0.8,0.1,1,0.3c0.2-0.2,0.6-0.3,0.9-0.4V520.3z M128.8,525c0.8,0,1.3-0.2,1.3-0.6c0-0.4-0.4-0.6-1.4-0.6
				c-0.6,0-1.2,0.2-1.2,0.7C127.5,524.9,127.7,525,128.8,525z M128.7,522.2c0.6,0,1-0.4,1-0.9c0-0.6-0.4-1-1.1-1c-0.6,0-1,0.4-1,1
				S128.1,522.2,128.7,522.2z"/>
			<path class="st2" d="M134.3,521.6v0.4h-2.7c0,1,0.6,1.6,1.2,1.6c0.5,0,0.9-0.3,1.1-0.7l0.4,0.2c-0.4,0.7-0.9,1-1.6,1
				c-1.1,0-1.8-0.8-1.8-2.2c0-1.5,0.8-2.2,1.7-2.2C133.7,519.8,134.3,520.4,134.3,521.6z M133.8,521.5c0-0.8-0.4-1.3-1-1.3
				c-0.6,0-1,0.4-1.1,1.3H133.8z"/>
			<path class="st2" d="M138.5,520.9v3.1h-0.6v-3c0-0.4-0.2-0.7-0.7-0.7c-0.4,0-0.9,0.3-1.2,0.6v3.1h-0.6v-4.2h0.6v0.6h0
				c0.4-0.4,0.8-0.6,1.2-0.6C138,519.8,138.5,520.2,138.5,520.9z"/>
			<path class="st2" d="M140.6,518.5v1.4h1v0.5h-1v3c0,0.2,0.1,0.3,0.5,0.3c0.2,0,0.3,0,0.5,0v0.5c-0.1,0-0.3,0.1-0.7,0.1
				c-0.6,0-0.9-0.1-0.9-0.7v-3.1h-0.7v-0.5h0.7v-1.4H140.6z"/>
			<path class="st2" d="M143.5,523.1v0.9l-0.5,1.2h-0.3l0.4-1.2h-0.3v-0.9H143.5z M143.5,520.8v0.9h-0.8v-0.9H143.5z"/>
		</g>
		<g class="st1">
			<path class="st2" d="M12.5,526.2v2.5h2.8v-2.5h0.6v5.8h-0.6v-2.8h-2.8v2.8h-0.6v-5.8H12.5z"/>
			<path class="st2" d="M18.1,526.2v2c0.4-0.3,0.7-0.5,1.1-0.5c0.8,0,1.7,0.6,1.7,2.2c0,1.5-0.8,2.2-1.7,2.2c-0.5,0-0.9-0.2-1.2-0.5
				l-0.1,0.4h-0.4c0-0.1,0-0.3,0-0.4v-5.4H18.1z M18.1,531c0.4,0.4,0.7,0.6,1,0.6c0.9,0,1.2-0.8,1.2-1.6c0-1.1-0.4-1.7-1.2-1.7
				c-0.3,0-0.7,0.2-1,0.6V531z"/>
			<path class="st2" d="M22.8,531.1v0.9l-0.5,1.2H22l0.4-1.2H22v-0.9H22.8z"/>
			<path class="st2" d="M27.4,526.2v2.2h0c0.4-0.4,0.8-0.6,1.2-0.6c0.8,0,1.2,0.5,1.2,1.2v3.1h-0.6v-3c0-0.4-0.2-0.7-0.7-0.7
				c-0.4,0-0.9,0.3-1.2,0.6v3.1h-0.6v-5.8H27.4z"/>
			<path class="st2" d="M34,529v2.2c0,0.2,0,0.5,0.1,0.8h-0.6l-0.1-0.6c-0.4,0.4-0.9,0.7-1.4,0.7c-0.7,0-1.2-0.5-1.2-1.2
				c0-1.2,1.4-1.5,2.5-1.7V529c0-0.6-0.4-0.8-0.9-0.8c-0.5,0-0.9,0.3-1.1,0.6l-0.5-0.3c0.3-0.6,0.9-0.9,1.6-0.9
				C33.4,527.8,34,528.2,34,529z M32.2,531.6c0.4,0,1-0.3,1.3-0.7v-1.1c-0.7,0.1-2,0.4-2,1.2C31.5,531.3,31.8,531.6,32.2,531.6z"/>
			<path class="st2" d="M38.1,529.6v0.4h-2.7c0,1,0.6,1.6,1.2,1.6c0.5,0,0.9-0.3,1.1-0.7l0.4,0.2c-0.4,0.7-0.9,1-1.6,1
				c-1.1,0-1.8-0.8-1.8-2.2c0-1.5,0.8-2.2,1.7-2.2C37.5,527.8,38.1,528.4,38.1,529.6z M37.6,529.5c0-0.8-0.4-1.3-1-1.3
				s-1,0.4-1.1,1.3H37.6z"/>
			<path class="st2" d="M43.4,527.8c0.8,0,1.1,0.4,1.1,1.2v3H44v-3c0-0.5-0.2-0.7-0.6-0.7c-0.5,0-0.8,0.3-1.2,0.6v3.1h-0.6v-3
				c0-0.5-0.2-0.7-0.6-0.7c-0.5,0-0.8,0.3-1.2,0.6v3.1h-0.6v-4.2h0.6v0.6c0.4-0.4,0.8-0.6,1.2-0.6c0.5,0,0.9,0.3,1.1,0.7
				C42.5,528,42.9,527.8,43.4,527.8z"/>
			<path class="st2" d="M48.9,529.9c0,1.1-0.5,2.2-1.7,2.2s-1.7-1-1.7-2.2c0-1.1,0.5-2.2,1.7-2.2S48.9,528.8,48.9,529.9z
				 M47.2,531.6c0.8,0,1.1-0.8,1.1-1.7s-0.3-1.7-1.1-1.7c-0.8,0-1.1,0.9-1.1,1.7C46.1,530.7,46.4,531.6,47.2,531.6z"/>
			<path class="st2" d="M53.1,528.3c-0.3,0-0.5,0-0.6,0.1c0.2,0.2,0.3,0.5,0.3,0.8c0,0.8-0.7,1.5-1.5,1.5c-0.3,0-0.4,0-0.7-0.1
				c-0.2,0.1-0.3,0.2-0.3,0.4c0,0.2,0.1,0.3,0.4,0.3c1.8,0,2.6,0.3,2.6,1.2c0,0.6-0.6,1.1-1.9,1.1c-1.2,0-1.8-0.3-1.8-1
				c0-0.4,0.3-0.6,0.7-0.8c-0.3-0.1-0.5-0.3-0.5-0.6c0-0.4,0.3-0.5,0.6-0.7c-0.4-0.3-0.6-0.7-0.6-1.2c0-0.9,0.7-1.5,1.6-1.5
				c0.4,0,0.8,0.1,1,0.3c0.2-0.2,0.6-0.3,0.9-0.4V528.3z M51.2,533c0.8,0,1.3-0.2,1.3-0.6c0-0.4-0.4-0.6-1.4-0.6
				c-0.6,0-1.2,0.2-1.2,0.7C49.9,532.9,50.2,533,51.2,533z M51.2,530.2c0.6,0,1-0.4,1-0.9c0-0.6-0.4-1-1.1-1c-0.6,0-1,0.4-1,1
				S50.6,530.2,51.2,530.2z"/>
			<path class="st2" d="M54.6,526.2v5.8H54v-5.8H54.6z"/>
			<path class="st2" d="M59.1,529.9c0,1.1-0.5,2.2-1.7,2.2s-1.7-1-1.7-2.2c0-1.1,0.5-2.2,1.7-2.2S59.1,528.8,59.1,529.9z
				 M57.4,531.6c0.8,0,1.1-0.8,1.1-1.7s-0.3-1.7-1.1-1.7c-0.8,0-1.1,0.9-1.1,1.7C56.3,530.7,56.6,531.6,57.4,531.6z"/>
			<path class="st2" d="M60.7,526.2v2c0.4-0.3,0.7-0.5,1.1-0.5c0.8,0,1.7,0.6,1.7,2.2c0,1.5-0.8,2.2-1.7,2.2c-0.5,0-0.9-0.2-1.2-0.5
				l-0.1,0.4h-0.4c0-0.1,0-0.3,0-0.4v-5.4H60.7z M60.7,531c0.4,0.4,0.7,0.6,1,0.6c0.9,0,1.2-0.8,1.2-1.6c0-1.1-0.4-1.7-1.2-1.7
				c-0.3,0-0.7,0.2-1,0.6V531z"/>
			<path class="st2" d="M65.3,526.1v0.7h-0.6v-0.7H65.3z M65.3,527.8v4.2h-0.6v-4.2H65.3z"/>
			<path class="st2" d="M69.8,528.9v3.1h-0.6v-3c0-0.4-0.2-0.7-0.7-0.7c-0.4,0-0.9,0.3-1.2,0.6v3.1h-0.6v-4.2h0.6v0.6h0
				c0.4-0.4,0.8-0.6,1.2-0.6C69.4,527.8,69.8,528.2,69.8,528.9z"/>
			<path class="st2" d="M72.2,531.1v0.9l-0.5,1.2h-0.3l0.4-1.2h-0.3v-0.9H72.2z M72.2,528.8v0.9h-0.8v-0.9H72.2z"/>
			<path class="st2" d="M77.1,526.2v5.8h-0.6v-5.8H77.1z"/>
			<path class="st2" d="M78.9,526.2l1.4,4.7h0l1.4-4.7h0.6l-1.8,5.8H80l-1.8-5.8H78.9z"/>
			<path class="st2" d="M83.3,531.1v0.9l-0.5,1.2h-0.3l0.4-1.2h-0.3v-0.9H83.3z"/>
			<path class="st2" d="M87.9,526.1v0.7h-0.6v-0.7H87.9z M87.9,527.8v4.2h-0.6v-4.2H87.9z"/>
			<path class="st2" d="M92.5,528.9v3.1h-0.6v-3c0-0.4-0.2-0.7-0.7-0.7c-0.4,0-0.9,0.3-1.2,0.6v3.1h-0.6v-4.2h0.6v0.6h0
				c0.4-0.4,0.8-0.6,1.2-0.6C92.1,527.8,92.5,528.2,92.5,528.9z"/>
			<path class="st2" d="M94.6,526.5v1.4h1v0.5h-1v3c0,0.2,0.1,0.3,0.5,0.3c0.2,0,0.3,0,0.5,0v0.5c-0.1,0-0.3,0.1-0.7,0.1
				c-0.6,0-0.9-0.1-0.9-0.7v-3.1h-0.7v-0.5H94v-1.4H94.6z"/>
			<path class="st2" d="M98.4,528.4c-0.8,0-1.1,0.5-1.4,1.3v2.3h-0.6v-4.2H97v0.8h0c0.3-0.6,0.7-0.9,1.3-0.9h0V528.4z"/>
			<path class="st2" d="M102,529v2.2c0,0.2,0,0.5,0.1,0.8h-0.6l-0.1-0.6c-0.4,0.4-0.9,0.7-1.4,0.7c-0.7,0-1.2-0.5-1.2-1.2
				c0-1.2,1.4-1.5,2.5-1.7V529c0-0.6-0.4-0.8-0.9-0.8c-0.5,0-0.9,0.3-1.1,0.6l-0.5-0.3c0.3-0.6,0.9-0.9,1.6-0.9
				C101.4,527.8,102,528.2,102,529z M100.2,531.6c0.4,0,1-0.3,1.3-0.7v-1.1c-0.7,0.1-2,0.4-2,1.2C99.5,531.3,99.8,531.6,100.2,531.6
				z"/>
			<path class="st2" d="M103.3,527.8l1.1,3.4h0l1.1-3.4h0.6l-1.2,4.2H104l-1.3-4.2H103.3z"/>
			<path class="st2" d="M109.7,529.6v0.4H107c0,1,0.6,1.6,1.2,1.6c0.5,0,0.9-0.3,1.1-0.7l0.4,0.2c-0.4,0.7-0.9,1-1.6,1
				c-1.1,0-1.8-0.8-1.8-2.2c0-1.5,0.8-2.2,1.7-2.2C109,527.8,109.7,528.4,109.7,529.6z M109.1,529.5c0-0.8-0.4-1.3-1-1.3
				s-1,0.4-1.1,1.3H109.1z"/>
			<path class="st2" d="M113.8,528.9v3.1h-0.6v-3c0-0.4-0.2-0.7-0.7-0.7c-0.4,0-0.9,0.3-1.2,0.6v3.1h-0.6v-4.2h0.6v0.6h0
				c0.4-0.4,0.8-0.6,1.2-0.6C113.4,527.8,113.8,528.2,113.8,528.9z"/>
			<path class="st2" d="M118.2,529.9c0,1.1-0.5,2.2-1.7,2.2s-1.7-1-1.7-2.2c0-1.1,0.5-2.2,1.7-2.2S118.2,528.8,118.2,529.9z
				 M116.5,531.6c0.8,0,1.1-0.8,1.1-1.7s-0.3-1.7-1.1-1.7c-0.8,0-1.1,0.9-1.1,1.7C115.4,530.7,115.7,531.6,116.5,531.6z"/>
			<path class="st2" d="M119.8,527.8v3c0,0.4,0.2,0.7,0.7,0.7c0.4,0,0.9-0.3,1.2-0.6v-3.1h0.6v4.2h-0.6v-0.6h0
				c-0.4,0.4-0.8,0.6-1.2,0.6c-0.7,0-1.2-0.5-1.2-1.2v-3H119.8z"/>
			<path class="st2" d="M126.1,528.5l-0.4,0.4c-0.3-0.4-0.6-0.6-1.1-0.6c-0.5,0-0.8,0.2-0.8,0.6c0,0.3,0.3,0.5,0.9,0.7
				c0.8,0.2,1.5,0.5,1.5,1.3c0,0.8-0.7,1.2-1.5,1.2c-0.6,0-1.3-0.3-1.7-0.8l0.5-0.3c0.3,0.4,0.7,0.6,1.2,0.6c0.5,0,0.9-0.2,0.9-0.7
				c0-0.4-0.3-0.6-0.9-0.7c-0.9-0.3-1.5-0.5-1.5-1.2c0-0.8,0.6-1.2,1.3-1.2C125.2,527.8,125.8,528,126.1,528.5z"/>
		</g>
		<g class="st1">
			<path class="st2" d="M15.3,534.2v0.9h-2.6v1.4h1.9v0.9h-1.9v2.5h-1.1v-5.8H15.3z"/>
			<path class="st2" d="M19.3,537.9c0,1.3-0.7,2.2-1.8,2.2c-1.1,0-1.8-0.8-1.8-2.2c0-1.3,0.7-2.2,1.8-2.2S19.3,536.6,19.3,537.9z
				 M17.4,539.3c0.5,0,0.8-0.4,0.8-1.4c0-0.9-0.3-1.4-0.8-1.4c-0.6,0-0.8,0.5-0.8,1.4C16.6,538.9,16.9,539.3,17.4,539.3z"/>
			<path class="st2" d="M22,536.8c0,0-0.1,0-0.2,0c-0.5,0-0.9,0.5-0.9,0.7v2.5h-1v-4.2h0.9v0.7h0c0.2-0.5,0.6-0.8,1.2-0.8V536.8z"/>
			<path class="st2" d="M26.3,534.2v2.3h2.2v-2.3h1.1v5.8h-1.1v-2.5h-2.2v2.5h-1.1v-5.8H26.3z"/>
			<path class="st2" d="M34,537.6v0.4h-2.5c0,0.8,0.3,1.2,0.9,1.2c0.4,0,0.6-0.1,0.9-0.5l0.7,0.4c-0.4,0.6-0.9,0.8-1.7,0.8
				c-1.1,0-1.8-0.8-1.8-2.2s0.7-2.2,1.8-2.2C33.5,535.8,34,536.8,34,537.6z M33.1,537.4c0-0.6-0.3-0.9-0.8-0.9
				c-0.5,0-0.8,0.3-0.8,0.9H33.1z"/>
			<path class="st2" d="M37.8,537.4v2c0,0.1,0,0.4,0.1,0.6h-1l-0.1-0.4c-0.4,0.3-0.8,0.4-1.3,0.4c-0.7,0-1.1-0.5-1.1-1.1
				c0-0.9,0.8-1.4,2.4-1.6V537c0-0.3-0.3-0.5-0.6-0.5c-0.3,0-0.6,0.2-0.9,0.5l-0.6-0.5c0.3-0.4,0.9-0.8,1.5-0.8
				C37.4,535.8,37.8,536.2,37.8,537.4z M35.9,539.3c0.3,0,0.6-0.2,0.9-0.4V538c-1.1,0.2-1.4,0.5-1.4,0.8
				C35.5,539.2,35.7,539.3,35.9,539.3z"/>
			<path class="st2" d="M39.9,534.2v5.8h-1v-5.8H39.9z"/>
			<path class="st2" d="M42.2,534.5v1.4H43v0.8h-0.8v2.4c0,0.2,0.1,0.3,0.4,0.3c0.2,0,0.3,0,0.5-0.1v0.8c-0.3,0-0.5,0.1-0.8,0.1
				c-0.7,0-1-0.3-1-1v-2.5h-0.6v-0.8h0.6v-1.4H42.2z"/>
			<path class="st2" d="M44.7,534.2v2.1c0.4-0.4,0.8-0.5,1.2-0.5c0.8,0,1.2,0.5,1.2,1.4v2.9h-1v-2.7c0-0.5-0.1-0.7-0.5-0.7
				c-0.3,0-0.7,0.2-0.9,0.4v3h-1v-5.8H44.7z"/>
			<path class="st2" d="M51.3,536.9l-0.8,0.3c-0.2-0.5-0.4-0.6-0.8-0.6c-0.6,0-0.8,0.4-0.8,1.4c0,0.9,0.3,1.4,0.8,1.4
				c0.4,0,0.6-0.2,0.9-0.7l0.8,0.4c-0.4,0.7-0.9,1-1.6,1c-1.2,0-1.8-0.8-1.8-2.2c0-1.3,0.7-2.2,1.8-2.2
				C50.4,535.8,51.1,536.2,51.3,536.9z"/>
			<path class="st2" d="M55.2,537.4v2c0,0.1,0,0.4,0.1,0.6h-1l-0.1-0.4c-0.4,0.3-0.8,0.4-1.3,0.4c-0.7,0-1.1-0.5-1.1-1.1
				c0-0.9,0.8-1.4,2.4-1.6V537c0-0.3-0.3-0.5-0.6-0.5c-0.3,0-0.6,0.2-0.9,0.5l-0.6-0.5c0.3-0.4,0.9-0.8,1.5-0.8
				C54.7,535.8,55.2,536.2,55.2,537.4z M53.3,539.3c0.3,0,0.6-0.2,0.9-0.4V538c-1.1,0.2-1.4,0.5-1.4,0.8
				C52.8,539.2,53,539.3,53.3,539.3z"/>
			<path class="st2" d="M58.2,536.8c0,0-0.1,0-0.2,0c-0.5,0-0.9,0.5-0.9,0.7v2.5h-1v-4.2H57v0.7h0c0.2-0.5,0.6-0.8,1.2-0.8V536.8z"
				/>
			<path class="st2" d="M62,537.6v0.4h-2.5c0,0.8,0.3,1.2,0.9,1.2c0.4,0,0.6-0.1,0.9-0.5l0.7,0.4c-0.4,0.6-0.9,0.8-1.7,0.8
				c-1.1,0-1.8-0.8-1.8-2.2s0.7-2.2,1.8-2.2C61.5,535.8,62,536.8,62,537.6z M61.1,537.4c0-0.6-0.3-0.9-0.8-0.9
				c-0.5,0-0.8,0.3-0.8,0.9H61.1z"/>
			<path class="st2" d="M67.4,534.2c1.3,0,2,0.6,2,1.7s-0.7,1.7-2,1.7h-1v2.3h-1.1v-5.8H67.4z M67.3,536.8c0.7,0,1-0.2,1-0.8
				s-0.4-0.8-1-0.8h-0.9v1.6H67.3z"/>
			<path class="st2" d="M72.2,536.8c0,0-0.1,0-0.2,0c-0.5,0-0.9,0.5-0.9,0.7v2.5h-1v-4.2H71v0.7h0c0.2-0.5,0.6-0.8,1.2-0.8V536.8z"
				/>
			<path class="st2" d="M76.1,537.9c0,1.3-0.7,2.2-1.8,2.2c-1.1,0-1.8-0.8-1.8-2.2c0-1.3,0.7-2.2,1.8-2.2S76.1,536.6,76.1,537.9z
				 M74.3,539.3c0.5,0,0.8-0.4,0.8-1.4c0-0.9-0.3-1.4-0.8-1.4c-0.6,0-0.8,0.5-0.8,1.4C73.5,538.9,73.8,539.3,74.3,539.3z"/>
			<path class="st2" d="M78.8,534.1v0.8h-0.2c-0.5,0-0.6,0.2-0.6,0.5v0.4h0.8v0.8H78v3.4h-1v-3.4h-0.6v-0.8H77v-0.5
				c0-0.8,0.3-1.2,1.1-1.2H78.8z"/>
			<path class="st2" d="M82.7,537.6v0.4h-2.5c0,0.8,0.3,1.2,0.9,1.2c0.4,0,0.6-0.1,0.9-0.5l0.7,0.4c-0.4,0.6-0.9,0.8-1.7,0.8
				c-1.1,0-1.8-0.8-1.8-2.2s0.7-2.2,1.8-2.2C82.1,535.8,82.7,536.8,82.7,537.6z M81.8,537.4c0-0.6-0.3-0.9-0.8-0.9
				c-0.5,0-0.8,0.3-0.8,0.9H81.8z"/>
			<path class="st2" d="M86.1,536.4l-0.6,0.5c-0.3-0.3-0.5-0.4-0.8-0.4c-0.4,0-0.6,0.2-0.6,0.4c0,0.2,0.2,0.4,0.7,0.6
				c1,0.3,1.3,0.7,1.3,1.4c0,0.8-0.6,1.2-1.5,1.2c-0.7,0-1.2-0.3-1.6-0.8l0.7-0.5c0.3,0.4,0.6,0.6,1,0.6c0.4,0,0.6-0.2,0.6-0.5
				c0-0.2-0.2-0.4-0.8-0.6c-1-0.3-1.3-0.7-1.3-1.3c0-0.7,0.6-1.2,1.4-1.2C85.2,535.8,85.8,536,86.1,536.4z"/>
			<path class="st2" d="M89.7,536.4l-0.6,0.5c-0.3-0.3-0.5-0.4-0.8-0.4c-0.4,0-0.6,0.2-0.6,0.4c0,0.2,0.2,0.4,0.7,0.6
				c1,0.3,1.3,0.7,1.3,1.4c0,0.8-0.6,1.2-1.5,1.2c-0.7,0-1.2-0.3-1.6-0.8l0.7-0.5c0.3,0.4,0.6,0.6,1,0.6s0.6-0.2,0.6-0.5
				c0-0.2-0.2-0.4-0.8-0.6c-1-0.3-1.3-0.7-1.3-1.3c0-0.7,0.6-1.2,1.4-1.2C88.8,535.8,89.3,536,89.7,536.4z"/>
			<path class="st2" d="M91.7,534.1v0.9h-1v-0.9H91.7z M91.7,535.8v4.2h-1v-4.2H91.7z"/>
			<path class="st2" d="M96.1,537.9c0,1.3-0.7,2.2-1.8,2.2c-1.1,0-1.8-0.8-1.8-2.2c0-1.3,0.7-2.2,1.8-2.2S96.1,536.6,96.1,537.9z
				 M94.3,539.3c0.5,0,0.8-0.4,0.8-1.4c0-0.9-0.3-1.4-0.8-1.4c-0.6,0-0.8,0.5-0.8,1.4C93.5,538.9,93.8,539.3,94.3,539.3z"/>
			<path class="st2" d="M100.2,537.1v2.9h-1v-2.7c0-0.5-0.1-0.7-0.5-0.7c-0.3,0-0.7,0.2-0.9,0.4v3h-1v-4.2h0.9v0.4
				c0.5-0.4,0.9-0.5,1.3-0.5C99.8,535.8,100.2,536.3,100.2,537.1z"/>
			<path class="st2" d="M104.3,537.4v2c0,0.1,0,0.4,0.1,0.6h-1l-0.1-0.4c-0.4,0.3-0.8,0.4-1.3,0.4c-0.7,0-1.1-0.5-1.1-1.1
				c0-0.9,0.8-1.4,2.4-1.6V537c0-0.3-0.3-0.5-0.6-0.5c-0.3,0-0.6,0.2-0.9,0.5l-0.6-0.5c0.3-0.4,0.9-0.8,1.5-0.8
				C103.8,535.8,104.3,536.2,104.3,537.4z M102.4,539.3c0.3,0,0.6-0.2,0.9-0.4V538c-1.1,0.2-1.4,0.5-1.4,0.8
				C101.9,539.2,102.1,539.3,102.4,539.3z"/>
			<path class="st2" d="M106.4,534.2v5.8h-1v-5.8H106.4z"/>
			<path class="st2" d="M110.1,536.4l-0.6,0.5c-0.3-0.3-0.5-0.4-0.8-0.4c-0.4,0-0.6,0.2-0.6,0.4c0,0.2,0.2,0.4,0.7,0.6
				c1,0.3,1.3,0.7,1.3,1.4c0,0.8-0.6,1.2-1.5,1.2c-0.7,0-1.2-0.3-1.6-0.8l0.7-0.5c0.3,0.4,0.6,0.6,1,0.6c0.4,0,0.6-0.2,0.6-0.5
				c0-0.2-0.2-0.4-0.8-0.6c-1-0.3-1.3-0.7-1.3-1.3c0-0.7,0.6-1.2,1.4-1.2C109.2,535.8,109.8,536,110.1,536.4z"/>
			<path class="st2" d="M118.1,537.1c0,1.9-0.9,3-2.4,3s-2.4-1.1-2.4-3c0-1.9,0.9-3,2.4-3S118.1,535.2,118.1,537.1z M115.6,539.2
				c0.9,0,1.3-0.7,1.3-2c0-1.4-0.4-2-1.3-2c-0.9,0-1.3,0.6-1.3,2.1C114.3,538.5,114.7,539.2,115.6,539.2z"/>
			<path class="st2" d="M122.2,537.1v2.9h-1v-2.7c0-0.5-0.1-0.7-0.5-0.7c-0.3,0-0.7,0.2-0.9,0.4v3h-1v-4.2h0.9v0.4
				c0.5-0.4,0.9-0.5,1.3-0.5C121.8,535.8,122.2,536.3,122.2,537.1z"/>
			<path class="st2" d="M124.4,534.2v5.8h-1v-5.8H124.4z"/>
			<path class="st2" d="M126.1,535.8l0.7,2.6h0l0.7-2.6h1l-1.3,4.2c-0.1,0.2-0.2,0.5-0.4,0.8c-0.3,0.5-0.7,0.7-1.2,0.7
				c-0.2,0-0.3,0-0.5,0v-0.8c0.1,0,0.3,0,0.5,0c0.2,0,0.4,0,0.5-0.2c0.1-0.1,0.3-0.4,0.3-0.6c0-0.1,0-0.1,0-0.2l-1.2-3.9H126.1z"/>
		</g>
		<g class="st1">
			<path class="st2" d="M14.1,490.1v5.1H15v0.8h-2.8v-0.8h0.9v-4h-1v-0.7c0.5,0,1-0.1,1.3-0.4H14.1z"/>
			<path class="st2" d="M17.7,494.9v1.1h-1.1v-1.1H17.7z"/>
		</g>
		<g class="st1">
			<path class="st2" d="M25.1,490.2v0.5h-2.8v1.9h2v0.5h-2v2.2h3v0.5h-3.6v-5.8H25.1z"/>
			<path class="st2" d="M26.4,490.2l1.4,4.7h0l1.4-4.7H30l-1.8,5.8h-0.6l-1.8-5.8H26.4z"/>
			<path class="st2" d="M32.8,490.2c1.1,0,1.9,0.5,1.9,1.5c0,0.7-0.4,1.2-1.2,1.5l1.2,2.8h-0.7l-1.2-2.6h-1.4v2.6h-0.6v-5.8H32.8z
				 M32.7,492.8c0.8,0,1.3-0.3,1.3-1.1c0-0.7-0.4-1-1.3-1h-1.2v2.1H32.7z"/>
			<path class="st2" d="M39.8,490.2v0.5h-2.8v1.9h2v0.5h-2v2.2h3v0.5h-3.6v-5.8H39.8z"/>
			<path class="st2" d="M42.1,490.2l2.5,4.4h0v-4.4h0.6v5.8h-0.5l-2.9-5.1h0v5.1h-0.6v-5.8H42.1z"/>
			<path class="st2" d="M50.2,490.2v0.4l-2.9,4.8h3v0.5h-3.7v-0.5l2.9-4.8h-2.6v-0.5H50.2z"/>
			<path class="st2" d="M55.5,493.1c0,1.6-0.6,3-2.3,3s-2.3-1.4-2.3-3c0-1.6,0.6-3,2.3-3C54.9,490.1,55.5,491.5,55.5,493.1z
				 M53.2,495.5c1,0,1.6-0.8,1.6-2.4c0-1.6-0.6-2.4-1.6-2.4c-1,0-1.6,0.8-1.6,2.4C51.6,494.7,52.2,495.5,53.2,495.5z"/>
			<path class="st2" d="M62.5,491.6l-0.6,0.1c-0.2-0.6-0.7-1-1.3-1c-0.7,0-1.1,0.3-1.1,0.9c0,0.5,0.5,0.7,1.1,1
				c1.1,0.4,2.1,0.7,2.1,1.8c0,1.2-0.8,1.7-1.9,1.7c-1,0-1.6-0.5-2.1-1.5l0.6-0.2c0.3,0.8,0.8,1.2,1.5,1.2c0.7,0,1.3-0.3,1.3-1
				c0-0.7-0.7-1-1.6-1.3c-1-0.4-1.7-0.7-1.7-1.6c0-0.9,0.8-1.5,1.7-1.5C61.5,490.1,62.2,490.7,62.5,491.6z"/>
			<path class="st2" d="M68.1,491.8c0.8,0,1.1,0.4,1.1,1.2v3h-0.6v-3c0-0.5-0.2-0.7-0.6-0.7c-0.5,0-0.8,0.3-1.2,0.6v3.1h-0.6v-3
				c0-0.5-0.2-0.7-0.6-0.7c-0.5,0-0.8,0.3-1.2,0.6v3.1h-0.6v-4.2h0.6v0.6c0.4-0.4,0.8-0.6,1.2-0.6c0.5,0,0.9,0.3,1.1,0.7
				C67.1,492,67.6,491.8,68.1,491.8z"/>
			<path class="st2" d="M72.7,490.2c1.1,0,1.8,0.5,1.8,1.6c0,1.2-1,1.6-2.1,1.6h-1v2.6h-0.6v-5.8H72.7z M72.4,492.9
				c1,0,1.4-0.3,1.4-1.1s-0.5-1.1-1.3-1.1h-1.2v2.1H72.4z"/>
			<path class="st2" d="M79.3,491.8l-0.6,0.2c-0.2-0.8-0.6-1.3-1.4-1.3c-1.1,0-1.5,1.2-1.5,2.4c0,1.6,0.6,2.4,1.6,2.4
				c0.7,0,1.2-0.4,1.4-1.4l0.6,0.1c-0.3,1.2-1,1.8-2,1.8c-1.6,0-2.2-1.4-2.2-3c0-1.6,0.6-3,2.2-3C78.3,490.1,79,490.7,79.3,491.8z"
				/>
			<path class="st2" d="M81.3,495.1v0.9h-0.8v-0.9H81.3z"/>
		</g>
		<g class="st1">
			<path class="st2" d="M15.3,499.8c0,0.6-0.3,1.1-0.7,1.6c-0.4,0.4-1.6,1.3-2,1.7h2.7v0.9h-3.9v-1c0.1-0.3,0.4-0.7,1.2-1.3
				c1.4-1.1,1.6-1.5,1.6-1.9c0-0.5-0.3-0.8-0.9-0.8c-0.5,0-0.9,0.3-1,0.9l-0.9-0.2c0.1-0.9,1-1.6,2-1.6
				C14.5,498.1,15.3,498.8,15.3,499.8z"/>
			<path class="st2" d="M17.7,502.9v1.1h-1.1v-1.1H17.7z"/>
		</g>
		<g class="st1">
			<path class="st2" d="M23.7,498.2c1,0,1.7,0.5,1.7,1.4c0,0.7-0.3,1.1-1,1.3l0,0c0.7,0.2,1.1,0.8,1.1,1.5c0,1-0.7,1.6-2.1,1.6h-1.8
				v-5.8H23.7z M23.4,500.7c0.7,0,1.4-0.3,1.4-1c0-0.7-0.4-0.9-1.1-0.9h-1.4v1.9H23.4z M23.5,503.5c0.9,0,1.4-0.3,1.4-1
				c0-0.8-0.7-1.2-1.5-1.2h-1.1v2.2H23.5z"/>
			<path class="st2" d="M29.6,501v2.2c0,0.2,0,0.5,0.1,0.8h-0.6l-0.1-0.6c-0.4,0.4-0.9,0.7-1.4,0.7c-0.7,0-1.2-0.5-1.2-1.2
				c0-1.2,1.4-1.5,2.5-1.7V501c0-0.6-0.4-0.8-0.9-0.8c-0.5,0-0.9,0.3-1.1,0.6l-0.5-0.3c0.3-0.6,0.9-0.9,1.6-0.9
				C28.9,499.8,29.6,500.2,29.6,501z M27.7,503.6c0.4,0,1-0.3,1.3-0.7v-1.1c-0.7,0.1-2,0.4-2,1.2C27,503.3,27.4,503.6,27.7,503.6z"
				/>
			<path class="st2" d="M32.6,500.4c-0.8,0-1.1,0.5-1.4,1.3v2.3h-0.6v-4.2h0.6v0.8h0c0.3-0.6,0.7-0.9,1.3-0.9h0V500.4z"/>
			<path class="st2" d="M35.3,500.4c-0.8,0-1.1,0.5-1.4,1.3v2.3h-0.6v-4.2h0.6v0.8h0c0.3-0.6,0.7-0.9,1.3-0.9h0V500.4z"/>
			<path class="st2" d="M38.9,501v2.2c0,0.2,0,0.5,0.1,0.8h-0.6l-0.1-0.6c-0.4,0.4-0.9,0.7-1.4,0.7c-0.7,0-1.2-0.5-1.2-1.2
				c0-1.2,1.4-1.5,2.5-1.7V501c0-0.6-0.4-0.8-0.9-0.8c-0.5,0-0.9,0.3-1.1,0.6l-0.5-0.3c0.3-0.6,0.9-0.9,1.6-0.9
				C38.2,499.8,38.9,500.2,38.9,501z M37,503.6c0.4,0,1-0.3,1.3-0.7v-1.1c-0.7,0.1-2,0.4-2,1.2C36.3,503.3,36.7,503.6,37,503.6z"/>
			<path class="st2" d="M40.8,498.5v1.4h1v0.5h-1v3c0,0.2,0.1,0.3,0.5,0.3c0.2,0,0.3,0,0.5,0v0.5c-0.1,0-0.3,0.1-0.7,0.1
				c-0.6,0-0.9-0.1-0.9-0.7v-3.1h-0.7v-0.5h0.7v-1.4H40.8z"/>
			<path class="st2" d="M43.5,498.5v1.4h1v0.5h-1v3c0,0.2,0.1,0.3,0.5,0.3c0.2,0,0.3,0,0.5,0v0.5c-0.1,0-0.3,0.1-0.7,0.1
				c-0.6,0-0.9-0.1-0.9-0.7v-3.1h-0.7v-0.5h0.7v-1.4H43.5z"/>
			<path class="st2" d="M50,498.2v4.3c0,1-0.4,1.5-1.3,1.5c-0.6,0-1-0.2-1.4-0.7l0.5-0.3c0.2,0.3,0.5,0.5,0.9,0.5
				c0.5,0,0.7-0.3,0.7-0.8v-4.5H50z"/>
			<path class="st2" d="M56.8,501.6v0.4h-2.7c0,1,0.6,1.6,1.2,1.6c0.5,0,0.9-0.3,1.1-0.7l0.4,0.2c-0.4,0.7-0.9,1-1.6,1
				c-1.1,0-1.8-0.8-1.8-2.2c0-1.5,0.8-2.2,1.7-2.2C56.1,499.8,56.8,500.4,56.8,501.6z M56.2,501.5c0-0.8-0.4-1.3-1-1.3
				c-0.6,0-1,0.4-1.1,1.3H56.2z"/>
			<path class="st2" d="M58.6,498.5v1.4h1v0.5h-1v3c0,0.2,0.1,0.3,0.5,0.3c0.2,0,0.3,0,0.5,0v0.5c-0.1,0-0.3,0.1-0.7,0.1
				c-0.6,0-0.9-0.1-0.9-0.7v-3.1h-0.7v-0.5H58v-1.4H58.6z"/>
			<path class="st2" d="M65.7,501v2.2c0,0.2,0,0.5,0.1,0.8h-0.6l-0.1-0.6c-0.4,0.4-0.9,0.7-1.4,0.7c-0.7,0-1.2-0.5-1.2-1.2
				c0-1.2,1.4-1.5,2.5-1.7V501c0-0.6-0.4-0.8-0.9-0.8c-0.5,0-0.9,0.3-1.1,0.6l-0.5-0.3c0.3-0.6,0.9-0.9,1.6-0.9
				C65.1,499.8,65.7,500.2,65.7,501z M63.9,503.6c0.4,0,1-0.3,1.3-0.7v-1.1c-0.7,0.1-2,0.4-2,1.2C63.2,503.3,63.6,503.6,63.9,503.6z
				"/>
			<path class="st2" d="M67.7,498.2v5.8h-0.6v-5.8H67.7z"/>
			<path class="st2" d="M70.1,503.1v0.9h-0.8v-0.9H70.1z"/>
			<path class="st2" d="M75.2,498.2l2.5,4.4h0v-4.4h0.6v5.8h-0.5l-2.9-5.1h0v5.1h-0.6v-5.8H75.2z"/>
			<path class="st2" d="M82.8,501.6v0.4h-2.7c0,1,0.6,1.6,1.2,1.6c0.5,0,0.9-0.3,1.1-0.7l0.4,0.2c-0.4,0.7-0.9,1-1.6,1
				c-1.1,0-1.8-0.8-1.8-2.2c0-1.5,0.8-2.2,1.7-2.2C82.1,499.8,82.8,500.4,82.8,501.6z M82.2,501.5c0-0.8-0.4-1.3-1-1.3
				c-0.6,0-1,0.4-1.1,1.3H82.2z"/>
			<path class="st2" d="M87.3,501.9c0,1.7-1.1,2.2-1.7,2.2c-0.4,0-0.8-0.2-1.1-0.5v1.9h-0.6v-5.7h0.6v0.5c0.2-0.3,0.7-0.6,1.1-0.6
				C86.1,499.8,87.3,500.1,87.3,501.9z M84.5,503c0.4,0.4,0.7,0.6,1.1,0.6c0.8,0,1.2-0.6,1.2-1.7c0-1-0.4-1.6-1.2-1.6
				c-0.4,0-0.8,0.3-1,0.6V503z"/>
			<path class="st2" d="M88.9,498.2v2.2h0c0.4-0.4,0.8-0.6,1.2-0.6c0.8,0,1.2,0.5,1.2,1.2v3.1h-0.6v-3c0-0.4-0.2-0.7-0.7-0.7
				c-0.4,0-0.9,0.3-1.2,0.6v3.1h-0.6v-5.8H88.9z"/>
			<path class="st2" d="M94.6,500.4c-0.8,0-1.1,0.5-1.4,1.3v2.3h-0.6v-4.2h0.6v0.8h0c0.3-0.6,0.7-0.9,1.3-0.9h0V500.4z"/>
			<path class="st2" d="M98.4,501.9c0,1.1-0.5,2.2-1.7,2.2s-1.7-1-1.7-2.2c0-1.1,0.5-2.2,1.7-2.2S98.4,500.8,98.4,501.9z
				 M96.7,503.6c0.8,0,1.1-0.8,1.1-1.7s-0.3-1.7-1.1-1.7c-0.8,0-1.1,0.9-1.1,1.7C95.6,502.7,95.9,503.6,96.7,503.6z"/>
			<path class="st2" d="M100.1,498.2v5.8h-0.6v-5.8H100.1z"/>
			<path class="st2" d="M105.8,498.2c1.7,0,2.6,1.2,2.6,2.9c0,1.7-0.9,2.9-2.6,2.9h-1.6v-5.8H105.8z M105.7,503.5c1.4,0,2-0.9,2-2.3
				c0-1.6-0.7-2.3-2-2.3h-0.9v4.7H105.7z"/>
			<path class="st2" d="M110.1,498.1v0.7h-0.6v-0.7H110.1z M110.1,499.8v4.2h-0.6v-4.2H110.1z"/>
			<path class="st2" d="M114.4,501v2.2c0,0.2,0,0.5,0.1,0.8h-0.6l-0.1-0.6c-0.4,0.4-0.9,0.7-1.4,0.7c-0.7,0-1.2-0.5-1.2-1.2
				c0-1.2,1.4-1.5,2.5-1.7V501c0-0.6-0.4-0.8-0.9-0.8c-0.5,0-0.9,0.3-1.1,0.6l-0.5-0.3c0.3-0.6,0.9-0.9,1.6-0.9
				C113.8,499.8,114.4,500.2,114.4,501z M112.6,503.6c0.4,0,1-0.3,1.3-0.7v-1.1c-0.7,0.1-2,0.4-2,1.2
				C111.9,503.3,112.2,503.6,112.6,503.6z"/>
			<path class="st2" d="M116.4,498.2v5.8h-0.6v-5.8H116.4z"/>
		</g>
		<g class="st1">
			<path class="st2" d="M15.3,506.2v0.5h-1.7v5.2h-0.6v-5.2h-1.7v-0.5H15.3z"/>
			<path class="st2" d="M17.2,508.4c-0.8,0-1.1,0.5-1.4,1.3v2.3h-0.6v-4.2h0.6v0.8h0c0.3-0.6,0.7-0.9,1.3-0.9h0V508.4z"/>
			<path class="st2" d="M20.8,509v2.2c0,0.2,0,0.5,0.1,0.8h-0.6l-0.1-0.6c-0.4,0.4-0.9,0.7-1.4,0.7c-0.7,0-1.2-0.5-1.2-1.2
				c0-1.2,1.4-1.5,2.5-1.7V509c0-0.6-0.4-0.8-0.9-0.8c-0.5,0-0.9,0.3-1.1,0.6l-0.5-0.3c0.3-0.6,0.9-0.9,1.6-0.9
				C20.2,507.8,20.8,508.2,20.8,509z M19,511.6c0.4,0,1-0.3,1.3-0.7v-1.1c-0.7,0.1-2,0.4-2,1.2C18.3,511.3,18.6,511.6,19,511.6z"/>
			<path class="st2" d="M25.1,508.9v3.1h-0.6v-3c0-0.4-0.2-0.7-0.7-0.7c-0.4,0-0.9,0.3-1.2,0.6v3.1h-0.6v-4.2h0.6v0.6h0
				c0.4-0.4,0.8-0.6,1.2-0.6C24.7,507.8,25.1,508.2,25.1,508.9z"/>
			<path class="st2" d="M28.9,508.5l-0.4,0.4c-0.3-0.4-0.6-0.6-1.1-0.6c-0.5,0-0.8,0.2-0.8,0.6c0,0.3,0.3,0.5,0.9,0.7
				c0.8,0.2,1.5,0.5,1.5,1.3c0,0.8-0.7,1.2-1.5,1.2c-0.6,0-1.3-0.3-1.7-0.8l0.5-0.3c0.3,0.4,0.7,0.6,1.2,0.6c0.5,0,0.9-0.2,0.9-0.7
				c0-0.4-0.3-0.6-0.9-0.7c-0.9-0.3-1.5-0.5-1.5-1.2c0-0.8,0.6-1.2,1.3-1.2C28,507.8,28.7,508,28.9,508.5z"/>
			<path class="st2" d="M33.5,509.9c0,1.7-1.1,2.2-1.7,2.2c-0.4,0-0.8-0.2-1.1-0.5v1.9h-0.6v-5.7h0.6v0.5c0.2-0.3,0.7-0.6,1.1-0.6
				C32.3,507.8,33.5,508.1,33.5,509.9z M30.7,511c0.4,0.4,0.7,0.6,1.1,0.6c0.8,0,1.2-0.6,1.2-1.7c0-1-0.4-1.6-1.2-1.6
				c-0.4,0-0.8,0.3-1,0.6V511z"/>
			<path class="st2" d="M35.2,506.2v5.8h-0.6v-5.8H35.2z"/>
			<path class="st2" d="M39.5,509v2.2c0,0.2,0,0.5,0.1,0.8H39l-0.1-0.6c-0.4,0.4-0.9,0.7-1.4,0.7c-0.7,0-1.2-0.5-1.2-1.2
				c0-1.2,1.4-1.5,2.5-1.7V509c0-0.6-0.4-0.8-0.9-0.8c-0.5,0-0.9,0.3-1.1,0.6l-0.5-0.3c0.3-0.6,0.9-0.9,1.6-0.9
				C38.9,507.8,39.5,508.2,39.5,509z M37.7,511.6c0.4,0,1-0.3,1.3-0.7v-1.1c-0.7,0.1-2,0.4-2,1.2C37,511.3,37.3,511.6,37.7,511.6z"
				/>
			<path class="st2" d="M43.8,508.9v3.1h-0.6v-3c0-0.4-0.2-0.7-0.7-0.7c-0.4,0-0.9,0.3-1.2,0.6v3.1h-0.6v-4.2h0.6v0.6h0
				c0.4-0.4,0.8-0.6,1.2-0.6C43.3,507.8,43.8,508.2,43.8,508.9z"/>
			<path class="st2" d="M45.9,506.5v1.4h1v0.5h-1v3c0,0.2,0.1,0.3,0.5,0.3c0.2,0,0.3,0,0.5,0v0.5c-0.1,0-0.3,0.1-0.7,0.1
				c-0.6,0-0.9-0.1-0.9-0.7v-3.1h-0.7v-0.5h0.7v-1.4H45.9z"/>
			<path class="st2" d="M48.8,511.1v0.9H48v-0.9H48.8z"/>
			<path class="st2" d="M56.3,507.7c0,0.6-0.2,1-0.6,1.4c-0.2,0.2-0.5,0.5-1,0.8c-0.7,0.5-1.2,0.9-1.5,1.6h3.1v0.5h-3.8v-0.6
				c0.3-0.7,0.9-1.3,1.5-1.7c0.3-0.2,0.6-0.4,0.9-0.6c0.5-0.4,0.8-0.8,0.8-1.4c0-0.7-0.4-1.1-1.2-1.1c-0.7,0-1.2,0.5-1.4,1.3
				l-0.6-0.1c0.3-1.1,0.9-1.6,1.9-1.6C55.5,506.1,56.3,506.7,56.3,507.7z"/>
			<path class="st2" d="M61.4,509.1c0,2-0.7,3-2,3c-1.3,0-2-1-2-3c0-2,0.7-3,2-3C60.7,506.1,61.4,507.2,61.4,509.1z M59.4,511.6
				c1,0,1.4-0.8,1.4-2.5c0-1.7-0.4-2.5-1.4-2.5c-1,0-1.4,0.8-1.4,2.5C57.9,510.8,58.4,511.6,59.4,511.6z"/>
			<path class="st2" d="M66.1,507.7c0,0.6-0.2,1-0.6,1.4c-0.2,0.2-0.5,0.5-1,0.8c-0.7,0.5-1.2,0.9-1.5,1.6h3.1v0.5h-3.8v-0.6
				c0.3-0.7,0.9-1.3,1.5-1.7c0.3-0.2,0.6-0.4,0.9-0.6c0.5-0.4,0.8-0.8,0.8-1.4c0-0.7-0.4-1.1-1.2-1.1c-0.7,0-1.2,0.5-1.4,1.3
				l-0.6-0.1c0.3-1.1,0.9-1.6,1.9-1.6C65.3,506.1,66.1,506.7,66.1,507.7z"/>
			<path class="st2" d="M69.5,506.1v5.4h1v0.5h-2.6v-0.5h1v-4.7l-1.1,0.1v-0.4c0.5-0.1,0.9-0.2,1.1-0.4H69.5z"/>
			<path class="st2" d="M73.2,511.1v0.9l-0.5,1.2h-0.3l0.4-1.2h-0.3v-0.9H73.2z M73.2,508.8v0.9h-0.8v-0.9H73.2z"/>
			<path class="st2" d="M78.1,507.6c0,0.6-0.3,1.1-0.9,1.3c0.7,0.3,1.1,0.8,1.1,1.5c0,1.1-0.9,1.7-2,1.7c-0.9,0-1.6-0.4-2-1.1
				l0.5-0.3c0.4,0.6,1,1,1.6,1c0.7,0,1.4-0.4,1.4-1.1c0-0.9-0.6-1.3-1.6-1.3h-0.6v-0.5h0.4c0.8,0,1.6-0.2,1.6-1.1c0-0.6-0.5-1-1.1-1
				c-0.6,0-1,0.3-1.4,0.8l-0.5-0.3c0.5-0.7,1.1-1,1.9-1C77.4,506.1,78.1,506.6,78.1,507.6z"/>
			<path class="st2" d="M83,506.5l-0.2,0.5c-0.3-0.2-0.6-0.3-1-0.3c-1.2,0-1.8,1.2-1.8,2.4c0.5-0.5,1-0.7,1.6-0.7
				c1,0,1.7,0.7,1.7,1.9c0,1.1-0.8,1.9-1.9,1.9c-1.4,0-2.1-0.9-2.1-2.7c0-1.6,0.7-3.3,2.4-3.3C82.2,506.1,82.7,506.2,83,506.5z
				 M81.4,511.6c0.8,0,1.3-0.5,1.3-1.3c0-0.8-0.5-1.4-1.2-1.4c-0.8,0-1.5,0.7-1.5,1.2C80,510.9,80.6,511.6,81.4,511.6z"/>
			<path class="st2" d="M86.1,506.1c-0.8,1-1.1,2-1.1,3.3c0,1.1,0.4,2.2,1.1,3.2h-0.6c-0.7-1-1.1-2.1-1.1-3.3c0-1.2,0.4-2.3,1.1-3.2
				H86.1z"/>
			<path class="st2" d="M90.9,508.8c0,1.6-0.7,3.3-2.4,3.3c-0.5,0-1-0.1-1.2-0.3l0.2-0.5c0.3,0.2,0.6,0.3,1,0.3
				c1.2,0,1.7-1.2,1.8-2.4c-0.5,0.5-0.9,0.7-1.6,0.7c-0.8,0-1.7-0.5-1.7-1.9c0-1.2,0.8-1.9,1.9-1.9
				C90.2,506.1,90.9,507.1,90.9,508.8z M88.8,509.4c0.7,0,1.2-0.4,1.5-1.1c0-0.9-0.5-1.7-1.4-1.7c-0.7,0-1.3,0.5-1.3,1.3
				C87.6,508.9,88.2,509.4,88.8,509.4z"/>
			<path class="st2" d="M92.4,506.1c0.7,1,1.1,2.1,1.1,3.3c0,1.2-0.4,2.3-1.1,3.2h-0.6c0.8-1,1.1-2,1.1-3.3c0-1.1-0.4-2.1-1.1-3.2
				H92.4z"/>
			<path class="st2" d="M95.6,508.8v0.9h-0.8v-0.9H95.6z M95.6,511.1v0.9h-0.8v-0.9H95.6z"/>
			<path class="st2" d="M99.3,506.1v5.4h1v0.5h-2.6v-0.5h1v-4.7l-1.1,0.1v-0.4c0.5-0.1,0.9-0.2,1.1-0.4H99.3z"/>
			<path class="st2" d="M105.4,506.5l-0.2,0.5c-0.3-0.2-0.6-0.3-1-0.3c-1.2,0-1.8,1.2-1.8,2.4c0.5-0.5,1-0.7,1.6-0.7
				c1,0,1.7,0.7,1.7,1.9c0,1.1-0.8,1.9-1.9,1.9c-1.4,0-2.1-0.9-2.1-2.7c0-1.6,0.7-3.3,2.4-3.3C104.6,506.1,105.2,506.2,105.4,506.5z
				 M103.8,511.6c0.8,0,1.3-0.5,1.3-1.3c0-0.8-0.5-1.4-1.2-1.4c-0.8,0-1.5,0.7-1.5,1.2C102.5,510.9,103,511.6,103.8,511.6z"/>
			<path class="st2" d="M109.1,506.1v5.4h1v0.5h-2.6v-0.5h1v-4.7l-1.1,0.1v-0.4c0.5-0.1,0.9-0.2,1.1-0.4H109.1z"/>
			<path class="st2" d="M115.2,506.5L115,507c-0.3-0.2-0.6-0.3-1-0.3c-1.2,0-1.8,1.2-1.8,2.4c0.5-0.5,1-0.7,1.6-0.7
				c1,0,1.7,0.7,1.7,1.9c0,1.1-0.8,1.9-1.9,1.9c-1.4,0-2.1-0.9-2.1-2.7c0-1.6,0.7-3.3,2.4-3.3C114.4,506.1,114.9,506.2,115.2,506.5z
				 M113.6,511.6c0.8,0,1.3-0.5,1.3-1.3c0-0.8-0.5-1.4-1.2-1.4c-0.8,0-1.5,0.7-1.5,1.2C112.2,510.9,112.8,511.6,113.6,511.6z"/>
			<path class="st2" d="M120,509.7v0.4h-4v-0.4H120z"/>
			<path class="st2" d="M122.8,506.1v5.4h1v0.5h-2.6v-0.5h1v-4.7l-1.1,0.1v-0.4c0.5-0.1,0.9-0.2,1.1-0.4H122.8z"/>
			<path class="st2" d="M129,506.5l-0.2,0.5c-0.3-0.2-0.6-0.3-1-0.3c-1.2,0-1.8,1.2-1.8,2.4c0.5-0.5,1-0.7,1.6-0.7
				c1,0,1.7,0.7,1.7,1.9c0,1.1-0.8,1.9-1.9,1.9c-1.4,0-2.1-0.9-2.1-2.7c0-1.6,0.7-3.3,2.4-3.3C128.2,506.1,128.7,506.2,129,506.5z
				 M127.4,511.6c0.8,0,1.3-0.5,1.3-1.3c0-0.8-0.5-1.4-1.2-1.4c-0.8,0-1.5,0.7-1.5,1.2C126,510.9,126.6,511.6,127.4,511.6z"/>
			<path class="st2" d="M134.1,507.7c0,0.6-0.2,1-0.6,1.4c-0.2,0.2-0.5,0.5-1,0.8c-0.7,0.5-1.2,0.9-1.5,1.6h3.1v0.5h-3.8v-0.6
				c0.3-0.7,0.9-1.3,1.5-1.7c0.3-0.2,0.6-0.4,0.9-0.6c0.5-0.4,0.8-0.8,0.8-1.4c0-0.7-0.4-1.1-1.2-1.1c-0.7,0-1.2,0.5-1.4,1.3
				l-0.6-0.1c0.3-1.1,0.9-1.6,1.9-1.6C133.3,506.1,134.1,506.7,134.1,507.7z"/>
			<path class="st2" d="M139,507.6c0,0.6-0.3,1.1-1,1.3v0c0.8,0.3,1.3,0.9,1.3,1.6c0,1-0.8,1.6-2.1,1.6c-1.2,0-2.1-0.5-2.1-1.6
				c0-0.6,0.4-1.2,1.3-1.6v0c-0.7-0.2-1-0.7-1-1.3c0-1,0.9-1.4,1.9-1.4C138.1,506.1,139,506.6,139,507.6z M137.1,511.6
				c1,0,1.5-0.5,1.5-1.1c0-0.7-0.8-1-1.6-1.3c-0.9,0.4-1.4,0.8-1.4,1.3C135.6,511.1,136.2,511.6,137.1,511.6z M137.1,508.7
				c0.6-0.2,1.3-0.5,1.3-1.1c0-0.7-0.7-0.9-1.3-0.9c-0.6,0-1.2,0.2-1.2,0.9C135.9,508,136.3,508.4,137.1,508.7z"/>
			<path class="st2" d="M141.2,511.1v0.9h-0.8v-0.9H141.2z"/>
		</g>
		<g id="Layer_1_00000021810214073786843560000004949122246999412407_" transform="translate(-7.5 413.463)">
			<g id="Group_11" transform="translate(23.5 21.808)">
				<path id="Path_80" class="st3" d="M13.3,31.9h1.5V34h0.1c0.8-1.5,1.7-2.3,3.5-2.3v1.5c-1.9,0.1-2.8,1.3-3.5,3.4v5.9h-1.5
					L13.3,31.9L13.3,31.9z"/>
				<path id="Path_81" class="st3" d="M23.1,42.8c-2.9,0-4.4-2.4-4.4-5.5s1.5-5.5,4.4-5.5s4.4,2.4,4.4,5.5
					C27.4,40.3,26,42.8,23.1,42.8 M23.1,32.9c-1.7,0-2.9,1.5-2.9,4.3s1.1,4.3,2.9,4.3c1.7,0,2.9-1.5,2.9-4.3
					C26,34.5,24.8,32.9,23.1,32.9"/>
				<path id="Path_82" class="st3" d="M32,35.7l2.3-3.8h1.6l-3,5.1l3.5,5.6h-1.7L32,38.2l-2.6,4.4h-1.6l3.3-5.6L28,31.9h1.7L32,35.7
					z"/>
				<path id="Path_83" class="st3" d="M37.1,33.9c0.8-1.4,2.3-2.3,4-2.2c1.8,0,3.7,0.8,3.7,3.2v5.4c-0.1,0.8,0,1.6,0.3,2.3h-1.5
					l-0.1-1.5c-0.9,1-2.2,1.6-3.6,1.7c-1.5,0.1-2.9-1-3.1-2.6c0-0.1,0-0.3,0-0.4c0-2.4,1.8-3.5,6.6-4.3V35c0-1.4-0.9-2-2.2-2
					c-1.2-0.1-2.3,0.6-2.7,1.7L37.1,33.9z M43.3,36.8c-3.4,0.6-5,1.6-5,3.1c0.1,0.9,0.8,1.6,1.7,1.7c1.3-0.1,2.5-0.8,3.3-1.7V36.8z"
					/>
				<path id="Path_84" class="st3" d="M55.1,27.7v12.5c0,0.8,0,1.6,0.1,2.4h-1.3l-0.2-1c-0.7,0.8-1.7,1.3-2.8,1.3
					c-1.9,0-4.4-1.3-4.4-5.5c0-4.1,2.5-5.5,4.3-5.5c1,0,2,0.5,2.8,1.2l0.1,0.1v-5.2h1.5L55.1,27.7z M53.6,34.4
					c-0.7-0.8-1.6-1.4-2.7-1.5c-1.7,0-3,1.1-3,4.3c0,2.7,1.2,4.2,3,4.2c1,0,1.7-0.4,2.7-1.5V34.4z"/>
				<path id="Path_85" class="st3" d="M64.3,42.6v-1.5h-0.1c-0.8,1-1.9,1.6-3.1,1.7c-1.6,0.1-2.9-1-3.1-2.6c0-0.2,0-0.4,0-0.6v-7.7
					h1.5v7.7c0,1.4,0.7,1.9,1.7,1.9c1.2-0.2,2.3-0.7,3.1-1.6v-8h1.5v10.7H64.3z"/>
				<path id="Path_86" class="st3" d="M68.5,39.8c0.7,1,1.8,1.7,3.1,1.7c1.6,0,2.3-0.8,2.3-1.7c0-2.7-6.4-1.3-6.2-5.2
					c0.1-1.8,1.5-2.9,3.6-2.9c1.4,0,2.8,0.7,3.6,1.9l-1,0.9c-0.6-0.9-1.6-1.4-2.7-1.5c-1.3,0-2,0.6-2,1.6c0,2.3,6.2,1.1,6.2,5.1
					c0,2.1-1.8,3.1-3.8,3.1c-1.7,0-3.2-0.7-4.3-2L68.5,39.8z"/>
				<path id="Path_87" class="st3" d="M77.4,31.9v-3.5h1.5v3.5h2.4v1.3h-2.4v7.6c0,0.5,0.3,0.8,1.2,0.8c0.5,0,0.9-0.1,1.3-0.1v1.2
					c-0.6,0.1-1.2,0.2-1.7,0.1c-1.6,0-2.3-0.4-2.3-1.7v-7.9h-1.7v-1.3H77.4z"/>
				<path id="Path_88" class="st3" d="M82.5,33.9c0.8-1.4,2.3-2.3,4-2.2c1.8,0,3.7,0.8,3.7,3.2v5.4c-0.1,0.8,0,1.6,0.3,2.3H89
					l-0.1-1.5c-0.9,1-2.2,1.6-3.6,1.7c-1.5,0.1-2.9-1-3.1-2.6c0-0.1,0-0.3,0-0.4c0-2.4,1.8-3.5,6.6-4.3V35c0-1.4-0.9-2-2.2-2
					c-1.2-0.1-2.3,0.6-2.7,1.7L82.5,33.9z M88.8,36.8c-3.4,0.6-5,1.6-5,3.1c0.1,0.9,0.8,1.6,1.7,1.7c1.3-0.1,2.5-0.8,3.3-1.7V36.8z"
					/>
				<path id="Path_89" class="st3" d="M93,31.9v-3.5h1.5v3.5h2.4v1.3h-2.4v7.6c0,0.5,0.3,0.8,1.2,0.8c0.5,0,0.9-0.1,1.3-0.1v1.2
					c-0.6,0.1-1.2,0.2-1.7,0.1c-1.6,0-2.3-0.4-2.3-1.7v-7.9h-1.7v-1.3H93z"/>
				<path id="Path_90" class="st4" d="M113.3,11.1l13.5-5.7c2.7,1.7,4.5,4,5,6.3L113.3,11.1z"/>
				<path id="Path_91" class="st3" d="M108.4,0h-0.1c-6.4,0-4.7,3.4-2.7,7L108.4,0z"/>
				<path id="Path_92" class="st5" d="M125.3,4.5c-2.4-1.3-5-2.3-7.6-3.1l-7.2,7.7L125.3,4.5z"/>
				<path id="Path_93" class="st3" d="M107.5,9.4L116,1c-2.2-0.5-4.5-0.9-6.8-1L107.5,9.4z"/>
				<path id="Path_94" class="st5" d="M117.9,23.2c2.7-0.7,5.3-1.8,7.7-3.2l-15.2-4.9L117.9,23.2z"/>
				<path id="Path_95" class="st4" d="M113.3,13.3l14,6c2.6-2,4.3-4.3,4.6-6.5L113.3,13.3z"/>
				<path id="Path_96" class="st3" d="M105.6,17.3c-2,3.7-3.9,7.4,2.6,7.4h0.4L105.6,17.3z"/>
				<path id="Path_97" class="st3" d="M109.3,24.7c2.4-0.1,4.7-0.5,7-1l-8.7-8.7L109.3,24.7z"/>
				<path id="Path_98" class="st6" d="M0,24.4v-22h12.6v3.2H3.8v5.7h7.7v3.2H3.8v6.6h9.4v3.2L0,24.4z"/>
				<path id="Path_99" class="st6" d="M24.4,8h3.4l-5.2,16.4h-3.3L14.1,8h3.5l3.3,11.6H21L24.4,8z"/>
				<path id="Path_100" class="st6" d="M30.4,24.4V8h3.2v1.7h0.1c1.4-1.1,2.4-2,4.3-2l0.3,3.4c-0.4,0-0.7-0.1-1.1-0.1
					c-1.3,0.1-2.5,0.5-3.5,1.2v12.2L30.4,24.4L30.4,24.4z"/>
				<path id="Path_101" class="st6" d="M52.5,17.2h-9v2.4c0,1.8,1,2.4,2.8,2.4c1.7,0,2.9-0.3,2.9-2.4l3.3,0.3
					c-0.1,3.6-2.8,4.8-6.2,4.8c-3.8,0-6.2-1.4-6.2-5.2V13c0-3.8,2.3-5.3,6.2-5.3c3.8,0,6.2,1.5,6.2,5.3L52.5,17.2z M49.1,14.4V13
					c0-1.8-1-2.5-2.8-2.5s-2.8,0.7-2.8,2.5v1.4H49.1z"/>
				<path id="Path_102" class="st6" d="M56,24.4V8h3.2v1.6h0.1c1.2-1.1,2.8-1.8,4.5-1.9c2.9,0,4,1.8,4,4.7v12h-3.4V13.3
					c0-1.6-0.4-2.5-2-2.5c-1.2,0.1-2.3,0.7-3.1,1.5v12.2H56V24.4z"/>
				<path id="Path_103" class="st6" d="M70.5,10.8V8h11.8v2.8l-8,10.6v0.2h8.2v2.8H70.2v-2.8l8-10.7v-0.1H70.5z"/>
				<path id="Path_104" class="st6" d="M84.4,12.8c0-3.8,2.4-5.2,6.2-5.2s6.3,1.3,6.3,5.2v6.6c0,3.8-2.3,5.2-6.3,5.2
					s-6.2-1.5-6.2-5.2V12.8z M87.8,19.5c0,1.8,1,2.4,2.9,2.4s2.9-0.6,2.9-2.4v-6.6c0-1.8-1-2.4-2.9-2.4s-2.9,0.6-2.9,2.4V19.5z"/>
				<path id="Path_105" class="st6" d="M98.1,8.2h-0.7V7.7h2v0.4h-0.7v2h-0.6V8.2z"/>
				<path id="Path_106" class="st6" d="M99.6,7.7h0.8l0.6,1.6l0,0l0.6-1.6h0.7v2.4h-0.5V8.4l0,0l-0.6,1.7h-0.4l-0.6-1.7l0,0v1.7
					h-0.5V7.7z"/>
			</g>
			<path id="Polygon_1" d="M157,27.6l-5.4-9.7h11L157,27.6z"/>
		</g>
		<g id="_1px-Border">
			<rect y="0" class="st7" width="160" height="600"/>
			<rect x="0.5" y="0.5" class="st8" width="159" height="599"/>
		</g>
		<g class="st1">
			<path class="st2" d="M15.3,570.2v0.5h-2.8v1.9h2v0.5h-2v2.2h3v0.5h-3.6v-5.8H15.3z"/>
			<path class="st2" d="M16.7,570.2l1.4,4.7h0l1.4-4.7h0.6l-1.8,5.8h-0.6l-1.8-5.8H16.7z"/>
			<path class="st2" d="M24.4,570.2v0.4l-2.9,4.8h3v0.5h-3.7v-0.5l2.9-4.8H21v-0.5H24.4z"/>
			<path class="st2" d="M28.8,576.6v0.4h-4v-0.4H28.8z"/>
			<path class="st2" d="M33.1,571.7c0,0.6-0.2,1-0.6,1.4c-0.2,0.2-0.5,0.5-1,0.8c-0.7,0.5-1.2,0.9-1.5,1.6h3.1v0.5h-3.8v-0.6
				c0.3-0.7,0.9-1.3,1.5-1.7c0.3-0.2,0.6-0.4,0.9-0.6c0.5-0.4,0.8-0.8,0.8-1.4c0-0.7-0.4-1.1-1.2-1.1c-0.7,0-1.2,0.5-1.4,1.3
				l-0.6-0.1c0.3-1.1,0.9-1.6,1.9-1.6C32.3,570.1,33.1,570.7,33.1,571.7z"/>
			<path class="st2" d="M38.1,573.1c0,2-0.7,3-2,3c-1.3,0-2-1-2-3c0-2,0.7-3,2-3C37.5,570.1,38.1,571.2,38.1,573.1z M36.1,575.6
				c1,0,1.4-0.8,1.4-2.5c0-1.7-0.4-2.5-1.4-2.5c-1,0-1.4,0.8-1.4,2.5C34.7,574.8,35.1,575.6,36.1,575.6z"/>
			<path class="st2" d="M42.8,571.7c0,0.6-0.2,1-0.6,1.4c-0.2,0.2-0.5,0.5-1,0.8c-0.7,0.5-1.2,0.9-1.5,1.6h3.1v0.5h-3.8v-0.6
				c0.3-0.7,0.9-1.3,1.5-1.7c0.3-0.2,0.6-0.4,0.9-0.6c0.5-0.4,0.8-0.8,0.8-1.4c0-0.7-0.4-1.1-1.2-1.1c-0.7,0-1.2,0.5-1.4,1.3
				l-0.6-0.1c0.3-1.1,0.9-1.6,1.9-1.6C42.1,570.1,42.8,570.7,42.8,571.7z"/>
			<path class="st2" d="M47.7,571.7c0,0.6-0.2,1-0.6,1.4c-0.2,0.2-0.5,0.5-1,0.8c-0.7,0.5-1.2,0.9-1.5,1.6h3.1v0.5H44v-0.6
				c0.3-0.7,0.9-1.3,1.5-1.7c0.3-0.2,0.6-0.4,0.9-0.6c0.5-0.4,0.8-0.8,0.8-1.4c0-0.7-0.4-1.1-1.2-1.1c-0.7,0-1.2,0.5-1.4,1.3
				l-0.6-0.1c0.3-1.1,0.9-1.6,1.9-1.6C47,570.1,47.7,570.7,47.7,571.7z"/>
			<path class="st2" d="M52.3,576.6v0.4h-4v-0.4H52.3z"/>
			<path class="st2" d="M56.8,573.1c0,2-0.7,3-2,3c-1.3,0-2-1-2-3c0-2,0.7-3,2-3C56.1,570.1,56.8,571.2,56.8,573.1z M54.8,575.6
				c1,0,1.4-0.8,1.4-2.5c0-1.7-0.4-2.5-1.4-2.5c-1,0-1.4,0.8-1.4,2.5C53.3,574.8,53.8,575.6,54.8,575.6z"/>
			<path class="st2" d="M61.5,571.7c0,0.6-0.2,1-0.6,1.4c-0.2,0.2-0.5,0.5-1,0.8c-0.7,0.5-1.2,0.9-1.5,1.6h3.1v0.5h-3.8v-0.6
				c0.3-0.7,0.9-1.3,1.5-1.7c0.3-0.2,0.6-0.4,0.9-0.6c0.5-0.4,0.8-0.8,0.8-1.4c0-0.7-0.4-1.1-1.2-1.1c-0.7,0-1.2,0.5-1.4,1.3
				l-0.6-0.1c0.3-1.1,0.9-1.6,1.9-1.6C60.7,570.1,61.5,570.7,61.5,571.7z"/>
			<path class="st2" d="M66.4,570.2v0.4l-2.4,5.4h-0.7l2.4-5.3h-2.9v-0.5H66.4z"/>
			<path class="st2" d="M71.1,571.6c0,0.6-0.3,1.1-0.9,1.3c0.7,0.3,1.1,0.8,1.1,1.5c0,1.1-0.9,1.7-2,1.7c-0.9,0-1.6-0.4-2-1.1
				l0.5-0.3c0.4,0.6,1,1,1.6,1c0.7,0,1.4-0.4,1.4-1.1c0-0.9-0.6-1.3-1.6-1.3h-0.6v-0.5h0.4c0.8,0,1.6-0.2,1.6-1.1c0-0.6-0.5-1-1.1-1
				c-0.6,0-1,0.3-1.4,0.8l-0.5-0.3c0.5-0.7,1.1-1,1.9-1C70.4,570.1,71.1,570.6,71.1,571.6z"/>
			<path class="st2" d="M75.9,576.6v0.4h-4v-0.4H75.9z"/>
			<path class="st2" d="M77.4,570.2v4.1c0,0.8,0.6,1.2,1.4,1.2c0.8,0,1.4-0.5,1.4-1.2v-4.1h0.6v4c0,1.1-0.8,1.8-2,1.8
				c-1.2,0-2-0.7-2-1.8v-4H77.4z"/>
			<path class="st2" d="M83.2,570.2v3l2.4-3h0.8l-1.8,2.2l2,3.6h-0.7l-1.7-3.1l-0.9,1.1v1.9h-0.6v-5.8H83.2z"/>
		</g>
		<g class="st1">
			<path class="st2" d="M12.8,579.2l2.5,4.4h0v-4.4h0.6v5.8h-0.5l-2.9-5.1h0v5.1h-0.6v-5.8H12.8z"/>
			<path class="st2" d="M21.7,582.1c0,1.6-0.6,3-2.3,3s-2.3-1.4-2.3-3c0-1.6,0.6-3,2.3-3C21.1,579.1,21.7,580.5,21.7,582.1z
				 M19.4,584.5c1,0,1.6-0.8,1.6-2.4c0-1.6-0.6-2.4-1.6-2.4c-1,0-1.6,0.8-1.6,2.4C17.8,583.7,18.4,584.5,19.4,584.5z"/>
			<path class="st2" d="M22.9,579.2l1.4,4.7h0l1.4-4.7h0.6l-1.8,5.8H24l-1.8-5.8H22.9z"/>
			<path class="st2" d="M30.9,579.2v0.5h-2.8v1.9h2v0.5h-2v2.2h3v0.5h-3.6v-5.8H30.9z"/>
			<path class="st2" d="M33.3,579.2l1.5,4.7h0l1.4-4.7h1v5.8h-0.6v-5.4L35,585h-0.5l-1.6-5.4v5.4h-0.6v-5.8H33.3z"/>
			<path class="st2" d="M41,579.2c1,0,1.7,0.5,1.7,1.4c0,0.7-0.3,1.1-1,1.3l0,0c0.7,0.2,1.1,0.8,1.1,1.5c0,1-0.7,1.6-2.1,1.6H39
				v-5.8H41z M40.7,581.7c0.7,0,1.4-0.3,1.4-1c0-0.7-0.4-0.9-1.1-0.9h-1.4v1.9H40.7z M40.8,584.5c0.9,0,1.4-0.3,1.4-1
				c0-0.8-0.7-1.2-1.5-1.2h-1.1v2.2H40.8z"/>
			<path class="st2" d="M47.8,579.2v0.5H45v1.9h2v0.5h-2v2.2h3v0.5h-3.6v-5.8H47.8z"/>
			<path class="st2" d="M51,579.2c1.1,0,1.9,0.5,1.9,1.5c0,0.7-0.4,1.2-1.2,1.5L53,585h-0.7l-1.2-2.6h-1.4v2.6h-0.6v-5.8H51z
				 M51,581.8c0.8,0,1.3-0.3,1.3-1.1c0-0.7-0.4-1-1.3-1h-1.2v2.1H51z"/>
			<path class="st2" d="M60.4,580.7c0,0.6-0.2,1-0.6,1.4c-0.2,0.2-0.5,0.5-1,0.8c-0.7,0.5-1.2,0.9-1.5,1.6h3.1v0.5h-3.8v-0.6
				c0.3-0.7,0.9-1.3,1.5-1.7c0.3-0.2,0.6-0.4,0.9-0.6c0.5-0.4,0.8-0.8,0.8-1.4c0-0.7-0.4-1.1-1.2-1.1c-0.7,0-1.2,0.5-1.4,1.3
				l-0.6-0.1c0.3-1.1,0.9-1.6,1.9-1.6C59.6,579.1,60.4,579.7,60.4,580.7z"/>
			<path class="st2" d="M65.5,582.1c0,2-0.7,3-2,3c-1.3,0-2-1-2-3c0-2,0.7-3,2-3C64.8,579.1,65.5,580.2,65.5,582.1z M63.4,584.6
				c1,0,1.4-0.8,1.4-2.5c0-1.7-0.4-2.5-1.4-2.5c-1,0-1.4,0.8-1.4,2.5C62,583.8,62.5,584.6,63.4,584.6z"/>
			<path class="st2" d="M70.2,580.7c0,0.6-0.2,1-0.6,1.4c-0.2,0.2-0.5,0.5-1,0.8c-0.7,0.5-1.2,0.9-1.5,1.6h3.1v0.5h-3.8v-0.6
				c0.3-0.7,0.9-1.3,1.5-1.7c0.3-0.2,0.6-0.4,0.9-0.6c0.5-0.4,0.8-0.8,0.8-1.4c0-0.7-0.4-1.1-1.2-1.1c-0.7,0-1.2,0.5-1.4,1.3
				l-0.6-0.1c0.3-1.1,0.9-1.6,1.9-1.6C69.4,579.1,70.2,579.7,70.2,580.7z"/>
			<path class="st2" d="M75.1,580.7c0,0.6-0.2,1-0.6,1.4c-0.2,0.2-0.5,0.5-1,0.8c-0.7,0.5-1.2,0.9-1.5,1.6h3.1v0.5h-3.8v-0.6
				c0.3-0.7,0.9-1.3,1.5-1.7c0.3-0.2,0.6-0.4,0.9-0.6c0.5-0.4,0.8-0.8,0.8-1.4c0-0.7-0.4-1.1-1.2-1.1c-0.7,0-1.2,0.5-1.4,1.3
				l-0.6-0.1c0.3-1.1,0.9-1.6,1.9-1.6C74.3,579.1,75.1,579.7,75.1,580.7z"/>
		</g>
	</g>
</g>
</svg>
