<?xml version="1.0" encoding="utf-8"?>
<!-- Generator: Adobe Illustrator 27.0.0, SVG Export Plug-In . SVG Version: 6.00 Build 0)  -->
<svg version="1.1" id="Layer_1" xmlns="http://www.w3.org/2000/svg" xmlns:xlink="http://www.w3.org/1999/xlink" x="0px" y="0px"
	 viewBox="0 0 300 250" style="enable-background:new 0 0 300 250;" xml:space="preserve">
<style type="text/css">
	.st0{clip-path:url(#SVGID_00000084507301963938120600000008908130540277785994_);}
	.st1{fill:none;}
	.st2{enable-background:new    ;}
	.st3{fill:#4D4D4F;}
	.st4{fill:#FFFFFF;}
	.st5{fill:#AD1AAC;}
	.st6{fill:#43B02A;}
	.st7{fill:#4EC3E0;}
	.st8{fill:#007A33;}
</style>
<g>
	<defs>
		<rect id="SVGID_1_" y="0" width="300" height="250"/>
	</defs>
	<clipPath id="SVGID_00000023239508236666006180000008268817054257835142_">
		<use xlink:href="#SVGID_1_"  style="overflow:visible;"/>
	</clipPath>
	<g id="MPU_300x250" style="clip-path:url(#SVGID_00000023239508236666006180000008268817054257835142_);">
		<g id="_1px-Border">
			<rect y="0" class="st1" width="300" height="250"/>
			<rect x="0.5" y="0.5" class="st1" width="299" height="249"/>
		</g>
		<g id="_1px-Border-2">
			<rect y="0" class="st1" width="300" height="250"/>
			<rect x="0.5" y="0.5" class="st1" width="299" height="249"/>
		</g>
		<g id="Group_40">
			<g class="st2">
				<path class="st3" d="M14.1,159.1v5.1H15v0.8h-2.8v-0.8h0.9v-4h-1v-0.7c0.5,0,1-0.1,1.3-0.4H14.1z"/>
				<path class="st3" d="M17.7,163.9v1.1h-1.1v-1.1H17.7z"/>
			</g>
			<g class="st2">
				<path class="st3" d="M23.7,159.2c1,0,1.7,0.5,1.7,1.4c0,0.7-0.3,1.1-1,1.3l0,0c0.7,0.2,1.1,0.8,1.1,1.5c0,1-0.7,1.6-2.1,1.6
					h-1.8v-5.8H23.7z M23.4,161.7c0.7,0,1.4-0.3,1.4-1c0-0.7-0.4-0.9-1.1-0.9h-1.4v1.9H23.4z M23.5,164.5c0.9,0,1.4-0.3,1.4-1
					c0-0.8-0.7-1.2-1.5-1.2h-1.1v2.2H23.5z"/>
				<path class="st3" d="M29.6,162v2.2c0,0.2,0,0.5,0.1,0.8h-0.6l-0.1-0.6c-0.4,0.4-0.9,0.7-1.4,0.7c-0.7,0-1.2-0.5-1.2-1.2
					c0-1.2,1.4-1.5,2.5-1.7V162c0-0.6-0.4-0.8-0.9-0.8c-0.5,0-0.9,0.3-1.1,0.6l-0.5-0.3c0.3-0.6,0.9-0.9,1.6-0.9
					C28.9,160.8,29.6,161.2,29.6,162z M27.7,164.6c0.4,0,1-0.3,1.3-0.7v-1.1c-0.7,0.1-2,0.4-2,1.2C27,164.3,27.4,164.6,27.7,164.6z"
					/>
				<path class="st3" d="M32.6,161.4c-0.8,0-1.1,0.5-1.4,1.3v2.3h-0.6v-4.2h0.6v0.8h0c0.3-0.6,0.7-0.9,1.3-0.9h0V161.4z"/>
				<path class="st3" d="M35.3,161.4c-0.8,0-1.1,0.5-1.4,1.3v2.3h-0.6v-4.2h0.6v0.8h0c0.3-0.6,0.7-0.9,1.3-0.9h0V161.4z"/>
				<path class="st3" d="M38.9,162v2.2c0,0.2,0,0.5,0.1,0.8h-0.6l-0.1-0.6c-0.4,0.4-0.9,0.7-1.4,0.7c-0.7,0-1.2-0.5-1.2-1.2
					c0-1.2,1.4-1.5,2.5-1.7V162c0-0.6-0.4-0.8-0.9-0.8c-0.5,0-0.9,0.3-1.1,0.6l-0.5-0.3c0.3-0.6,0.9-0.9,1.6-0.9
					C38.2,160.8,38.9,161.2,38.9,162z M37,164.6c0.4,0,1-0.3,1.3-0.7v-1.1c-0.7,0.1-2,0.4-2,1.2C36.3,164.3,36.7,164.6,37,164.6z"/>
				<path class="st3" d="M40.8,159.5v1.4h1v0.5h-1v3c0,0.2,0.1,0.3,0.5,0.3c0.2,0,0.3,0,0.5,0v0.5c-0.1,0-0.3,0.1-0.7,0.1
					c-0.6,0-0.9-0.1-0.9-0.7v-3.1h-0.7v-0.5h0.7v-1.4H40.8z"/>
				<path class="st3" d="M43.5,159.5v1.4h1v0.5h-1v3c0,0.2,0.1,0.3,0.5,0.3c0.2,0,0.3,0,0.5,0v0.5c-0.1,0-0.3,0.1-0.7,0.1
					c-0.6,0-0.9-0.1-0.9-0.7v-3.1h-0.7v-0.5h0.7v-1.4H43.5z"/>
				<path class="st3" d="M50,159.2v4.3c0,1-0.4,1.5-1.3,1.5c-0.6,0-1-0.2-1.4-0.7l0.5-0.3c0.2,0.3,0.5,0.5,0.9,0.5
					c0.5,0,0.7-0.3,0.7-0.8v-4.5H50z"/>
				<path class="st3" d="M56.8,162.6v0.4h-2.7c0,1,0.6,1.6,1.2,1.6c0.5,0,0.9-0.3,1.1-0.7l0.4,0.2c-0.4,0.7-0.9,1-1.6,1
					c-1.1,0-1.8-0.8-1.8-2.2c0-1.5,0.8-2.2,1.7-2.2C56.1,160.8,56.8,161.4,56.8,162.6z M56.2,162.5c0-0.8-0.4-1.3-1-1.3
					c-0.6,0-1,0.4-1.1,1.3H56.2z"/>
				<path class="st3" d="M58.6,159.5v1.4h1v0.5h-1v3c0,0.2,0.1,0.3,0.5,0.3c0.2,0,0.3,0,0.5,0v0.5c-0.1,0-0.3,0.1-0.7,0.1
					c-0.6,0-0.9-0.1-0.9-0.7v-3.1h-0.7v-0.5H58v-1.4H58.6z"/>
				<path class="st3" d="M65.7,162v2.2c0,0.2,0,0.5,0.1,0.8h-0.6l-0.1-0.6c-0.4,0.4-0.9,0.7-1.4,0.7c-0.7,0-1.2-0.5-1.2-1.2
					c0-1.2,1.4-1.5,2.5-1.7V162c0-0.6-0.4-0.8-0.9-0.8c-0.5,0-0.9,0.3-1.1,0.6l-0.5-0.3c0.3-0.6,0.9-0.9,1.6-0.9
					C65.1,160.8,65.7,161.2,65.7,162z M63.9,164.6c0.4,0,1-0.3,1.3-0.7v-1.1c-0.7,0.1-2,0.4-2,1.2C63.2,164.3,63.6,164.6,63.9,164.6
					z"/>
				<path class="st3" d="M67.7,159.2v5.8h-0.6v-5.8H67.7z"/>
				<path class="st3" d="M70.1,164.1v0.9h-0.8v-0.9H70.1z"/>
				<path class="st3" d="M76.3,159.2l1.8,5.8h-0.7l-0.5-1.8h-2.1l-0.5,1.8h-0.7l1.8-5.8H76.3z M75,162.6h1.8l-0.8-3h-0.1L75,162.6z"
					/>
				<path class="st3" d="M79.6,159.2v2c0.4-0.3,0.7-0.5,1.1-0.5c0.8,0,1.7,0.6,1.7,2.2c0,1.5-0.8,2.2-1.7,2.2
					c-0.5,0-0.9-0.2-1.2-0.5l-0.1,0.4H79c0-0.1,0-0.3,0-0.4v-5.4H79.6z M79.6,164c0.4,0.4,0.7,0.6,1,0.6c0.9,0,1.2-0.8,1.2-1.6
					c0-1.1-0.4-1.7-1.2-1.7c-0.3,0-0.7,0.2-1,0.6V164z"/>
				<path class="st3" d="M85.9,161.5l-0.4,0.4c-0.3-0.4-0.6-0.6-1.1-0.6c-0.5,0-0.8,0.2-0.8,0.6c0,0.3,0.3,0.5,0.9,0.7
					c0.8,0.2,1.5,0.5,1.5,1.3c0,0.8-0.7,1.2-1.5,1.2c-0.6,0-1.3-0.3-1.7-0.8l0.5-0.3c0.3,0.4,0.7,0.6,1.2,0.6c0.5,0,0.9-0.2,0.9-0.7
					c0-0.4-0.3-0.6-0.9-0.7c-0.9-0.3-1.5-0.5-1.5-1.2c0-0.8,0.6-1.2,1.3-1.2C84.9,160.8,85.6,161,85.9,161.5z"/>
				<path class="st3" d="M87.7,159.5v1.4h1v0.5h-1v3c0,0.2,0.1,0.3,0.5,0.3c0.2,0,0.3,0,0.5,0v0.5c-0.1,0-0.3,0.1-0.7,0.1
					c-0.6,0-0.9-0.1-0.9-0.7v-3.1h-0.7v-0.5h0.7v-1.4H87.7z"/>
				<path class="st3" d="M91.5,161.4c-0.8,0-1.1,0.5-1.4,1.3v2.3h-0.6v-4.2h0.6v0.8h0c0.3-0.6,0.7-0.9,1.3-0.9h0V161.4z"/>
				<path class="st3" d="M95.1,162v2.2c0,0.2,0,0.5,0.1,0.8h-0.6l-0.1-0.6c-0.4,0.4-0.9,0.7-1.4,0.7c-0.7,0-1.2-0.5-1.2-1.2
					c0-1.2,1.4-1.5,2.5-1.7V162c0-0.6-0.4-0.8-0.9-0.8c-0.5,0-0.9,0.3-1.1,0.6l-0.5-0.3c0.3-0.6,0.9-0.9,1.6-0.9
					C94.4,160.8,95.1,161.2,95.1,162z M93.2,164.6c0.4,0,1-0.3,1.3-0.7v-1.1c-0.7,0.1-2,0.4-2,1.2C92.5,164.3,92.9,164.6,93.2,164.6
					z"/>
				<path class="st3" d="M99.2,161.9l-0.5,0.2c-0.2-0.5-0.5-0.8-1-0.8c-0.9,0-1.1,0.8-1.1,1.7c0,1.1,0.4,1.7,1.1,1.7
					c0.6,0,0.8-0.2,1.1-0.8l0.5,0.2c-0.4,0.7-0.8,1.1-1.6,1.1c-1.2,0-1.7-1-1.7-2.2s0.5-2.2,1.7-2.2
					C98.4,160.8,98.8,161.1,99.2,161.9z"/>
				<path class="st3" d="M101,159.5v1.4h1v0.5h-1v3c0,0.2,0.1,0.3,0.5,0.3c0.2,0,0.3,0,0.5,0v0.5c-0.1,0-0.3,0.1-0.7,0.1
					c-0.6,0-0.9-0.1-0.9-0.7v-3.1h-0.7v-0.5h0.7v-1.4H101z"/>
				<path class="st3" d="M108.5,161.9v3.1h-0.6v-3c0-0.4-0.2-0.7-0.7-0.7c-0.4,0-0.9,0.3-1.2,0.6v3.1h-0.6v-4.2h0.6v0.6h0
					c0.4-0.4,0.8-0.6,1.2-0.6C108,160.8,108.5,161.2,108.5,161.9z"/>
				<path class="st3" d="M112.9,162.9c0,1.1-0.5,2.2-1.7,2.2s-1.7-1-1.7-2.2c0-1.1,0.5-2.2,1.7-2.2S112.9,161.8,112.9,162.9z
					 M111.2,164.6c0.8,0,1.1-0.8,1.1-1.7s-0.3-1.7-1.1-1.7c-0.8,0-1.1,0.9-1.1,1.7C110,163.7,110.3,164.6,111.2,164.6z"/>
				<path class="st3" d="M114.8,164.1v0.9H114v-0.9H114.8z"/>
				<path class="st3" d="M122.3,160.7c0,0.6-0.2,1-0.6,1.4c-0.2,0.2-0.5,0.5-1,0.8c-0.7,0.5-1.2,0.9-1.5,1.6h3.1v0.5h-3.8v-0.6
					c0.3-0.7,0.9-1.3,1.5-1.7c0.3-0.2,0.6-0.4,0.9-0.6c0.5-0.4,0.8-0.8,0.8-1.4c0-0.7-0.4-1.1-1.2-1.1c-0.7,0-1.2,0.5-1.4,1.3
					l-0.6-0.1c0.3-1.1,0.9-1.6,1.9-1.6C121.6,159.1,122.3,159.7,122.3,160.7z"/>
				<path class="st3" d="M127,160.6c0,0.6-0.3,1.1-0.9,1.3c0.7,0.3,1.1,0.8,1.1,1.5c0,1.1-0.9,1.7-2,1.7c-0.9,0-1.6-0.4-2-1.1
					l0.5-0.3c0.4,0.6,1,1,1.6,1c0.7,0,1.4-0.4,1.4-1.1c0-0.9-0.6-1.3-1.6-1.3h-0.6v-0.5h0.4c0.8,0,1.6-0.2,1.6-1.1
					c0-0.6-0.5-1-1.1-1c-0.6,0-1,0.3-1.4,0.8l-0.5-0.3c0.5-0.7,1.1-1,1.9-1C126.3,159.1,127,159.6,127,160.6z"/>
				<path class="st3" d="M132.1,159.2v0.4l-2.4,5.4H129l2.4-5.3h-2.9v-0.5H132.1z"/>
				<path class="st3" d="M137.1,161.8c0,1.6-0.7,3.3-2.4,3.3c-0.5,0-1-0.1-1.2-0.3l0.2-0.5c0.3,0.2,0.6,0.3,1,0.3
					c1.2,0,1.7-1.2,1.8-2.4c-0.5,0.5-0.9,0.7-1.6,0.7c-0.8,0-1.7-0.5-1.7-1.9c0-1.2,0.8-1.9,1.9-1.9
					C136.4,159.1,137.1,160.1,137.1,161.8z M135,162.4c0.7,0,1.2-0.4,1.5-1.1c0-0.9-0.5-1.7-1.4-1.7c-0.7,0-1.3,0.5-1.3,1.3
					C133.8,161.9,134.4,162.4,135,162.4z"/>
				<path class="st3" d="M144.1,162.9c0,1.7-1.1,2.2-1.7,2.2c-0.4,0-0.8-0.2-1.1-0.5v1.9h-0.6v-5.7h0.6v0.5c0.2-0.3,0.7-0.6,1.1-0.6
					C143,160.8,144.1,161.1,144.1,162.9z M141.3,164c0.4,0.4,0.7,0.6,1.1,0.6c0.8,0,1.2-0.6,1.2-1.7c0-1-0.4-1.6-1.2-1.6
					c-0.4,0-0.8,0.3-1,0.6V164z"/>
				<path class="st3" d="M147,161.4c-0.8,0-1.1,0.5-1.4,1.3v2.3H145v-4.2h0.6v0.8h0c0.3-0.6,0.7-0.9,1.3-0.9h0V161.4z"/>
				<path class="st3" d="M150.7,162.6v0.4H148c0,1,0.6,1.6,1.2,1.6c0.5,0,0.9-0.3,1.1-0.7l0.4,0.2c-0.4,0.7-0.9,1-1.6,1
					c-1.1,0-1.8-0.8-1.8-2.2c0-1.5,0.8-2.2,1.7-2.2C150.1,160.8,150.7,161.4,150.7,162.6z M150.2,162.5c0-0.8-0.4-1.3-1-1.3
					c-0.6,0-1,0.4-1.1,1.3H150.2z"/>
				<path class="st3" d="M154.3,161.5l-0.4,0.4c-0.3-0.4-0.6-0.6-1.1-0.6c-0.5,0-0.8,0.2-0.8,0.6c0,0.3,0.3,0.5,0.9,0.7
					c0.8,0.2,1.5,0.5,1.5,1.3c0,0.8-0.7,1.2-1.5,1.2c-0.6,0-1.3-0.3-1.7-0.8l0.5-0.3c0.3,0.4,0.7,0.6,1.2,0.6c0.5,0,0.9-0.2,0.9-0.7
					c0-0.4-0.3-0.6-0.9-0.7c-0.9-0.3-1.5-0.5-1.5-1.2c0-0.8,0.6-1.2,1.3-1.2C153.3,160.8,154,161,154.3,161.5z"/>
				<path class="st3" d="M158.3,162.6v0.4h-2.7c0,1,0.6,1.6,1.2,1.6c0.5,0,0.9-0.3,1.1-0.7l0.4,0.2c-0.4,0.7-0.9,1-1.6,1
					c-1.1,0-1.8-0.8-1.8-2.2c0-1.5,0.8-2.2,1.7-2.2C157.6,160.8,158.3,161.4,158.3,162.6z M157.7,162.5c0-0.8-0.4-1.3-1-1.3
					c-0.6,0-1,0.4-1.1,1.3H157.7z"/>
				<path class="st3" d="M162.4,161.9v3.1h-0.6v-3c0-0.4-0.2-0.7-0.7-0.7c-0.4,0-0.9,0.3-1.2,0.6v3.1h-0.6v-4.2h0.6v0.6h0
					c0.4-0.4,0.8-0.6,1.2-0.6C162,160.8,162.4,161.2,162.4,161.9z"/>
				<path class="st3" d="M164.5,159.5v1.4h1v0.5h-1v3c0,0.2,0.1,0.3,0.5,0.3c0.2,0,0.3,0,0.5,0v0.5c-0.1,0-0.3,0.1-0.7,0.1
					c-0.6,0-0.9-0.1-0.9-0.7v-3.1h-0.7v-0.5h0.7v-1.4H164.5z"/>
				<path class="st3" d="M169.4,162.6v0.4h-2.7c0,1,0.6,1.6,1.2,1.6c0.5,0,0.9-0.3,1.1-0.7l0.4,0.2c-0.4,0.7-0.9,1-1.6,1
					c-1.1,0-1.8-0.8-1.8-2.2c0-1.5,0.8-2.2,1.7-2.2C168.7,160.8,169.4,161.4,169.4,162.6z M168.8,162.5c0-0.8-0.4-1.3-1-1.3
					c-0.6,0-1,0.4-1.1,1.3H168.8z"/>
				<path class="st3" d="M173.6,159.2v5.4c0,0.1,0,0.3,0,0.4h-0.5l-0.1-0.4c-0.2,0.3-0.6,0.5-1.1,0.5c-0.9,0-1.7-0.7-1.7-2.2
					c0-1.5,0.9-2.2,1.7-2.2c0.4,0,0.8,0.2,1.1,0.5v-2H173.6z M171.9,164.6c0.4,0,0.7-0.2,1-0.6v-2.2c-0.3-0.3-0.7-0.6-1.1-0.6
					c-0.8,0-1.2,0.6-1.2,1.7C170.8,163.8,171.1,164.6,171.9,164.6z"/>
				<path class="st3" d="M180.2,162v2.2c0,0.2,0,0.5,0.1,0.8h-0.6l-0.1-0.6c-0.4,0.4-0.9,0.7-1.4,0.7c-0.7,0-1.2-0.5-1.2-1.2
					c0-1.2,1.4-1.5,2.5-1.7V162c0-0.6-0.4-0.8-0.9-0.8c-0.5,0-0.9,0.3-1.1,0.6l-0.5-0.3c0.3-0.6,0.9-0.9,1.6-0.9
					C179.5,160.8,180.2,161.2,180.2,162z M178.3,164.6c0.4,0,1-0.3,1.3-0.7v-1.1c-0.7,0.1-2,0.4-2,1.2
					C177.6,164.3,178,164.6,178.3,164.6z"/>
				<path class="st3" d="M182.1,159.5v1.4h1v0.5h-1v3c0,0.2,0.1,0.3,0.5,0.3c0.2,0,0.3,0,0.5,0v0.5c-0.1,0-0.3,0.1-0.7,0.1
					c-0.6,0-0.9-0.1-0.9-0.7v-3.1h-0.7v-0.5h0.7v-1.4H182.1z"/>
				<path class="st3" d="M187.2,159.5v1.4h1v0.5h-1v3c0,0.2,0.1,0.3,0.5,0.3c0.2,0,0.3,0,0.5,0v0.5c-0.1,0-0.3,0.1-0.7,0.1
					c-0.6,0-0.9-0.1-0.9-0.7v-3.1H186v-0.5h0.7v-1.4H187.2z"/>
				<path class="st3" d="M189.8,159.2v2.2h0c0.4-0.4,0.8-0.6,1.2-0.6c0.8,0,1.2,0.5,1.2,1.2v3.1h-0.6v-3c0-0.4-0.2-0.7-0.7-0.7
					c-0.4,0-0.9,0.3-1.2,0.6v3.1h-0.6v-5.8H189.8z"/>
				<path class="st3" d="M196.5,162.6v0.4h-2.7c0,1,0.6,1.6,1.2,1.6c0.5,0,0.9-0.3,1.1-0.7l0.4,0.2c-0.4,0.7-0.9,1-1.6,1
					c-1.1,0-1.8-0.8-1.8-2.2c0-1.5,0.8-2.2,1.7-2.2C195.8,160.8,196.5,161.4,196.5,162.6z M195.9,162.5c0-0.8-0.4-1.3-1-1.3
					c-0.6,0-1,0.4-1.1,1.3H195.9z"/>
			</g>
			<g class="st2">
				<path class="st3" d="M15,167.2v0.5h-2.5l-0.1,1.8c0.4-0.3,0.8-0.5,1.2-0.5c1,0,1.8,0.7,1.8,1.9c0,0.9-0.6,2-2,2
					c-0.8,0-1.3-0.3-1.8-1.1l0.5-0.3c0.3,0.6,0.8,0.9,1.3,0.9c0.9,0,1.4-0.6,1.4-1.5c0-0.8-0.5-1.5-1.3-1.5c-0.6,0-1,0.3-1.2,0.9
					l-0.5-0.1l0.3-3.1H15z"/>
				<path class="st3" d="M20.3,169.8c0,1.6-0.7,3.3-2.4,3.3c-0.5,0-1-0.1-1.2-0.3l0.2-0.5c0.3,0.2,0.6,0.3,1,0.3
					c1.2,0,1.7-1.2,1.8-2.4c-0.5,0.5-0.9,0.7-1.6,0.7c-0.8,0-1.7-0.5-1.7-1.9c0-1.2,0.8-1.9,1.9-1.9
					C19.6,167.1,20.3,168.1,20.3,169.8z M18.2,170.4c0.7,0,1.2-0.4,1.5-1.1c0-0.9-0.5-1.7-1.4-1.7c-0.7,0-1.3,0.5-1.3,1.3
					C17,169.9,17.6,170.4,18.2,170.4z"/>
				<path class="st3" d="M22.2,167.5v1.4h1v0.5h-1v3c0,0.2,0.1,0.3,0.5,0.3c0.2,0,0.3,0,0.5,0v0.5c-0.1,0-0.3,0.1-0.7,0.1
					c-0.6,0-0.9-0.1-0.9-0.7v-3.1h-0.7v-0.5h0.7v-1.4H22.2z"/>
				<path class="st3" d="M24.7,167.2v2.2h0c0.4-0.4,0.8-0.6,1.2-0.6c0.8,0,1.2,0.5,1.2,1.2v3.1h-0.6v-3c0-0.4-0.2-0.7-0.7-0.7
					c-0.4,0-0.9,0.3-1.2,0.6v3.1h-0.6v-5.8H24.7z"/>
				<path class="st3" d="M34.7,167.2v0.5h-2.8v1.9h2v0.5h-2v2.2h3v0.5h-3.6v-5.8H34.7z"/>
				<path class="st3" d="M37.9,167.2c1.1,0,1.9,0.5,1.9,1.5c0,0.7-0.4,1.2-1.2,1.5l1.2,2.8h-0.7l-1.2-2.6h-1.4v2.6H36v-5.8H37.9z
					 M37.8,169.8c0.8,0,1.3-0.3,1.3-1.1c0-0.7-0.4-1-1.3-1h-1.2v2.1H37.8z"/>
				<path class="st3" d="M43.5,167.2l1.8,5.8h-0.7l-0.5-1.8H42l-0.5,1.8h-0.7l1.8-5.8H43.5z M42.1,170.6h1.8l-0.8-3H43L42.1,170.6z"
					/>
				<path class="st3" d="M52.4,168.8l-0.6,0.2c-0.2-0.8-0.6-1.3-1.4-1.3c-1.1,0-1.5,1.2-1.5,2.4c0,1.6,0.6,2.4,1.6,2.4
					c0.7,0,1.2-0.4,1.4-1.4l0.6,0.1c-0.3,1.2-1,1.8-2,1.8c-1.6,0-2.2-1.4-2.2-3c0-1.6,0.6-3,2.2-3C51.4,167.1,52.1,167.7,52.4,168.8
					z"/>
				<path class="st3" d="M56.5,170.9c0,1.1-0.5,2.2-1.7,2.2s-1.7-1-1.7-2.2c0-1.1,0.5-2.2,1.7-2.2S56.5,169.8,56.5,170.9z
					 M54.8,172.6c0.8,0,1.1-0.8,1.1-1.7s-0.3-1.7-1.1-1.7c-0.8,0-1.1,0.9-1.1,1.7C53.6,171.7,53.9,172.6,54.8,172.6z"/>
				<path class="st3" d="M60.5,169.9v3.1h-0.6v-3c0-0.4-0.2-0.7-0.7-0.7c-0.4,0-0.9,0.3-1.2,0.6v3.1h-0.6v-4.2h0.6v0.6h0
					c0.4-0.4,0.8-0.6,1.2-0.6C60.1,168.8,60.5,169.2,60.5,169.9z"/>
				<path class="st3" d="M65.1,169.3c-0.3,0-0.5,0-0.6,0.1c0.2,0.2,0.3,0.5,0.3,0.8c0,0.8-0.7,1.5-1.5,1.5c-0.3,0-0.4,0-0.7-0.1
					c-0.2,0.1-0.3,0.2-0.3,0.4c0,0.2,0.1,0.3,0.4,0.3c1.8,0,2.6,0.3,2.6,1.2c0,0.6-0.6,1.1-1.9,1.1c-1.2,0-1.8-0.3-1.8-1
					c0-0.4,0.3-0.6,0.7-0.8c-0.3-0.1-0.5-0.3-0.5-0.6c0-0.4,0.3-0.5,0.6-0.7c-0.4-0.3-0.6-0.7-0.6-1.2c0-0.9,0.7-1.5,1.6-1.5
					c0.4,0,0.8,0.1,1,0.3c0.2-0.2,0.6-0.3,0.9-0.4V169.3z M63.2,174c0.8,0,1.3-0.2,1.3-0.6c0-0.4-0.4-0.6-1.4-0.6
					c-0.6,0-1.2,0.2-1.2,0.7C61.9,173.9,62.2,174,63.2,174z M63.2,171.2c0.6,0,1-0.4,1-0.9c0-0.6-0.4-1-1.1-1c-0.6,0-1,0.4-1,1
					S62.6,171.2,63.2,171.2z"/>
				<path class="st3" d="M67.7,169.4c-0.8,0-1.1,0.5-1.4,1.3v2.3h-0.6v-4.2h0.6v0.8h0c0.3-0.6,0.7-0.9,1.3-0.9h0V169.4z"/>
				<path class="st3" d="M71.5,170.6v0.4h-2.7c0,1,0.6,1.6,1.2,1.6c0.5,0,0.9-0.3,1.1-0.7l0.4,0.2c-0.4,0.7-0.9,1-1.6,1
					c-1.1,0-1.8-0.8-1.8-2.2c0-1.5,0.8-2.2,1.7-2.2C70.8,168.8,71.5,169.4,71.5,170.6z M70.9,170.5c0-0.8-0.4-1.3-1-1.3
					s-1,0.4-1.1,1.3H70.9z"/>
				<path class="st3" d="M75,169.5l-0.4,0.4c-0.3-0.4-0.6-0.6-1.1-0.6c-0.5,0-0.8,0.2-0.8,0.6c0,0.3,0.3,0.5,0.9,0.7
					c0.8,0.2,1.5,0.5,1.5,1.3c0,0.8-0.7,1.2-1.5,1.2c-0.6,0-1.3-0.3-1.7-0.8l0.5-0.3c0.3,0.4,0.7,0.6,1.2,0.6c0.5,0,0.9-0.2,0.9-0.7
					c0-0.4-0.3-0.6-0.9-0.7c-0.9-0.3-1.5-0.5-1.5-1.2c0-0.8,0.6-1.2,1.3-1.2C74.1,168.8,74.7,169,75,169.5z"/>
				<path class="st3" d="M78.5,169.5l-0.4,0.4c-0.3-0.4-0.6-0.6-1.1-0.6c-0.5,0-0.8,0.2-0.8,0.6c0,0.3,0.3,0.5,0.9,0.7
					c0.8,0.2,1.5,0.5,1.5,1.3c0,0.8-0.7,1.2-1.5,1.2c-0.6,0-1.3-0.3-1.7-0.8l0.5-0.3c0.3,0.4,0.7,0.6,1.2,0.6c0.5,0,0.9-0.2,0.9-0.7
					c0-0.4-0.3-0.6-0.9-0.7c-0.9-0.3-1.5-0.5-1.5-1.2c0-0.8,0.6-1.2,1.3-1.2C77.6,168.8,78.3,169,78.5,169.5z"/>
				<path class="st3" d="M80.6,172.1v0.9l-0.5,1.2h-0.3l0.4-1.2h-0.3v-0.9H80.6z"/>
				<path class="st3" d="M86.7,167.2c1.1,0,1.8,0.5,1.8,1.6c0,1.2-1,1.6-2.1,1.6h-1v2.6h-0.6v-5.8H86.7z M86.4,169.9
					c1,0,1.4-0.3,1.4-1.1s-0.5-1.1-1.3-1.1h-1.2v2.1H86.4z"/>
				<path class="st3" d="M92.2,170v2.2c0,0.2,0,0.5,0.1,0.8h-0.6l-0.1-0.6c-0.4,0.4-0.9,0.7-1.4,0.7c-0.7,0-1.2-0.5-1.2-1.2
					c0-1.2,1.4-1.5,2.5-1.7V170c0-0.6-0.4-0.8-0.9-0.8c-0.5,0-0.9,0.3-1.1,0.6l-0.5-0.3c0.3-0.6,0.9-0.9,1.6-0.9
					C91.6,168.8,92.2,169.2,92.2,170z M90.4,172.6c0.4,0,1-0.3,1.3-0.7v-1.1c-0.7,0.1-2,0.4-2,1.2C89.7,172.3,90,172.6,90.4,172.6z"
					/>
				<path class="st3" d="M95.3,169.4c-0.8,0-1.1,0.5-1.4,1.3v2.3h-0.6v-4.2h0.6v0.8h0c0.3-0.6,0.7-0.9,1.3-0.9h0V169.4z"/>
				<path class="st3" d="M96.8,167.1v0.7h-0.6v-0.7H96.8z M96.8,168.8v4.2h-0.6v-4.2H96.8z"/>
				<path class="st3" d="M100.8,169.5l-0.4,0.4c-0.3-0.4-0.6-0.6-1.1-0.6c-0.5,0-0.8,0.2-0.8,0.6c0,0.3,0.3,0.5,0.9,0.7
					c0.8,0.2,1.5,0.5,1.5,1.3c0,0.8-0.7,1.2-1.5,1.2c-0.6,0-1.3-0.3-1.7-0.8l0.5-0.3c0.3,0.4,0.7,0.6,1.2,0.6c0.5,0,0.9-0.2,0.9-0.7
					c0-0.4-0.3-0.6-0.9-0.7c-0.9-0.3-1.5-0.5-1.5-1.2c0-0.8,0.6-1.2,1.3-1.2C99.8,168.8,100.5,169,100.8,169.5z"/>
				<path class="st3" d="M102.8,172.1v0.9l-0.5,1.2H102l0.4-1.2H102v-0.9H102.8z"/>
				<path class="st3" d="M110.3,167.2v0.5h-2.8v1.9h2.1v0.5h-2.1v2.8h-0.6v-5.8H110.3z"/>
				<path class="st3" d="M113,169.4c-0.8,0-1.1,0.5-1.4,1.3v2.3h-0.6v-4.2h0.6v0.8h0c0.3-0.6,0.7-0.9,1.3-0.9h0V169.4z"/>
				<path class="st3" d="M116.6,170v2.2c0,0.2,0,0.5,0.1,0.8h-0.6l-0.1-0.6c-0.4,0.4-0.9,0.7-1.4,0.7c-0.7,0-1.2-0.5-1.2-1.2
					c0-1.2,1.4-1.5,2.5-1.7V170c0-0.6-0.4-0.8-0.9-0.8c-0.5,0-0.9,0.3-1.1,0.6l-0.5-0.3c0.3-0.6,0.9-0.9,1.6-0.9
					C116,168.8,116.6,169.2,116.6,170z M114.8,172.6c0.4,0,1-0.3,1.3-0.7v-1.1c-0.7,0.1-2,0.4-2,1.2
					C114.1,172.3,114.4,172.6,114.8,172.6z"/>
				<path class="st3" d="M120.9,169.9v3.1h-0.6v-3c0-0.4-0.2-0.7-0.7-0.7c-0.4,0-0.9,0.3-1.2,0.6v3.1h-0.6v-4.2h0.6v0.6h0
					c0.4-0.4,0.8-0.6,1.2-0.6C120.5,168.8,120.9,169.2,120.9,169.9z"/>
				<path class="st3" d="M125.2,169.9l-0.5,0.2c-0.2-0.5-0.5-0.8-1-0.8c-0.9,0-1.1,0.8-1.1,1.7c0,1.1,0.4,1.7,1.1,1.7
					c0.6,0,0.8-0.2,1.1-0.8l0.5,0.2c-0.4,0.7-0.8,1.1-1.6,1.1c-1.2,0-1.7-1-1.7-2.2s0.5-2.2,1.7-2.2
					C124.4,168.8,124.9,169.1,125.2,169.9z"/>
				<path class="st3" d="M129.2,170.6v0.4h-2.7c0,1,0.6,1.6,1.2,1.6c0.5,0,0.9-0.3,1.1-0.7l0.4,0.2c-0.4,0.7-0.9,1-1.6,1
					c-1.1,0-1.8-0.8-1.8-2.2c0-1.5,0.8-2.2,1.7-2.2C128.6,168.8,129.2,169.4,129.2,170.6z M128.7,170.5c0-0.8-0.4-1.3-1-1.3
					s-1,0.4-1.1,1.3H128.7z"/>
				<path class="st3" d="M131.2,172.1v0.9h-0.8v-0.9H131.2z"/>
				<path class="st3" d="M137.3,167.1v5.4h1v0.5h-2.6v-0.5h1v-4.7l-1.1,0.1v-0.4c0.5-0.1,0.9-0.2,1.1-0.4H137.3z"/>
				<path class="st3" d="M143.8,169.8c0,1.6-0.7,3.3-2.4,3.3c-0.5,0-1-0.1-1.2-0.3l0.2-0.5c0.3,0.2,0.6,0.3,1,0.3
					c1.2,0,1.7-1.2,1.8-2.4c-0.5,0.5-0.9,0.7-1.6,0.7c-0.8,0-1.7-0.5-1.7-1.9c0-1.2,0.8-1.9,1.9-1.9
					C143.1,167.1,143.8,168.1,143.8,169.8z M141.7,170.4c0.7,0,1.2-0.4,1.5-1.1c0-0.9-0.5-1.7-1.4-1.7c-0.7,0-1.3,0.5-1.3,1.3
					C140.5,169.9,141.1,170.4,141.7,170.4z"/>
				<path class="st3" d="M148.3,170.7v0.4h-4v-0.4H148.3z"/>
				<path class="st3" d="M152.6,168.7c0,0.6-0.2,1-0.6,1.4c-0.2,0.2-0.5,0.5-1,0.8c-0.7,0.5-1.2,0.9-1.5,1.6h3.1v0.5h-3.8v-0.6
					c0.3-0.7,0.9-1.3,1.5-1.7c0.3-0.2,0.6-0.4,0.9-0.6c0.5-0.4,0.8-0.8,0.8-1.4c0-0.7-0.4-1.1-1.2-1.1c-0.7,0-1.2,0.5-1.4,1.3
					l-0.6-0.1c0.3-1.1,0.9-1.6,1.9-1.6C151.8,167.1,152.6,167.7,152.6,168.7z"/>
				<path class="st3" d="M157.5,168.7c0,0.6-0.2,1-0.6,1.4c-0.2,0.2-0.5,0.5-1,0.8c-0.7,0.5-1.2,0.9-1.5,1.6h3.1v0.5h-3.8v-0.6
					c0.3-0.7,0.9-1.3,1.5-1.7c0.3-0.2,0.6-0.4,0.9-0.6c0.5-0.4,0.8-0.8,0.8-1.4c0-0.7-0.4-1.1-1.2-1.1c-0.7,0-1.2,0.5-1.4,1.3
					l-0.6-0.1c0.3-1.1,0.9-1.6,1.9-1.6C156.7,167.1,157.5,167.7,157.5,168.7z"/>
				<path class="st3" d="M162.4,167.2l1.5,4.7h0l1.4-4.7h1v5.8h-0.6v-5.4l-1.6,5.4h-0.5l-1.6-5.4v5.4h-0.6v-5.8H162.4z"/>
				<path class="st3" d="M170.6,170v2.2c0,0.2,0,0.5,0.1,0.8h-0.6l-0.1-0.6c-0.4,0.4-0.9,0.7-1.4,0.7c-0.7,0-1.2-0.5-1.2-1.2
					c0-1.2,1.4-1.5,2.5-1.7V170c0-0.6-0.4-0.8-0.9-0.8c-0.5,0-0.9,0.3-1.1,0.6l-0.5-0.3c0.3-0.6,0.9-0.9,1.6-0.9
					C170,168.8,170.6,169.2,170.6,170z M168.8,172.6c0.4,0,1-0.3,1.3-0.7v-1.1c-0.7,0.1-2,0.4-2,1.2
					C168.1,172.3,168.4,172.6,168.8,172.6z"/>
				<path class="st3" d="M171.9,168.8l1.1,3.2h0l1-3.2h0.6l-1.5,4.5c-0.3,0.8-0.7,1.2-1.4,1.2c-0.2,0-0.3,0-0.4,0V174
					c0.1,0,0.2,0,0.3,0c0.6,0,0.9-0.4,1.1-1l-1.4-4.2H171.9z"/>
				<path class="st3" d="M181.4,168.7c0,0.6-0.2,1-0.6,1.4c-0.2,0.2-0.5,0.5-1,0.8c-0.7,0.5-1.2,0.9-1.5,1.6h3.1v0.5h-3.8v-0.6
					c0.3-0.7,0.9-1.3,1.5-1.7c0.3-0.2,0.6-0.4,0.9-0.6c0.5-0.4,0.8-0.8,0.8-1.4c0-0.7-0.4-1.1-1.2-1.1s-1.2,0.5-1.4,1.3l-0.6-0.1
					c0.3-1.1,0.9-1.6,1.9-1.6C180.7,167.1,181.4,167.7,181.4,168.7z"/>
				<path class="st3" d="M186.5,170.1c0,2-0.7,3-2,3c-1.3,0-2-1-2-3c0-2,0.7-3,2-3C185.8,167.1,186.5,168.2,186.5,170.1z
					 M184.5,172.6c1,0,1.4-0.8,1.4-2.5c0-1.7-0.4-2.5-1.4-2.5c-1,0-1.4,0.8-1.4,2.5C183.1,171.8,183.5,172.6,184.5,172.6z"/>
				<path class="st3" d="M191.2,168.7c0,0.6-0.2,1-0.6,1.4c-0.2,0.2-0.5,0.5-1,0.8c-0.7,0.5-1.2,0.9-1.5,1.6h3.1v0.5h-3.8v-0.6
					c0.3-0.7,0.9-1.3,1.5-1.7c0.3-0.2,0.6-0.4,0.9-0.6c0.5-0.4,0.8-0.8,0.8-1.4c0-0.7-0.4-1.1-1.2-1.1s-1.2,0.5-1.4,1.3l-0.6-0.1
					c0.3-1.1,0.9-1.6,1.9-1.6C190.4,167.1,191.2,167.7,191.2,168.7z"/>
				<path class="st3" d="M196.1,168.7c0,0.6-0.2,1-0.6,1.4c-0.2,0.2-0.5,0.5-1,0.8c-0.7,0.5-1.2,0.9-1.5,1.6h3.1v0.5h-3.8v-0.6
					c0.3-0.7,0.9-1.3,1.5-1.7c0.3-0.2,0.6-0.4,0.9-0.6c0.5-0.4,0.8-0.8,0.8-1.4c0-0.7-0.4-1.1-1.2-1.1c-0.7,0-1.2,0.5-1.4,1.3
					l-0.6-0.1c0.3-1.1,0.9-1.6,1.9-1.6C195.3,167.1,196.1,167.7,196.1,168.7z"/>
				<path class="st3" d="M198.3,172.1v0.9h-0.8v-0.9H198.3z"/>
			</g>
			<g class="st2">
				<path class="st3" d="M15.3,176.8c0,0.6-0.3,1.1-0.7,1.6c-0.4,0.4-1.6,1.3-2,1.7h2.7v0.9h-3.9v-1c0.1-0.3,0.4-0.7,1.2-1.3
					c1.4-1.1,1.6-1.5,1.6-1.9c0-0.5-0.3-0.8-0.9-0.8c-0.5,0-0.9,0.3-1,0.9l-0.9-0.2c0.1-0.9,1-1.6,2-1.6
					C14.5,175.1,15.3,175.8,15.3,176.8z"/>
				<path class="st3" d="M17.7,179.9v1.1h-1.1v-1.1H17.7z"/>
			</g>
			<g class="st2">
				<path class="st3" d="M25.1,175.2v0.5h-2.8v1.9h2v0.5h-2v2.2h3v0.5h-3.6v-5.8H25.1z"/>
				<path class="st3" d="M26.4,175.2l1.4,4.7h0l1.4-4.7H30l-1.8,5.8h-0.6l-1.8-5.8H26.4z"/>
				<path class="st3" d="M32.8,175.2c1.1,0,1.9,0.5,1.9,1.5c0,0.7-0.4,1.2-1.2,1.5l1.2,2.8h-0.7l-1.2-2.6h-1.4v2.6h-0.6v-5.8H32.8z
					 M32.7,177.8c0.8,0,1.3-0.3,1.3-1.1c0-0.7-0.4-1-1.3-1h-1.2v2.1H32.7z"/>
				<path class="st3" d="M39.8,175.2v0.5h-2.8v1.9h2v0.5h-2v2.2h3v0.5h-3.6v-5.8H39.8z"/>
				<path class="st3" d="M42.1,175.2l2.5,4.4h0v-4.4h0.6v5.8h-0.5l-2.9-5.1h0v5.1h-0.6v-5.8H42.1z"/>
				<path class="st3" d="M50.2,175.2v0.4l-2.9,4.8h3v0.5h-3.7v-0.5l2.9-4.8h-2.6v-0.5H50.2z"/>
				<path class="st3" d="M55.5,178.1c0,1.6-0.6,3-2.3,3s-2.3-1.4-2.3-3c0-1.6,0.6-3,2.3-3C54.9,175.1,55.5,176.5,55.5,178.1z
					 M53.2,180.5c1,0,1.6-0.8,1.6-2.4c0-1.6-0.6-2.4-1.6-2.4c-1,0-1.6,0.8-1.6,2.4C51.6,179.7,52.2,180.5,53.2,180.5z"/>
				<path class="st3" d="M62.5,176.6l-0.6,0.1c-0.2-0.6-0.7-1-1.3-1c-0.7,0-1.1,0.3-1.1,0.9c0,0.5,0.5,0.7,1.1,1
					c1.1,0.4,2.1,0.7,2.1,1.8c0,1.2-0.8,1.7-1.9,1.7c-1,0-1.6-0.5-2.1-1.5l0.6-0.2c0.3,0.8,0.8,1.2,1.5,1.2c0.7,0,1.3-0.3,1.3-1
					c0-0.7-0.7-1-1.6-1.3c-1-0.4-1.7-0.7-1.7-1.6c0-0.9,0.8-1.5,1.7-1.5C61.5,175.1,62.2,175.7,62.5,176.6z"/>
				<path class="st3" d="M68.1,176.8c0.8,0,1.1,0.4,1.1,1.2v3h-0.6v-3c0-0.5-0.2-0.7-0.6-0.7c-0.5,0-0.8,0.3-1.2,0.6v3.1h-0.6v-3
					c0-0.5-0.2-0.7-0.6-0.7c-0.5,0-0.8,0.3-1.2,0.6v3.1h-0.6v-4.2h0.6v0.6c0.4-0.4,0.8-0.6,1.2-0.6c0.5,0,0.9,0.3,1.1,0.7
					C67.1,177,67.6,176.8,68.1,176.8z"/>
				<path class="st3" d="M72.7,175.2c1.1,0,1.8,0.5,1.8,1.6c0,1.2-1,1.6-2.1,1.6h-1v2.6h-0.6v-5.8H72.7z M72.4,177.9
					c1,0,1.4-0.3,1.4-1.1s-0.5-1.1-1.3-1.1h-1.2v2.1H72.4z"/>
				<path class="st3" d="M79.3,176.8l-0.6,0.2c-0.2-0.8-0.6-1.3-1.4-1.3c-1.1,0-1.5,1.2-1.5,2.4c0,1.6,0.6,2.4,1.6,2.4
					c0.7,0,1.2-0.4,1.4-1.4l0.6,0.1c-0.3,1.2-1,1.8-2,1.8c-1.6,0-2.2-1.4-2.2-3c0-1.6,0.6-3,2.2-3C78.3,175.1,79,175.7,79.3,176.8z"
					/>
				<path class="st3" d="M81.3,180.1v0.9h-0.8v-0.9H81.3z"/>
			</g>
			<g class="st2">
				<path class="st3" d="M15.5,190.8l-0.6,0.2c-0.2-0.8-0.6-1.3-1.4-1.3c-1.1,0-1.5,1.2-1.5,2.4c0,1.6,0.6,2.4,1.6,2.4
					c0.7,0,1.2-0.4,1.4-1.4l0.6,0.1c-0.3,1.2-1,1.8-2,1.8c-1.6,0-2.2-1.4-2.2-3c0-1.6,0.6-3,2.2-3C14.6,189.1,15.2,189.7,15.5,190.8
					z"/>
				<path class="st3" d="M16.7,189.2l1.4,4.7h0l1.4-4.7h0.6l-1.8,5.8h-0.6l-1.8-5.8H16.7z"/>
				<path class="st3" d="M21.1,194.1v0.9l-0.5,1.2h-0.3l0.4-1.2h-0.3v-0.9H21.1z"/>
				<path class="st3" d="M27.9,191.9l-0.5,0.2c-0.2-0.5-0.5-0.8-1-0.8c-0.9,0-1.1,0.8-1.1,1.7c0,1.1,0.4,1.7,1.1,1.7
					c0.6,0,0.8-0.2,1.1-0.8L28,194c-0.4,0.7-0.8,1.1-1.6,1.1c-1.2,0-1.7-1-1.7-2.2s0.5-2.2,1.7-2.2
					C27.1,190.8,27.6,191.1,27.9,191.9z"/>
				<path class="st3" d="M31.8,192v2.2c0,0.2,0,0.5,0.1,0.8h-0.6l-0.1-0.6c-0.4,0.4-0.9,0.7-1.4,0.7c-0.7,0-1.2-0.5-1.2-1.2
					c0-1.2,1.4-1.5,2.5-1.7V192c0-0.6-0.4-0.8-0.9-0.8c-0.5,0-0.9,0.3-1.1,0.6l-0.5-0.3c0.3-0.6,0.9-0.9,1.6-0.9
					C31.1,190.8,31.8,191.2,31.8,192z M29.9,194.6c0.4,0,1-0.3,1.3-0.7v-1.1c-0.7,0.1-2,0.4-2,1.2C29.2,194.3,29.6,194.6,29.9,194.6
					z"/>
				<path class="st3" d="M34.8,191.4c-0.8,0-1.1,0.5-1.4,1.3v2.3h-0.6v-4.2h0.6v0.8h0c0.3-0.6,0.7-0.9,1.3-0.9h0V191.4z"/>
				<path class="st3" d="M38.7,189.2v5.4c0,0.1,0,0.3,0,0.4h-0.5l-0.1-0.4c-0.2,0.3-0.6,0.5-1.1,0.5c-0.9,0-1.7-0.7-1.7-2.2
					c0-1.5,0.9-2.2,1.7-2.2c0.4,0,0.8,0.2,1.1,0.5v-2H38.7z M37.1,194.6c0.4,0,0.7-0.2,1-0.6v-2.2c-0.3-0.3-0.7-0.6-1.1-0.6
					c-0.8,0-1.2,0.6-1.2,1.7C35.9,193.8,36.3,194.6,37.1,194.6z"/>
				<path class="st3" d="M40.8,189.1v0.7h-0.6v-0.7H40.8z M40.8,190.8v4.2h-0.6v-4.2H40.8z"/>
				<path class="st3" d="M45.4,192.9c0,1.1-0.5,2.2-1.7,2.2s-1.7-1-1.7-2.2c0-1.1,0.5-2.2,1.7-2.2S45.4,191.8,45.4,192.9z
					 M43.7,194.6c0.8,0,1.1-0.8,1.1-1.7s-0.3-1.7-1.1-1.7c-0.8,0-1.1,0.9-1.1,1.7C42.5,193.7,42.8,194.6,43.7,194.6z"/>
				<path class="st3" d="M46.4,190.8l1.1,3.4h0l1.1-3.4h0.6l-1.2,4.2h-0.8l-1.3-4.2H46.4z"/>
				<path class="st3" d="M52.7,192v2.2c0,0.2,0,0.5,0.1,0.8h-0.6l-0.1-0.6c-0.4,0.4-0.9,0.7-1.4,0.7c-0.7,0-1.2-0.5-1.2-1.2
					c0-1.2,1.4-1.5,2.5-1.7V192c0-0.6-0.4-0.8-0.9-0.8c-0.5,0-0.9,0.3-1.1,0.6l-0.5-0.3c0.3-0.6,0.9-0.9,1.6-0.9
					C52,190.8,52.7,191.2,52.7,192z M50.8,194.6c0.4,0,1-0.3,1.3-0.7v-1.1c-0.7,0.1-2,0.4-2,1.2C50.1,194.3,50.5,194.6,50.8,194.6z"
					/>
				<path class="st3" d="M56.3,191.5l-0.4,0.4c-0.3-0.4-0.6-0.6-1.1-0.6c-0.5,0-0.8,0.2-0.8,0.6c0,0.3,0.3,0.5,0.9,0.7
					c0.8,0.2,1.5,0.5,1.5,1.3c0,0.8-0.7,1.2-1.5,1.2c-0.6,0-1.3-0.3-1.7-0.8l0.5-0.3c0.3,0.4,0.7,0.6,1.2,0.6c0.5,0,0.9-0.2,0.9-0.7
					c0-0.4-0.3-0.6-0.9-0.7c-0.9-0.3-1.5-0.5-1.5-1.2c0-0.8,0.6-1.2,1.3-1.2C55.4,190.8,56,191,56.3,191.5z"/>
				<path class="st3" d="M60.3,191.9l-0.5,0.2c-0.2-0.5-0.5-0.8-1-0.8c-0.9,0-1.1,0.8-1.1,1.7c0,1.1,0.4,1.7,1.1,1.7
					c0.6,0,0.8-0.2,1.1-0.8l0.5,0.2c-0.4,0.7-0.8,1.1-1.6,1.1c-1.2,0-1.7-1-1.7-2.2s0.5-2.2,1.7-2.2C59.5,190.8,60,191.1,60.3,191.9
					z"/>
				<path class="st3" d="M62.1,190.8v3c0,0.4,0.2,0.7,0.7,0.7c0.4,0,0.9-0.3,1.2-0.6v-3.1h0.6v4.2h-0.6v-0.6h0
					c-0.4,0.4-0.8,0.6-1.2,0.6c-0.7,0-1.2-0.5-1.2-1.2v-3H62.1z"/>
				<path class="st3" d="M66.6,189.2v5.8H66v-5.8H66.6z"/>
				<path class="st3" d="M70.9,192v2.2c0,0.2,0,0.5,0.1,0.8h-0.6l-0.1-0.6c-0.4,0.4-0.9,0.7-1.4,0.7c-0.7,0-1.2-0.5-1.2-1.2
					c0-1.2,1.4-1.5,2.5-1.7V192c0-0.6-0.4-0.8-0.9-0.8c-0.5,0-0.9,0.3-1.1,0.6l-0.5-0.3c0.3-0.6,0.9-0.9,1.6-0.9
					C70.3,190.8,70.9,191.2,70.9,192z M69,194.6c0.4,0,1-0.3,1.3-0.7v-1.1c-0.7,0.1-2,0.4-2,1.2C68.4,194.3,68.7,194.6,69,194.6z"/>
				<path class="st3" d="M73.9,191.4c-0.8,0-1.1,0.5-1.4,1.3v2.3H72v-4.2h0.6v0.8h0c0.3-0.6,0.7-0.9,1.3-0.9h0V191.4z"/>
				<path class="st3" d="M75.7,194.1v0.9l-0.5,1.2h-0.3l0.4-1.2h-0.3v-0.9H75.7z M75.7,191.8v0.9h-0.8v-0.9H75.7z"/>
				<path class="st3" d="M83.3,189.2v0.5h-2.8v1.9h2v0.5h-2v2.2h3v0.5h-3.6v-5.8H83.3z"/>
				<path class="st3" d="M88,190.6l-0.6,0.1c-0.2-0.6-0.7-1-1.3-1c-0.7,0-1.1,0.3-1.1,0.9c0,0.5,0.5,0.7,1.1,1
					c1.1,0.4,2.1,0.7,2.1,1.8c0,1.2-0.8,1.7-1.9,1.7c-1,0-1.6-0.5-2.1-1.5l0.6-0.2c0.3,0.8,0.8,1.2,1.5,1.2c0.7,0,1.3-0.3,1.3-1
					c0-0.7-0.7-1-1.6-1.3c-1-0.4-1.7-0.7-1.7-1.6c0-0.9,0.8-1.5,1.7-1.5C87.1,189.1,87.7,189.7,88,190.6z"/>
				<path class="st3" d="M91.7,189.2l1.8,5.8h-0.7l-0.5-1.8h-2.1l-0.5,1.8H89l1.8-5.8H91.7z M90.3,192.6h1.8l-0.8-3h-0.1L90.3,192.6
					z"/>
				<path class="st3" d="M95.3,194.1v0.9l-0.5,1.2h-0.3l0.4-1.2h-0.3v-0.9H95.3z"/>
				<path class="st3" d="M102.1,192.6v0.4h-2.7c0,1,0.6,1.6,1.2,1.6c0.5,0,0.9-0.3,1.1-0.7l0.4,0.2c-0.4,0.7-0.9,1-1.6,1
					c-1.1,0-1.8-0.8-1.8-2.2c0-1.5,0.8-2.2,1.7-2.2C101.5,190.8,102.1,191.4,102.1,192.6z M101.5,192.5c0-0.8-0.4-1.3-1-1.3
					s-1,0.4-1.1,1.3H101.5z"/>
				<path class="st3" d="M105,191.4c-0.8,0-1.1,0.5-1.4,1.3v2.3h-0.6v-4.2h0.6v0.8h0c0.3-0.6,0.7-0.9,1.3-0.9h0V191.4z"/>
				<path class="st3" d="M105.9,190.8l1.1,3.2h0l1-3.2h0.6l-1.5,4.5c-0.3,0.8-0.7,1.2-1.4,1.2c-0.2,0-0.3,0-0.4,0V196
					c0.1,0,0.2,0,0.3,0c0.6,0,0.9-0.4,1.1-1l-1.4-4.2H105.9z"/>
				<path class="st3" d="M110.1,189.5v1.4h1v0.5h-1v3c0,0.2,0.1,0.3,0.5,0.3c0.2,0,0.3,0,0.5,0v0.5c-0.1,0-0.3,0.1-0.7,0.1
					c-0.6,0-0.9-0.1-0.9-0.7v-3.1h-0.7v-0.5h0.7v-1.4H110.1z"/>
				<path class="st3" d="M112.7,189.2v2.2h0c0.4-0.4,0.8-0.6,1.2-0.6c0.8,0,1.2,0.5,1.2,1.2v3.1h-0.6v-3c0-0.4-0.2-0.7-0.7-0.7
					c-0.4,0-0.9,0.3-1.2,0.6v3.1h-0.6v-5.8H112.7z"/>
				<path class="st3" d="M118.4,191.4c-0.8,0-1.1,0.5-1.4,1.3v2.3h-0.6v-4.2h0.6v0.8h0c0.3-0.6,0.7-0.9,1.3-0.9h0V191.4z"/>
				<path class="st3" d="M122.2,192.9c0,1.1-0.5,2.2-1.7,2.2s-1.7-1-1.7-2.2c0-1.1,0.5-2.2,1.7-2.2S122.2,191.8,122.2,192.9z
					 M120.5,194.6c0.8,0,1.1-0.8,1.1-1.7s-0.3-1.7-1.1-1.7c-0.8,0-1.1,0.9-1.1,1.7C119.4,193.7,119.7,194.6,120.5,194.6z"/>
				<path class="st3" d="M126.6,192.9c0,1.7-1.1,2.2-1.7,2.2c-0.4,0-0.8-0.2-1.1-0.5v1.9h-0.6v-5.7h0.6v0.5c0.2-0.3,0.7-0.6,1.1-0.6
					C125.5,190.8,126.6,191.1,126.6,192.9z M123.8,194c0.4,0.4,0.7,0.6,1.1,0.6c0.8,0,1.2-0.6,1.2-1.7c0-1-0.4-1.6-1.2-1.6
					c-0.4,0-0.8,0.3-1,0.6V194z"/>
				<path class="st3" d="M130.7,192.9c0,1.1-0.5,2.2-1.7,2.2s-1.7-1-1.7-2.2c0-1.1,0.5-2.2,1.7-2.2S130.7,191.8,130.7,192.9z
					 M129,194.6c0.8,0,1.1-0.8,1.1-1.7s-0.3-1.7-1.1-1.7c-0.8,0-1.1,0.9-1.1,1.7C127.8,193.7,128.1,194.6,129,194.6z"/>
				<path class="st3" d="M132.4,189.1v0.7h-0.6v-0.7H132.4z M132.4,190.8v4.2h-0.6v-4.2H132.4z"/>
				<path class="st3" d="M136.8,192.6v0.4h-2.7c0,1,0.6,1.6,1.2,1.6c0.5,0,0.9-0.3,1.1-0.7l0.4,0.2c-0.4,0.7-0.9,1-1.6,1
					c-1.1,0-1.8-0.8-1.8-2.2c0-1.5,0.8-2.2,1.7-2.2C136.1,190.8,136.8,191.4,136.8,192.6z M136.2,192.5c0-0.8-0.4-1.3-1-1.3
					s-1,0.4-1.1,1.3H136.2z"/>
				<path class="st3" d="M140.3,191.5l-0.4,0.4c-0.3-0.4-0.6-0.6-1.1-0.6c-0.5,0-0.8,0.2-0.8,0.6c0,0.3,0.3,0.5,0.9,0.7
					c0.8,0.2,1.5,0.5,1.5,1.3c0,0.8-0.7,1.2-1.5,1.2c-0.6,0-1.3-0.3-1.7-0.8l0.5-0.3c0.3,0.4,0.7,0.6,1.2,0.6c0.5,0,0.9-0.2,0.9-0.7
					c0-0.4-0.3-0.6-0.9-0.7c-0.9-0.3-1.5-0.5-1.5-1.2c0-0.8,0.6-1.2,1.3-1.2C139.4,190.8,140,191,140.3,191.5z"/>
				<path class="st3" d="M142.1,189.1v0.7h-0.6v-0.7H142.1z M142.1,190.8v4.2h-0.6v-4.2H142.1z"/>
				<path class="st3" d="M146.1,191.5l-0.4,0.4c-0.3-0.4-0.6-0.6-1.1-0.6c-0.5,0-0.8,0.2-0.8,0.6c0,0.3,0.3,0.5,0.9,0.7
					c0.8,0.2,1.5,0.5,1.5,1.3c0,0.8-0.7,1.2-1.5,1.2c-0.6,0-1.3-0.3-1.7-0.8l0.5-0.3c0.3,0.4,0.7,0.6,1.2,0.6c0.5,0,0.9-0.2,0.9-0.7
					c0-0.4-0.3-0.6-0.9-0.7c-0.9-0.3-1.5-0.5-1.5-1.2c0-0.8,0.6-1.2,1.3-1.2C145.2,190.8,145.8,191,146.1,191.5z"/>
				<path class="st3" d="M148.9,192.7v0.5h-2v-0.5H148.9z"/>
			</g>
			<g class="st2">
				<path class="st3" d="M14.1,199.5l-0.4,0.4c-0.3-0.4-0.6-0.6-1.1-0.6c-0.5,0-0.8,0.2-0.8,0.6c0,0.3,0.3,0.5,0.9,0.7
					c0.8,0.2,1.5,0.5,1.5,1.3c0,0.8-0.7,1.2-1.5,1.2c-0.6,0-1.3-0.3-1.7-0.8l0.5-0.3c0.3,0.4,0.7,0.6,1.2,0.6c0.5,0,0.9-0.2,0.9-0.7
					c0-0.4-0.3-0.6-0.9-0.7c-0.9-0.3-1.5-0.5-1.5-1.2c0-0.8,0.6-1.2,1.3-1.2C13.2,198.8,13.8,199,14.1,199.5z"/>
				<path class="st3" d="M16,197.5v1.4h1v0.5h-1v3c0,0.2,0.1,0.3,0.5,0.3c0.2,0,0.3,0,0.5,0v0.5c-0.1,0-0.3,0.1-0.7,0.1
					c-0.6,0-0.9-0.1-0.9-0.7v-3.1h-0.7v-0.5h0.7v-1.4H16z"/>
				<path class="st3" d="M18.6,197.1v0.7H18v-0.7H18.6z M18.6,198.8v4.2H18v-4.2H18.6z"/>
				<path class="st3" d="M24.3,198.8c0.8,0,1.1,0.4,1.1,1.2v3h-0.6v-3c0-0.5-0.2-0.7-0.6-0.7c-0.5,0-0.8,0.3-1.2,0.6v3.1h-0.6v-3
					c0-0.5-0.2-0.7-0.6-0.7c-0.5,0-0.8,0.3-1.2,0.6v3.1h-0.6v-4.2h0.6v0.6c0.4-0.4,0.8-0.6,1.2-0.6c0.5,0,0.9,0.3,1.1,0.7
					C23.3,199,23.8,198.8,24.3,198.8z"/>
				<path class="st3" d="M27.4,198.8v3c0,0.4,0.2,0.7,0.7,0.7c0.4,0,0.9-0.3,1.2-0.6v-3.1h0.6v4.2h-0.6v-0.6h0
					c-0.4,0.4-0.8,0.6-1.2,0.6c-0.7,0-1.2-0.5-1.2-1.2v-3H27.4z"/>
				<path class="st3" d="M32,197.2v5.8h-0.6v-5.8H32z"/>
				<path class="st3" d="M36.2,200v2.2c0,0.2,0,0.5,0.1,0.8h-0.6l-0.1-0.6c-0.4,0.4-0.9,0.7-1.4,0.7c-0.7,0-1.2-0.5-1.2-1.2
					c0-1.2,1.4-1.5,2.5-1.7V200c0-0.6-0.4-0.8-0.9-0.8c-0.5,0-0.9,0.3-1.1,0.6l-0.5-0.3c0.3-0.6,0.9-0.9,1.6-0.9
					C35.6,198.8,36.2,199.2,36.2,200z M34.4,202.6c0.4,0,1-0.3,1.3-0.7v-1.1c-0.7,0.1-2,0.4-2,1.2C33.7,202.3,34,202.6,34.4,202.6z"
					/>
				<path class="st3" d="M38.2,197.5v1.4h1v0.5h-1v3c0,0.2,0.1,0.3,0.5,0.3c0.2,0,0.3,0,0.5,0v0.5c-0.1,0-0.3,0.1-0.7,0.1
					c-0.6,0-0.9-0.1-0.9-0.7v-3.1h-0.7v-0.5h0.7v-1.4H38.2z"/>
				<path class="st3" d="M40.8,197.1v0.7h-0.6v-0.7H40.8z M40.8,198.8v4.2h-0.6v-4.2H40.8z"/>
				<path class="st3" d="M45.4,199.9v3.1h-0.6v-3c0-0.4-0.2-0.7-0.7-0.7c-0.4,0-0.9,0.3-1.2,0.6v3.1h-0.6v-4.2H43v0.6h0
					c0.4-0.4,0.8-0.6,1.2-0.6C44.9,198.8,45.4,199.2,45.4,199.9z"/>
				<path class="st3" d="M49.9,199.3c-0.3,0-0.5,0-0.6,0.1c0.2,0.2,0.3,0.5,0.3,0.8c0,0.8-0.7,1.5-1.5,1.5c-0.3,0-0.4,0-0.7-0.1
					c-0.2,0.1-0.3,0.2-0.3,0.4c0,0.2,0.1,0.3,0.4,0.3c1.8,0,2.6,0.3,2.6,1.2c0,0.6-0.6,1.1-1.9,1.1c-1.2,0-1.8-0.3-1.8-1
					c0-0.4,0.3-0.6,0.7-0.8c-0.3-0.1-0.5-0.3-0.5-0.6c0-0.4,0.3-0.5,0.6-0.7c-0.4-0.3-0.6-0.7-0.6-1.2c0-0.9,0.7-1.5,1.6-1.5
					c0.4,0,0.8,0.1,1,0.3c0.2-0.2,0.6-0.3,0.9-0.4V199.3z M48.1,204c0.8,0,1.3-0.2,1.3-0.6c0-0.4-0.4-0.6-1.4-0.6
					c-0.6,0-1.2,0.2-1.2,0.7C46.8,203.9,47.1,204,48.1,204z M48.1,201.2c0.6,0,1-0.4,1-0.9c0-0.6-0.4-1-1.1-1c-0.6,0-1,0.4-1,1
					S47.5,201.2,48.1,201.2z"/>
				<path class="st3" d="M56,200v2.2c0,0.2,0,0.5,0.1,0.8h-0.6l-0.1-0.6c-0.4,0.4-0.9,0.7-1.4,0.7c-0.7,0-1.2-0.5-1.2-1.2
					c0-1.2,1.4-1.5,2.5-1.7V200c0-0.6-0.4-0.8-0.9-0.8c-0.5,0-0.9,0.3-1.1,0.6l-0.5-0.3c0.3-0.6,0.9-0.9,1.6-0.9
					C55.4,198.8,56,199.2,56,200z M54.2,202.6c0.4,0,1-0.3,1.3-0.7v-1.1c-0.7,0.1-2,0.4-2,1.2C53.5,202.3,53.8,202.6,54.2,202.6z"/>
				<path class="st3" d="M60.4,199.3c-0.3,0-0.5,0-0.6,0.1c0.2,0.2,0.3,0.5,0.3,0.8c0,0.8-0.7,1.5-1.5,1.5c-0.3,0-0.4,0-0.7-0.1
					c-0.2,0.1-0.3,0.2-0.3,0.4c0,0.2,0.1,0.3,0.4,0.3c1.8,0,2.6,0.3,2.6,1.2c0,0.6-0.6,1.1-1.9,1.1c-1.2,0-1.8-0.3-1.8-1
					c0-0.4,0.3-0.6,0.7-0.8c-0.3-0.1-0.5-0.3-0.5-0.6c0-0.4,0.3-0.5,0.6-0.7c-0.4-0.3-0.6-0.7-0.6-1.2c0-0.9,0.7-1.5,1.6-1.5
					c0.4,0,0.8,0.1,1,0.3c0.2-0.2,0.6-0.3,0.9-0.4V199.3z M58.6,204c0.8,0,1.3-0.2,1.3-0.6c0-0.4-0.4-0.6-1.4-0.6
					c-0.6,0-1.2,0.2-1.2,0.7C57.3,203.9,57.5,204,58.6,204z M58.5,201.2c0.6,0,1-0.4,1-0.9c0-0.6-0.4-1-1.1-1c-0.6,0-1,0.4-1,1
					S57.9,201.2,58.5,201.2z"/>
				<path class="st3" d="M64.1,200.6v0.4h-2.7c0,1,0.6,1.6,1.2,1.6c0.5,0,0.9-0.3,1.1-0.7l0.4,0.2c-0.4,0.7-0.9,1-1.6,1
					c-1.1,0-1.8-0.8-1.8-2.2c0-1.5,0.8-2.2,1.7-2.2C63.5,198.8,64.1,199.4,64.1,200.6z M63.6,200.5c0-0.8-0.4-1.3-1-1.3
					s-1,0.4-1.1,1.3H63.6z"/>
				<path class="st3" d="M68.3,199.9v3.1h-0.6v-3c0-0.4-0.2-0.7-0.7-0.7c-0.4,0-0.9,0.3-1.2,0.6v3.1h-0.6v-4.2h0.6v0.6h0
					c0.4-0.4,0.8-0.6,1.2-0.6C67.8,198.8,68.3,199.2,68.3,199.9z"/>
				<path class="st3" d="M70.4,197.5v1.4h1v0.5h-1v3c0,0.2,0.1,0.3,0.5,0.3c0.2,0,0.3,0,0.5,0v0.5c-0.1,0-0.3,0.1-0.7,0.1
					c-0.6,0-0.9-0.1-0.9-0.7v-3.1h-0.7v-0.5h0.7v-1.4H70.4z"/>
			</g>
			<g class="st2">
				<path class="st3" d="M15.3,205.2v0.9h-2.6v1.4h1.9v0.9h-1.9v2.5h-1.1v-5.8H15.3z"/>
				<path class="st3" d="M19.3,208.9c0,1.3-0.7,2.2-1.8,2.2c-1.1,0-1.8-0.8-1.8-2.2c0-1.3,0.7-2.2,1.8-2.2S19.3,207.6,19.3,208.9z
					 M17.4,210.3c0.5,0,0.8-0.4,0.8-1.4c0-0.9-0.3-1.4-0.8-1.4c-0.6,0-0.8,0.5-0.8,1.4C16.6,209.9,16.9,210.3,17.4,210.3z"/>
				<path class="st3" d="M22,207.8c0,0-0.1,0-0.2,0c-0.5,0-0.9,0.5-0.9,0.7v2.5h-1v-4.2h0.9v0.7h0c0.2-0.5,0.6-0.8,1.2-0.8V207.8z"
					/>
				<path class="st3" d="M26.3,205.2v2.3h2.2v-2.3h1.1v5.8h-1.1v-2.5h-2.2v2.5h-1.1v-5.8H26.3z"/>
				<path class="st3" d="M34,208.6v0.4h-2.5c0,0.8,0.3,1.2,0.9,1.2c0.4,0,0.6-0.1,0.9-0.5l0.7,0.4c-0.4,0.6-0.9,0.8-1.7,0.8
					c-1.1,0-1.8-0.8-1.8-2.2s0.7-2.2,1.8-2.2C33.5,206.8,34,207.8,34,208.6z M33.1,208.4c0-0.6-0.3-0.9-0.8-0.9
					c-0.5,0-0.8,0.3-0.8,0.9H33.1z"/>
				<path class="st3" d="M37.8,208.4v2c0,0.1,0,0.4,0.1,0.6h-1l-0.1-0.4c-0.4,0.3-0.8,0.4-1.3,0.4c-0.7,0-1.1-0.5-1.1-1.1
					c0-0.9,0.8-1.4,2.4-1.6V208c0-0.3-0.3-0.5-0.6-0.5c-0.3,0-0.6,0.2-0.9,0.5l-0.6-0.5c0.3-0.4,0.9-0.8,1.5-0.8
					C37.4,206.8,37.8,207.2,37.8,208.4z M35.9,210.3c0.3,0,0.6-0.2,0.9-0.4V209c-1.1,0.2-1.4,0.5-1.4,0.8
					C35.5,210.2,35.7,210.3,35.9,210.3z"/>
				<path class="st3" d="M39.9,205.2v5.8h-1v-5.8H39.9z"/>
				<path class="st3" d="M42.2,205.5v1.4H43v0.8h-0.8v2.4c0,0.2,0.1,0.3,0.4,0.3c0.2,0,0.3,0,0.5-0.1v0.8c-0.3,0-0.5,0.1-0.8,0.1
					c-0.7,0-1-0.3-1-1v-2.5h-0.6v-0.8h0.6v-1.4H42.2z"/>
				<path class="st3" d="M44.7,205.2v2.1c0.4-0.4,0.8-0.5,1.2-0.5c0.8,0,1.2,0.5,1.2,1.4v2.9h-1v-2.7c0-0.5-0.1-0.7-0.5-0.7
					c-0.3,0-0.7,0.2-0.9,0.4v3h-1v-5.8H44.7z"/>
				<path class="st3" d="M51.3,207.9l-0.8,0.3c-0.2-0.5-0.4-0.6-0.8-0.6c-0.6,0-0.8,0.4-0.8,1.4c0,0.9,0.3,1.4,0.8,1.4
					c0.4,0,0.6-0.2,0.9-0.7l0.8,0.4c-0.4,0.7-0.9,1-1.6,1c-1.2,0-1.8-0.8-1.8-2.2c0-1.3,0.7-2.2,1.8-2.2
					C50.4,206.8,51.1,207.2,51.3,207.9z"/>
				<path class="st3" d="M55.2,208.4v2c0,0.1,0,0.4,0.1,0.6h-1l-0.1-0.4c-0.4,0.3-0.8,0.4-1.3,0.4c-0.7,0-1.1-0.5-1.1-1.1
					c0-0.9,0.8-1.4,2.4-1.6V208c0-0.3-0.3-0.5-0.6-0.5c-0.3,0-0.6,0.2-0.9,0.5l-0.6-0.5c0.3-0.4,0.9-0.8,1.5-0.8
					C54.7,206.8,55.2,207.2,55.2,208.4z M53.3,210.3c0.3,0,0.6-0.2,0.9-0.4V209c-1.1,0.2-1.4,0.5-1.4,0.8
					C52.8,210.2,53,210.3,53.3,210.3z"/>
				<path class="st3" d="M58.2,207.8c0,0-0.1,0-0.2,0c-0.5,0-0.9,0.5-0.9,0.7v2.5h-1v-4.2H57v0.7h0c0.2-0.5,0.6-0.8,1.2-0.8V207.8z"
					/>
				<path class="st3" d="M62,208.6v0.4h-2.5c0,0.8,0.3,1.2,0.9,1.2c0.4,0,0.6-0.1,0.9-0.5l0.7,0.4c-0.4,0.6-0.9,0.8-1.7,0.8
					c-1.1,0-1.8-0.8-1.8-2.2s0.7-2.2,1.8-2.2C61.5,206.8,62,207.8,62,208.6z M61.1,208.4c0-0.6-0.3-0.9-0.8-0.9
					c-0.5,0-0.8,0.3-0.8,0.9H61.1z"/>
				<path class="st3" d="M67.4,205.2c1.3,0,2,0.6,2,1.7s-0.7,1.7-2,1.7h-1v2.3h-1.1v-5.8H67.4z M67.3,207.8c0.7,0,1-0.2,1-0.8
					s-0.4-0.8-1-0.8h-0.9v1.6H67.3z"/>
				<path class="st3" d="M72.2,207.8c0,0-0.1,0-0.2,0c-0.5,0-0.9,0.5-0.9,0.7v2.5h-1v-4.2H71v0.7h0c0.2-0.5,0.6-0.8,1.2-0.8V207.8z"
					/>
				<path class="st3" d="M76.1,208.9c0,1.3-0.7,2.2-1.8,2.2c-1.1,0-1.8-0.8-1.8-2.2c0-1.3,0.7-2.2,1.8-2.2S76.1,207.6,76.1,208.9z
					 M74.3,210.3c0.5,0,0.8-0.4,0.8-1.4c0-0.9-0.3-1.4-0.8-1.4c-0.6,0-0.8,0.5-0.8,1.4C73.5,209.9,73.8,210.3,74.3,210.3z"/>
				<path class="st3" d="M78.8,205.1v0.8h-0.2c-0.5,0-0.6,0.2-0.6,0.5v0.4h0.8v0.8H78v3.4h-1v-3.4h-0.6v-0.8H77v-0.5
					c0-0.8,0.3-1.2,1.1-1.2H78.8z"/>
				<path class="st3" d="M82.7,208.6v0.4h-2.5c0,0.8,0.3,1.2,0.9,1.2c0.4,0,0.6-0.1,0.9-0.5l0.7,0.4c-0.4,0.6-0.9,0.8-1.7,0.8
					c-1.1,0-1.8-0.8-1.8-2.2s0.7-2.2,1.8-2.2C82.1,206.8,82.7,207.8,82.7,208.6z M81.8,208.4c0-0.6-0.3-0.9-0.8-0.9
					c-0.5,0-0.8,0.3-0.8,0.9H81.8z"/>
				<path class="st3" d="M86.1,207.4l-0.6,0.5c-0.3-0.3-0.5-0.4-0.8-0.4c-0.4,0-0.6,0.2-0.6,0.4c0,0.2,0.2,0.4,0.7,0.6
					c1,0.3,1.3,0.7,1.3,1.4c0,0.8-0.6,1.2-1.5,1.2c-0.7,0-1.2-0.3-1.6-0.8l0.7-0.5c0.3,0.4,0.6,0.6,1,0.6c0.4,0,0.6-0.2,0.6-0.5
					c0-0.2-0.2-0.4-0.8-0.6c-1-0.3-1.3-0.7-1.3-1.3c0-0.7,0.6-1.2,1.4-1.2C85.2,206.8,85.8,207,86.1,207.4z"/>
				<path class="st3" d="M89.7,207.4l-0.6,0.5c-0.3-0.3-0.5-0.4-0.8-0.4c-0.4,0-0.6,0.2-0.6,0.4c0,0.2,0.2,0.4,0.7,0.6
					c1,0.3,1.3,0.7,1.3,1.4c0,0.8-0.6,1.2-1.5,1.2c-0.7,0-1.2-0.3-1.6-0.8l0.7-0.5c0.3,0.4,0.6,0.6,1,0.6c0.4,0,0.6-0.2,0.6-0.5
					c0-0.2-0.2-0.4-0.8-0.6c-1-0.3-1.3-0.7-1.3-1.3c0-0.7,0.6-1.2,1.4-1.2C88.8,206.8,89.3,207,89.7,207.4z"/>
				<path class="st3" d="M91.7,205.1v0.9h-1v-0.9H91.7z M91.7,206.8v4.2h-1v-4.2H91.7z"/>
				<path class="st3" d="M96.1,208.9c0,1.3-0.7,2.2-1.8,2.2c-1.1,0-1.8-0.8-1.8-2.2c0-1.3,0.7-2.2,1.8-2.2S96.1,207.6,96.1,208.9z
					 M94.3,210.3c0.5,0,0.8-0.4,0.8-1.4c0-0.9-0.3-1.4-0.8-1.4c-0.6,0-0.8,0.5-0.8,1.4C93.5,209.9,93.8,210.3,94.3,210.3z"/>
				<path class="st3" d="M100.2,208.1v2.9h-1v-2.7c0-0.5-0.1-0.7-0.5-0.7c-0.3,0-0.7,0.2-0.9,0.4v3h-1v-4.2h0.9v0.4
					c0.5-0.4,0.9-0.5,1.3-0.5C99.8,206.8,100.2,207.3,100.2,208.1z"/>
				<path class="st3" d="M104.3,208.4v2c0,0.1,0,0.4,0.1,0.6h-1l-0.1-0.4c-0.4,0.3-0.8,0.4-1.3,0.4c-0.7,0-1.1-0.5-1.1-1.1
					c0-0.9,0.8-1.4,2.4-1.6V208c0-0.3-0.3-0.5-0.6-0.5c-0.3,0-0.6,0.2-0.9,0.5l-0.6-0.5c0.3-0.4,0.9-0.8,1.5-0.8
					C103.8,206.8,104.3,207.2,104.3,208.4z M102.4,210.3c0.3,0,0.6-0.2,0.9-0.4V209c-1.1,0.2-1.4,0.5-1.4,0.8
					C101.9,210.2,102.1,210.3,102.4,210.3z"/>
				<path class="st3" d="M106.4,205.2v5.8h-1v-5.8H106.4z"/>
				<path class="st3" d="M110.1,207.4l-0.6,0.5c-0.3-0.3-0.5-0.4-0.8-0.4c-0.4,0-0.6,0.2-0.6,0.4c0,0.2,0.2,0.4,0.7,0.6
					c1,0.3,1.3,0.7,1.3,1.4c0,0.8-0.6,1.2-1.5,1.2c-0.7,0-1.2-0.3-1.6-0.8l0.7-0.5c0.3,0.4,0.6,0.6,1,0.6c0.4,0,0.6-0.2,0.6-0.5
					c0-0.2-0.2-0.4-0.8-0.6c-1-0.3-1.3-0.7-1.3-1.3c0-0.7,0.6-1.2,1.4-1.2C109.2,206.8,109.8,207,110.1,207.4z"/>
				<path class="st3" d="M118.1,208.1c0,1.9-0.9,3-2.4,3s-2.4-1.1-2.4-3c0-1.9,0.9-3,2.4-3S118.1,206.2,118.1,208.1z M115.6,210.2
					c0.9,0,1.3-0.7,1.3-2c0-1.4-0.4-2-1.3-2c-0.9,0-1.3,0.6-1.3,2.1C114.3,209.5,114.7,210.2,115.6,210.2z"/>
				<path class="st3" d="M122.2,208.1v2.9h-1v-2.7c0-0.5-0.1-0.7-0.5-0.7c-0.3,0-0.7,0.2-0.9,0.4v3h-1v-4.2h0.9v0.4
					c0.5-0.4,0.9-0.5,1.3-0.5C121.8,206.8,122.2,207.3,122.2,208.1z"/>
				<path class="st3" d="M124.4,205.2v5.8h-1v-5.8H124.4z"/>
				<path class="st3" d="M126.1,206.8l0.7,2.6h0l0.7-2.6h1l-1.3,4.2c-0.1,0.2-0.2,0.5-0.4,0.8c-0.3,0.5-0.7,0.7-1.2,0.7
					c-0.2,0-0.3,0-0.5,0v-0.8c0.1,0,0.3,0,0.5,0c0.2,0,0.4,0,0.5-0.2c0.1-0.1,0.3-0.4,0.3-0.6c0-0.1,0-0.1,0-0.2l-1.2-3.9H126.1z"/>
			</g>
			<g class="st2">
				<path class="st3" d="M13.7,60.6V70h-1.8v-9.4H13.7z"/>
				<path class="st3" d="M20.3,64.6V70h-1.6v-5.2c0-0.4-0.2-0.8-0.6-0.8c-0.4,0-0.7,0.3-1.1,0.6V70h-1.6v-7.1H17v0.8
					c0.8-0.7,1.3-0.9,1.8-0.9C19.9,62.8,20.3,63.4,20.3,64.6z"/>
				<path class="st3" d="M30.6,65.5v1.8c0,1.8-0.5,2.8-1.8,2.8c-0.5,0-1.1-0.3-1.7-0.8v3.1h-1.6v-9.6H27v0.9h0c0.4-0.6,1.1-1,1.8-1
					C30,62.8,30.6,63.7,30.6,65.5z M27.1,68.4c0.3,0.4,0.6,0.5,1,0.5c0.6,0,0.8-0.6,0.8-1.6v-1.6c0-1-0.2-1.6-0.8-1.6
					c-0.4,0-0.6,0.2-1,0.5V68.4z"/>
				<path class="st3" d="M36.9,64.9v4.6c0,0.1,0,0.3,0.1,0.6h-1.6l-0.1-0.7c-0.5,0.5-1.1,0.8-2,0.8c-1,0-1.6-0.5-1.6-1.7
					c0-1.7,1.7-2.4,3.6-3V65c0-0.6-0.3-0.8-0.8-0.8c-0.5,0-0.9,0.4-0.9,0.9h-1.6c0.1-1.5,1.2-2.2,2.6-2.2
					C36.1,62.8,36.9,63.6,36.9,64.9z M34,68.9c0.5,0,0.8-0.3,1.2-0.7v-1.7c-0.7,0.3-2,0.8-2,1.6C33.3,68.6,33.6,68.9,34,68.9z"/>
				<path class="st3" d="M40.1,61.3v1.9h1.1v1.3h-1.1v3.6c0,0.3,0.2,0.5,0.8,0.5c0.1,0,0.1,0,0.2,0v1.4c-0.3,0.1-0.6,0.1-0.9,0.1
					c-1.3,0-1.8-0.5-1.8-1.4v-4.2h-0.6v-1.3h0.6v-1.9H40.1z"/>
				<path class="st3" d="M44,60.2v1.5h-1.6v-1.5H44z M44,62.9V70h-1.6v-7.1H44z"/>
				<path class="st3" d="M50.8,65.2v1.7h-3.6v1c0,0.6,0.4,1,1,1c0.6,0,1-0.3,1-1h1.6c-0.1,1.5-1,2.3-2.6,2.3c-1.5,0-2.6-1-2.6-2.5
					v-2.4c0-1.5,1.1-2.5,2.6-2.5C49.7,62.8,50.8,63.7,50.8,65.2z M49.2,65.5v-0.4c0-0.6-0.3-1-1-1c-0.6,0-1,0.4-1,0.9v0.5H49.2z"/>
				<path class="st3" d="M57.2,64.6V70h-1.6v-5.2c0-0.4-0.2-0.8-0.6-0.8c-0.4,0-0.7,0.3-1.1,0.6V70h-1.6v-7.1h1.6v0.8
					c0.8-0.7,1.3-0.9,1.8-0.9C56.7,62.8,57.2,63.4,57.2,64.6z"/>
				<path class="st3" d="M60.3,61.3v1.9h1.1v1.3h-1.1v3.6c0,0.3,0.2,0.5,0.8,0.5c0.1,0,0.1,0,0.2,0v1.4c-0.3,0.1-0.6,0.1-0.9,0.1
					c-1.3,0-1.8-0.5-1.8-1.4v-4.2H58v-1.3h0.6v-1.9H60.3z"/>
				<path class="st3" d="M66.8,64.6l-1.4,0.5c-0.2-0.7-0.6-1-1.1-1c-0.4,0-0.7,0.3-0.7,0.6c0,0.4,0.4,0.7,1.3,1.1
					c1.2,0.6,1.9,1.1,1.9,2.2c0,1.4-1,2.1-2.4,2.1c-1.5,0-2.1-0.7-2.7-2l1.5-0.4c0.1,0.7,0.5,1.1,1.2,1.1c0.5,0,0.8-0.2,0.8-0.6
					c0-0.6-0.5-0.9-1.4-1.2c-0.9-0.4-1.8-0.9-1.8-2.2c0-1.3,1-2,2.2-2C65.5,62.8,66.4,63.4,66.8,64.6z"/>
				<path class="st3" d="M76.7,64.6V70H75v-5.2c0-0.4-0.2-0.8-0.6-0.8c-0.4,0-0.7,0.3-1.1,0.6V70h-1.6v-7.1h1.6v0.8
					c0.8-0.7,1.3-0.9,1.8-0.9C76.2,62.8,76.7,63.4,76.7,64.6z"/>
				<path class="st3" d="M83.3,65.4v2.1c0,1.7-0.9,2.6-2.6,2.6c-1.8,0-2.6-1-2.6-2.6v-2.1c0-1.7,0.9-2.6,2.6-2.6
					C82.4,62.8,83.3,63.7,83.3,65.4z M79.7,67.9c0,0.5,0.4,0.8,1,0.8s1-0.3,1-0.8V65c0-0.5-0.4-0.8-1-0.8c-0.6,0-1,0.3-1,0.8V67.9z"
					/>
				<path class="st3" d="M86.3,61.3v1.9h1.1v1.3h-1.1v3.6c0,0.3,0.2,0.5,0.8,0.5c0.1,0,0.1,0,0.2,0v1.4c-0.3,0.1-0.6,0.1-0.9,0.1
					c-1.3,0-1.8-0.5-1.8-1.4v-4.2H84v-1.3h0.6v-1.9H86.3z"/>
				<path class="st3" d="M97,65.4v2.1c0,1.7-0.9,2.6-2.6,2.6c-1.8,0-2.6-1-2.6-2.6v-2.1c0-1.7,0.9-2.6,2.6-2.6S97,63.7,97,65.4z
					 M93.5,67.9c0,0.5,0.4,0.8,1,0.8c0.6,0,1-0.3,1-0.8V65c0-0.5-0.4-0.8-1-0.8c-0.6,0-1,0.3-1,0.8V67.9z"/>
				<path class="st3" d="M103.4,64.6V70h-1.6v-5.2c0-0.4-0.2-0.8-0.6-0.8c-0.4,0-0.7,0.3-1.1,0.6V70h-1.6v-7.1h1.6v0.8
					c0.8-0.7,1.3-0.9,1.8-0.9C103,62.8,103.4,63.4,103.4,64.6z"/>
				<path class="st3" d="M113.5,60.6V70H112v-0.9h0c-0.3,0.5-1.1,1-1.7,1c-1.2,0-1.8-1-1.8-2.7v-1.8c0-1.8,0.6-2.8,1.8-2.8
					c0.5,0,0.9,0.2,1.6,0.8v-3H113.5z M111.9,64.5c-0.3-0.4-0.6-0.5-1-0.5c-0.6,0-0.8,0.5-0.8,1.6v1.7c0,1,0.2,1.6,0.8,1.6
					c0.4,0,0.7-0.1,1-0.5V64.5z"/>
				<path class="st3" d="M116.9,60.2v1.5h-1.6v-1.5H116.9z M116.9,62.9V70h-1.6v-7.1H116.9z"/>
				<path class="st3" d="M123.6,64.9v4.6c0,0.1,0,0.3,0.1,0.6H122l-0.1-0.7c-0.5,0.5-1.1,0.8-2,0.8c-1,0-1.6-0.5-1.6-1.7
					c0-1.7,1.7-2.4,3.6-3V65c0-0.6-0.3-0.8-0.8-0.8c-0.5,0-0.9,0.4-0.9,0.9h-1.6c0.1-1.5,1.2-2.2,2.6-2.2
					C122.8,62.8,123.6,63.6,123.6,64.9z M120.7,68.9c0.5,0,0.8-0.3,1.2-0.7v-1.7c-0.7,0.3-2,0.8-2,1.6
					C120,68.6,120.3,68.9,120.7,68.9z"/>
				<path class="st3" d="M127,60.6V70h-1.6v-9.4H127z"/>
				<path class="st3" d="M129.8,62.9l1.1,4.7h0l1-4.7h1.7l-1.9,7.1c-0.4,1.6-0.9,2.5-2.8,2.5c-0.3,0-0.4,0-0.5,0V71
					c0.1,0,0.2,0,0.4,0c1,0,1.3-0.7,1.3-0.9c0-0.5-0.2-1-0.3-1.5l-1.6-5.7H129.8z"/>
				<path class="st3" d="M139,64.6l-1.4,0.5c-0.2-0.7-0.6-1-1.1-1c-0.4,0-0.7,0.3-0.7,0.6c0,0.4,0.4,0.7,1.3,1.1
					c1.2,0.6,1.9,1.1,1.9,2.2c0,1.4-1,2.1-2.4,2.1c-1.5,0-2.1-0.7-2.7-2l1.5-0.4c0.1,0.7,0.5,1.1,1.2,1.1c0.5,0,0.8-0.2,0.8-0.6
					c0-0.6-0.5-0.9-1.4-1.2c-0.9-0.4-1.8-0.9-1.8-2.2c0-1.3,1-2,2.2-2C137.7,62.8,138.6,63.4,139,64.6z"/>
				<path class="st3" d="M142.2,60.2v1.5h-1.6v-1.5H142.2z M142.2,62.9V70h-1.6v-7.1H142.2z"/>
				<path class="st3" d="M148.4,64.6l-1.4,0.5c-0.2-0.7-0.6-1-1.1-1c-0.4,0-0.7,0.3-0.7,0.6c0,0.4,0.4,0.7,1.3,1.1
					c1.2,0.6,1.9,1.1,1.9,2.2c0,1.4-1,2.1-2.4,2.1c-1.5,0-2.1-0.7-2.7-2l1.5-0.4c0.1,0.7,0.5,1.1,1.2,1.1c0.5,0,0.8-0.2,0.8-0.6
					c0-0.6-0.5-0.9-1.4-1.2c-0.9-0.4-1.8-0.9-1.8-2.2c0-1.3,1-2,2.2-2C147.1,62.8,148,63.4,148.4,64.6z"/>
				<path class="st3" d="M158.2,64.9v4.6c0,0.1,0,0.3,0.1,0.6h-1.6l-0.1-0.7c-0.5,0.5-1.1,0.8-2,0.8c-1,0-1.6-0.5-1.6-1.7
					c0-1.7,1.7-2.4,3.6-3V65c0-0.6-0.3-0.8-0.8-0.8c-0.5,0-0.9,0.4-0.9,0.9h-1.6c0.1-1.5,1.2-2.2,2.6-2.2
					C157.4,62.8,158.2,63.6,158.2,64.9z M155.4,68.9c0.5,0,0.8-0.3,1.2-0.7v-1.7c-0.7,0.3-2,0.8-2,1.6
					C154.6,68.6,154.9,68.9,155.4,68.9z"/>
				<path class="st3" d="M164.8,64.6V70h-1.6v-5.2c0-0.4-0.2-0.8-0.6-0.8c-0.4,0-0.7,0.3-1.1,0.6V70h-1.6v-7.1h1.6v0.8
					c0.8-0.7,1.3-0.9,1.8-0.9C164.4,62.8,164.8,63.4,164.8,64.6z"/>
				<path class="st3" d="M171.3,60.6V70h-1.5v-0.9h0c-0.3,0.5-1.1,1-1.7,1c-1.2,0-1.8-1-1.8-2.7v-1.8c0-1.8,0.6-2.8,1.8-2.8
					c0.5,0,0.9,0.2,1.6,0.8v-3H171.3z M169.7,64.5c-0.3-0.4-0.6-0.5-1-0.5c-0.6,0-0.8,0.5-0.8,1.6v1.7c0,1,0.2,1.6,0.8,1.6
					c0.4,0,0.7-0.1,1-0.5V64.5z"/>
				<path class="st3" d="M178,61.3v1.9h1.1v1.3H178v3.6c0,0.3,0.2,0.5,0.8,0.5c0.1,0,0.1,0,0.2,0v1.4c-0.3,0.1-0.7,0.1-0.9,0.1
					c-1.3,0-1.8-0.5-1.8-1.4v-4.2h-0.6v-1.3h0.6v-1.9H178z"/>
				<path class="st3" d="M181.7,60.6v3.1c0.7-0.7,1.2-0.9,1.8-0.9c1.1,0,1.5,0.6,1.5,1.8V70h-1.6v-5.2c0-0.4-0.2-0.7-0.6-0.7
					c-0.4,0-0.7,0.3-1.1,0.6V70h-1.6v-9.4H181.7z"/>
				<path class="st3" d="M191.6,65.4v2.1c0,1.7-0.9,2.6-2.6,2.6c-1.8,0-2.6-1-2.6-2.6v-2.1c0-1.7,0.9-2.6,2.6-2.6
					C190.8,62.8,191.6,63.7,191.6,65.4z M188.1,67.9c0,0.5,0.4,0.8,1,0.8c0.6,0,1-0.3,1-0.8V65c0-0.5-0.4-0.8-1-0.8
					c-0.6,0-1,0.3-1,0.8V67.9z"/>
				<path class="st3" d="M197.5,64.6l-1.4,0.5c-0.2-0.7-0.6-1-1.1-1c-0.4,0-0.7,0.3-0.7,0.6c0,0.4,0.4,0.7,1.3,1.1
					c1.2,0.6,1.9,1.1,1.9,2.2c0,1.4-1,2.1-2.4,2.1c-1.5,0-2.1-0.7-2.7-2l1.5-0.4c0.1,0.7,0.5,1.1,1.2,1.1c0.5,0,0.8-0.2,0.8-0.6
					c0-0.6-0.5-0.9-1.4-1.2c-0.9-0.4-1.8-0.9-1.8-2.2c0-1.3,1-2,2.2-2C196.2,62.8,197.1,63.4,197.5,64.6z"/>
				<path class="st3" d="M203.9,65.2v1.7h-3.6v1c0,0.6,0.4,1,1,1c0.6,0,1-0.3,1-1h1.6c-0.1,1.5-1,2.3-2.6,2.3c-1.5,0-2.6-1-2.6-2.5
					v-2.4c0-1.5,1.1-2.5,2.6-2.5C202.8,62.8,203.9,63.7,203.9,65.2z M202.3,65.5v-0.4c0-0.6-0.3-1-1-1c-0.6,0-1,0.4-1,0.9v0.5H202.3
					z"/>
			</g>
			<g class="st2">
				<path class="st3" d="M13.6,77.9v7.7c0,1.2-0.8,1.9-2,1.9c-0.2,0-0.4,0-0.6,0V86c0.7,0,1-0.2,1-0.6v-7.5H13.6z M13.6,75.2v1.5H12
					v-1.5H13.6z"/>
				<path class="st3" d="M17,77.9v5.2c0,0.4,0.1,0.8,0.6,0.8c0.4,0,0.7-0.3,1.1-0.6v-5.3h1.6V85h-1.6v-0.8c-0.7,0.7-1.3,0.9-1.8,0.9
					c-1.1,0-1.5-0.7-1.5-1.8v-5.4H17z"/>
				<path class="st3" d="M26.4,79.6L25,80.1c-0.2-0.7-0.6-1-1.1-1c-0.4,0-0.7,0.3-0.7,0.6c0,0.4,0.4,0.7,1.3,1.1
					c1.2,0.6,1.9,1.1,1.9,2.2c0,1.4-1,2.1-2.4,2.1c-1.5,0-2.1-0.7-2.7-2l1.5-0.4c0.1,0.7,0.5,1.1,1.2,1.1c0.5,0,0.8-0.2,0.8-0.6
					c0-0.6-0.5-0.9-1.4-1.2c-0.9-0.4-1.8-0.9-1.8-2.2c0-1.3,1-2,2.2-2C25,77.8,25.9,78.4,26.4,79.6z"/>
				<path class="st3" d="M29.3,76.3v1.9h1.1v1.3h-1.1v3.6c0,0.3,0.2,0.5,0.8,0.5c0.1,0,0.1,0,0.2,0v1.4c-0.3,0.1-0.6,0.1-0.9,0.1
					c-1.3,0-1.8-0.5-1.8-1.4v-4.2H27v-1.3h0.6v-1.9H29.3z"/>
				<path class="st3" d="M39.4,79.6L38,80.1c-0.2-0.7-0.6-1-1.1-1c-0.4,0-0.7,0.3-0.7,0.6c0,0.4,0.4,0.7,1.3,1.1
					c1.2,0.6,1.9,1.1,1.9,2.2c0,1.4-1,2.1-2.4,2.1c-1.5,0-2.1-0.7-2.7-2l1.5-0.4c0.1,0.7,0.5,1.1,1.2,1.1c0.5,0,0.8-0.2,0.8-0.6
					c0-0.6-0.5-0.9-1.4-1.2c-0.9-0.4-1.8-0.9-1.8-2.2c0-1.3,1-2,2.2-2C38,77.8,38.9,78.4,39.4,79.6z"/>
				<path class="st3" d="M42.3,76.3v1.9h1.1v1.3h-1.1v3.6c0,0.3,0.2,0.5,0.8,0.5c0.1,0,0.1,0,0.2,0v1.4c-0.3,0.1-0.6,0.1-0.9,0.1
					c-1.3,0-1.8-0.5-1.8-1.4v-4.2H40v-1.3h0.6v-1.9H42.3z"/>
				<path class="st3" d="M49.2,79.9v4.6c0,0.1,0,0.3,0.1,0.6h-1.6l-0.1-0.7c-0.5,0.5-1.1,0.8-2,0.8c-1,0-1.6-0.5-1.6-1.7
					c0-1.7,1.7-2.4,3.6-3V80c0-0.6-0.3-0.8-0.8-0.8c-0.5,0-0.9,0.4-0.9,0.9h-1.6c0.1-1.5,1.2-2.2,2.6-2.2
					C48.3,77.8,49.2,78.6,49.2,79.9z M46.3,83.9c0.5,0,0.8-0.3,1.2-0.7v-1.7c-0.7,0.3-2,0.8-2,1.6C45.6,83.6,45.8,83.9,46.3,83.9z"
					/>
				<path class="st3" d="M54.1,79.6c-0.3-0.1-0.6-0.2-0.9-0.2c-0.5,0-0.8,0.4-0.8,0.8V85h-1.6v-7.1h1.6v0.9h0
					c0.4-0.7,0.9-1.1,1.7-1.1V79.6z"/>
				<path class="st3" d="M56.7,76.3v1.9h1.1v1.3h-1.1v3.6c0,0.3,0.2,0.5,0.8,0.5c0.1,0,0.1,0,0.2,0v1.4c-0.3,0.1-0.6,0.1-0.9,0.1
					c-1.3,0-1.8-0.5-1.8-1.4v-4.2h-0.6v-1.3h0.6v-1.9H56.7z"/>
				<path class="st3" d="M63.8,80.2v1.7h-3.6v1c0,0.6,0.4,1,1,1c0.6,0,1-0.3,1-1h1.6c-0.1,1.5-1,2.3-2.6,2.3c-1.5,0-2.6-1-2.6-2.5
					v-2.4c0-1.5,1.1-2.5,2.6-2.5C62.7,77.8,63.8,78.7,63.8,80.2z M62.2,80.5v-0.4c0-0.6-0.3-1-1-1c-0.6,0-1,0.4-1,0.9v0.5H62.2z"/>
				<path class="st3" d="M70.2,75.6V85h-1.5v-0.9h0c-0.3,0.5-1.1,1-1.7,1c-1.2,0-1.8-1-1.8-2.7v-1.8c0-1.8,0.6-2.8,1.8-2.8
					c0.5,0,0.9,0.2,1.6,0.8v-3H70.2z M68.5,79.5c-0.3-0.4-0.6-0.5-1-0.5c-0.6,0-0.8,0.5-0.8,1.6v1.7c0,1,0.2,1.6,0.8,1.6
					c0.4,0,0.7-0.1,1-0.5V79.5z"/>
				<path class="st3" d="M80.4,80.4v2.1c0,1.7-0.9,2.6-2.6,2.6c-1.8,0-2.6-1-2.6-2.6v-2.1c0-1.7,0.9-2.6,2.6-2.6
					S80.4,78.7,80.4,80.4z M76.8,82.9c0,0.5,0.4,0.8,1,0.8c0.6,0,1-0.3,1-0.8V80c0-0.5-0.4-0.8-1-0.8c-0.6,0-1,0.3-1,0.8V82.9z"/>
				<path class="st3" d="M86.8,79.6V85h-1.6v-5.2c0-0.4-0.2-0.8-0.6-0.8c-0.4,0-0.7,0.3-1.1,0.6V85h-1.6v-7.1h1.6v0.8
					c0.8-0.7,1.3-0.9,1.8-0.9C86.3,77.8,86.8,78.4,86.8,79.6z"/>
				<path class="st3" d="M96.9,75.6V85h-1.5v-0.9h0c-0.3,0.5-1.1,1-1.7,1c-1.2,0-1.8-1-1.8-2.7v-1.8c0-1.8,0.6-2.8,1.8-2.8
					c0.5,0,0.9,0.2,1.6,0.8v-3H96.9z M95.3,79.5c-0.3-0.4-0.6-0.5-1-0.5c-0.6,0-0.8,0.5-0.8,1.6v1.7c0,1,0.2,1.6,0.8,1.6
					c0.4,0,0.7-0.1,1-0.5V79.5z"/>
				<path class="st3" d="M100.3,75.2v1.5h-1.6v-1.5H100.3z M100.3,77.9V85h-1.6v-7.1H100.3z"/>
				<path class="st3" d="M106.9,79.9v4.6c0,0.1,0,0.3,0.1,0.6h-1.6l-0.1-0.7c-0.5,0.5-1.1,0.8-2,0.8c-1,0-1.6-0.5-1.6-1.7
					c0-1.7,1.7-2.4,3.6-3V80c0-0.6-0.3-0.8-0.8-0.8c-0.5,0-0.9,0.4-0.9,0.9h-1.6c0.1-1.5,1.2-2.2,2.6-2.2
					C106.1,77.8,106.9,78.6,106.9,79.9z M104.1,83.9c0.5,0,0.8-0.3,1.2-0.7v-1.7c-0.7,0.3-2,0.8-2,1.6
					C103.3,83.6,103.6,83.9,104.1,83.9z"/>
				<path class="st3" d="M110.4,75.6V85h-1.6v-9.4H110.4z"/>
				<path class="st3" d="M113.2,77.9l1.1,4.7h0l1-4.7h1.7l-1.9,7.1c-0.4,1.6-0.9,2.5-2.8,2.5c-0.3,0-0.4,0-0.5,0V86
					c0.1,0,0.2,0,0.4,0c1,0,1.3-0.7,1.3-0.9c0-0.5-0.2-1-0.3-1.5l-1.6-5.7H113.2z"/>
				<path class="st3" d="M122.4,79.6l-1.4,0.5c-0.2-0.7-0.6-1-1.1-1c-0.4,0-0.7,0.3-0.7,0.6c0,0.4,0.4,0.7,1.3,1.1
					c1.2,0.6,1.9,1.1,1.9,2.2c0,1.4-1,2.1-2.4,2.1c-1.5,0-2.1-0.7-2.7-2l1.5-0.4c0.1,0.7,0.5,1.1,1.2,1.1c0.5,0,0.8-0.2,0.8-0.6
					c0-0.6-0.5-0.9-1.4-1.2c-0.9-0.4-1.8-0.9-1.8-2.2c0-1.3,1-2,2.2-2C121.1,77.8,122,78.4,122.4,79.6z"/>
				<path class="st3" d="M125.6,75.2v1.5h-1.6v-1.5H125.6z M125.6,77.9V85h-1.6v-7.1H125.6z"/>
				<path class="st3" d="M131.8,79.6l-1.4,0.5c-0.2-0.7-0.6-1-1.1-1c-0.4,0-0.7,0.3-0.7,0.6c0,0.4,0.4,0.7,1.3,1.1
					c1.2,0.6,1.9,1.1,1.9,2.2c0,1.4-1,2.1-2.4,2.1c-1.5,0-2.1-0.7-2.7-2l1.5-0.4c0.1,0.7,0.5,1.1,1.2,1.1c0.5,0,0.8-0.2,0.8-0.6
					c0-0.6-0.5-0.9-1.4-1.2c-0.9-0.4-1.8-0.9-1.8-2.2c0-1.3,1-2,2.2-2C130.5,77.8,131.4,78.4,131.8,79.6z"/>
				<path class="st3" d="M135.1,83.2V85l-0.8,1.9h-0.9L134,85h-0.8v-1.8H135.1z"/>
				<path class="st3" d="M141.9,76.3v1.9h1.1v1.3h-1.1v3.6c0,0.3,0.2,0.5,0.8,0.5c0.1,0,0.1,0,0.2,0v1.4c-0.3,0.1-0.6,0.1-0.9,0.1
					c-1.3,0-1.8-0.5-1.8-1.4v-4.2h-0.6v-1.3h0.6v-1.9H141.9z"/>
				<path class="st3" d="M145.6,75.6v3.1c0.7-0.7,1.2-0.9,1.8-0.9c1.1,0,1.5,0.6,1.5,1.8V85h-1.6v-5.2c0-0.4-0.2-0.7-0.6-0.7
					c-0.4,0-0.7,0.3-1.1,0.6V85H144v-9.4H145.6z"/>
				<path class="st3" d="M155.5,80.2v1.7H152v1c0,0.6,0.4,1,1,1c0.6,0,1-0.3,1-1h1.6c-0.1,1.5-1,2.3-2.6,2.3c-1.5,0-2.6-1-2.6-2.5
					v-2.4c0-1.5,1.1-2.5,2.6-2.5C154.4,77.8,155.5,78.7,155.5,80.2z M153.9,80.5v-0.4c0-0.6-0.3-1-1-1c-0.6,0-1,0.4-1,0.9v0.5H153.9
					z"/>
				<path class="st3" d="M163.9,79.6c-0.3-0.1-0.6-0.2-0.9-0.2c-0.5,0-0.8,0.4-0.8,0.8V85h-1.6v-7.1h1.6v0.9h0
					c0.4-0.7,0.9-1.1,1.7-1.1V79.6z"/>
				<path class="st3" d="M166.7,75.2v1.5h-1.6v-1.5H166.7z M166.7,77.9V85h-1.6v-7.1H166.7z"/>
				<path class="st3" d="M173,79.6l-1.4,0.5c-0.2-0.7-0.6-1-1.1-1c-0.4,0-0.7,0.3-0.7,0.6c0,0.4,0.4,0.7,1.3,1.1
					c1.2,0.6,1.9,1.1,1.9,2.2c0,1.4-1,2.1-2.4,2.1c-1.5,0-2.1-0.7-2.7-2l1.5-0.4c0.1,0.7,0.5,1.1,1.2,1.1c0.5,0,0.8-0.2,0.8-0.6
					c0-0.6-0.5-0.9-1.4-1.2c-0.9-0.4-1.8-0.9-1.8-2.2c0-1.3,1-2,2.2-2C171.6,77.8,172.5,78.4,173,79.6z"/>
				<path class="st3" d="M176,75.6v5.1h0l1.7-2.7h1.8l-1.6,2.4l1.8,4.7H178l-1.2-3.3l-0.8,1.2V85h-1.6v-9.4H176z"/>
				<path class="st3" d="M189.5,80.4v2.1c0,1.7-0.9,2.6-2.6,2.6c-1.8,0-2.6-1-2.6-2.6v-2.1c0-1.7,0.9-2.6,2.6-2.6
					S189.5,78.7,189.5,80.4z M185.9,82.9c0,0.5,0.4,0.8,1,0.8c0.6,0,1-0.3,1-0.8V80c0-0.5-0.4-0.8-1-0.8c-0.6,0-1,0.3-1,0.8V82.9z"
					/>
				<path class="st3" d="M193.6,75.6v1.4h-0.4c-0.5,0-0.7,0.2-0.7,0.7v0.6h1v1.3h-1V85H191v-5.4h-0.7v-1.3h0.7v-0.4
					c0-1.5,0.2-2.4,1.9-2.4C193.1,75.5,193.3,75.5,193.6,75.6z"/>
			</g>
			<g class="st2">
				<path class="st3" d="M16.4,93.9c0.6-0.6,1-1.1,1.7-1.1c1,0,1.5,0.6,1.5,1.8v5.4H18v-5.4c0-0.4-0.2-0.6-0.4-0.6
					c-0.3,0-0.9,0.4-1,0.6v5.3h-1.6v-5.4c0-0.4-0.2-0.6-0.4-0.6c-0.3,0-0.7,0.3-1,0.6v5.3h-1.6v-7.1h1.6v0.8
					c0.6-0.5,1.1-0.9,1.8-0.9C15.7,92.8,16.2,93.2,16.4,93.9z"/>
				<path class="st3" d="M26,94.9v4.6c0,0.1,0,0.3,0.1,0.6h-1.6l-0.1-0.7c-0.5,0.5-1.1,0.8-2,0.8c-1,0-1.6-0.5-1.6-1.7
					c0-1.7,1.7-2.4,3.6-3V95c0-0.6-0.3-0.8-0.8-0.8c-0.5,0-0.9,0.4-0.9,0.9H21c0.1-1.5,1.2-2.2,2.6-2.2C25.2,92.8,26,93.6,26,94.9z
					 M23.2,98.9c0.5,0,0.8-0.3,1.2-0.7v-1.7c-0.7,0.3-2,0.8-2,1.6C22.4,98.6,22.7,98.9,23.2,98.9z"/>
				<path class="st3" d="M29.5,92.9v7.7c0,1.2-0.8,1.9-2,1.9c-0.2,0-0.4,0-0.6,0V101c0.7,0,1-0.2,1-0.6v-7.5H29.5z M29.5,90.2v1.5
					h-1.6v-1.5H29.5z"/>
				<path class="st3" d="M36.4,95.4v2.1c0,1.7-0.9,2.6-2.6,2.6c-1.8,0-2.6-1-2.6-2.6v-2.1c0-1.7,0.9-2.6,2.6-2.6
					S36.4,93.7,36.4,95.4z M32.8,97.9c0,0.5,0.4,0.8,1,0.8c0.6,0,1-0.3,1-0.8V95c0-0.5-0.4-0.8-1-0.8c-0.6,0-1,0.3-1,0.8V97.9z"/>
				<path class="st3" d="M41.1,94.6c-0.3-0.1-0.6-0.2-0.9-0.2c-0.5,0-0.8,0.4-0.8,0.8v4.8h-1.6v-7.1h1.6v0.9h0
					c0.4-0.7,0.9-1.1,1.7-1.1V94.6z"/>
				<path class="st3" d="M50.6,94.9v4.6c0,0.1,0,0.3,0.1,0.6h-1.6l-0.1-0.7c-0.5,0.5-1.1,0.8-2,0.8c-1,0-1.6-0.5-1.6-1.7
					c0-1.7,1.7-2.4,3.6-3V95c0-0.6-0.3-0.8-0.8-0.8c-0.5,0-0.9,0.4-0.9,0.9h-1.6c0.1-1.5,1.2-2.2,2.6-2.2
					C49.8,92.8,50.6,93.6,50.6,94.9z M47.7,98.9c0.5,0,0.8-0.3,1.2-0.7v-1.7c-0.7,0.3-2,0.8-2,1.6C47,98.6,47.3,98.9,47.7,98.9z"/>
				<path class="st3" d="M57.2,90.6v9.4h-1.5v-0.9h0c-0.3,0.5-1.1,1-1.7,1c-1.2,0-1.8-1-1.8-2.7v-1.8c0-1.8,0.6-2.8,1.8-2.8
					c0.5,0,0.9,0.2,1.6,0.8v-3H57.2z M55.5,94.5c-0.3-0.4-0.6-0.5-1-0.5c-0.6,0-0.8,0.5-0.8,1.6v1.7c0,1,0.2,1.6,0.8,1.6
					c0.4,0,0.7-0.1,1-0.5V94.5z"/>
				<path class="st3" d="M59.7,92.9l1.1,4.5h0l1.1-4.5l0,0h1.6l-1.9,7.1H60l-1.9-7.1H59.7z"/>
				<path class="st3" d="M69.6,95.2v1.7H66v1c0,0.6,0.4,1,1,1c0.6,0,1-0.3,1-1h1.6c-0.1,1.5-1,2.3-2.6,2.3c-1.5,0-2.6-1-2.6-2.5
					v-2.4c0-1.5,1.1-2.5,2.6-2.5C68.4,92.8,69.6,93.7,69.6,95.2z M67.9,95.5v-0.4c0-0.6-0.3-1-1-1c-0.6,0-1,0.4-1,0.9v0.5H67.9z"/>
				<path class="st3" d="M74.3,94.6c-0.3-0.1-0.6-0.2-0.9-0.2c-0.5,0-0.8,0.4-0.8,0.8v4.8H71v-7.1h1.6v0.9h0
					c0.4-0.7,0.9-1.1,1.7-1.1V94.6z"/>
				<path class="st3" d="M79.8,94.6l-1.4,0.5c-0.2-0.7-0.6-1-1.1-1c-0.4,0-0.7,0.3-0.7,0.6c0,0.4,0.4,0.7,1.3,1.1
					c1.2,0.6,1.9,1.1,1.9,2.2c0,1.4-1,2.1-2.4,2.1c-1.5,0-2.1-0.7-2.7-2l1.5-0.4c0.1,0.7,0.5,1.1,1.2,1.1c0.5,0,0.8-0.2,0.8-0.6
					c0-0.6-0.5-0.9-1.4-1.2c-0.9-0.4-1.8-0.9-1.8-2.2c0-1.3,1-2,2.2-2C78.5,92.8,79.3,93.4,79.8,94.6z"/>
				<path class="st3" d="M86.2,95.2v1.7h-3.6v1c0,0.6,0.4,1,1,1c0.6,0,1-0.3,1-1h1.6c-0.1,1.5-1,2.3-2.6,2.3c-1.5,0-2.6-1-2.6-2.5
					v-2.4c0-1.5,1.1-2.5,2.6-2.5C85,92.8,86.2,93.7,86.2,95.2z M84.5,95.5v-0.4c0-0.6-0.3-1-1-1c-0.6,0-1,0.4-1,0.9v0.5H84.5z"/>
				<path class="st3" d="M97,93.7h-1.8v-0.2c0-0.7-0.1-1.4-1.2-1.4c-0.9,0-1.2,0.5-1.2,1.3v3.9c0,0.8,0.3,1.3,1.2,1.3
					c1.1,0,1.2-0.7,1.2-1.5v-0.5H97V97c0,1.9-0.9,3.1-3,3.1c-2,0-3-1.1-3-3.1v-3.5c0-2,0.9-3.1,3-3.1C96,90.5,97,91.6,97,93.7z"/>
				<path class="st3" d="M99.6,90.6l1.7,6.7h0l1.6-6.7h1.8l-2.4,9.4h-2l-2.4-9.4H99.6z"/>
				<path class="st3" d="M114.3,95.2v1.7h-3.6v1c0,0.6,0.4,1,1,1c0.6,0,1-0.3,1-1h1.6c-0.1,1.5-1,2.3-2.6,2.3c-1.5,0-2.6-1-2.6-2.5
					v-2.4c0-1.5,1.1-2.5,2.6-2.5C113.2,92.8,114.3,93.7,114.3,95.2z M112.7,95.5v-0.4c0-0.6-0.3-1-1-1c-0.6,0-1,0.4-1,0.9v0.5H112.7
					z"/>
				<path class="st3" d="M116.8,92.9l1.1,4.5h0L119,93l0,0h1.6l-1.9,7.1h-1.6l-1.9-7.1H116.8z"/>
				<path class="st3" d="M126.6,95.2v1.7h-3.6v1c0,0.6,0.4,1,1,1c0.6,0,1-0.3,1-1h1.6c-0.1,1.5-1,2.3-2.6,2.3c-1.5,0-2.6-1-2.6-2.5
					v-2.4c0-1.5,1.1-2.5,2.6-2.5C125.5,92.8,126.6,93.7,126.6,95.2z M125,95.5v-0.4c0-0.6-0.3-1-1-1c-0.6,0-1,0.4-1,0.9v0.5H125z"/>
				<path class="st3" d="M133,94.6v5.4h-1.6v-5.2c0-0.4-0.2-0.8-0.6-0.8c-0.4,0-0.7,0.3-1.1,0.6v5.3h-1.6v-7.1h1.6v0.8
					c0.8-0.7,1.3-0.9,1.8-0.9C132.6,92.8,133,93.4,133,94.6z"/>
				<path class="st3" d="M136.1,91.3v1.9h1.1v1.3h-1.1v3.6c0,0.3,0.2,0.5,0.8,0.5c0.1,0,0.1,0,0.2,0v1.4c-0.3,0.1-0.6,0.1-0.9,0.1
					c-1.3,0-1.8-0.5-1.8-1.4v-4.2h-0.6v-1.3h0.6v-1.9H136.1z"/>
				<path class="st3" d="M142.6,94.6l-1.4,0.5c-0.2-0.7-0.6-1-1.1-1c-0.4,0-0.7,0.3-0.7,0.6c0,0.4,0.4,0.7,1.3,1.1
					c1.2,0.6,1.9,1.1,1.9,2.2c0,1.4-1,2.1-2.4,2.1c-1.5,0-2.1-0.7-2.7-2l1.5-0.4c0.1,0.7,0.5,1.1,1.2,1.1c0.5,0,0.8-0.2,0.8-0.6
					c0-0.6-0.5-0.9-1.4-1.2c-0.9-0.4-1.8-0.9-1.8-2.2c0-1.3,1-2,2.2-2C141.3,92.8,142.2,93.4,142.6,94.6z"/>
				<path class="st3" d="M152.6,95.4v2.1c0,1.7-0.9,2.6-2.6,2.6c-1.8,0-2.6-1-2.6-2.6v-2.1c0-1.7,0.9-2.6,2.6-2.6
					C151.8,92.8,152.6,93.7,152.6,95.4z M149.1,97.9c0,0.5,0.4,0.8,1,0.8s1-0.3,1-0.8V95c0-0.5-0.4-0.8-1-0.8c-0.6,0-1,0.3-1,0.8
					V97.9z"/>
				<path class="st3" d="M157.4,94.6c-0.3-0.1-0.6-0.2-0.9-0.2c-0.5,0-0.8,0.4-0.8,0.8v4.8h-1.6v-7.1h1.6v0.9h0
					c0.4-0.7,0.9-1.1,1.7-1.1V94.6z"/>
			</g>
			<g class="st2">
				<path class="st3" d="M16.7,109.9v4.6c0,0.1,0,0.3,0.1,0.6h-1.6l-0.1-0.7c-0.5,0.5-1.1,0.8-2,0.8c-1,0-1.6-0.5-1.6-1.7
					c0-1.7,1.7-2.4,3.6-3V110c0-0.6-0.3-0.8-0.8-0.8c-0.5,0-0.9,0.4-0.9,0.9h-1.6c0.1-1.5,1.2-2.2,2.6-2.2
					C15.8,107.8,16.7,108.6,16.7,109.9z M13.8,113.9c0.5,0,0.8-0.3,1.2-0.7v-1.7c-0.7,0.3-2,0.8-2,1.6
					C13.1,113.6,13.3,113.9,13.8,113.9z"/>
				<path class="st3" d="M20.1,105.6v9.4h-1.6v-9.4H20.1z"/>
				<path class="st3" d="M23.7,105.6v9.4h-1.6v-9.4H23.7z"/>
				<path class="st3" d="M28.5,110.7v1.4h-3.2v-1.4H28.5z"/>
				<path class="st3" d="M34.9,110.4h-1.6V110c0-0.5-0.3-0.8-1-0.8c-0.6,0-1,0.3-1,0.8v2.8c0,0.5,0.4,0.8,1,0.8c0.6,0,1-0.3,1-0.8
					v-0.5h1.6c0,1.8-0.9,2.7-2.6,2.7c-1.8,0-2.6-1-2.6-2.6v-2.1c0-1.6,0.8-2.6,2.6-2.6C34,107.8,34.9,108.7,34.9,110.4z"/>
				<path class="st3" d="M41.2,109.9v4.6c0,0.1,0,0.3,0.1,0.6h-1.6l-0.1-0.7c-0.5,0.5-1.1,0.8-2,0.8c-1,0-1.6-0.5-1.6-1.7
					c0-1.7,1.7-2.4,3.6-3V110c0-0.6-0.3-0.8-0.8-0.8c-0.5,0-0.9,0.4-0.9,0.9h-1.6c0.1-1.5,1.2-2.2,2.6-2.2
					C40.4,107.8,41.2,108.6,41.2,109.9z M38.3,113.9c0.5,0,0.8-0.3,1.2-0.7v-1.7c-0.7,0.3-2,0.8-2,1.6
					C37.6,113.6,37.9,113.9,38.3,113.9z"/>
				<path class="st3" d="M44.5,107.9v5.2c0,0.4,0.1,0.8,0.6,0.8c0.4,0,0.7-0.3,1.1-0.6v-5.3h1.6v7.1h-1.6v-0.8
					c-0.7,0.7-1.3,0.9-1.8,0.9c-1.1,0-1.5-0.7-1.5-1.8v-5.4H44.5z"/>
				<path class="st3" d="M53.8,109.6l-1.4,0.5c-0.2-0.7-0.6-1-1.1-1c-0.4,0-0.7,0.3-0.7,0.6c0,0.4,0.4,0.7,1.3,1.1
					c1.2,0.6,1.9,1.1,1.9,2.2c0,1.4-1,2.1-2.4,2.1c-1.5,0-2.1-0.7-2.7-2l1.5-0.4c0.1,0.7,0.5,1.1,1.2,1.1c0.5,0,0.8-0.2,0.8-0.6
					c0-0.6-0.5-0.9-1.4-1.2c-0.9-0.4-1.8-0.9-1.8-2.2c0-1.3,1-2,2.2-2C52.5,107.8,53.4,108.4,53.8,109.6z"/>
				<path class="st3" d="M60.2,110.2v1.7h-3.6v1c0,0.6,0.4,1,1,1c0.6,0,1-0.3,1-1h1.6c-0.1,1.5-1,2.3-2.6,2.3c-1.5,0-2.6-1-2.6-2.5
					v-2.4c0-1.5,1.1-2.5,2.6-2.5C59.1,107.8,60.2,108.7,60.2,110.2z M58.5,110.5v-0.4c0-0.6-0.3-1-1-1c-0.6,0-1,0.4-1,0.9v0.5H58.5z
					"/>
				<path class="st3" d="M69.8,108.9c0.6-0.6,1-1.1,1.7-1.1c1,0,1.5,0.6,1.5,1.8v5.4h-1.6v-5.4c0-0.4-0.2-0.6-0.4-0.6
					c-0.3,0-0.9,0.4-1,0.6v5.3h-1.6v-5.4c0-0.4-0.2-0.6-0.4-0.6c-0.3,0-0.7,0.3-1,0.6v5.3h-1.6v-7.1h1.6v0.8
					c0.6-0.5,1.1-0.9,1.8-0.9C69.2,107.8,69.6,108.2,69.8,108.9z"/>
				<path class="st3" d="M79.7,110.4v2.1c0,1.7-0.9,2.6-2.6,2.6c-1.8,0-2.6-1-2.6-2.6v-2.1c0-1.7,0.9-2.6,2.6-2.6
					C78.8,107.8,79.7,108.7,79.7,110.4z M76.1,112.9c0,0.5,0.4,0.8,1,0.8s1-0.3,1-0.8V110c0-0.5-0.4-0.8-1-0.8c-0.6,0-1,0.3-1,0.8
					V112.9z"/>
				<path class="st3" d="M84.4,109.6c-0.3-0.1-0.6-0.2-0.9-0.2c-0.5,0-0.8,0.4-0.8,0.8v4.8h-1.6v-7.1h1.6v0.9h0
					c0.4-0.7,0.9-1.1,1.7-1.1V109.6z"/>
				<path class="st3" d="M87,106.3v1.9h1.1v1.3H87v3.6c0,0.3,0.2,0.5,0.8,0.5c0.1,0,0.1,0,0.2,0v1.4c-0.3,0.1-0.6,0.1-0.9,0.1
					c-1.3,0-1.8-0.5-1.8-1.4v-4.2h-0.6v-1.3h0.6v-1.9H87z"/>
				<path class="st3" d="M93.9,109.9v4.6c0,0.1,0,0.3,0.1,0.6h-1.6l-0.1-0.7c-0.5,0.5-1.1,0.8-2,0.8c-1,0-1.6-0.5-1.6-1.7
					c0-1.7,1.7-2.4,3.6-3V110c0-0.6-0.3-0.8-0.8-0.8c-0.5,0-0.9,0.4-0.9,0.9h-1.6c0.1-1.5,1.2-2.2,2.6-2.2
					C93.1,107.8,93.9,108.6,93.9,109.9z M91.1,113.9c0.5,0,0.8-0.3,1.2-0.7v-1.7c-0.7,0.3-2,0.8-2,1.6
					C90.3,113.6,90.6,113.9,91.1,113.9z"/>
				<path class="st3" d="M97.4,105.6v9.4h-1.6v-9.4H97.4z"/>
				<path class="st3" d="M101,105.2v1.5h-1.6v-1.5H101z M101,107.9v7.1h-1.6v-7.1H101z"/>
				<path class="st3" d="M104.4,106.3v1.9h1.1v1.3h-1.1v3.6c0,0.3,0.2,0.5,0.8,0.5c0.1,0,0.1,0,0.2,0v1.4c-0.3,0.1-0.6,0.1-0.9,0.1
					c-1.3,0-1.8-0.5-1.8-1.4v-4.2h-0.6v-1.3h0.6v-1.9H104.4z"/>
				<path class="st3" d="M107.4,107.9l1.1,4.7h0l1-4.7h1.7l-1.9,7.1c-0.4,1.6-0.9,2.5-2.8,2.5c-0.3,0-0.4,0-0.5,0V116
					c0.1,0,0.2,0,0.4,0c1,0,1.3-0.7,1.3-0.9c0-0.5-0.2-1-0.3-1.5l-1.6-5.7H107.4z"/>
				<path class="st3" d="M116.7,107.9l0.9,4.4h0l0.9-4.4h1.4l1,4.4h0l0.9-4.4h1.5l-1.7,7.1h-1.5l-1-4.4h0l-0.9,4.4h-1.5l-1.7-7.1
					H116.7z"/>
				<path class="st3" d="M129.3,109.9v4.6c0,0.1,0,0.3,0.1,0.6h-1.6l-0.1-0.7c-0.5,0.5-1.1,0.8-2,0.8c-1,0-1.6-0.5-1.6-1.7
					c0-1.7,1.7-2.4,3.6-3V110c0-0.6-0.3-0.8-0.8-0.8c-0.5,0-0.9,0.4-0.9,0.9h-1.6c0.1-1.5,1.2-2.2,2.6-2.2
					C128.5,107.8,129.3,108.6,129.3,109.9z M126.5,113.9c0.5,0,0.8-0.3,1.2-0.7v-1.7c-0.7,0.3-2,0.8-2,1.6
					C125.7,113.6,126,113.9,126.5,113.9z"/>
				<path class="st3" d="M135.4,109.6l-1.4,0.5c-0.2-0.7-0.6-1-1.1-1c-0.4,0-0.7,0.3-0.7,0.6c0,0.4,0.4,0.7,1.3,1.1
					c1.2,0.6,1.9,1.1,1.9,2.2c0,1.4-1,2.1-2.4,2.1c-1.5,0-2.1-0.7-2.7-2l1.5-0.4c0.1,0.7,0.5,1.1,1.2,1.1c0.5,0,0.8-0.2,0.8-0.6
					c0-0.6-0.5-0.9-1.4-1.2c-0.9-0.4-1.8-0.9-1.8-2.2c0-1.3,1-2,2.2-2C134.1,107.8,135,108.4,135.4,109.6z"/>
			</g>
			<g class="st2">
				<path class="st3" d="M16.8,125.4h-1.6V125c0-0.5-0.3-0.8-1-0.8c-0.6,0-1,0.3-1,0.8v2.8c0,0.5,0.4,0.8,1,0.8c0.6,0,1-0.3,1-0.8
					v-0.5h1.6c0,1.8-0.9,2.7-2.6,2.7c-1.8,0-2.6-1-2.6-2.6v-2.1c0-1.6,0.8-2.6,2.6-2.6C15.9,122.8,16.8,123.7,16.8,125.4z"/>
				<path class="st3" d="M23.4,125.4v2.1c0,1.7-0.9,2.6-2.6,2.6c-1.8,0-2.6-1-2.6-2.6v-2.1c0-1.7,0.9-2.6,2.6-2.6
					S23.4,123.7,23.4,125.4z M19.8,127.9c0,0.5,0.4,0.8,1,0.8c0.6,0,1-0.3,1-0.8V125c0-0.5-0.4-0.8-1-0.8c-0.6,0-1,0.3-1,0.8V127.9z
					"/>
				<path class="st3" d="M29.4,123.9c0.6-0.6,1-1.1,1.7-1.1c1,0,1.5,0.6,1.5,1.8v5.4H31v-5.4c0-0.4-0.2-0.6-0.4-0.6
					c-0.3,0-0.9,0.4-1,0.6v5.3h-1.6v-5.4c0-0.4-0.2-0.6-0.4-0.6c-0.3,0-0.7,0.3-1,0.6v5.3h-1.6v-7.1h1.6v0.8
					c0.6-0.5,1.1-0.9,1.8-0.9C28.7,122.8,29.2,123.2,29.4,123.9z"/>
				<path class="st3" d="M39.2,125.5v1.8c0,1.8-0.5,2.8-1.8,2.8c-0.5,0-1.1-0.3-1.7-0.8v3.1h-1.6v-9.6h1.5v0.9h0
					c0.4-0.6,1.1-1,1.8-1C38.7,122.8,39.2,123.7,39.2,125.5z M35.8,128.4c0.3,0.4,0.6,0.5,1,0.5c0.6,0,0.8-0.6,0.8-1.6v-1.6
					c0-1-0.2-1.6-0.8-1.6c-0.4,0-0.6,0.2-1,0.5V128.4z"/>
				<path class="st3" d="M45.5,124.9v4.6c0,0.1,0,0.3,0.1,0.6H44l-0.1-0.7c-0.5,0.5-1.1,0.8-2,0.8c-1,0-1.6-0.5-1.6-1.7
					c0-1.7,1.7-2.4,3.6-3V125c0-0.6-0.3-0.8-0.8-0.8c-0.5,0-0.9,0.4-0.9,0.9h-1.6c0.1-1.5,1.2-2.2,2.6-2.2
					C44.7,122.8,45.5,123.6,45.5,124.9z M42.7,128.9c0.5,0,0.8-0.3,1.2-0.7v-1.7c-0.7,0.3-2,0.8-2,1.6
					C41.9,128.6,42.2,128.9,42.7,128.9z"/>
				<path class="st3" d="M50.5,124.6c-0.3-0.1-0.6-0.2-0.9-0.2c-0.5,0-0.8,0.4-0.8,0.8v4.8h-1.6v-7.1h1.6v0.9h0
					c0.4-0.7,0.9-1.1,1.7-1.1V124.6z"/>
				<path class="st3" d="M56.4,124.9v4.6c0,0.1,0,0.3,0.1,0.6h-1.6l-0.1-0.7c-0.5,0.5-1.1,0.8-2,0.8c-1,0-1.6-0.5-1.6-1.7
					c0-1.7,1.7-2.4,3.6-3V125c0-0.6-0.3-0.8-0.8-0.8c-0.5,0-0.9,0.4-0.9,0.9h-1.6c0.1-1.5,1.2-2.2,2.6-2.2
					C55.6,122.8,56.4,123.6,56.4,124.9z M53.5,128.9c0.5,0,0.8-0.3,1.2-0.7v-1.7c-0.7,0.3-2,0.8-2,1.6
					C52.8,128.6,53.1,128.9,53.5,128.9z"/>
				<path class="st3" d="M59.6,120.6v3c0.5-0.4,1-0.8,1.7-0.8c1.2,0,1.8,0.9,1.8,2.7v1.8c0,1.8-0.5,2.8-1.8,2.8
					c-0.6,0-1.4-0.4-1.8-1h0v0.9H58v-9.4H59.6z M59.6,128.4c0.3,0.4,0.6,0.5,1,0.5c0.6,0,0.8-0.6,0.8-1.6v-1.7c0-1-0.3-1.6-0.8-1.6
					c-0.4,0-0.7,0.2-1,0.5V128.4z"/>
				<path class="st3" d="M66.3,120.6v9.4h-1.6v-9.4H66.3z"/>
				<path class="st3" d="M73.2,125.2v1.7h-3.6v1c0,0.6,0.4,1,1,1c0.6,0,1-0.3,1-1h1.6c-0.1,1.5-1,2.3-2.6,2.3c-1.5,0-2.6-1-2.6-2.5
					v-2.4c0-1.5,1.1-2.5,2.6-2.5C72.1,122.8,73.2,123.7,73.2,125.2z M71.5,125.5v-0.4c0-0.6-0.3-1-1-1c-0.6,0-1,0.4-1,0.9v0.5H71.5z
					"/>
				<path class="st3" d="M79.9,120.6v3c0.5-0.4,1-0.8,1.7-0.8c1.2,0,1.8,0.9,1.8,2.7v1.8c0,1.8-0.5,2.8-1.8,2.8
					c-0.6,0-1.4-0.4-1.8-1h0v0.9h-1.5v-9.4H79.9z M79.9,128.4c0.3,0.4,0.6,0.5,1,0.5c0.6,0,0.8-0.6,0.8-1.6v-1.7
					c0-1-0.3-1.6-0.8-1.6c-0.4,0-0.7,0.2-1,0.5V128.4z"/>
				<path class="st3" d="M89.8,125.2v1.7h-3.6v1c0,0.6,0.4,1,1,1c0.6,0,1-0.3,1-1h1.6c-0.1,1.5-1,2.3-2.6,2.3c-1.5,0-2.6-1-2.6-2.5
					v-2.4c0-1.5,1.1-2.5,2.6-2.5C88.7,122.8,89.8,123.7,89.8,125.2z M88.2,125.5v-0.4c0-0.6-0.3-1-1-1c-0.6,0-1,0.4-1,0.9v0.5H88.2z
					"/>
				<path class="st3" d="M92.8,121.3v1.9h1.1v1.3h-1.1v3.6c0,0.3,0.2,0.5,0.8,0.5c0.1,0,0.1,0,0.2,0v1.4c-0.3,0.1-0.6,0.1-0.9,0.1
					c-1.3,0-1.8-0.5-1.8-1.4v-4.2h-0.6v-1.3h0.6v-1.9H92.8z"/>
				<path class="st3" d="M95.8,122.9l0.9,4.4h0l0.9-4.4h1.4l1,4.4h0l0.9-4.4h1.5l-1.7,7.1h-1.5l-1-4.4h0l-0.9,4.4h-1.5l-1.7-7.1
					H95.8z"/>
				<path class="st3" d="M108.6,125.2v1.7H105v1c0,0.6,0.4,1,1,1c0.6,0,1-0.3,1-1h1.6c-0.1,1.5-1,2.3-2.6,2.3c-1.5,0-2.6-1-2.6-2.5
					v-2.4c0-1.5,1.1-2.5,2.6-2.5C107.5,122.8,108.6,123.7,108.6,125.2z M106.9,125.5v-0.4c0-0.6-0.3-1-1-1c-0.6,0-1,0.4-1,0.9v0.5
					H106.9z"/>
				<path class="st3" d="M115.1,125.2v1.7h-3.6v1c0,0.6,0.4,1,1,1c0.6,0,1-0.3,1-1h1.6c-0.1,1.5-1,2.3-2.6,2.3c-1.5,0-2.6-1-2.6-2.5
					v-2.4c0-1.5,1.1-2.5,2.6-2.5C114,122.8,115.1,123.7,115.1,125.2z M113.4,125.5v-0.4c0-0.6-0.3-1-1-1c-0.6,0-1,0.4-1,0.9v0.5
					H113.4z"/>
				<path class="st3" d="M121.4,124.6v5.4h-1.6v-5.2c0-0.4-0.2-0.8-0.6-0.8c-0.4,0-0.7,0.3-1.1,0.6v5.3h-1.6v-7.1h1.6v0.8
					c0.8-0.7,1.3-0.9,1.8-0.9C121,122.8,121.4,123.4,121.4,124.6z"/>
			</g>
			<g class="st2">
				<path class="st3" d="M16.7,135.6v1.6h-3.1v2.2H16v1.6h-2.4v2.5h3.2v1.6h-5v-9.4H16.7z"/>
				<path class="st3" d="M19.5,135.6l1.7,6.7h0l1.6-6.7h1.8l-2.4,9.4h-2l-2.4-9.4H19.5z"/>
				<path class="st3" d="M28.2,135.6c1.9,0,3.1,0.9,3.1,2.8c0,1.2-0.4,2-1.4,2.4l1.8,4.2h-1.9l-1.6-3.8h-0.9v3.8h-1.8v-9.4H28.2z
					 M28.3,139.7c0.8,0,1.2-0.4,1.2-1.3c0-0.8-0.4-1.3-1.2-1.3h-0.9v2.6H28.3z"/>
				<path class="st3" d="M37.7,135.6v1.6h-3.1v2.2h2.4v1.6h-2.4v2.5h3.2v1.6h-5v-9.4H37.7z"/>
				<path class="st3" d="M41.3,135.6l2.5,5.6h0v-5.6h1.6v9.4h-1.7l-2.7-6.1h0v6.1h-1.6v-9.4H41.3z"/>
				<path class="st3" d="M52.4,135.6v1.5l-3.5,6.3h3.6v1.6h-5.6v-1.5l3.5-6.3h-3.2v-1.6H52.4z"/>
				<path class="st3" d="M58.7,136.3c0.5,0.5,0.7,1.3,0.7,2.3v3.5c0,2-1,3.1-3,3.1c-2,0-3-1.1-3-3.1v-3.5c0-2,1-3.1,3-3.1
					C57.5,135.5,58.3,135.8,58.7,136.3z M55.3,142.3c0,0.8,0.3,1.3,1.2,1.3s1.2-0.5,1.2-1.3v-3.9c0-0.8-0.3-1.3-1.2-1.3
					c-0.8,0-1.2,0.5-1.2,1.3V142.3z"/>
				<path class="st3" d="M69.4,139.9v4.6c0,0.1,0,0.3,0.1,0.6h-1.6l-0.1-0.7c-0.5,0.5-1.1,0.8-2,0.8c-1,0-1.6-0.5-1.6-1.7
					c0-1.7,1.7-2.4,3.6-3V140c0-0.6-0.3-0.8-0.8-0.8c-0.5,0-0.9,0.4-0.9,0.9h-1.6c0.1-1.5,1.2-2.2,2.6-2.2
					C68.6,137.8,69.4,138.6,69.4,139.9z M66.5,143.9c0.5,0,0.8-0.3,1.2-0.7v-1.7c-0.7,0.3-2,0.8-2,1.6
					C65.8,143.6,66.1,143.9,66.5,143.9z"/>
				<path class="st3" d="M76,139.6v5.4h-1.6v-5.2c0-0.4-0.2-0.8-0.6-0.8c-0.4,0-0.7,0.3-1.1,0.6v5.3H71v-7.1h1.6v0.8
					c0.8-0.7,1.3-0.9,1.8-0.9C75.5,137.8,76,138.4,76,139.6z"/>
				<path class="st3" d="M82.5,135.6v9.4H81v-0.9h0c-0.3,0.5-1.1,1-1.7,1c-1.2,0-1.8-1-1.8-2.7v-1.8c0-1.8,0.6-2.8,1.8-2.8
					c0.5,0,0.9,0.2,1.6,0.8v-3H82.5z M80.8,139.5c-0.3-0.4-0.6-0.5-1-0.5c-0.6,0-0.8,0.5-0.8,1.6v1.7c0,1,0.2,1.6,0.8,1.6
					c0.4,0,0.7-0.1,1-0.5V139.5z"/>
				<path class="st3" d="M92.6,135.6v1.6h-3.1v2.2h2.4v1.6h-2.4v2.5h3.2v1.6h-5v-9.4H92.6z"/>
				<path class="st3" d="M99.7,137.8l-1.6,0.5c-0.3-0.9-0.7-1.3-1.3-1.3c-0.6,0-1,0.4-1,1c0,0.7,0.9,1.1,1.8,1.5
					c1.4,0.8,2.2,1.6,2.2,2.9c0,1.7-1.3,2.7-3,2.7c-1.6,0-2.6-0.9-3.1-2.6l1.8-0.4c0.2,1,0.7,1.5,1.4,1.5s1.1-0.5,1.1-1.1
					c0-0.9-0.9-1.3-2.2-2c-1.2-0.7-1.8-1.4-1.8-2.4c0-1.7,1.1-2.6,2.8-2.6C98.3,135.5,99.4,136.3,99.7,137.8z"/>
				<path class="st3" d="M105.4,135.6l2.3,9.4h-1.7l-0.5-2H103l-0.5,2h-1.7l2.3-9.4H105.4z M104.2,137.6l-0.9,3.8h1.8L104.2,137.6
					L104.2,137.6z"/>
			</g>
			<g class="st2">
				<path class="st3" d="M110.5,135.1v5.6h-1v-4.2h-0.8v-0.6c0.5-0.1,0.8-0.2,1.2-0.8H110.5z"/>
				<path class="st3" d="M113.6,139.6v1.1l-0.5,1.1h-0.5l0.4-1.1h-0.5v-1.1H113.6z"/>
				<path class="st3" d="M118,136.7c0,0.9-0.7,1.6-1.4,2.3l-0.9,0.8h2.2v0.9h-3.5v-0.9c0.8-0.8,1.4-1.3,1.6-1.6
					c0.5-0.5,0.9-0.9,0.9-1.5c0-0.5-0.3-0.8-0.7-0.8s-0.8,0.2-0.8,0.8v0.2h-1v-0.2c0-1,0.8-1.6,1.7-1.6
					C117.2,135.1,118,135.6,118,136.7z"/>
			</g>
			<rect id="White-Bottom" y="0" class="st4" width="300" height="53"/>
			<g id="Layer_1_00000111171408380550121440000015305478543611387056_" transform="translate(160.766 -9.208)">
				<g id="Group_11" transform="translate(23.5 20.872)">
					<path id="Path_80" class="st5" d="M10.1,24.3h1.1v1.6h0.1c0.4-1.1,1.5-1.8,2.7-1.8v1.1c-1.4,0.1-2.1,1-2.7,2.6v4.5h-1.1
						L10.1,24.3L10.1,24.3z"/>
					<path id="Path_81" class="st5" d="M17.6,32.5c-2.2,0-3.3-1.9-3.3-4.2s1.1-4.2,3.3-4.2s3.3,1.9,3.3,4.2
						C20.9,30.7,19.7,32.5,17.6,32.5 M17.6,25.1c-1.3,0-2.2,1.2-2.2,3.2s0.8,3.2,2.2,3.2c1.3,0,2.2-1.2,2.2-3.2
						C19.7,26.2,18.9,25.1,17.6,25.1"/>
					<path id="Path_82" class="st5" d="M24.3,27.1l1.8-2.9h1.2L25,28.1l2.7,4.2h-1.3L24.3,29l-2,3.3h-1.2l2.5-4.2l-2.4-3.9h1.3
						L24.3,27.1z"/>
					<path id="Path_83" class="st5" d="M28.2,25.8c0.6-1.1,1.8-1.7,3-1.7c1.4,0,2.8,0.6,2.8,2.4v4.1c0,0.6,0,1.2,0.2,1.8h-1.2
						L33,31.3c-0.7,0.8-1.7,1.3-2.7,1.3c-1.2,0.1-2.2-0.8-2.3-1.9c0-0.1,0-0.2,0-0.3c0-1.8,1.4-2.7,5-3.3v-0.4
						c0-1.1-0.7-1.5-1.6-1.5c-0.9-0.1-1.7,0.4-2.1,1.3L28.2,25.8z M32.9,28c-2.6,0.5-3.8,1.2-3.8,2.3c0.1,0.7,0.6,1.3,1.3,1.3
						c1-0.1,1.9-0.6,2.5-1.3L32.9,28z"/>
					<path id="Path_84" class="st5" d="M41.9,21.1v9.5c0,0.6,0,1.2,0.1,1.8h-1l-0.2-0.8c-0.5,0.6-1.3,1-2.1,1c-1.4,0-3.3-1-3.3-4.2
						c0-3.1,1.9-4.2,3.3-4.2c0.8,0,1.5,0.4,2.1,0.9l0.1,0.1v-3.9h1.1V21.1z M40.8,26.2c-0.5-0.6-1.3-1.1-2.1-1.1
						c-1.3,0-2.3,0.8-2.3,3.3c0,2.1,0.9,3.2,2.3,3.2c0.8-0.1,1.6-0.5,2.1-1.1V26.2z"/>
					<path id="Path_85" class="st5" d="M48.9,32.4v-1.1h-0.1c-0.6,0.7-1.4,1.2-2.4,1.3c-1.2,0.1-2.2-0.8-2.3-2c0-0.1,0-0.3,0-0.4
						v-5.9h1.1v5.9c0,1.1,0.5,1.4,1.3,1.4c0.9-0.1,1.7-0.6,2.3-1.2v-6.1H50v8.1H48.9z"/>
					<path id="Path_86" class="st5" d="M52.1,30.3c0.5,0.8,1.4,1.3,2.3,1.3c1.2,0,1.8-0.6,1.8-1.3c0-2.1-4.8-1-4.7-3.9
						c0.1-1.4,1.1-2.2,2.7-2.2c1.1,0,2.1,0.5,2.8,1.4l-0.8,0.7c-0.5-0.7-1.2-1.1-2.1-1.1c-1,0-1.5,0.5-1.5,1.2
						c0,1.8,4.7,0.8,4.7,3.9c0,1.6-1.4,2.4-2.9,2.4c-1.3,0-2.5-0.5-3.2-1.5L52.1,30.3z"/>
					<path id="Path_87" class="st5" d="M58.9,24.3v-2.7H60v2.7h1.9v1H60V31c0,0.4,0.3,0.6,0.9,0.6c0.4,0,0.7-0.1,1-0.1v0.9
						c-0.4,0.1-0.9,0.1-1.3,0.1c-1.2,0-1.8-0.3-1.8-1.3v-6h-1.3v-1L58.9,24.3z"/>
					<path id="Path_88" class="st5" d="M62.8,25.8c0.6-1.1,1.8-1.7,3-1.7c1.4,0,2.8,0.6,2.8,2.4v4.1c0,0.6,0,1.2,0.2,1.8h-1.2
						l-0.1-1.1c-0.7,0.8-1.7,1.3-2.7,1.3c-1.2,0.1-2.2-0.8-2.3-1.9c0-0.1,0-0.2,0-0.3c0-1.8,1.4-2.7,5-3.3v-0.4
						c0-1.1-0.7-1.5-1.6-1.5c-0.9-0.1-1.7,0.4-2.1,1.3L62.8,25.8z M67.5,28c-2.6,0.5-3.8,1.2-3.8,2.3c0.1,0.7,0.6,1.3,1.3,1.3
						c1-0.1,1.9-0.6,2.5-1.3L67.5,28z"/>
					<path id="Path_89" class="st5" d="M70.8,24.3v-2.7h1.1v2.7h1.9v1h-1.9V31c0,0.4,0.3,0.6,0.9,0.6c0.4,0,0.7-0.1,1-0.1v0.9
						c-0.4,0.1-0.9,0.1-1.3,0.1c-1.2,0-1.8-0.3-1.8-1.3v-6h-1.3v-1L70.8,24.3z"/>
					<path id="Path_90" class="st6" d="M86.1,8.4l10.3-4.4c2,1.3,3.4,3,3.8,4.8L86.1,8.4z"/>
					<path id="Path_91" class="st5" d="M82.4,0h-0.1c-4.8,0-3.6,2.6-2.1,5.4L82.4,0z"/>
					<path id="Path_92" class="st7" d="M95.3,3.4c-1.8-1-3.8-1.8-5.8-2.3L84,7L95.3,3.4z"/>
					<path id="Path_93" class="st5" d="M81.8,7.2l6.4-6.4c-1.7-0.4-3.4-0.7-5.1-0.7L81.8,7.2z"/>
					<path id="Path_94" class="st7" d="M89.7,17.7c2.1-0.6,4-1.4,5.9-2.4L84,11.5L89.7,17.7z"/>
					<path id="Path_95" class="st6" d="M86.1,10.1l10.6,4.6c2-1.5,3.3-3.2,3.5-4.9L86.1,10.1z"/>
					<path id="Path_96" class="st5" d="M80.4,13.2c-1.5,2.8-3,5.6,2,5.6h0.3L80.4,13.2z"/>
					<path id="Path_97" class="st5" d="M83.2,18.8c1.8-0.1,3.6-0.4,5.3-0.8l-6.6-6.6L83.2,18.8z"/>
					<path id="Path_98" class="st8" d="M0,18.6V1.9h9.6v2.4H2.9v4.4h5.9v2.4H2.9v5H10v2.4H0z"/>
					<path id="Path_99" class="st8" d="M18.5,6.1h2.6l-3.9,12.5h-2.5l-4-12.5h2.7l2.5,8.8H16L18.5,6.1z"/>
					<path id="Path_100" class="st8" d="M23.1,18.6V6.1h2.4v1.3h0.1c0.9-0.9,2-1.4,3.3-1.5l0.2,2.6c-0.3,0-0.6-0.1-0.8-0.1
						c-1,0-1.9,0.4-2.7,0.9v9.3L23.1,18.6L23.1,18.6z"/>
					<path id="Path_101" class="st8" d="M39.9,13.1h-6.8v1.8c0,1.4,0.7,1.8,2.1,1.8c1.3,0,2.2-0.3,2.2-1.8l2.5,0.2
						c-0.1,2.8-2.1,3.7-4.7,3.7c-2.9,0-4.7-1.1-4.7-4V9.9c0-2.9,1.8-4,4.7-4c2.9,0,4.7,1.1,4.7,4L39.9,13.1z M37.3,10.9V9.9
						c0-1.4-0.7-1.9-2.1-1.9s-2.1,0.5-2.1,1.9v1.1L37.3,10.9z"/>
					<path id="Path_102" class="st8" d="M42.6,18.6V6.1H45v1.2h0.1C46,6.5,47.3,6,48.5,5.9c2.2,0,3.1,1.4,3.1,3.6v9.1H49v-8.5
						c0-1.2-0.3-1.9-1.5-1.9c-0.9,0.1-1.7,0.5-2.3,1.2v9.3h-2.6L42.6,18.6z"/>
					<path id="Path_103" class="st8" d="M53.6,8.2V6.1h9v2.1l-6.1,8.1v0.2h6.2v2.1h-9.3v-2.1l6.1-8.1V8.2L53.6,8.2z"/>
					<path id="Path_104" class="st8" d="M64.2,9.8c0-2.9,1.8-3.9,4.7-3.9s4.8,1,4.8,3.9v5c0,2.9-1.8,4-4.8,4s-4.7-1.1-4.7-4V9.8z
						 M66.8,14.9c0,1.4,0.8,1.8,2.2,1.8s2.2-0.5,2.2-1.8v-5c0-1.4-0.8-1.8-2.2-1.8s-2.2,0.5-2.2,1.8V14.9z"/>
					<path id="Path_105" class="st8" d="M74.6,6.2h-0.5V5.9h1.5v0.3h-0.5v1.5h-0.4L74.6,6.2z"/>
					<path id="Path_106" class="st8" d="M75.8,5.9h0.6l0.4,1.2l0,0l0.4-1.2h0.5v1.8h-0.4V6.4l0,0L77,7.7h-0.3l-0.5-1.3l0,0v1.3h-0.4
						V5.9z"/>
				</g>
				<path id="Polygon_1" d="M125,25.3l-4.1-7.4h8.3L125,25.3z"/>
			</g>
			<g class="st2">
				<path class="st3" d="M15.3,237.2v0.5h-2.8v1.9h2v0.5h-2v2.2h3v0.5h-3.6v-5.8H15.3z"/>
				<path class="st3" d="M16.7,237.2l1.4,4.7h0l1.4-4.7h0.6l-1.8,5.8h-0.6l-1.8-5.8H16.7z"/>
				<path class="st3" d="M24.4,237.2v0.4l-2.9,4.8h3v0.5h-3.7v-0.5l2.9-4.8H21v-0.5H24.4z"/>
				<path class="st3" d="M28.8,243.6v0.4h-4v-0.4H28.8z"/>
				<path class="st3" d="M33.1,238.7c0,0.6-0.2,1-0.6,1.4c-0.2,0.2-0.5,0.5-1,0.8c-0.7,0.5-1.2,0.9-1.5,1.6h3.1v0.5h-3.8v-0.6
					c0.3-0.7,0.9-1.3,1.5-1.7c0.3-0.2,0.6-0.4,0.9-0.6c0.5-0.4,0.8-0.8,0.8-1.4c0-0.7-0.4-1.1-1.2-1.1c-0.7,0-1.2,0.5-1.4,1.3
					l-0.6-0.1c0.3-1.1,0.9-1.6,1.9-1.6C32.3,237.1,33.1,237.7,33.1,238.7z"/>
				<path class="st3" d="M38.1,240.1c0,2-0.7,3-2,3c-1.3,0-2-1-2-3c0-2,0.7-3,2-3C37.5,237.1,38.1,238.2,38.1,240.1z M36.1,242.6
					c1,0,1.4-0.8,1.4-2.5c0-1.7-0.4-2.5-1.4-2.5c-1,0-1.4,0.8-1.4,2.5C34.7,241.8,35.1,242.6,36.1,242.6z"/>
				<path class="st3" d="M42.8,238.7c0,0.6-0.2,1-0.6,1.4c-0.2,0.2-0.5,0.5-1,0.8c-0.7,0.5-1.2,0.9-1.5,1.6h3.1v0.5h-3.8v-0.6
					c0.3-0.7,0.9-1.3,1.5-1.7c0.3-0.2,0.6-0.4,0.9-0.6c0.5-0.4,0.8-0.8,0.8-1.4c0-0.7-0.4-1.1-1.2-1.1c-0.7,0-1.2,0.5-1.4,1.3
					l-0.6-0.1c0.3-1.1,0.9-1.6,1.9-1.6C42.1,237.1,42.8,237.7,42.8,238.7z"/>
				<path class="st3" d="M47.7,238.7c0,0.6-0.2,1-0.6,1.4c-0.2,0.2-0.5,0.5-1,0.8c-0.7,0.5-1.2,0.9-1.5,1.6h3.1v0.5H44v-0.6
					c0.3-0.7,0.9-1.3,1.5-1.7c0.3-0.2,0.6-0.4,0.9-0.6c0.5-0.4,0.8-0.8,0.8-1.4c0-0.7-0.4-1.1-1.2-1.1c-0.7,0-1.2,0.5-1.4,1.3
					l-0.6-0.1c0.3-1.1,0.9-1.6,1.9-1.6C47,237.1,47.7,237.7,47.7,238.7z"/>
				<path class="st3" d="M52.3,243.6v0.4h-4v-0.4H52.3z"/>
				<path class="st3" d="M56.8,240.1c0,2-0.7,3-2,3c-1.3,0-2-1-2-3c0-2,0.7-3,2-3C56.1,237.1,56.8,238.2,56.8,240.1z M54.8,242.6
					c1,0,1.4-0.8,1.4-2.5c0-1.7-0.4-2.5-1.4-2.5c-1,0-1.4,0.8-1.4,2.5C53.3,241.8,53.8,242.6,54.8,242.6z"/>
				<path class="st3" d="M61.5,238.7c0,0.6-0.2,1-0.6,1.4c-0.2,0.2-0.5,0.5-1,0.8c-0.7,0.5-1.2,0.9-1.5,1.6h3.1v0.5h-3.8v-0.6
					c0.3-0.7,0.9-1.3,1.5-1.7c0.3-0.2,0.6-0.4,0.9-0.6c0.5-0.4,0.8-0.8,0.8-1.4c0-0.7-0.4-1.1-1.2-1.1c-0.7,0-1.2,0.5-1.4,1.3
					l-0.6-0.1c0.3-1.1,0.9-1.6,1.9-1.6C60.7,237.1,61.5,237.7,61.5,238.7z"/>
				<path class="st3" d="M66.4,237.2v0.4l-2.4,5.4h-0.7l2.4-5.3h-2.9v-0.5H66.4z"/>
				<path class="st3" d="M71.3,238.7c0,0.6-0.2,1-0.6,1.4c-0.2,0.2-0.5,0.5-1,0.8c-0.7,0.5-1.2,0.9-1.5,1.6h3.1v0.5h-3.8v-0.6
					c0.3-0.7,0.9-1.3,1.5-1.7c0.3-0.2,0.6-0.4,0.9-0.6c0.5-0.4,0.8-0.8,0.8-1.4c0-0.7-0.4-1.1-1.2-1.1c-0.7,0-1.2,0.5-1.4,1.3
					l-0.6-0.1c0.3-1.1,0.9-1.6,1.9-1.6C70.5,237.1,71.3,237.7,71.3,238.7z"/>
				<path class="st3" d="M75.9,243.6v0.4h-4v-0.4H75.9z"/>
				<path class="st3" d="M77.4,237.2v4.1c0,0.8,0.6,1.2,1.4,1.2c0.8,0,1.4-0.5,1.4-1.2v-4.1h0.6v4c0,1.1-0.8,1.8-2,1.8
					c-1.2,0-2-0.7-2-1.8v-4H77.4z"/>
				<path class="st3" d="M83.2,237.2v3l2.4-3h0.8l-1.8,2.2l2,3.6h-0.7l-1.7-3.1l-0.9,1.1v1.9h-0.6v-5.8H83.2z"/>
				<path class="st3" d="M96.1,237.2l2.5,4.4h0v-4.4h0.6v5.8h-0.5l-2.9-5.1h0v5.1h-0.6v-5.8H96.1z"/>
				<path class="st3" d="M105,240.1c0,1.6-0.6,3-2.3,3s-2.3-1.4-2.3-3c0-1.6,0.6-3,2.3-3C104.4,237.1,105,238.5,105,240.1z
					 M102.8,242.5c1,0,1.6-0.8,1.6-2.4c0-1.6-0.6-2.4-1.6-2.4c-1,0-1.6,0.8-1.6,2.4C101.1,241.7,101.7,242.5,102.8,242.5z"/>
				<path class="st3" d="M106.2,237.2l1.4,4.7h0l1.4-4.7h0.6l-1.8,5.8h-0.6l-1.8-5.8H106.2z"/>
				<path class="st3" d="M114.2,237.2v0.5h-2.8v1.9h2v0.5h-2v2.2h3v0.5h-3.6v-5.8H114.2z"/>
				<path class="st3" d="M116.6,237.2l1.5,4.7h0l1.4-4.7h1v5.8H120v-5.4l-1.6,5.4h-0.5l-1.6-5.4v5.4h-0.6v-5.8H116.6z"/>
				<path class="st3" d="M124.3,237.2c1,0,1.7,0.5,1.7,1.4c0,0.7-0.3,1.1-1,1.3l0,0c0.7,0.2,1.1,0.8,1.1,1.5c0,1-0.7,1.6-2.1,1.6
					h-1.8v-5.8H124.3z M124,239.7c0.7,0,1.4-0.3,1.4-1c0-0.7-0.4-0.9-1.1-0.9h-1.4v1.9H124z M124.2,242.5c0.9,0,1.4-0.3,1.4-1
					c0-0.8-0.7-1.2-1.5-1.2h-1.1v2.2H124.2z"/>
				<path class="st3" d="M131.1,237.2v0.5h-2.8v1.9h2v0.5h-2v2.2h3v0.5h-3.6v-5.8H131.1z"/>
				<path class="st3" d="M134.3,237.2c1.1,0,1.9,0.5,1.9,1.5c0,0.7-0.4,1.2-1.2,1.5l1.2,2.8h-0.7l-1.2-2.6h-1.4v2.6h-0.6v-5.8H134.3
					z M134.3,239.8c0.8,0,1.3-0.3,1.3-1.1c0-0.7-0.4-1-1.3-1h-1.2v2.1H134.3z"/>
				<path class="st3" d="M143.7,238.7c0,0.6-0.2,1-0.6,1.4c-0.2,0.2-0.5,0.5-1,0.8c-0.7,0.5-1.2,0.9-1.5,1.6h3.1v0.5H140v-0.6
					c0.3-0.7,0.9-1.3,1.5-1.7c0.3-0.2,0.6-0.4,0.9-0.6c0.5-0.4,0.8-0.8,0.8-1.4c0-0.7-0.4-1.1-1.2-1.1c-0.7,0-1.2,0.5-1.4,1.3
					l-0.6-0.1c0.3-1.1,0.9-1.6,1.9-1.6C142.9,237.1,143.7,237.7,143.7,238.7z"/>
				<path class="st3" d="M148.8,240.1c0,2-0.7,3-2,3c-1.3,0-2-1-2-3c0-2,0.7-3,2-3C148.1,237.1,148.8,238.2,148.8,240.1z
					 M146.8,242.6c1,0,1.4-0.8,1.4-2.5c0-1.7-0.4-2.5-1.4-2.5c-1,0-1.4,0.8-1.4,2.5C145.3,241.8,145.8,242.6,146.8,242.6z"/>
				<path class="st3" d="M153.5,238.7c0,0.6-0.2,1-0.6,1.4c-0.2,0.2-0.5,0.5-1,0.8c-0.7,0.5-1.2,0.9-1.5,1.6h3.1v0.5h-3.8v-0.6
					c0.3-0.7,0.9-1.3,1.5-1.7c0.3-0.2,0.6-0.4,0.9-0.6c0.5-0.4,0.8-0.8,0.8-1.4c0-0.7-0.4-1.1-1.2-1.1c-0.7,0-1.2,0.5-1.4,1.3
					l-0.6-0.1c0.3-1.1,0.9-1.6,1.9-1.6C152.7,237.1,153.5,237.7,153.5,238.7z"/>
				<path class="st3" d="M158.4,238.7c0,0.6-0.2,1-0.6,1.4c-0.2,0.2-0.5,0.5-1,0.8c-0.7,0.5-1.2,0.9-1.5,1.6h3.1v0.5h-3.8v-0.6
					c0.3-0.7,0.9-1.3,1.5-1.7c0.3-0.2,0.6-0.4,0.9-0.6c0.5-0.4,0.8-0.8,0.8-1.4c0-0.7-0.4-1.1-1.2-1.1c-0.7,0-1.2,0.5-1.4,1.3
					l-0.6-0.1c0.3-1.1,0.9-1.6,1.9-1.6C157.6,237.1,158.4,237.7,158.4,238.7z"/>
			</g>
		</g>
	</g>
</g>
</svg>
