<?xml version="1.0" encoding="utf-8"?>
<!-- Generator: Adobe Illustrator 27.0.0, SVG Export Plug-In . SVG Version: 6.00 Build 0)  -->
<svg version="1.1" id="Group_39" xmlns="http://www.w3.org/2000/svg" xmlns:xlink="http://www.w3.org/1999/xlink" x="0px" y="0px"
	 viewBox="0 0 300 250" style="enable-background:new 0 0 300 250;" xml:space="preserve">
<style type="text/css">
	.st0{fill:#FFFFFF;}
	.st1{enable-background:new    ;}
	.st2{fill:#4D4D4F;}
	.st3{fill:#AD1AAC;}
	.st4{fill:#43B02A;}
	.st5{fill:#4EC3E0;}
	.st6{fill:#007A33;}
</style>
<rect id="White-Bottom" y="0" class="st0" width="300" height="53"/>
<g class="st1">
	<path class="st2" d="M52.3,133.6v0.9h-2.7v1.4h2v0.9h-2v1.6h2.8v0.9h-3.9v-5.8H52.3z"/>
	<path class="st2" d="M53.9,133.6l1,4.3h0l1.1-4.3h1.1l-1.5,5.8h-1.2l-1.5-5.8H53.9z"/>
	<path class="st2" d="M60.1,133.6c1.1,0,1.8,0.6,1.8,1.7c0,0.7-0.4,1.3-1.1,1.5l1.3,2.6h-1.2l-1.1-2.4h-1v2.4h-1.1v-5.8H60.1z
		 M59.7,136.2c0.7,0,1.1-0.2,1.1-0.8c0-0.6-0.4-0.8-0.9-0.8h-1v1.6H59.7z"/>
	<path class="st2" d="M67,133.6v0.9h-2.7v1.4h2v0.9h-2v1.6h2.8v0.9h-3.9v-5.8H67z"/>
	<path class="st2" d="M69.2,133.6l2.3,3.9h0v-3.9h1v5.8h-1.1l-2.4-4.1h0v4.1h-1v-5.8H69.2z"/>
	<path class="st2" d="M77.3,133.6v0.9l-2.8,4h2.8v0.9h-4.1v-0.9l2.7-3.9h-2.5v-0.9H77.3z"/>
	<path class="st2" d="M82.7,136.5c0,1.9-0.9,3-2.4,3s-2.4-1.1-2.4-3c0-1.9,0.9-3,2.4-3S82.7,134.6,82.7,136.5z M80.2,138.6
		c0.9,0,1.3-0.7,1.3-2c0-1.4-0.4-2-1.3-2c-0.9,0-1.3,0.6-1.3,2.1C78.9,137.9,79.3,138.6,80.2,138.6z"/>
	<path class="st2" d="M87.8,133.6c-0.8,1-1.2,2.1-1.2,3.3c0,1.2,0.4,2.3,1.2,3.3h-1c-0.9-1.3-1.1-2.2-1.1-3.3c0-1.1,0.2-1.9,1.1-3.3
		H87.8z"/>
	<path class="st2" d="M90.6,136.2c0,0-0.1,0-0.2,0c-0.5,0-0.9,0.5-0.9,0.7v2.5h-1v-4.2h0.9v0.7h0c0.2-0.5,0.6-0.8,1.2-0.8V136.2z"/>
	<path class="st2" d="M94.5,137.3c0,1.3-0.7,2.2-1.8,2.2c-1.1,0-1.8-0.8-1.8-2.2c0-1.3,0.7-2.2,1.8-2.2S94.5,136,94.5,137.3z
		 M92.7,138.7c0.5,0,0.8-0.4,0.8-1.4c0-0.9-0.3-1.4-0.8-1.4c-0.6,0-0.8,0.5-0.8,1.4C91.9,138.3,92.1,138.7,92.7,138.7z"/>
	<path class="st2" d="M95.9,135.3l0.6,1.2l0.6-1.2h1.1l-1.2,2l1.3,2.2h-1.1l-0.7-1.3l-0.7,1.3h-1.1l1.2-2.2l-1.2-2H95.9z"/>
	<path class="st2" d="M101.8,136.8v2c0,0.1,0,0.4,0.1,0.6h-1l-0.1-0.4c-0.4,0.3-0.8,0.4-1.3,0.4c-0.7,0-1.1-0.5-1.1-1.1
		c0-0.9,0.8-1.4,2.4-1.6v-0.4c0-0.3-0.3-0.5-0.6-0.5c-0.3,0-0.6,0.2-0.9,0.5l-0.6-0.5c0.3-0.4,0.9-0.8,1.5-0.8
		C101.3,135.2,101.8,135.7,101.8,136.8z M99.9,138.8c0.3,0,0.6-0.2,0.9-0.4v-0.9c-1.1,0.2-1.4,0.5-1.4,0.8
		C99.4,138.6,99.6,138.8,99.9,138.8z"/>
	<path class="st2" d="M106.2,133.6v5.8h-0.8l0-0.4c-0.4,0.3-0.7,0.5-1.1,0.5c-1.1,0-1.7-0.9-1.7-2.3c0-1.1,0.6-2.1,1.7-2.1
		c0.4,0,0.8,0.2,1,0.5h0v-2H106.2z M104.4,138.7c0.4,0,0.6-0.2,0.8-0.4v-2c-0.2-0.2-0.4-0.4-0.8-0.4c-0.6,0-0.9,0.5-0.9,1.4
		S103.8,138.7,104.4,138.7z"/>
	<path class="st2" d="M108.2,135.3v2.7c0,0.5,0.1,0.7,0.5,0.7c0.3,0,0.7-0.2,0.9-0.4v-3h1v4.2h-0.9V139c-0.5,0.4-0.9,0.5-1.3,0.5
		c-0.8,0-1.2-0.5-1.2-1.4v-2.9H108.2z"/>
	<path class="st2" d="M114.3,135.8l-0.6,0.5c-0.3-0.3-0.5-0.4-0.8-0.4c-0.4,0-0.6,0.2-0.6,0.4c0,0.2,0.2,0.4,0.7,0.6
		c1,0.3,1.3,0.7,1.3,1.4c0,0.8-0.6,1.2-1.5,1.2c-0.7,0-1.2-0.3-1.6-0.8l0.7-0.5c0.3,0.4,0.6,0.6,1,0.6c0.4,0,0.6-0.2,0.6-0.5
		c0-0.2-0.2-0.4-0.8-0.6c-1-0.3-1.3-0.7-1.3-1.3c0-0.7,0.6-1.2,1.4-1.2C113.4,135.2,113.9,135.4,114.3,135.8z"/>
	<path class="st2" d="M116.4,133.9v1.4h0.8v0.8h-0.8v2.4c0,0.2,0.1,0.3,0.4,0.3c0.2,0,0.3,0,0.5-0.1v0.8c-0.3,0-0.5,0.1-0.8,0.1
		c-0.7,0-1-0.3-1-1v-2.5h-0.6v-0.8h0.6v-1.4H116.4z"/>
	<path class="st2" d="M120.9,136.8v2c0,0.1,0,0.4,0.1,0.6h-1l-0.1-0.4c-0.4,0.3-0.8,0.4-1.3,0.4c-0.7,0-1.1-0.5-1.1-1.1
		c0-0.9,0.8-1.4,2.4-1.6v-0.4c0-0.3-0.3-0.5-0.6-0.5c-0.3,0-0.6,0.2-0.9,0.5l-0.6-0.5c0.3-0.4,0.9-0.8,1.5-0.8
		C120.4,135.2,120.9,135.7,120.9,136.8z M119,138.8c0.3,0,0.6-0.2,0.9-0.4v-0.9c-1.1,0.2-1.4,0.5-1.4,0.8
		C118.5,138.6,118.7,138.8,119,138.8z"/>
	<path class="st2" d="M123,133.9v1.4h0.8v0.8H123v2.4c0,0.2,0.1,0.3,0.4,0.3c0.2,0,0.3,0,0.5-0.1v0.8c-0.3,0-0.5,0.1-0.8,0.1
		c-0.7,0-1-0.3-1-1v-2.5h-0.6v-0.8h0.6v-1.4H123z"/>
	<path class="st2" d="M125.2,133.6c0.9,1.3,1.1,2.2,1.1,3.3c0,1.1-0.2,1.9-1.1,3.3h-1c0.8-1,1.2-2,1.2-3.3c0-1.2-0.4-2.3-1.2-3.3
		H125.2z"/>
	<path class="st2" d="M130.7,133.6v0.9h-1v-0.9H130.7z M130.7,135.3v4.2h-1v-4.2H130.7z"/>
	<path class="st2" d="M134.5,135.8l-0.6,0.5c-0.3-0.3-0.5-0.4-0.8-0.4c-0.4,0-0.6,0.2-0.6,0.4c0,0.2,0.2,0.4,0.7,0.6
		c1,0.3,1.3,0.7,1.3,1.4c0,0.8-0.6,1.2-1.5,1.2c-0.7,0-1.2-0.3-1.6-0.8l0.7-0.5c0.3,0.4,0.6,0.6,1,0.6c0.4,0,0.6-0.2,0.6-0.5
		c0-0.2-0.2-0.4-0.8-0.6c-1-0.3-1.3-0.7-1.3-1.3c0-0.7,0.6-1.2,1.4-1.2C133.6,135.2,134.1,135.4,134.5,135.8z"/>
	<path class="st2" d="M138.9,133.6v0.9h-1v-0.9H138.9z M138.9,135.3v4.2h-1v-4.2H138.9z"/>
	<path class="st2" d="M143.5,136.5v2.9h-1v-2.7c0-0.5-0.1-0.7-0.5-0.7c-0.3,0-0.7,0.2-0.9,0.4v3h-1v-4.2h0.9v0.4
		c0.5-0.4,0.9-0.5,1.3-0.5C143.1,135.2,143.5,135.7,143.5,136.5z"/>
	<path class="st2" d="M147.9,133.6v5.8h-0.8l0-0.4c-0.4,0.3-0.7,0.5-1.1,0.5c-1.1,0-1.7-0.9-1.7-2.3c0-1.1,0.6-2.1,1.7-2.1
		c0.4,0,0.8,0.2,1,0.5h0v-2H147.9z M146.2,138.7c0.4,0,0.6-0.2,0.8-0.4v-2c-0.2-0.2-0.4-0.4-0.8-0.4c-0.6,0-0.9,0.5-0.9,1.4
		S145.6,138.7,146.2,138.7z"/>
	<path class="st2" d="M150.1,133.6v0.9h-1v-0.9H150.1z M150.1,135.3v4.2h-1v-4.2H150.1z"/>
	<path class="st2" d="M154.3,136.3l-0.8,0.3c-0.2-0.5-0.4-0.6-0.8-0.6c-0.6,0-0.8,0.4-0.8,1.4c0,0.9,0.3,1.4,0.8,1.4
		c0.4,0,0.6-0.2,0.9-0.7l0.8,0.4c-0.4,0.7-0.9,1-1.6,1c-1.2,0-1.8-0.8-1.8-2.2c0-1.3,0.7-2.2,1.8-2.2
		C153.4,135.2,154.1,135.6,154.3,136.3z"/>
	<path class="st2" d="M158.2,136.8v2c0,0.1,0,0.4,0.1,0.6h-1l-0.1-0.4c-0.4,0.3-0.8,0.4-1.3,0.4c-0.7,0-1.1-0.5-1.1-1.1
		c0-0.9,0.8-1.4,2.4-1.6v-0.4c0-0.3-0.3-0.5-0.6-0.5c-0.3,0-0.6,0.2-0.9,0.5l-0.6-0.5c0.3-0.4,0.9-0.8,1.5-0.8
		C157.7,135.2,158.2,135.7,158.2,136.8z M156.3,138.8c0.3,0,0.6-0.2,0.9-0.4v-0.9c-1.1,0.2-1.4,0.5-1.4,0.8
		C155.8,138.6,156,138.8,156.3,138.8z"/>
	<path class="st2" d="M160.3,133.9v1.4h0.8v0.8h-0.8v2.4c0,0.2,0.1,0.3,0.4,0.3c0.2,0,0.3,0,0.5-0.1v0.8c-0.3,0-0.5,0.1-0.8,0.1
		c-0.7,0-1-0.3-1-1v-2.5h-0.6v-0.8h0.6v-1.4H160.3z"/>
	<path class="st2" d="M165,137.1v0.4h-2.5c0,0.8,0.3,1.2,0.9,1.2c0.4,0,0.6-0.1,0.9-0.5l0.7,0.4c-0.4,0.6-0.9,0.8-1.7,0.8
		c-1.1,0-1.8-0.8-1.8-2.2s0.7-2.2,1.8-2.2C164.5,135.2,165,136.2,165,137.1z M164.1,136.8c0-0.6-0.3-0.9-0.8-0.9
		c-0.5,0-0.8,0.3-0.8,0.9H164.1z"/>
	<path class="st2" d="M169.3,133.6v5.8h-0.8l0-0.4c-0.4,0.3-0.7,0.5-1.1,0.5c-1.1,0-1.7-0.9-1.7-2.3c0-1.1,0.6-2.1,1.7-2.1
		c0.4,0,0.8,0.2,1,0.5h0v-2H169.3z M167.5,138.7c0.4,0,0.6-0.2,0.8-0.4v-2c-0.2-0.2-0.4-0.4-0.8-0.4c-0.6,0-0.9,0.5-0.9,1.4
		S166.9,138.7,167.5,138.7z"/>
	<path class="st2" d="M174.7,133.6v0.8h-0.2c-0.5,0-0.6,0.2-0.6,0.5v0.4h0.8v0.8h-0.8v3.4h-1v-3.4h-0.6v-0.8h0.6v-0.5
		c0-0.8,0.3-1.2,1.1-1.2H174.7z"/>
	<path class="st2" d="M178.7,137.3c0,1.3-0.7,2.2-1.8,2.2c-1.1,0-1.8-0.8-1.8-2.2c0-1.3,0.7-2.2,1.8-2.2S178.7,136,178.7,137.3z
		 M176.9,138.7c0.5,0,0.8-0.4,0.8-1.4c0-0.9-0.3-1.4-0.8-1.4c-0.6,0-0.8,0.5-0.8,1.4C176.1,138.3,176.3,138.7,176.9,138.7z"/>
	<path class="st2" d="M181.4,136.2c0,0-0.1,0-0.2,0c-0.5,0-0.9,0.5-0.9,0.7v2.5h-1v-4.2h0.9v0.7h0c0.2-0.5,0.6-0.8,1.2-0.8V136.2z"
		/>
	<path class="st2" d="M185.7,133.9v1.4h0.8v0.8h-0.8v2.4c0,0.2,0.1,0.3,0.4,0.3c0.2,0,0.3,0,0.5-0.1v0.8c-0.3,0-0.5,0.1-0.8,0.1
		c-0.7,0-1-0.3-1-1v-2.5h-0.6v-0.8h0.6v-1.4H185.7z"/>
	<path class="st2" d="M189.2,136.2c0,0-0.1,0-0.2,0c-0.5,0-0.9,0.5-0.9,0.7v2.5h-1v-4.2h0.9v0.7h0c0.2-0.5,0.6-0.8,1.2-0.8V136.2z"
		/>
	<path class="st2" d="M193,137.1v0.4h-2.5c0,0.8,0.3,1.2,0.9,1.2c0.4,0,0.6-0.1,0.9-0.5l0.7,0.4c-0.4,0.6-0.9,0.8-1.7,0.8
		c-1.1,0-1.8-0.8-1.8-2.2s0.7-2.2,1.8-2.2C192.5,135.2,193,136.2,193,137.1z M192.1,136.8c0-0.6-0.3-0.9-0.8-0.9
		c-0.5,0-0.8,0.3-0.8,0.9H192.1z"/>
	<path class="st2" d="M196.8,136.8v2c0,0.1,0,0.4,0.1,0.6h-1l-0.1-0.4c-0.4,0.3-0.8,0.4-1.3,0.4c-0.7,0-1.1-0.5-1.1-1.1
		c0-0.9,0.8-1.4,2.4-1.6v-0.4c0-0.3-0.3-0.5-0.6-0.5c-0.3,0-0.6,0.2-0.9,0.5l-0.6-0.5c0.3-0.4,0.9-0.8,1.5-0.8
		C196.4,135.2,196.8,135.7,196.8,136.8z M194.9,138.8c0.3,0,0.6-0.2,0.9-0.4v-0.9c-1.1,0.2-1.4,0.5-1.4,0.8
		C194.5,138.6,194.7,138.8,194.9,138.8z"/>
	<path class="st2" d="M199,133.9v1.4h0.8v0.8H199v2.4c0,0.2,0.1,0.3,0.4,0.3c0.2,0,0.3,0,0.5-0.1v0.8c-0.3,0-0.5,0.1-0.8,0.1
		c-0.7,0-1-0.3-1-1v-2.5h-0.6v-0.8h0.6v-1.4H199z"/>
	<path class="st2" d="M203.7,135.8c0.4-0.4,0.9-0.6,1.4-0.6c0.6,0,1,0.5,1,1.2v3h-1v-2.9c0-0.3-0.2-0.5-0.5-0.5
		c-0.2,0-0.5,0.2-0.8,0.4v3h-1v-2.9c0-0.3-0.2-0.5-0.5-0.5c-0.2,0-0.5,0.2-0.8,0.4v3h-1v-4.2h0.9v0.4c0.4-0.4,0.7-0.5,1.2-0.5
		C203.1,135.2,203.5,135.4,203.7,135.8z"/>
	<path class="st2" d="M210.3,137.1v0.4h-2.5c0,0.8,0.3,1.2,0.9,1.2c0.4,0,0.6-0.1,0.9-0.5l0.7,0.4c-0.4,0.6-0.9,0.8-1.7,0.8
		c-1.1,0-1.8-0.8-1.8-2.2s0.7-2.2,1.8-2.2C209.8,135.2,210.3,136.2,210.3,137.1z M209.4,136.8c0-0.6-0.3-0.9-0.8-0.9
		c-0.5,0-0.8,0.3-0.8,0.9H209.4z"/>
	<path class="st2" d="M214.6,136.5v2.9h-1v-2.7c0-0.5-0.1-0.7-0.5-0.7c-0.3,0-0.7,0.2-0.9,0.4v3h-1v-4.2h0.9v0.4
		c0.5-0.4,0.9-0.5,1.3-0.5C214.2,135.2,214.6,135.7,214.6,136.5z"/>
	<path class="st2" d="M216.8,133.9v1.4h0.8v0.8h-0.8v2.4c0,0.2,0.1,0.3,0.4,0.3c0.2,0,0.3,0,0.5-0.1v0.8c-0.3,0-0.5,0.1-0.8,0.1
		c-0.7,0-1-0.3-1-1v-2.5h-0.6v-0.8h0.6v-1.4H216.8z"/>
	<path class="st2" d="M224,137.3c0,1.3-0.7,2.2-1.8,2.2c-1.1,0-1.8-0.8-1.8-2.2c0-1.3,0.7-2.2,1.8-2.2S224,136,224,137.3z
		 M222.2,138.7c0.5,0,0.8-0.4,0.8-1.4c0-0.9-0.3-1.4-0.8-1.4c-0.6,0-0.8,0.5-0.8,1.4C221.4,138.3,221.7,138.7,222.2,138.7z"/>
	<path class="st2" d="M226.7,133.6v0.8h-0.2c-0.5,0-0.6,0.2-0.6,0.5v0.4h0.8v0.8h-0.8v3.4h-1v-3.4h-0.6v-0.8h0.6v-0.5
		c0-0.8,0.3-1.2,1.1-1.2H226.7z"/>
	<path class="st2" d="M232.8,136.8v2c0,0.1,0,0.4,0.1,0.6h-1l-0.1-0.4c-0.4,0.3-0.8,0.4-1.3,0.4c-0.7,0-1.1-0.5-1.1-1.1
		c0-0.9,0.8-1.4,2.4-1.6v-0.4c0-0.3-0.3-0.5-0.6-0.5c-0.3,0-0.6,0.2-0.9,0.5l-0.6-0.5c0.3-0.4,0.9-0.8,1.5-0.8
		C232.4,135.2,232.8,135.7,232.8,136.8z M230.9,138.8c0.3,0,0.6-0.2,0.9-0.4v-0.9c-1.1,0.2-1.4,0.5-1.4,0.8
		C230.4,138.6,230.6,138.8,230.9,138.8z"/>
	<path class="st2" d="M237.2,133.6v5.8h-0.8l0-0.4c-0.4,0.3-0.7,0.5-1.1,0.5c-1.1,0-1.7-0.9-1.7-2.3c0-1.1,0.6-2.1,1.7-2.1
		c0.4,0,0.8,0.2,1,0.5h0v-2H237.2z M235.5,138.7c0.4,0,0.6-0.2,0.8-0.4v-2c-0.2-0.2-0.4-0.4-0.8-0.4c-0.6,0-0.9,0.5-0.9,1.4
		S234.9,138.7,235.5,138.7z"/>
	<path class="st2" d="M239.3,135.3v2.7c0,0.5,0.1,0.7,0.5,0.7c0.3,0,0.7-0.2,0.9-0.4v-3h1v4.2h-0.9V139c-0.5,0.4-0.9,0.5-1.3,0.5
		c-0.8,0-1.2-0.5-1.2-1.4v-2.9H239.3z"/>
	<path class="st2" d="M243.8,133.6v5.8h-1v-5.8H243.8z"/>
	<path class="st2" d="M246.1,133.9v1.4h0.8v0.8h-0.8v2.4c0,0.2,0.1,0.3,0.4,0.3c0.2,0,0.3,0,0.5-0.1v0.8c-0.3,0-0.5,0.1-0.8,0.1
		c-0.7,0-1-0.3-1-1v-2.5h-0.6v-0.8h0.6v-1.4H246.1z"/>
</g>
<g class="st1">
	<path class="st2" d="M51.3,145.4c0,1.1-0.7,2.1-1.7,2.1c-0.3,0-0.8-0.2-1-0.5h0v1.9h-1v-5.7h1v0.4c0.3-0.3,0.6-0.5,1.1-0.5
		C50.7,143.2,51.3,144.1,51.3,145.4z M48.6,146.3c0.2,0.2,0.5,0.4,0.8,0.4c0.6,0,0.9-0.5,0.9-1.4c0-0.9-0.3-1.4-0.9-1.4
		c-0.4,0-0.7,0.3-0.8,0.4V146.3z"/>
	<path class="st2" d="M55.1,144.8v2c0,0.1,0,0.4,0.1,0.6h-1l-0.1-0.4c-0.4,0.3-0.8,0.4-1.3,0.4c-0.7,0-1.1-0.5-1.1-1.1
		c0-0.9,0.8-1.4,2.4-1.6v-0.4c0-0.3-0.3-0.5-0.6-0.5c-0.3,0-0.6,0.2-0.9,0.5l-0.6-0.5c0.3-0.4,0.9-0.8,1.5-0.8
		C54.7,143.2,55.1,143.7,55.1,144.8z M53.2,146.8c0.3,0,0.6-0.2,0.9-0.4v-0.9c-1.1,0.2-1.4,0.5-1.4,0.8
		C52.7,146.6,52.9,146.8,53.2,146.8z"/>
	<path class="st2" d="M57.3,141.9v1.4h0.8v0.8h-0.8v2.4c0,0.2,0.1,0.3,0.4,0.3c0.2,0,0.3,0,0.5-0.1v0.8c-0.3,0-0.5,0.1-0.8,0.1
		c-0.7,0-1-0.3-1-1v-2.5h-0.6v-0.8h0.6v-1.4H57.3z"/>
	<path class="st2" d="M59.9,141.6v0.9h-1v-0.9H59.9z M59.9,143.3v4.2h-1v-4.2H59.9z"/>
	<path class="st2" d="M64.2,145.1v0.4h-2.5c0,0.8,0.3,1.2,0.9,1.2c0.4,0,0.6-0.1,0.9-0.5l0.7,0.4c-0.4,0.6-0.9,0.8-1.7,0.8
		c-1.1,0-1.8-0.8-1.8-2.2s0.7-2.2,1.8-2.2C63.6,143.2,64.2,144.2,64.2,145.1z M63.3,144.8c0-0.6-0.3-0.9-0.8-0.9
		c-0.5,0-0.8,0.3-0.8,0.9H63.3z"/>
	<path class="st2" d="M68.4,144.5v2.9h-1v-2.7c0-0.5-0.1-0.7-0.5-0.7c-0.3,0-0.7,0.2-0.9,0.4v3h-1v-4.2h0.9v0.4
		c0.5-0.4,0.9-0.5,1.3-0.5C68,143.2,68.4,143.7,68.4,144.5z"/>
	<path class="st2" d="M70.6,141.9v1.4h0.8v0.8h-0.8v2.4c0,0.2,0.1,0.3,0.4,0.3c0.2,0,0.3,0,0.5-0.1v0.8c-0.3,0-0.5,0.1-0.8,0.1
		c-0.7,0-1-0.3-1-1v-2.5H69v-0.8h0.6v-1.4H70.6z"/>
	<path class="st2" d="M74.8,143.8l-0.6,0.5c-0.3-0.3-0.5-0.4-0.8-0.4c-0.4,0-0.6,0.2-0.6,0.4c0,0.2,0.2,0.4,0.7,0.6
		c1,0.3,1.3,0.7,1.3,1.4c0,0.8-0.6,1.2-1.5,1.2c-0.7,0-1.2-0.3-1.6-0.8l0.7-0.5c0.3,0.4,0.6,0.6,1,0.6c0.4,0,0.6-0.2,0.6-0.5
		c0-0.2-0.2-0.4-0.8-0.6c-1-0.3-1.3-0.7-1.3-1.3c0-0.7,0.6-1.2,1.4-1.2C73.9,143.2,74.4,143.4,74.8,143.8z"/>
	<path class="st2" d="M78.6,143.3l0.6,2.6h0l0.6-2.6h0.9l0.6,2.6h0l0.6-2.6h0.9l-1.1,4.2h-0.9l-0.6-2.6h0l-0.6,2.6h-0.9l-1.1-4.2
		H78.6z"/>
	<path class="st2" d="M84.5,141.6v0.9h-1v-0.9H84.5z M84.5,143.3v4.2h-1v-4.2H84.5z"/>
	<path class="st2" d="M86.8,141.9v1.4h0.8v0.8h-0.8v2.4c0,0.2,0.1,0.3,0.4,0.3c0.2,0,0.3,0,0.5-0.1v0.8c-0.3,0-0.5,0.1-0.8,0.1
		c-0.7,0-1-0.3-1-1v-2.5h-0.6v-0.8h0.6v-1.4H86.8z"/>
	<path class="st2" d="M89.3,141.6v2.1c0.4-0.4,0.8-0.5,1.2-0.5c0.8,0,1.2,0.5,1.2,1.4v2.9h-1v-2.7c0-0.5-0.1-0.7-0.5-0.7
		c-0.3,0-0.7,0.2-0.9,0.4v3h-1v-5.8H89.3z"/>
	<path class="st2" d="M97.9,143.8l-0.6,0.5c-0.3-0.3-0.5-0.4-0.8-0.4c-0.4,0-0.6,0.2-0.6,0.4c0,0.2,0.2,0.4,0.7,0.6
		c1,0.3,1.3,0.7,1.3,1.4c0,0.8-0.6,1.2-1.5,1.2c-0.7,0-1.2-0.3-1.6-0.8l0.7-0.5c0.3,0.4,0.6,0.6,1,0.6c0.4,0,0.6-0.2,0.6-0.5
		c0-0.2-0.2-0.4-0.8-0.6c-1-0.3-1.3-0.7-1.3-1.3c0-0.7,0.6-1.2,1.4-1.2C97,143.2,97.5,143.4,97.9,143.8z"/>
	<path class="st2" d="M99.3,143.3l0.7,2.6h0l0.7-2.6h1l-1.3,4.2c-0.1,0.2-0.2,0.5-0.4,0.8c-0.3,0.5-0.7,0.7-1.2,0.7
		c-0.2,0-0.3,0-0.5,0v-0.8c0.1,0,0.3,0,0.5,0c0.2,0,0.4,0,0.5-0.2c0.1-0.1,0.3-0.4,0.3-0.6c0-0.1,0-0.1,0-0.2l-1.2-3.9H99.3z"/>
	<path class="st2" d="M105.5,143.8c0.4-0.4,0.9-0.6,1.4-0.6c0.6,0,1,0.5,1,1.2v3h-1v-2.9c0-0.3-0.2-0.5-0.5-0.5
		c-0.2,0-0.5,0.2-0.8,0.4v3h-1v-2.9c0-0.3-0.2-0.5-0.5-0.5c-0.2,0-0.5,0.2-0.8,0.4v3h-1v-4.2h0.9v0.4c0.4-0.4,0.7-0.5,1.2-0.5
		C104.9,143.2,105.3,143.4,105.5,143.8z"/>
	<path class="st2" d="M112.7,145.4c0,1.1-0.7,2.1-1.7,2.1c-0.3,0-0.8-0.2-1-0.5h0v1.9h-1v-5.7h1v0.4c0.3-0.3,0.6-0.5,1.1-0.5
		C112,143.2,112.7,144.1,112.7,145.4z M110,146.3c0.2,0.2,0.5,0.4,0.8,0.4c0.6,0,0.9-0.5,0.9-1.4c0-0.9-0.3-1.4-0.9-1.4
		c-0.4,0-0.7,0.3-0.8,0.4V146.3z"/>
	<path class="st2" d="M114.6,141.9v1.4h0.8v0.8h-0.8v2.4c0,0.2,0.1,0.3,0.4,0.3c0.2,0,0.3,0,0.5-0.1v0.8c-0.3,0-0.5,0.1-0.8,0.1
		c-0.7,0-1-0.3-1-1v-2.5H113v-0.8h0.6v-1.4H114.6z"/>
	<path class="st2" d="M119.4,145.3c0,1.3-0.7,2.2-1.8,2.2c-1.1,0-1.8-0.8-1.8-2.2c0-1.3,0.7-2.2,1.8-2.2S119.4,144,119.4,145.3z
		 M117.6,146.7c0.5,0,0.8-0.4,0.8-1.4c0-0.9-0.3-1.4-0.8-1.4c-0.6,0-0.8,0.5-0.8,1.4C116.8,146.3,117,146.7,117.6,146.7z"/>
	<path class="st2" d="M123.3,143.8c0.4-0.4,0.9-0.6,1.4-0.6c0.6,0,1,0.5,1,1.2v3h-1v-2.9c0-0.3-0.2-0.5-0.5-0.5
		c-0.2,0-0.5,0.2-0.8,0.4v3h-1v-2.9c0-0.3-0.2-0.5-0.5-0.5c-0.2,0-0.5,0.2-0.8,0.4v3h-1v-4.2h0.9v0.4c0.4-0.4,0.7-0.5,1.2-0.5
		C122.7,143.2,123.1,143.4,123.3,143.8z"/>
	<path class="st2" d="M129.8,144.8v2c0,0.1,0,0.4,0.1,0.6h-1l-0.1-0.4c-0.4,0.3-0.8,0.4-1.3,0.4c-0.7,0-1.1-0.5-1.1-1.1
		c0-0.9,0.8-1.4,2.4-1.6v-0.4c0-0.3-0.3-0.5-0.6-0.5c-0.3,0-0.6,0.2-0.9,0.5l-0.6-0.5c0.3-0.4,0.9-0.8,1.5-0.8
		C129.3,143.2,129.8,143.7,129.8,144.8z M127.9,146.8c0.3,0,0.6-0.2,0.9-0.4v-0.9c-1.1,0.2-1.4,0.5-1.4,0.8
		C127.4,146.6,127.6,146.8,127.9,146.8z"/>
	<path class="st2" d="M131.9,141.9v1.4h0.8v0.8h-0.8v2.4c0,0.2,0.1,0.3,0.4,0.3c0.2,0,0.3,0,0.5-0.1v0.8c-0.3,0-0.5,0.1-0.8,0.1
		c-0.7,0-1-0.3-1-1v-2.5h-0.6v-0.8h0.6v-1.4H131.9z"/>
	<path class="st2" d="M134.5,141.6v0.9h-1v-0.9H134.5z M134.5,143.3v4.2h-1v-4.2H134.5z"/>
	<path class="st2" d="M138.8,144.3l-0.8,0.3c-0.2-0.5-0.4-0.6-0.8-0.6c-0.6,0-0.8,0.4-0.8,1.4c0,0.9,0.3,1.4,0.8,1.4
		c0.4,0,0.6-0.2,0.9-0.7l0.8,0.4c-0.4,0.7-0.9,1-1.6,1c-1.2,0-1.8-0.8-1.8-2.2c0-1.3,0.7-2.2,1.8-2.2
		C137.9,143.2,138.5,143.6,138.8,144.3z"/>
	<path class="st2" d="M145.1,144.8v2c0,0.1,0,0.4,0.1,0.6h-1l-0.1-0.4c-0.4,0.3-0.8,0.4-1.3,0.4c-0.7,0-1.1-0.5-1.1-1.1
		c0-0.9,0.8-1.4,2.4-1.6v-0.4c0-0.3-0.3-0.5-0.6-0.5c-0.3,0-0.6,0.2-0.9,0.5l-0.6-0.5c0.3-0.4,0.9-0.8,1.5-0.8
		C144.6,143.2,145.1,143.7,145.1,144.8z M143.2,146.8c0.3,0,0.6-0.2,0.9-0.4v-0.9c-1.1,0.2-1.4,0.5-1.4,0.8
		C142.7,146.6,142.9,146.8,143.2,146.8z"/>
	<path class="st2" d="M149.5,144.5v2.9h-1v-2.7c0-0.5-0.1-0.7-0.5-0.7c-0.3,0-0.7,0.2-0.9,0.4v3h-1v-4.2h0.9v0.4
		c0.5-0.4,0.9-0.5,1.3-0.5C149.1,143.2,149.5,143.7,149.5,144.5z"/>
	<path class="st2" d="M153.5,144.8v2c0,0.1,0,0.4,0.1,0.6h-1l-0.1-0.4c-0.4,0.3-0.8,0.4-1.3,0.4c-0.7,0-1.1-0.5-1.1-1.1
		c0-0.9,0.8-1.4,2.4-1.6v-0.4c0-0.3-0.3-0.5-0.6-0.5c-0.3,0-0.6,0.2-0.9,0.5l-0.6-0.5c0.3-0.4,0.9-0.8,1.5-0.8
		C153.1,143.2,153.5,143.7,153.5,144.8z M151.6,146.8c0.3,0,0.6-0.2,0.9-0.4v-0.9c-1.1,0.2-1.4,0.5-1.4,0.8
		C151.2,146.6,151.4,146.8,151.6,146.8z"/>
	<path class="st2" d="M157.7,145.1v0.4h-2.5c0,0.8,0.3,1.2,0.9,1.2c0.4,0,0.6-0.1,0.9-0.5l0.7,0.4c-0.4,0.6-0.9,0.8-1.7,0.8
		c-1.1,0-1.8-0.8-1.8-2.2s0.7-2.2,1.8-2.2C157.2,143.2,157.7,144.2,157.7,145.1z M156.8,144.8c0-0.6-0.3-0.9-0.8-0.9
		c-0.5,0-0.8,0.3-0.8,0.9H156.8z"/>
	<path class="st2" d="M161.7,143.8c0.4-0.4,0.9-0.6,1.4-0.6c0.6,0,1,0.5,1,1.2v3h-1v-2.9c0-0.3-0.2-0.5-0.5-0.5
		c-0.2,0-0.5,0.2-0.8,0.4v3h-1v-2.9c0-0.3-0.2-0.5-0.5-0.5c-0.2,0-0.5,0.2-0.8,0.4v3h-1v-4.2h0.9v0.4c0.4-0.4,0.7-0.5,1.2-0.5
		C161.1,143.2,161.5,143.4,161.7,143.8z"/>
	<path class="st2" d="M166.3,141.6v0.9h-1v-0.9H166.3z M166.3,143.3v4.2h-1v-4.2H166.3z"/>
	<path class="st2" d="M170.4,144.8v2c0,0.1,0,0.4,0.1,0.6h-1l-0.1-0.4c-0.4,0.3-0.8,0.4-1.3,0.4c-0.7,0-1.1-0.5-1.1-1.1
		c0-0.9,0.8-1.4,2.4-1.6v-0.4c0-0.3-0.3-0.5-0.6-0.5c-0.3,0-0.6,0.2-0.9,0.5l-0.6-0.5c0.3-0.4,0.9-0.8,1.5-0.8
		C170,143.2,170.4,143.7,170.4,144.8z M168.5,146.8c0.3,0,0.6-0.2,0.9-0.4v-0.9c-1.1,0.2-1.4,0.5-1.4,0.8
		C168,146.6,168.2,146.8,168.5,146.8z"/>
	<path class="st2" d="M176.9,144.8v2c0,0.1,0,0.4,0.1,0.6h-1l-0.1-0.4c-0.4,0.3-0.8,0.4-1.3,0.4c-0.7,0-1.1-0.5-1.1-1.1
		c0-0.9,0.8-1.4,2.4-1.6v-0.4c0-0.3-0.3-0.5-0.6-0.5c-0.3,0-0.6,0.2-0.9,0.5l-0.6-0.5c0.3-0.4,0.9-0.8,1.5-0.8
		C176.4,143.2,176.9,143.7,176.9,144.8z M175,146.8c0.3,0,0.6-0.2,0.9-0.4v-0.9c-1.1,0.2-1.4,0.5-1.4,0.8
		C174.5,146.6,174.7,146.8,175,146.8z"/>
	<path class="st2" d="M180.5,143.8l-0.6,0.5c-0.3-0.3-0.5-0.4-0.8-0.4c-0.4,0-0.6,0.2-0.6,0.4c0,0.2,0.2,0.4,0.7,0.6
		c1,0.3,1.3,0.7,1.3,1.4c0,0.8-0.6,1.2-1.5,1.2c-0.7,0-1.2-0.3-1.6-0.8l0.7-0.5c0.3,0.4,0.6,0.6,1,0.6s0.6-0.2,0.6-0.5
		c0-0.2-0.2-0.4-0.8-0.6c-1-0.3-1.3-0.7-1.3-1.3c0-0.7,0.6-1.2,1.4-1.2C179.6,143.2,180.1,143.4,180.5,143.8z"/>
	<path class="st2" d="M184.1,143.8l-0.6,0.5c-0.3-0.3-0.5-0.4-0.8-0.4c-0.4,0-0.6,0.2-0.6,0.4c0,0.2,0.2,0.4,0.7,0.6
		c1,0.3,1.3,0.7,1.3,1.4c0,0.8-0.6,1.2-1.5,1.2c-0.7,0-1.2-0.3-1.6-0.8l0.7-0.5c0.3,0.4,0.6,0.6,1,0.6c0.4,0,0.6-0.2,0.6-0.5
		c0-0.2-0.2-0.4-0.8-0.6c-1-0.3-1.3-0.7-1.3-1.3c0-0.7,0.6-1.2,1.4-1.2C183.2,143.2,183.7,143.4,184.1,143.8z"/>
	<path class="st2" d="M188.3,145.3c0,1.3-0.7,2.2-1.8,2.2c-1.1,0-1.8-0.8-1.8-2.2c0-1.3,0.7-2.2,1.8-2.2S188.3,144,188.3,145.3z
		 M186.4,146.7c0.5,0,0.8-0.4,0.8-1.4c0-0.9-0.3-1.4-0.8-1.4c-0.6,0-0.8,0.5-0.8,1.4C185.6,146.3,185.9,146.7,186.4,146.7z"/>
	<path class="st2" d="M192.1,144.3l-0.8,0.3c-0.2-0.5-0.4-0.6-0.8-0.6c-0.6,0-0.8,0.4-0.8,1.4c0,0.9,0.3,1.4,0.8,1.4
		c0.4,0,0.6-0.2,0.9-0.7l0.8,0.4c-0.4,0.7-0.9,1-1.6,1c-1.2,0-1.8-0.8-1.8-2.2c0-1.3,0.7-2.2,1.8-2.2
		C191.2,143.2,191.8,143.6,192.1,144.3z"/>
	<path class="st2" d="M194.1,141.6v0.9h-1v-0.9H194.1z M194.1,143.3v4.2h-1v-4.2H194.1z"/>
	<path class="st2" d="M198.2,144.8v2c0,0.1,0,0.4,0.1,0.6h-1l-0.1-0.4c-0.4,0.3-0.8,0.4-1.3,0.4c-0.7,0-1.1-0.5-1.1-1.1
		c0-0.9,0.8-1.4,2.4-1.6v-0.4c0-0.3-0.3-0.5-0.6-0.5c-0.3,0-0.6,0.2-0.9,0.5l-0.6-0.5c0.3-0.4,0.9-0.8,1.5-0.8
		C197.7,143.2,198.2,143.7,198.2,144.8z M196.3,146.8c0.3,0,0.6-0.2,0.9-0.4v-0.9c-1.1,0.2-1.4,0.5-1.4,0.8
		C195.8,146.6,196,146.8,196.3,146.8z"/>
	<path class="st2" d="M200.3,141.9v1.4h0.8v0.8h-0.8v2.4c0,0.2,0.1,0.3,0.4,0.3c0.2,0,0.3,0,0.5-0.1v0.8c-0.3,0-0.5,0.1-0.8,0.1
		c-0.7,0-1-0.3-1-1v-2.5h-0.6v-0.8h0.6v-1.4H200.3z"/>
	<path class="st2" d="M205,145.1v0.4h-2.5c0,0.8,0.3,1.2,0.9,1.2c0.4,0,0.6-0.1,0.9-0.5l0.7,0.4c-0.4,0.6-0.9,0.8-1.7,0.8
		c-1.1,0-1.8-0.8-1.8-2.2s0.7-2.2,1.8-2.2C204.5,143.2,205,144.2,205,145.1z M204.1,144.8c0-0.6-0.3-0.9-0.8-0.9
		c-0.5,0-0.8,0.3-0.8,0.9H204.1z"/>
	<path class="st2" d="M209.3,141.6v5.8h-0.8l0-0.4c-0.4,0.3-0.7,0.5-1.1,0.5c-1.1,0-1.7-0.9-1.7-2.3c0-1.1,0.6-2.1,1.7-2.1
		c0.4,0,0.8,0.2,1,0.5h0v-2H209.3z M207.5,146.7c0.4,0,0.6-0.2,0.8-0.4v-2c-0.2-0.2-0.4-0.4-0.8-0.4c-0.6,0-0.9,0.5-0.9,1.4
		S206.9,146.7,207.5,146.7z"/>
	<path class="st2" d="M213.2,143.3l0.6,2.6h0l0.6-2.6h0.9l0.6,2.6h0l0.6-2.6h0.9l-1.1,4.2h-0.9l-0.6-2.6h0l-0.6,2.6h-0.9l-1.1-4.2
		H213.2z"/>
	<path class="st2" d="M219.2,141.6v0.9h-1v-0.9H219.2z M219.2,143.3v4.2h-1v-4.2H219.2z"/>
	<path class="st2" d="M221.4,141.9v1.4h0.8v0.8h-0.8v2.4c0,0.2,0.1,0.3,0.4,0.3c0.2,0,0.3,0,0.5-0.1v0.8c-0.3,0-0.5,0.1-0.8,0.1
		c-0.7,0-1-0.3-1-1v-2.5h-0.6v-0.8h0.6v-1.4H221.4z"/>
	<path class="st2" d="M224,141.6v2.1c0.4-0.4,0.8-0.5,1.2-0.5c0.8,0,1.2,0.5,1.2,1.4v2.9h-1v-2.7c0-0.5-0.1-0.7-0.5-0.7
		c-0.3,0-0.7,0.2-0.9,0.4v3h-1v-5.8H224z"/>
	<path class="st2" d="M233.9,143.1l-1,0.2c-0.2-0.5-0.5-0.8-1-0.8c-0.7,0-1.2,0.7-1.2,2.1c0,1.4,0.4,2,1.2,2c0.6,0,0.8-0.3,1.1-0.9
		l1,0.3c-0.3,1-1.1,1.5-2.2,1.5c-1.5,0-2.3-1.1-2.3-3c0-1.9,0.8-3,2.3-3C233,141.6,233.6,142.1,233.9,143.1z"/>
	<path class="st2" d="M236,141.6v2.6l1.9-2.6h1.3l-1.6,2.2l1.9,3.6h-1.2l-1.4-2.7l-0.8,1v1.7h-1.1v-5.8H236z"/>
	<path class="st2" d="M242.1,141.6c1.6,0,2.6,1,2.6,2.9c0,1.9-0.9,2.9-2.6,2.9h-1.9v-5.8H242.1z M242,146.5c1,0,1.5-0.6,1.5-2
		c0-1.4-0.6-2-1.5-2h-0.8v3.9H242z"/>
</g>
<g class="st1">
	<path class="st2" d="M247.4,142.3c0,0.4-0.2,0.6-0.4,0.9c-0.2,0.2-0.9,0.8-1.2,1h1.6v0.5h-2.3v-0.6c0-0.2,0.2-0.4,0.7-0.8
		c0.8-0.6,1-0.9,1-1.1c0-0.3-0.2-0.5-0.5-0.5c-0.3,0-0.5,0.2-0.6,0.5l-0.5-0.1c0.1-0.5,0.6-0.9,1.2-0.9
		C247,141.3,247.4,141.7,247.4,142.3z"/>
</g>
<g class="st1">
	<path class="st2" d="M60,81.6h-2.2v-0.3c0-0.9-0.2-1.7-1.4-1.7c-1.1,0-1.4,0.6-1.4,1.6v4.8c0,1,0.4,1.6,1.4,1.6
		c1.3,0,1.4-0.8,1.4-1.8v-0.6H60v0.5c0,2.4-1.1,3.8-3.6,3.8c-2.5,0-3.6-1.4-3.6-3.8v-4.3c0-2.4,1.2-3.8,3.6-3.8
		C58.8,77.7,60,79,60,81.6z"/>
	<path class="st2" d="M67.8,83.1v5.6c0,0.1,0,0.3,0.1,0.7h-2l-0.1-0.8c-0.6,0.6-1.4,1-2.4,1c-1.2,0-2-0.7-2-2.1
		c0-2.1,2.1-2.9,4.4-3.6v-0.6c0-0.7-0.4-1-1-1c-0.6,0-1.1,0.4-1.1,1.1h-2c0.1-1.8,1.5-2.7,3.2-2.7C66.8,80.5,67.8,81.5,67.8,83.1z
		 M64.2,88.1c0.6,0,1-0.3,1.5-0.8v-2.1c-0.9,0.3-2.4,1-2.4,2C63.3,87.8,63.7,88.1,64.2,88.1z"/>
	<path class="st2" d="M73.8,82.7c-0.3-0.1-0.7-0.2-1.1-0.2c-0.6,0-1,0.4-1,1v6h-2v-8.7h2v1.2h0c0.5-0.8,1.1-1.3,2.1-1.3V82.7z"/>
	<path class="st2" d="M81.2,77.9v11.6h-1.9v-1.1h0c-0.4,0.7-1.4,1.2-2.1,1.2c-1.5,0-2.2-1.2-2.2-3.4V84c0-2.2,0.7-3.4,2.2-3.4
		c0.6,0,1.1,0.3,2,1v-3.6H81.2z M79.1,82.7c-0.4-0.4-0.8-0.6-1.2-0.6c-0.7,0-1,0.7-1,2v2.1c0,1.3,0.3,1.9,1,1.9
		c0.4,0,0.8-0.2,1.2-0.6V82.7z"/>
	<path class="st2" d="M85.4,77.4v1.8h-2v-1.8H85.4z M85.4,80.7v8.7h-2v-8.7H85.4z"/>
	<path class="st2" d="M93.8,83.8v2.6c0,2-1.1,3.2-3.2,3.2c-2.2,0-3.2-1.2-3.2-3.2v-2.6c0-2.1,1.1-3.2,3.2-3.2
		C92.7,80.5,93.8,81.7,93.8,83.8z M89.4,86.8c0,0.6,0.4,1,1.2,1s1.2-0.4,1.2-1v-3.5c0-0.6-0.4-1-1.2-1c-0.7,0-1.2,0.4-1.2,1V86.8z"
		/>
	<path class="st2" d="M96.8,80.7l1.3,5.6h0l1.3-5.6l0,0h2l-2.4,8.7h-2l-2.4-8.7H96.8z"/>
	<path class="st2" d="M108.6,83.1v5.6c0,0.1,0,0.3,0.1,0.7h-2l-0.1-0.8c-0.6,0.6-1.4,1-2.4,1c-1.2,0-2-0.7-2-2.1
		c0-2.1,2.1-2.9,4.4-3.6v-0.6c0-0.7-0.4-1-1-1c-0.6,0-1.1,0.4-1.1,1.1h-2c0.1-1.8,1.5-2.7,3.2-2.7C107.6,80.5,108.6,81.5,108.6,83.1
		z M105.1,88.1c0.6,0,1-0.3,1.5-0.8v-2.1c-0.9,0.3-2.4,1-2.4,2C104.2,87.8,104.6,88.1,105.1,88.1z"/>
	<path class="st2" d="M116.1,82.7l-1.7,0.6c-0.3-0.8-0.8-1.2-1.4-1.2c-0.5,0-0.8,0.3-0.8,0.8c0,0.5,0.5,0.8,1.6,1.3
		c1.5,0.7,2.4,1.4,2.4,2.7c0,1.7-1.2,2.6-2.9,2.6c-1.8,0-2.5-0.9-3.3-2.5l1.8-0.5c0.2,0.8,0.7,1.3,1.5,1.3c0.6,0,1-0.3,1-0.8
		c0-0.7-0.7-1.1-1.7-1.5c-1.1-0.5-2.2-1.1-2.2-2.7c0-1.6,1.2-2.4,2.8-2.4C114.5,80.5,115.6,81.3,116.1,82.7z"/>
	<path class="st2" d="M124,83.7h-2v-0.4c0-0.6-0.4-1-1.2-1c-0.8,0-1.2,0.4-1.2,1v3.5c0,0.6,0.4,1,1.2,1c0.7,0,1.2-0.4,1.2-1v-0.6h2
		c0,2.2-1.1,3.3-3.2,3.3c-2.2,0-3.2-1.2-3.2-3.2v-2.6c0-2,1-3.2,3.2-3.2C122.8,80.5,123.9,81.6,124,83.7z"/>
	<path class="st2" d="M127.8,80.7v6.4c0,0.5,0.2,0.9,0.7,0.9c0.4,0,0.8-0.4,1.3-0.8v-6.6h2v8.7h-2v-1c-0.9,0.8-1.6,1.2-2.3,1.2
		c-1.3,0-1.9-0.8-1.9-2.2v-6.7H127.8z"/>
	<path class="st2" d="M136,77.9v11.6h-2V77.9H136z"/>
	<path class="st2" d="M144.2,83.1v5.6c0,0.1,0,0.3,0.1,0.7h-2l-0.1-0.8c-0.6,0.6-1.4,1-2.4,1c-1.2,0-2-0.7-2-2.1
		c0-2.1,2.1-2.9,4.4-3.6v-0.6c0-0.7-0.4-1-1-1c-0.6,0-1.1,0.4-1.1,1.1h-2c0.1-1.8,1.5-2.7,3.2-2.7C143.2,80.5,144.2,81.5,144.2,83.1
		z M140.7,88.1c0.6,0,1-0.3,1.5-0.8v-2.1c-0.9,0.3-2.4,1-2.4,2C139.8,87.8,140.1,88.1,140.7,88.1z"/>
	<path class="st2" d="M150.3,82.7c-0.3-0.1-0.7-0.2-1.1-0.2c-0.6,0-1,0.4-1,1v6h-2v-8.7h2v1.2h0c0.5-0.8,1.1-1.3,2.1-1.3V82.7z"/>
	<path class="st2" d="M161.5,82.7l-1.7,0.6c-0.3-0.8-0.8-1.2-1.4-1.2c-0.5,0-0.8,0.3-0.8,0.8c0,0.5,0.5,0.8,1.6,1.3
		c1.5,0.7,2.4,1.4,2.4,2.7c0,1.7-1.2,2.6-2.9,2.6c-1.8,0-2.5-0.9-3.3-2.5l1.8-0.5c0.2,0.8,0.7,1.3,1.5,1.3c0.6,0,1-0.3,1-0.8
		c0-0.7-0.7-1.1-1.7-1.5c-1.1-0.5-2.2-1.1-2.2-2.7c0-1.6,1.2-2.4,2.8-2.4C159.8,80.5,160.9,81.3,161.5,82.7z"/>
	<path class="st2" d="M169.1,83.1v5.6c0,0.1,0,0.3,0.1,0.7h-2l-0.1-0.8c-0.6,0.6-1.4,1-2.4,1c-1.2,0-2-0.7-2-2.1
		c0-2.1,2.1-2.9,4.4-3.6v-0.6c0-0.7-0.4-1-1-1c-0.6,0-1.1,0.4-1.1,1.1h-2c0.1-1.8,1.5-2.7,3.2-2.7C168.1,80.5,169.1,81.5,169.1,83.1
		z M165.5,88.1c0.6,0,1-0.3,1.5-0.8v-2.1c-0.9,0.3-2.4,1-2.4,2C164.6,87.8,165,88.1,165.5,88.1z"/>
	<path class="st2" d="M174.4,77.8v1.7H174c-0.7,0-0.8,0.3-0.8,0.9v0.8h1.2v1.6h-1.2v6.7h-2v-6.7h-0.9v-1.6h0.9v-0.5
		c0-1.8,0.3-2.9,2.3-2.9C173.8,77.7,174.1,77.7,174.4,77.8z"/>
	<path class="st2" d="M181.8,83.5v2.1h-4.4v1.2c0,0.7,0.4,1.2,1.2,1.2c0.7,0,1.2-0.4,1.2-1.2h2c-0.1,1.8-1.2,2.8-3.2,2.8
		c-1.9,0-3.2-1.2-3.2-3.1v-2.9c0-1.8,1.3-3,3.2-3C180.4,80.5,181.8,81.7,181.8,83.5z M179.7,83.9v-0.5c0-0.7-0.4-1.2-1.2-1.2
		c-0.8,0-1.2,0.5-1.2,1.2v0.6H179.7z"/>
	<path class="st2" d="M185.5,78.7v2.4h1.3v1.6h-1.3v4.4c0,0.4,0.3,0.6,1,0.6c0.1,0,0.2,0,0.3,0v1.7c-0.4,0.1-0.8,0.1-1.1,0.1
		c-1.6,0-2.2-0.7-2.2-1.7v-5.2h-0.8v-1.6h0.8v-2.4H185.5z"/>
	<path class="st2" d="M189.2,80.7l1.4,5.8h0l1.3-5.8h2l-2.3,8.7c-0.5,2-1.2,3.1-3.4,3.1c-0.3,0-0.4,0-0.6,0v-1.8c0.1,0,0.3,0,0.5,0
		c1.2,0,1.6-0.9,1.6-1.2c0-0.6-0.2-1.3-0.4-1.8l-2-7H189.2z"/>
	<path class="st2" d="M205.8,83.9v2.2c0,2.2-0.7,3.4-2.2,3.4c-0.6,0-1.3-0.4-2-1v3.9h-2V80.7h1.9v1.1h0c0.4-0.7,1.4-1.2,2.2-1.2
		C205.1,80.5,205.8,81.7,205.8,83.9z M201.5,87.4c0.4,0.4,0.8,0.6,1.2,0.6c0.7,0,1-0.8,1-2v-2c0-1.3-0.2-2-1-2
		c-0.4,0-0.8,0.2-1.2,0.6V87.4z"/>
	<path class="st2" d="M211.6,82.7c-0.3-0.1-0.7-0.2-1.1-0.2c-0.6,0-1,0.4-1,1v6h-2v-8.7h2v1.2h0c0.5-0.8,1.1-1.3,2.1-1.3V82.7z"/>
	<path class="st2" d="M219.1,83.8v2.6c0,2-1.1,3.2-3.2,3.2c-2.2,0-3.2-1.2-3.2-3.2v-2.6c0-2.1,1.1-3.2,3.2-3.2
		C218,80.5,219.1,81.7,219.1,83.8z M214.7,86.8c0,0.6,0.4,1,1.2,1s1.2-0.4,1.2-1v-3.5c0-0.6-0.4-1-1.2-1c-0.7,0-1.2,0.4-1.2,1V86.8z
		"/>
	<path class="st2" d="M224.2,77.8v1.7h-0.5c-0.5,0-0.8,0.2-0.8,0.8v0.9h1.2v1.6h-1.2v6.7h-2v-6.7H220v-1.6h0.9v-0.6
		c0-1.7,0.3-2.8,2.3-2.8C223.5,77.7,223.8,77.7,224.2,77.8z M227.1,77.8v1.8h-2v-1.8H227.1z M227.1,81.1v8.3h-2v-8.3H227.1z"/>
	<path class="st2" d="M231.1,77.9v11.6h-2V77.9H231.1z"/>
	<path class="st2" d="M239.5,83.5v2.1h-4.4v1.2c0,0.7,0.4,1.2,1.2,1.2c0.7,0,1.2-0.4,1.2-1.2h2c-0.1,1.8-1.2,2.8-3.2,2.8
		c-1.9,0-3.2-1.2-3.2-3.1v-2.9c0-1.8,1.3-3,3.2-3C238.2,80.5,239.5,81.7,239.5,83.5z M237.5,83.9v-0.5c0-0.7-0.4-1.2-1.2-1.2
		c-0.8,0-1.2,0.5-1.2,1.2v0.6H237.5z"/>
</g>
<g class="st1">
	<path class="st2" d="M64.7,101.8v2.6c0,2-1.1,3.2-3.2,3.2c-2.2,0-3.2-1.2-3.2-3.2v-2.6c0-2.1,1.1-3.2,3.2-3.2
		C63.6,98.5,64.7,99.7,64.7,101.8z M60.3,104.8c0,0.6,0.4,1,1.2,1s1.2-0.4,1.2-1v-3.5c0-0.6-0.4-1-1.2-1c-0.7,0-1.2,0.4-1.2,1V104.8
		z"/>
	<path class="st2" d="M69.8,95.8v1.7h-0.5c-0.7,0-0.8,0.3-0.8,0.9v0.8h1.2v1.6h-1.2v6.7h-2v-6.7h-0.9v-1.6h0.9v-0.5
		c0-1.8,0.3-2.9,2.3-2.9C69.1,95.7,69.4,95.7,69.8,95.8z"/>
	<path class="st2" d="M81.4,95.9v2h-3.8v2.7h2.9v2h-2.9v3h4v2h-6.2V95.9H81.4z"/>
	<path class="st2" d="M84.8,95.9l2,8.3h0l2-8.3H91l-2.9,11.6h-2.5l-3-11.6H84.8z"/>
	<path class="st2" d="M95.5,95.9c2.3,0,3.9,1.1,3.9,3.5c0,1.4-0.5,2.5-1.7,2.9l2.2,5.2h-2.4l-1.9-4.7h-1.1v4.7h-2.2V95.9H95.5z
		 M95.6,100.9c1,0,1.5-0.5,1.5-1.6c0-1-0.5-1.6-1.5-1.6h-1.2v3.2H95.6z"/>
	<path class="st2" d="M107.2,95.9v2h-3.8v2.7h2.9v2h-2.9v3h4v2h-6.2V95.9H107.2z"/>
	<path class="st2" d="M111.7,95.9l3.1,6.9h0v-6.9h2v11.6h-2.1l-3.4-7.5h0v7.5h-2V95.9H111.7z"/>
	<path class="st2" d="M125.3,95.9v1.9l-4.4,7.7h4.5v2h-6.9v-1.9l4.4-7.7h-3.9v-2H125.3z"/>
	<path class="st2" d="M133.1,96.7c0.6,0.7,0.9,1.6,0.9,2.8v4.3c0,2.4-1.2,3.8-3.6,3.8c-2.5,0-3.6-1.4-3.6-3.8v-4.3
		c0-2.4,1.2-3.8,3.6-3.8C131.6,95.7,132.5,96,133.1,96.7z M128.9,104.1c0,1,0.4,1.6,1.4,1.6c1.1,0,1.4-0.6,1.4-1.6v-4.8
		c0-1-0.4-1.6-1.5-1.6c-1,0-1.4,0.6-1.4,1.6V104.1z"/>
	<path class="st2" d="M140.8,95.9v1.3h-1.8v5.2h-1.8v-5.2h-1.8v-1.3H140.8z M144.3,95.9l1.5,4l1.5-4h2.4v6.6H148V98h0l-1.6,4.5h-1.3
		l-1.6-4.5h0v4.5h-1.7v-6.6H144.3z"/>
	<path class="st2" d="M167.4,95.4v1.8h-2v-1.8H167.4z M167.4,98.7v8.7h-2v-8.7H167.4z"/>
	<path class="st2" d="M175.6,100.7v6.7h-2V101c0-0.5-0.2-0.9-0.7-0.9c-0.4,0-0.8,0.4-1.3,0.8v6.6h-2v-8.7h2v1
		c0.9-0.8,1.6-1.2,2.3-1.2C175.1,98.5,175.6,99.3,175.6,100.7z"/>
	<path class="st2" d="M188.3,101.9v2.2c0,2.2-0.7,3.4-2.2,3.4c-0.6,0-1.3-0.4-2-1v3.9h-2V98.7h1.9v1.1h0c0.4-0.7,1.4-1.2,2.2-1.2
		C187.6,98.5,188.3,99.7,188.3,101.9z M184,105.4c0.4,0.4,0.8,0.6,1.2,0.6c0.7,0,1-0.8,1-2v-2c0-1.3-0.2-2-1-2
		c-0.4,0-0.8,0.2-1.2,0.6V105.4z"/>
	<path class="st2" d="M196,101.1v5.6c0,0.1,0,0.3,0.1,0.7h-2l-0.1-0.8c-0.6,0.6-1.4,1-2.4,1c-1.2,0-2-0.7-2-2.1
		c0-2.1,2.1-2.9,4.4-3.6v-0.6c0-0.7-0.4-1-1-1c-0.6,0-1.1,0.4-1.1,1.1h-2c0.1-1.8,1.5-2.7,3.2-2.7C195,98.5,196,99.5,196,101.1z
		 M192.5,106.1c0.6,0,1-0.3,1.5-0.8v-2.1c-0.9,0.3-2.4,1-2.4,2C191.6,105.8,191.9,106.1,192.5,106.1z"/>
	<path class="st2" d="M200,96.7v2.4h1.3v1.6H200v4.4c0,0.4,0.3,0.6,1,0.6c0.1,0,0.2,0,0.3,0v1.7c-0.4,0.1-0.8,0.1-1.1,0.1
		c-1.6,0-2.2-0.7-2.2-1.7v-5.2h-0.8v-1.6h0.8v-2.4H200z"/>
	<path class="st2" d="M204.7,95.4v1.8h-2v-1.8H204.7z M204.7,98.7v8.7h-2v-8.7H204.7z"/>
	<path class="st2" d="M213.2,101.5v2.1h-4.4v1.2c0,0.7,0.4,1.2,1.2,1.2c0.7,0,1.2-0.4,1.2-1.2h2c-0.1,1.8-1.2,2.8-3.2,2.8
		c-1.9,0-3.2-1.2-3.2-3.1v-2.9c0-1.8,1.3-3,3.2-3C211.8,98.5,213.2,99.7,213.2,101.5z M211.1,101.9v-0.5c0-0.7-0.4-1.2-1.2-1.2
		c-0.8,0-1.2,0.5-1.2,1.2v0.6H211.1z"/>
	<path class="st2" d="M221,100.7v6.7h-2V101c0-0.5-0.2-0.9-0.7-0.9c-0.4,0-0.8,0.4-1.3,0.8v6.6h-2v-8.7h2v1c0.9-0.8,1.6-1.2,2.3-1.2
		C220.5,98.5,221,99.3,221,100.7z"/>
	<path class="st2" d="M224.9,96.7v2.4h1.3v1.6h-1.3v4.4c0,0.4,0.3,0.6,1,0.6c0.1,0,0.2,0,0.3,0v1.7c-0.4,0.1-0.8,0.1-1.1,0.1
		c-1.6,0-2.2-0.7-2.2-1.7v-5.2H222v-1.6h0.8v-2.4H224.9z"/>
	<path class="st2" d="M232.9,100.7l-1.7,0.6c-0.3-0.8-0.8-1.2-1.4-1.2c-0.5,0-0.8,0.3-0.8,0.8c0,0.5,0.5,0.8,1.6,1.3
		c1.5,0.7,2.4,1.4,2.4,2.7c0,1.7-1.2,2.6-2.9,2.6c-1.8,0-2.5-0.9-3.3-2.5l1.8-0.5c0.2,0.8,0.7,1.3,1.5,1.3c0.6,0,1-0.3,1-0.8
		c0-0.7-0.7-1.1-1.7-1.5c-1.1-0.5-2.2-1.1-2.2-2.7c0-1.6,1.2-2.4,2.8-2.4C231.2,98.5,232.3,99.3,232.9,100.7z"/>
</g>
<g class="st1">
	<path class="st2" d="M84.6,116.7l1.2,5.4h0l1.2-5.4h1.7l1.2,5.4h0l1.1-5.4H93l-2,8.7H89l-1.2-5.4h0l-1.1,5.4h-1.9l-2.1-8.7H84.6z"
		/>
	<path class="st2" d="M96.4,113.4v1.8h-2v-1.8H96.4z M96.4,116.7v8.7h-2v-8.7H96.4z"/>
	<path class="st2" d="M100.5,114.7v2.4h1.3v1.6h-1.3v4.4c0,0.4,0.3,0.6,1,0.6c0.1,0,0.2,0,0.3,0v1.7c-0.4,0.1-0.8,0.1-1.1,0.1
		c-1.6,0-2.2-0.7-2.2-1.7v-5.2h-0.8v-1.6h0.8v-2.4H100.5z"/>
	<path class="st2" d="M105.1,113.9v3.8c0.8-0.8,1.5-1.2,2.2-1.2c1.3,0,1.9,0.8,1.9,2.2v6.7h-2V119c0-0.5-0.2-0.9-0.7-0.9
		c-0.5,0-0.9,0.4-1.3,0.8v6.6h-2v-11.6H105.1z"/>
	<path class="st2" d="M121.5,119.1v5.6c0,0.1,0,0.3,0.1,0.7h-2l-0.1-0.8c-0.6,0.6-1.4,1-2.4,1c-1.2,0-2-0.7-2-2.1
		c0-2.1,2.1-2.9,4.4-3.6v-0.6c0-0.7-0.4-1-1-1c-0.6,0-1.1,0.4-1.1,1.1h-2c0.1-1.8,1.5-2.7,3.2-2.7
		C120.5,116.5,121.5,117.5,121.5,119.1z M118,124.1c0.6,0,1-0.3,1.5-0.8v-2.1c-0.9,0.3-2.4,1-2.4,2
		C117.1,123.8,117.4,124.1,118,124.1z"/>
	<path class="st2" d="M129.6,118.7v6.7h-2V119c0-0.5-0.2-0.9-0.7-0.9c-0.4,0-0.8,0.4-1.3,0.8v6.6h-2v-8.7h2v1
		c0.9-0.8,1.6-1.2,2.3-1.2C129,116.5,129.6,117.3,129.6,118.7z"/>
	<path class="st2" d="M137.5,119.1v5.6c0,0.1,0,0.3,0.1,0.7h-2l-0.1-0.8c-0.6,0.6-1.4,1-2.4,1c-1.2,0-2-0.7-2-2.1
		c0-2.1,2.1-2.9,4.4-3.6v-0.6c0-0.7-0.4-1-1-1c-0.6,0-1.1,0.4-1.1,1.1h-2c0.1-1.8,1.5-2.7,3.2-2.7
		C136.5,116.5,137.5,117.5,137.5,119.1z M134,124.1c0.6,0,1-0.3,1.5-0.8v-2.1c-0.9,0.3-2.4,1-2.4,2
		C133.1,123.8,133.4,124.1,134,124.1z"/>
	<path class="st2" d="M145.7,119.5v2.1h-4.4v1.2c0,0.7,0.4,1.2,1.2,1.2c0.7,0,1.2-0.4,1.2-1.2h2c-0.1,1.8-1.2,2.8-3.2,2.8
		c-1.9,0-3.2-1.2-3.2-3.1v-2.9c0-1.8,1.3-3,3.2-3C144.4,116.5,145.7,117.7,145.7,119.5z M143.7,119.9v-0.5c0-0.7-0.4-1.2-1.2-1.2
		c-0.8,0-1.2,0.5-1.2,1.2v0.6H143.7z"/>
	<path class="st2" d="M153.1,117.9c0.7-0.7,1.2-1.3,2.1-1.3c1.2,0,1.8,0.8,1.8,2.2v6.6h-2v-6.7c0-0.5-0.2-0.7-0.5-0.7
		c-0.4,0-1.1,0.5-1.3,0.8v6.6h-2v-6.7c0-0.5-0.2-0.7-0.5-0.7c-0.4,0-0.9,0.4-1.2,0.8v6.6h-2v-8.7h2v1c0.7-0.6,1.3-1.2,2.2-1.2
		C152.4,116.5,152.9,117.1,153.1,117.9z"/>
	<path class="st2" d="M161.3,113.4v1.8h-2v-1.8H161.3z M161.3,116.7v8.7h-2v-8.7H161.3z"/>
	<path class="st2" d="M169.5,119.1v5.6c0,0.1,0,0.3,0.1,0.7h-2l-0.1-0.8c-0.6,0.6-1.4,1-2.4,1c-1.2,0-2-0.7-2-2.1
		c0-2.1,2.1-2.9,4.4-3.6v-0.6c0-0.7-0.4-1-1-1c-0.6,0-1.1,0.4-1.1,1.1h-2c0.1-1.8,1.5-2.7,3.2-2.7
		C168.5,116.5,169.5,117.5,169.5,119.1z M166,124.1c0.6,0,1-0.3,1.5-0.8v-2.1c-0.9,0.3-2.4,1-2.4,2
		C165.1,123.8,165.4,124.1,166,124.1z"/>
	<path class="st2" d="M182.2,119.8v2.6c0,2-1.1,3.2-3.2,3.2c-2.2,0-3.2-1.2-3.2-3.2v-2.6c0-2.1,1.1-3.2,3.2-3.2
		C181.1,116.5,182.2,117.7,182.2,119.8z M177.8,122.8c0,0.6,0.4,1,1.2,1s1.2-0.4,1.2-1v-3.5c0-0.6-0.4-1-1.2-1c-0.7,0-1.2,0.4-1.2,1
		V122.8z"/>
	<path class="st2" d="M187.3,113.8v1.7h-0.5c-0.7,0-0.8,0.3-0.8,0.9v0.8h1.2v1.6H186v6.7h-2v-6.7h-0.9v-1.6h0.9v-0.5
		c0-1.8,0.3-2.9,2.3-2.9C186.6,113.7,186.9,113.7,187.3,113.8z"/>
	<path class="st2" d="M200,117.6h-2.2v-0.3c0-0.9-0.2-1.7-1.4-1.7c-1.1,0-1.4,0.6-1.4,1.6v4.8c0,1,0.4,1.6,1.4,1.6
		c1.3,0,1.4-0.8,1.4-1.8v-0.6h2.2v0.5c0,2.4-1.1,3.8-3.6,3.8c-2.5,0-3.6-1.4-3.6-3.8v-4.3c0-2.4,1.2-3.8,3.6-3.8
		C198.8,113.7,200,115,200,117.6z"/>
	<path class="st2" d="M204,113.9v4.8h0l2.9-4.8h2.4l-3,4.7l3.3,6.9h-2.5l-2.3-4.8l-0.9,1.3v3.5h-2.2v-11.6H204z"/>
	<path class="st2" d="M213.8,113.9c2.4,0,4,1.2,4,4.1v3.3c0,2.4-1,4.1-4,4.1h-3.2v-11.6H213.8z M212.9,123.5h0.7c1.6,0,2-0.8,2-2.2
		V118c0-1.5-0.5-2.2-1.9-2.2h-0.8V123.5z"/>
</g>
<g class="st1">
	<path class="st2" d="M221.9,113.2v6.8h-1.2v-5.2h-1v-0.7c0.6-0.1,1-0.2,1.5-0.9H221.9z"/>
</g>
<g class="st1">
	<path class="st2" d="M14.1,177.1v5.1H15v0.8h-2.8v-0.8h0.9v-4h-1v-0.7c0.5,0,1-0.1,1.3-0.4H14.1z"/>
	<path class="st2" d="M17.7,181.9v1.1h-1.1v-1.1H17.7z"/>
</g>
<g class="st1">
	<path class="st2" d="M23.7,177.2c1,0,1.7,0.5,1.7,1.4c0,0.7-0.3,1.1-1,1.3l0,0c0.7,0.2,1.1,0.8,1.1,1.5c0,1-0.7,1.6-2.1,1.6h-1.8
		v-5.8H23.7z M23.4,179.7c0.7,0,1.4-0.3,1.4-1c0-0.7-0.4-0.9-1.1-0.9h-1.4v1.9H23.4z M23.5,182.5c0.9,0,1.4-0.3,1.4-1
		c0-0.8-0.7-1.2-1.5-1.2h-1.1v2.2H23.5z"/>
	<path class="st2" d="M29.6,180v2.2c0,0.2,0,0.5,0.1,0.8h-0.6l-0.1-0.6c-0.4,0.4-0.9,0.7-1.4,0.7c-0.7,0-1.2-0.5-1.2-1.2
		c0-1.2,1.4-1.5,2.5-1.7V180c0-0.6-0.4-0.8-0.9-0.8c-0.5,0-0.9,0.3-1.1,0.6l-0.5-0.3c0.3-0.6,0.9-0.9,1.6-0.9
		C28.9,178.8,29.6,179.2,29.6,180z M27.7,182.6c0.4,0,1-0.3,1.3-0.7v-1.1c-0.7,0.1-2,0.4-2,1.2C27,182.3,27.4,182.6,27.7,182.6z"/>
	<path class="st2" d="M32.6,179.4c-0.8,0-1.1,0.5-1.4,1.3v2.3h-0.6v-4.2h0.6v0.8h0c0.3-0.6,0.7-0.9,1.3-0.9h0V179.4z"/>
	<path class="st2" d="M35.3,179.4c-0.8,0-1.1,0.5-1.4,1.3v2.3h-0.6v-4.2h0.6v0.8h0c0.3-0.6,0.7-0.9,1.3-0.9h0V179.4z"/>
	<path class="st2" d="M38.9,180v2.2c0,0.2,0,0.5,0.1,0.8h-0.6l-0.1-0.6c-0.4,0.4-0.9,0.7-1.4,0.7c-0.7,0-1.2-0.5-1.2-1.2
		c0-1.2,1.4-1.5,2.5-1.7V180c0-0.6-0.4-0.8-0.9-0.8c-0.5,0-0.9,0.3-1.1,0.6l-0.5-0.3c0.3-0.6,0.9-0.9,1.6-0.9
		C38.2,178.8,38.9,179.2,38.9,180z M37,182.6c0.4,0,1-0.3,1.3-0.7v-1.1c-0.7,0.1-2,0.4-2,1.2C36.3,182.3,36.7,182.6,37,182.6z"/>
	<path class="st2" d="M40.8,177.5v1.4h1v0.5h-1v3c0,0.2,0.1,0.3,0.5,0.3c0.2,0,0.3,0,0.5,0v0.5c-0.1,0-0.3,0.1-0.7,0.1
		c-0.6,0-0.9-0.1-0.9-0.7v-3.1h-0.7v-0.5h0.7v-1.4H40.8z"/>
	<path class="st2" d="M43.5,177.5v1.4h1v0.5h-1v3c0,0.2,0.1,0.3,0.5,0.3c0.2,0,0.3,0,0.5,0v0.5c-0.1,0-0.3,0.1-0.7,0.1
		c-0.6,0-0.9-0.1-0.9-0.7v-3.1h-0.7v-0.5h0.7v-1.4H43.5z"/>
	<path class="st2" d="M50,177.2v4.3c0,1-0.4,1.5-1.3,1.5c-0.6,0-1-0.2-1.4-0.7l0.5-0.3c0.2,0.3,0.5,0.5,0.9,0.5
		c0.5,0,0.7-0.3,0.7-0.8v-4.5H50z"/>
	<path class="st2" d="M56.8,180.6v0.4h-2.7c0,1,0.6,1.6,1.2,1.6c0.5,0,0.9-0.3,1.1-0.7l0.4,0.2c-0.4,0.7-0.9,1-1.6,1
		c-1.1,0-1.8-0.8-1.8-2.2c0-1.5,0.8-2.2,1.7-2.2C56.1,178.8,56.8,179.4,56.8,180.6z M56.2,180.5c0-0.8-0.4-1.3-1-1.3
		c-0.6,0-1,0.4-1.1,1.3H56.2z"/>
	<path class="st2" d="M58.6,177.5v1.4h1v0.5h-1v3c0,0.2,0.1,0.3,0.5,0.3c0.2,0,0.3,0,0.5,0v0.5c-0.1,0-0.3,0.1-0.7,0.1
		c-0.6,0-0.9-0.1-0.9-0.7v-3.1h-0.7v-0.5H58v-1.4H58.6z"/>
	<path class="st2" d="M65.7,180v2.2c0,0.2,0,0.5,0.1,0.8h-0.6l-0.1-0.6c-0.4,0.4-0.9,0.7-1.4,0.7c-0.7,0-1.2-0.5-1.2-1.2
		c0-1.2,1.4-1.5,2.5-1.7V180c0-0.6-0.4-0.8-0.9-0.8c-0.5,0-0.9,0.3-1.1,0.6l-0.5-0.3c0.3-0.6,0.9-0.9,1.6-0.9
		C65.1,178.8,65.7,179.2,65.7,180z M63.9,182.6c0.4,0,1-0.3,1.3-0.7v-1.1c-0.7,0.1-2,0.4-2,1.2C63.2,182.3,63.6,182.6,63.9,182.6z"
		/>
	<path class="st2" d="M67.7,177.2v5.8h-0.6v-5.8H67.7z"/>
	<path class="st2" d="M70.1,182.1v0.9h-0.8v-0.9H70.1z"/>
	<path class="st2" d="M76.3,177.2l1.8,5.8h-0.7l-0.5-1.8h-2.1l-0.5,1.8h-0.7l1.8-5.8H76.3z M75,180.6h1.8l-0.8-3h-0.1L75,180.6z"/>
	<path class="st2" d="M79.6,177.2v2c0.4-0.3,0.7-0.5,1.1-0.5c0.8,0,1.7,0.6,1.7,2.2c0,1.5-0.8,2.2-1.7,2.2c-0.5,0-0.9-0.2-1.2-0.5
		l-0.1,0.4H79c0-0.1,0-0.3,0-0.4v-5.4H79.6z M79.6,182c0.4,0.4,0.7,0.6,1,0.6c0.9,0,1.2-0.8,1.2-1.6c0-1.1-0.4-1.7-1.2-1.7
		c-0.3,0-0.7,0.2-1,0.6V182z"/>
	<path class="st2" d="M85.9,179.5l-0.4,0.4c-0.3-0.4-0.6-0.6-1.1-0.6c-0.5,0-0.8,0.2-0.8,0.6c0,0.3,0.3,0.5,0.9,0.7
		c0.8,0.2,1.5,0.5,1.5,1.3c0,0.8-0.7,1.2-1.5,1.2c-0.6,0-1.3-0.3-1.7-0.8l0.5-0.3c0.3,0.4,0.7,0.6,1.2,0.6c0.5,0,0.9-0.2,0.9-0.7
		c0-0.4-0.3-0.6-0.9-0.7c-0.9-0.3-1.5-0.5-1.5-1.2c0-0.8,0.6-1.2,1.3-1.2C84.9,178.8,85.6,179,85.9,179.5z"/>
	<path class="st2" d="M87.7,177.5v1.4h1v0.5h-1v3c0,0.2,0.1,0.3,0.5,0.3c0.2,0,0.3,0,0.5,0v0.5c-0.1,0-0.3,0.1-0.7,0.1
		c-0.6,0-0.9-0.1-0.9-0.7v-3.1h-0.7v-0.5h0.7v-1.4H87.7z"/>
	<path class="st2" d="M91.5,179.4c-0.8,0-1.1,0.5-1.4,1.3v2.3h-0.6v-4.2h0.6v0.8h0c0.3-0.6,0.7-0.9,1.3-0.9h0V179.4z"/>
	<path class="st2" d="M95.1,180v2.2c0,0.2,0,0.5,0.1,0.8h-0.6l-0.1-0.6c-0.4,0.4-0.9,0.7-1.4,0.7c-0.7,0-1.2-0.5-1.2-1.2
		c0-1.2,1.4-1.5,2.5-1.7V180c0-0.6-0.4-0.8-0.9-0.8c-0.5,0-0.9,0.3-1.1,0.6l-0.5-0.3c0.3-0.6,0.9-0.9,1.6-0.9
		C94.4,178.8,95.1,179.2,95.1,180z M93.2,182.6c0.4,0,1-0.3,1.3-0.7v-1.1c-0.7,0.1-2,0.4-2,1.2C92.5,182.3,92.9,182.6,93.2,182.6z"
		/>
	<path class="st2" d="M99.2,179.9l-0.5,0.2c-0.2-0.5-0.5-0.8-1-0.8c-0.9,0-1.1,0.8-1.1,1.7c0,1.1,0.4,1.7,1.1,1.7
		c0.6,0,0.8-0.2,1.1-0.8l0.5,0.2c-0.4,0.7-0.8,1.1-1.6,1.1c-1.2,0-1.7-1-1.7-2.2s0.5-2.2,1.7-2.2C98.4,178.8,98.8,179.1,99.2,179.9z
		"/>
	<path class="st2" d="M101,177.5v1.4h1v0.5h-1v3c0,0.2,0.1,0.3,0.5,0.3c0.2,0,0.3,0,0.5,0v0.5c-0.1,0-0.3,0.1-0.7,0.1
		c-0.6,0-0.9-0.1-0.9-0.7v-3.1h-0.7v-0.5h0.7v-1.4H101z"/>
	<path class="st2" d="M108.5,179.9v3.1h-0.6v-3c0-0.4-0.2-0.7-0.7-0.7c-0.4,0-0.9,0.3-1.2,0.6v3.1h-0.6v-4.2h0.6v0.6h0
		c0.4-0.4,0.8-0.6,1.2-0.6C108,178.8,108.5,179.2,108.5,179.9z"/>
	<path class="st2" d="M112.9,180.9c0,1.1-0.5,2.2-1.7,2.2s-1.7-1-1.7-2.2c0-1.1,0.5-2.2,1.7-2.2S112.9,179.8,112.9,180.9z
		 M111.2,182.6c0.8,0,1.1-0.8,1.1-1.7s-0.3-1.7-1.1-1.7c-0.8,0-1.1,0.9-1.1,1.7C110,181.7,110.3,182.6,111.2,182.6z"/>
	<path class="st2" d="M114.8,182.1v0.9H114v-0.9H114.8z"/>
	<path class="st2" d="M122.3,178.7c0,0.6-0.2,1-0.6,1.4c-0.2,0.2-0.5,0.5-1,0.8c-0.7,0.5-1.2,0.9-1.5,1.6h3.1v0.5h-3.8v-0.6
		c0.3-0.7,0.9-1.3,1.5-1.7c0.3-0.2,0.6-0.4,0.9-0.6c0.5-0.4,0.8-0.8,0.8-1.4c0-0.7-0.4-1.1-1.2-1.1c-0.7,0-1.2,0.5-1.4,1.3l-0.6-0.1
		c0.3-1.1,0.9-1.6,1.9-1.6C121.6,177.1,122.3,177.7,122.3,178.7z"/>
	<path class="st2" d="M127,178.6c0,0.6-0.3,1.1-0.9,1.3c0.7,0.3,1.1,0.8,1.1,1.5c0,1.1-0.9,1.7-2,1.7c-0.9,0-1.6-0.4-2-1.1l0.5-0.3
		c0.4,0.6,1,1,1.6,1c0.7,0,1.4-0.4,1.4-1.1c0-0.9-0.6-1.3-1.6-1.3h-0.6v-0.5h0.4c0.8,0,1.6-0.2,1.6-1.1c0-0.6-0.5-1-1.1-1
		c-0.6,0-1,0.3-1.4,0.8l-0.5-0.3c0.5-0.7,1.1-1,1.9-1C126.3,177.1,127,177.6,127,178.6z"/>
	<path class="st2" d="M132.1,177.2v0.4l-2.4,5.4H129l2.4-5.3h-2.9v-0.5H132.1z"/>
	<path class="st2" d="M137.1,179.8c0,1.6-0.7,3.3-2.4,3.3c-0.5,0-1-0.1-1.2-0.3l0.2-0.5c0.3,0.2,0.6,0.3,1,0.3
		c1.2,0,1.7-1.2,1.8-2.4c-0.5,0.5-0.9,0.7-1.6,0.7c-0.8,0-1.7-0.5-1.7-1.9c0-1.2,0.8-1.9,1.9-1.9
		C136.4,177.1,137.1,178.1,137.1,179.8z M135,180.4c0.7,0,1.2-0.4,1.5-1.1c0-0.9-0.5-1.7-1.4-1.7c-0.7,0-1.3,0.5-1.3,1.3
		C133.8,179.9,134.4,180.4,135,180.4z"/>
	<path class="st2" d="M144.1,180.9c0,1.7-1.1,2.2-1.7,2.2c-0.4,0-0.8-0.2-1.1-0.5v1.9h-0.6v-5.7h0.6v0.5c0.2-0.3,0.7-0.6,1.1-0.6
		C143,178.8,144.1,179.1,144.1,180.9z M141.3,182c0.4,0.4,0.7,0.6,1.1,0.6c0.8,0,1.2-0.6,1.2-1.7c0-1-0.4-1.6-1.2-1.6
		c-0.4,0-0.8,0.3-1,0.6V182z"/>
	<path class="st2" d="M147,179.4c-0.8,0-1.1,0.5-1.4,1.3v2.3H145v-4.2h0.6v0.8h0c0.3-0.6,0.7-0.9,1.3-0.9h0V179.4z"/>
	<path class="st2" d="M150.7,180.6v0.4H148c0,1,0.6,1.6,1.2,1.6c0.5,0,0.9-0.3,1.1-0.7l0.4,0.2c-0.4,0.7-0.9,1-1.6,1
		c-1.1,0-1.8-0.8-1.8-2.2c0-1.5,0.8-2.2,1.7-2.2C150.1,178.8,150.7,179.4,150.7,180.6z M150.2,180.5c0-0.8-0.4-1.3-1-1.3
		c-0.6,0-1,0.4-1.1,1.3H150.2z"/>
	<path class="st2" d="M154.3,179.5l-0.4,0.4c-0.3-0.4-0.6-0.6-1.1-0.6c-0.5,0-0.8,0.2-0.8,0.6c0,0.3,0.3,0.5,0.9,0.7
		c0.8,0.2,1.5,0.5,1.5,1.3c0,0.8-0.7,1.2-1.5,1.2c-0.6,0-1.3-0.3-1.7-0.8l0.5-0.3c0.3,0.4,0.7,0.6,1.2,0.6c0.5,0,0.9-0.2,0.9-0.7
		c0-0.4-0.3-0.6-0.9-0.7c-0.9-0.3-1.5-0.5-1.5-1.2c0-0.8,0.6-1.2,1.3-1.2C153.3,178.8,154,179,154.3,179.5z"/>
	<path class="st2" d="M158.3,180.6v0.4h-2.7c0,1,0.6,1.6,1.2,1.6c0.5,0,0.9-0.3,1.1-0.7l0.4,0.2c-0.4,0.7-0.9,1-1.6,1
		c-1.1,0-1.8-0.8-1.8-2.2c0-1.5,0.8-2.2,1.7-2.2C157.6,178.8,158.3,179.4,158.3,180.6z M157.7,180.5c0-0.8-0.4-1.3-1-1.3
		c-0.6,0-1,0.4-1.1,1.3H157.7z"/>
	<path class="st2" d="M162.4,179.9v3.1h-0.6v-3c0-0.4-0.2-0.7-0.7-0.7c-0.4,0-0.9,0.3-1.2,0.6v3.1h-0.6v-4.2h0.6v0.6h0
		c0.4-0.4,0.8-0.6,1.2-0.6C162,178.8,162.4,179.2,162.4,179.9z"/>
	<path class="st2" d="M164.5,177.5v1.4h1v0.5h-1v3c0,0.2,0.1,0.3,0.5,0.3c0.2,0,0.3,0,0.5,0v0.5c-0.1,0-0.3,0.1-0.7,0.1
		c-0.6,0-0.9-0.1-0.9-0.7v-3.1h-0.7v-0.5h0.7v-1.4H164.5z"/>
	<path class="st2" d="M169.4,180.6v0.4h-2.7c0,1,0.6,1.6,1.2,1.6c0.5,0,0.9-0.3,1.1-0.7l0.4,0.2c-0.4,0.7-0.9,1-1.6,1
		c-1.1,0-1.8-0.8-1.8-2.2c0-1.5,0.8-2.2,1.7-2.2C168.7,178.8,169.4,179.4,169.4,180.6z M168.8,180.5c0-0.8-0.4-1.3-1-1.3
		c-0.6,0-1,0.4-1.1,1.3H168.8z"/>
	<path class="st2" d="M173.6,177.2v5.4c0,0.1,0,0.3,0,0.4h-0.5l-0.1-0.4c-0.2,0.3-0.6,0.5-1.1,0.5c-0.9,0-1.7-0.7-1.7-2.2
		c0-1.5,0.9-2.2,1.7-2.2c0.4,0,0.8,0.2,1.1,0.5v-2H173.6z M171.9,182.6c0.4,0,0.7-0.2,1-0.6v-2.2c-0.3-0.3-0.7-0.6-1.1-0.6
		c-0.8,0-1.2,0.6-1.2,1.7C170.8,181.8,171.1,182.6,171.9,182.6z"/>
	<path class="st2" d="M180.2,180v2.2c0,0.2,0,0.5,0.1,0.8h-0.6l-0.1-0.6c-0.4,0.4-0.9,0.7-1.4,0.7c-0.7,0-1.2-0.5-1.2-1.2
		c0-1.2,1.4-1.5,2.5-1.7V180c0-0.6-0.4-0.8-0.9-0.8c-0.5,0-0.9,0.3-1.1,0.6l-0.5-0.3c0.3-0.6,0.9-0.9,1.6-0.9
		C179.5,178.8,180.2,179.2,180.2,180z M178.3,182.6c0.4,0,1-0.3,1.3-0.7v-1.1c-0.7,0.1-2,0.4-2,1.2
		C177.6,182.3,178,182.6,178.3,182.6z"/>
	<path class="st2" d="M182.1,177.5v1.4h1v0.5h-1v3c0,0.2,0.1,0.3,0.5,0.3c0.2,0,0.3,0,0.5,0v0.5c-0.1,0-0.3,0.1-0.7,0.1
		c-0.6,0-0.9-0.1-0.9-0.7v-3.1h-0.7v-0.5h0.7v-1.4H182.1z"/>
	<path class="st2" d="M187.2,177.5v1.4h1v0.5h-1v3c0,0.2,0.1,0.3,0.5,0.3c0.2,0,0.3,0,0.5,0v0.5c-0.1,0-0.3,0.1-0.7,0.1
		c-0.6,0-0.9-0.1-0.9-0.7v-3.1H186v-0.5h0.7v-1.4H187.2z"/>
	<path class="st2" d="M189.8,177.2v2.2h0c0.4-0.4,0.8-0.6,1.2-0.6c0.8,0,1.2,0.5,1.2,1.2v3.1h-0.6v-3c0-0.4-0.2-0.7-0.7-0.7
		c-0.4,0-0.9,0.3-1.2,0.6v3.1h-0.6v-5.8H189.8z"/>
	<path class="st2" d="M196.5,180.6v0.4h-2.7c0,1,0.6,1.6,1.2,1.6c0.5,0,0.9-0.3,1.1-0.7l0.4,0.2c-0.4,0.7-0.9,1-1.6,1
		c-1.1,0-1.8-0.8-1.8-2.2c0-1.5,0.8-2.2,1.7-2.2C195.8,178.8,196.5,179.4,196.5,180.6z M195.9,180.5c0-0.8-0.4-1.3-1-1.3
		c-0.6,0-1,0.4-1.1,1.3H195.9z"/>
</g>
<g class="st1">
	<path class="st2" d="M15,185.2v0.5h-2.5l-0.1,1.8c0.4-0.3,0.8-0.5,1.2-0.5c1,0,1.8,0.7,1.8,1.9c0,0.9-0.6,2-2,2
		c-0.8,0-1.3-0.3-1.8-1.1l0.5-0.3c0.3,0.6,0.8,0.9,1.3,0.9c0.9,0,1.4-0.6,1.4-1.5c0-0.8-0.5-1.5-1.3-1.5c-0.6,0-1,0.3-1.2,0.9
		l-0.5-0.1l0.3-3.1H15z"/>
	<path class="st2" d="M20.3,187.8c0,1.6-0.7,3.3-2.4,3.3c-0.5,0-1-0.1-1.2-0.3l0.2-0.5c0.3,0.2,0.6,0.3,1,0.3c1.2,0,1.7-1.2,1.8-2.4
		c-0.5,0.5-0.9,0.7-1.6,0.7c-0.8,0-1.7-0.5-1.7-1.9c0-1.2,0.8-1.9,1.9-1.9C19.6,185.1,20.3,186.1,20.3,187.8z M18.2,188.4
		c0.7,0,1.2-0.4,1.5-1.1c0-0.9-0.5-1.7-1.4-1.7c-0.7,0-1.3,0.5-1.3,1.3C17,187.9,17.6,188.4,18.2,188.4z"/>
	<path class="st2" d="M22.2,185.5v1.4h1v0.5h-1v3c0,0.2,0.1,0.3,0.5,0.3c0.2,0,0.3,0,0.5,0v0.5c-0.1,0-0.3,0.1-0.7,0.1
		c-0.6,0-0.9-0.1-0.9-0.7v-3.1h-0.7v-0.5h0.7v-1.4H22.2z"/>
	<path class="st2" d="M24.7,185.2v2.2h0c0.4-0.4,0.8-0.6,1.2-0.6c0.8,0,1.2,0.5,1.2,1.2v3.1h-0.6v-3c0-0.4-0.2-0.7-0.7-0.7
		c-0.4,0-0.9,0.3-1.2,0.6v3.1h-0.6v-5.8H24.7z"/>
	<path class="st2" d="M34.7,185.2v0.5h-2.8v1.9h2v0.5h-2v2.2h3v0.5h-3.6v-5.8H34.7z"/>
	<path class="st2" d="M37.9,185.2c1.1,0,1.9,0.5,1.9,1.5c0,0.7-0.4,1.2-1.2,1.5l1.2,2.8h-0.7l-1.2-2.6h-1.4v2.6H36v-5.8H37.9z
		 M37.8,187.8c0.8,0,1.3-0.3,1.3-1.1c0-0.7-0.4-1-1.3-1h-1.2v2.1H37.8z"/>
	<path class="st2" d="M43.5,185.2l1.8,5.8h-0.7l-0.5-1.8H42l-0.5,1.8h-0.7l1.8-5.8H43.5z M42.1,188.6h1.8l-0.8-3H43L42.1,188.6z"/>
	<path class="st2" d="M52.4,186.8l-0.6,0.2c-0.2-0.8-0.6-1.3-1.4-1.3c-1.1,0-1.5,1.2-1.5,2.4c0,1.6,0.6,2.4,1.6,2.4
		c0.7,0,1.2-0.4,1.4-1.4l0.6,0.1c-0.3,1.2-1,1.8-2,1.8c-1.6,0-2.2-1.4-2.2-3c0-1.6,0.6-3,2.2-3C51.4,185.1,52.1,185.7,52.4,186.8z"
		/>
	<path class="st2" d="M56.5,188.9c0,1.1-0.5,2.2-1.7,2.2s-1.7-1-1.7-2.2c0-1.1,0.5-2.2,1.7-2.2S56.5,187.8,56.5,188.9z M54.8,190.6
		c0.8,0,1.1-0.8,1.1-1.7s-0.3-1.7-1.1-1.7c-0.8,0-1.1,0.9-1.1,1.7C53.6,189.7,53.9,190.6,54.8,190.6z"/>
	<path class="st2" d="M60.5,187.9v3.1h-0.6v-3c0-0.4-0.2-0.7-0.7-0.7c-0.4,0-0.9,0.3-1.2,0.6v3.1h-0.6v-4.2h0.6v0.6h0
		c0.4-0.4,0.8-0.6,1.2-0.6C60.1,186.8,60.5,187.2,60.5,187.9z"/>
	<path class="st2" d="M65.1,187.3c-0.3,0-0.5,0-0.6,0.1c0.2,0.2,0.3,0.5,0.3,0.8c0,0.8-0.7,1.5-1.5,1.5c-0.3,0-0.4,0-0.7-0.1
		c-0.2,0.1-0.3,0.2-0.3,0.4c0,0.2,0.1,0.3,0.4,0.3c1.8,0,2.6,0.3,2.6,1.2c0,0.6-0.6,1.1-1.9,1.1c-1.2,0-1.8-0.3-1.8-1
		c0-0.4,0.3-0.6,0.7-0.8c-0.3-0.1-0.5-0.3-0.5-0.6c0-0.4,0.3-0.5,0.6-0.7c-0.4-0.3-0.6-0.7-0.6-1.2c0-0.9,0.7-1.5,1.6-1.5
		c0.4,0,0.8,0.1,1,0.3c0.2-0.2,0.6-0.3,0.9-0.4V187.3z M63.2,192c0.8,0,1.3-0.2,1.3-0.6c0-0.4-0.4-0.6-1.4-0.6
		c-0.6,0-1.2,0.2-1.2,0.7C61.9,191.9,62.2,192,63.2,192z M63.2,189.2c0.6,0,1-0.4,1-0.9c0-0.6-0.4-1-1.1-1c-0.6,0-1,0.4-1,1
		S62.6,189.2,63.2,189.2z"/>
	<path class="st2" d="M67.7,187.4c-0.8,0-1.1,0.5-1.4,1.3v2.3h-0.6v-4.2h0.6v0.8h0c0.3-0.6,0.7-0.9,1.3-0.9h0V187.4z"/>
	<path class="st2" d="M71.5,188.6v0.4h-2.7c0,1,0.6,1.6,1.2,1.6c0.5,0,0.9-0.3,1.1-0.7l0.4,0.2c-0.4,0.7-0.9,1-1.6,1
		c-1.1,0-1.8-0.8-1.8-2.2c0-1.5,0.8-2.2,1.7-2.2C70.8,186.8,71.5,187.4,71.5,188.6z M70.9,188.5c0-0.8-0.4-1.3-1-1.3s-1,0.4-1.1,1.3
		H70.9z"/>
	<path class="st2" d="M75,187.5l-0.4,0.4c-0.3-0.4-0.6-0.6-1.1-0.6c-0.5,0-0.8,0.2-0.8,0.6c0,0.3,0.3,0.5,0.9,0.7
		c0.8,0.2,1.5,0.5,1.5,1.3c0,0.8-0.7,1.2-1.5,1.2c-0.6,0-1.3-0.3-1.7-0.8l0.5-0.3c0.3,0.4,0.7,0.6,1.2,0.6c0.5,0,0.9-0.2,0.9-0.7
		c0-0.4-0.3-0.6-0.9-0.7c-0.9-0.3-1.5-0.5-1.5-1.2c0-0.8,0.6-1.2,1.3-1.2C74.1,186.8,74.7,187,75,187.5z"/>
	<path class="st2" d="M78.5,187.5l-0.4,0.4c-0.3-0.4-0.6-0.6-1.1-0.6c-0.5,0-0.8,0.2-0.8,0.6c0,0.3,0.3,0.5,0.9,0.7
		c0.8,0.2,1.5,0.5,1.5,1.3c0,0.8-0.7,1.2-1.5,1.2c-0.6,0-1.3-0.3-1.7-0.8l0.5-0.3c0.3,0.4,0.7,0.6,1.2,0.6c0.5,0,0.9-0.2,0.9-0.7
		c0-0.4-0.3-0.6-0.9-0.7c-0.9-0.3-1.5-0.5-1.5-1.2c0-0.8,0.6-1.2,1.3-1.2C77.6,186.8,78.3,187,78.5,187.5z"/>
	<path class="st2" d="M80.6,190.1v0.9l-0.5,1.2h-0.3l0.4-1.2h-0.3v-0.9H80.6z"/>
	<path class="st2" d="M86.7,185.2c1.1,0,1.8,0.5,1.8,1.6c0,1.2-1,1.6-2.1,1.6h-1v2.6h-0.6v-5.8H86.7z M86.4,187.9
		c1,0,1.4-0.3,1.4-1.1s-0.5-1.1-1.3-1.1h-1.2v2.1H86.4z"/>
	<path class="st2" d="M92.2,188v2.2c0,0.2,0,0.5,0.1,0.8h-0.6l-0.1-0.6c-0.4,0.4-0.9,0.7-1.4,0.7c-0.7,0-1.2-0.5-1.2-1.2
		c0-1.2,1.4-1.5,2.5-1.7V188c0-0.6-0.4-0.8-0.9-0.8c-0.5,0-0.9,0.3-1.1,0.6l-0.5-0.3c0.3-0.6,0.9-0.9,1.6-0.9
		C91.6,186.8,92.2,187.2,92.2,188z M90.4,190.6c0.4,0,1-0.3,1.3-0.7v-1.1c-0.7,0.1-2,0.4-2,1.2C89.7,190.3,90,190.6,90.4,190.6z"/>
	<path class="st2" d="M95.3,187.4c-0.8,0-1.1,0.5-1.4,1.3v2.3h-0.6v-4.2h0.6v0.8h0c0.3-0.6,0.7-0.9,1.3-0.9h0V187.4z"/>
	<path class="st2" d="M96.8,185.1v0.7h-0.6v-0.7H96.8z M96.8,186.8v4.2h-0.6v-4.2H96.8z"/>
	<path class="st2" d="M100.8,187.5l-0.4,0.4c-0.3-0.4-0.6-0.6-1.1-0.6c-0.5,0-0.8,0.2-0.8,0.6c0,0.3,0.3,0.5,0.9,0.7
		c0.8,0.2,1.5,0.5,1.5,1.3c0,0.8-0.7,1.2-1.5,1.2c-0.6,0-1.3-0.3-1.7-0.8l0.5-0.3c0.3,0.4,0.7,0.6,1.2,0.6c0.5,0,0.9-0.2,0.9-0.7
		c0-0.4-0.3-0.6-0.9-0.7c-0.9-0.3-1.5-0.5-1.5-1.2c0-0.8,0.6-1.2,1.3-1.2C99.8,186.8,100.5,187,100.8,187.5z"/>
	<path class="st2" d="M102.8,190.1v0.9l-0.5,1.2H102l0.4-1.2H102v-0.9H102.8z"/>
	<path class="st2" d="M110.3,185.2v0.5h-2.8v1.9h2.1v0.5h-2.1v2.8h-0.6v-5.8H110.3z"/>
	<path class="st2" d="M113,187.4c-0.8,0-1.1,0.5-1.4,1.3v2.3h-0.6v-4.2h0.6v0.8h0c0.3-0.6,0.7-0.9,1.3-0.9h0V187.4z"/>
	<path class="st2" d="M116.6,188v2.2c0,0.2,0,0.5,0.1,0.8h-0.6l-0.1-0.6c-0.4,0.4-0.9,0.7-1.4,0.7c-0.7,0-1.2-0.5-1.2-1.2
		c0-1.2,1.4-1.5,2.5-1.7V188c0-0.6-0.4-0.8-0.9-0.8c-0.5,0-0.9,0.3-1.1,0.6l-0.5-0.3c0.3-0.6,0.9-0.9,1.6-0.9
		C116,186.8,116.6,187.2,116.6,188z M114.8,190.6c0.4,0,1-0.3,1.3-0.7v-1.1c-0.7,0.1-2,0.4-2,1.2
		C114.1,190.3,114.4,190.6,114.8,190.6z"/>
	<path class="st2" d="M120.9,187.9v3.1h-0.6v-3c0-0.4-0.2-0.7-0.7-0.7c-0.4,0-0.9,0.3-1.2,0.6v3.1h-0.6v-4.2h0.6v0.6h0
		c0.4-0.4,0.8-0.6,1.2-0.6C120.5,186.8,120.9,187.2,120.9,187.9z"/>
	<path class="st2" d="M125.2,187.9l-0.5,0.2c-0.2-0.5-0.5-0.8-1-0.8c-0.9,0-1.1,0.8-1.1,1.7c0,1.1,0.4,1.7,1.1,1.7
		c0.6,0,0.8-0.2,1.1-0.8l0.5,0.2c-0.4,0.7-0.8,1.1-1.6,1.1c-1.2,0-1.7-1-1.7-2.2s0.5-2.2,1.7-2.2
		C124.4,186.8,124.9,187.1,125.2,187.9z"/>
	<path class="st2" d="M129.2,188.6v0.4h-2.7c0,1,0.6,1.6,1.2,1.6c0.5,0,0.9-0.3,1.1-0.7l0.4,0.2c-0.4,0.7-0.9,1-1.6,1
		c-1.1,0-1.8-0.8-1.8-2.2c0-1.5,0.8-2.2,1.7-2.2C128.6,186.8,129.2,187.4,129.2,188.6z M128.7,188.5c0-0.8-0.4-1.3-1-1.3
		s-1,0.4-1.1,1.3H128.7z"/>
	<path class="st2" d="M131.2,190.1v0.9h-0.8v-0.9H131.2z"/>
	<path class="st2" d="M137.3,185.1v5.4h1v0.5h-2.6v-0.5h1v-4.7l-1.1,0.1v-0.4c0.5-0.1,0.9-0.2,1.1-0.4H137.3z"/>
	<path class="st2" d="M143.8,187.8c0,1.6-0.7,3.3-2.4,3.3c-0.5,0-1-0.1-1.2-0.3l0.2-0.5c0.3,0.2,0.6,0.3,1,0.3
		c1.2,0,1.7-1.2,1.8-2.4c-0.5,0.5-0.9,0.7-1.6,0.7c-0.8,0-1.7-0.5-1.7-1.9c0-1.2,0.8-1.9,1.9-1.9
		C143.1,185.1,143.8,186.1,143.8,187.8z M141.7,188.4c0.7,0,1.2-0.4,1.5-1.1c0-0.9-0.5-1.7-1.4-1.7c-0.7,0-1.3,0.5-1.3,1.3
		C140.5,187.9,141.1,188.4,141.7,188.4z"/>
	<path class="st2" d="M148.3,188.7v0.4h-4v-0.4H148.3z"/>
	<path class="st2" d="M152.6,186.7c0,0.6-0.2,1-0.6,1.4c-0.2,0.2-0.5,0.5-1,0.8c-0.7,0.5-1.2,0.9-1.5,1.6h3.1v0.5h-3.8v-0.6
		c0.3-0.7,0.9-1.3,1.5-1.7c0.3-0.2,0.6-0.4,0.9-0.6c0.5-0.4,0.8-0.8,0.8-1.4c0-0.7-0.4-1.1-1.2-1.1c-0.7,0-1.2,0.5-1.4,1.3l-0.6-0.1
		c0.3-1.1,0.9-1.6,1.9-1.6C151.8,185.1,152.6,185.7,152.6,186.7z"/>
	<path class="st2" d="M157.5,186.7c0,0.6-0.2,1-0.6,1.4c-0.2,0.2-0.5,0.5-1,0.8c-0.7,0.5-1.2,0.9-1.5,1.6h3.1v0.5h-3.8v-0.6
		c0.3-0.7,0.9-1.3,1.5-1.7c0.3-0.2,0.6-0.4,0.9-0.6c0.5-0.4,0.8-0.8,0.8-1.4c0-0.7-0.4-1.1-1.2-1.1c-0.7,0-1.2,0.5-1.4,1.3l-0.6-0.1
		c0.3-1.1,0.9-1.6,1.9-1.6C156.7,185.1,157.5,185.7,157.5,186.7z"/>
	<path class="st2" d="M162.4,185.2l1.5,4.7h0l1.4-4.7h1v5.8h-0.6v-5.4l-1.6,5.4h-0.5l-1.6-5.4v5.4h-0.6v-5.8H162.4z"/>
	<path class="st2" d="M170.6,188v2.2c0,0.2,0,0.5,0.1,0.8h-0.6l-0.1-0.6c-0.4,0.4-0.9,0.7-1.4,0.7c-0.7,0-1.2-0.5-1.2-1.2
		c0-1.2,1.4-1.5,2.5-1.7V188c0-0.6-0.4-0.8-0.9-0.8c-0.5,0-0.9,0.3-1.1,0.6l-0.5-0.3c0.3-0.6,0.9-0.9,1.6-0.9
		C170,186.8,170.6,187.2,170.6,188z M168.8,190.6c0.4,0,1-0.3,1.3-0.7v-1.1c-0.7,0.1-2,0.4-2,1.2
		C168.1,190.3,168.4,190.6,168.8,190.6z"/>
	<path class="st2" d="M171.9,186.8l1.1,3.2h0l1-3.2h0.6l-1.5,4.5c-0.3,0.8-0.7,1.2-1.4,1.2c-0.2,0-0.3,0-0.4,0V192
		c0.1,0,0.2,0,0.3,0c0.6,0,0.9-0.4,1.1-1l-1.4-4.2H171.9z"/>
	<path class="st2" d="M181.4,186.7c0,0.6-0.2,1-0.6,1.4c-0.2,0.2-0.5,0.5-1,0.8c-0.7,0.5-1.2,0.9-1.5,1.6h3.1v0.5h-3.8v-0.6
		c0.3-0.7,0.9-1.3,1.5-1.7c0.3-0.2,0.6-0.4,0.9-0.6c0.5-0.4,0.8-0.8,0.8-1.4c0-0.7-0.4-1.1-1.2-1.1s-1.2,0.5-1.4,1.3l-0.6-0.1
		c0.3-1.1,0.9-1.6,1.9-1.6C180.7,185.1,181.4,185.7,181.4,186.7z"/>
	<path class="st2" d="M186.5,188.1c0,2-0.7,3-2,3c-1.3,0-2-1-2-3c0-2,0.7-3,2-3C185.8,185.1,186.5,186.2,186.5,188.1z M184.5,190.6
		c1,0,1.4-0.8,1.4-2.5c0-1.7-0.4-2.5-1.4-2.5c-1,0-1.4,0.8-1.4,2.5C183.1,189.8,183.5,190.6,184.5,190.6z"/>
	<path class="st2" d="M191.2,186.7c0,0.6-0.2,1-0.6,1.4c-0.2,0.2-0.5,0.5-1,0.8c-0.7,0.5-1.2,0.9-1.5,1.6h3.1v0.5h-3.8v-0.6
		c0.3-0.7,0.9-1.3,1.5-1.7c0.3-0.2,0.6-0.4,0.9-0.6c0.5-0.4,0.8-0.8,0.8-1.4c0-0.7-0.4-1.1-1.2-1.1s-1.2,0.5-1.4,1.3l-0.6-0.1
		c0.3-1.1,0.9-1.6,1.9-1.6C190.4,185.1,191.2,185.7,191.2,186.7z"/>
	<path class="st2" d="M196.1,186.7c0,0.6-0.2,1-0.6,1.4c-0.2,0.2-0.5,0.5-1,0.8c-0.7,0.5-1.2,0.9-1.5,1.6h3.1v0.5h-3.8v-0.6
		c0.3-0.7,0.9-1.3,1.5-1.7c0.3-0.2,0.6-0.4,0.9-0.6c0.5-0.4,0.8-0.8,0.8-1.4c0-0.7-0.4-1.1-1.2-1.1c-0.7,0-1.2,0.5-1.4,1.3l-0.6-0.1
		c0.3-1.1,0.9-1.6,1.9-1.6C195.3,185.1,196.1,185.7,196.1,186.7z"/>
	<path class="st2" d="M198.3,190.1v0.9h-0.8v-0.9H198.3z"/>
</g>
<g class="st1">
	<path class="st2" d="M15.3,194.8c0,0.6-0.3,1.1-0.7,1.6c-0.4,0.4-1.6,1.3-2,1.7h2.7v0.9h-3.9v-1c0.1-0.3,0.4-0.7,1.2-1.3
		c1.4-1.1,1.6-1.5,1.6-1.9c0-0.5-0.3-0.8-0.9-0.8c-0.5,0-0.9,0.3-1,0.9l-0.9-0.2c0.1-0.9,1-1.6,2-1.6
		C14.5,193.1,15.3,193.8,15.3,194.8z"/>
	<path class="st2" d="M17.7,197.9v1.1h-1.1v-1.1H17.7z"/>
</g>
<g class="st1">
	<path class="st2" d="M25.1,193.2v0.5h-2.8v1.9h2v0.5h-2v2.2h3v0.5h-3.6v-5.8H25.1z"/>
	<path class="st2" d="M26.4,193.2l1.4,4.7h0l1.4-4.7H30l-1.8,5.8h-0.6l-1.8-5.8H26.4z"/>
	<path class="st2" d="M32.8,193.2c1.1,0,1.9,0.5,1.9,1.5c0,0.7-0.4,1.2-1.2,1.5l1.2,2.8h-0.7l-1.2-2.6h-1.4v2.6h-0.6v-5.8H32.8z
		 M32.7,195.8c0.8,0,1.3-0.3,1.3-1.1c0-0.7-0.4-1-1.3-1h-1.2v2.1H32.7z"/>
	<path class="st2" d="M39.8,193.2v0.5h-2.8v1.9h2v0.5h-2v2.2h3v0.5h-3.6v-5.8H39.8z"/>
	<path class="st2" d="M42.1,193.2l2.5,4.4h0v-4.4h0.6v5.8h-0.5l-2.9-5.1h0v5.1h-0.6v-5.8H42.1z"/>
	<path class="st2" d="M50.2,193.2v0.4l-2.9,4.8h3v0.5h-3.7v-0.5l2.9-4.8h-2.6v-0.5H50.2z"/>
	<path class="st2" d="M55.5,196.1c0,1.6-0.6,3-2.3,3s-2.3-1.4-2.3-3c0-1.6,0.6-3,2.3-3C54.9,193.1,55.5,194.5,55.5,196.1z
		 M53.2,198.5c1,0,1.6-0.8,1.6-2.4c0-1.6-0.6-2.4-1.6-2.4c-1,0-1.6,0.8-1.6,2.4C51.6,197.7,52.2,198.5,53.2,198.5z"/>
	<path class="st2" d="M62.5,194.6l-0.6,0.1c-0.2-0.6-0.7-1-1.3-1c-0.7,0-1.1,0.3-1.1,0.9c0,0.5,0.5,0.7,1.1,1
		c1.1,0.4,2.1,0.7,2.1,1.8c0,1.2-0.8,1.7-1.9,1.7c-1,0-1.6-0.5-2.1-1.5l0.6-0.2c0.3,0.8,0.8,1.2,1.5,1.2c0.7,0,1.3-0.3,1.3-1
		c0-0.7-0.7-1-1.6-1.3c-1-0.4-1.7-0.7-1.7-1.6c0-0.9,0.8-1.5,1.7-1.5C61.5,193.1,62.2,193.7,62.5,194.6z"/>
	<path class="st2" d="M68.1,194.8c0.8,0,1.1,0.4,1.1,1.2v3h-0.6v-3c0-0.5-0.2-0.7-0.6-0.7c-0.5,0-0.8,0.3-1.2,0.6v3.1h-0.6v-3
		c0-0.5-0.2-0.7-0.6-0.7c-0.5,0-0.8,0.3-1.2,0.6v3.1h-0.6v-4.2h0.6v0.6c0.4-0.4,0.8-0.6,1.2-0.6c0.5,0,0.9,0.3,1.1,0.7
		C67.1,195,67.6,194.8,68.1,194.8z"/>
	<path class="st2" d="M72.7,193.2c1.1,0,1.8,0.5,1.8,1.6c0,1.2-1,1.6-2.1,1.6h-1v2.6h-0.6v-5.8H72.7z M72.4,195.9
		c1,0,1.4-0.3,1.4-1.1s-0.5-1.1-1.3-1.1h-1.2v2.1H72.4z"/>
	<path class="st2" d="M79.3,194.8l-0.6,0.2c-0.2-0.8-0.6-1.3-1.4-1.3c-1.1,0-1.5,1.2-1.5,2.4c0,1.6,0.6,2.4,1.6,2.4
		c0.7,0,1.2-0.4,1.4-1.4l0.6,0.1c-0.3,1.2-1,1.8-2,1.8c-1.6,0-2.2-1.4-2.2-3c0-1.6,0.6-3,2.2-3C78.3,193.1,79,193.7,79.3,194.8z"/>
	<path class="st2" d="M81.3,198.1v0.9h-0.8v-0.9H81.3z"/>
</g>
<g class="st1">
	<path class="st2" d="M15.5,208.8l-0.6,0.2c-0.2-0.8-0.6-1.3-1.4-1.3c-1.1,0-1.5,1.2-1.5,2.4c0,1.6,0.6,2.4,1.6,2.4
		c0.7,0,1.2-0.4,1.4-1.4l0.6,0.1c-0.3,1.2-1,1.8-2,1.8c-1.6,0-2.2-1.4-2.2-3c0-1.6,0.6-3,2.2-3C14.6,207.1,15.2,207.7,15.5,208.8z"
		/>
	<path class="st2" d="M17.5,207.2v3l2.4-3h0.8l-1.8,2.2l2,3.6h-0.7l-1.7-3.1l-0.9,1.1v1.9h-0.6v-5.8H17.5z"/>
	<path class="st2" d="M23.6,207.2c1.7,0,2.6,1.2,2.6,2.9c0,1.7-0.9,2.9-2.6,2.9H22v-5.8H23.6z M23.6,212.5c1.4,0,2-0.9,2-2.3
		c0-1.6-0.7-2.3-2-2.3h-0.9v4.7H23.6z"/>
	<path class="st2" d="M28.2,212.1v0.9l-0.5,1.2h-0.3l0.4-1.2h-0.3v-0.9H28.2z"/>
	<path class="st2" d="M35,209.9l-0.5,0.2c-0.2-0.5-0.5-0.8-1-0.8c-0.9,0-1.1,0.8-1.1,1.7c0,1.1,0.4,1.7,1.1,1.7
		c0.6,0,0.8-0.2,1.1-0.8l0.5,0.2c-0.4,0.7-0.8,1.1-1.6,1.1c-1.2,0-1.7-1-1.7-2.2s0.5-2.2,1.7-2.2C34.2,208.8,34.7,209.1,35,209.9z"
		/>
	<path class="st2" d="M36.7,207.2v2.2h0c0.4-0.4,0.8-0.6,1.2-0.6c0.8,0,1.2,0.5,1.2,1.2v3.1h-0.6v-3c0-0.4-0.2-0.7-0.7-0.7
		c-0.4,0-0.9,0.3-1.2,0.6v3.1h-0.6v-5.8H36.7z"/>
	<path class="st2" d="M42.4,209.4c-0.8,0-1.1,0.5-1.4,1.3v2.3h-0.6v-4.2H41v0.8h0c0.3-0.6,0.7-0.9,1.3-0.9h0V209.4z"/>
	<path class="st2" d="M46.3,210.9c0,1.1-0.5,2.2-1.7,2.2s-1.7-1-1.7-2.2c0-1.1,0.5-2.2,1.7-2.2S46.3,209.8,46.3,210.9z M44.6,212.6
		c0.8,0,1.1-0.8,1.1-1.7s-0.3-1.7-1.1-1.7c-0.8,0-1.1,0.9-1.1,1.7C43.4,211.7,43.7,212.6,44.6,212.6z"/>
	<path class="st2" d="M50.3,209.9v3.1h-0.6v-3c0-0.4-0.2-0.7-0.7-0.7c-0.4,0-0.9,0.3-1.2,0.6v3.1h-0.6v-4.2h0.6v0.6h0
		c0.4-0.4,0.8-0.6,1.2-0.6C49.8,208.8,50.3,209.2,50.3,209.9z"/>
	<path class="st2" d="M52.4,207.1v0.7h-0.6v-0.7H52.4z M52.4,208.8v4.2h-0.6v-4.2H52.4z"/>
	<path class="st2" d="M56.8,209.9l-0.5,0.2c-0.2-0.5-0.5-0.8-1-0.8c-0.9,0-1.1,0.8-1.1,1.7c0,1.1,0.4,1.7,1.1,1.7
		c0.6,0,0.8-0.2,1.1-0.8l0.5,0.2c-0.4,0.7-0.8,1.1-1.6,1.1c-1.2,0-1.7-1-1.7-2.2s0.5-2.2,1.7-2.2C56,208.8,56.4,209.1,56.8,209.9z"
		/>
	<path class="st2" d="M60.9,207.2v3.7h0l1.7-2.1h0.7l-1.2,1.5l1.4,2.6h-0.7l-1.1-2.1l-0.8,0.9v1.2h-0.6v-5.8H60.9z"/>
	<path class="st2" d="M65.1,207.1v0.7h-0.6v-0.7H65.1z M65.1,208.8v4.2h-0.6v-4.2H65.1z"/>
	<path class="st2" d="M69.6,207.2v5.4c0,0.1,0,0.3,0,0.4h-0.5l-0.1-0.4c-0.2,0.3-0.6,0.5-1.1,0.5c-0.9,0-1.7-0.7-1.7-2.2
		c0-1.5,0.9-2.2,1.7-2.2c0.4,0,0.8,0.2,1.1,0.5v-2H69.6z M68,212.6c0.4,0,0.7-0.2,1-0.6v-2.2c-0.3-0.3-0.7-0.6-1.1-0.6
		c-0.8,0-1.2,0.6-1.2,1.7C66.8,211.8,67.2,212.6,68,212.6z"/>
	<path class="st2" d="M74.1,209.9v3.1h-0.6v-3c0-0.4-0.2-0.7-0.7-0.7c-0.4,0-0.9,0.3-1.2,0.6v3.1H71v-4.2h0.6v0.6h0
		c0.4-0.4,0.8-0.6,1.2-0.6C73.6,208.8,74.1,209.2,74.1,209.9z"/>
	<path class="st2" d="M78.4,210.6v0.4h-2.7c0,1,0.6,1.6,1.2,1.6c0.5,0,0.9-0.3,1.1-0.7l0.4,0.2c-0.4,0.7-0.9,1-1.6,1
		c-1.1,0-1.8-0.8-1.8-2.2c0-1.5,0.8-2.2,1.7-2.2C77.7,208.8,78.4,209.4,78.4,210.6z M77.8,210.5c0-0.8-0.4-1.3-1-1.3s-1,0.4-1.1,1.3
		H77.8z"/>
	<path class="st2" d="M79.5,208.8l1.1,3.2h0l1-3.2h0.6l-1.5,4.5c-0.3,0.8-0.7,1.2-1.4,1.2c-0.2,0-0.3,0-0.4,0V214c0.1,0,0.2,0,0.3,0
		c0.6,0,0.9-0.4,1.1-1l-1.4-4.2H79.5z"/>
	<path class="st2" d="M88.5,207.2v5.4c0,0.1,0,0.3,0,0.4H88l-0.1-0.4c-0.2,0.3-0.6,0.5-1.1,0.5c-0.9,0-1.7-0.7-1.7-2.2
		c0-1.5,0.9-2.2,1.7-2.2c0.4,0,0.8,0.2,1.1,0.5v-2H88.5z M86.9,212.6c0.4,0,0.7-0.2,1-0.6v-2.2c-0.3-0.3-0.7-0.6-1.1-0.6
		c-0.8,0-1.2,0.6-1.2,1.7C85.7,211.8,86.1,212.6,86.9,212.6z"/>
	<path class="st2" d="M90.6,207.1v0.7H90v-0.7H90.6z M90.6,208.8v4.2H90v-4.2H90.6z"/>
	<path class="st2" d="M94.6,209.5l-0.4,0.4c-0.3-0.4-0.6-0.6-1.1-0.6c-0.5,0-0.8,0.2-0.8,0.6c0,0.3,0.3,0.5,0.9,0.7
		c0.8,0.2,1.5,0.5,1.5,1.3c0,0.8-0.7,1.2-1.5,1.2c-0.6,0-1.3-0.3-1.7-0.8l0.5-0.3c0.3,0.4,0.7,0.6,1.2,0.6c0.5,0,0.9-0.2,0.9-0.7
		c0-0.4-0.3-0.6-0.9-0.7c-0.9-0.3-1.5-0.5-1.5-1.2c0-0.8,0.6-1.2,1.3-1.2C93.6,208.8,94.3,209,94.6,209.5z"/>
	<path class="st2" d="M98.6,210.6v0.4h-2.7c0,1,0.6,1.6,1.2,1.6c0.5,0,0.9-0.3,1.1-0.7l0.4,0.2c-0.4,0.7-0.9,1-1.6,1
		c-1.1,0-1.8-0.8-1.8-2.2c0-1.5,0.8-2.2,1.7-2.2C97.9,208.8,98.6,209.4,98.6,210.6z M98,210.5c0-0.8-0.4-1.3-1-1.3s-1,0.4-1.1,1.3
		H98z"/>
	<path class="st2" d="M102.5,210v2.2c0,0.2,0,0.5,0.1,0.8H102l-0.1-0.6c-0.4,0.4-0.9,0.7-1.4,0.7c-0.7,0-1.2-0.5-1.2-1.2
		c0-1.2,1.4-1.5,2.5-1.7V210c0-0.6-0.4-0.8-0.9-0.8c-0.5,0-0.9,0.3-1.1,0.6l-0.5-0.3c0.3-0.6,0.9-0.9,1.6-0.9
		C101.8,208.8,102.5,209.2,102.5,210z M100.6,212.6c0.4,0,1-0.3,1.3-0.7v-1.1c-0.7,0.1-2,0.4-2,1.2
		C99.9,212.3,100.3,212.6,100.6,212.6z"/>
	<path class="st2" d="M106.1,209.5l-0.4,0.4c-0.3-0.4-0.6-0.6-1.1-0.6c-0.5,0-0.8,0.2-0.8,0.6c0,0.3,0.3,0.5,0.9,0.7
		c0.8,0.2,1.5,0.5,1.5,1.3c0,0.8-0.7,1.2-1.5,1.2c-0.6,0-1.3-0.3-1.7-0.8l0.5-0.3c0.3,0.4,0.7,0.6,1.2,0.6c0.5,0,0.9-0.2,0.9-0.7
		c0-0.4-0.3-0.6-0.9-0.7c-0.9-0.3-1.5-0.5-1.5-1.2c0-0.8,0.6-1.2,1.3-1.2C105.2,208.8,105.8,209,106.1,209.5z"/>
	<path class="st2" d="M110.1,210.6v0.4h-2.7c0,1,0.6,1.6,1.2,1.6c0.5,0,0.9-0.3,1.1-0.7l0.4,0.2c-0.4,0.7-0.9,1-1.6,1
		c-1.1,0-1.8-0.8-1.8-2.2c0-1.5,0.8-2.2,1.7-2.2C109.5,208.8,110.1,209.4,110.1,210.6z M109.6,210.5c0-0.8-0.4-1.3-1-1.3
		s-1,0.4-1.1,1.3H109.6z"/>
</g>
<g class="st1">
	<path class="st2" d="M15.3,215.2v0.9h-2.6v1.4h1.9v0.9h-1.9v2.5h-1.1v-5.8H15.3z"/>
	<path class="st2" d="M19.3,218.9c0,1.3-0.7,2.2-1.8,2.2c-1.1,0-1.8-0.8-1.8-2.2c0-1.3,0.7-2.2,1.8-2.2S19.3,217.6,19.3,218.9z
		 M17.4,220.3c0.5,0,0.8-0.4,0.8-1.4c0-0.9-0.3-1.4-0.8-1.4c-0.6,0-0.8,0.5-0.8,1.4C16.6,219.9,16.9,220.3,17.4,220.3z"/>
	<path class="st2" d="M22,217.8c0,0-0.1,0-0.2,0c-0.5,0-0.9,0.5-0.9,0.7v2.5h-1v-4.2h0.9v0.7h0c0.2-0.5,0.6-0.8,1.2-0.8V217.8z"/>
	<path class="st2" d="M26.3,215.2v2.3h2.2v-2.3h1.1v5.8h-1.1v-2.5h-2.2v2.5h-1.1v-5.8H26.3z"/>
	<path class="st2" d="M34,218.6v0.4h-2.5c0,0.8,0.3,1.2,0.9,1.2c0.4,0,0.6-0.1,0.9-0.5l0.7,0.4c-0.4,0.6-0.9,0.8-1.7,0.8
		c-1.1,0-1.8-0.8-1.8-2.2s0.7-2.2,1.8-2.2C33.5,216.8,34,217.8,34,218.6z M33.1,218.4c0-0.6-0.3-0.9-0.8-0.9c-0.5,0-0.8,0.3-0.8,0.9
		H33.1z"/>
	<path class="st2" d="M37.8,218.4v2c0,0.1,0,0.4,0.1,0.6h-1l-0.1-0.4c-0.4,0.3-0.8,0.4-1.3,0.4c-0.7,0-1.1-0.5-1.1-1.1
		c0-0.9,0.8-1.4,2.4-1.6V218c0-0.3-0.3-0.5-0.6-0.5c-0.3,0-0.6,0.2-0.9,0.5l-0.6-0.5c0.3-0.4,0.9-0.8,1.5-0.8
		C37.4,216.8,37.8,217.2,37.8,218.4z M35.9,220.3c0.3,0,0.6-0.2,0.9-0.4V219c-1.1,0.2-1.4,0.5-1.4,0.8
		C35.5,220.2,35.7,220.3,35.9,220.3z"/>
	<path class="st2" d="M39.9,215.2v5.8h-1v-5.8H39.9z"/>
	<path class="st2" d="M42.2,215.5v1.4H43v0.8h-0.8v2.4c0,0.2,0.1,0.3,0.4,0.3c0.2,0,0.3,0,0.5-0.1v0.8c-0.3,0-0.5,0.1-0.8,0.1
		c-0.7,0-1-0.3-1-1v-2.5h-0.6v-0.8h0.6v-1.4H42.2z"/>
	<path class="st2" d="M44.7,215.2v2.1c0.4-0.4,0.8-0.5,1.2-0.5c0.8,0,1.2,0.5,1.2,1.4v2.9h-1v-2.7c0-0.5-0.1-0.7-0.5-0.7
		c-0.3,0-0.7,0.2-0.9,0.4v3h-1v-5.8H44.7z"/>
	<path class="st2" d="M51.3,217.9l-0.8,0.3c-0.2-0.5-0.4-0.6-0.8-0.6c-0.6,0-0.8,0.4-0.8,1.4c0,0.9,0.3,1.4,0.8,1.4
		c0.4,0,0.6-0.2,0.9-0.7l0.8,0.4c-0.4,0.7-0.9,1-1.6,1c-1.2,0-1.8-0.8-1.8-2.2c0-1.3,0.7-2.2,1.8-2.2
		C50.4,216.8,51.1,217.2,51.3,217.9z"/>
	<path class="st2" d="M55.2,218.4v2c0,0.1,0,0.4,0.1,0.6h-1l-0.1-0.4c-0.4,0.3-0.8,0.4-1.3,0.4c-0.7,0-1.1-0.5-1.1-1.1
		c0-0.9,0.8-1.4,2.4-1.6V218c0-0.3-0.3-0.5-0.6-0.5c-0.3,0-0.6,0.2-0.9,0.5l-0.6-0.5c0.3-0.4,0.9-0.8,1.5-0.8
		C54.7,216.8,55.2,217.2,55.2,218.4z M53.3,220.3c0.3,0,0.6-0.2,0.9-0.4V219c-1.1,0.2-1.4,0.5-1.4,0.8
		C52.8,220.2,53,220.3,53.3,220.3z"/>
	<path class="st2" d="M58.2,217.8c0,0-0.1,0-0.2,0c-0.5,0-0.9,0.5-0.9,0.7v2.5h-1v-4.2H57v0.7h0c0.2-0.5,0.6-0.8,1.2-0.8V217.8z"/>
	<path class="st2" d="M62,218.6v0.4h-2.5c0,0.8,0.3,1.2,0.9,1.2c0.4,0,0.6-0.1,0.9-0.5l0.7,0.4c-0.4,0.6-0.9,0.8-1.7,0.8
		c-1.1,0-1.8-0.8-1.8-2.2s0.7-2.2,1.8-2.2C61.5,216.8,62,217.8,62,218.6z M61.1,218.4c0-0.6-0.3-0.9-0.8-0.9c-0.5,0-0.8,0.3-0.8,0.9
		H61.1z"/>
	<path class="st2" d="M67.4,215.2c1.3,0,2,0.6,2,1.7s-0.7,1.7-2,1.7h-1v2.3h-1.1v-5.8H67.4z M67.3,217.8c0.7,0,1-0.2,1-0.8
		s-0.4-0.8-1-0.8h-0.9v1.6H67.3z"/>
	<path class="st2" d="M72.2,217.8c0,0-0.1,0-0.2,0c-0.5,0-0.9,0.5-0.9,0.7v2.5h-1v-4.2H71v0.7h0c0.2-0.5,0.6-0.8,1.2-0.8V217.8z"/>
	<path class="st2" d="M76.1,218.9c0,1.3-0.7,2.2-1.8,2.2c-1.1,0-1.8-0.8-1.8-2.2c0-1.3,0.7-2.2,1.8-2.2S76.1,217.6,76.1,218.9z
		 M74.3,220.3c0.5,0,0.8-0.4,0.8-1.4c0-0.9-0.3-1.4-0.8-1.4c-0.6,0-0.8,0.5-0.8,1.4C73.5,219.9,73.8,220.3,74.3,220.3z"/>
	<path class="st2" d="M78.8,215.1v0.8h-0.2c-0.5,0-0.6,0.2-0.6,0.5v0.4h0.8v0.8H78v3.4h-1v-3.4h-0.6v-0.8H77v-0.5
		c0-0.8,0.3-1.2,1.1-1.2H78.8z"/>
	<path class="st2" d="M82.7,218.6v0.4h-2.5c0,0.8,0.3,1.2,0.9,1.2c0.4,0,0.6-0.1,0.9-0.5l0.7,0.4c-0.4,0.6-0.9,0.8-1.7,0.8
		c-1.1,0-1.8-0.8-1.8-2.2s0.7-2.2,1.8-2.2C82.1,216.8,82.7,217.8,82.7,218.6z M81.8,218.4c0-0.6-0.3-0.9-0.8-0.9
		c-0.5,0-0.8,0.3-0.8,0.9H81.8z"/>
	<path class="st2" d="M86.1,217.4l-0.6,0.5c-0.3-0.3-0.5-0.4-0.8-0.4c-0.4,0-0.6,0.2-0.6,0.4c0,0.2,0.2,0.4,0.7,0.6
		c1,0.3,1.3,0.7,1.3,1.4c0,0.8-0.6,1.2-1.5,1.2c-0.7,0-1.2-0.3-1.6-0.8l0.7-0.5c0.3,0.4,0.6,0.6,1,0.6c0.4,0,0.6-0.2,0.6-0.5
		c0-0.2-0.2-0.4-0.8-0.6c-1-0.3-1.3-0.7-1.3-1.3c0-0.7,0.6-1.2,1.4-1.2C85.2,216.8,85.8,217,86.1,217.4z"/>
	<path class="st2" d="M89.7,217.4l-0.6,0.5c-0.3-0.3-0.5-0.4-0.8-0.4c-0.4,0-0.6,0.2-0.6,0.4c0,0.2,0.2,0.4,0.7,0.6
		c1,0.3,1.3,0.7,1.3,1.4c0,0.8-0.6,1.2-1.5,1.2c-0.7,0-1.2-0.3-1.6-0.8l0.7-0.5c0.3,0.4,0.6,0.6,1,0.6c0.4,0,0.6-0.2,0.6-0.5
		c0-0.2-0.2-0.4-0.8-0.6c-1-0.3-1.3-0.7-1.3-1.3c0-0.7,0.6-1.2,1.4-1.2C88.8,216.8,89.3,217,89.7,217.4z"/>
	<path class="st2" d="M91.7,215.1v0.9h-1v-0.9H91.7z M91.7,216.8v4.2h-1v-4.2H91.7z"/>
	<path class="st2" d="M96.1,218.9c0,1.3-0.7,2.2-1.8,2.2c-1.1,0-1.8-0.8-1.8-2.2c0-1.3,0.7-2.2,1.8-2.2S96.1,217.6,96.1,218.9z
		 M94.3,220.3c0.5,0,0.8-0.4,0.8-1.4c0-0.9-0.3-1.4-0.8-1.4c-0.6,0-0.8,0.5-0.8,1.4C93.5,219.9,93.8,220.3,94.3,220.3z"/>
	<path class="st2" d="M100.2,218.1v2.9h-1v-2.7c0-0.5-0.1-0.7-0.5-0.7c-0.3,0-0.7,0.2-0.9,0.4v3h-1v-4.2h0.9v0.4
		c0.5-0.4,0.9-0.5,1.3-0.5C99.8,216.8,100.2,217.3,100.2,218.1z"/>
	<path class="st2" d="M104.3,218.4v2c0,0.1,0,0.4,0.1,0.6h-1l-0.1-0.4c-0.4,0.3-0.8,0.4-1.3,0.4c-0.7,0-1.1-0.5-1.1-1.1
		c0-0.9,0.8-1.4,2.4-1.6V218c0-0.3-0.3-0.5-0.6-0.5c-0.3,0-0.6,0.2-0.9,0.5l-0.6-0.5c0.3-0.4,0.9-0.8,1.5-0.8
		C103.8,216.8,104.3,217.2,104.3,218.4z M102.4,220.3c0.3,0,0.6-0.2,0.9-0.4V219c-1.1,0.2-1.4,0.5-1.4,0.8
		C101.9,220.2,102.1,220.3,102.4,220.3z"/>
	<path class="st2" d="M106.4,215.2v5.8h-1v-5.8H106.4z"/>
	<path class="st2" d="M110.1,217.4l-0.6,0.5c-0.3-0.3-0.5-0.4-0.8-0.4c-0.4,0-0.6,0.2-0.6,0.4c0,0.2,0.2,0.4,0.7,0.6
		c1,0.3,1.3,0.7,1.3,1.4c0,0.8-0.6,1.2-1.5,1.2c-0.7,0-1.2-0.3-1.6-0.8l0.7-0.5c0.3,0.4,0.6,0.6,1,0.6c0.4,0,0.6-0.2,0.6-0.5
		c0-0.2-0.2-0.4-0.8-0.6c-1-0.3-1.3-0.7-1.3-1.3c0-0.7,0.6-1.2,1.4-1.2C109.2,216.8,109.8,217,110.1,217.4z"/>
	<path class="st2" d="M118.1,218.1c0,1.9-0.9,3-2.4,3s-2.4-1.1-2.4-3c0-1.9,0.9-3,2.4-3S118.1,216.2,118.1,218.1z M115.6,220.2
		c0.9,0,1.3-0.7,1.3-2c0-1.4-0.4-2-1.3-2c-0.9,0-1.3,0.6-1.3,2.1C114.3,219.5,114.7,220.2,115.6,220.2z"/>
	<path class="st2" d="M122.2,218.1v2.9h-1v-2.7c0-0.5-0.1-0.7-0.5-0.7c-0.3,0-0.7,0.2-0.9,0.4v3h-1v-4.2h0.9v0.4
		c0.5-0.4,0.9-0.5,1.3-0.5C121.8,216.8,122.2,217.3,122.2,218.1z"/>
	<path class="st2" d="M124.4,215.2v5.8h-1v-5.8H124.4z"/>
	<path class="st2" d="M126.1,216.8l0.7,2.6h0l0.7-2.6h1l-1.3,4.2c-0.1,0.2-0.2,0.5-0.4,0.8c-0.3,0.5-0.7,0.7-1.2,0.7
		c-0.2,0-0.3,0-0.5,0v-0.8c0.1,0,0.3,0,0.5,0c0.2,0,0.4,0,0.5-0.2c0.1-0.1,0.3-0.4,0.3-0.6c0-0.1,0-0.1,0-0.2l-1.2-3.9H126.1z"/>
</g>
<g class="st1">
	<path class="st2" d="M15.3,237.2v0.5h-2.8v1.9h2v0.5h-2v2.2h3v0.5h-3.6v-5.8H15.3z"/>
	<path class="st2" d="M16.7,237.2l1.4,4.7h0l1.4-4.7h0.6l-1.8,5.8h-0.6l-1.8-5.8H16.7z"/>
	<path class="st2" d="M24.4,237.2v0.4l-2.9,4.8h3v0.5h-3.7v-0.5l2.9-4.8H21v-0.5H24.4z"/>
	<path class="st2" d="M28.8,243.6v0.4h-4v-0.4H28.8z"/>
	<path class="st2" d="M33.1,238.7c0,0.6-0.2,1-0.6,1.4c-0.2,0.2-0.5,0.5-1,0.8c-0.7,0.5-1.2,0.9-1.5,1.6h3.1v0.5h-3.8v-0.6
		c0.3-0.7,0.9-1.3,1.5-1.7c0.3-0.2,0.6-0.4,0.9-0.6c0.5-0.4,0.8-0.8,0.8-1.4c0-0.7-0.4-1.1-1.2-1.1c-0.7,0-1.2,0.5-1.4,1.3l-0.6-0.1
		c0.3-1.1,0.9-1.6,1.9-1.6C32.3,237.1,33.1,237.7,33.1,238.7z"/>
	<path class="st2" d="M38.1,240.1c0,2-0.7,3-2,3c-1.3,0-2-1-2-3c0-2,0.7-3,2-3C37.5,237.1,38.1,238.2,38.1,240.1z M36.1,242.6
		c1,0,1.4-0.8,1.4-2.5c0-1.7-0.4-2.5-1.4-2.5c-1,0-1.4,0.8-1.4,2.5C34.7,241.8,35.1,242.6,36.1,242.6z"/>
	<path class="st2" d="M42.8,238.7c0,0.6-0.2,1-0.6,1.4c-0.2,0.2-0.5,0.5-1,0.8c-0.7,0.5-1.2,0.9-1.5,1.6h3.1v0.5h-3.8v-0.6
		c0.3-0.7,0.9-1.3,1.5-1.7c0.3-0.2,0.6-0.4,0.9-0.6c0.5-0.4,0.8-0.8,0.8-1.4c0-0.7-0.4-1.1-1.2-1.1c-0.7,0-1.2,0.5-1.4,1.3l-0.6-0.1
		c0.3-1.1,0.9-1.6,1.9-1.6C42.1,237.1,42.8,237.7,42.8,238.7z"/>
	<path class="st2" d="M47.7,238.7c0,0.6-0.2,1-0.6,1.4c-0.2,0.2-0.5,0.5-1,0.8c-0.7,0.5-1.2,0.9-1.5,1.6h3.1v0.5H44v-0.6
		c0.3-0.7,0.9-1.3,1.5-1.7c0.3-0.2,0.6-0.4,0.9-0.6c0.5-0.4,0.8-0.8,0.8-1.4c0-0.7-0.4-1.1-1.2-1.1c-0.7,0-1.2,0.5-1.4,1.3l-0.6-0.1
		c0.3-1.1,0.9-1.6,1.9-1.6C47,237.1,47.7,237.7,47.7,238.7z"/>
	<path class="st2" d="M52.3,243.6v0.4h-4v-0.4H52.3z"/>
	<path class="st2" d="M56.8,240.1c0,2-0.7,3-2,3c-1.3,0-2-1-2-3c0-2,0.7-3,2-3C56.1,237.1,56.8,238.2,56.8,240.1z M54.8,242.6
		c1,0,1.4-0.8,1.4-2.5c0-1.7-0.4-2.5-1.4-2.5c-1,0-1.4,0.8-1.4,2.5C53.3,241.8,53.8,242.6,54.8,242.6z"/>
	<path class="st2" d="M61.5,238.7c0,0.6-0.2,1-0.6,1.4c-0.2,0.2-0.5,0.5-1,0.8c-0.7,0.5-1.2,0.9-1.5,1.6h3.1v0.5h-3.8v-0.6
		c0.3-0.7,0.9-1.3,1.5-1.7c0.3-0.2,0.6-0.4,0.9-0.6c0.5-0.4,0.8-0.8,0.8-1.4c0-0.7-0.4-1.1-1.2-1.1c-0.7,0-1.2,0.5-1.4,1.3l-0.6-0.1
		c0.3-1.1,0.9-1.6,1.9-1.6C60.7,237.1,61.5,237.7,61.5,238.7z"/>
	<path class="st2" d="M66.4,237.2v0.4l-2.4,5.4h-0.7l2.4-5.3h-2.9v-0.5H66.4z"/>
	<path class="st2" d="M71.3,238.7c0,0.6-0.2,1-0.6,1.4c-0.2,0.2-0.5,0.5-1,0.8c-0.7,0.5-1.2,0.9-1.5,1.6h3.1v0.5h-3.8v-0.6
		c0.3-0.7,0.9-1.3,1.5-1.7c0.3-0.2,0.6-0.4,0.9-0.6c0.5-0.4,0.8-0.8,0.8-1.4c0-0.7-0.4-1.1-1.2-1.1c-0.7,0-1.2,0.5-1.4,1.3l-0.6-0.1
		c0.3-1.1,0.9-1.6,1.9-1.6C70.5,237.1,71.3,237.7,71.3,238.7z"/>
	<path class="st2" d="M75.9,243.6v0.4h-4v-0.4H75.9z"/>
	<path class="st2" d="M77.4,237.2v4.1c0,0.8,0.6,1.2,1.4,1.2c0.8,0,1.4-0.5,1.4-1.2v-4.1h0.6v4c0,1.1-0.8,1.8-2,1.8
		c-1.2,0-2-0.7-2-1.8v-4H77.4z"/>
	<path class="st2" d="M83.2,237.2v3l2.4-3h0.8l-1.8,2.2l2,3.6h-0.7l-1.7-3.1l-0.9,1.1v1.9h-0.6v-5.8H83.2z"/>
	<path class="st2" d="M96.1,237.2l2.5,4.4h0v-4.4h0.6v5.8h-0.5l-2.9-5.1h0v5.1h-0.6v-5.8H96.1z"/>
	<path class="st2" d="M105,240.1c0,1.6-0.6,3-2.3,3s-2.3-1.4-2.3-3c0-1.6,0.6-3,2.3-3C104.4,237.1,105,238.5,105,240.1z
		 M102.8,242.5c1,0,1.6-0.8,1.6-2.4c0-1.6-0.6-2.4-1.6-2.4c-1,0-1.6,0.8-1.6,2.4C101.1,241.7,101.7,242.5,102.8,242.5z"/>
	<path class="st2" d="M106.2,237.2l1.4,4.7h0l1.4-4.7h0.6l-1.8,5.8h-0.6l-1.8-5.8H106.2z"/>
	<path class="st2" d="M114.2,237.2v0.5h-2.8v1.9h2v0.5h-2v2.2h3v0.5h-3.6v-5.8H114.2z"/>
	<path class="st2" d="M116.6,237.2l1.5,4.7h0l1.4-4.7h1v5.8H120v-5.4l-1.6,5.4h-0.5l-1.6-5.4v5.4h-0.6v-5.8H116.6z"/>
	<path class="st2" d="M124.3,237.2c1,0,1.7,0.5,1.7,1.4c0,0.7-0.3,1.1-1,1.3l0,0c0.7,0.2,1.1,0.8,1.1,1.5c0,1-0.7,1.6-2.1,1.6h-1.8
		v-5.8H124.3z M124,239.7c0.7,0,1.4-0.3,1.4-1c0-0.7-0.4-0.9-1.1-0.9h-1.4v1.9H124z M124.2,242.5c0.9,0,1.4-0.3,1.4-1
		c0-0.8-0.7-1.2-1.5-1.2h-1.1v2.2H124.2z"/>
	<path class="st2" d="M131.1,237.2v0.5h-2.8v1.9h2v0.5h-2v2.2h3v0.5h-3.6v-5.8H131.1z"/>
	<path class="st2" d="M134.3,237.2c1.1,0,1.9,0.5,1.9,1.5c0,0.7-0.4,1.2-1.2,1.5l1.2,2.8h-0.7l-1.2-2.6h-1.4v2.6h-0.6v-5.8H134.3z
		 M134.3,239.8c0.8,0,1.3-0.3,1.3-1.1c0-0.7-0.4-1-1.3-1h-1.2v2.1H134.3z"/>
	<path class="st2" d="M143.7,238.7c0,0.6-0.2,1-0.6,1.4c-0.2,0.2-0.5,0.5-1,0.8c-0.7,0.5-1.2,0.9-1.5,1.6h3.1v0.5H140v-0.6
		c0.3-0.7,0.9-1.3,1.5-1.7c0.3-0.2,0.6-0.4,0.9-0.6c0.5-0.4,0.8-0.8,0.8-1.4c0-0.7-0.4-1.1-1.2-1.1c-0.7,0-1.2,0.5-1.4,1.3l-0.6-0.1
		c0.3-1.1,0.9-1.6,1.9-1.6C142.9,237.1,143.7,237.7,143.7,238.7z"/>
	<path class="st2" d="M148.8,240.1c0,2-0.7,3-2,3c-1.3,0-2-1-2-3c0-2,0.7-3,2-3C148.1,237.1,148.8,238.2,148.8,240.1z M146.8,242.6
		c1,0,1.4-0.8,1.4-2.5c0-1.7-0.4-2.5-1.4-2.5c-1,0-1.4,0.8-1.4,2.5C145.3,241.8,145.8,242.6,146.8,242.6z"/>
	<path class="st2" d="M153.5,238.7c0,0.6-0.2,1-0.6,1.4c-0.2,0.2-0.5,0.5-1,0.8c-0.7,0.5-1.2,0.9-1.5,1.6h3.1v0.5h-3.8v-0.6
		c0.3-0.7,0.9-1.3,1.5-1.7c0.3-0.2,0.6-0.4,0.9-0.6c0.5-0.4,0.8-0.8,0.8-1.4c0-0.7-0.4-1.1-1.2-1.1c-0.7,0-1.2,0.5-1.4,1.3l-0.6-0.1
		c0.3-1.1,0.9-1.6,1.9-1.6C152.7,237.1,153.5,237.7,153.5,238.7z"/>
	<path class="st2" d="M158.4,238.7c0,0.6-0.2,1-0.6,1.4c-0.2,0.2-0.5,0.5-1,0.8c-0.7,0.5-1.2,0.9-1.5,1.6h3.1v0.5h-3.8v-0.6
		c0.3-0.7,0.9-1.3,1.5-1.7c0.3-0.2,0.6-0.4,0.9-0.6c0.5-0.4,0.8-0.8,0.8-1.4c0-0.7-0.4-1.1-1.2-1.1c-0.7,0-1.2,0.5-1.4,1.3l-0.6-0.1
		c0.3-1.1,0.9-1.6,1.9-1.6C157.6,237.1,158.4,237.7,158.4,238.7z"/>
</g>
<g id="Layer_1" transform="translate(160.766 -9.208)">
	<g id="Group_11" transform="translate(23.5 20.872)">
		<path id="Path_80" class="st3" d="M10.1,24.3h1.1v1.6h0.1c0.4-1.1,1.5-1.8,2.7-1.8v1.1c-1.4,0.1-2.1,1-2.7,2.6v4.5h-1.1L10.1,24.3
			L10.1,24.3z"/>
		<path id="Path_81" class="st3" d="M17.6,32.5c-2.2,0-3.3-1.9-3.3-4.2s1.1-4.2,3.3-4.2s3.3,1.9,3.3,4.2
			C20.9,30.7,19.7,32.5,17.6,32.5 M17.6,25.1c-1.3,0-2.2,1.2-2.2,3.2s0.8,3.2,2.2,3.2c1.3,0,2.2-1.2,2.2-3.2
			C19.7,26.2,18.9,25.1,17.6,25.1"/>
		<path id="Path_82" class="st3" d="M24.3,27.1l1.8-2.9h1.2L25,28.1l2.7,4.2h-1.3L24.3,29l-2,3.3h-1.2l2.5-4.2l-2.4-3.9h1.3
			L24.3,27.1z"/>
		<path id="Path_83" class="st3" d="M28.2,25.8c0.6-1.1,1.8-1.7,3-1.7c1.4,0,2.8,0.6,2.8,2.4v4.1c0,0.6,0,1.2,0.2,1.8h-1.2L33,31.3
			c-0.7,0.8-1.7,1.3-2.7,1.3c-1.2,0.1-2.2-0.8-2.3-1.9c0-0.1,0-0.2,0-0.3c0-1.8,1.4-2.7,5-3.3v-0.4c0-1.1-0.7-1.5-1.6-1.5
			c-0.9-0.1-1.7,0.4-2.1,1.3L28.2,25.8z M32.9,28c-2.6,0.5-3.8,1.2-3.8,2.3c0.1,0.7,0.6,1.3,1.3,1.3c1-0.1,1.9-0.6,2.5-1.3L32.9,28z
			"/>
		<path id="Path_84" class="st3" d="M41.9,21.1v9.5c0,0.6,0,1.2,0.1,1.8h-1l-0.2-0.8c-0.5,0.6-1.3,1-2.1,1c-1.4,0-3.3-1-3.3-4.2
			c0-3.1,1.9-4.2,3.3-4.2c0.8,0,1.5,0.4,2.1,0.9l0.1,0.1v-3.9h1.1V21.1z M40.8,26.2c-0.5-0.6-1.3-1.1-2.1-1.1
			c-1.3,0-2.3,0.8-2.3,3.3c0,2.1,0.9,3.2,2.3,3.2c0.8-0.1,1.6-0.5,2.1-1.1V26.2z"/>
		<path id="Path_85" class="st3" d="M48.9,32.4v-1.1h-0.1c-0.6,0.7-1.4,1.2-2.4,1.3c-1.2,0.1-2.2-0.8-2.3-2c0-0.1,0-0.3,0-0.4v-5.9
			h1.1v5.9c0,1.1,0.5,1.4,1.3,1.4c0.9-0.1,1.7-0.6,2.3-1.2v-6.1H50v8.1H48.9z"/>
		<path id="Path_86" class="st3" d="M52.1,30.3c0.5,0.8,1.4,1.3,2.3,1.3c1.2,0,1.8-0.6,1.8-1.3c0-2.1-4.8-1-4.7-3.9
			c0.1-1.4,1.1-2.2,2.7-2.2c1.1,0,2.1,0.5,2.8,1.4l-0.8,0.7c-0.5-0.7-1.2-1.1-2.1-1.1c-1,0-1.5,0.5-1.5,1.2c0,1.8,4.7,0.8,4.7,3.9
			c0,1.6-1.4,2.4-2.9,2.4c-1.3,0-2.5-0.5-3.2-1.5L52.1,30.3z"/>
		<path id="Path_87" class="st3" d="M58.9,24.3v-2.7H60v2.7h1.9v1H60V31c0,0.4,0.3,0.6,0.9,0.6c0.4,0,0.7-0.1,1-0.1v0.9
			c-0.4,0.1-0.9,0.1-1.3,0.1c-1.2,0-1.8-0.3-1.8-1.3v-6h-1.3v-1L58.9,24.3z"/>
		<path id="Path_88" class="st3" d="M62.8,25.8c0.6-1.1,1.8-1.7,3-1.7c1.4,0,2.8,0.6,2.8,2.4v4.1c0,0.6,0,1.2,0.2,1.8h-1.2l-0.1-1.1
			c-0.7,0.8-1.7,1.3-2.7,1.3c-1.2,0.1-2.2-0.8-2.3-1.9c0-0.1,0-0.2,0-0.3c0-1.8,1.4-2.7,5-3.3v-0.4c0-1.1-0.7-1.5-1.6-1.5
			c-0.9-0.1-1.7,0.4-2.1,1.3L62.8,25.8z M67.5,28c-2.6,0.5-3.8,1.2-3.8,2.3c0.1,0.7,0.6,1.3,1.3,1.3c1-0.1,1.9-0.6,2.5-1.3L67.5,28z
			"/>
		<path id="Path_89" class="st3" d="M70.8,24.3v-2.7h1.1v2.7h1.9v1h-1.9V31c0,0.4,0.3,0.6,0.9,0.6c0.4,0,0.7-0.1,1-0.1v0.9
			c-0.4,0.1-0.9,0.1-1.3,0.1c-1.2,0-1.8-0.3-1.8-1.3v-6h-1.3v-1L70.8,24.3z"/>
		<path id="Path_90" class="st4" d="M86.1,8.4l10.3-4.4c2,1.3,3.4,3,3.8,4.8L86.1,8.4z"/>
		<path id="Path_91" class="st3" d="M82.4,0h-0.1c-4.8,0-3.6,2.6-2.1,5.4L82.4,0z"/>
		<path id="Path_92" class="st5" d="M95.3,3.4c-1.8-1-3.8-1.8-5.8-2.3L84,7L95.3,3.4z"/>
		<path id="Path_93" class="st3" d="M81.8,7.2l6.4-6.4c-1.7-0.4-3.4-0.7-5.1-0.7L81.8,7.2z"/>
		<path id="Path_94" class="st5" d="M89.7,17.7c2.1-0.6,4-1.4,5.9-2.4L84,11.5L89.7,17.7z"/>
		<path id="Path_95" class="st4" d="M86.1,10.1l10.6,4.6c2-1.5,3.3-3.2,3.5-4.9L86.1,10.1z"/>
		<path id="Path_96" class="st3" d="M80.4,13.2c-1.5,2.8-3,5.6,2,5.6h0.3L80.4,13.2z"/>
		<path id="Path_97" class="st3" d="M83.2,18.8c1.8-0.1,3.6-0.4,5.3-0.8l-6.6-6.6L83.2,18.8z"/>
		<path id="Path_98" class="st6" d="M0,18.6V1.9h9.6v2.4H2.9v4.4h5.9v2.4H2.9v5H10v2.4H0z"/>
		<path id="Path_99" class="st6" d="M18.5,6.1h2.6l-3.9,12.5h-2.5l-4-12.5h2.7l2.5,8.8H16L18.5,6.1z"/>
		<path id="Path_100" class="st6" d="M23.1,18.6V6.1h2.4v1.3h0.1c0.9-0.9,2-1.4,3.3-1.5l0.2,2.6c-0.3,0-0.6-0.1-0.8-0.1
			c-1,0-1.9,0.4-2.7,0.9v9.3L23.1,18.6L23.1,18.6z"/>
		<path id="Path_101" class="st6" d="M39.9,13.1h-6.8v1.8c0,1.4,0.7,1.8,2.1,1.8c1.3,0,2.2-0.3,2.2-1.8l2.5,0.2
			c-0.1,2.8-2.1,3.7-4.7,3.7c-2.9,0-4.7-1.1-4.7-4V9.9c0-2.9,1.8-4,4.7-4c2.9,0,4.7,1.1,4.7,4L39.9,13.1z M37.3,10.9V9.9
			c0-1.4-0.7-1.9-2.1-1.9s-2.1,0.5-2.1,1.9v1.1L37.3,10.9z"/>
		<path id="Path_102" class="st6" d="M42.6,18.6V6.1H45v1.2h0.1C46,6.5,47.3,6,48.5,5.9c2.2,0,3.1,1.4,3.1,3.6v9.1H49v-8.5
			c0-1.2-0.3-1.9-1.5-1.9c-0.9,0.1-1.7,0.5-2.3,1.2v9.3h-2.6L42.6,18.6z"/>
		<path id="Path_103" class="st6" d="M53.6,8.2V6.1h9v2.1l-6.1,8.1v0.2h6.2v2.1h-9.3v-2.1l6.1-8.1V8.2L53.6,8.2z"/>
		<path id="Path_104" class="st6" d="M64.2,9.8c0-2.9,1.8-3.9,4.7-3.9s4.8,1,4.8,3.9v5c0,2.9-1.8,4-4.8,4s-4.7-1.1-4.7-4V9.8z
			 M66.8,14.9c0,1.4,0.8,1.8,2.2,1.8s2.2-0.5,2.2-1.8v-5c0-1.4-0.8-1.8-2.2-1.8s-2.2,0.5-2.2,1.8V14.9z"/>
		<path id="Path_105" class="st6" d="M74.6,6.2h-0.5V5.9h1.5v0.3h-0.5v1.5h-0.4L74.6,6.2z"/>
		<path id="Path_106" class="st6" d="M75.8,5.9h0.6l0.4,1.2l0,0l0.4-1.2h0.5v1.8h-0.4V6.4l0,0L77,7.7h-0.3l-0.5-1.3l0,0v1.3h-0.4
			V5.9z"/>
	</g>
	<path id="Polygon_1" d="M125,25.3l-4.1-7.4h8.3L125,25.3z"/>
</g>
<path id="Polygon_1-2" d="M156.5,103.1l-4.5-8h9L156.5,103.1z"/>
</svg>
