<?xml version="1.0" encoding="utf-8"?>
<!-- Generator: Adobe Illustrator 27.0.0, SVG Export Plug-In . SVG Version: 6.00 Build 0)  -->
<svg version="1.1" id="Layer_1" xmlns="http://www.w3.org/2000/svg" xmlns:xlink="http://www.w3.org/1999/xlink" x="0px" y="0px"
	 viewBox="0 0 300 250" style="enable-background:new 0 0 300 250;" xml:space="preserve">
<style type="text/css">
	.st0{clip-path:url(#SVGID_00000050633295213606037030000014546591625278850727_);}
	.st1{fill:#FFFFFF;}
	.st2{enable-background:new    ;}
	.st3{fill:#4D4D4F;}
	.st4{fill:#AD1AAC;}
	.st5{fill:#43B02A;}
	.st6{fill:#4EC3E0;}
	.st7{fill:#007A33;}
	.st8{fill:none;}
</style>
<g>
	<defs>
		<rect id="SVGID_1_" y="0" width="300" height="250"/>
	</defs>
	<clipPath id="SVGID_00000172426934493898885390000004608744250818722689_">
		<use xlink:href="#SVGID_1_"  style="overflow:visible;"/>
	</clipPath>
	<g id="MPU_300x250_1" style="clip-path:url(#SVGID_00000172426934493898885390000004608744250818722689_);">
		<rect id="White-Bottom" y="166" class="st1" width="300" height="84"/>
		<g class="st2">
			<path class="st3" d="M15.3,195.2v0.5h-2.8v1.9h2v0.5h-2v2.2h3v0.5h-3.6v-5.8H15.3z"/>
			<path class="st3" d="M20,196.6l-0.6,0.1c-0.2-0.6-0.7-1-1.3-1c-0.7,0-1.1,0.3-1.1,0.9c0,0.5,0.5,0.7,1.1,1
				c1.1,0.4,2.1,0.7,2.1,1.8c0,1.2-0.8,1.7-1.9,1.7c-1,0-1.6-0.5-2.1-1.5l0.6-0.2c0.3,0.8,0.8,1.2,1.5,1.2c0.7,0,1.3-0.3,1.3-1
				c0-0.7-0.7-1-1.6-1.3c-1-0.4-1.7-0.7-1.7-1.6c0-0.9,0.8-1.5,1.7-1.5C19.1,195.1,19.7,195.7,20,196.6z"/>
			<path class="st3" d="M23.7,195.2l1.8,5.8h-0.7l-0.5-1.8h-2.1l-0.5,1.8H21l1.8-5.8H23.7z M22.3,198.6h1.8l-0.8-3h-0.1L22.3,198.6z
				"/>
			<path class="st3" d="M27.3,200.1v0.9l-0.5,1.2h-0.3l0.4-1.2h-0.3v-0.9H27.3z"/>
			<path class="st3" d="M34.1,198.6v0.4h-2.7c0,1,0.6,1.6,1.2,1.6c0.5,0,0.9-0.3,1.1-0.7l0.4,0.2c-0.4,0.7-0.9,1-1.6,1
				c-1.1,0-1.8-0.8-1.8-2.2c0-1.5,0.8-2.2,1.7-2.2C33.5,196.8,34.1,197.4,34.1,198.6z M33.6,198.5c0-0.8-0.4-1.3-1-1.3
				s-1,0.4-1.1,1.3H33.6z"/>
			<path class="st3" d="M37,197.4c-0.8,0-1.1,0.5-1.4,1.3v2.3h-0.6v-4.2h0.6v0.8h0c0.3-0.6,0.7-0.9,1.3-0.9h0V197.4z"/>
			<path class="st3" d="M37.9,196.8L39,200h0l1-3.2h0.6l-1.5,4.5c-0.3,0.8-0.7,1.2-1.4,1.2c-0.2,0-0.3,0-0.4,0V202
				c0.1,0,0.2,0,0.3,0c0.6,0,0.9-0.4,1.1-1l-1.4-4.2H37.9z"/>
			<path class="st3" d="M42.2,195.5v1.4h1v0.5h-1v3c0,0.2,0.1,0.3,0.5,0.3c0.2,0,0.3,0,0.5,0v0.5c-0.1,0-0.3,0.1-0.7,0.1
				c-0.6,0-0.9-0.1-0.9-0.7v-3.1h-0.7v-0.5h0.7v-1.4H42.2z"/>
			<path class="st3" d="M44.7,195.2v2.2h0c0.4-0.4,0.8-0.6,1.2-0.6c0.8,0,1.2,0.5,1.2,1.2v3.1h-0.6v-3c0-0.4-0.2-0.7-0.7-0.7
				c-0.4,0-0.9,0.3-1.2,0.6v3.1h-0.6v-5.8H44.7z"/>
			<path class="st3" d="M50.4,197.4c-0.8,0-1.1,0.5-1.4,1.3v2.3h-0.6v-4.2H49v0.8h0c0.3-0.6,0.7-0.9,1.3-0.9h0V197.4z"/>
			<path class="st3" d="M54.2,198.9c0,1.1-0.5,2.2-1.7,2.2s-1.7-1-1.7-2.2c0-1.1,0.5-2.2,1.7-2.2S54.2,197.8,54.2,198.9z
				 M52.5,200.6c0.8,0,1.1-0.8,1.1-1.7s-0.3-1.7-1.1-1.7c-0.8,0-1.1,0.9-1.1,1.7C51.4,199.7,51.7,200.6,52.5,200.6z"/>
			<path class="st3" d="M58.6,198.9c0,1.7-1.1,2.2-1.7,2.2c-0.4,0-0.8-0.2-1.1-0.5v1.9h-0.6v-5.7h0.6v0.5c0.2-0.3,0.7-0.6,1.1-0.6
				C57.5,196.8,58.6,197.1,58.6,198.9z M55.8,200c0.4,0.4,0.7,0.6,1.1,0.6c0.8,0,1.2-0.6,1.2-1.7c0-1-0.4-1.6-1.2-1.6
				c-0.4,0-0.8,0.3-1,0.6V200z"/>
			<path class="st3" d="M62.7,198.9c0,1.1-0.5,2.2-1.7,2.2s-1.7-1-1.7-2.2c0-1.1,0.5-2.2,1.7-2.2S62.7,197.8,62.7,198.9z M61,200.6
				c0.8,0,1.1-0.8,1.1-1.7s-0.3-1.7-1.1-1.7c-0.8,0-1.1,0.9-1.1,1.7C59.9,199.7,60.1,200.6,61,200.6z"/>
			<path class="st3" d="M64.4,195.1v0.7h-0.6v-0.7H64.4z M64.4,196.8v4.2h-0.6v-4.2H64.4z"/>
			<path class="st3" d="M68.8,198.6v0.4h-2.7c0,1,0.6,1.6,1.2,1.6c0.5,0,0.9-0.3,1.1-0.7l0.4,0.2c-0.4,0.7-0.9,1-1.6,1
				c-1.1,0-1.8-0.8-1.8-2.2c0-1.5,0.8-2.2,1.7-2.2C68.1,196.8,68.8,197.4,68.8,198.6z M68.2,198.5c0-0.8-0.4-1.3-1-1.3
				s-1,0.4-1.1,1.3H68.2z"/>
			<path class="st3" d="M72.3,197.5l-0.4,0.4c-0.3-0.4-0.6-0.6-1.1-0.6c-0.5,0-0.8,0.2-0.8,0.6c0,0.3,0.3,0.5,0.9,0.7
				c0.8,0.2,1.5,0.5,1.5,1.3c0,0.8-0.7,1.2-1.5,1.2c-0.6,0-1.3-0.3-1.7-0.8l0.5-0.3c0.3,0.4,0.7,0.6,1.2,0.6c0.5,0,0.9-0.2,0.9-0.7
				c0-0.4-0.3-0.6-0.9-0.7c-0.9-0.3-1.5-0.5-1.5-1.2c0-0.8,0.6-1.2,1.3-1.2C71.4,196.8,72,197,72.3,197.5z"/>
			<path class="st3" d="M74.2,195.1v0.7h-0.6v-0.7H74.2z M74.2,196.8v4.2h-0.6v-4.2H74.2z"/>
			<path class="st3" d="M78.1,197.5l-0.4,0.4c-0.3-0.4-0.6-0.6-1.1-0.6c-0.5,0-0.8,0.2-0.8,0.6c0,0.3,0.3,0.5,0.9,0.7
				c0.8,0.2,1.5,0.5,1.5,1.3c0,0.8-0.7,1.2-1.5,1.2c-0.6,0-1.3-0.3-1.7-0.8l0.5-0.3c0.3,0.4,0.7,0.6,1.2,0.6c0.5,0,0.9-0.2,0.9-0.7
				c0-0.4-0.3-0.6-0.9-0.7c-0.9-0.3-1.5-0.5-1.5-1.2c0-0.8,0.6-1.2,1.3-1.2C77.2,196.8,77.8,197,78.1,197.5z"/>
			<path class="st3" d="M80.9,198.7v0.5h-2v-0.5H80.9z"/>
			<path class="st3" d="M84.3,197.5l-0.4,0.4c-0.3-0.4-0.6-0.6-1.1-0.6c-0.5,0-0.8,0.2-0.8,0.6c0,0.3,0.3,0.5,0.9,0.7
				c0.8,0.2,1.5,0.5,1.5,1.3c0,0.8-0.7,1.2-1.5,1.2c-0.6,0-1.3-0.3-1.7-0.8l0.5-0.3c0.3,0.4,0.7,0.6,1.2,0.6c0.5,0,0.9-0.2,0.9-0.7
				c0-0.4-0.3-0.6-0.9-0.7c-0.9-0.3-1.5-0.5-1.5-1.2c0-0.8,0.6-1.2,1.3-1.2C83.4,196.8,84,197,84.3,197.5z"/>
			<path class="st3" d="M86.2,195.5v1.4h1v0.5h-1v3c0,0.2,0.1,0.3,0.5,0.3c0.2,0,0.3,0,0.5,0v0.5c-0.1,0-0.3,0.1-0.7,0.1
				c-0.6,0-0.9-0.1-0.9-0.7v-3.1h-0.7v-0.5h0.7v-1.4H86.2z"/>
			<path class="st3" d="M88.8,195.1v0.7h-0.6v-0.7H88.8z M88.8,196.8v4.2h-0.6v-4.2H88.8z"/>
			<path class="st3" d="M94.5,196.8c0.8,0,1.1,0.4,1.1,1.2v3h-0.6v-3c0-0.5-0.2-0.7-0.6-0.7c-0.5,0-0.8,0.3-1.2,0.6v3.1h-0.6v-3
				c0-0.5-0.2-0.7-0.6-0.7c-0.5,0-0.8,0.3-1.2,0.6v3.1h-0.6v-4.2h0.6v0.6c0.4-0.4,0.8-0.6,1.2-0.6c0.5,0,0.9,0.3,1.1,0.7
				C93.5,197,94,196.8,94.5,196.8z"/>
			<path class="st3" d="M97.6,196.8v3c0,0.4,0.2,0.7,0.7,0.7c0.4,0,0.9-0.3,1.2-0.6v-3.1h0.6v4.2h-0.6v-0.6h0
				c-0.4,0.4-0.8,0.6-1.2,0.6c-0.7,0-1.2-0.5-1.2-1.2v-3H97.6z"/>
			<path class="st3" d="M102.2,195.2v5.8h-0.6v-5.8H102.2z"/>
			<path class="st3" d="M106.4,198v2.2c0,0.2,0,0.5,0.1,0.8h-0.6l-0.1-0.6c-0.4,0.4-0.9,0.7-1.4,0.7c-0.7,0-1.2-0.5-1.2-1.2
				c0-1.2,1.4-1.5,2.5-1.7V198c0-0.6-0.4-0.8-0.9-0.8c-0.5,0-0.9,0.3-1.1,0.6l-0.5-0.3c0.3-0.6,0.9-0.9,1.6-0.9
				C105.8,196.8,106.4,197.2,106.4,198z M104.6,200.6c0.4,0,1-0.3,1.3-0.7v-1.1c-0.7,0.1-2,0.4-2,1.2
				C103.9,200.3,104.2,200.6,104.6,200.6z"/>
			<path class="st3" d="M108.4,195.5v1.4h1v0.5h-1v3c0,0.2,0.1,0.3,0.5,0.3c0.2,0,0.3,0,0.5,0v0.5c-0.1,0-0.3,0.1-0.7,0.1
				c-0.6,0-0.9-0.1-0.9-0.7v-3.1h-0.7v-0.5h0.7v-1.4H108.4z"/>
			<path class="st3" d="M111,195.1v0.7h-0.6v-0.7H111z M111,196.8v4.2h-0.6v-4.2H111z"/>
			<path class="st3" d="M115.6,197.9v3.1H115v-3c0-0.4-0.2-0.7-0.7-0.7c-0.4,0-0.9,0.3-1.2,0.6v3.1h-0.6v-4.2h0.6v0.6h0
				c0.4-0.4,0.8-0.6,1.2-0.6C115.1,196.8,115.6,197.2,115.6,197.9z"/>
			<path class="st3" d="M120.1,197.3c-0.3,0-0.5,0-0.6,0.1c0.2,0.2,0.3,0.5,0.3,0.8c0,0.8-0.7,1.5-1.5,1.5c-0.3,0-0.4,0-0.7-0.1
				c-0.2,0.1-0.3,0.2-0.3,0.4c0,0.2,0.1,0.3,0.4,0.3c1.8,0,2.6,0.3,2.6,1.2c0,0.6-0.6,1.1-1.9,1.1c-1.2,0-1.8-0.3-1.8-1
				c0-0.4,0.3-0.6,0.7-0.8c-0.3-0.1-0.5-0.3-0.5-0.6c0-0.4,0.3-0.5,0.6-0.7c-0.4-0.3-0.6-0.7-0.6-1.2c0-0.9,0.7-1.5,1.6-1.5
				c0.4,0,0.8,0.1,1,0.3c0.2-0.2,0.6-0.3,0.9-0.4V197.3z M118.3,202c0.8,0,1.3-0.2,1.3-0.6c0-0.4-0.4-0.6-1.4-0.6
				c-0.6,0-1.2,0.2-1.2,0.7C117,201.9,117.3,202,118.3,202z M118.3,199.2c0.6,0,1-0.4,1-0.9c0-0.6-0.4-1-1.1-1c-0.6,0-1,0.4-1,1
				S117.7,199.2,118.3,199.2z"/>
			<path class="st3" d="M126.2,198v2.2c0,0.2,0,0.5,0.1,0.8h-0.6l-0.1-0.6c-0.4,0.4-0.9,0.7-1.4,0.7c-0.7,0-1.2-0.5-1.2-1.2
				c0-1.2,1.4-1.5,2.5-1.7V198c0-0.6-0.4-0.8-0.9-0.8c-0.5,0-0.9,0.3-1.1,0.6l-0.5-0.3c0.3-0.6,0.9-0.9,1.6-0.9
				C125.6,196.8,126.2,197.2,126.2,198z M124.4,200.6c0.4,0,1-0.3,1.3-0.7v-1.1c-0.7,0.1-2,0.4-2,1.2
				C123.7,200.3,124,200.6,124.4,200.6z"/>
			<path class="st3" d="M130.6,197.3c-0.3,0-0.5,0-0.6,0.1c0.2,0.2,0.3,0.5,0.3,0.8c0,0.8-0.7,1.5-1.5,1.5c-0.3,0-0.4,0-0.7-0.1
				c-0.2,0.1-0.3,0.2-0.3,0.4c0,0.2,0.1,0.3,0.4,0.3c1.8,0,2.6,0.3,2.6,1.2c0,0.6-0.6,1.1-1.9,1.1c-1.2,0-1.8-0.3-1.8-1
				c0-0.4,0.3-0.6,0.7-0.8c-0.3-0.1-0.5-0.3-0.5-0.6c0-0.4,0.3-0.5,0.6-0.7c-0.4-0.3-0.6-0.7-0.6-1.2c0-0.9,0.7-1.5,1.6-1.5
				c0.4,0,0.8,0.1,1,0.3c0.2-0.2,0.6-0.3,0.9-0.4V197.3z M128.8,202c0.8,0,1.3-0.2,1.3-0.6c0-0.4-0.4-0.6-1.4-0.6
				c-0.6,0-1.2,0.2-1.2,0.7C127.5,201.9,127.7,202,128.8,202z M128.7,199.2c0.6,0,1-0.4,1-0.9c0-0.6-0.4-1-1.1-1c-0.6,0-1,0.4-1,1
				S128.1,199.2,128.7,199.2z"/>
			<path class="st3" d="M134.3,198.6v0.4h-2.7c0,1,0.6,1.6,1.2,1.6c0.5,0,0.9-0.3,1.1-0.7l0.4,0.2c-0.4,0.7-0.9,1-1.6,1
				c-1.1,0-1.8-0.8-1.8-2.2c0-1.5,0.8-2.2,1.7-2.2C133.7,196.8,134.3,197.4,134.3,198.6z M133.8,198.5c0-0.8-0.4-1.3-1-1.3
				s-1,0.4-1.1,1.3H133.8z"/>
			<path class="st3" d="M138.5,197.9v3.1h-0.6v-3c0-0.4-0.2-0.7-0.7-0.7c-0.4,0-0.9,0.3-1.2,0.6v3.1h-0.6v-4.2h0.6v0.6h0
				c0.4-0.4,0.8-0.6,1.2-0.6C138,196.8,138.5,197.2,138.5,197.9z"/>
			<path class="st3" d="M140.6,195.5v1.4h1v0.5h-1v3c0,0.2,0.1,0.3,0.5,0.3c0.2,0,0.3,0,0.5,0v0.5c-0.1,0-0.3,0.1-0.7,0.1
				c-0.6,0-0.9-0.1-0.9-0.7v-3.1h-0.7v-0.5h0.7v-1.4H140.6z"/>
			<path class="st3" d="M143.5,200.1v0.9l-0.5,1.2h-0.3l0.4-1.2h-0.3v-0.9H143.5z M143.5,197.8v0.9h-0.8v-0.9H143.5z"/>
			<path class="st3" d="M148.2,195.2v2.5h2.8v-2.5h0.6v5.8H151v-2.8h-2.8v2.8h-0.6v-5.8H148.2z"/>
			<path class="st3" d="M153.8,195.2v2c0.4-0.3,0.7-0.5,1.1-0.5c0.8,0,1.7,0.6,1.7,2.2c0,1.5-0.8,2.2-1.7,2.2
				c-0.5,0-0.9-0.2-1.2-0.5l-0.1,0.4h-0.4c0-0.1,0-0.3,0-0.4v-5.4H153.8z M153.8,200c0.4,0.4,0.7,0.6,1,0.6c0.9,0,1.2-0.8,1.2-1.6
				c0-1.1-0.4-1.7-1.2-1.7c-0.3,0-0.7,0.2-1,0.6V200z"/>
			<path class="st3" d="M158.6,200.1v0.9l-0.5,1.2h-0.3l0.4-1.2h-0.3v-0.9H158.6z"/>
			<path class="st3" d="M163.1,195.2v2.2h0c0.4-0.4,0.8-0.6,1.2-0.6c0.8,0,1.2,0.5,1.2,1.2v3.1H165v-3c0-0.4-0.2-0.7-0.7-0.7
				c-0.4,0-0.9,0.3-1.2,0.6v3.1h-0.6v-5.8H163.1z"/>
			<path class="st3" d="M169.7,198v2.2c0,0.2,0,0.5,0.1,0.8h-0.6l-0.1-0.6c-0.4,0.4-0.9,0.7-1.4,0.7c-0.7,0-1.2-0.5-1.2-1.2
				c0-1.2,1.4-1.5,2.5-1.7V198c0-0.6-0.4-0.8-0.9-0.8c-0.5,0-0.9,0.3-1.1,0.6l-0.5-0.3c0.3-0.6,0.9-0.9,1.6-0.9
				C169.1,196.8,169.7,197.2,169.7,198z M167.9,200.6c0.4,0,1-0.3,1.3-0.7v-1.1c-0.7,0.1-2,0.4-2,1.2
				C167.2,200.3,167.6,200.6,167.9,200.6z"/>
			<path class="st3" d="M173.9,198.6v0.4h-2.7c0,1,0.6,1.6,1.2,1.6c0.5,0,0.9-0.3,1.1-0.7l0.4,0.2c-0.4,0.7-0.9,1-1.6,1
				c-1.1,0-1.8-0.8-1.8-2.2c0-1.5,0.8-2.2,1.7-2.2C173.2,196.8,173.9,197.4,173.9,198.6z M173.3,198.5c0-0.8-0.4-1.3-1-1.3
				s-1,0.4-1.1,1.3H173.3z"/>
			<path class="st3" d="M179.1,196.8c0.8,0,1.1,0.4,1.1,1.2v3h-0.6v-3c0-0.5-0.2-0.7-0.6-0.7c-0.5,0-0.8,0.3-1.2,0.6v3.1h-0.6v-3
				c0-0.5-0.2-0.7-0.6-0.7c-0.5,0-0.8,0.3-1.2,0.6v3.1H175v-4.2h0.6v0.6c0.4-0.4,0.8-0.6,1.2-0.6c0.5,0,0.9,0.3,1.1,0.7
				C178.2,197,178.7,196.8,179.1,196.8z"/>
			<path class="st3" d="M184.7,198.9c0,1.1-0.5,2.2-1.7,2.2s-1.7-1-1.7-2.2c0-1.1,0.5-2.2,1.7-2.2S184.7,197.8,184.7,198.9z
				 M183,200.6c0.8,0,1.1-0.8,1.1-1.7s-0.3-1.7-1.1-1.7c-0.8,0-1.1,0.9-1.1,1.7C181.8,199.7,182.1,200.6,183,200.6z"/>
			<path class="st3" d="M188.8,197.3c-0.3,0-0.5,0-0.6,0.1c0.2,0.2,0.3,0.5,0.3,0.8c0,0.8-0.7,1.5-1.5,1.5c-0.3,0-0.4,0-0.7-0.1
				c-0.2,0.1-0.3,0.2-0.3,0.4c0,0.2,0.1,0.3,0.4,0.3c1.8,0,2.6,0.3,2.6,1.2c0,0.6-0.6,1.1-1.9,1.1c-1.2,0-1.8-0.3-1.8-1
				c0-0.4,0.3-0.6,0.7-0.8c-0.3-0.1-0.5-0.3-0.5-0.6c0-0.4,0.3-0.5,0.6-0.7c-0.4-0.3-0.6-0.7-0.6-1.2c0-0.9,0.7-1.5,1.6-1.5
				c0.4,0,0.8,0.1,1,0.3c0.2-0.2,0.6-0.3,0.9-0.4V197.3z M187,202c0.8,0,1.3-0.2,1.3-0.6c0-0.4-0.4-0.6-1.4-0.6
				c-0.6,0-1.2,0.2-1.2,0.7C185.7,201.9,185.9,202,187,202z M186.9,199.2c0.6,0,1-0.4,1-0.9c0-0.6-0.4-1-1.1-1c-0.6,0-1,0.4-1,1
				S186.3,199.2,186.9,199.2z"/>
			<path class="st3" d="M190.4,195.2v5.8h-0.6v-5.8H190.4z"/>
			<path class="st3" d="M194.9,198.9c0,1.1-0.5,2.2-1.7,2.2s-1.7-1-1.7-2.2c0-1.1,0.5-2.2,1.7-2.2S194.9,197.8,194.9,198.9z
				 M193.2,200.6c0.8,0,1.1-0.8,1.1-1.7s-0.3-1.7-1.1-1.7c-0.8,0-1.1,0.9-1.1,1.7C192.1,199.7,192.3,200.6,193.2,200.6z"/>
			<path class="st3" d="M196.5,195.2v2c0.4-0.3,0.7-0.5,1.1-0.5c0.8,0,1.7,0.6,1.7,2.2c0,1.5-0.8,2.2-1.7,2.2
				c-0.5,0-0.9-0.2-1.2-0.5l-0.1,0.4h-0.4c0-0.1,0-0.3,0-0.4v-5.4H196.5z M196.5,200c0.4,0.4,0.7,0.6,1,0.6c0.9,0,1.2-0.8,1.2-1.6
				c0-1.1-0.4-1.7-1.2-1.7c-0.3,0-0.7,0.2-1,0.6V200z"/>
			<path class="st3" d="M201,195.1v0.7h-0.6v-0.7H201z M201,196.8v4.2h-0.6v-4.2H201z"/>
			<path class="st3" d="M205.6,197.9v3.1H205v-3c0-0.4-0.2-0.7-0.7-0.7c-0.4,0-0.9,0.3-1.2,0.6v3.1h-0.6v-4.2h0.6v0.6h0
				c0.4-0.4,0.8-0.6,1.2-0.6C205.1,196.8,205.6,197.2,205.6,197.9z"/>
			<path class="st3" d="M207.9,200.1v0.9l-0.5,1.2h-0.3l0.4-1.2h-0.3v-0.9H207.9z M207.9,197.8v0.9h-0.8v-0.9H207.9z"/>
			<path class="st3" d="M212.8,195.2v5.8h-0.6v-5.8H212.8z"/>
			<path class="st3" d="M214.6,195.2l1.4,4.7h0l1.4-4.7h0.6l-1.8,5.8h-0.6l-1.8-5.8H214.6z"/>
			<path class="st3" d="M219,200.1v0.9l-0.5,1.2h-0.3l0.4-1.2h-0.3v-0.9H219z"/>
			<path class="st3" d="M223.7,195.1v0.7h-0.6v-0.7H223.7z M223.7,196.8v4.2h-0.6v-4.2H223.7z"/>
			<path class="st3" d="M228.2,197.9v3.1h-0.6v-3c0-0.4-0.2-0.7-0.7-0.7c-0.4,0-0.9,0.3-1.2,0.6v3.1h-0.6v-4.2h0.6v0.6h0
				c0.4-0.4,0.8-0.6,1.2-0.6C227.8,196.8,228.2,197.2,228.2,197.9z"/>
			<path class="st3" d="M230.4,195.5v1.4h1v0.5h-1v3c0,0.2,0.1,0.3,0.5,0.3c0.2,0,0.3,0,0.5,0v0.5c-0.1,0-0.3,0.1-0.7,0.1
				c-0.6,0-0.9-0.1-0.9-0.7v-3.1h-0.7v-0.5h0.7v-1.4H230.4z"/>
			<path class="st3" d="M234.1,197.4c-0.8,0-1.1,0.5-1.4,1.3v2.3h-0.6v-4.2h0.6v0.8h0c0.3-0.6,0.7-0.9,1.3-0.9h0V197.4z"/>
			<path class="st3" d="M237.7,198v2.2c0,0.2,0,0.5,0.1,0.8h-0.6l-0.1-0.6c-0.4,0.4-0.9,0.7-1.4,0.7c-0.7,0-1.2-0.5-1.2-1.2
				c0-1.2,1.4-1.5,2.5-1.7V198c0-0.6-0.4-0.8-0.9-0.8c-0.5,0-0.9,0.3-1.1,0.6l-0.5-0.3c0.3-0.6,0.9-0.9,1.6-0.9
				C237.1,196.8,237.7,197.2,237.7,198z M235.9,200.6c0.4,0,1-0.3,1.3-0.7v-1.1c-0.7,0.1-2,0.4-2,1.2
				C235.2,200.3,235.5,200.6,235.9,200.6z"/>
			<path class="st3" d="M239,196.8l1.1,3.4h0l1.1-3.4h0.6l-1.2,4.2h-0.8l-1.3-4.2H239z"/>
			<path class="st3" d="M245.4,198.6v0.4h-2.7c0,1,0.6,1.6,1.2,1.6c0.5,0,0.9-0.3,1.1-0.7l0.4,0.2c-0.4,0.7-0.9,1-1.6,1
				c-1.1,0-1.8-0.8-1.8-2.2c0-1.5,0.8-2.2,1.7-2.2C244.8,196.8,245.4,197.4,245.4,198.6z M244.9,198.5c0-0.8-0.4-1.3-1-1.3
				c-0.6,0-1,0.4-1.1,1.3H244.9z"/>
			<path class="st3" d="M249.6,197.9v3.1H249v-3c0-0.4-0.2-0.7-0.7-0.7c-0.4,0-0.9,0.3-1.2,0.6v3.1h-0.6v-4.2h0.6v0.6h0
				c0.4-0.4,0.8-0.6,1.2-0.6C249.1,196.8,249.6,197.2,249.6,197.9z"/>
			<path class="st3" d="M254,198.9c0,1.1-0.5,2.2-1.7,2.2s-1.7-1-1.7-2.2c0-1.1,0.5-2.2,1.7-2.2S254,197.8,254,198.9z M252.3,200.6
				c0.8,0,1.1-0.8,1.1-1.7s-0.3-1.7-1.1-1.7c-0.8,0-1.1,0.9-1.1,1.7C251.2,199.7,251.4,200.6,252.3,200.6z"/>
			<path class="st3" d="M255.6,196.8v3c0,0.4,0.2,0.7,0.7,0.7c0.4,0,0.9-0.3,1.2-0.6v-3.1h0.6v4.2h-0.6v-0.6h0
				c-0.4,0.4-0.8,0.6-1.2,0.6c-0.7,0-1.2-0.5-1.2-1.2v-3H255.6z"/>
			<path class="st3" d="M261.9,197.5l-0.4,0.4c-0.3-0.4-0.6-0.6-1.1-0.6c-0.5,0-0.8,0.2-0.8,0.6c0,0.3,0.3,0.5,0.9,0.7
				c0.8,0.2,1.5,0.5,1.5,1.3c0,0.8-0.7,1.2-1.5,1.2c-0.6,0-1.3-0.3-1.7-0.8l0.5-0.3c0.3,0.4,0.7,0.6,1.2,0.6c0.5,0,0.9-0.2,0.9-0.7
				c0-0.4-0.3-0.6-0.9-0.7c-0.9-0.3-1.5-0.5-1.5-1.2c0-0.8,0.6-1.2,1.3-1.2C260.9,196.8,261.6,197,261.9,197.5z"/>
		</g>
		<g class="st2">
			<path class="st3" d="M15.3,203.2v0.9h-2.6v1.4h1.9v0.9h-1.9v2.5h-1.1v-5.8H15.3z"/>
			<path class="st3" d="M19.3,206.9c0,1.3-0.7,2.2-1.8,2.2c-1.1,0-1.8-0.8-1.8-2.2c0-1.3,0.7-2.2,1.8-2.2S19.3,205.6,19.3,206.9z
				 M17.4,208.3c0.5,0,0.8-0.4,0.8-1.4c0-0.9-0.3-1.4-0.8-1.4c-0.6,0-0.8,0.5-0.8,1.4C16.6,207.9,16.9,208.3,17.4,208.3z"/>
			<path class="st3" d="M22,205.8c0,0-0.1,0-0.2,0c-0.5,0-0.9,0.5-0.9,0.7v2.5h-1v-4.2h0.9v0.7h0c0.2-0.5,0.6-0.8,1.2-0.8V205.8z"/>
			<path class="st3" d="M26.3,203.2v2.3h2.2v-2.3h1.1v5.8h-1.1v-2.5h-2.2v2.5h-1.1v-5.8H26.3z"/>
			<path class="st3" d="M34,206.6v0.4h-2.5c0,0.8,0.3,1.2,0.9,1.2c0.4,0,0.6-0.1,0.9-0.5l0.7,0.4c-0.4,0.6-0.9,0.8-1.7,0.8
				c-1.1,0-1.8-0.8-1.8-2.2s0.7-2.2,1.8-2.2C33.5,204.8,34,205.8,34,206.6z M33.1,206.4c0-0.6-0.3-0.9-0.8-0.9
				c-0.5,0-0.8,0.3-0.8,0.9H33.1z"/>
			<path class="st3" d="M37.8,206.4v2c0,0.1,0,0.4,0.1,0.6h-1l-0.1-0.4c-0.4,0.3-0.8,0.4-1.3,0.4c-0.7,0-1.1-0.5-1.1-1.1
				c0-0.9,0.8-1.4,2.4-1.6V206c0-0.3-0.3-0.5-0.6-0.5c-0.3,0-0.6,0.2-0.9,0.5l-0.6-0.5c0.3-0.4,0.9-0.8,1.5-0.8
				C37.4,204.8,37.8,205.2,37.8,206.4z M35.9,208.3c0.3,0,0.6-0.2,0.9-0.4V207c-1.1,0.2-1.4,0.5-1.4,0.8
				C35.5,208.2,35.7,208.3,35.9,208.3z"/>
			<path class="st3" d="M39.9,203.2v5.8h-1v-5.8H39.9z"/>
			<path class="st3" d="M42.2,203.5v1.4H43v0.8h-0.8v2.4c0,0.2,0.1,0.3,0.4,0.3c0.2,0,0.3,0,0.5-0.1v0.8c-0.3,0-0.5,0.1-0.8,0.1
				c-0.7,0-1-0.3-1-1v-2.5h-0.6v-0.8h0.6v-1.4H42.2z"/>
			<path class="st3" d="M44.7,203.2v2.1c0.4-0.4,0.8-0.5,1.2-0.5c0.8,0,1.2,0.5,1.2,1.4v2.9h-1v-2.7c0-0.5-0.1-0.7-0.5-0.7
				c-0.3,0-0.7,0.2-0.9,0.4v3h-1v-5.8H44.7z"/>
			<path class="st3" d="M51.3,205.9l-0.8,0.3c-0.2-0.5-0.4-0.6-0.8-0.6c-0.6,0-0.8,0.4-0.8,1.4c0,0.9,0.3,1.4,0.8,1.4
				c0.4,0,0.6-0.2,0.9-0.7l0.8,0.4c-0.4,0.7-0.9,1-1.6,1c-1.2,0-1.8-0.8-1.8-2.2c0-1.3,0.7-2.2,1.8-2.2
				C50.4,204.8,51.1,205.2,51.3,205.9z"/>
			<path class="st3" d="M55.2,206.4v2c0,0.1,0,0.4,0.1,0.6h-1l-0.1-0.4c-0.4,0.3-0.8,0.4-1.3,0.4c-0.7,0-1.1-0.5-1.1-1.1
				c0-0.9,0.8-1.4,2.4-1.6V206c0-0.3-0.3-0.5-0.6-0.5c-0.3,0-0.6,0.2-0.9,0.5l-0.6-0.5c0.3-0.4,0.9-0.8,1.5-0.8
				C54.7,204.8,55.2,205.2,55.2,206.4z M53.3,208.3c0.3,0,0.6-0.2,0.9-0.4V207c-1.1,0.2-1.4,0.5-1.4,0.8
				C52.8,208.2,53,208.3,53.3,208.3z"/>
			<path class="st3" d="M58.2,205.8c0,0-0.1,0-0.2,0c-0.5,0-0.9,0.5-0.9,0.7v2.5h-1v-4.2H57v0.7h0c0.2-0.5,0.6-0.8,1.2-0.8V205.8z"
				/>
			<path class="st3" d="M62,206.6v0.4h-2.5c0,0.8,0.3,1.2,0.9,1.2c0.4,0,0.6-0.1,0.9-0.5l0.7,0.4c-0.4,0.6-0.9,0.8-1.7,0.8
				c-1.1,0-1.8-0.8-1.8-2.2s0.7-2.2,1.8-2.2C61.5,204.8,62,205.8,62,206.6z M61.1,206.4c0-0.6-0.3-0.9-0.8-0.9
				c-0.5,0-0.8,0.3-0.8,0.9H61.1z"/>
			<path class="st3" d="M67.4,203.2c1.3,0,2,0.6,2,1.7s-0.7,1.7-2,1.7h-1v2.3h-1.1v-5.8H67.4z M67.3,205.8c0.7,0,1-0.2,1-0.8
				s-0.4-0.8-1-0.8h-0.9v1.6H67.3z"/>
			<path class="st3" d="M72.2,205.8c0,0-0.1,0-0.2,0c-0.5,0-0.9,0.5-0.9,0.7v2.5h-1v-4.2H71v0.7h0c0.2-0.5,0.6-0.8,1.2-0.8V205.8z"
				/>
			<path class="st3" d="M76.1,206.9c0,1.3-0.7,2.2-1.8,2.2c-1.1,0-1.8-0.8-1.8-2.2c0-1.3,0.7-2.2,1.8-2.2S76.1,205.6,76.1,206.9z
				 M74.3,208.3c0.5,0,0.8-0.4,0.8-1.4c0-0.9-0.3-1.4-0.8-1.4c-0.6,0-0.8,0.5-0.8,1.4C73.5,207.9,73.8,208.3,74.3,208.3z"/>
			<path class="st3" d="M78.8,203.1v0.8h-0.2c-0.5,0-0.6,0.2-0.6,0.5v0.4h0.8v0.8H78v3.4h-1v-3.4h-0.6v-0.8H77v-0.5
				c0-0.8,0.3-1.2,1.1-1.2H78.8z"/>
			<path class="st3" d="M82.7,206.6v0.4h-2.5c0,0.8,0.3,1.2,0.9,1.2c0.4,0,0.6-0.1,0.9-0.5l0.7,0.4c-0.4,0.6-0.9,0.8-1.7,0.8
				c-1.1,0-1.8-0.8-1.8-2.2s0.7-2.2,1.8-2.2C82.1,204.8,82.7,205.8,82.7,206.6z M81.8,206.4c0-0.6-0.3-0.9-0.8-0.9
				c-0.5,0-0.8,0.3-0.8,0.9H81.8z"/>
			<path class="st3" d="M86.1,205.4l-0.6,0.5c-0.3-0.3-0.5-0.4-0.8-0.4c-0.4,0-0.6,0.2-0.6,0.4c0,0.2,0.2,0.4,0.7,0.6
				c1,0.3,1.3,0.7,1.3,1.4c0,0.8-0.6,1.2-1.5,1.2c-0.7,0-1.2-0.3-1.6-0.8l0.7-0.5c0.3,0.4,0.6,0.6,1,0.6c0.4,0,0.6-0.2,0.6-0.5
				c0-0.2-0.2-0.4-0.8-0.6c-1-0.3-1.3-0.7-1.3-1.3c0-0.7,0.6-1.2,1.4-1.2C85.2,204.8,85.8,205,86.1,205.4z"/>
			<path class="st3" d="M89.7,205.4l-0.6,0.5c-0.3-0.3-0.5-0.4-0.8-0.4c-0.4,0-0.6,0.2-0.6,0.4c0,0.2,0.2,0.4,0.7,0.6
				c1,0.3,1.3,0.7,1.3,1.4c0,0.8-0.6,1.2-1.5,1.2c-0.7,0-1.2-0.3-1.6-0.8l0.7-0.5c0.3,0.4,0.6,0.6,1,0.6c0.4,0,0.6-0.2,0.6-0.5
				c0-0.2-0.2-0.4-0.8-0.6c-1-0.3-1.3-0.7-1.3-1.3c0-0.7,0.6-1.2,1.4-1.2C88.8,204.8,89.3,205,89.7,205.4z"/>
			<path class="st3" d="M91.7,203.1v0.9h-1v-0.9H91.7z M91.7,204.8v4.2h-1v-4.2H91.7z"/>
			<path class="st3" d="M96.1,206.9c0,1.3-0.7,2.2-1.8,2.2c-1.1,0-1.8-0.8-1.8-2.2c0-1.3,0.7-2.2,1.8-2.2S96.1,205.6,96.1,206.9z
				 M94.3,208.3c0.5,0,0.8-0.4,0.8-1.4c0-0.9-0.3-1.4-0.8-1.4c-0.6,0-0.8,0.5-0.8,1.4C93.5,207.9,93.8,208.3,94.3,208.3z"/>
			<path class="st3" d="M100.2,206.1v2.9h-1v-2.7c0-0.5-0.1-0.7-0.5-0.7c-0.3,0-0.7,0.2-0.9,0.4v3h-1v-4.2h0.9v0.4
				c0.5-0.4,0.9-0.5,1.3-0.5C99.8,204.8,100.2,205.3,100.2,206.1z"/>
			<path class="st3" d="M104.3,206.4v2c0,0.1,0,0.4,0.1,0.6h-1l-0.1-0.4c-0.4,0.3-0.8,0.4-1.3,0.4c-0.7,0-1.1-0.5-1.1-1.1
				c0-0.9,0.8-1.4,2.4-1.6V206c0-0.3-0.3-0.5-0.6-0.5c-0.3,0-0.6,0.2-0.9,0.5l-0.6-0.5c0.3-0.4,0.9-0.8,1.5-0.8
				C103.8,204.8,104.3,205.2,104.3,206.4z M102.4,208.3c0.3,0,0.6-0.2,0.9-0.4V207c-1.1,0.2-1.4,0.5-1.4,0.8
				C101.9,208.2,102.1,208.3,102.4,208.3z"/>
			<path class="st3" d="M106.4,203.2v5.8h-1v-5.8H106.4z"/>
			<path class="st3" d="M110.1,205.4l-0.6,0.5c-0.3-0.3-0.5-0.4-0.8-0.4c-0.4,0-0.6,0.2-0.6,0.4c0,0.2,0.2,0.4,0.7,0.6
				c1,0.3,1.3,0.7,1.3,1.4c0,0.8-0.6,1.2-1.5,1.2c-0.7,0-1.2-0.3-1.6-0.8l0.7-0.5c0.3,0.4,0.6,0.6,1,0.6c0.4,0,0.6-0.2,0.6-0.5
				c0-0.2-0.2-0.4-0.8-0.6c-1-0.3-1.3-0.7-1.3-1.3c0-0.7,0.6-1.2,1.4-1.2C109.2,204.8,109.8,205,110.1,205.4z"/>
			<path class="st3" d="M118.1,206.1c0,1.9-0.9,3-2.4,3s-2.4-1.1-2.4-3c0-1.9,0.9-3,2.4-3S118.1,204.2,118.1,206.1z M115.6,208.2
				c0.9,0,1.3-0.7,1.3-2c0-1.4-0.4-2-1.3-2c-0.9,0-1.3,0.6-1.3,2.1C114.3,207.5,114.7,208.2,115.6,208.2z"/>
			<path class="st3" d="M122.2,206.1v2.9h-1v-2.7c0-0.5-0.1-0.7-0.5-0.7c-0.3,0-0.7,0.2-0.9,0.4v3h-1v-4.2h0.9v0.4
				c0.5-0.4,0.9-0.5,1.3-0.5C121.8,204.8,122.2,205.3,122.2,206.1z"/>
			<path class="st3" d="M124.4,203.2v5.8h-1v-5.8H124.4z"/>
			<path class="st3" d="M126.1,204.8l0.7,2.6h0l0.7-2.6h1l-1.3,4.2c-0.1,0.2-0.2,0.5-0.4,0.8c-0.3,0.5-0.7,0.7-1.2,0.7
				c-0.2,0-0.3,0-0.5,0v-0.8c0.1,0,0.3,0,0.5,0c0.2,0,0.4,0,0.5-0.2c0.1-0.1,0.3-0.4,0.3-0.6c0-0.1,0-0.1,0-0.2l-1.2-3.9H126.1z"/>
		</g>
		<g class="st2">
			<path class="st3" d="M24.6,20.2V22H21v2.5h2.7v1.8H21v2.8h3.7V31h-5.8V20.2H24.6z"/>
			<path class="st3" d="M27.8,20.2l1.9,7.7h0l1.9-7.7h2L30.9,31h-2.4l-2.8-10.8H27.8z"/>
			<path class="st3" d="M37.8,20.2c2.2,0,3.6,1,3.6,3.2c0,1.3-0.5,2.3-1.6,2.8l2,4.8h-2.2l-1.8-4.4h-1V31h-2.1V20.2H37.8z
				 M37.9,24.9c0.9,0,1.4-0.5,1.4-1.5c0-1-0.5-1.5-1.4-1.5h-1.1v3H37.9z"/>
			<path class="st3" d="M48.8,20.2V22h-3.6v2.5h2.7v1.8h-2.7v2.8h3.7V31h-5.8V20.2H48.8z"/>
			<path class="st3" d="M53,20.2l2.9,6.4h0v-6.4h1.9V31h-2l-3.2-7h0v7h-1.9V20.2H53z"/>
			<path class="st3" d="M65.8,20.2v1.7l-4.1,7.3h4.2V31h-6.5v-1.8l4.1-7.2h-3.7v-1.8H65.8z"/>
			<path class="st3" d="M73.1,21c0.6,0.6,0.8,1.5,0.8,2.6v4c0,2.2-1.1,3.6-3.4,3.6c-2.3,0-3.4-1.3-3.4-3.6v-4c0-2.2,1.1-3.6,3.4-3.6
				C71.7,20,72.5,20.3,73.1,21z M69.2,27.9c0,0.9,0.3,1.5,1.4,1.5s1.3-0.5,1.3-1.5v-4.5c0-0.9-0.3-1.5-1.4-1.5c-1,0-1.3,0.5-1.3,1.5
				V27.9z"/>
			<path class="st3" d="M85.4,25.1v5.2c0,0.1,0,0.3,0.1,0.6h-1.9l-0.1-0.8c-0.6,0.6-1.3,0.9-2.2,0.9c-1.1,0-1.9-0.6-1.9-2
				c0-2,2-2.7,4.2-3.4v-0.6c0-0.6-0.4-1-1-1c-0.6,0-1,0.4-1,1h-1.9c0.1-1.7,1.4-2.5,3-2.5C84.4,22.7,85.4,23.6,85.4,25.1z
				 M82.1,29.7c0.6,0,1-0.3,1.4-0.8v-2c-0.8,0.3-2.3,0.9-2.3,1.9C81.2,29.4,81.6,29.7,82.1,29.7z"/>
			<path class="st3" d="M93.1,25.7h-1.9v-0.4c0-0.5-0.4-0.9-1.1-0.9c-0.7,0-1.1,0.4-1.1,0.9v3.3c0,0.6,0.4,0.9,1.1,0.9
				c0.7,0,1.1-0.3,1.1-0.9V28h1.9c0,2.1-1,3.1-3,3.1c-2.1,0-3-1.1-3-3v-2.4c0-1.9,0.9-3,3-3C92,22.7,93.1,23.7,93.1,25.7z"/>
			<path class="st3" d="M96.6,20.2v3.6c0.8-0.8,1.4-1.1,2.1-1.1c1.2,0,1.7,0.7,1.7,2V31h-1.9v-6c0-0.5-0.2-0.9-0.7-0.9
				c-0.4,0-0.8,0.4-1.2,0.7V31h-1.9V20.2H96.6z"/>
			<path class="st3" d="M104.4,19.7v1.7h-1.9v-1.7H104.4z M104.4,22.8V31h-1.9v-8.2H104.4z"/>
			<path class="st3" d="M112.3,25.4v1.9h-4.1v1.1c0,0.7,0.4,1.1,1.1,1.1c0.7,0,1.1-0.4,1.1-1.1h1.9c-0.1,1.7-1.1,2.7-3,2.7
				c-1.8,0-3-1.1-3-2.9v-2.7c0-1.7,1.2-2.8,3-2.8C111,22.7,112.3,23.8,112.3,25.4z M110.4,25.8v-0.5c0-0.7-0.4-1.2-1.1-1.2
				c-0.7,0-1.1,0.4-1.1,1.1v0.5H110.4z"/>
			<path class="st3" d="M115.1,22.8l1.2,5.2h0l1.2-5.2l0,0h1.9l-2.2,8.2h-1.9l-2.2-8.2H115.1z"/>
			<path class="st3" d="M126.4,25.4v1.9h-4.1v1.1c0,0.7,0.4,1.1,1.1,1.1c0.7,0,1.1-0.4,1.1-1.1h1.9c-0.1,1.7-1.1,2.7-3,2.7
				c-1.8,0-3-1.1-3-2.9v-2.7c0-1.7,1.2-2.8,3-2.8C125.1,22.7,126.4,23.8,126.4,25.4z M124.5,25.8v-0.5c0-0.7-0.4-1.2-1.1-1.2
				c-0.7,0-1.1,0.4-1.1,1.1v0.5H124.5z"/>
			<path class="st3" d="M133.2,24.7l-1.6,0.6c-0.3-0.8-0.7-1.1-1.3-1.1c-0.4,0-0.8,0.3-0.8,0.7c0,0.5,0.5,0.8,1.5,1.2
				c1.4,0.7,2.2,1.3,2.2,2.5c0,1.6-1.2,2.5-2.7,2.5c-1.7,0-2.4-0.8-3.1-2.3l1.7-0.5c0.2,0.8,0.6,1.3,1.4,1.3c0.6,0,0.9-0.3,0.9-0.7
				c0-0.6-0.6-1-1.6-1.4c-1-0.5-2.1-1-2.1-2.5c0-1.5,1.2-2.3,2.6-2.3C131.7,22.7,132.7,23.4,133.2,24.7z"/>
		</g>
		<g class="st2">
			<path class="st3" d="M24.5,40.1v5.2c0,0.1,0,0.3,0.1,0.6h-1.9l-0.1-0.8c-0.6,0.6-1.3,0.9-2.2,0.9c-1.1,0-1.9-0.6-1.9-2
				c0-2,2-2.7,4.2-3.4v-0.6c0-0.6-0.4-1-1-1c-0.6,0-1,0.4-1,1h-1.9c0.1-1.7,1.4-2.5,3-2.5C23.6,37.7,24.5,38.6,24.5,40.1z
				 M21.2,44.7c0.6,0,1-0.3,1.4-0.8v-2c-0.8,0.3-2.3,0.9-2.3,1.9C20.4,44.4,20.7,44.7,21.2,44.7z"/>
			<path class="st3" d="M32.1,39.7V46h-1.9v-6c0-0.5-0.2-0.9-0.7-0.9c-0.4,0-0.8,0.3-1.2,0.7V46h-1.9v-8.2h1.8v0.9
				c0.9-0.8,1.5-1.1,2.1-1.1C31.6,37.7,32.1,38.4,32.1,39.7z"/>
			<path class="st3" d="M39.6,35.2V46h-1.7v-1h0c-0.4,0.6-1.3,1.1-2,1.1c-1.4,0-2.1-1.1-2.1-3.2v-2.1c0-2.1,0.6-3.2,2.1-3.2
				c0.5,0,1,0.3,1.9,0.9v-3.4H39.6z M37.7,39.7c-0.4-0.4-0.7-0.6-1.2-0.6c-0.6,0-0.9,0.6-0.9,1.9v2c0,1.2,0.3,1.8,0.9,1.8
				c0.4,0,0.8-0.2,1.1-0.6V39.7z"/>
			<path class="st3" d="M50.9,38.9c0.7-0.7,1.2-1.2,2-1.2c1.2,0,1.7,0.7,1.7,2.1V46h-1.9v-6.2c0-0.5-0.2-0.7-0.5-0.7
				c-0.3,0-1,0.4-1.2,0.7V46h-1.9v-6.2c0-0.5-0.2-0.7-0.5-0.7c-0.4,0-0.8,0.3-1.2,0.7V46h-1.9v-8.2h1.8v0.9c0.7-0.6,1.2-1.1,2-1.1
				C50.1,37.7,50.6,38.2,50.9,38.9z"/>
			<path class="st3" d="M62,40.1v5.2c0,0.1,0,0.3,0.1,0.6h-1.9l-0.1-0.8c-0.6,0.6-1.3,0.9-2.2,0.9c-1.1,0-1.9-0.6-1.9-2
				c0-2,2-2.7,4.2-3.4v-0.6c0-0.6-0.4-1-1-1c-0.6,0-1,0.4-1,1h-1.9c0.1-1.7,1.4-2.5,3-2.5C61.1,37.7,62,38.6,62,40.1z M58.7,44.7
				c0.6,0,1-0.3,1.4-0.8v-2c-0.8,0.3-2.3,0.9-2.3,1.9C57.9,44.4,58.2,44.7,58.7,44.7z"/>
			<path class="st3" d="M66,34.7v1.7h-1.9v-1.7H66z M66,37.8V46h-1.9v-8.2H66z"/>
			<path class="st3" d="M73.8,39.7V46h-1.9v-6c0-0.5-0.2-0.9-0.7-0.9c-0.4,0-0.8,0.3-1.2,0.7V46h-1.9v-8.2h1.8v0.9
				c0.9-0.8,1.5-1.1,2.1-1.1C73.3,37.7,73.8,38.4,73.8,39.7z"/>
			<path class="st3" d="M77.4,36v2.2h1.2v1.5h-1.2v4.2c0,0.4,0.2,0.6,0.9,0.6c0.1,0,0.2,0,0.3,0v1.6c-0.4,0.1-0.8,0.1-1.1,0.1
				c-1.5,0-2.1-0.6-2.1-1.6v-4.8h-0.8v-1.5h0.8V36H77.4z"/>
			<path class="st3" d="M85.4,40.1v5.2c0,0.1,0,0.3,0.1,0.6h-1.9l-0.1-0.8c-0.6,0.6-1.3,0.9-2.2,0.9c-1.1,0-1.9-0.6-1.9-2
				c0-2,2-2.7,4.2-3.4v-0.6c0-0.6-0.4-1-1-1c-0.6,0-1,0.4-1,1h-1.9c0.1-1.7,1.4-2.5,3-2.5C84.4,37.7,85.4,38.6,85.4,40.1z M82,44.7
				c0.6,0,1-0.3,1.4-0.8v-2c-0.8,0.3-2.3,0.9-2.3,1.9C81.2,44.4,81.5,44.7,82,44.7z"/>
			<path class="st3" d="M89.4,34.7v1.7h-1.9v-1.7H89.4z M89.4,37.8V46h-1.9v-8.2H89.4z"/>
			<path class="st3" d="M97.1,39.7V46h-1.9v-6c0-0.5-0.2-0.9-0.7-0.9c-0.4,0-0.8,0.3-1.2,0.7V46h-1.9v-8.2h1.8v0.9
				c0.9-0.8,1.5-1.1,2.1-1.1C96.6,37.7,97.1,38.4,97.1,39.7z"/>
			<path class="st3" d="M104.1,39.7l-1.6,0.6c-0.3-0.8-0.7-1.1-1.3-1.1c-0.4,0-0.8,0.3-0.8,0.7c0,0.5,0.5,0.8,1.5,1.2
				c1.4,0.7,2.2,1.3,2.2,2.5c0,1.6-1.2,2.5-2.7,2.5c-1.7,0-2.4-0.8-3.1-2.3l1.7-0.5c0.2,0.8,0.6,1.3,1.4,1.3c0.6,0,0.9-0.3,0.9-0.7
				c0-0.6-0.6-1-1.6-1.4c-1-0.5-2.1-1-2.1-2.5c0-1.5,1.2-2.3,2.6-2.3C102.5,37.7,103.5,38.4,104.1,39.7z"/>
			<path class="st3" d="M111.6,36v2.2h1.2v1.5h-1.2v4.2c0,0.4,0.2,0.6,0.9,0.6c0.1,0,0.2,0,0.3,0v1.6c-0.4,0.1-0.8,0.1-1.1,0.1
				c-1.5,0-2.1-0.6-2.1-1.6v-4.8h-0.8v-1.5h0.8V36H111.6z"/>
			<path class="st3" d="M119.5,40.1v5.2c0,0.1,0,0.3,0.1,0.6h-1.9l-0.1-0.8c-0.6,0.6-1.3,0.9-2.2,0.9c-1.1,0-1.9-0.6-1.9-2
				c0-2,2-2.7,4.2-3.4v-0.6c0-0.6-0.4-1-1-1c-0.6,0-1,0.4-1,1h-1.9c0.1-1.7,1.4-2.5,3-2.5C118.6,37.7,119.5,38.6,119.5,40.1z
				 M116.2,44.7c0.6,0,1-0.3,1.4-0.8v-2c-0.8,0.3-2.3,0.9-2.3,1.9C115.4,44.4,115.7,44.7,116.2,44.7z"/>
			<path class="st3" d="M125.2,39.7c-0.3-0.1-0.7-0.2-1-0.2c-0.6,0-0.9,0.4-0.9,0.9V46h-1.9v-8.2h1.8v1.1h0c0.4-0.8,1-1.2,1.9-1.2
				V39.7z"/>
			<path class="st3" d="M131,38.6c0.5-0.6,0.9-0.9,1.6-0.9v1.6c-0.2,0-0.4-0.1-0.6-0.1c-0.2,0-0.4,0.1-0.6,0.2
				c0.1,0.5,0.2,1,0.2,1.5c0,2.1-0.9,3.2-2.7,3.2c-0.3,0-0.5,0-0.8-0.1c-0.1,0.1-0.3,0.3-0.3,0.5c0,0.3,0.5,0.4,1.4,0.4
				c1.8,0,3.3,0.3,3.3,2c0,1.3-1.3,2.1-3.6,2.1c-2,0-3.1-0.6-3.1-1.5c0-0.7,0.8-1,1.1-1.3c-0.5-0.3-0.8-0.6-0.8-1.1
				c0-0.5,0.3-0.9,1.1-1.4c-1-0.7-1.2-1.5-1.2-2.8c0-2.1,0.9-3.1,2.8-3.1C129.6,37.7,130.6,38,131,38.6z M128,46.4
				c-0.2,0.2-0.3,0.3-0.3,0.6c0,0.4,0.6,0.6,1.7,0.6c0.9,0,1.4-0.2,1.4-0.6c0-0.2-0.1-0.4-0.5-0.4L128,46.4L128,46.4z M128.8,42.5
				c0.8,0,1.1-0.3,1.1-1.7c0-1.1-0.3-1.6-1-1.6c-0.7,0-1,0.6-1,1.8C127.9,42,128.2,42.5,128.8,42.5z"/>
			<path class="st3" d="M139.8,40.4v1.9h-4.1v1.1c0,0.7,0.4,1.1,1.1,1.1c0.7,0,1.1-0.4,1.1-1.1h1.9c-0.1,1.7-1.1,2.7-3,2.7
				c-1.8,0-3-1.1-3-2.9v-2.7c0-1.7,1.2-2.8,3-2.8C138.5,37.7,139.8,38.8,139.8,40.4z M137.9,40.8v-0.5c0-0.7-0.4-1.2-1.1-1.2
				c-0.7,0-1.1,0.4-1.1,1.1v0.5H137.9z"/>
			<path class="st3" d="M143.2,36v2.2h1.2v1.5h-1.2v4.2c0,0.4,0.2,0.6,0.9,0.6c0.1,0,0.2,0,0.3,0v1.6c-0.4,0.1-0.8,0.1-1.1,0.1
				c-1.5,0-2.1-0.6-2.1-1.6v-4.8h-0.8v-1.5h0.8V36H143.2z"/>
		</g>
		<g class="st2">
			<path class="st3" d="M21.1,50.2v4.3H24v-4.3h2.1V61H24v-4.7h-2.9V61H19V50.2H21.1z"/>
			<path class="st3" d="M30,50.2v3.4c0.6-0.4,1.2-0.9,1.9-0.9c1.4,0,2.1,1.1,2.1,3.2V58c0,2.1-0.6,3.2-2.1,3.2c-0.7,0-1.6-0.5-2-1.1
				h0v1h-1.7V50.2H30z M30,59.2c0.4,0.4,0.7,0.6,1.1,0.6c0.7,0,0.9-0.7,0.9-1.9v-1.9c0-1.2-0.3-1.8-0.9-1.8c-0.5,0-0.8,0.2-1.2,0.6
				V59.2z"/>
			<path class="st3" d="M41.9,50.2V61H40V50.2H41.9z"/>
			<path class="st3" d="M49.8,55.4v1.9h-4.1v1.1c0,0.7,0.4,1.1,1.1,1.1c0.7,0,1.1-0.4,1.1-1.1h1.9c-0.1,1.7-1.1,2.7-3,2.7
				c-1.8,0-3-1.1-3-2.9v-2.7c0-1.7,1.2-2.8,3-2.8C48.5,52.7,49.8,53.8,49.8,55.4z M47.9,55.8v-0.5c0-0.7-0.4-1.2-1.1-1.2
				c-0.7,0-1.1,0.4-1.1,1.1v0.5H47.9z"/>
			<path class="st3" d="M52.6,52.8l1.2,5.2h0l1.2-5.2l0,0H57L54.8,61h-1.9l-2.2-8.2H52.6z"/>
			<path class="st3" d="M63.9,55.4v1.9h-4.1v1.1c0,0.7,0.4,1.1,1.1,1.1c0.7,0,1.1-0.4,1.1-1.1h1.9c-0.1,1.7-1.1,2.7-3,2.7
				c-1.8,0-3-1.1-3-2.9v-2.7c0-1.7,1.2-2.8,3-2.8C62.6,52.7,63.9,53.8,63.9,55.4z M62,55.8v-0.5c0-0.7-0.4-1.2-1.1-1.2
				c-0.7,0-1.1,0.4-1.1,1.1v0.5H62z"/>
			<path class="st3" d="M67.7,50.2V61h-1.9V50.2H67.7z"/>
			<path class="st3" d="M74.9,54.7l-1.6,0.6c-0.3-0.8-0.7-1.1-1.3-1.1c-0.4,0-0.8,0.3-0.8,0.7c0,0.5,0.5,0.8,1.5,1.2
				c1.4,0.7,2.2,1.3,2.2,2.5c0,1.6-1.2,2.5-2.7,2.5c-1.7,0-2.4-0.8-3.1-2.3l1.7-0.5c0.2,0.8,0.6,1.3,1.4,1.3c0.6,0,0.9-0.3,0.9-0.7
				c0-0.6-0.6-1-1.6-1.4c-1-0.5-2.1-1-2.1-2.5c0-1.5,1.2-2.3,2.6-2.3C73.3,52.7,74.4,53.4,74.9,54.7z"/>
		</g>
		<g class="st2">
			<path class="st3" d="M78.7,49.6V56h-1.1v-4.8h-1v-0.7c0.5-0.1,0.9-0.2,1.4-0.9H78.7z"/>
			<path class="st3" d="M82.2,54.8V56l-0.6,1.3H81l0.4-1.3H81v-1.2H82.2z"/>
			<path class="st3" d="M87.2,51.4c0,1-0.8,1.8-1.6,2.6l-1,1h2.5v1h-4v-1c1-0.9,1.6-1.5,1.8-1.8c0.6-0.6,1.1-1.1,1.1-1.7
				c0-0.5-0.3-0.9-0.8-0.9s-0.9,0.3-0.9,0.9v0.2h-1.2v-0.3c0-1.1,0.9-1.8,2-1.8C86.3,49.6,87.2,50.2,87.2,51.4z"/>
		</g>
		<g class="st2">
			<path class="st3" d="M93.8,52.8l1.1,5.1h0l1.1-5.1h1.6l1.2,5.1h0l1-5.1h1.8L99.7,61h-1.8l-1.2-5.1h0l-1,5.1H94l-2-8.2H93.8z"/>
			<path class="st3" d="M104.9,49.7v1.7H103v-1.7H104.9z M104.9,52.8V61H103v-8.2H104.9z"/>
			<path class="st3" d="M108.7,51v2.2h1.2v1.5h-1.2v4.2c0,0.4,0.2,0.6,0.9,0.6c0.1,0,0.2,0,0.3,0v1.6c-0.4,0.1-0.8,0.1-1.1,0.1
				c-1.5,0-2.1-0.6-2.1-1.6v-4.8h-0.8v-1.5h0.8V51H108.7z"/>
			<path class="st3" d="M113,50.2v3.6c0.8-0.8,1.4-1.1,2.1-1.1c1.2,0,1.7,0.7,1.7,2V61h-1.9v-6c0-0.5-0.2-0.9-0.7-0.9
				c-0.4,0-0.8,0.4-1.2,0.7V61h-1.9V50.2H113z"/>
			<path class="st3" d="M128.4,55.1v5.2c0,0.1,0,0.3,0.1,0.6h-1.9l-0.1-0.8c-0.6,0.6-1.3,0.9-2.2,0.9c-1.1,0-1.9-0.6-1.9-2
				c0-2,2-2.7,4.2-3.4v-0.6c0-0.6-0.4-1-1-1c-0.6,0-1,0.4-1,1h-1.9c0.1-1.7,1.4-2.5,3-2.5C127.4,52.7,128.4,53.6,128.4,55.1z
				 M125.1,59.7c0.6,0,1-0.3,1.4-0.8v-2c-0.8,0.3-2.3,0.9-2.3,1.9C124.2,59.4,124.5,59.7,125.1,59.7z"/>
		</g>
		<g class="st2">
			<path class="st3" d="M22.7,69.7c-0.3-0.1-0.7-0.2-1-0.2c-0.6,0-0.9,0.4-0.9,0.9V76h-1.9v-8.2h1.8v1.1h0c0.4-0.8,1-1.2,1.9-1.2
				V69.7z"/>
			<path class="st3" d="M29.7,70.4v1.9h-4.1v1.1c0,0.7,0.4,1.1,1.1,1.1c0.7,0,1.1-0.4,1.1-1.1h1.9c-0.1,1.7-1.1,2.7-3,2.7
				c-1.8,0-3-1.1-3-2.9v-2.7c0-1.7,1.2-2.8,3-2.8C28.5,67.7,29.7,68.8,29.7,70.4z M27.9,70.8v-0.5c0-0.7-0.4-1.2-1.1-1.2
				c-0.7,0-1.1,0.4-1.1,1.1v0.5H27.9z"/>
			<path class="st3" d="M37.1,65.2V76h-1.7v-1h0c-0.4,0.6-1.3,1.1-2,1.1c-1.4,0-2.1-1.1-2.1-3.2v-2.1c0-2.1,0.6-3.2,2.1-3.2
				c0.5,0,1,0.3,1.9,0.9v-3.4H37.1z M35.2,69.7c-0.4-0.4-0.7-0.6-1.2-0.6c-0.6,0-0.9,0.6-0.9,1.9v2c0,1.2,0.3,1.8,0.9,1.8
				c0.4,0,0.8-0.2,1.1-0.6V69.7z"/>
			<path class="st3" d="M40.8,67.8v6c0,0.5,0.2,0.9,0.7,0.9c0.4,0,0.8-0.3,1.2-0.7v-6.2h1.9V76h-1.8v-0.9c-0.9,0.8-1.5,1.1-2.1,1.1
				c-1.3,0-1.7-0.8-1.7-2v-6.3H40.8z"/>
			<path class="st3" d="M52.2,70.7h-1.9v-0.4c0-0.5-0.4-0.9-1.1-0.9c-0.7,0-1.1,0.4-1.1,0.9v3.3c0,0.6,0.4,0.9,1.1,0.9
				c0.7,0,1.1-0.3,1.1-0.9V73h1.9c0,2.1-1,3.1-3,3.1c-2.1,0-3-1.1-3-3v-2.4c0-1.9,0.9-3,3-3C51.2,67.7,52.2,68.7,52.2,70.7z"/>
			<path class="st3" d="M59.7,70.4v1.9h-4.1v1.1c0,0.7,0.4,1.1,1.1,1.1c0.7,0,1.1-0.4,1.1-1.1h1.9c-0.1,1.7-1.1,2.7-3,2.7
				c-1.8,0-3-1.1-3-2.9v-2.7c0-1.7,1.2-2.8,3-2.8C58.5,67.7,59.7,68.8,59.7,70.4z M57.9,70.8v-0.5c0-0.7-0.4-1.2-1.1-1.2
				c-0.7,0-1.1,0.4-1.1,1.1v0.5H57.9z"/>
			<path class="st3" d="M67.1,65.2V76h-1.7v-1h0c-0.4,0.6-1.3,1.1-2,1.1c-1.4,0-2.1-1.1-2.1-3.2v-2.1c0-2.1,0.6-3.2,2.1-3.2
				c0.5,0,1,0.3,1.9,0.9v-3.4H67.1z M65.2,69.7c-0.4-0.4-0.7-0.6-1.2-0.6c-0.6,0-0.9,0.6-0.9,1.9v2c0,1.2,0.3,1.8,0.9,1.8
				c0.4,0,0.8-0.2,1.1-0.6V69.7z"/>
			<path class="st3" d="M75,67.8v6c0,0.5,0.2,0.9,0.7,0.9c0.4,0,0.8-0.3,1.2-0.7v-6.2h1.9V76h-1.8v-0.9c-0.9,0.8-1.5,1.1-2.1,1.1
				c-1.3,0-1.7-0.8-1.7-2v-6.3H75z"/>
			<path class="st3" d="M85.7,69.7l-1.6,0.6c-0.3-0.8-0.7-1.1-1.3-1.1c-0.4,0-0.8,0.3-0.8,0.7c0,0.5,0.5,0.8,1.5,1.2
				c1.4,0.7,2.2,1.3,2.2,2.5c0,1.6-1.2,2.5-2.7,2.5c-1.7,0-2.4-0.8-3.1-2.3l1.7-0.5c0.2,0.8,0.6,1.3,1.4,1.3c0.6,0,0.9-0.3,0.9-0.7
				c0-0.6-0.6-1-1.6-1.4c-1-0.5-2.1-1-2.1-2.5c0-1.5,1.2-2.3,2.6-2.3C84.2,67.7,85.2,68.4,85.7,69.7z"/>
			<path class="st3" d="M93.1,70.4v1.9H89v1.1c0,0.7,0.4,1.1,1.1,1.1c0.7,0,1.1-0.4,1.1-1.1h1.9c-0.1,1.7-1.1,2.7-3,2.7
				c-1.8,0-3-1.1-3-2.9v-2.7c0-1.7,1.2-2.8,3-2.8C91.8,67.7,93.1,68.8,93.1,70.4z M91.2,70.8v-0.5c0-0.7-0.4-1.2-1.1-1.2
				c-0.7,0-1.1,0.4-1.1,1.1v0.5H91.2z"/>
			<path class="st3" d="M104.7,70.7v2.4c0,1.9-1,3-3,3c-2,0-3-1.1-3-3v-2.4c0-1.9,1-3,3-3C103.8,67.7,104.7,68.8,104.7,70.7z
				 M100.6,73.6c0,0.6,0.4,0.9,1.1,0.9s1.1-0.4,1.1-0.9v-3.3c0-0.6-0.4-0.9-1.1-0.9c-0.7,0-1.1,0.4-1.1,0.9V73.6z"/>
			<path class="st3" d="M109.5,65.1v1.6h-0.4c-0.6,0-0.8,0.3-0.8,0.8v0.7h1.1v1.5h-1.1V76h-1.9v-6.3h-0.9v-1.5h0.9v-0.4
				c0-1.7,0.3-2.7,2.2-2.7C108.9,65,109.2,65.1,109.5,65.1z"/>
			<path class="st3" d="M117,65.2V76h-2.1V65.2H117z"/>
			<path class="st3" d="M120.3,65.2l1.9,7.7h0l1.9-7.7h2L123.4,76H121l-2.8-10.8H120.3z"/>
		</g>
		<g class="st2">
			<path class="st3" d="M21,79.7v1.7h-1.9v-1.7H21z M21,82.8V91h-1.9v-8.2H21z"/>
			<path class="st3" d="M26.9,84.7c-0.3-0.1-0.7-0.2-1-0.2c-0.6,0-0.9,0.4-0.9,0.9V91h-1.9v-8.2h1.8v1.1h0c0.4-0.8,1-1.2,1.9-1.2
				V84.7z"/>
			<path class="st3" d="M33.9,85.7v2.4c0,1.9-1,3-3,3c-2,0-3-1.1-3-3v-2.4c0-1.9,1-3,3-3C32.9,82.7,33.9,83.8,33.9,85.7z M29.8,88.6
				c0,0.6,0.4,0.9,1.1,0.9s1.1-0.4,1.1-0.9v-3.3c0-0.6-0.4-0.9-1.1-0.9c-0.7,0-1.1,0.4-1.1,0.9V88.6z"/>
			<path class="st3" d="M41.3,84.7V91h-1.9v-6c0-0.5-0.2-0.9-0.7-0.9c-0.4,0-0.8,0.3-1.2,0.7V91h-1.9v-8.2h1.8v0.9
				c0.9-0.8,1.5-1.1,2.1-1.1C40.8,82.7,41.3,83.4,41.3,84.7z"/>
			<path class="st3" d="M48.4,82.8l1.2,5.2h0l1.2-5.2l0,0h1.9L50.6,91h-1.9l-2.2-8.2H48.4z"/>
			<path class="st3" d="M59.1,84.7l-1.6,0.6c-0.3-0.8-0.7-1.1-1.3-1.1c-0.4,0-0.8,0.3-0.8,0.7c0,0.5,0.5,0.8,1.5,1.2
				c1.4,0.7,2.2,1.3,2.2,2.5c0,1.6-1.2,2.5-2.7,2.5c-1.7,0-2.4-0.8-3.1-2.3l1.7-0.5c0.2,0.8,0.6,1.3,1.4,1.3c0.6,0,0.9-0.3,0.9-0.7
				c0-0.6-0.6-1-1.6-1.4c-1-0.5-2.1-1-2.1-2.5c0-1.5,1.2-2.3,2.6-2.3C57.5,82.7,58.5,83.4,59.1,84.7z"/>
			<path class="st3" d="M62.8,88.9V91h-2.1v-2.1H62.8z"/>
			<path class="st3" d="M74.6,80.2V82H71v2.5h2.7v1.8H71v2.8h3.7V91h-5.8V80.2H74.6z"/>
			<path class="st3" d="M82.9,82.6L81,83.2c-0.3-1-0.8-1.5-1.5-1.5c-0.7,0-1.1,0.5-1.1,1.2c0,0.8,1,1.2,2,1.8
				c1.6,0.9,2.6,1.8,2.6,3.4c0,2-1.5,3.1-3.4,3.1c-1.8,0-3-1.1-3.6-3l2-0.4c0.2,1.1,0.8,1.8,1.6,1.8c0.8,0,1.3-0.5,1.3-1.3
				c0-1-1-1.5-2.5-2.3c-1.4-0.8-2.1-1.6-2.1-2.8c0-2,1.3-3,3.3-3C81.2,80,82.4,81,82.9,82.6z"/>
			<path class="st3" d="M89.4,80.2L92,91h-2l-0.5-2.3h-2.9L86,91h-2l2.7-10.8H89.4z M88,82.5l-1,4.4H89L88,82.5L88,82.5z"/>
		</g>
		<g class="st2">
			<path class="st3" d="M96.6,81.4c0,1-0.8,1.8-1.6,2.6l-1,1h2.5v1h-4v-1c1-0.9,1.6-1.5,1.8-1.8c0.6-0.6,1.1-1.1,1.1-1.7
				c0-0.5-0.3-0.9-0.8-0.9s-0.9,0.3-0.9,0.9v0.2h-1.2v-0.3c0-1.1,0.9-1.8,2-1.8C95.7,79.6,96.6,80.2,96.6,81.4z"/>
		</g>
		<g id="Layer_1_00000140705263228619418570000011049683325732556973_" transform="translate(166.247 190.1)">
			<g id="Group_11" transform="translate(23.5 20.872)">
				<path id="Path_80" class="st4" d="M10.1,24.3h1.1v1.6h0.1c0.4-1.1,1.5-1.8,2.7-1.8v1.1c-1.4,0.1-2.1,1-2.7,2.6v4.5h-1.1
					L10.1,24.3L10.1,24.3z"/>
				<path id="Path_81" class="st4" d="M17.6,32.5c-2.2,0-3.3-1.9-3.3-4.2s1.1-4.2,3.3-4.2s3.3,1.9,3.3,4.2
					C20.9,30.7,19.7,32.5,17.6,32.5 M17.6,25.1c-1.3,0-2.2,1.2-2.2,3.2s0.8,3.2,2.2,3.2c1.3,0,2.2-1.2,2.2-3.2
					C19.7,26.2,18.9,25.1,17.6,25.1"/>
				<path id="Path_82" class="st4" d="M24.3,27.1l1.8-2.9h1.2L25,28.1l2.7,4.2h-1.3L24.3,29l-2,3.3h-1.2l2.5-4.2l-2.4-3.9h1.3
					L24.3,27.1z"/>
				<path id="Path_83" class="st4" d="M28.2,25.8c0.6-1.1,1.8-1.7,3-1.7c1.4,0,2.8,0.6,2.8,2.4v4.1c0,0.6,0,1.2,0.2,1.8h-1.2
					L33,31.3c-0.7,0.8-1.7,1.3-2.7,1.3c-1.2,0.1-2.2-0.8-2.3-1.9c0-0.1,0-0.2,0-0.3c0-1.8,1.4-2.7,5-3.3v-0.4c0-1.1-0.7-1.5-1.6-1.5
					c-0.9-0.1-1.7,0.4-2.1,1.3L28.2,25.8z M32.9,28c-2.6,0.5-3.8,1.2-3.8,2.3c0.1,0.7,0.6,1.3,1.3,1.3c1-0.1,1.9-0.6,2.5-1.3
					L32.9,28z"/>
				<path id="Path_84" class="st4" d="M41.9,21.1v9.5c0,0.6,0,1.2,0.1,1.8h-1l-0.2-0.8c-0.5,0.6-1.3,1-2.1,1c-1.4,0-3.3-1-3.3-4.2
					c0-3.1,1.9-4.2,3.3-4.2c0.8,0,1.5,0.4,2.1,0.9l0.1,0.1v-3.9h1.1V21.1z M40.8,26.2c-0.5-0.6-1.3-1.1-2.1-1.1
					c-1.3,0-2.3,0.8-2.3,3.3c0,2.1,0.9,3.2,2.3,3.2c0.8-0.1,1.6-0.5,2.1-1.1V26.2z"/>
				<path id="Path_85" class="st4" d="M48.9,32.4v-1.1h-0.1c-0.6,0.7-1.4,1.2-2.4,1.3c-1.2,0.1-2.2-0.8-2.3-2c0-0.1,0-0.3,0-0.4
					v-5.9h1.1v5.9c0,1.1,0.5,1.4,1.3,1.4c0.9-0.1,1.7-0.6,2.3-1.2v-6.1H50v8.1H48.9z"/>
				<path id="Path_86" class="st4" d="M52.1,30.3c0.5,0.8,1.4,1.3,2.3,1.3c1.2,0,1.8-0.6,1.8-1.3c0-2.1-4.8-1-4.7-3.9
					c0.1-1.4,1.1-2.2,2.7-2.2c1.1,0,2.1,0.5,2.8,1.4l-0.8,0.7c-0.5-0.7-1.2-1.1-2.1-1.1c-1,0-1.5,0.5-1.5,1.2c0,1.8,4.7,0.8,4.7,3.9
					c0,1.6-1.4,2.4-2.9,2.4c-1.3,0-2.5-0.5-3.2-1.5L52.1,30.3z"/>
				<path id="Path_87" class="st4" d="M58.9,24.3v-2.7H60v2.7h1.9v1H60V31c0,0.4,0.3,0.6,0.9,0.6c0.4,0,0.7-0.1,1-0.1v0.9
					c-0.4,0.1-0.9,0.1-1.3,0.1c-1.2,0-1.8-0.3-1.8-1.3v-6h-1.3v-1L58.9,24.3z"/>
				<path id="Path_88" class="st4" d="M62.8,25.8c0.6-1.1,1.8-1.7,3-1.7c1.4,0,2.8,0.6,2.8,2.4v4.1c0,0.6,0,1.2,0.2,1.8h-1.2
					l-0.1-1.1c-0.7,0.8-1.7,1.3-2.7,1.3c-1.2,0.1-2.2-0.8-2.3-1.9c0-0.1,0-0.2,0-0.3c0-1.8,1.4-2.7,5-3.3v-0.4
					c0-1.1-0.7-1.5-1.6-1.5c-0.9-0.1-1.7,0.4-2.1,1.3L62.8,25.8z M67.5,28c-2.6,0.5-3.8,1.2-3.8,2.3c0.1,0.7,0.6,1.3,1.3,1.3
					c1-0.1,1.9-0.6,2.5-1.3L67.5,28z"/>
				<path id="Path_89" class="st4" d="M70.8,24.3v-2.7h1.1v2.7h1.9v1h-1.9V31c0,0.4,0.3,0.6,0.9,0.6c0.4,0,0.7-0.1,1-0.1v0.9
					c-0.4,0.1-0.9,0.1-1.3,0.1c-1.2,0-1.8-0.3-1.8-1.3v-6h-1.3v-1L70.8,24.3z"/>
				<path id="Path_90" class="st5" d="M86.1,8.4l10.3-4.4c2,1.3,3.4,3,3.8,4.8L86.1,8.4z"/>
				<path id="Path_91" class="st4" d="M82.4,0h-0.1c-4.8,0-3.6,2.6-2.1,5.4L82.4,0z"/>
				<path id="Path_92" class="st6" d="M95.3,3.4c-1.8-1-3.8-1.8-5.8-2.3L84,7L95.3,3.4z"/>
				<path id="Path_93" class="st4" d="M81.8,7.2l6.4-6.4c-1.7-0.4-3.4-0.7-5.1-0.7L81.8,7.2z"/>
				<path id="Path_94" class="st6" d="M89.7,17.7c2.1-0.6,4-1.4,5.9-2.4L84,11.5L89.7,17.7z"/>
				<path id="Path_95" class="st5" d="M86.1,10.1l10.6,4.6c2-1.5,3.3-3.2,3.5-4.9L86.1,10.1z"/>
				<path id="Path_96" class="st4" d="M80.4,13.2c-1.5,2.8-3,5.6,2,5.6h0.3L80.4,13.2z"/>
				<path id="Path_97" class="st4" d="M83.2,18.8c1.8-0.1,3.6-0.4,5.3-0.8l-6.6-6.6L83.2,18.8z"/>
				<path id="Path_98" class="st7" d="M0,18.6V1.9h9.6v2.4H2.9v4.4h5.9v2.4H2.9v5H10v2.4H0z"/>
				<path id="Path_99" class="st7" d="M18.5,6.1h2.6l-3.9,12.5h-2.5l-4-12.5h2.7l2.5,8.8H16L18.5,6.1z"/>
				<path id="Path_100" class="st7" d="M23.1,18.6V6.1h2.4v1.3h0.1c0.9-0.9,2-1.4,3.3-1.5l0.2,2.6c-0.3,0-0.6-0.1-0.8-0.1
					c-1,0-1.9,0.4-2.7,0.9v9.3L23.1,18.6L23.1,18.6z"/>
				<path id="Path_101" class="st7" d="M39.9,13.1h-6.8v1.8c0,1.4,0.7,1.8,2.1,1.8c1.3,0,2.2-0.3,2.2-1.8l2.5,0.2
					c-0.1,2.8-2.1,3.7-4.7,3.7c-2.9,0-4.7-1.1-4.7-4V9.9c0-2.9,1.8-4,4.7-4c2.9,0,4.7,1.1,4.7,4L39.9,13.1z M37.3,10.9V9.9
					c0-1.4-0.7-1.9-2.1-1.9s-2.1,0.5-2.1,1.9v1.1L37.3,10.9z"/>
				<path id="Path_102" class="st7" d="M42.6,18.6V6.1H45v1.2h0.1C46,6.5,47.3,6,48.5,5.9c2.2,0,3.1,1.4,3.1,3.6v9.1H49v-8.5
					c0-1.2-0.3-1.9-1.5-1.9c-0.9,0.1-1.7,0.5-2.3,1.2v9.3h-2.6L42.6,18.6z"/>
				<path id="Path_103" class="st7" d="M53.6,8.2V6.1h9v2.1l-6.1,8.1v0.2h6.2v2.1h-9.3v-2.1l6.1-8.1V8.2L53.6,8.2z"/>
				<path id="Path_104" class="st7" d="M64.2,9.8c0-2.9,1.8-3.9,4.7-3.9s4.8,1,4.8,3.9v5c0,2.9-1.8,4-4.8,4s-4.7-1.1-4.7-4V9.8z
					 M66.8,14.9c0,1.4,0.8,1.8,2.2,1.8s2.2-0.5,2.2-1.8v-5c0-1.4-0.8-1.8-2.2-1.8s-2.2,0.5-2.2,1.8V14.9z"/>
				<path id="Path_105" class="st7" d="M74.6,6.2h-0.5V5.9h1.5v0.3h-0.5v1.5h-0.4L74.6,6.2z"/>
				<path id="Path_106" class="st7" d="M75.8,5.9h0.6l0.4,1.2l0,0l0.4-1.2h0.5v1.8h-0.4V6.4l0,0L77,7.7h-0.3l-0.5-1.3l0,0v1.3h-0.4
					V5.9z"/>
			</g>
			<path id="Polygon_1" d="M125,25.3l-4.1-7.4h8.3L125,25.3z"/>
		</g>
		<g id="_1px-Border">
			<rect y="0" class="st8" width="300" height="250"/>
			<rect x="0.5" y="0.5" class="st8" width="299" height="249"/>
		</g>
		<g class="st2">
			<path class="st3" d="M14.1,172.1v5.1H15v0.8h-2.8v-0.8h0.9v-4h-1v-0.7c0.5,0,1-0.1,1.3-0.4H14.1z"/>
			<path class="st3" d="M17.7,176.9v1.1h-1.1v-1.1H17.7z"/>
		</g>
		<g class="st2">
			<path class="st3" d="M25.1,172.2v0.5h-2.8v1.9h2v0.5h-2v2.2h3v0.5h-3.6v-5.8H25.1z"/>
			<path class="st3" d="M26.4,172.2l1.4,4.7h0l1.4-4.7H30l-1.8,5.8h-0.6l-1.8-5.8H26.4z"/>
			<path class="st3" d="M32.8,172.2c1.1,0,1.9,0.5,1.9,1.5c0,0.7-0.4,1.2-1.2,1.5l1.2,2.8h-0.7l-1.2-2.6h-1.4v2.6h-0.6v-5.8H32.8z
				 M32.7,174.8c0.8,0,1.3-0.3,1.3-1.1c0-0.7-0.4-1-1.3-1h-1.2v2.1H32.7z"/>
			<path class="st3" d="M39.8,172.2v0.5h-2.8v1.9h2v0.5h-2v2.2h3v0.5h-3.6v-5.8H39.8z"/>
			<path class="st3" d="M42.1,172.2l2.5,4.4h0v-4.4h0.6v5.8h-0.5l-2.9-5.1h0v5.1h-0.6v-5.8H42.1z"/>
			<path class="st3" d="M50.2,172.2v0.4l-2.9,4.8h3v0.5h-3.7v-0.5l2.9-4.8h-2.6v-0.5H50.2z"/>
			<path class="st3" d="M55.5,175.1c0,1.6-0.6,3-2.3,3s-2.3-1.4-2.3-3c0-1.6,0.6-3,2.3-3C54.9,172.1,55.5,173.5,55.5,175.1z
				 M53.2,177.5c1,0,1.6-0.8,1.6-2.4c0-1.6-0.6-2.4-1.6-2.4c-1,0-1.6,0.8-1.6,2.4C51.6,176.7,52.2,177.5,53.2,177.5z"/>
			<path class="st3" d="M62.5,173.6l-0.6,0.1c-0.2-0.6-0.7-1-1.3-1c-0.7,0-1.1,0.3-1.1,0.9c0,0.5,0.5,0.7,1.1,1
				c1.1,0.4,2.1,0.7,2.1,1.8c0,1.2-0.8,1.7-1.9,1.7c-1,0-1.6-0.5-2.1-1.5l0.6-0.2c0.3,0.8,0.8,1.2,1.5,1.2c0.7,0,1.3-0.3,1.3-1
				c0-0.7-0.7-1-1.6-1.3c-1-0.4-1.7-0.7-1.7-1.6c0-0.9,0.8-1.5,1.7-1.5C61.5,172.1,62.2,172.7,62.5,173.6z"/>
			<path class="st3" d="M68.1,173.8c0.8,0,1.1,0.4,1.1,1.2v3h-0.6v-3c0-0.5-0.2-0.7-0.6-0.7c-0.5,0-0.8,0.3-1.2,0.6v3.1h-0.6v-3
				c0-0.5-0.2-0.7-0.6-0.7c-0.5,0-0.8,0.3-1.2,0.6v3.1h-0.6v-4.2h0.6v0.6c0.4-0.4,0.8-0.6,1.2-0.6c0.5,0,0.9,0.3,1.1,0.7
				C67.1,174,67.6,173.8,68.1,173.8z"/>
			<path class="st3" d="M72.7,172.2c1.1,0,1.8,0.5,1.8,1.6c0,1.2-1,1.6-2.1,1.6h-1v2.6h-0.6v-5.8H72.7z M72.4,174.9
				c1,0,1.4-0.3,1.4-1.1s-0.5-1.1-1.3-1.1h-1.2v2.1H72.4z"/>
			<path class="st3" d="M79.3,173.8l-0.6,0.2c-0.2-0.8-0.6-1.3-1.4-1.3c-1.1,0-1.5,1.2-1.5,2.4c0,1.6,0.6,2.4,1.6,2.4
				c0.7,0,1.2-0.4,1.4-1.4l0.6,0.1c-0.3,1.2-1,1.8-2,1.8c-1.6,0-2.2-1.4-2.2-3c0-1.6,0.6-3,2.2-3C78.3,172.1,79,172.7,79.3,173.8z"
				/>
			<path class="st3" d="M81.3,177.1v0.9h-0.8v-0.9H81.3z"/>
		</g>
		<g class="st2">
			<path class="st3" d="M15.3,181.8c0,0.6-0.3,1.1-0.7,1.6c-0.4,0.4-1.6,1.3-2,1.7h2.7v0.9h-3.9v-1c0.1-0.3,0.4-0.7,1.2-1.3
				c1.4-1.1,1.6-1.5,1.6-1.9c0-0.5-0.3-0.8-0.9-0.8c-0.5,0-0.9,0.3-1,0.9l-0.9-0.2c0.1-0.9,1-1.6,2-1.6
				C14.5,180.1,15.3,180.8,15.3,181.8z"/>
			<path class="st3" d="M17.7,184.9v1.1h-1.1v-1.1H17.7z"/>
		</g>
		<g class="st2">
			<path class="st3" d="M23.7,180.2c1,0,1.7,0.5,1.7,1.4c0,0.7-0.3,1.1-1,1.3l0,0c0.7,0.2,1.1,0.8,1.1,1.5c0,1-0.7,1.6-2.1,1.6h-1.8
				v-5.8H23.7z M23.4,182.7c0.7,0,1.4-0.3,1.4-1c0-0.7-0.4-0.9-1.1-0.9h-1.4v1.9H23.4z M23.5,185.5c0.9,0,1.4-0.3,1.4-1
				c0-0.8-0.7-1.2-1.5-1.2h-1.1v2.2H23.5z"/>
			<path class="st3" d="M29.6,183v2.2c0,0.2,0,0.5,0.1,0.8h-0.6l-0.1-0.6c-0.4,0.4-0.9,0.7-1.4,0.7c-0.7,0-1.2-0.5-1.2-1.2
				c0-1.2,1.4-1.5,2.5-1.7V183c0-0.6-0.4-0.8-0.9-0.8c-0.5,0-0.9,0.3-1.1,0.6l-0.5-0.3c0.3-0.6,0.9-0.9,1.6-0.9
				C28.9,181.8,29.6,182.2,29.6,183z M27.7,185.6c0.4,0,1-0.3,1.3-0.7v-1.1c-0.7,0.1-2,0.4-2,1.2C27,185.3,27.4,185.6,27.7,185.6z"
				/>
			<path class="st3" d="M32.6,182.4c-0.8,0-1.1,0.5-1.4,1.3v2.3h-0.6v-4.2h0.6v0.8h0c0.3-0.6,0.7-0.9,1.3-0.9h0V182.4z"/>
			<path class="st3" d="M35.3,182.4c-0.8,0-1.1,0.5-1.4,1.3v2.3h-0.6v-4.2h0.6v0.8h0c0.3-0.6,0.7-0.9,1.3-0.9h0V182.4z"/>
			<path class="st3" d="M38.9,183v2.2c0,0.2,0,0.5,0.1,0.8h-0.6l-0.1-0.6c-0.4,0.4-0.9,0.7-1.4,0.7c-0.7,0-1.2-0.5-1.2-1.2
				c0-1.2,1.4-1.5,2.5-1.7V183c0-0.6-0.4-0.8-0.9-0.8c-0.5,0-0.9,0.3-1.1,0.6l-0.5-0.3c0.3-0.6,0.9-0.9,1.6-0.9
				C38.2,181.8,38.9,182.2,38.9,183z M37,185.6c0.4,0,1-0.3,1.3-0.7v-1.1c-0.7,0.1-2,0.4-2,1.2C36.3,185.3,36.7,185.6,37,185.6z"/>
			<path class="st3" d="M40.8,180.5v1.4h1v0.5h-1v3c0,0.2,0.1,0.3,0.5,0.3c0.2,0,0.3,0,0.5,0v0.5c-0.1,0-0.3,0.1-0.7,0.1
				c-0.6,0-0.9-0.1-0.9-0.7v-3.1h-0.7v-0.5h0.7v-1.4H40.8z"/>
			<path class="st3" d="M43.5,180.5v1.4h1v0.5h-1v3c0,0.2,0.1,0.3,0.5,0.3c0.2,0,0.3,0,0.5,0v0.5c-0.1,0-0.3,0.1-0.7,0.1
				c-0.6,0-0.9-0.1-0.9-0.7v-3.1h-0.7v-0.5h0.7v-1.4H43.5z"/>
			<path class="st3" d="M50,180.2v4.3c0,1-0.4,1.5-1.3,1.5c-0.6,0-1-0.2-1.4-0.7l0.5-0.3c0.2,0.3,0.5,0.5,0.9,0.5
				c0.5,0,0.7-0.3,0.7-0.8v-4.5H50z"/>
			<path class="st3" d="M56.8,183.6v0.4h-2.7c0,1,0.6,1.6,1.2,1.6c0.5,0,0.9-0.3,1.1-0.7l0.4,0.2c-0.4,0.7-0.9,1-1.6,1
				c-1.1,0-1.8-0.8-1.8-2.2c0-1.5,0.8-2.2,1.7-2.2C56.1,181.8,56.8,182.4,56.8,183.6z M56.2,183.5c0-0.8-0.4-1.3-1-1.3
				c-0.6,0-1,0.4-1.1,1.3H56.2z"/>
			<path class="st3" d="M58.6,180.5v1.4h1v0.5h-1v3c0,0.2,0.1,0.3,0.5,0.3c0.2,0,0.3,0,0.5,0v0.5c-0.1,0-0.3,0.1-0.7,0.1
				c-0.6,0-0.9-0.1-0.9-0.7v-3.1h-0.7v-0.5H58v-1.4H58.6z"/>
			<path class="st3" d="M65.7,183v2.2c0,0.2,0,0.5,0.1,0.8h-0.6l-0.1-0.6c-0.4,0.4-0.9,0.7-1.4,0.7c-0.7,0-1.2-0.5-1.2-1.2
				c0-1.2,1.4-1.5,2.5-1.7V183c0-0.6-0.4-0.8-0.9-0.8c-0.5,0-0.9,0.3-1.1,0.6l-0.5-0.3c0.3-0.6,0.9-0.9,1.6-0.9
				C65.1,181.8,65.7,182.2,65.7,183z M63.9,185.6c0.4,0,1-0.3,1.3-0.7v-1.1c-0.7,0.1-2,0.4-2,1.2C63.2,185.3,63.6,185.6,63.9,185.6z
				"/>
			<path class="st3" d="M67.7,180.2v5.8h-0.6v-5.8H67.7z"/>
			<path class="st3" d="M70.1,185.1v0.9h-0.8v-0.9H70.1z"/>
			<path class="st3" d="M75.2,180.2l2.5,4.4h0v-4.4h0.6v5.8h-0.5l-2.9-5.1h0v5.1h-0.6v-5.8H75.2z"/>
			<path class="st3" d="M82.8,183.6v0.4h-2.7c0,1,0.6,1.6,1.2,1.6c0.5,0,0.9-0.3,1.1-0.7l0.4,0.2c-0.4,0.7-0.9,1-1.6,1
				c-1.1,0-1.8-0.8-1.8-2.2c0-1.5,0.8-2.2,1.7-2.2C82.1,181.8,82.8,182.4,82.8,183.6z M82.2,183.5c0-0.8-0.4-1.3-1-1.3
				c-0.6,0-1,0.4-1.1,1.3H82.2z"/>
			<path class="st3" d="M87.3,183.9c0,1.7-1.1,2.2-1.7,2.2c-0.4,0-0.8-0.2-1.1-0.5v1.9h-0.6v-5.7h0.6v0.5c0.2-0.3,0.7-0.6,1.1-0.6
				C86.1,181.8,87.3,182.1,87.3,183.9z M84.5,185c0.4,0.4,0.7,0.6,1.1,0.6c0.8,0,1.2-0.6,1.2-1.7c0-1-0.4-1.6-1.2-1.6
				c-0.4,0-0.8,0.3-1,0.6V185z"/>
			<path class="st3" d="M88.9,180.2v2.2h0c0.4-0.4,0.8-0.6,1.2-0.6c0.8,0,1.2,0.5,1.2,1.2v3.1h-0.6v-3c0-0.4-0.2-0.7-0.7-0.7
				c-0.4,0-0.9,0.3-1.2,0.6v3.1h-0.6v-5.8H88.9z"/>
			<path class="st3" d="M94.6,182.4c-0.8,0-1.1,0.5-1.4,1.3v2.3h-0.6v-4.2h0.6v0.8h0c0.3-0.6,0.7-0.9,1.3-0.9h0V182.4z"/>
			<path class="st3" d="M98.4,183.9c0,1.1-0.5,2.2-1.7,2.2s-1.7-1-1.7-2.2c0-1.1,0.5-2.2,1.7-2.2S98.4,182.8,98.4,183.9z
				 M96.7,185.6c0.8,0,1.1-0.8,1.1-1.7s-0.3-1.7-1.1-1.7c-0.8,0-1.1,0.9-1.1,1.7C95.6,184.7,95.9,185.6,96.7,185.6z"/>
			<path class="st3" d="M100.1,180.2v5.8h-0.6v-5.8H100.1z"/>
			<path class="st3" d="M105.8,180.2c1.7,0,2.6,1.2,2.6,2.9c0,1.7-0.9,2.9-2.6,2.9h-1.6v-5.8H105.8z M105.7,185.5c1.4,0,2-0.9,2-2.3
				c0-1.6-0.7-2.3-2-2.3h-0.9v4.7H105.7z"/>
			<path class="st3" d="M110.1,180.1v0.7h-0.6v-0.7H110.1z M110.1,181.8v4.2h-0.6v-4.2H110.1z"/>
			<path class="st3" d="M114.4,183v2.2c0,0.2,0,0.5,0.1,0.8h-0.6l-0.1-0.6c-0.4,0.4-0.9,0.7-1.4,0.7c-0.7,0-1.2-0.5-1.2-1.2
				c0-1.2,1.4-1.5,2.5-1.7V183c0-0.6-0.4-0.8-0.9-0.8c-0.5,0-0.9,0.3-1.1,0.6l-0.5-0.3c0.3-0.6,0.9-0.9,1.6-0.9
				C113.8,181.8,114.4,182.2,114.4,183z M112.6,185.6c0.4,0,1-0.3,1.3-0.7v-1.1c-0.7,0.1-2,0.4-2,1.2
				C111.9,185.3,112.2,185.6,112.6,185.6z"/>
			<path class="st3" d="M116.4,180.2v5.8h-0.6v-5.8H116.4z"/>
			<path class="st3" d="M123.9,180.2v0.5h-1.7v5.2h-0.6v-5.2h-1.7v-0.5H123.9z"/>
			<path class="st3" d="M125.8,182.4c-0.8,0-1.1,0.5-1.4,1.3v2.3h-0.6v-4.2h0.6v0.8h0c0.3-0.6,0.7-0.9,1.3-0.9h0V182.4z"/>
			<path class="st3" d="M129.5,183v2.2c0,0.2,0,0.5,0.1,0.8H129l-0.1-0.6c-0.4,0.4-0.9,0.7-1.4,0.7c-0.7,0-1.2-0.5-1.2-1.2
				c0-1.2,1.4-1.5,2.5-1.7V183c0-0.6-0.4-0.8-0.9-0.8c-0.5,0-0.9,0.3-1.1,0.6l-0.5-0.3c0.3-0.6,0.9-0.9,1.6-0.9
				C128.8,181.8,129.5,182.2,129.5,183z M127.6,185.6c0.4,0,1-0.3,1.3-0.7v-1.1c-0.7,0.1-2,0.4-2,1.2
				C126.9,185.3,127.3,185.6,127.6,185.6z"/>
			<path class="st3" d="M133.7,182.9v3.1h-0.6v-3c0-0.4-0.2-0.7-0.7-0.7c-0.4,0-0.9,0.3-1.2,0.6v3.1h-0.6v-4.2h0.6v0.6h0
				c0.4-0.4,0.8-0.6,1.2-0.6C133.3,181.8,133.7,182.2,133.7,182.9z"/>
			<path class="st3" d="M137.6,182.5l-0.4,0.4c-0.3-0.4-0.6-0.6-1.1-0.6c-0.5,0-0.8,0.2-0.8,0.6c0,0.3,0.3,0.5,0.9,0.7
				c0.8,0.2,1.5,0.5,1.5,1.3c0,0.8-0.7,1.2-1.5,1.2c-0.6,0-1.3-0.3-1.7-0.8l0.5-0.3c0.3,0.4,0.7,0.6,1.2,0.6c0.5,0,0.9-0.2,0.9-0.7
				c0-0.4-0.3-0.6-0.9-0.7c-0.9-0.3-1.5-0.5-1.5-1.2c0-0.8,0.6-1.2,1.3-1.2C136.6,181.8,137.3,182,137.6,182.5z"/>
			<path class="st3" d="M142.1,183.9c0,1.7-1.1,2.2-1.7,2.2c-0.4,0-0.8-0.2-1.1-0.5v1.9h-0.6v-5.7h0.6v0.5c0.2-0.3,0.7-0.6,1.1-0.6
				C140.9,181.8,142.1,182.1,142.1,183.9z M139.3,185c0.4,0.4,0.7,0.6,1.1,0.6c0.8,0,1.2-0.6,1.2-1.7c0-1-0.4-1.6-1.2-1.6
				c-0.4,0-0.8,0.3-1,0.6V185z"/>
			<path class="st3" d="M143.8,180.2v5.8h-0.6v-5.8H143.8z"/>
			<path class="st3" d="M148.1,183v2.2c0,0.2,0,0.5,0.1,0.8h-0.6l-0.1-0.6c-0.4,0.4-0.9,0.7-1.4,0.7c-0.7,0-1.2-0.5-1.2-1.2
				c0-1.2,1.4-1.5,2.5-1.7V183c0-0.6-0.4-0.8-0.9-0.8c-0.5,0-0.9,0.3-1.1,0.6l-0.5-0.3c0.3-0.6,0.9-0.9,1.6-0.9
				C147.5,181.8,148.1,182.2,148.1,183z M146.3,185.6c0.4,0,1-0.3,1.3-0.7v-1.1c-0.7,0.1-2,0.4-2,1.2
				C145.6,185.3,145.9,185.6,146.3,185.6z"/>
			<path class="st3" d="M152.4,182.9v3.1h-0.6v-3c0-0.4-0.2-0.7-0.7-0.7c-0.4,0-0.9,0.3-1.2,0.6v3.1h-0.6v-4.2h0.6v0.6h0
				c0.4-0.4,0.8-0.6,1.2-0.6C152,181.8,152.4,182.2,152.4,182.9z"/>
			<path class="st3" d="M154.5,180.5v1.4h1v0.5h-1v3c0,0.2,0.1,0.3,0.5,0.3c0.2,0,0.3,0,0.5,0v0.5c-0.1,0-0.3,0.1-0.7,0.1
				c-0.6,0-0.9-0.1-0.9-0.7v-3.1h-0.7v-0.5h0.7v-1.4H154.5z"/>
			<path class="st3" d="M157.4,185.1v0.9h-0.8v-0.9H157.4z"/>
			<path class="st3" d="M164.9,181.7c0,0.6-0.2,1-0.6,1.4c-0.2,0.2-0.5,0.5-1,0.8c-0.7,0.5-1.2,0.9-1.5,1.6h3.1v0.5h-3.8v-0.6
				c0.3-0.7,0.9-1.3,1.5-1.7c0.3-0.2,0.6-0.4,0.9-0.6c0.5-0.4,0.8-0.8,0.8-1.4c0-0.7-0.4-1.1-1.2-1.1s-1.2,0.5-1.4,1.3l-0.6-0.1
				c0.3-1.1,0.9-1.6,1.9-1.6C164.2,180.1,164.9,180.7,164.9,181.7z"/>
			<path class="st3" d="M170,183.1c0,2-0.7,3-2,3c-1.3,0-2-1-2-3c0-2,0.7-3,2-3C169.3,180.1,170,181.2,170,183.1z M168,185.6
				c1,0,1.4-0.8,1.4-2.5c0-1.7-0.4-2.5-1.4-2.5c-1,0-1.4,0.8-1.4,2.5C166.6,184.8,167,185.6,168,185.6z"/>
			<path class="st3" d="M174.7,181.7c0,0.6-0.2,1-0.6,1.4c-0.2,0.2-0.5,0.5-1,0.8c-0.7,0.5-1.2,0.9-1.5,1.6h3.1v0.5H171v-0.6
				c0.3-0.7,0.9-1.3,1.5-1.7c0.3-0.2,0.6-0.4,0.9-0.6c0.5-0.4,0.8-0.8,0.8-1.4c0-0.7-0.4-1.1-1.2-1.1c-0.7,0-1.2,0.5-1.4,1.3
				l-0.6-0.1c0.3-1.1,0.9-1.6,1.9-1.6C173.9,180.1,174.7,180.7,174.7,181.7z"/>
			<path class="st3" d="M178.1,180.1v5.4h1v0.5h-2.6v-0.5h1v-4.7l-1.1,0.1v-0.4c0.5-0.1,0.9-0.2,1.1-0.4H178.1z"/>
			<path class="st3" d="M181.8,185.1v0.9l-0.5,1.2H181l0.4-1.2H181v-0.9H181.8z M181.8,182.8v0.9H181v-0.9H181.8z"/>
			<path class="st3" d="M186.7,181.6c0,0.6-0.3,1.1-0.9,1.3c0.7,0.3,1.1,0.8,1.1,1.5c0,1.1-0.9,1.7-2,1.7c-0.9,0-1.6-0.4-2-1.1
				l0.5-0.3c0.4,0.6,1,1,1.6,1c0.7,0,1.4-0.4,1.4-1.1c0-0.9-0.6-1.3-1.6-1.3h-0.6v-0.5h0.4c0.8,0,1.6-0.2,1.6-1.1c0-0.6-0.5-1-1.1-1
				c-0.6,0-1,0.3-1.4,0.8l-0.5-0.3c0.5-0.7,1.1-1,1.9-1C186,180.1,186.7,180.6,186.7,181.6z"/>
			<path class="st3" d="M191.6,180.5l-0.2,0.5c-0.3-0.2-0.6-0.3-1-0.3c-1.2,0-1.8,1.2-1.8,2.4c0.5-0.5,1-0.7,1.6-0.7
				c1,0,1.7,0.7,1.7,1.9c0,1.1-0.8,1.9-1.9,1.9c-1.4,0-2.1-0.9-2.1-2.7c0-1.6,0.7-3.3,2.4-3.3C190.8,180.1,191.3,180.2,191.6,180.5z
				 M190,185.6c0.8,0,1.3-0.5,1.3-1.3c0-0.8-0.5-1.4-1.2-1.4c-0.8,0-1.5,0.7-1.5,1.2C188.6,184.9,189.2,185.6,190,185.6z"/>
			<path class="st3" d="M194.7,180.1c-0.8,1-1.1,2-1.1,3.3c0,1.1,0.4,2.2,1.1,3.2h-0.6c-0.7-1-1.1-2.1-1.1-3.3
				c0-1.2,0.4-2.3,1.1-3.2H194.7z"/>
			<path class="st3" d="M199.5,182.8c0,1.6-0.7,3.3-2.4,3.3c-0.5,0-1-0.1-1.2-0.3l0.2-0.5c0.3,0.2,0.6,0.3,1,0.3
				c1.2,0,1.7-1.2,1.8-2.4c-0.5,0.5-0.9,0.7-1.6,0.7c-0.8,0-1.7-0.5-1.7-1.9c0-1.2,0.8-1.9,1.9-1.9
				C198.8,180.1,199.5,181.1,199.5,182.8z M197.4,183.4c0.7,0,1.2-0.4,1.5-1.1c0-0.9-0.5-1.7-1.4-1.7c-0.7,0-1.3,0.5-1.3,1.3
				C196.2,182.9,196.8,183.4,197.4,183.4z"/>
			<path class="st3" d="M201,180.1c0.7,1,1.1,2.1,1.1,3.3c0,1.2-0.4,2.3-1.1,3.2h-0.6c0.8-1,1.1-2,1.1-3.3c0-1.1-0.4-2.1-1.1-3.2
				H201z"/>
			<path class="st3" d="M204.3,182.8v0.9h-0.8v-0.9H204.3z M204.3,185.1v0.9h-0.8v-0.9H204.3z"/>
			<path class="st3" d="M207.9,180.1v5.4h1v0.5h-2.6v-0.5h1v-4.7l-1.1,0.1v-0.4c0.5-0.1,0.9-0.2,1.1-0.4H207.9z"/>
			<path class="st3" d="M214.1,180.5l-0.2,0.5c-0.3-0.2-0.6-0.3-1-0.3c-1.2,0-1.8,1.2-1.8,2.4c0.5-0.5,1-0.7,1.6-0.7
				c1,0,1.7,0.7,1.7,1.9c0,1.1-0.8,1.9-1.9,1.9c-1.4,0-2.1-0.9-2.1-2.7c0-1.6,0.7-3.3,2.4-3.3C213.3,180.1,213.8,180.2,214.1,180.5z
				 M212.5,185.6c0.8,0,1.3-0.5,1.3-1.3c0-0.8-0.5-1.4-1.2-1.4c-0.8,0-1.5,0.7-1.5,1.2C211.1,184.9,211.6,185.6,212.5,185.6z"/>
			<path class="st3" d="M217.7,180.1v5.4h1v0.5h-2.6v-0.5h1v-4.7l-1.1,0.1v-0.4c0.5-0.1,0.9-0.2,1.1-0.4H217.7z"/>
			<path class="st3" d="M223.8,180.5l-0.2,0.5c-0.3-0.2-0.6-0.3-1-0.3c-1.2,0-1.8,1.2-1.8,2.4c0.5-0.5,1-0.7,1.6-0.7
				c1,0,1.7,0.7,1.7,1.9c0,1.1-0.8,1.9-1.9,1.9c-1.4,0-2.1-0.9-2.1-2.7c0-1.6,0.7-3.3,2.4-3.3C223,180.1,223.6,180.2,223.8,180.5z
				 M222.2,185.6c0.8,0,1.3-0.5,1.3-1.3c0-0.8-0.5-1.4-1.2-1.4c-0.8,0-1.5,0.7-1.5,1.2C220.9,184.9,221.4,185.6,222.2,185.6z"/>
			<path class="st3" d="M228.6,183.7v0.4h-4v-0.4H228.6z"/>
			<path class="st3" d="M231.5,180.1v5.4h1v0.5h-2.6v-0.5h1v-4.7l-1.1,0.1v-0.4c0.5-0.1,0.9-0.2,1.1-0.4H231.5z"/>
			<path class="st3" d="M237.6,180.5l-0.2,0.5c-0.3-0.2-0.6-0.3-1-0.3c-1.2,0-1.8,1.2-1.8,2.4c0.5-0.5,1-0.7,1.6-0.7
				c1,0,1.7,0.7,1.7,1.9c0,1.1-0.8,1.9-1.9,1.9c-1.4,0-2.1-0.9-2.1-2.7c0-1.6,0.7-3.3,2.4-3.3C236.8,180.1,237.3,180.2,237.6,180.5z
				 M236,185.6c0.8,0,1.3-0.5,1.3-1.3c0-0.8-0.5-1.4-1.2-1.4c-0.8,0-1.5,0.7-1.5,1.2C234.6,184.9,235.2,185.6,236,185.6z"/>
			<path class="st3" d="M242.7,181.7c0,0.6-0.2,1-0.6,1.4c-0.2,0.2-0.5,0.5-1,0.8c-0.7,0.5-1.2,0.9-1.5,1.6h3.1v0.5h-3.8v-0.6
				c0.3-0.7,0.9-1.3,1.5-1.7c0.3-0.2,0.6-0.4,0.9-0.6c0.5-0.4,0.8-0.8,0.8-1.4c0-0.7-0.4-1.1-1.2-1.1s-1.2,0.5-1.4,1.3l-0.6-0.1
				c0.3-1.1,0.9-1.6,1.9-1.6C241.9,180.1,242.7,180.7,242.7,181.7z"/>
			<path class="st3" d="M247.6,181.6c0,0.6-0.3,1.1-1,1.3v0c0.8,0.3,1.3,0.9,1.3,1.6c0,1-0.8,1.6-2.1,1.6c-1.2,0-2.1-0.5-2.1-1.6
				c0-0.6,0.4-1.2,1.3-1.6v0c-0.7-0.2-1-0.7-1-1.3c0-1,0.9-1.4,1.9-1.4C246.7,180.1,247.6,180.6,247.6,181.6z M245.7,185.6
				c1,0,1.5-0.5,1.5-1.1c0-0.7-0.8-1-1.6-1.3c-0.9,0.4-1.4,0.8-1.4,1.3C244.2,185.1,244.8,185.6,245.7,185.6z M245.7,182.7
				c0.6-0.2,1.3-0.5,1.3-1.1c0-0.7-0.7-0.9-1.3-0.9c-0.6,0-1.2,0.2-1.2,0.9C244.5,182,244.9,182.4,245.7,182.7z"/>
			<path class="st3" d="M249.8,185.1v0.9H249v-0.9H249.8z"/>
		</g>
		<g class="st2">
			<path class="st3" d="M15.3,237.2v0.5h-2.8v1.9h2v0.5h-2v2.2h3v0.5h-3.6v-5.8H15.3z"/>
			<path class="st3" d="M16.7,237.2l1.4,4.7h0l1.4-4.7h0.6l-1.8,5.8h-0.6l-1.8-5.8H16.7z"/>
			<path class="st3" d="M24.4,237.2v0.4l-2.9,4.8h3v0.5h-3.7v-0.5l2.9-4.8H21v-0.5H24.4z"/>
			<path class="st3" d="M28.8,243.6v0.4h-4v-0.4H28.8z"/>
			<path class="st3" d="M33.1,238.7c0,0.6-0.2,1-0.6,1.4c-0.2,0.2-0.5,0.5-1,0.8c-0.7,0.5-1.2,0.9-1.5,1.6h3.1v0.5h-3.8v-0.6
				c0.3-0.7,0.9-1.3,1.5-1.7c0.3-0.2,0.6-0.4,0.9-0.6c0.5-0.4,0.8-0.8,0.8-1.4c0-0.7-0.4-1.1-1.2-1.1c-0.7,0-1.2,0.5-1.4,1.3
				l-0.6-0.1c0.3-1.1,0.9-1.6,1.9-1.6C32.3,237.1,33.1,237.7,33.1,238.7z"/>
			<path class="st3" d="M38.1,240.1c0,2-0.7,3-2,3c-1.3,0-2-1-2-3c0-2,0.7-3,2-3C37.5,237.1,38.1,238.2,38.1,240.1z M36.1,242.6
				c1,0,1.4-0.8,1.4-2.5c0-1.7-0.4-2.5-1.4-2.5c-1,0-1.4,0.8-1.4,2.5C34.7,241.8,35.1,242.6,36.1,242.6z"/>
			<path class="st3" d="M42.8,238.7c0,0.6-0.2,1-0.6,1.4c-0.2,0.2-0.5,0.5-1,0.8c-0.7,0.5-1.2,0.9-1.5,1.6h3.1v0.5h-3.8v-0.6
				c0.3-0.7,0.9-1.3,1.5-1.7c0.3-0.2,0.6-0.4,0.9-0.6c0.5-0.4,0.8-0.8,0.8-1.4c0-0.7-0.4-1.1-1.2-1.1c-0.7,0-1.2,0.5-1.4,1.3
				l-0.6-0.1c0.3-1.1,0.9-1.6,1.9-1.6C42.1,237.1,42.8,237.7,42.8,238.7z"/>
			<path class="st3" d="M47.7,238.7c0,0.6-0.2,1-0.6,1.4c-0.2,0.2-0.5,0.5-1,0.8c-0.7,0.5-1.2,0.9-1.5,1.6h3.1v0.5H44v-0.6
				c0.3-0.7,0.9-1.3,1.5-1.7c0.3-0.2,0.6-0.4,0.9-0.6c0.5-0.4,0.8-0.8,0.8-1.4c0-0.7-0.4-1.1-1.2-1.1c-0.7,0-1.2,0.5-1.4,1.3
				l-0.6-0.1c0.3-1.1,0.9-1.6,1.9-1.6C47,237.1,47.7,237.7,47.7,238.7z"/>
			<path class="st3" d="M52.3,243.6v0.4h-4v-0.4H52.3z"/>
			<path class="st3" d="M56.8,240.1c0,2-0.7,3-2,3c-1.3,0-2-1-2-3c0-2,0.7-3,2-3C56.1,237.1,56.8,238.2,56.8,240.1z M54.8,242.6
				c1,0,1.4-0.8,1.4-2.5c0-1.7-0.4-2.5-1.4-2.5c-1,0-1.4,0.8-1.4,2.5C53.3,241.8,53.8,242.6,54.8,242.6z"/>
			<path class="st3" d="M61.5,238.7c0,0.6-0.2,1-0.6,1.4c-0.2,0.2-0.5,0.5-1,0.8c-0.7,0.5-1.2,0.9-1.5,1.6h3.1v0.5h-3.8v-0.6
				c0.3-0.7,0.9-1.3,1.5-1.7c0.3-0.2,0.6-0.4,0.9-0.6c0.5-0.4,0.8-0.8,0.8-1.4c0-0.7-0.4-1.1-1.2-1.1c-0.7,0-1.2,0.5-1.4,1.3
				l-0.6-0.1c0.3-1.1,0.9-1.6,1.9-1.6C60.7,237.1,61.5,237.7,61.5,238.7z"/>
			<path class="st3" d="M66.4,237.2v0.4l-2.4,5.4h-0.7l2.4-5.3h-2.9v-0.5H66.4z"/>
			<path class="st3" d="M71.3,238.7c0,0.6-0.2,1-0.6,1.4c-0.2,0.2-0.5,0.5-1,0.8c-0.7,0.5-1.2,0.9-1.5,1.6h3.1v0.5h-3.8v-0.6
				c0.3-0.7,0.9-1.3,1.5-1.7c0.3-0.2,0.6-0.4,0.9-0.6c0.5-0.4,0.8-0.8,0.8-1.4c0-0.7-0.4-1.1-1.2-1.1c-0.7,0-1.2,0.5-1.4,1.3
				l-0.6-0.1c0.3-1.1,0.9-1.6,1.9-1.6C70.5,237.1,71.3,237.7,71.3,238.7z"/>
			<path class="st3" d="M75.9,243.6v0.4h-4v-0.4H75.9z"/>
			<path class="st3" d="M77.4,237.2v4.1c0,0.8,0.6,1.2,1.4,1.2c0.8,0,1.4-0.5,1.4-1.2v-4.1h0.6v4c0,1.1-0.8,1.8-2,1.8
				c-1.2,0-2-0.7-2-1.8v-4H77.4z"/>
			<path class="st3" d="M83.2,237.2v3l2.4-3h0.8l-1.8,2.2l2,3.6h-0.7l-1.7-3.1l-0.9,1.1v1.9h-0.6v-5.8H83.2z"/>
			<path class="st3" d="M96.1,237.2l2.5,4.4h0v-4.4h0.6v5.8h-0.5l-2.9-5.1h0v5.1h-0.6v-5.8H96.1z"/>
			<path class="st3" d="M105,240.1c0,1.6-0.6,3-2.3,3s-2.3-1.4-2.3-3c0-1.6,0.6-3,2.3-3C104.4,237.1,105,238.5,105,240.1z
				 M102.8,242.5c1,0,1.6-0.8,1.6-2.4c0-1.6-0.6-2.4-1.6-2.4c-1,0-1.6,0.8-1.6,2.4C101.1,241.7,101.7,242.5,102.8,242.5z"/>
			<path class="st3" d="M106.2,237.2l1.4,4.7h0l1.4-4.7h0.6l-1.8,5.8h-0.6l-1.8-5.8H106.2z"/>
			<path class="st3" d="M114.2,237.2v0.5h-2.8v1.9h2v0.5h-2v2.2h3v0.5h-3.6v-5.8H114.2z"/>
			<path class="st3" d="M116.6,237.2l1.5,4.7h0l1.4-4.7h1v5.8H120v-5.4l-1.6,5.4h-0.5l-1.6-5.4v5.4h-0.6v-5.8H116.6z"/>
			<path class="st3" d="M124.3,237.2c1,0,1.7,0.5,1.7,1.4c0,0.7-0.3,1.1-1,1.3l0,0c0.7,0.2,1.1,0.8,1.1,1.5c0,1-0.7,1.6-2.1,1.6
				h-1.8v-5.8H124.3z M124,239.7c0.7,0,1.4-0.3,1.4-1c0-0.7-0.4-0.9-1.1-0.9h-1.4v1.9H124z M124.2,242.5c0.9,0,1.4-0.3,1.4-1
				c0-0.8-0.7-1.2-1.5-1.2h-1.1v2.2H124.2z"/>
			<path class="st3" d="M131.1,237.2v0.5h-2.8v1.9h2v0.5h-2v2.2h3v0.5h-3.6v-5.8H131.1z"/>
			<path class="st3" d="M134.3,237.2c1.1,0,1.9,0.5,1.9,1.5c0,0.7-0.4,1.2-1.2,1.5l1.2,2.8h-0.7l-1.2-2.6h-1.4v2.6h-0.6v-5.8H134.3z
				 M134.3,239.8c0.8,0,1.3-0.3,1.3-1.1c0-0.7-0.4-1-1.3-1h-1.2v2.1H134.3z"/>
			<path class="st3" d="M143.7,238.7c0,0.6-0.2,1-0.6,1.4c-0.2,0.2-0.5,0.5-1,0.8c-0.7,0.5-1.2,0.9-1.5,1.6h3.1v0.5H140v-0.6
				c0.3-0.7,0.9-1.3,1.5-1.7c0.3-0.2,0.6-0.4,0.9-0.6c0.5-0.4,0.8-0.8,0.8-1.4c0-0.7-0.4-1.1-1.2-1.1c-0.7,0-1.2,0.5-1.4,1.3
				l-0.6-0.1c0.3-1.1,0.9-1.6,1.9-1.6C142.9,237.1,143.7,237.7,143.7,238.7z"/>
			<path class="st3" d="M148.8,240.1c0,2-0.7,3-2,3c-1.3,0-2-1-2-3c0-2,0.7-3,2-3C148.1,237.1,148.8,238.2,148.8,240.1z
				 M146.8,242.6c1,0,1.4-0.8,1.4-2.5c0-1.7-0.4-2.5-1.4-2.5c-1,0-1.4,0.8-1.4,2.5C145.3,241.8,145.8,242.6,146.8,242.6z"/>
			<path class="st3" d="M153.5,238.7c0,0.6-0.2,1-0.6,1.4c-0.2,0.2-0.5,0.5-1,0.8c-0.7,0.5-1.2,0.9-1.5,1.6h3.1v0.5h-3.8v-0.6
				c0.3-0.7,0.9-1.3,1.5-1.7c0.3-0.2,0.6-0.4,0.9-0.6c0.5-0.4,0.8-0.8,0.8-1.4c0-0.7-0.4-1.1-1.2-1.1c-0.7,0-1.2,0.5-1.4,1.3
				l-0.6-0.1c0.3-1.1,0.9-1.6,1.9-1.6C152.7,237.1,153.5,237.7,153.5,238.7z"/>
			<path class="st3" d="M158.4,238.7c0,0.6-0.2,1-0.6,1.4c-0.2,0.2-0.5,0.5-1,0.8c-0.7,0.5-1.2,0.9-1.5,1.6h3.1v0.5h-3.8v-0.6
				c0.3-0.7,0.9-1.3,1.5-1.7c0.3-0.2,0.6-0.4,0.9-0.6c0.5-0.4,0.8-0.8,0.8-1.4c0-0.7-0.4-1.1-1.2-1.1c-0.7,0-1.2,0.5-1.4,1.3
				l-0.6-0.1c0.3-1.1,0.9-1.6,1.9-1.6C157.6,237.1,158.4,237.7,158.4,238.7z"/>
		</g>
	</g>
</g>
</svg>
