<?xml version="1.0" encoding="utf-8"?>
<!-- Generator: Adobe Illustrator 27.0.0, SVG Export Plug-In . SVG Version: 6.00 Build 0)  -->
<svg version="1.1" id="Layer_1" xmlns="http://www.w3.org/2000/svg" xmlns:xlink="http://www.w3.org/1999/xlink" x="0px" y="0px"
	 viewBox="0 0 300 250" style="enable-background:new 0 0 300 250;" xml:space="preserve">
<style type="text/css">
	.st0{clip-path:url(#SVGID_00000101078478689828413370000013154304653686010045_);}
	.st1{fill:#FFFFFF;}
	.st2{fill:#007A33;}
	.st3{enable-background:new    ;}
	.st4{fill:#4D4D4F;}
	.st5{fill:#43B02A;}
	.st6{fill:#AD1AAC;}
	.st7{fill:#4EC3E0;}
	.st8{fill:none;}
</style>
<g>
	<defs>
		<rect id="SVGID_1_" y="0" width="300" height="250"/>
	</defs>
	<clipPath id="SVGID_00000125597107511551849540000017592772963452193948_">
		<use xlink:href="#SVGID_1_"  style="overflow:visible;"/>
	</clipPath>
	<g id="MPU_300x250" style="clip-path:url(#SVGID_00000125597107511551849540000017592772963452193948_);">
		<rect y="0" class="st1" width="300" height="250"/>
		<rect id="Green-bg" y="0" class="st2" width="300" height="162"/>
		<rect id="White-Bottom" y="166" class="st1" width="300" height="84"/>
		<g class="st3">
			<path class="st4" d="M14.1,172.1v5.1H15v0.8h-2.8v-0.8h0.9v-4h-1v-0.7c0.5,0,1-0.1,1.3-0.4H14.1z"/>
			<path class="st4" d="M17.7,176.9v1.1h-1.1v-1.1H17.7z"/>
		</g>
		<g class="st3">
			<path class="st4" d="M25.1,172.2v0.5h-2.8v1.9h2v0.5h-2v2.2h3v0.5h-3.6v-5.8H25.1z"/>
			<path class="st4" d="M26.4,172.2l1.4,4.7h0l1.4-4.7H30l-1.8,5.8h-0.6l-1.8-5.8H26.4z"/>
			<path class="st4" d="M32.8,172.2c1.1,0,1.9,0.5,1.9,1.5c0,0.7-0.4,1.2-1.2,1.5l1.2,2.8h-0.7l-1.2-2.6h-1.4v2.6h-0.6v-5.8H32.8z
				 M32.7,174.8c0.8,0,1.3-0.3,1.3-1.1c0-0.7-0.4-1-1.3-1h-1.2v2.1H32.7z"/>
			<path class="st4" d="M39.8,172.2v0.5h-2.8v1.9h2v0.5h-2v2.2h3v0.5h-3.6v-5.8H39.8z"/>
			<path class="st4" d="M42.1,172.2l2.5,4.4h0v-4.4h0.6v5.8h-0.5l-2.9-5.1h0v5.1h-0.6v-5.8H42.1z"/>
			<path class="st4" d="M50.2,172.2v0.4l-2.9,4.8h3v0.5h-3.7v-0.5l2.9-4.8h-2.6v-0.5H50.2z"/>
			<path class="st4" d="M55.5,175.1c0,1.6-0.6,3-2.3,3s-2.3-1.4-2.3-3c0-1.6,0.6-3,2.3-3C54.9,172.1,55.5,173.5,55.5,175.1z
				 M53.2,177.5c1,0,1.6-0.8,1.6-2.4c0-1.6-0.6-2.4-1.6-2.4c-1,0-1.6,0.8-1.6,2.4C51.6,176.7,52.2,177.5,53.2,177.5z"/>
			<path class="st4" d="M62.5,173.6l-0.6,0.1c-0.2-0.6-0.7-1-1.3-1c-0.7,0-1.1,0.3-1.1,0.9c0,0.5,0.5,0.7,1.1,1
				c1.1,0.4,2.1,0.7,2.1,1.8c0,1.2-0.8,1.7-1.9,1.7c-1,0-1.6-0.5-2.1-1.5l0.6-0.2c0.3,0.8,0.8,1.2,1.5,1.2c0.7,0,1.3-0.3,1.3-1
				c0-0.7-0.7-1-1.6-1.3c-1-0.4-1.7-0.7-1.7-1.6c0-0.9,0.8-1.5,1.7-1.5C61.5,172.1,62.2,172.7,62.5,173.6z"/>
			<path class="st4" d="M68.1,173.8c0.8,0,1.1,0.4,1.1,1.2v3h-0.6v-3c0-0.5-0.2-0.7-0.6-0.7c-0.5,0-0.8,0.3-1.2,0.6v3.1h-0.6v-3
				c0-0.5-0.2-0.7-0.6-0.7c-0.5,0-0.8,0.3-1.2,0.6v3.1h-0.6v-4.2h0.6v0.6c0.4-0.4,0.8-0.6,1.2-0.6c0.5,0,0.9,0.3,1.1,0.7
				C67.1,174,67.6,173.8,68.1,173.8z"/>
			<path class="st4" d="M72.7,172.2c1.1,0,1.8,0.5,1.8,1.6c0,1.2-1,1.6-2.1,1.6h-1v2.6h-0.6v-5.8H72.7z M72.4,174.9
				c1,0,1.4-0.3,1.4-1.1s-0.5-1.1-1.3-1.1h-1.2v2.1H72.4z"/>
			<path class="st4" d="M79.3,173.8l-0.6,0.2c-0.2-0.8-0.6-1.3-1.4-1.3c-1.1,0-1.5,1.2-1.5,2.4c0,1.6,0.6,2.4,1.6,2.4
				c0.7,0,1.2-0.4,1.4-1.4l0.6,0.1c-0.3,1.2-1,1.8-2,1.8c-1.6,0-2.2-1.4-2.2-3c0-1.6,0.6-3,2.2-3C78.3,172.1,79,172.7,79.3,173.8z"
				/>
			<path class="st4" d="M81.3,177.1v0.9h-0.8v-0.9H81.3z"/>
		</g>
		<g class="st3">
			<path class="st4" d="M15.3,181.8c0,0.6-0.3,1.1-0.7,1.6c-0.4,0.4-1.6,1.3-2,1.7h2.7v0.9h-3.9v-1c0.1-0.3,0.4-0.7,1.2-1.3
				c1.4-1.1,1.6-1.5,1.6-1.9c0-0.5-0.3-0.8-0.9-0.8c-0.5,0-0.9,0.3-1,0.9l-0.9-0.2c0.1-0.9,1-1.6,2-1.6
				C14.5,180.1,15.3,180.8,15.3,181.8z"/>
			<path class="st4" d="M17.7,184.9v1.1h-1.1v-1.1H17.7z"/>
		</g>
		<g class="st3">
			<path class="st4" d="M23.7,180.2l1.8,5.8h-0.7l-0.5-1.8h-2.1l-0.5,1.8H21l1.8-5.8H23.7z M22.3,183.6h1.8l-0.8-3h-0.1L22.3,183.6z
				"/>
			<path class="st4" d="M26.9,180.2v3.7h0l1.7-2.1h0.7l-1.2,1.5l1.4,2.6h-0.7l-1.1-2.1l-0.8,0.9v1.2h-0.6v-5.8H26.9z"/>
			<path class="st4" d="M31.1,180.1v0.7h-0.6v-0.7H31.1z M31.1,181.8v4.2h-0.6v-4.2H31.1z"/>
			<path class="st4" d="M35.2,181.8v0.4l-2.3,3.2h2.3v0.5h-3.1v-0.4l2.3-3.2h-2v-0.5H35.2z"/>
			<path class="st4" d="M38.9,183v2.2c0,0.2,0,0.5,0.1,0.8h-0.6l-0.1-0.6c-0.4,0.4-0.9,0.7-1.4,0.7c-0.7,0-1.2-0.5-1.2-1.2
				c0-1.2,1.4-1.5,2.5-1.7V183c0-0.6-0.4-0.8-0.9-0.8c-0.5,0-0.9,0.3-1.1,0.6l-0.5-0.3c0.3-0.6,0.9-0.9,1.6-0.9
				C38.2,181.8,38.9,182.2,38.9,183z M37,185.6c0.4,0,1-0.3,1.3-0.7v-1.1c-0.7,0.1-2,0.4-2,1.2C36.3,185.3,36.7,185.6,37,185.6z"/>
			<path class="st4" d="M40.1,181.8L41,185h0l0.8-3.2h0.6l0.8,3.2h0l0.8-3.2h0.6l-1.1,4.2h-0.6l-0.8-3.2h0l-0.8,3.2h-0.6l-1.1-4.2
				H40.1z"/>
			<path class="st4" d="M48.2,183v2.2c0,0.2,0,0.5,0.1,0.8h-0.6l-0.1-0.6c-0.4,0.4-0.9,0.7-1.4,0.7c-0.7,0-1.2-0.5-1.2-1.2
				c0-1.2,1.4-1.5,2.5-1.7V183c0-0.6-0.4-0.8-0.9-0.8c-0.5,0-0.9,0.3-1.1,0.6l-0.5-0.3c0.3-0.6,0.9-0.9,1.6-0.9
				C47.6,181.8,48.2,182.2,48.2,183z M46.4,185.6c0.4,0,1-0.3,1.3-0.7v-1.1c-0.7,0.1-2,0.4-2,1.2C45.7,185.3,46,185.6,46.4,185.6z"
				/>
			<path class="st4" d="M55.5,180.2v0.5h-1.7v5.2h-0.6v-5.2h-1.7v-0.5H55.5z"/>
			<path class="st4" d="M61.7,183.6v0.4H59c0,1,0.6,1.6,1.2,1.6c0.5,0,0.9-0.3,1.1-0.7l0.4,0.2c-0.4,0.7-0.9,1-1.6,1
				c-1.1,0-1.8-0.8-1.8-2.2c0-1.5,0.8-2.2,1.7-2.2C61,181.8,61.7,182.4,61.7,183.6z M61.1,183.5c0-0.8-0.4-1.3-1-1.3
				c-0.6,0-1,0.4-1.1,1.3H61.1z"/>
			<path class="st4" d="M63.5,180.5v1.4h1v0.5h-1v3c0,0.2,0.1,0.3,0.5,0.3c0.2,0,0.3,0,0.5,0v0.5c-0.1,0-0.3,0.1-0.7,0.1
				c-0.6,0-0.9-0.1-0.9-0.7v-3.1h-0.7v-0.5h0.7v-1.4H63.5z"/>
			<path class="st4" d="M70.7,183v2.2c0,0.2,0,0.5,0.1,0.8h-0.6l-0.1-0.6c-0.4,0.4-0.9,0.7-1.4,0.7c-0.7,0-1.2-0.5-1.2-1.2
				c0-1.2,1.4-1.5,2.5-1.7V183c0-0.6-0.4-0.8-0.9-0.8c-0.5,0-0.9,0.3-1.1,0.6l-0.5-0.3c0.3-0.6,0.9-0.9,1.6-0.9
				C70,181.8,70.7,182.2,70.7,183z M68.8,185.6c0.4,0,1-0.3,1.3-0.7v-1.1c-0.7,0.1-2,0.4-2,1.2C68.1,185.3,68.5,185.6,68.8,185.6z"
				/>
			<path class="st4" d="M72.6,180.2v5.8H72v-5.8H72.6z"/>
			<path class="st4" d="M75,185.1v0.9h-0.8v-0.9H75z"/>
			<path class="st4" d="M81.1,180.2v4.3c0,1-0.4,1.5-1.3,1.5c-0.6,0-1-0.2-1.4-0.7l0.5-0.3c0.2,0.3,0.5,0.5,0.9,0.5
				c0.5,0,0.7-0.3,0.7-0.8v-4.5H81.1z"/>
			<path class="st4" d="M87.2,180.2L89,186h-0.7l-0.5-1.8h-2.1l-0.5,1.8h-0.7l1.8-5.8H87.2z M85.9,183.6h1.8l-0.8-3h-0.1L85.9,183.6
				z"/>
			<path class="st4" d="M94,181.8c0.8,0,1.1,0.4,1.1,1.2v3h-0.6v-3c0-0.5-0.2-0.7-0.6-0.7c-0.5,0-0.8,0.3-1.2,0.6v3.1h-0.6v-3
				c0-0.5-0.2-0.7-0.6-0.7c-0.5,0-0.8,0.3-1.2,0.6v3.1h-0.6v-4.2h0.6v0.6c0.4-0.4,0.8-0.6,1.2-0.6c0.5,0,0.9,0.3,1.1,0.7
				C93.1,182,93.5,181.8,94,181.8z"/>
			<path class="st4" d="M102.4,181.6l-0.6,0.1c-0.2-0.6-0.7-1-1.3-1c-0.7,0-1.1,0.3-1.1,0.9c0,0.5,0.5,0.7,1.1,1
				c1.1,0.4,2.1,0.7,2.1,1.8c0,1.2-0.8,1.7-1.9,1.7c-1,0-1.6-0.5-2.1-1.5l0.6-0.2c0.3,0.8,0.8,1.2,1.5,1.2c0.7,0,1.3-0.3,1.3-1
				c0-0.7-0.7-1-1.6-1.3c-1-0.4-1.7-0.7-1.7-1.6c0-0.9,0.8-1.5,1.7-1.5C101.5,180.1,102.1,180.7,102.4,181.6z"/>
			<path class="st4" d="M106.9,183.9c0,1.1-0.5,2.2-1.7,2.2s-1.7-1-1.7-2.2c0-1.1,0.5-2.2,1.7-2.2S106.9,182.8,106.9,183.9z
				 M105.2,185.6c0.8,0,1.1-0.8,1.1-1.7s-0.3-1.7-1.1-1.7c-0.8,0-1.1,0.9-1.1,1.7C104,184.7,104.3,185.6,105.2,185.6z"/>
			<path class="st4" d="M110.7,182.9l-0.5,0.2c-0.2-0.5-0.5-0.8-1-0.8c-0.9,0-1.1,0.8-1.1,1.7c0,1.1,0.4,1.7,1.1,1.7
				c0.6,0,0.8-0.2,1.1-0.8l0.5,0.2c-0.4,0.7-0.8,1.1-1.6,1.1c-1.2,0-1.7-1-1.7-2.2s0.5-2.2,1.7-2.2
				C109.9,181.8,110.4,182.1,110.7,182.9z"/>
			<path class="st4" d="M115.4,180.2l2.5,4.4h0v-4.4h0.6v5.8H118l-2.9-5.1h0v5.1h-0.6v-5.8H115.4z"/>
			<path class="st4" d="M123,183.6v0.4h-2.7c0,1,0.6,1.6,1.2,1.6c0.5,0,0.9-0.3,1.1-0.7l0.4,0.2c-0.4,0.7-0.9,1-1.6,1
				c-1.1,0-1.8-0.8-1.8-2.2c0-1.5,0.8-2.2,1.7-2.2C122.3,181.8,123,182.4,123,183.6z M122.4,183.5c0-0.8-0.4-1.3-1-1.3
				c-0.6,0-1,0.4-1.1,1.3H122.4z"/>
			<path class="st4" d="M127.5,183.9c0,1.7-1.1,2.2-1.7,2.2c-0.4,0-0.8-0.2-1.1-0.5v1.9h-0.6v-5.7h0.6v0.5c0.2-0.3,0.7-0.6,1.1-0.6
				C126.3,181.8,127.5,182.1,127.5,183.9z M124.7,185c0.4,0.4,0.7,0.6,1.1,0.6c0.8,0,1.2-0.6,1.2-1.7c0-1-0.4-1.6-1.2-1.6
				c-0.4,0-0.8,0.3-1,0.6V185z"/>
			<path class="st4" d="M129.1,180.2v2.2h0c0.4-0.4,0.8-0.6,1.2-0.6c0.8,0,1.2,0.5,1.2,1.2v3.1H131v-3c0-0.4-0.2-0.7-0.7-0.7
				c-0.4,0-0.9,0.3-1.2,0.6v3.1h-0.6v-5.8H129.1z"/>
			<path class="st4" d="M134.8,182.4c-0.8,0-1.1,0.5-1.4,1.3v2.3h-0.6v-4.2h0.6v0.8h0c0.3-0.6,0.7-0.9,1.3-0.9h0V182.4z"/>
			<path class="st4" d="M138.7,183.9c0,1.1-0.5,2.2-1.7,2.2s-1.7-1-1.7-2.2c0-1.1,0.5-2.2,1.7-2.2S138.7,182.8,138.7,183.9z
				 M136.9,185.6c0.8,0,1.1-0.8,1.1-1.7s-0.3-1.7-1.1-1.7c-0.8,0-1.1,0.9-1.1,1.7C135.8,184.7,136.1,185.6,136.9,185.6z"/>
			<path class="st4" d="M140.3,180.2v5.8h-0.6v-5.8H140.3z"/>
			<path class="st4" d="M142.8,185.1v0.9H142v-0.9H142.8z"/>
			<path class="st4" d="M150.3,181.7c0,0.6-0.2,1-0.6,1.4c-0.2,0.2-0.5,0.5-1,0.8c-0.7,0.5-1.2,0.9-1.5,1.6h3.1v0.5h-3.8v-0.6
				c0.3-0.7,0.9-1.3,1.5-1.7c0.3-0.2,0.6-0.4,0.9-0.6c0.5-0.4,0.8-0.8,0.8-1.4c0-0.7-0.4-1.1-1.2-1.1c-0.7,0-1.2,0.5-1.4,1.3
				l-0.6-0.1c0.3-1.1,0.9-1.6,1.9-1.6C149.6,180.1,150.3,180.7,150.3,181.7z"/>
			<path class="st4" d="M155.4,183.1c0,2-0.7,3-2,3c-1.3,0-2-1-2-3c0-2,0.7-3,2-3C154.7,180.1,155.4,181.2,155.4,183.1z
				 M153.4,185.6c1,0,1.4-0.8,1.4-2.5c0-1.7-0.4-2.5-1.4-2.5c-1,0-1.4,0.8-1.4,2.5C152,184.8,152.4,185.6,153.4,185.6z"/>
			<path class="st4" d="M160.1,181.7c0,0.6-0.2,1-0.6,1.4c-0.2,0.2-0.5,0.5-1,0.8c-0.7,0.5-1.2,0.9-1.5,1.6h3.1v0.5h-3.8v-0.6
				c0.3-0.7,0.9-1.3,1.5-1.7c0.3-0.2,0.6-0.4,0.9-0.6c0.5-0.4,0.8-0.8,0.8-1.4c0-0.7-0.4-1.1-1.2-1.1s-1.2,0.5-1.4,1.3l-0.6-0.1
				c0.3-1.1,0.9-1.6,1.9-1.6C159.3,180.1,160.1,180.7,160.1,181.7z"/>
			<path class="st4" d="M165.2,183.1c0,2-0.7,3-2,3c-1.3,0-2-1-2-3c0-2,0.7-3,2-3C164.5,180.1,165.2,181.2,165.2,183.1z
				 M163.2,185.6c1,0,1.4-0.8,1.4-2.5c0-1.7-0.4-2.5-1.4-2.5c-1,0-1.4,0.8-1.4,2.5C161.7,184.8,162.2,185.6,163.2,185.6z"/>
			<path class="st4" d="M167.2,185.1v0.9l-0.5,1.2h-0.3l0.4-1.2h-0.3v-0.9H167.2z M167.2,182.8v0.9h-0.8v-0.9H167.2z"/>
			<path class="st4" d="M172.1,181.6c0,0.6-0.3,1.1-0.9,1.3c0.7,0.3,1.1,0.8,1.1,1.5c0,1.1-0.9,1.7-2,1.7c-0.9,0-1.6-0.4-2-1.1
				l0.5-0.3c0.4,0.6,1,1,1.6,1c0.7,0,1.4-0.4,1.4-1.1c0-0.9-0.6-1.3-1.6-1.3h-0.6v-0.5h0.4c0.8,0,1.6-0.2,1.6-1.1c0-0.6-0.5-1-1.1-1
				c-0.6,0-1,0.3-1.4,0.8l-0.5-0.3c0.5-0.7,1.1-1,1.9-1C171.4,180.1,172.1,180.6,172.1,181.6z"/>
			<path class="st4" d="M175.7,180.1v5.4h1v0.5h-2.6v-0.5h1v-4.7l-1.1,0.1v-0.4c0.5-0.1,0.9-0.2,1.1-0.4H175.7z"/>
			<path class="st4" d="M180.1,180.1c-0.8,1-1.1,2-1.1,3.3c0,1.1,0.4,2.2,1.1,3.2h-0.6c-0.7-1-1.1-2.1-1.1-3.3
				c0-1.2,0.4-2.3,1.1-3.2H180.1z"/>
			<path class="st4" d="M184.7,180.2v0.4l-2.4,5.4h-0.7l2.4-5.3h-2.9v-0.5H184.7z"/>
			<path class="st4" d="M186.4,180.1c0.7,1,1.1,2.1,1.1,3.3c0,1.2-0.4,2.3-1.1,3.2h-0.6c0.8-1,1.1-2,1.1-3.3c0-1.1-0.4-2.1-1.1-3.2
				H186.4z"/>
			<path class="st4" d="M189.6,182.8v0.9h-0.8v-0.9H189.6z M189.6,185.1v0.9h-0.8v-0.9H189.6z"/>
			<path class="st4" d="M193.3,180.1v5.4h1v0.5h-2.6v-0.5h1v-4.7l-1.1,0.1v-0.4c0.5-0.1,0.9-0.2,1.1-0.4H193.3z"/>
			<path class="st4" d="M199.5,180.5l-0.2,0.5c-0.3-0.2-0.6-0.3-1-0.3c-1.2,0-1.8,1.2-1.8,2.4c0.5-0.5,1-0.7,1.6-0.7
				c1,0,1.7,0.7,1.7,1.9c0,1.1-0.8,1.9-1.9,1.9c-1.4,0-2.1-0.9-2.1-2.7c0-1.6,0.7-3.3,2.4-3.3C198.6,180.1,199.2,180.2,199.5,180.5z
				 M197.9,185.6c0.8,0,1.3-0.5,1.3-1.3c0-0.8-0.5-1.4-1.2-1.4c-0.8,0-1.5,0.7-1.5,1.2C196.5,184.9,197,185.6,197.9,185.6z"/>
			<path class="st4" d="M204.5,181.7c0,0.6-0.2,1-0.6,1.4c-0.2,0.2-0.5,0.5-1,0.8c-0.7,0.5-1.2,0.9-1.5,1.6h3.1v0.5h-3.8v-0.6
				c0.3-0.7,0.9-1.3,1.5-1.7c0.3-0.2,0.6-0.4,0.9-0.6c0.5-0.4,0.8-0.8,0.8-1.4c0-0.7-0.4-1.1-1.2-1.1c-0.7,0-1.2,0.5-1.4,1.3
				l-0.6-0.1c0.3-1.1,0.9-1.6,1.9-1.6C203.8,180.1,204.5,180.7,204.5,181.7z"/>
			<path class="st4" d="M209.4,181.6c0,0.6-0.3,1.1-1,1.3v0c0.8,0.3,1.3,0.9,1.3,1.6c0,1-0.8,1.6-2.1,1.6c-1.2,0-2.1-0.5-2.1-1.6
				c0-0.6,0.4-1.2,1.3-1.6v0c-0.7-0.2-1-0.7-1-1.3c0-1,0.9-1.4,1.9-1.4C208.5,180.1,209.4,180.6,209.4,181.6z M207.6,185.6
				c1,0,1.5-0.5,1.5-1.1c0-0.7-0.8-1-1.6-1.3c-0.9,0.4-1.4,0.8-1.4,1.3C206.1,185.1,206.7,185.6,207.6,185.6z M207.6,182.7
				c0.6-0.2,1.3-0.5,1.3-1.1c0-0.7-0.7-0.9-1.3-0.9c-0.6,0-1.2,0.2-1.2,0.9C206.3,182,206.7,182.4,207.6,182.7z"/>
			<path class="st4" d="M214,183.7v0.4h-4v-0.4H214z"/>
			<path class="st4" d="M216.8,180.1v5.4h1v0.5h-2.6v-0.5h1v-4.7l-1.1,0.1v-0.4c0.5-0.1,0.9-0.2,1.1-0.4H216.8z"/>
			<path class="st4" d="M223,180.5l-0.2,0.5c-0.3-0.2-0.6-0.3-1-0.3c-1.2,0-1.8,1.2-1.8,2.4c0.5-0.5,1-0.7,1.6-0.7
				c1,0,1.7,0.7,1.7,1.9c0,1.1-0.8,1.9-1.9,1.9c-1.4,0-2.1-0.9-2.1-2.7c0-1.6,0.7-3.3,2.4-3.3C222.2,180.1,222.7,180.2,223,180.5z
				 M221.4,185.6c0.8,0,1.3-0.5,1.3-1.3c0-0.8-0.5-1.4-1.2-1.4c-0.8,0-1.5,0.7-1.5,1.2C220,184.9,220.6,185.6,221.4,185.6z"/>
			<path class="st4" d="M227.9,181.6c0,0.6-0.3,1.1-0.9,1.3c0.7,0.3,1.1,0.8,1.1,1.5c0,1.1-0.9,1.7-2,1.7c-0.9,0-1.6-0.4-2-1.1
				l0.5-0.3c0.4,0.6,1,1,1.6,1c0.7,0,1.4-0.4,1.4-1.1c0-0.9-0.6-1.3-1.6-1.3h-0.6v-0.5h0.4c0.8,0,1.6-0.2,1.6-1.1c0-0.6-0.5-1-1.1-1
				c-0.6,0-1,0.3-1.4,0.8l-0.5-0.3c0.5-0.7,1.1-1,1.9-1C227.2,180.1,227.9,180.6,227.9,181.6z"/>
			<path class="st4" d="M233.1,182.8c0,1.6-0.7,3.3-2.4,3.3c-0.5,0-1-0.1-1.2-0.3l0.2-0.5c0.3,0.2,0.6,0.3,1,0.3
				c1.2,0,1.7-1.2,1.8-2.4c-0.5,0.5-0.9,0.7-1.6,0.7c-0.8,0-1.7-0.5-1.7-1.9c0-1.2,0.8-1.9,1.9-1.9
				C232.4,180.1,233.1,181.1,233.1,182.8z M231,183.4c0.7,0,1.2-0.4,1.5-1.1c0-0.9-0.5-1.7-1.4-1.7c-0.7,0-1.3,0.5-1.3,1.3
				C229.8,182.9,230.4,183.4,231,183.4z"/>
			<path class="st4" d="M235.2,185.1v0.9h-0.8v-0.9H235.2z"/>
		</g>
		<g class="st3">
			<path class="st4" d="M15.3,190.2v0.9h-1.5v4.9h-1.1v-4.9h-1.5v-0.9H15.3z"/>
			<path class="st4" d="M17,190.2v2.1c0.4-0.4,0.8-0.5,1.2-0.5c0.8,0,1.2,0.5,1.2,1.4v2.9h-1v-2.7c0-0.5-0.1-0.7-0.5-0.7
				c-0.3,0-0.7,0.2-0.9,0.4v3h-1v-5.8H17z"/>
			<path class="st4" d="M21.5,190.1v0.9h-1v-0.9H21.5z M21.5,191.8v4.2h-1v-4.2H21.5z"/>
			<path class="st4" d="M25.3,192.4l-0.6,0.5c-0.3-0.3-0.5-0.4-0.8-0.4c-0.4,0-0.6,0.2-0.6,0.4c0,0.2,0.2,0.4,0.7,0.6
				c1,0.3,1.3,0.7,1.3,1.4c0,0.8-0.6,1.2-1.5,1.2c-0.7,0-1.2-0.3-1.6-0.8l0.7-0.5c0.3,0.4,0.6,0.6,1,0.6c0.4,0,0.6-0.2,0.6-0.5
				c0-0.2-0.2-0.4-0.8-0.6c-1-0.3-1.3-0.7-1.3-1.3c0-0.7,0.6-1.2,1.4-1.2C24.4,191.8,24.9,192,25.3,192.4z"/>
			<path class="st4" d="M31.6,193.4v2c0,0.1,0,0.4,0.1,0.6h-1l-0.1-0.4c-0.4,0.3-0.8,0.4-1.3,0.4c-0.7,0-1.1-0.5-1.1-1.1
				c0-0.9,0.8-1.4,2.4-1.6V193c0-0.3-0.3-0.5-0.6-0.5c-0.3,0-0.6,0.2-0.9,0.5l-0.6-0.5c0.3-0.4,0.9-0.8,1.5-0.8
				C31.2,191.8,31.6,192.2,31.6,193.4z M29.7,195.3c0.3,0,0.6-0.2,0.9-0.4V194c-1.1,0.2-1.4,0.5-1.4,0.8
				C29.2,195.2,29.4,195.3,29.7,195.3z"/>
			<path class="st4" d="M36,190.2v5.8h-0.8l0-0.4c-0.4,0.3-0.7,0.5-1.1,0.5c-1.1,0-1.7-0.9-1.7-2.3c0-1.1,0.6-2.1,1.7-2.1
				c0.4,0,0.8,0.2,1,0.5h0v-2H36z M34.3,195.3c0.4,0,0.6-0.2,0.8-0.4v-2c-0.2-0.2-0.4-0.4-0.8-0.4c-0.6,0-0.9,0.5-0.9,1.4
				S33.7,195.3,34.3,195.3z"/>
			<path class="st4" d="M37.6,191.8l0.7,2.8h0l0.7-2.8h1l-1.2,4.2h-1l-1.2-4.2H37.6z"/>
			<path class="st4" d="M43.8,193.6v0.4h-2.5c0,0.8,0.3,1.2,0.9,1.2c0.4,0,0.6-0.1,0.9-0.5l0.7,0.4c-0.4,0.6-0.9,0.8-1.7,0.8
				c-1.1,0-1.8-0.8-1.8-2.2s0.7-2.2,1.8-2.2C43.3,191.8,43.8,192.8,43.8,193.6z M42.9,193.4c0-0.6-0.3-0.9-0.8-0.9
				c-0.5,0-0.8,0.3-0.8,0.9H42.9z"/>
			<path class="st4" d="M46.7,192.8c0,0-0.1,0-0.2,0c-0.5,0-0.9,0.5-0.9,0.7v2.5h-1v-4.2h0.9v0.7h0c0.2-0.5,0.6-0.8,1.2-0.8V192.8z"
				/>
			<path class="st4" d="M48.4,190.5v1.4h0.8v0.8h-0.8v2.4c0,0.2,0.1,0.3,0.4,0.3c0.2,0,0.3,0,0.5-0.1v0.8c-0.3,0-0.5,0.1-0.8,0.1
				c-0.7,0-1-0.3-1-1v-2.5h-0.6v-0.8h0.6v-1.4H48.4z"/>
			<path class="st4" d="M53.5,190.1v0.9h-1v-0.9H53.5z M53.5,191.8v4.2h-1v-4.2H53.5z"/>
			<path class="st4" d="M57.3,192.4l-0.6,0.5c-0.3-0.3-0.5-0.4-0.8-0.4c-0.4,0-0.6,0.2-0.6,0.4c0,0.2,0.2,0.4,0.7,0.6
				c1,0.3,1.3,0.7,1.3,1.4c0,0.8-0.6,1.2-1.5,1.2c-0.7,0-1.2-0.3-1.6-0.8l0.7-0.5c0.3,0.4,0.6,0.6,1,0.6c0.4,0,0.6-0.2,0.6-0.5
				c0-0.2-0.2-0.4-0.8-0.6c-1-0.3-1.3-0.7-1.3-1.3c0-0.7,0.6-1.2,1.4-1.2C56.4,191.8,56.9,192,57.3,192.4z"/>
			<path class="st4" d="M61.7,190.1v0.9h-1v-0.9H61.7z M61.7,191.8v4.2h-1v-4.2H61.7z"/>
			<path class="st4" d="M66.3,193.1v2.9h-1v-2.7c0-0.5-0.1-0.7-0.5-0.7c-0.3,0-0.7,0.2-0.9,0.4v3h-1v-4.2h0.9v0.4
				c0.5-0.4,0.9-0.5,1.3-0.5C65.8,191.8,66.3,192.3,66.3,193.1z"/>
			<path class="st4" d="M68.4,190.5v1.4h0.8v0.8h-0.8v2.4c0,0.2,0.1,0.3,0.4,0.3c0.2,0,0.3,0,0.5-0.1v0.8c-0.3,0-0.5,0.1-0.8,0.1
				c-0.7,0-1-0.3-1-1v-2.5h-0.6v-0.8h0.6v-1.4H68.4z"/>
			<path class="st4" d="M73.1,193.6v0.4h-2.5c0,0.8,0.3,1.2,0.9,1.2c0.4,0,0.6-0.1,0.9-0.5l0.7,0.4c-0.4,0.6-0.9,0.8-1.7,0.8
				c-1.1,0-1.8-0.8-1.8-2.2s0.7-2.2,1.8-2.2C72.6,191.8,73.1,192.8,73.1,193.6z M72.2,193.4c0-0.6-0.3-0.9-0.8-0.9
				c-0.5,0-0.8,0.3-0.8,0.9H72.2z"/>
			<path class="st4" d="M77.4,193.1v2.9h-1v-2.7c0-0.5-0.1-0.7-0.5-0.7c-0.3,0-0.7,0.2-0.9,0.4v3h-1v-4.2h0.9v0.4
				c0.5-0.4,0.9-0.5,1.3-0.5C76.9,191.8,77.4,192.3,77.4,193.1z"/>
			<path class="st4" d="M81.8,190.2v5.8H81l0-0.4c-0.4,0.3-0.7,0.5-1.1,0.5c-1.1,0-1.7-0.9-1.7-2.3c0-1.1,0.6-2.1,1.7-2.1
				c0.4,0,0.8,0.2,1,0.5h0v-2H81.8z M80.1,195.3c0.4,0,0.6-0.2,0.8-0.4v-2c-0.2-0.2-0.4-0.4-0.8-0.4c-0.6,0-0.9,0.5-0.9,1.4
				S79.5,195.3,80.1,195.3z"/>
			<path class="st4" d="M86,193.6v0.4h-2.5c0,0.8,0.3,1.2,0.9,1.2c0.4,0,0.6-0.1,0.9-0.5l0.7,0.4c-0.4,0.6-0.9,0.8-1.7,0.8
				c-1.1,0-1.8-0.8-1.8-2.2s0.7-2.2,1.8-2.2C85.5,191.8,86,192.8,86,193.6z M85.1,193.4c0-0.6-0.3-0.9-0.8-0.9
				c-0.5,0-0.8,0.3-0.8,0.9H85.1z"/>
			<path class="st4" d="M90.3,190.2v5.8h-0.8l0-0.4c-0.4,0.3-0.7,0.5-1.1,0.5c-1.1,0-1.7-0.9-1.7-2.3c0-1.1,0.6-2.1,1.7-2.1
				c0.4,0,0.8,0.2,1,0.5h0v-2H90.3z M88.5,195.3c0.4,0,0.6-0.2,0.8-0.4v-2c-0.2-0.2-0.4-0.4-0.8-0.4c-0.6,0-0.9,0.5-0.9,1.4
				S87.9,195.3,88.5,195.3z"/>
			<path class="st4" d="M95.7,190.1v0.8h-0.2c-0.5,0-0.6,0.2-0.6,0.5v0.4h0.8v0.8h-0.8v3.4h-1v-3.4h-0.6v-0.8h0.6v-0.5
				c0-0.8,0.3-1.2,1.1-1.2H95.7z"/>
			<path class="st4" d="M99.7,193.9c0,1.3-0.7,2.2-1.8,2.2c-1.1,0-1.8-0.8-1.8-2.2c0-1.3,0.7-2.2,1.8-2.2S99.7,192.6,99.7,193.9z
				 M97.9,195.3c0.5,0,0.8-0.4,0.8-1.4c0-0.9-0.3-1.4-0.8-1.4c-0.6,0-0.8,0.5-0.8,1.4C97.1,194.9,97.3,195.3,97.9,195.3z"/>
			<path class="st4" d="M102.4,192.8c0,0-0.1,0-0.2,0c-0.5,0-0.9,0.5-0.9,0.7v2.5h-1v-4.2h0.9v0.7h0c0.2-0.5,0.6-0.8,1.2-0.8V192.8z
				"/>
			<path class="st4" d="M106.8,190.2v3.7c0,0.8,0.3,1.2,1.1,1.2c0.8,0,1.1-0.4,1.1-1.2v-3.7h1.1v3.7c0,1.4-0.8,2.2-2.2,2.2
				c-1.4,0-2.2-0.8-2.2-2.2v-3.6H106.8z"/>
			<path class="st4" d="M112.5,190.2v2.6l1.9-2.6h1.3l-1.6,2.2l1.9,3.6h-1.2l-1.4-2.7l-0.8,1v1.7h-1.1v-5.8H112.5z"/>
			<path class="st4" d="M122.1,193.4v2c0,0.1,0,0.4,0.1,0.6h-1l-0.1-0.4c-0.4,0.3-0.8,0.4-1.3,0.4c-0.7,0-1.1-0.5-1.1-1.1
				c0-0.9,0.8-1.4,2.4-1.6V193c0-0.3-0.3-0.5-0.6-0.5c-0.3,0-0.6,0.2-0.9,0.5l-0.6-0.5c0.3-0.4,0.9-0.8,1.5-0.8
				C121.6,191.8,122.1,192.2,122.1,193.4z M120.1,195.3c0.3,0,0.6-0.2,0.9-0.4V194c-1.1,0.2-1.4,0.5-1.4,0.8
				C119.7,195.2,119.9,195.3,120.1,195.3z"/>
			<path class="st4" d="M126.5,193.1v2.9h-1v-2.7c0-0.5-0.1-0.7-0.5-0.7c-0.3,0-0.7,0.2-0.9,0.4v3h-1v-4.2h0.9v0.4
				c0.5-0.4,0.9-0.5,1.3-0.5C126,191.8,126.5,192.3,126.5,193.1z"/>
			<path class="st4" d="M130.9,190.2v5.8h-0.8l0-0.4c-0.4,0.3-0.7,0.5-1.1,0.5c-1.1,0-1.7-0.9-1.7-2.3c0-1.1,0.6-2.1,1.7-2.1
				c0.4,0,0.8,0.2,1,0.5h0v-2H130.9z M129.2,195.3c0.4,0,0.6-0.2,0.8-0.4v-2c-0.2-0.2-0.4-0.4-0.8-0.4c-0.6,0-0.9,0.5-0.9,1.4
				S128.6,195.3,129.2,195.3z"/>
			<path class="st4" d="M138.4,190.2v0.9h-2.7v1.4h2v0.9h-2v1.6h2.8v0.9h-3.9v-5.8H138.4z"/>
			<path class="st4" d="M140.5,190.2v3.7c0,0.8,0.3,1.2,1.1,1.2c0.8,0,1.1-0.4,1.1-1.2v-3.7h1.1v3.7c0,1.4-0.8,2.2-2.2,2.2
				c-1.4,0-2.2-0.8-2.2-2.2v-3.6H140.5z"/>
		</g>
		<g class="st3">
			<path class="st4" d="M12.8,198.2v2.3H15v-2.3h1.1v5.8H15v-2.5h-2.2v2.5h-1.1v-5.8H12.8z"/>
			<path class="st4" d="M20.5,201.6v0.4H18c0,0.8,0.3,1.2,0.9,1.2c0.4,0,0.6-0.1,0.9-0.5l0.7,0.4c-0.4,0.6-0.9,0.8-1.7,0.8
				c-1.1,0-1.8-0.8-1.8-2.2s0.7-2.2,1.8-2.2C19.9,199.8,20.5,200.8,20.5,201.6z M19.6,201.4c0-0.6-0.3-0.9-0.8-0.9
				c-0.5,0-0.8,0.3-0.8,0.9H19.6z"/>
			<path class="st4" d="M24.3,201.4v2c0,0.1,0,0.4,0.1,0.6h-1l-0.1-0.4c-0.4,0.3-0.8,0.4-1.3,0.4c-0.7,0-1.1-0.5-1.1-1.1
				c0-0.9,0.8-1.4,2.4-1.6V201c0-0.3-0.3-0.5-0.6-0.5c-0.3,0-0.6,0.2-0.9,0.5l-0.6-0.5c0.3-0.4,0.9-0.8,1.5-0.8
				C23.8,199.8,24.3,200.2,24.3,201.4z M22.4,203.3c0.3,0,0.6-0.2,0.9-0.4V202c-1.1,0.2-1.4,0.5-1.4,0.8
				C21.9,203.2,22.1,203.3,22.4,203.3z"/>
			<path class="st4" d="M26.4,198.2v5.8h-1v-5.8H26.4z"/>
			<path class="st4" d="M28.7,198.5v1.4h0.8v0.8h-0.8v2.4c0,0.2,0.1,0.3,0.4,0.3c0.2,0,0.3,0,0.5-0.1v0.8c-0.3,0-0.5,0.1-0.8,0.1
				c-0.7,0-1-0.3-1-1v-2.5h-0.6v-0.8h0.6v-1.4H28.7z"/>
			<path class="st4" d="M31.2,198.2v2.1c0.4-0.4,0.8-0.5,1.2-0.5c0.8,0,1.2,0.5,1.2,1.4v2.9h-1v-2.7c0-0.5-0.1-0.7-0.5-0.7
				c-0.3,0-0.7,0.2-0.9,0.4v3h-1v-5.8H31.2z"/>
			<path class="st4" d="M37.8,200.9l-0.8,0.3c-0.2-0.5-0.4-0.6-0.8-0.6c-0.6,0-0.8,0.4-0.8,1.4c0,0.9,0.3,1.4,0.8,1.4
				c0.4,0,0.6-0.2,0.9-0.7l0.8,0.4c-0.4,0.7-0.9,1-1.6,1c-1.2,0-1.8-0.8-1.8-2.2c0-1.3,0.7-2.2,1.8-2.2
				C36.9,199.8,37.5,200.2,37.8,200.9z"/>
			<path class="st4" d="M41.6,201.4v2c0,0.1,0,0.4,0.1,0.6h-1l-0.1-0.4c-0.4,0.3-0.8,0.4-1.3,0.4c-0.7,0-1.1-0.5-1.1-1.1
				c0-0.9,0.8-1.4,2.4-1.6V201c0-0.3-0.3-0.5-0.6-0.5c-0.3,0-0.6,0.2-0.9,0.5l-0.6-0.5c0.3-0.4,0.9-0.8,1.5-0.8
				C41.2,199.8,41.6,200.2,41.6,201.4z M39.7,203.3c0.3,0,0.6-0.2,0.9-0.4V202c-1.1,0.2-1.4,0.5-1.4,0.8
				C39.2,203.2,39.4,203.3,39.7,203.3z"/>
			<path class="st4" d="M44.7,200.8c0,0-0.1,0-0.2,0c-0.5,0-0.9,0.5-0.9,0.7v2.5h-1v-4.2h0.9v0.7h0c0.2-0.5,0.6-0.8,1.2-0.8V200.8z"
				/>
			<path class="st4" d="M48.5,201.6v0.4H46c0,0.8,0.3,1.2,0.9,1.2c0.4,0,0.6-0.1,0.9-0.5l0.7,0.4c-0.4,0.6-0.9,0.8-1.7,0.8
				c-1.1,0-1.8-0.8-1.8-2.2s0.7-2.2,1.8-2.2C47.9,199.8,48.5,200.8,48.5,201.6z M47.6,201.4c0-0.6-0.3-0.9-0.8-0.9
				c-0.5,0-0.8,0.3-0.8,0.9H47.6z"/>
			<path class="st4" d="M53.9,198.2c1.3,0,2,0.6,2,1.7s-0.7,1.7-2,1.7h-1v2.3h-1.1v-5.8H53.9z M53.8,200.8c0.7,0,1-0.2,1-0.8
				s-0.4-0.8-1-0.8h-0.9v1.6H53.8z"/>
			<path class="st4" d="M58.6,200.8c0,0-0.1,0-0.2,0c-0.5,0-0.9,0.5-0.9,0.7v2.5h-1v-4.2h0.9v0.7h0c0.2-0.5,0.6-0.8,1.2-0.8V200.8z"
				/>
			<path class="st4" d="M62.6,201.9c0,1.3-0.7,2.2-1.8,2.2c-1.1,0-1.8-0.8-1.8-2.2c0-1.3,0.7-2.2,1.8-2.2S62.6,200.6,62.6,201.9z
				 M60.8,203.3c0.5,0,0.8-0.4,0.8-1.4c0-0.9-0.3-1.4-0.8-1.4c-0.6,0-0.8,0.5-0.8,1.4C60,202.9,60.2,203.3,60.8,203.3z"/>
			<path class="st4" d="M65.3,198.1v0.8H65c-0.5,0-0.6,0.2-0.6,0.5v0.4h0.8v0.8h-0.8v3.4h-1v-3.4h-0.6v-0.8h0.6v-0.5
				c0-0.8,0.3-1.2,1.1-1.2H65.3z"/>
			<path class="st4" d="M69.1,201.6v0.4h-2.5c0,0.8,0.3,1.2,0.9,1.2c0.4,0,0.6-0.1,0.9-0.5l0.7,0.4c-0.4,0.6-0.9,0.8-1.7,0.8
				c-1.1,0-1.8-0.8-1.8-2.2s0.7-2.2,1.8-2.2C68.6,199.8,69.1,200.8,69.1,201.6z M68.2,201.4c0-0.6-0.3-0.9-0.8-0.9
				c-0.5,0-0.8,0.3-0.8,0.9H68.2z"/>
			<path class="st4" d="M72.6,200.4l-0.6,0.5c-0.3-0.3-0.5-0.4-0.8-0.4c-0.4,0-0.6,0.2-0.6,0.4c0,0.2,0.2,0.4,0.7,0.6
				c1,0.3,1.3,0.7,1.3,1.4c0,0.8-0.6,1.2-1.5,1.2c-0.7,0-1.2-0.3-1.6-0.8l0.7-0.5c0.3,0.4,0.6,0.6,1,0.6c0.4,0,0.6-0.2,0.6-0.5
				c0-0.2-0.2-0.4-0.8-0.6c-1-0.3-1.3-0.7-1.3-1.3c0-0.7,0.6-1.2,1.4-1.2C71.7,199.8,72.2,200,72.6,200.4z"/>
			<path class="st4" d="M76.1,200.4l-0.6,0.5c-0.3-0.3-0.5-0.4-0.8-0.4c-0.4,0-0.6,0.2-0.6,0.4c0,0.2,0.2,0.4,0.7,0.6
				c1,0.3,1.3,0.7,1.3,1.4c0,0.8-0.6,1.2-1.5,1.2c-0.7,0-1.2-0.3-1.6-0.8l0.7-0.5c0.3,0.4,0.6,0.6,1,0.6c0.4,0,0.6-0.2,0.6-0.5
				c0-0.2-0.2-0.4-0.8-0.6c-1-0.3-1.3-0.7-1.3-1.3c0-0.7,0.6-1.2,1.4-1.2C75.2,199.8,75.8,200,76.1,200.4z"/>
			<path class="st4" d="M78.1,198.1v0.9h-1v-0.9H78.1z M78.1,199.8v4.2h-1v-4.2H78.1z"/>
			<path class="st4" d="M82.6,201.9c0,1.3-0.7,2.2-1.8,2.2c-1.1,0-1.8-0.8-1.8-2.2c0-1.3,0.7-2.2,1.8-2.2S82.6,200.6,82.6,201.9z
				 M80.8,203.3c0.5,0,0.8-0.4,0.8-1.4c0-0.9-0.3-1.4-0.8-1.4c-0.6,0-0.8,0.5-0.8,1.4C79.9,202.9,80.2,203.3,80.8,203.3z"/>
			<path class="st4" d="M86.7,201.1v2.9h-1v-2.7c0-0.5-0.1-0.7-0.5-0.7c-0.3,0-0.7,0.2-0.9,0.4v3h-1v-4.2h0.9v0.4
				c0.5-0.4,0.9-0.5,1.3-0.5C86.3,199.8,86.7,200.3,86.7,201.1z"/>
			<path class="st4" d="M90.7,201.4v2c0,0.1,0,0.4,0.1,0.6h-1l-0.1-0.4c-0.4,0.3-0.8,0.4-1.3,0.4c-0.7,0-1.1-0.5-1.1-1.1
				c0-0.9,0.8-1.4,2.4-1.6V201c0-0.3-0.3-0.5-0.6-0.5c-0.3,0-0.6,0.2-0.9,0.5l-0.6-0.5c0.3-0.4,0.9-0.8,1.5-0.8
				C90.3,199.8,90.7,200.2,90.7,201.4z M88.8,203.3c0.3,0,0.6-0.2,0.9-0.4V202c-1.1,0.2-1.4,0.5-1.4,0.8
				C88.3,203.2,88.5,203.3,88.8,203.3z"/>
			<path class="st4" d="M92.8,198.2v5.8h-1v-5.8H92.8z"/>
			<path class="st4" d="M96.6,200.4l-0.6,0.5c-0.3-0.3-0.5-0.4-0.8-0.4c-0.4,0-0.6,0.2-0.6,0.4c0,0.2,0.2,0.4,0.7,0.6
				c1,0.3,1.3,0.7,1.3,1.4c0,0.8-0.6,1.2-1.5,1.2c-0.7,0-1.2-0.3-1.6-0.8l0.7-0.5c0.3,0.4,0.6,0.6,1,0.6c0.4,0,0.6-0.2,0.6-0.5
				c0-0.2-0.2-0.4-0.8-0.6c-1-0.3-1.3-0.7-1.3-1.3c0-0.7,0.6-1.2,1.4-1.2C95.7,199.8,96.2,200,96.6,200.4z"/>
			<path class="st4" d="M102.9,201.4v2c0,0.1,0,0.4,0.1,0.6h-1l-0.1-0.4c-0.4,0.3-0.8,0.4-1.3,0.4c-0.7,0-1.1-0.5-1.1-1.1
				c0-0.9,0.8-1.4,2.4-1.6V201c0-0.3-0.3-0.5-0.6-0.5c-0.3,0-0.6,0.2-0.9,0.5l-0.6-0.5c0.3-0.4,0.9-0.8,1.5-0.8
				C102.5,199.8,102.9,200.2,102.9,201.4z M101,203.3c0.3,0,0.6-0.2,0.9-0.4V202c-1.1,0.2-1.4,0.5-1.4,0.8
				C100.6,203.2,100.8,203.3,101,203.3z"/>
			<path class="st4" d="M107.4,201.1v2.9h-1v-2.7c0-0.5-0.1-0.7-0.5-0.7c-0.3,0-0.7,0.2-0.9,0.4v3h-1v-4.2h0.9v0.4
				c0.5-0.4,0.9-0.5,1.3-0.5C106.9,199.8,107.4,200.3,107.4,201.1z"/>
			<path class="st4" d="M111.8,198.2v5.8H111l0-0.4c-0.4,0.3-0.7,0.5-1.1,0.5c-1.1,0-1.7-0.9-1.7-2.3c0-1.1,0.6-2.1,1.7-2.1
				c0.4,0,0.8,0.2,1,0.5h0v-2H111.8z M110,203.3c0.4,0,0.6-0.2,0.8-0.4v-2c-0.2-0.2-0.4-0.4-0.8-0.4c-0.6,0-0.9,0.5-0.9,1.4
				S109.5,203.3,110,203.3z"/>
			<path class="st4" d="M116.3,198.2v2.1c0.4-0.4,0.8-0.5,1.2-0.5c0.8,0,1.2,0.5,1.2,1.4v2.9h-1v-2.7c0-0.5-0.1-0.7-0.5-0.7
				c-0.3,0-0.7,0.2-0.9,0.4v3h-1v-5.8H116.3z"/>
			<path class="st4" d="M122.7,201.4v2c0,0.1,0,0.4,0.1,0.6h-1l-0.1-0.4c-0.4,0.3-0.8,0.4-1.3,0.4c-0.7,0-1.1-0.5-1.1-1.1
				c0-0.9,0.8-1.4,2.4-1.6V201c0-0.3-0.3-0.5-0.6-0.5c-0.3,0-0.6,0.2-0.9,0.5l-0.6-0.5c0.3-0.4,0.9-0.8,1.5-0.8
				C122.3,199.8,122.7,200.2,122.7,201.4z M120.8,203.3c0.3,0,0.6-0.2,0.9-0.4V202c-1.1,0.2-1.4,0.5-1.4,0.8
				C120.3,203.2,120.5,203.3,120.8,203.3z"/>
			<path class="st4" d="M126.4,200.4l-0.6,0.5c-0.3-0.3-0.5-0.4-0.8-0.4c-0.4,0-0.6,0.2-0.6,0.4c0,0.2,0.2,0.4,0.7,0.6
				c1,0.3,1.3,0.7,1.3,1.4c0,0.8-0.6,1.2-1.5,1.2c-0.7,0-1.2-0.3-1.6-0.8l0.7-0.5c0.3,0.4,0.6,0.6,1,0.6c0.4,0,0.6-0.2,0.6-0.5
				c0-0.2-0.2-0.4-0.8-0.6c-1-0.3-1.3-0.7-1.3-1.3c0-0.7,0.6-1.2,1.4-1.2C125.5,199.8,126,200,126.4,200.4z"/>
			<path class="st4" d="M130.7,198.2v2h0c0.2-0.2,0.6-0.5,1-0.5c1,0,1.7,0.9,1.7,2.1c0,1.4-0.6,2.3-1.7,2.3c-0.4,0-0.8-0.2-1.1-0.5
				l-0.1,0.4h-0.8v-5.8H130.7z M130.7,202.9c0.2,0.1,0.3,0.4,0.8,0.4c0.6,0,0.9-0.5,0.9-1.4s-0.3-1.4-0.9-1.4
				c-0.3,0-0.5,0.1-0.8,0.4V202.9z"/>
			<path class="st4" d="M137.3,201.6v0.4h-2.5c0,0.8,0.3,1.2,0.9,1.2c0.4,0,0.6-0.1,0.9-0.5l0.7,0.4c-0.4,0.6-0.9,0.8-1.7,0.8
				c-1.1,0-1.8-0.8-1.8-2.2s0.7-2.2,1.8-2.2C136.8,199.8,137.3,200.8,137.3,201.6z M136.4,201.4c0-0.6-0.3-0.9-0.8-0.9
				c-0.5,0-0.8,0.3-0.8,0.9H136.4z"/>
			<path class="st4" d="M141.3,201.6v0.4h-2.5c0,0.8,0.3,1.2,0.9,1.2c0.4,0,0.6-0.1,0.9-0.5l0.7,0.4c-0.4,0.6-0.9,0.8-1.7,0.8
				c-1.1,0-1.8-0.8-1.8-2.2s0.7-2.2,1.8-2.2C140.8,199.8,141.3,200.8,141.3,201.6z M140.4,201.4c0-0.6-0.3-0.9-0.8-0.9
				c-0.5,0-0.8,0.3-0.8,0.9H140.4z"/>
			<path class="st4" d="M145.6,201.1v2.9h-1v-2.7c0-0.5-0.1-0.7-0.5-0.7c-0.3,0-0.7,0.2-0.9,0.4v3h-1v-4.2h0.9v0.4
				c0.5-0.4,0.9-0.5,1.3-0.5C145.2,199.8,145.6,200.3,145.6,201.1z"/>
		</g>
		<g class="st3">
			<path class="st4" d="M14.5,209.4v2c0,0.1,0,0.4,0.1,0.6h-1l-0.1-0.4c-0.4,0.3-0.8,0.4-1.3,0.4c-0.7,0-1.1-0.5-1.1-1.1
				c0-0.9,0.8-1.4,2.4-1.6V209c0-0.3-0.3-0.5-0.6-0.5c-0.3,0-0.6,0.2-0.9,0.5l-0.6-0.5c0.3-0.4,0.9-0.8,1.5-0.8
				C14.1,207.8,14.5,208.2,14.5,209.4z M12.6,211.3c0.3,0,0.6-0.2,0.9-0.4V210c-1.1,0.2-1.4,0.5-1.4,0.8
				C12.1,211.2,12.3,211.3,12.6,211.3z"/>
			<path class="st4" d="M19.2,210c0,1.1-0.7,2.1-1.7,2.1c-0.3,0-0.8-0.2-1-0.5h0v1.9h-1v-5.7h1v0.4c0.3-0.3,0.6-0.5,1.1-0.5
				C18.6,207.8,19.2,208.7,19.2,210z M16.5,210.9c0.2,0.2,0.5,0.4,0.8,0.4c0.6,0,0.9-0.5,0.9-1.4c0-0.9-0.3-1.4-0.9-1.4
				c-0.4,0-0.7,0.3-0.8,0.4V210.9z"/>
			<path class="st4" d="M23.6,210c0,1.1-0.7,2.1-1.7,2.1c-0.3,0-0.8-0.2-1-0.5h0v1.9h-1v-5.7h1v0.4c0.3-0.3,0.6-0.5,1.1-0.5
				C23,207.8,23.6,208.7,23.6,210z M21,210.9c0.2,0.2,0.5,0.4,0.8,0.4c0.6,0,0.9-0.5,0.9-1.4c0-0.9-0.3-1.4-0.9-1.4
				c-0.4,0-0.7,0.3-0.8,0.4V210.9z"/>
			<path class="st4" d="M26.4,208.8c0,0-0.1,0-0.2,0c-0.5,0-0.9,0.5-0.9,0.7v2.5h-1v-4.2h0.9v0.7h0c0.2-0.5,0.6-0.8,1.2-0.8V208.8z"
				/>
			<path class="st4" d="M30.4,209.9c0,1.3-0.7,2.2-1.8,2.2c-1.1,0-1.8-0.8-1.8-2.2c0-1.3,0.7-2.2,1.8-2.2S30.4,208.6,30.4,209.9z
				 M28.6,211.3c0.5,0,0.8-0.4,0.8-1.4c0-0.9-0.3-1.4-0.8-1.4c-0.6,0-0.8,0.5-0.8,1.4C27.7,210.9,28,211.3,28.6,211.3z"/>
			<path class="st4" d="M31.6,207.8l0.7,2.8h0l0.7-2.8h1l-1.2,4.2h-1l-1.2-4.2H31.6z"/>
			<path class="st4" d="M37.8,209.6v0.4h-2.5c0,0.8,0.3,1.2,0.9,1.2c0.4,0,0.6-0.1,0.9-0.5l0.7,0.4c-0.4,0.6-0.9,0.8-1.7,0.8
				c-1.1,0-1.8-0.8-1.8-2.2s0.7-2.2,1.8-2.2C37.3,207.8,37.8,208.8,37.8,209.6z M36.9,209.4c0-0.6-0.3-0.9-0.8-0.9
				c-0.5,0-0.8,0.3-0.8,0.9H36.9z"/>
			<path class="st4" d="M42,206.2v5.8h-0.8l0-0.4c-0.4,0.3-0.7,0.5-1.1,0.5c-1.1,0-1.7-0.9-1.7-2.3c0-1.1,0.6-2.1,1.7-2.1
				c0.4,0,0.8,0.2,1,0.5h0v-2H42z M40.3,211.3c0.4,0,0.6-0.2,0.8-0.4v-2c-0.2-0.2-0.4-0.4-0.8-0.4c-0.6,0-0.9,0.5-0.9,1.4
				S39.7,211.3,40.3,211.3z"/>
			<path class="st4" d="M48.6,208.9l-0.8,0.3c-0.2-0.5-0.4-0.6-0.8-0.6c-0.6,0-0.8,0.4-0.8,1.4c0,0.9,0.3,1.4,0.8,1.4
				c0.4,0,0.6-0.2,0.9-0.7l0.8,0.4c-0.4,0.7-0.9,1-1.6,1c-1.2,0-1.8-0.8-1.8-2.2c0-1.3,0.7-2.2,1.8-2.2
				C47.8,207.8,48.4,208.2,48.6,208.9z"/>
			<path class="st4" d="M52.8,209.9c0,1.3-0.7,2.2-1.8,2.2c-1.1,0-1.8-0.8-1.8-2.2c0-1.3,0.7-2.2,1.8-2.2S52.8,208.6,52.8,209.9z
				 M51,211.3c0.5,0,0.8-0.4,0.8-1.4c0-0.9-0.3-1.4-0.8-1.4c-0.6,0-0.8,0.5-0.8,1.4C50.2,210.9,50.5,211.3,51,211.3z"/>
			<path class="st4" d="M56.9,209.1v2.9h-1v-2.7c0-0.5-0.1-0.7-0.5-0.7c-0.3,0-0.7,0.2-0.9,0.4v3h-1v-4.2h0.9v0.4
				c0.5-0.4,0.9-0.5,1.3-0.5C56.5,207.8,56.9,208.3,56.9,209.1z"/>
			<path class="st4" d="M60.6,208.4l-0.6,0.5c-0.3-0.3-0.5-0.4-0.8-0.4c-0.4,0-0.6,0.2-0.6,0.4c0,0.2,0.2,0.4,0.7,0.6
				c1,0.3,1.3,0.7,1.3,1.4c0,0.8-0.6,1.2-1.5,1.2c-0.7,0-1.2-0.3-1.6-0.8l0.7-0.5c0.3,0.4,0.6,0.6,1,0.6c0.4,0,0.6-0.2,0.6-0.5
				c0-0.2-0.2-0.4-0.8-0.6c-1-0.3-1.3-0.7-1.3-1.3c0-0.7,0.6-1.2,1.4-1.2C59.7,207.8,60.2,208,60.6,208.4z"/>
			<path class="st4" d="M62.6,206.1v0.9h-1v-0.9H62.6z M62.6,207.8v4.2h-1v-4.2H62.6z"/>
			<path class="st4" d="M66.4,208.4l-0.6,0.5c-0.3-0.3-0.5-0.4-0.8-0.4c-0.4,0-0.6,0.2-0.6,0.4c0,0.2,0.2,0.4,0.7,0.6
				c1,0.3,1.3,0.7,1.3,1.4c0,0.8-0.6,1.2-1.5,1.2c-0.7,0-1.2-0.3-1.6-0.8l0.7-0.5c0.3,0.4,0.6,0.6,1,0.6c0.4,0,0.6-0.2,0.6-0.5
				c0-0.2-0.2-0.4-0.8-0.6c-1-0.3-1.3-0.7-1.3-1.3c0-0.7,0.6-1.2,1.4-1.2C65.5,207.8,66,208,66.4,208.4z"/>
			<path class="st4" d="M68.4,206.5v1.4h0.8v0.8h-0.8v2.4c0,0.2,0.1,0.3,0.4,0.3c0.2,0,0.3,0,0.5-0.1v0.8c-0.3,0-0.5,0.1-0.8,0.1
				c-0.7,0-1-0.3-1-1v-2.5h-0.6v-0.8h0.6v-1.4H68.4z"/>
			<path class="st4" d="M73.1,209.6v0.4h-2.5c0,0.8,0.3,1.2,0.9,1.2c0.4,0,0.6-0.1,0.9-0.5l0.7,0.4c-0.4,0.6-0.9,0.8-1.7,0.8
				c-1.1,0-1.8-0.8-1.8-2.2s0.7-2.2,1.8-2.2C72.6,207.8,73.1,208.8,73.1,209.6z M72.2,209.4c0-0.6-0.3-0.9-0.8-0.9
				c-0.5,0-0.8,0.3-0.8,0.9H72.2z"/>
			<path class="st4" d="M77.4,209.1v2.9h-1v-2.7c0-0.5-0.1-0.7-0.5-0.7c-0.3,0-0.7,0.2-0.9,0.4v3h-1v-4.2h0.9v0.4
				c0.5-0.4,0.9-0.5,1.3-0.5C76.9,207.8,77.4,208.3,77.4,209.1z"/>
			<path class="st4" d="M79.6,206.5v1.4h0.8v0.8h-0.8v2.4c0,0.2,0.1,0.3,0.4,0.3c0.2,0,0.3,0,0.5-0.1v0.8c-0.3,0-0.5,0.1-0.8,0.1
				c-0.7,0-1-0.3-1-1v-2.5H78v-0.8h0.6v-1.4H79.6z"/>
			<path class="st4" d="M84,207.8l0.6,2.6h0l0.6-2.6h0.9l0.6,2.6h0l0.6-2.6h0.9l-1.1,4.2h-0.9l-0.6-2.6h0L85,212h-0.9l-1.1-4.2H84z"
				/>
			<path class="st4" d="M89.9,206.1v0.9h-1v-0.9H89.9z M89.9,207.8v4.2h-1v-4.2H89.9z"/>
			<path class="st4" d="M92.2,206.5v1.4H93v0.8h-0.8v2.4c0,0.2,0.1,0.3,0.4,0.3c0.2,0,0.3,0,0.5-0.1v0.8c-0.3,0-0.5,0.1-0.8,0.1
				c-0.7,0-1-0.3-1-1v-2.5h-0.6v-0.8h0.6v-1.4H92.2z"/>
			<path class="st4" d="M94.7,206.2v2.1c0.4-0.4,0.8-0.5,1.2-0.5c0.8,0,1.2,0.5,1.2,1.4v2.9h-1v-2.7c0-0.5-0.1-0.7-0.5-0.7
				c-0.3,0-0.7,0.2-0.9,0.4v3h-1v-5.8H94.7z"/>
			<path class="st4" d="M101.9,206.2v3.7c0,0.8,0.3,1.2,1.1,1.2c0.8,0,1.1-0.4,1.1-1.2v-3.7h1.1v3.7c0,1.4-0.8,2.2-2.2,2.2
				c-1.4,0-2.2-0.8-2.2-2.2v-3.6H101.9z"/>
			<path class="st4" d="M107.6,206.2v2.6l1.9-2.6h1.3l-1.6,2.2l1.9,3.6h-1.2l-1.4-2.7l-0.8,1v1.7h-1.1v-5.8H107.6z"/>
			<path class="st4" d="M116.2,208.8c0,0-0.1,0-0.2,0c-0.5,0-0.9,0.5-0.9,0.7v2.5h-1v-4.2h0.9v0.7h0c0.2-0.5,0.6-0.8,1.2-0.8V208.8z
				"/>
			<path class="st4" d="M120,209.6v0.4h-2.5c0,0.8,0.3,1.2,0.9,1.2c0.4,0,0.6-0.1,0.9-0.5l0.7,0.4c-0.4,0.6-0.9,0.8-1.7,0.8
				c-1.1,0-1.8-0.8-1.8-2.2s0.7-2.2,1.8-2.2C119.5,207.8,120,208.8,120,209.6z M119.1,209.4c0-0.6-0.3-0.9-0.8-0.9
				c-0.5,0-0.8,0.3-0.8,0.9H119.1z"/>
			<path class="st4" d="M124.2,207.8v0.7c-0.2,0-0.5,0-0.6,0.1c0.1,0.2,0.2,0.4,0.2,0.7c0,0.9-0.6,1.3-1.6,1.3
				c-0.7,0-0.7,0.1-0.7,0.2c0,0.2,0.2,0.3,0.9,0.3c0.7,0,1.2,0.1,1.4,0.3c0.3,0.2,0.4,0.5,0.4,0.8c0,0.7-0.7,1.2-1.9,1.2
				c-1.2,0-1.9-0.4-1.9-1c0-0.5,0.3-0.8,0.8-0.8v0c-0.5-0.2-0.6-0.4-0.6-0.7c0-0.3,0.3-0.6,0.6-0.8c-0.4-0.4-0.6-0.7-0.6-1.1
				c0-0.8,0.6-1.4,1.6-1.4c0.4,0,0.8,0.1,1,0.4C123.4,207.9,123.7,207.8,124.2,207.8L124.2,207.8z M122.4,212.9
				c0.6,0,0.9-0.3,0.9-0.5c0-0.3-0.4-0.5-1.3-0.5c-0.4,0-0.7,0.2-0.7,0.5C121.3,212.8,121.6,212.9,122.4,212.9z M122.2,209.9
				c0.4,0,0.7-0.3,0.7-0.7s-0.3-0.7-0.7-0.7c-0.4,0-0.7,0.3-0.7,0.7C121.5,209.6,121.8,209.9,122.2,209.9z"/>
			<path class="st4" d="M125.8,207.8v2.7c0,0.5,0.1,0.7,0.5,0.7c0.3,0,0.7-0.2,0.9-0.4v-3h1v4.2h-0.9v-0.4c-0.5,0.4-0.9,0.5-1.3,0.5
				c-0.8,0-1.2-0.5-1.2-1.4v-2.9H125.8z"/>
			<path class="st4" d="M130.4,206.2v5.8h-1v-5.8H130.4z"/>
			<path class="st4" d="M134.5,209.4v2c0,0.1,0,0.4,0.1,0.6h-1l-0.1-0.4c-0.4,0.3-0.8,0.4-1.3,0.4c-0.7,0-1.1-0.5-1.1-1.1
				c0-0.9,0.8-1.4,2.4-1.6V209c0-0.3-0.3-0.5-0.6-0.5c-0.3,0-0.6,0.2-0.9,0.5l-0.6-0.5c0.3-0.4,0.9-0.8,1.5-0.8
				C134.1,207.8,134.5,208.2,134.5,209.4z M132.6,211.3c0.3,0,0.6-0.2,0.9-0.4V210c-1.1,0.2-1.4,0.5-1.4,0.8
				C132.1,211.2,132.3,211.3,132.6,211.3z"/>
			<path class="st4" d="M136.7,206.5v1.4h0.8v0.8h-0.8v2.4c0,0.2,0.1,0.3,0.4,0.3c0.2,0,0.3,0,0.5-0.1v0.8c-0.3,0-0.5,0.1-0.8,0.1
				c-0.7,0-1-0.3-1-1v-2.5h-0.6v-0.8h0.6v-1.4H136.7z"/>
			<path class="st4" d="M139.3,206.1v0.9h-1v-0.9H139.3z M139.3,207.8v4.2h-1v-4.2H139.3z"/>
			<path class="st4" d="M143.7,209.9c0,1.3-0.7,2.2-1.8,2.2c-1.1,0-1.8-0.8-1.8-2.2c0-1.3,0.7-2.2,1.8-2.2S143.7,208.6,143.7,209.9z
				 M141.9,211.3c0.5,0,0.8-0.4,0.8-1.4c0-0.9-0.3-1.4-0.8-1.4c-0.6,0-0.8,0.5-0.8,1.4C141.1,210.9,141.3,211.3,141.9,211.3z"/>
			<path class="st4" d="M147.8,209.1v2.9h-1v-2.7c0-0.5-0.1-0.7-0.5-0.7c-0.3,0-0.7,0.2-0.9,0.4v3h-1v-4.2h0.9v0.4
				c0.5-0.4,0.9-0.5,1.3-0.5C147.4,207.8,147.8,208.3,147.8,209.1z"/>
			<path class="st4" d="M151.5,208.4l-0.6,0.5c-0.3-0.3-0.5-0.4-0.8-0.4c-0.4,0-0.6,0.2-0.6,0.4c0,0.2,0.2,0.4,0.7,0.6
				c1,0.3,1.3,0.7,1.3,1.4c0,0.8-0.6,1.2-1.5,1.2c-0.7,0-1.2-0.3-1.6-0.8l0.7-0.5c0.3,0.4,0.6,0.6,1,0.6c0.4,0,0.6-0.2,0.6-0.5
				c0-0.2-0.2-0.4-0.8-0.6c-1-0.3-1.3-0.7-1.3-1.3c0-0.7,0.6-1.2,1.4-1.2C150.6,207.8,151.1,208,151.5,208.4z"/>
		</g>
		<g class="st3">
			<path class="st1" d="M16.3,14.3v1.5h-2.9v2h2.2v1.5h-2.2v2.3h3V23h-4.7v-8.7H16.3z"/>
			<path class="st1" d="M18.8,14.3l1.5,6.2h0l1.5-6.2h1.6L21.3,23h-1.9l-2.2-8.7H18.8z"/>
			<path class="st1" d="M26.9,14.3c1.7,0,2.9,0.8,2.9,2.6c0,1.1-0.4,1.9-1.3,2.2l1.6,3.9h-1.8l-1.4-3.5h-0.8V23h-1.7v-8.7H26.9z
				 M27,18.1c0.7,0,1.1-0.4,1.1-1.2c0-0.8-0.4-1.2-1.2-1.2h-0.9v2.4H27z"/>
			<path class="st1" d="M35.6,14.3v1.5h-2.9v2h2.2v1.5h-2.2v2.3h3V23h-4.7v-8.7H35.6z"/>
			<path class="st1" d="M39,14.3l2.3,5.1h0v-5.1h1.5V23h-1.6l-2.5-5.6h0V23h-1.5v-8.7H39z"/>
			<path class="st1" d="M49.2,14.3v1.4l-3.3,5.8h3.3V23h-5.2v-1.4l3.3-5.8h-2.9v-1.5H49.2z"/>
			<path class="st1" d="M55.1,15c0.4,0.5,0.7,1.2,0.7,2.1v3.2c0,1.8-0.9,2.8-2.7,2.8c-1.8,0-2.7-1-2.7-2.8v-3.2
				c0-1.8,0.9-2.8,2.7-2.8C53.9,14.2,54.6,14.5,55.1,15z M51.9,20.5c0,0.7,0.3,1.2,1.1,1.2c0.8,0,1.1-0.4,1.1-1.2v-3.6
				c0-0.7-0.3-1.2-1.1-1.2c-0.8,0-1.1,0.4-1.1,1.2V20.5z"/>
			<path class="st1" d="M58.9,17.7v1.7h-1.7v-1.7H58.9z M58.9,21.3V23h-1.7v-1.7H58.9z"/>
			<path class="st1" d="M65.2,15v1.8h1V18h-1v3.3c0,0.3,0.2,0.5,0.8,0.5c0.1,0,0.1,0,0.2,0v1.3c-0.3,0-0.6,0.1-0.9,0.1
				c-1.2,0-1.6-0.5-1.6-1.3V18h-0.6v-1.2h0.6V15H65.2z"/>
			<path class="st1" d="M68.6,14.3v2.9c0.6-0.6,1.1-0.9,1.7-0.9c1,0,1.4,0.6,1.4,1.6v5h-1.5v-4.8c0-0.4-0.1-0.7-0.5-0.7
				c-0.3,0-0.7,0.3-1,0.6V23h-1.5v-8.7H68.6z"/>
			<path class="st1" d="M77.8,18.6v1.5h-3.3V21c0,0.5,0.3,0.9,0.9,0.9c0.6,0,0.9-0.3,0.9-0.9h1.5c-0.1,1.4-0.9,2.1-2.4,2.1
				c-1.4,0-2.4-0.9-2.4-2.3v-2.2c0-1.4,1-2.3,2.4-2.3C76.7,16.4,77.8,17.2,77.8,18.6z M76.2,18.9v-0.4c0-0.6-0.3-0.9-0.9-0.9
				c-0.6,0-0.9,0.4-0.9,0.9v0.4H76.2z"/>
			<path class="st1" d="M87.1,18.7h-1.5v-0.3c0-0.4-0.3-0.7-0.9-0.7c-0.6,0-0.9,0.3-0.9,0.8V21c0,0.4,0.3,0.8,0.9,0.8
				c0.5,0,0.9-0.3,0.9-0.8v-0.4h1.5c0,1.7-0.8,2.5-2.4,2.5c-1.6,0-2.4-0.9-2.4-2.4v-1.9c0-1.5,0.7-2.4,2.4-2.4
				C86.2,16.4,87.1,17.1,87.1,18.7z"/>
			<path class="st1" d="M93.1,18.8v2c0,1.5-0.8,2.4-2.4,2.4c-1.6,0-2.4-0.9-2.4-2.4v-1.9c0-1.5,0.8-2.4,2.4-2.4
				C92.3,16.4,93.1,17.2,93.1,18.8z M89.8,21.1c0,0.4,0.3,0.7,0.9,0.7s0.9-0.3,0.9-0.7v-2.6c0-0.4-0.3-0.8-0.9-0.8
				c-0.5,0-0.9,0.3-0.9,0.8V21.1z"/>
			<path class="st1" d="M99,18v5h-1.5v-4.8c0-0.4-0.1-0.7-0.5-0.7c-0.3,0-0.6,0.3-1,0.6V23h-1.5v-6.5h1.5v0.7
				c0.7-0.6,1.2-0.9,1.7-0.9C98.6,16.4,99,16.9,99,18z"/>
			<path class="st1" d="M101.3,16.5l1,4.2h0l1-4.2l0,0h1.5l-1.8,6.5h-1.5l-1.8-6.5H101.3z"/>
			<path class="st1" d="M110.4,18.6v1.5h-3.3V21c0,0.5,0.3,0.9,0.9,0.9c0.6,0,0.9-0.3,0.9-0.9h1.5c-0.1,1.4-0.9,2.1-2.4,2.1
				c-1.4,0-2.4-0.9-2.4-2.3v-2.2c0-1.4,1-2.3,2.4-2.3C109.4,16.4,110.4,17.2,110.4,18.6z M108.9,18.9v-0.4c0-0.6-0.3-0.9-0.9-0.9
				c-0.6,0-0.9,0.4-0.9,0.9v0.4H108.9z"/>
			<path class="st1" d="M116.3,18v5h-1.5v-4.8c0-0.4-0.1-0.7-0.5-0.7c-0.3,0-0.6,0.3-1,0.6V23h-1.5v-6.5h1.5v0.7
				c0.7-0.6,1.2-0.9,1.7-0.9C115.9,16.4,116.3,16.9,116.3,18z"/>
			<path class="st1" d="M119.4,14v1.4h-1.5V14H119.4z M119.4,16.5V23h-1.5v-6.5H119.4z"/>
			<path class="st1" d="M125.8,18.6v1.5h-3.3V21c0,0.5,0.3,0.9,0.9,0.9c0.6,0,0.9-0.3,0.9-0.9h1.5c-0.1,1.4-0.9,2.1-2.4,2.1
				c-1.4,0-2.4-0.9-2.4-2.3v-2.2c0-1.4,1-2.3,2.4-2.3C124.7,16.4,125.8,17.2,125.8,18.6z M124.2,18.9v-0.4c0-0.6-0.3-0.9-0.9-0.9
				c-0.6,0-0.9,0.4-0.9,0.9v0.4H124.2z"/>
			<path class="st1" d="M131.6,18v5h-1.5v-4.8c0-0.4-0.1-0.7-0.5-0.7c-0.3,0-0.6,0.3-1,0.6V23h-1.5v-6.5h1.5v0.7
				c0.7-0.6,1.2-0.9,1.7-0.9C131.2,16.4,131.6,16.9,131.6,18z"/>
			<path class="st1" d="M137.7,18.7h-1.5v-0.3c0-0.4-0.3-0.7-0.9-0.7c-0.6,0-0.9,0.3-0.9,0.8V21c0,0.4,0.3,0.8,0.9,0.8
				c0.5,0,0.9-0.3,0.9-0.8v-0.4h1.5c0,1.7-0.8,2.5-2.4,2.5c-1.6,0-2.4-0.9-2.4-2.4v-1.9c0-1.5,0.7-2.4,2.4-2.4
				C136.9,16.4,137.7,17.1,137.7,18.7z"/>
			<path class="st1" d="M143.8,18.6v1.5h-3.3V21c0,0.5,0.3,0.9,0.9,0.9c0.6,0,0.9-0.3,0.9-0.9h1.5c-0.1,1.4-0.9,2.1-2.4,2.1
				c-1.4,0-2.4-0.9-2.4-2.3v-2.2c0-1.4,1-2.3,2.4-2.3C142.7,16.4,143.8,17.2,143.8,18.6z M142.2,18.9v-0.4c0-0.6-0.3-0.9-0.9-0.9
				c-0.6,0-0.9,0.4-0.9,0.9v0.4H142.2z"/>
		</g>
		<g class="st3">
			<path class="st1" d="M16.4,31.8v2c0,1.5-0.8,2.4-2.4,2.4c-1.6,0-2.4-0.9-2.4-2.4v-1.9c0-1.5,0.8-2.4,2.4-2.4
				C15.6,29.4,16.4,30.2,16.4,31.8z M13.1,34.1c0,0.4,0.3,0.7,0.9,0.7c0.6,0,0.9-0.3,0.9-0.7v-2.6c0-0.4-0.3-0.8-0.9-0.8
				c-0.5,0-0.9,0.3-0.9,0.8V34.1z"/>
			<path class="st1" d="M20.2,27.3v1.2h-0.3c-0.5,0-0.6,0.2-0.6,0.6v0.6h0.9V31h-0.9v5h-1.5v-5h-0.7v-1.2h0.7v-0.3
				c0-1.3,0.2-2.2,1.7-2.2C19.7,27.2,20,27.2,20.2,27.3z"/>
			<path class="st1" d="M28.9,31.3v4.2c0,0.1,0,0.3,0.1,0.5h-1.5l-0.1-0.6c-0.4,0.4-1,0.8-1.8,0.8c-0.9,0-1.5-0.5-1.5-1.6
				c0-1.6,1.6-2.2,3.3-2.7v-0.5c0-0.5-0.3-0.8-0.8-0.8c-0.4,0-0.8,0.3-0.8,0.8h-1.5c0.1-1.4,1.1-2,2.4-2
				C28.1,29.4,28.9,30.1,28.9,31.3z M26.2,35c0.5,0,0.8-0.2,1.1-0.6v-1.6c-0.7,0.2-1.8,0.7-1.8,1.5C25.6,34.8,25.8,35,26.2,35z"/>
			<path class="st1" d="M34.9,31v5h-1.5v-4.8c0-0.4-0.1-0.7-0.5-0.7c-0.3,0-0.6,0.3-1,0.6V36h-1.5v-6.5h1.5v0.7
				c0.7-0.6,1.2-0.9,1.7-0.9C34.6,29.4,34.9,29.9,34.9,31z"/>
			<path class="st1" d="M44.4,31.8v2c0,1.5-0.8,2.4-2.4,2.4c-1.6,0-2.4-0.9-2.4-2.4v-1.9c0-1.5,0.8-2.4,2.4-2.4
				C43.6,29.4,44.4,30.2,44.4,31.8z M41.1,34.1c0,0.4,0.3,0.7,0.9,0.7c0.6,0,0.9-0.3,0.9-0.7v-2.6c0-0.4-0.3-0.8-0.9-0.8
				c-0.5,0-0.9,0.3-0.9,0.8V34.1z"/>
			<path class="st1" d="M48.8,31c-0.2-0.1-0.5-0.2-0.8-0.2c-0.4,0-0.7,0.3-0.7,0.7V36h-1.5v-6.5h1.5v0.9h0c0.3-0.6,0.8-1,1.6-1V31z"
				/>
			<path class="st1" d="M54.2,31.3v4.2c0,0.1,0,0.3,0.1,0.5h-1.5l-0.1-0.6c-0.4,0.4-1,0.8-1.8,0.8c-0.9,0-1.5-0.5-1.5-1.6
				c0-1.6,1.6-2.2,3.3-2.7v-0.5c0-0.5-0.3-0.8-0.8-0.8c-0.4,0-0.8,0.3-0.8,0.8h-1.5c0.1-1.4,1.1-2,2.4-2
				C53.5,29.4,54.2,30.1,54.2,31.3z M51.6,35c0.5,0,0.8-0.2,1.1-0.6v-1.6c-0.7,0.2-1.8,0.7-1.8,1.5C50.9,34.8,51.2,35,51.6,35z"/>
			<path class="st1" d="M57.4,27.3V36h-1.5v-8.7H57.4z"/>
			<path class="st1" d="M63.9,28v1.8h1V31h-1v3.3c0,0.3,0.2,0.5,0.8,0.5c0.1,0,0.1,0,0.2,0v1.3c-0.3,0-0.6,0.1-0.9,0.1
				c-1.2,0-1.6-0.5-1.6-1.3V31h-0.6v-1.2h0.6V28H63.9z"/>
			<path class="st1" d="M70.2,31.3v4.2c0,0.1,0,0.3,0.1,0.5h-1.5l-0.1-0.6c-0.4,0.4-1,0.8-1.8,0.8c-0.9,0-1.5-0.5-1.5-1.6
				c0-1.6,1.6-2.2,3.3-2.7v-0.5c0-0.5-0.3-0.8-0.8-0.8c-0.4,0-0.8,0.3-0.8,0.8h-1.5c0.1-1.4,1.1-2,2.4-2
				C69.5,29.4,70.2,30.1,70.2,31.3z M67.6,35c0.5,0,0.8-0.2,1.1-0.6v-1.6c-0.7,0.2-1.8,0.7-1.8,1.5C66.9,34.8,67.2,35,67.6,35z"/>
			<path class="st1" d="M73.2,27.3v2.7c0.5-0.3,1-0.7,1.5-0.7c1.1,0,1.6,0.9,1.6,2.5v1.7c0,1.7-0.5,2.6-1.6,2.6
				c-0.6,0-1.3-0.4-1.6-0.9h0V36h-1.4v-8.7H73.2z M73.2,34.5c0.3,0.3,0.6,0.5,0.9,0.5c0.6,0,0.7-0.6,0.7-1.5v-1.5
				c0-1-0.2-1.5-0.7-1.5c-0.4,0-0.6,0.1-0.9,0.5V34.5z"/>
			<path class="st1" d="M79.4,27.3V36h-1.5v-8.7H79.4z"/>
			<path class="st1" d="M85.7,31.6v1.5h-3.3V34c0,0.5,0.3,0.9,0.9,0.9c0.6,0,0.9-0.3,0.9-0.9h1.5c-0.1,1.4-0.9,2.1-2.4,2.1
				c-1.4,0-2.4-0.9-2.4-2.3v-2.2c0-1.4,1-2.3,2.4-2.3C84.7,29.4,85.7,30.2,85.7,31.6z M84.2,31.9v-0.4c0-0.6-0.3-0.9-0.9-0.9
				c-0.6,0-0.9,0.4-0.9,0.9v0.4H84.2z"/>
			<path class="st1" d="M88.5,28v1.8h1V31h-1v3.3c0,0.3,0.2,0.5,0.8,0.5c0.1,0,0.1,0,0.2,0v1.3c-0.3,0-0.6,0.1-0.9,0.1
				c-1.2,0-1.6-0.5-1.6-1.3V31h-0.6v-1.2H87V28H88.5z"/>
		</g>
		<g class="st3">
			<path class="st1" d="M92.2,26.9V32h-0.9v-3.9h-0.8v-0.6c0.4-0.1,0.7-0.2,1.1-0.7H92.2z"/>
			<path class="st1" d="M95,31v1l-0.4,1h-0.5l0.4-1h-0.4v-1H95z"/>
			<path class="st1" d="M99.1,28.3c0,0.8-0.6,1.5-1.3,2.1L97,31.2h2V32h-3.2v-0.8c0.8-0.7,1.2-1.2,1.5-1.4c0.5-0.5,0.9-0.9,0.9-1.4
				c0-0.4-0.3-0.7-0.7-0.7c-0.4,0-0.7,0.2-0.7,0.7v0.2h-0.9v-0.2c0-0.9,0.7-1.4,1.6-1.4C98.4,26.9,99.1,27.4,99.1,28.3z"/>
		</g>
		<g id="Astellas-Logo" transform="translate(189.018 -11.62)">
			<g id="Group_10" transform="translate(18 20.62)">
				<g id="Group_9">
					<path id="Path_51" class="st1" d="M38.8,15.5c0-0.8,0.7-1.4,1.4-1.4c0,0,0,0,0.1,0c1.2,0,1.4,0.5,1.6,1l0.3,0.7h0.2l0.1-1.9
						c-0.6-0.1-1.3-0.2-1.9-0.2c-2.3,0-3.2,1.4-3.2,2.4c0,2.6,4.1,2.2,4.1,4.5c0,1.1-0.9,1.5-1.8,1.5c-0.4,0-0.8-0.1-1.2-0.4
						c-0.3-0.4-0.5-0.9-0.6-1.4h-0.2l-0.1,2.1c0.6,0.1,1.1,0.1,1.7,0.2c2.9,0,3.7-1.4,3.7-2.5C42.8,17.1,38.7,17.7,38.8,15.5"/>
					<path id="Path_52" class="st1" d="M49,21c-0.3,0.4-0.8,0.7-1.4,0.7c-0.6-0.1-1-0.6-0.9-1.1c0,0,0,0,0,0v-6.2h2.1v-0.5h-2.1
						v-2.1h-0.3c-0.5,1.1-1.4,2-2.6,2.3v0.3h1.5v3.1c0,1-0.1,2.6-0.1,3.4c0,1.5,1,1.7,1.4,1.7c1-0.1,1.9-0.5,2.6-1.2L49,21"/>
					<path id="Path_53" class="st1" d="M57,17c0.4,0,0.5-0.1,0.5-0.6c0-1.6-1-2.8-3.2-2.8c-2.8,0-4.2,2.3-4.2,4.6
						c0,2.6,1.6,4.4,3.9,4.4c1.2,0.1,2.4-0.4,3.2-1.3L57,20.9c-0.5,0.5-1.3,0.8-2.1,0.8c-2.2,0-3.2-2.1-3.2-4.1c0-0.2,0-0.4,0-0.6
						L57,17z M54.1,14c1.3,0,1.9,0.9,1.9,2.1v0.3c-0.3,0-0.5,0-1.1,0l-2.9,0.1C52.1,15,53,14,54.1,14"/>
					<path id="Path_54" class="st1" d="M61,20.4v-7.3c0-1.2,0.1-2.5,0.1-3.7c-1,0.1-2,0.2-3,0.1v0.3l1.1,0.3c0.1,0,0.2,0.1,0.3,0.2
						c0.1,0.5,0.1,1,0.1,1.6v8.5c0,0.9-0.1,1.2-0.6,1.4l-0.9,0.3v0.3c0.7-0.1,1.4-0.1,2.1-0.1c0.8,0,1.5,0.1,2.3,0.1v-0.3l-0.9-0.3
						C61,21.6,61,21.3,61,20.4"/>
					<path id="Path_55" class="st1" d="M66.7,21.8c-0.6-0.2-0.6-0.5-0.6-1.4v-7.3c0-1.2,0.1-2.5,0.1-3.7c-1,0.1-2,0.2-3,0.1v0.3
						l1.1,0.3c0.1,0,0.2,0.1,0.3,0.2c0.1,0.5,0.1,1,0.1,1.6v8.5c0,0.9-0.1,1.2-0.6,1.4l-0.9,0.3v0.3c0.7-0.1,1.4-0.1,2.1-0.1
						c0.8,0,1.5,0.1,2.3,0.1v-0.3L66.7,21.8"/>
					<path id="Path_56" class="st1" d="M75.1,20.9v-5.1c0-1.7-1.3-2.2-2.8-2.2c-1.4,0-2.7,0.8-3.4,2.1l0.5,0.3
						c0.5-0.8,1.4-1.4,2.4-1.4c1,0,1.9,0.4,1.9,1.7v1h-0.1c-3,0-5.2,0.9-5.2,3c-0.1,1.2,0.8,2.2,2,2.3c0.1,0,0.3,0,0.4,0
						c1.2-0.1,2.3-0.7,2.8-1.7h0l-0.1,1.6c0.4-0.1,0.9-0.1,1.3-0.1c0.5,0,0.9,0.1,1.4,0.1v-0.3C75.3,21.9,75.1,21.8,75.1,20.9
						 M73.7,19.3c0.1,1.2-0.8,2.2-1.9,2.3c-0.1,0-0.1,0-0.2,0c-0.8,0.1-1.5-0.5-1.6-1.3c0-0.1,0-0.2,0-0.3c0-2,2.2-2.2,3.7-2.2V19.3
						"/>
					<path id="Path_57" class="st1" d="M35,20.9v-5.1c0-1.7-1.3-2.2-2.8-2.2c-1.4,0-2.7,0.8-3.4,2.1l0.5,0.3
						c0.5-0.8,1.4-1.4,2.4-1.4c1,0,1.9,0.4,1.9,1.7v1h-0.1c-3,0-5.2,0.9-5.2,3c-0.1,1.2,0.8,2.2,2,2.3c0.1,0,0.3,0,0.4,0
						c1.2-0.1,2.3-0.7,2.8-1.7h0l-0.1,1.6c0.4-0.1,0.9-0.1,1.3-0.1c0.5,0,0.9,0.1,1.4,0.1v-0.3C35.2,21.9,35,21.8,35,20.9
						 M33.6,19.3c0.1,1.2-0.8,2.2-1.9,2.3c-0.1,0-0.1,0-0.2,0c-0.8,0.1-1.5-0.5-1.6-1.3c0-0.1,0-0.2,0-0.3c0-2,2.2-2.2,3.7-2.2V19.3
						"/>
					<path id="Path_58" class="st1" d="M78.9,15.5c0-0.8,0.6-1.4,1.4-1.4c0,0,0.1,0,0.1,0c1.2,0,1.4,0.5,1.6,1l0.3,0.7h0.2l0.1-1.9
						c-0.6-0.1-1.3-0.2-1.9-0.2c-2.3,0-3.2,1.4-3.2,2.4c0,2.6,4.1,2.2,4.1,4.5c0,1.1-0.9,1.5-1.8,1.5c-0.4,0-0.8-0.1-1.2-0.4
						c-0.3-0.4-0.5-0.9-0.6-1.4h-0.2l-0.1,2.1c0.6,0.1,1.1,0.1,1.7,0.2c2.9,0,3.7-1.4,3.7-2.5C83,17.1,78.9,17.7,78.9,15.5"/>
					<path id="Path_59" class="st1" d="M24.7,9.1c-2.4,1.9-4.9,3.5-7.5,4.9c-0.7,3.3-1.5,6.5-2.9,8.7c3.1-1.5,6.1-5.5,7.7-9
						c1.5,0.4,2.9,1.1,4,2.1C26.2,13.6,25.7,11.3,24.7,9.1"/>
					<path id="Path_60" class="st1" d="M21.9,0c-1.4,1.5-2.3,3.2-2.7,5.2c1.5,0.4,2.9,0.7,4.2,0.9C22.4,4.1,21.6,2.2,21.9,0"/>
					<path id="Path_61" class="st1" d="M0,2.3C5.6,3.1,10.8,6,14.4,10.4c-2.2,2.4-5.2,6.4-5.8,10.4c1.6-2.5,5.1-4.7,8.7-6.7
						c0.6-3,1.2-6.2,2-8.9C13.2,3.6,5.7,1.1,0,2.3"/>
					<path id="Path_62" class="st1" d="M23.3,6.1c0.5,1,1,1.9,1.4,3c1-0.8,1.8-1.8,2.3-2.9C25.8,6.4,24.6,6.4,23.3,6.1"/>
					<path id="Path_63" class="st1" d="M23.3,6.1c-1.2-0.2-2.6-0.5-4.2-0.9c-0.8,2.6-1.3,5.8-2,8.9c2.6-1.4,5.2-3.1,7.5-4.9
						C24.3,8.1,23.8,7.1,23.3,6.1"/>
				</g>
			</g>
		</g>
		<path id="Rectangle_2" class="st5" d="M34,55h231c13.8,0,25,11.2,25,25l0,0c0,13.8-11.2,25-25,25H34C20.2,105,9,93.8,9,80l0,0
			C9,66.2,20.2,55,34,55z"/>
		<g id="Layer_1_00000021808855980323007370000003446200816150038160_" transform="translate(166.247 190.1)">
			<g id="Group_11" transform="translate(23.5 20.872)">
				<path id="Path_80" class="st6" d="M10.1,24.3h1.1v1.6h0.1c0.4-1.1,1.5-1.8,2.7-1.8v1.1c-1.4,0.1-2.1,1-2.7,2.6v4.5h-1.1
					L10.1,24.3L10.1,24.3z"/>
				<path id="Path_81" class="st6" d="M17.6,32.5c-2.2,0-3.3-1.9-3.3-4.2s1.1-4.2,3.3-4.2s3.3,1.9,3.3,4.2
					C20.9,30.7,19.7,32.5,17.6,32.5 M17.6,25.1c-1.3,0-2.2,1.2-2.2,3.2s0.8,3.2,2.2,3.2c1.3,0,2.2-1.2,2.2-3.2
					C19.7,26.2,18.9,25.1,17.6,25.1"/>
				<path id="Path_82" class="st6" d="M24.3,27.1l1.8-2.9h1.2L25,28.1l2.7,4.2h-1.3L24.3,29l-2,3.3h-1.2l2.5-4.2l-2.4-3.9h1.3
					L24.3,27.1z"/>
				<path id="Path_83" class="st6" d="M28.2,25.8c0.6-1.1,1.8-1.7,3-1.7c1.4,0,2.8,0.6,2.8,2.4v4.1c0,0.6,0,1.2,0.2,1.8h-1.2
					L33,31.3c-0.7,0.8-1.7,1.3-2.7,1.3c-1.2,0.1-2.2-0.8-2.3-1.9c0-0.1,0-0.2,0-0.3c0-1.8,1.4-2.7,5-3.3v-0.4c0-1.1-0.7-1.5-1.6-1.5
					c-0.9-0.1-1.7,0.4-2.1,1.3L28.2,25.8z M32.9,28c-2.6,0.5-3.8,1.2-3.8,2.3c0.1,0.7,0.6,1.3,1.3,1.3c1-0.1,1.9-0.6,2.5-1.3
					L32.9,28z"/>
				<path id="Path_84" class="st6" d="M41.9,21.1v9.5c0,0.6,0,1.2,0.1,1.8h-1l-0.2-0.8c-0.5,0.6-1.3,1-2.1,1c-1.4,0-3.3-1-3.3-4.2
					c0-3.1,1.9-4.2,3.3-4.2c0.8,0,1.5,0.4,2.1,0.9l0.1,0.1v-3.9h1.1V21.1z M40.8,26.2c-0.5-0.6-1.3-1.1-2.1-1.1
					c-1.3,0-2.3,0.8-2.3,3.3c0,2.1,0.9,3.2,2.3,3.2c0.8-0.1,1.6-0.5,2.1-1.1V26.2z"/>
				<path id="Path_85" class="st6" d="M48.9,32.4v-1.1h-0.1c-0.6,0.7-1.4,1.2-2.4,1.3c-1.2,0.1-2.2-0.8-2.3-2c0-0.1,0-0.3,0-0.4
					v-5.9h1.1v5.9c0,1.1,0.5,1.4,1.3,1.4c0.9-0.1,1.7-0.6,2.3-1.2v-6.1H50v8.1H48.9z"/>
				<path id="Path_86" class="st6" d="M52.1,30.3c0.5,0.8,1.4,1.3,2.3,1.3c1.2,0,1.8-0.6,1.8-1.3c0-2.1-4.8-1-4.7-3.9
					c0.1-1.4,1.1-2.2,2.7-2.2c1.1,0,2.1,0.5,2.8,1.4l-0.8,0.7c-0.5-0.7-1.2-1.1-2.1-1.1c-1,0-1.5,0.5-1.5,1.2c0,1.8,4.7,0.8,4.7,3.9
					c0,1.6-1.4,2.4-2.9,2.4c-1.3,0-2.5-0.5-3.2-1.5L52.1,30.3z"/>
				<path id="Path_87" class="st6" d="M58.9,24.3v-2.7H60v2.7h1.9v1H60V31c0,0.4,0.3,0.6,0.9,0.6c0.4,0,0.7-0.1,1-0.1v0.9
					c-0.4,0.1-0.9,0.1-1.3,0.1c-1.2,0-1.8-0.3-1.8-1.3v-6h-1.3v-1L58.9,24.3z"/>
				<path id="Path_88" class="st6" d="M62.8,25.8c0.6-1.1,1.8-1.7,3-1.7c1.4,0,2.8,0.6,2.8,2.4v4.1c0,0.6,0,1.2,0.2,1.8h-1.2
					l-0.1-1.1c-0.7,0.8-1.7,1.3-2.7,1.3c-1.2,0.1-2.2-0.8-2.3-1.9c0-0.1,0-0.2,0-0.3c0-1.8,1.4-2.7,5-3.3v-0.4
					c0-1.1-0.7-1.5-1.6-1.5c-0.9-0.1-1.7,0.4-2.1,1.3L62.8,25.8z M67.5,28c-2.6,0.5-3.8,1.2-3.8,2.3c0.1,0.7,0.6,1.3,1.3,1.3
					c1-0.1,1.9-0.6,2.5-1.3L67.5,28z"/>
				<path id="Path_89" class="st6" d="M70.8,24.3v-2.7h1.1v2.7h1.9v1h-1.9V31c0,0.4,0.3,0.6,0.9,0.6c0.4,0,0.7-0.1,1-0.1v0.9
					c-0.4,0.1-0.9,0.1-1.3,0.1c-1.2,0-1.8-0.3-1.8-1.3v-6h-1.3v-1L70.8,24.3z"/>
				<path id="Path_90" class="st5" d="M86.1,8.4l10.3-4.4c2,1.3,3.4,3,3.8,4.8L86.1,8.4z"/>
				<path id="Path_91" class="st6" d="M82.4,0h-0.1c-4.8,0-3.6,2.6-2.1,5.4L82.4,0z"/>
				<path id="Path_92" class="st7" d="M95.3,3.4c-1.8-1-3.8-1.8-5.8-2.3L84,7L95.3,3.4z"/>
				<path id="Path_93" class="st6" d="M81.8,7.2l6.4-6.4c-1.7-0.4-3.4-0.7-5.1-0.7L81.8,7.2z"/>
				<path id="Path_94" class="st7" d="M89.7,17.7c2.1-0.6,4-1.4,5.9-2.4L84,11.5L89.7,17.7z"/>
				<path id="Path_95" class="st5" d="M86.1,10.1l10.6,4.6c2-1.5,3.3-3.2,3.5-4.9L86.1,10.1z"/>
				<path id="Path_96" class="st6" d="M80.4,13.2c-1.5,2.8-3,5.6,2,5.6h0.3L80.4,13.2z"/>
				<path id="Path_97" class="st6" d="M83.2,18.8c1.8-0.1,3.6-0.4,5.3-0.8l-6.6-6.6L83.2,18.8z"/>
				<path id="Path_98" class="st2" d="M0,18.6V1.9h9.6v2.4H2.9v4.4h5.9v2.4H2.9v5H10v2.4H0z"/>
				<path id="Path_99" class="st2" d="M18.5,6.1h2.6l-3.9,12.5h-2.5l-4-12.5h2.7l2.5,8.8H16L18.5,6.1z"/>
				<path id="Path_100" class="st2" d="M23.1,18.6V6.1h2.4v1.3h0.1c0.9-0.9,2-1.4,3.3-1.5l0.2,2.6c-0.3,0-0.6-0.1-0.8-0.1
					c-1,0-1.9,0.4-2.7,0.9v9.3L23.1,18.6L23.1,18.6z"/>
				<path id="Path_101" class="st2" d="M39.9,13.1h-6.8v1.8c0,1.4,0.7,1.8,2.1,1.8c1.3,0,2.2-0.3,2.2-1.8l2.5,0.2
					c-0.1,2.8-2.1,3.7-4.7,3.7c-2.9,0-4.7-1.1-4.7-4V9.9c0-2.9,1.8-4,4.7-4c2.9,0,4.7,1.1,4.7,4L39.9,13.1z M37.3,10.9V9.9
					c0-1.4-0.7-1.9-2.1-1.9s-2.1,0.5-2.1,1.9v1.1L37.3,10.9z"/>
				<path id="Path_102" class="st2" d="M42.6,18.6V6.1H45v1.2h0.1C46,6.5,47.3,6,48.5,5.9c2.2,0,3.1,1.4,3.1,3.6v9.1H49v-8.5
					c0-1.2-0.3-1.9-1.5-1.9c-0.9,0.1-1.7,0.5-2.3,1.2v9.3h-2.6L42.6,18.6z"/>
				<path id="Path_103" class="st2" d="M53.6,8.2V6.1h9v2.1l-6.1,8.1v0.2h6.2v2.1h-9.3v-2.1l6.1-8.1V8.2L53.6,8.2z"/>
				<path id="Path_104" class="st2" d="M64.2,9.8c0-2.9,1.8-3.9,4.7-3.9s4.8,1,4.8,3.9v5c0,2.9-1.8,4-4.8,4s-4.7-1.1-4.7-4V9.8z
					 M66.8,14.9c0,1.4,0.8,1.8,2.2,1.8s2.2-0.5,2.2-1.8v-5c0-1.4-0.8-1.8-2.2-1.8s-2.2,0.5-2.2,1.8V14.9z"/>
				<path id="Path_105" class="st2" d="M74.6,6.2h-0.5V5.9h1.5v0.3h-0.5v1.5h-0.4L74.6,6.2z"/>
				<path id="Path_106" class="st2" d="M75.8,5.9h0.6l0.4,1.2l0,0l0.4-1.2h0.5v1.8h-0.4V6.4l0,0L77,7.7h-0.3l-0.5-1.3l0,0v1.3h-0.4
					V5.9z"/>
			</g>
			<path id="Polygon_1" d="M125,25.3l-4.1-7.4h8.3L125,25.3z"/>
			<g id="_1px-Border" transform="translate(-166.247 -190.1)">
				<rect y="0" class="st8" width="300" height="250"/>
				<rect x="0.5" y="0.5" class="st8" width="299" height="249"/>
			</g>
		</g>
		<g class="st3">
			<path class="st4" d="M15.3,237.2v0.5h-2.8v1.9h2v0.5h-2v2.2h3v0.5h-3.6v-5.8H15.3z"/>
			<path class="st4" d="M16.7,237.2l1.4,4.7h0l1.4-4.7h0.6l-1.8,5.8h-0.6l-1.8-5.8H16.7z"/>
			<path class="st4" d="M24.4,237.2v0.4l-2.9,4.8h3v0.5h-3.7v-0.5l2.9-4.8H21v-0.5H24.4z"/>
			<path class="st4" d="M28.8,243.6v0.4h-4v-0.4H28.8z"/>
			<path class="st4" d="M33.1,238.7c0,0.6-0.2,1-0.6,1.4c-0.2,0.2-0.5,0.5-1,0.8c-0.7,0.5-1.2,0.9-1.5,1.6h3.1v0.5h-3.8v-0.6
				c0.3-0.7,0.9-1.3,1.5-1.7c0.3-0.2,0.6-0.4,0.9-0.6c0.5-0.4,0.8-0.8,0.8-1.4c0-0.7-0.4-1.1-1.2-1.1c-0.7,0-1.2,0.5-1.4,1.3
				l-0.6-0.1c0.3-1.1,0.9-1.6,1.9-1.6C32.3,237.1,33.1,237.7,33.1,238.7z"/>
			<path class="st4" d="M38.1,240.1c0,2-0.7,3-2,3c-1.3,0-2-1-2-3c0-2,0.7-3,2-3C37.5,237.1,38.1,238.2,38.1,240.1z M36.1,242.6
				c1,0,1.4-0.8,1.4-2.5c0-1.7-0.4-2.5-1.4-2.5c-1,0-1.4,0.8-1.4,2.5C34.7,241.8,35.1,242.6,36.1,242.6z"/>
			<path class="st4" d="M42.8,238.7c0,0.6-0.2,1-0.6,1.4c-0.2,0.2-0.5,0.5-1,0.8c-0.7,0.5-1.2,0.9-1.5,1.6h3.1v0.5h-3.8v-0.6
				c0.3-0.7,0.9-1.3,1.5-1.7c0.3-0.2,0.6-0.4,0.9-0.6c0.5-0.4,0.8-0.8,0.8-1.4c0-0.7-0.4-1.1-1.2-1.1c-0.7,0-1.2,0.5-1.4,1.3
				l-0.6-0.1c0.3-1.1,0.9-1.6,1.9-1.6C42.1,237.1,42.8,237.7,42.8,238.7z"/>
			<path class="st4" d="M47.7,238.7c0,0.6-0.2,1-0.6,1.4c-0.2,0.2-0.5,0.5-1,0.8c-0.7,0.5-1.2,0.9-1.5,1.6h3.1v0.5H44v-0.6
				c0.3-0.7,0.9-1.3,1.5-1.7c0.3-0.2,0.6-0.4,0.9-0.6c0.5-0.4,0.8-0.8,0.8-1.4c0-0.7-0.4-1.1-1.2-1.1c-0.7,0-1.2,0.5-1.4,1.3
				l-0.6-0.1c0.3-1.1,0.9-1.6,1.9-1.6C47,237.1,47.7,237.7,47.7,238.7z"/>
			<path class="st4" d="M52.3,243.6v0.4h-4v-0.4H52.3z"/>
			<path class="st4" d="M56.8,240.1c0,2-0.7,3-2,3c-1.3,0-2-1-2-3c0-2,0.7-3,2-3C56.1,237.1,56.8,238.2,56.8,240.1z M54.8,242.6
				c1,0,1.4-0.8,1.4-2.5c0-1.7-0.4-2.5-1.4-2.5c-1,0-1.4,0.8-1.4,2.5C53.3,241.8,53.8,242.6,54.8,242.6z"/>
			<path class="st4" d="M61.5,238.7c0,0.6-0.2,1-0.6,1.4c-0.2,0.2-0.5,0.5-1,0.8c-0.7,0.5-1.2,0.9-1.5,1.6h3.1v0.5h-3.8v-0.6
				c0.3-0.7,0.9-1.3,1.5-1.7c0.3-0.2,0.6-0.4,0.9-0.6c0.5-0.4,0.8-0.8,0.8-1.4c0-0.7-0.4-1.1-1.2-1.1c-0.7,0-1.2,0.5-1.4,1.3
				l-0.6-0.1c0.3-1.1,0.9-1.6,1.9-1.6C60.7,237.1,61.5,237.7,61.5,238.7z"/>
			<path class="st4" d="M66.4,237.2v0.4l-2.4,5.4h-0.7l2.4-5.3h-2.9v-0.5H66.4z"/>
			<path class="st4" d="M71.3,238.7c0,0.6-0.2,1-0.6,1.4c-0.2,0.2-0.5,0.5-1,0.8c-0.7,0.5-1.2,0.9-1.5,1.6h3.1v0.5h-3.8v-0.6
				c0.3-0.7,0.9-1.3,1.5-1.7c0.3-0.2,0.6-0.4,0.9-0.6c0.5-0.4,0.8-0.8,0.8-1.4c0-0.7-0.4-1.1-1.2-1.1c-0.7,0-1.2,0.5-1.4,1.3
				l-0.6-0.1c0.3-1.1,0.9-1.6,1.9-1.6C70.5,237.1,71.3,237.7,71.3,238.7z"/>
			<path class="st4" d="M75.9,243.6v0.4h-4v-0.4H75.9z"/>
			<path class="st4" d="M77.4,237.2v4.1c0,0.8,0.6,1.2,1.4,1.2c0.8,0,1.4-0.5,1.4-1.2v-4.1h0.6v4c0,1.1-0.8,1.8-2,1.8
				c-1.2,0-2-0.7-2-1.8v-4H77.4z"/>
			<path class="st4" d="M83.2,237.2v3l2.4-3h0.8l-1.8,2.2l2,3.6h-0.7l-1.7-3.1l-0.9,1.1v1.9h-0.6v-5.8H83.2z"/>
			<path class="st4" d="M96.1,237.2l2.5,4.4h0v-4.4h0.6v5.8h-0.5l-2.9-5.1h0v5.1h-0.6v-5.8H96.1z"/>
			<path class="st4" d="M105,240.1c0,1.6-0.6,3-2.3,3s-2.3-1.4-2.3-3c0-1.6,0.6-3,2.3-3C104.4,237.1,105,238.5,105,240.1z
				 M102.8,242.5c1,0,1.6-0.8,1.6-2.4c0-1.6-0.6-2.4-1.6-2.4c-1,0-1.6,0.8-1.6,2.4C101.1,241.7,101.7,242.5,102.8,242.5z"/>
			<path class="st4" d="M106.2,237.2l1.4,4.7h0l1.4-4.7h0.6l-1.8,5.8h-0.6l-1.8-5.8H106.2z"/>
			<path class="st4" d="M114.2,237.2v0.5h-2.8v1.9h2v0.5h-2v2.2h3v0.5h-3.6v-5.8H114.2z"/>
			<path class="st4" d="M116.6,237.2l1.5,4.7h0l1.4-4.7h1v5.8H120v-5.4l-1.6,5.4h-0.5l-1.6-5.4v5.4h-0.6v-5.8H116.6z"/>
			<path class="st4" d="M124.3,237.2c1,0,1.7,0.5,1.7,1.4c0,0.7-0.3,1.1-1,1.3l0,0c0.7,0.2,1.1,0.8,1.1,1.5c0,1-0.7,1.6-2.1,1.6
				h-1.8v-5.8H124.3z M124,239.7c0.7,0,1.4-0.3,1.4-1c0-0.7-0.4-0.9-1.1-0.9h-1.4v1.9H124z M124.2,242.5c0.9,0,1.4-0.3,1.4-1
				c0-0.8-0.7-1.2-1.5-1.2h-1.1v2.2H124.2z"/>
			<path class="st4" d="M131.1,237.2v0.5h-2.8v1.9h2v0.5h-2v2.2h3v0.5h-3.6v-5.8H131.1z"/>
			<path class="st4" d="M134.3,237.2c1.1,0,1.9,0.5,1.9,1.5c0,0.7-0.4,1.2-1.2,1.5l1.2,2.8h-0.7l-1.2-2.6h-1.4v2.6h-0.6v-5.8H134.3z
				 M134.3,239.8c0.8,0,1.3-0.3,1.3-1.1c0-0.7-0.4-1-1.3-1h-1.2v2.1H134.3z"/>
			<path class="st4" d="M143.7,238.7c0,0.6-0.2,1-0.6,1.4c-0.2,0.2-0.5,0.5-1,0.8c-0.7,0.5-1.2,0.9-1.5,1.6h3.1v0.5H140v-0.6
				c0.3-0.7,0.9-1.3,1.5-1.7c0.3-0.2,0.6-0.4,0.9-0.6c0.5-0.4,0.8-0.8,0.8-1.4c0-0.7-0.4-1.1-1.2-1.1c-0.7,0-1.2,0.5-1.4,1.3
				l-0.6-0.1c0.3-1.1,0.9-1.6,1.9-1.6C142.9,237.1,143.7,237.7,143.7,238.7z"/>
			<path class="st4" d="M148.8,240.1c0,2-0.7,3-2,3c-1.3,0-2-1-2-3c0-2,0.7-3,2-3C148.1,237.1,148.8,238.2,148.8,240.1z
				 M146.8,242.6c1,0,1.4-0.8,1.4-2.5c0-1.7-0.4-2.5-1.4-2.5c-1,0-1.4,0.8-1.4,2.5C145.3,241.8,145.8,242.6,146.8,242.6z"/>
			<path class="st4" d="M153.5,238.7c0,0.6-0.2,1-0.6,1.4c-0.2,0.2-0.5,0.5-1,0.8c-0.7,0.5-1.2,0.9-1.5,1.6h3.1v0.5h-3.8v-0.6
				c0.3-0.7,0.9-1.3,1.5-1.7c0.3-0.2,0.6-0.4,0.9-0.6c0.5-0.4,0.8-0.8,0.8-1.4c0-0.7-0.4-1.1-1.2-1.1c-0.7,0-1.2,0.5-1.4,1.3
				l-0.6-0.1c0.3-1.1,0.9-1.6,1.9-1.6C152.7,237.1,153.5,237.7,153.5,238.7z"/>
			<path class="st4" d="M158.4,238.7c0,0.6-0.2,1-0.6,1.4c-0.2,0.2-0.5,0.5-1,0.8c-0.7,0.5-1.2,0.9-1.5,1.6h3.1v0.5h-3.8v-0.6
				c0.3-0.7,0.9-1.3,1.5-1.7c0.3-0.2,0.6-0.4,0.9-0.6c0.5-0.4,0.8-0.8,0.8-1.4c0-0.7-0.4-1.1-1.2-1.1c-0.7,0-1.2,0.5-1.4,1.3
				l-0.6-0.1c0.3-1.1,0.9-1.6,1.9-1.6C157.6,237.1,158.4,237.7,158.4,238.7z"/>
		</g>
	</g>
</g>
</svg>
