<svg xmlns="http://www.w3.org/2000/svg" width="50.965" height="13.994" viewBox="0 0 50.965 13.994">
  <g id="Astellas-Logo" transform="translate(-18 -20.62)">
    <g id="Group_10" data-name="Group 10" transform="translate(18 20.62)">
      <g id="Group_9" data-name="Group 9">
        <path id="Path_51" data-name="Path 51" d="M271.159,343.26a.867.867,0,0,1,.925-.856c.709,0,.867.293,1,.608l.169.405h.124l.068-1.183a7.673,7.673,0,0,0-1.172-.135c-1.4,0-1.972.868-1.972,1.488,0,1.6,2.513,1.363,2.513,2.772,0,.654-.541.935-1.1.935a1.133,1.133,0,0,1-.721-.226,2.188,2.188,0,0,1-.395-.89h-.124L270.4,347.5a7.555,7.555,0,0,0,1.025.1c1.793,0,2.243-.879,2.243-1.556,0-1.8-2.513-1.442-2.513-2.783" transform="translate(-247.36 -333.755)" fill="#fff"/>
        <path id="Path_52" data-name="Path 52" d="M283.936,344.849a1.316,1.316,0,0,1-.834.44.63.63,0,0,1-.563-.709v-3.809h1.3v-.3h-1.3v-1.318h-.158a2.415,2.415,0,0,1-1.6,1.42v.2h.9v1.892c0,.631-.034,1.578-.034,2.085,0,.912.587,1.048.879,1.048a2.375,2.375,0,0,0,1.578-.733l-.169-.214" transform="translate(-253.839 -331.93)" fill="#fff"/>
        <path id="Path_53" data-name="Path 53" d="M295.131,344.185c.248-.011.327-.079.327-.349,0-.981-.631-1.735-1.961-1.735a2.621,2.621,0,0,0-2.592,2.8,2.429,2.429,0,0,0,2.389,2.694,2.528,2.528,0,0,0,1.994-.812l-.158-.2a1.732,1.732,0,0,1-1.273.507c-1.33,0-1.938-1.273-1.938-2.524,0-.123.012-.259.022-.383Zm-1.825-1.848c.8,0,1.138.541,1.138,1.3v.2c-.17.011-.327.011-.687.022l-1.791.045c.158-.935.654-1.566,1.341-1.566" transform="translate(-260.099 -333.755)" fill="#fff"/>
        <path id="Path_54" data-name="Path 54" d="M305.466,342.131v-4.462c0-.766.045-1.532.068-2.3a16.988,16.988,0,0,1-1.848.09v.158l.665.213a.277.277,0,0,1,.181.125,4.225,4.225,0,0,1,.079.958v5.217c0,.552-.045.743-.394.856l-.53.18v.157a12.429,12.429,0,0,1,1.319-.09c.461,0,.934.045,1.386.09v-.157l-.553-.18c-.349-.113-.372-.3-.372-.856" transform="translate(-268.001 -329.594)" fill="#fff"/>
        <path id="Path_55" data-name="Path 55" d="M314.045,342.986c-.349-.113-.371-.3-.371-.856v-4.462c0-.766.045-1.532.068-2.3a16.867,16.867,0,0,1-1.848.09v.158l.665.213a.278.278,0,0,1,.18.124,4.247,4.247,0,0,1,.078.958v5.217c0,.552-.044.743-.394.856l-.529.18v.158a12.4,12.4,0,0,1,1.318-.089c.462,0,.935.045,1.386.089v-.158l-.552-.18" transform="translate(-273.076 -329.593)" fill="#fff"/>
        <path id="Path_56" data-name="Path 56" d="M324.384,346.6v-3.143c0-1.049-.788-1.352-1.69-1.352a2.359,2.359,0,0,0-2.062,1.3l.281.158a1.831,1.831,0,0,1,1.5-.867c.642,0,1.138.236,1.138,1.07v.6h-.079c-1.859,0-3.166.575-3.166,1.86a1.323,1.323,0,0,0,1.486,1.386,2.129,2.129,0,0,0,1.746-1.071h.023l-.033.957a5.132,5.132,0,0,1,.821-.09,5.872,5.872,0,0,1,.868.09v-.157c-.71-.135-.834-.192-.834-.733m-.855-1a1.307,1.307,0,0,1-1.319,1.419.877.877,0,0,1-.957-.98c0-1.217,1.363-1.375,2.276-1.375v.935" transform="translate(-278.276 -333.755)" fill="#fff"/>
        <path id="Path_57" data-name="Path 57" d="M259.84,346.6v-3.143c0-1.049-.789-1.352-1.69-1.352a2.36,2.36,0,0,0-2.062,1.3l.282.158a1.831,1.831,0,0,1,1.5-.867c.643,0,1.138.236,1.138,1.07v.6h-.079c-1.859,0-3.166.575-3.166,1.86a1.323,1.323,0,0,0,1.488,1.386,2.129,2.129,0,0,0,1.745-1.071h.023l-.034.957a5.152,5.152,0,0,1,.823-.09,5.868,5.868,0,0,1,.867.09v-.157c-.71-.135-.833-.192-.833-.733m-.857-1a1.306,1.306,0,0,1-1.318,1.419.879.879,0,0,1-.958-.98c0-1.217,1.364-1.375,2.277-1.375v.935" transform="translate(-238.37 -333.755)" fill="#fff"/>
        <path id="Path_58" data-name="Path 58" d="M335.743,343.26a.867.867,0,0,1,.925-.856c.71,0,.867.293,1,.608l.168.405h.124l.068-1.183a7.7,7.7,0,0,0-1.172-.135c-1.4,0-1.972.868-1.972,1.488,0,1.6,2.513,1.363,2.513,2.772,0,.654-.541.935-1.1.935a1.14,1.14,0,0,1-.722-.226,2.206,2.206,0,0,1-.394-.89h-.124l-.068,1.318a7.561,7.561,0,0,0,1.026.1c1.791,0,2.242-.879,2.242-1.556,0-1.8-2.513-1.442-2.513-2.783" transform="translate(-287.292 -333.755)" fill="#fff"/>
        <path id="Path_59" data-name="Path 59" d="M239.62,334.936A31.856,31.856,0,0,1,235,337.963a16.79,16.79,0,0,1-1.8,5.357c1.894-.927,3.748-3.393,4.717-5.508a5.821,5.821,0,0,1,2.455,1.312,8.412,8.412,0,0,0-.754-4.188" transform="translate(-224.422 -329.326)" fill="#fff"/>
        <path id="Path_60" data-name="Path 60" d="M242.754,320.239a6.936,6.936,0,0,0-1.684,3.189c.926.245,1.787.453,2.553.582a6.385,6.385,0,0,1-.869-3.771" transform="translate(-229.287 -320.239)" fill="#fff"/>
        <path id="Path_61" data-name="Path 61" d="M210.2,323.648a13.952,13.952,0,0,1,8.827,4.988,14.116,14.116,0,0,0-3.592,6.372c1-1.549,3.157-2.86,5.341-4.14.392-1.873.722-3.821,1.207-5.448-3.653-.969-8.285-2.493-11.783-1.772" transform="translate(-210.202 -322.231)" fill="#fff"/>
        <path id="Path_62" data-name="Path 62" d="M247.757,330.117c.282.592.59,1.2.862,1.84a5.176,5.176,0,0,0,1.43-1.811,5.555,5.555,0,0,1-2.292-.029" transform="translate(-233.421 -326.346)" fill="#fff"/>
        <path id="Path_63" data-name="Path 63" d="M241.669,329.175c-.766-.128-1.627-.337-2.553-.582-.484,1.627-.815,3.575-1.206,5.448a31.887,31.887,0,0,0,4.621-3.027c-.272-.642-.58-1.247-.862-1.84" transform="translate(-227.333 -325.404)" fill="#fff"/>
      </g>
    </g>
  </g>
</svg>
