<?xml version="1.0" encoding="UTF-8"?>
<svg id="Layer_2" data-name="Layer 2" xmlns="http://www.w3.org/2000/svg" viewBox="0 0 50.9 14">
  <g id="Layer_1-2" data-name="Layer 1">
    <g id="Astellas-Logo">
      <g id="Group_10" data-name="Group 10">
        <g id="Group_9" data-name="Group 9">
          <path id="Path_51" data-name="Path 51" d="M23.8,9.5c0-.5,.4-.9,.9-.9h0c.7,0,.9,.3,1,.6l.2,.4h.1l.1-1.2c-.4-.1-.8-.1-1.2-.1-1.4,0-2,.9-2,1.5,0,1.6,2.5,1.4,2.5,2.8,0,.7-.5,.9-1.1,.9-.3,0-.5-.1-.7-.2-.2-.3-.3-.6-.4-.9h-.1l-.1,1.3c.3,.1,.7,.1,1,.1,1.8,0,2.2-.9,2.2-1.6,.1-1.7-2.4-1.4-2.4-2.7" style="fill: #fff;"/>
          <path id="Path_52" data-name="Path 52" d="M30.1,12.9c-.2,.2-.5,.4-.8,.4s-.6-.3-.6-.7h0v-3.8h1.3v-.3h-1.3v-1.3h-.2c-.3,.7-.9,1.2-1.6,1.4v.2h.9v4c0,.9,.6,1,.9,1,.6,0,1.2-.3,1.6-.7l-.2-.2" style="fill: #fff;"/>
          <path id="Path_53" data-name="Path 53" d="M35,10.4c.2,0,.3-.1,.3-.3,0-1-.6-1.7-2-1.7s-2.6,1.2-2.6,2.6v.2c-.1,1.3,.8,2.5,2.1,2.7h.2c.8,0,1.5-.3,2-.8v-.3c-.3,.3-.8,.5-1.3,.5-1.3,0-1.9-1.3-1.9-2.5v-.4h3.2Zm-1.8-1.8c.8,0,1.1,.5,1.1,1.3v.2h-2.5c.2-.9,.7-1.5,1.4-1.5" style="fill: #fff;"/>
          <path id="Path_54" data-name="Path 54" d="M37.5,12.5v-4.4c0-.8,0-1.5,.1-2.3-.6,.1-1.2,.1-1.8,.1v.1l.7,.2c.1,0,.1,.1,.2,.1,.1,.3,.1,.6,.1,1v5.2c0,.6,0,.7-.4,.9l-.5,.2v.2c.4-.1,.9-.1,1.3-.1,.5,0,.9,0,1.4,.1v-.2l-.6-.2c-.5-.1-.5-.3-.5-.9" style="fill: #fff;"/>
          <path id="Path_55" data-name="Path 55" d="M41,13.4c-.3-.1-.4-.3-.4-.9v-4.4c0-.8,0-1.5,.1-2.3-.6,.1-1.2,.1-1.8,.1v.1l.7,.2c.1,0,.1,.1,.2,.1,.1,.3,.1,.6,.1,1v5.2c0,.6,0,.7-.4,.9l-.5,.2v.2c.4-.1,.9-.1,1.3-.1,.5,0,.9,0,1.4,.1v-.2l-.7-.2" style="fill: #fff;"/>
          <path id="Path_56" data-name="Path 56" d="M46.1,12.8v-3.1c0-1-.8-1.4-1.7-1.4s-1.7,.5-2.1,1.3l.3,.2c.4-.5,.9-.8,1.5-.9,.6,0,1.1,.2,1.1,1.1v.6h-.1c-1.9,0-3.2,.6-3.2,1.9,0,.7,.5,1.4,1.2,1.4h.2c.7,0,1.4-.4,1.7-1.1h0v1c.3-.1,.5-.1,.8-.1s.6,0,.9,.1v-.2c-.5-.1-.6-.2-.6-.8m-.8-.9c.1,.7-.5,1.4-1.2,1.4h-.1c-.5,0-.9-.3-1-.8v-.2c0-1.2,1.4-1.4,2.3-1.4v1" style="fill: #fff;"/>
          <path id="Path_57" data-name="Path 57" d="M21.5,12.8v-3.1c0-1-.8-1.4-1.7-1.4s-1.7,.5-2.1,1.3l.3,.2c.3-.5,.9-.8,1.5-.9,.6,0,1.1,.2,1.1,1.1v.6h-.1c-1.9,0-3.2,.6-3.2,1.9,0,.7,.5,1.4,1.2,1.4h.2c.7,0,1.4-.4,1.7-1.1h0v1c.3-.1,.5-.1,.8-.1s.6,0,.9,.1v-.2c-.5-.1-.6-.2-.6-.8m-.9-.9c.1,.7-.5,1.4-1.2,1.4h-.1c-.5,0-.9-.3-1-.8v-.2c0-1.2,1.4-1.4,2.3-1.4v1" style="fill: #fff;"/>
          <path id="Path_58" data-name="Path 58" d="M48.5,9.5c0-.5,.4-.9,.9-.9h0c.7,0,.9,.3,1,.6l.2,.4h.1l.1-1.2c-.4-.1-.8-.1-1.2-.1-1.4,0-2,.9-2,1.5,0,1.6,2.5,1.4,2.5,2.8,0,.7-.5,.9-1.1,.9-.3,0-.5-.1-.7-.2-.2-.3-.3-.6-.4-.9h-.1l-.1,1.3c.3,.1,.7,.1,1,.1,1.8,0,2.2-.9,2.2-1.6,.1-1.7-2.4-1.4-2.4-2.7" style="fill: #fff;"/>
          <path id="Path_59" data-name="Path 59" d="M15.2,5.6c-1.4,1.1-3,2.2-4.6,3-.3,1.9-.9,3.7-1.8,5.4,1.9-.9,3.7-3.4,4.7-5.5,.9,.2,1.8,.7,2.5,1.3,.1-1.4-.2-2.9-.8-4.2" style="fill: #fff;"/>
          <path id="Path_60" data-name="Path 60" d="M13.5,0c-.8,.9-1.4,2-1.7,3.2,.9,.2,1.8,.5,2.6,.6-.7-1.2-1-2.5-.9-3.8" style="fill: #fff;"/>
          <path id="Path_61" data-name="Path 61" d="M0,1.4c3.5,.5,6.6,2.3,8.8,5-1.7,1.8-3,4-3.6,6.4,1-1.5,3.2-2.9,5.3-4.1,.4-1.9,.7-3.8,1.2-5.4C8.1,2.2,3.5,.7,0,1.4" style="fill: #fff;"/>
          <path id="Path_62" data-name="Path 62" d="M14.3,3.8c.3,.6,.6,1.2,.9,1.8,.6-.5,1.1-1.1,1.4-1.8-.7,.1-1.5,.1-2.3,0" style="fill: #fff;"/>
          <path id="Path_63" data-name="Path 63" d="M14.3,3.8c-.8-.1-1.6-.3-2.6-.6-.5,1.6-.8,3.6-1.2,5.4,1.6-.9,3.2-1.9,4.6-3-.2-.6-.5-1.2-.8-1.8" style="fill: #fff;"/>
        </g>
      </g>
    </g>
  </g>
</svg>