<?xml version="1.0" encoding="utf-8"?>
<!-- Generator: Adobe Illustrator 27.0.0, SVG Export Plug-In . SVG Version: 6.00 Build 0)  -->
<svg version="1.1" id="Layer_1" xmlns="http://www.w3.org/2000/svg" xmlns:xlink="http://www.w3.org/1999/xlink" x="0px" y="0px"
	 viewBox="0 0 126 90" style="enable-background:new 0 0 126 90;" xml:space="preserve">
<style type="text/css">
	.st0{fill:#FFFFFF;}
	.st1{enable-background:new    ;}
	.st2{fill:#4D4D4F;}
	.st3{fill:#AD1AAC;}
	.st4{fill:#43B02A;}
	.st5{fill:#4EC3E0;}
	.st6{fill:#007A33;}
</style>
<rect id="White-Right" class="st0" width="126" height="90"/>
<g class="st1">
	<path class="st2" d="M33.5,69.9v0.5h-2.5v1.7h1.8v0.5h-1.8v1.9h2.6V75h-3.2v-5.1H33.5z"/>
	<path class="st2" d="M34.7,69.9l1.2,4.1h0l1.3-4.1h0.6L36.2,75h-0.5l-1.6-5.1H34.7z"/>
	<path class="st2" d="M41.5,69.9v0.4l-2.6,4.2h2.6V75h-3.3v-0.4l2.5-4.2h-2.3v-0.5H41.5z"/>
	<path class="st2" d="M45.3,75.5v0.3h-3.5v-0.3H45.3z"/>
	<path class="st2" d="M49.1,71.2c0,0.5-0.2,0.9-0.6,1.2c-0.2,0.2-0.5,0.4-0.9,0.7c-0.6,0.4-1.1,0.8-1.3,1.4h2.8V75h-3.3v-0.5
		c0.3-0.6,0.8-1.1,1.3-1.5c0.3-0.2,0.5-0.4,0.7-0.6c0.4-0.3,0.7-0.7,0.7-1.2c0-0.6-0.4-0.9-1-0.9s-1.1,0.5-1.2,1.1l-0.5-0.1
		c0.2-1,0.8-1.4,1.7-1.4C48.4,69.9,49.1,70.4,49.1,71.2z"/>
	<path class="st2" d="M53.5,72.5c0,1.7-0.6,2.6-1.8,2.6c-1.2,0-1.8-0.9-1.8-2.6c0-1.7,0.6-2.6,1.8-2.6
		C52.9,69.9,53.5,70.8,53.5,72.5z M51.7,74.6c0.8,0,1.3-0.7,1.3-2.2c0-1.5-0.4-2.2-1.3-2.2c-0.8,0-1.2,0.7-1.2,2.2
		C50.5,74,50.9,74.6,51.7,74.6z"/>
	<path class="st2" d="M57.6,71.2c0,0.5-0.2,0.9-0.6,1.2c-0.2,0.2-0.5,0.4-0.9,0.7c-0.6,0.4-1.1,0.8-1.3,1.4h2.8V75h-3.3v-0.5
		c0.3-0.6,0.8-1.1,1.3-1.5c0.3-0.2,0.5-0.4,0.7-0.6c0.4-0.3,0.7-0.7,0.7-1.2c0-0.6-0.4-0.9-1-0.9s-1.1,0.5-1.2,1.1l-0.5-0.1
		c0.2-1,0.8-1.4,1.7-1.4C56.9,69.9,57.6,70.4,57.6,71.2z"/>
	<path class="st2" d="M61.9,71.2c0,0.5-0.2,0.9-0.6,1.2c-0.2,0.2-0.5,0.4-0.9,0.7c-0.6,0.4-1.1,0.8-1.3,1.4h2.8V75h-3.3v-0.5
		c0.3-0.6,0.8-1.1,1.3-1.5c0.3-0.2,0.5-0.4,0.8-0.6c0.4-0.3,0.7-0.7,0.7-1.2c0-0.6-0.4-0.9-1-0.9s-1.1,0.5-1.2,1.1l-0.5-0.1
		c0.2-1,0.8-1.4,1.7-1.4C61.2,69.9,61.9,70.4,61.9,71.2z"/>
	<path class="st2" d="M65.9,75.5v0.3h-3.5v-0.3H65.9z"/>
	<path class="st2" d="M69.8,72.5c0,1.7-0.6,2.6-1.8,2.6c-1.2,0-1.8-0.9-1.8-2.6c0-1.7,0.6-2.6,1.8-2.6
		C69.2,69.9,69.8,70.8,69.8,72.5z M68.1,74.6c0.8,0,1.3-0.7,1.3-2.2c0-1.5-0.4-2.2-1.3-2.2c-0.8,0-1.2,0.7-1.2,2.2
		C66.8,74,67.2,74.6,68.1,74.6z"/>
	<path class="st2" d="M74,71.2c0,0.5-0.2,0.9-0.6,1.2c-0.2,0.2-0.5,0.4-0.9,0.7c-0.6,0.4-1.1,0.8-1.3,1.4h2.8V75h-3.3v-0.5
		c0.3-0.6,0.8-1.1,1.3-1.5c0.3-0.2,0.5-0.4,0.7-0.6c0.4-0.3,0.7-0.7,0.7-1.2c0-0.6-0.4-0.9-1-0.9s-1.1,0.5-1.2,1.1l-0.5-0.1
		c0.2-1,0.8-1.4,1.7-1.4C73.3,69.9,74,70.4,74,71.2z"/>
	<path class="st2" d="M78.2,69.9v0.3L76.1,75h-0.6l2.1-4.6H75v-0.4H78.2z"/>
	<path class="st2" d="M81.2,69.9v4.7h0.9V75h-2.2v-0.4h0.9v-4.1l-1,0.1v-0.3c0.4-0.1,0.8-0.2,1-0.4H81.2z"/>
	<path class="st2" d="M86.5,75.5v0.3H83v-0.3H86.5z"/>
	<path class="st2" d="M87.8,69.9v3.6c0,0.7,0.5,1.1,1.2,1.1c0.7,0,1.2-0.4,1.2-1.1v-3.6h0.6v3.5c0,1-0.7,1.6-1.8,1.6
		c-1,0-1.8-0.6-1.8-1.6v-3.5H87.8z"/>
	<path class="st2" d="M93,69.9v2.6l2.1-2.6h0.7l-1.6,1.9l1.8,3.2h-0.6l-1.5-2.7l-0.8,1V75h-0.6v-5.1H93z"/>
</g>
<g class="st1">
	<path class="st2" d="M36.3,77.9l2.2,3.9h0v-3.9H39V83h-0.5L36,78.5h0V83h-0.5v-5.1H36.3z"/>
	<path class="st2" d="M44.1,80.5c0,1.4-0.5,2.6-2,2.6c-1.5,0-2-1.2-2-2.6c0-1.4,0.5-2.6,2-2.6C43.5,77.9,44.1,79.1,44.1,80.5z
		 M42.1,82.6c0.9,0,1.4-0.7,1.4-2.1c0-1.4-0.5-2.1-1.4-2.1c-0.9,0-1.4,0.7-1.4,2.1C40.7,81.9,41.2,82.6,42.1,82.6z"/>
	<path class="st2" d="M45.1,77.9l1.2,4.1h0l1.3-4.1h0.6L46.6,83h-0.5l-1.6-5.1H45.1z"/>
	<path class="st2" d="M52.1,77.9v0.5h-2.5v1.7h1.8v0.5h-1.8v1.9h2.6V83h-3.2v-5.1H52.1z"/>
	<path class="st2" d="M54.2,77.9l1.3,4.1h0l1.3-4.1h0.9V83h-0.5v-4.7L55.7,83h-0.4l-1.4-4.7V83h-0.5v-5.1H54.2z"/>
	<path class="st2" d="M61,77.9c0.9,0,1.5,0.4,1.5,1.3c0,0.6-0.3,1-0.9,1.2l0,0c0.6,0.2,1,0.7,1,1.3c0,0.9-0.7,1.4-1.8,1.4h-1.6v-5.1
		H61z M60.7,80.1c0.7,0,1.2-0.3,1.2-0.9c0-0.6-0.3-0.8-0.9-0.8h-1.2v1.7H60.7z M60.8,82.5c0.8,0,1.2-0.3,1.2-0.9c0-0.7-0.6-1-1.3-1
		h-1v1.9H60.8z"/>
	<path class="st2" d="M66.9,77.9v0.5h-2.5v1.7h1.8v0.5h-1.8v1.9H67V83h-3.2v-5.1H66.9z"/>
	<path class="st2" d="M69.7,77.9c1,0,1.7,0.4,1.7,1.3c0,0.6-0.3,1.1-1,1.3l1.1,2.4h-0.6l-1-2.3h-1.2V83h-0.6v-5.1H69.7z M69.7,80.2
		c0.7,0,1.2-0.3,1.2-0.9c0-0.6-0.4-0.9-1.2-0.9h-1v1.8H69.7z"/>
	<path class="st2" d="M77.9,79.2c0,0.5-0.2,0.9-0.6,1.2c-0.2,0.2-0.5,0.4-0.9,0.7c-0.6,0.4-1.1,0.8-1.3,1.4h2.8V83h-3.3v-0.5
		c0.3-0.6,0.8-1.1,1.3-1.5c0.3-0.2,0.5-0.4,0.8-0.6c0.4-0.3,0.7-0.7,0.7-1.2c0-0.6-0.4-0.9-1-0.9s-1.1,0.5-1.2,1.1l-0.5-0.1
		c0.2-1,0.8-1.4,1.7-1.4C77.3,77.9,77.9,78.4,77.9,79.2z"/>
	<path class="st2" d="M82.4,80.5c0,1.7-0.6,2.6-1.8,2.6c-1.2,0-1.8-0.9-1.8-2.6c0-1.7,0.6-2.6,1.8-2.6
		C81.8,77.9,82.4,78.8,82.4,80.5z M80.6,82.6c0.8,0,1.3-0.7,1.3-2.2c0-1.5-0.4-2.2-1.3-2.2c-0.8,0-1.2,0.7-1.2,2.2
		C79.3,82,79.7,82.6,80.6,82.6z"/>
	<path class="st2" d="M86.5,79.2c0,0.5-0.2,0.9-0.6,1.2c-0.2,0.2-0.5,0.4-0.9,0.7c-0.6,0.4-1.1,0.8-1.3,1.4h2.8V83h-3.3v-0.5
		c0.3-0.6,0.8-1.1,1.3-1.5c0.3-0.2,0.5-0.4,0.8-0.6c0.4-0.3,0.7-0.7,0.7-1.2c0-0.6-0.4-0.9-1-0.9s-1.1,0.5-1.2,1.1l-0.5-0.1
		c0.2-1,0.8-1.4,1.7-1.4C85.8,77.9,86.5,78.4,86.5,79.2z"/>
	<path class="st2" d="M90.8,79.2c0,0.5-0.2,0.9-0.6,1.2c-0.2,0.2-0.5,0.4-0.9,0.7c-0.6,0.4-1.1,0.8-1.3,1.4h2.8V83h-3.3v-0.5
		c0.3-0.6,0.8-1.1,1.3-1.5c0.3-0.2,0.5-0.4,0.7-0.6c0.4-0.3,0.7-0.7,0.7-1.2c0-0.6-0.4-0.9-1-0.9s-1.1,0.5-1.2,1.1l-0.5-0.1
		c0.2-1,0.8-1.4,1.7-1.4C90.1,77.9,90.8,78.4,90.8,79.2z"/>
</g>
<g id="Layer_1_00000142156246633055583970000014592958105864489609_" transform="translate(589.038 5.786)">
	<g id="Group_11" transform="translate(23.5 20.934)">
		<path id="Path_80" class="st3" d="M-591.7,24.8h1.1v1.6h0.1c0.4-1.1,1.5-1.8,2.7-1.8v1.1c-1.5,0.1-2.2,1-2.7,2.7V33h-1.1
			L-591.7,24.8L-591.7,24.8z"/>
		<path id="Path_81" class="st3" d="M-584.1,33.2c-2.3,0-3.4-1.9-3.4-4.3s1.1-4.3,3.4-4.3c2.3,0,3.4,1.9,3.4,4.3
			C-580.7,31.3-581.8,33.2-584.1,33.2 M-584.1,25.6c-1.4,0-2.3,1.2-2.3,3.3s0.9,3.3,2.3,3.3c1.4,0,2.3-1.2,2.3-3.3
			C-581.8,26.8-582.7,25.6-584.1,25.6"/>
		<path id="Path_82" class="st3" d="M-577.2,27.7l1.8-2.9h1.2l-2.3,4l2.7,4.3h-1.3l-2.1-3.4l-2,3.4h-1.3l2.6-4.3l-2.4-4h1.3
			L-577.2,27.7z"/>
		<path id="Path_83" class="st3" d="M-573.2,26.3c0.6-1.1,1.8-1.8,3.1-1.7c1.4,0,2.9,0.7,2.9,2.5v4.2c0,0.6,0,1.2,0.2,1.8h-1.2
			l-0.1-1.1c-0.7,0.8-1.7,1.3-2.8,1.3c-1.2,0.1-2.3-0.8-2.4-2c0-0.1,0-0.2,0-0.3c0-1.8,1.4-2.7,5.1-3.4v-0.4c0-1.1-0.7-1.5-1.7-1.5
			c-0.9-0.1-1.8,0.5-2.1,1.3L-573.2,26.3z M-568.4,28.6c-2.7,0.5-3.9,1.2-3.9,2.4c0.1,0.7,0.6,1.3,1.4,1.3c1-0.1,1.9-0.6,2.5-1.4
			V28.6z"/>
		<path id="Path_84" class="st3" d="M-559.3,21.5v9.7c0,0.6,0,1.2,0.1,1.8h-1l-0.2-0.8c-0.5,0.6-1.3,1-2.2,1c-1.5,0-3.4-1-3.4-4.3
			c0-3.2,2-4.3,3.4-4.3c0.8,0,1.6,0.4,2.2,0.9l0.1,0.1v-4h1.1V21.5z M-560.4,26.7c-0.5-0.7-1.3-1.1-2.1-1.1c-1.4,0-2.3,0.9-2.3,3.4
			c0,2.1,0.9,3.3,2.3,3.3c0.8-0.1,1.6-0.5,2.1-1.1V26.7z"/>
		<path id="Path_85" class="st3" d="M-552.1,33v-1.1h-0.1c-0.6,0.8-1.5,1.2-2.4,1.3c-1.2,0.1-2.3-0.8-2.4-2c0-0.1,0-0.3,0-0.4v-6
			h1.1v6c0,1.1,0.5,1.5,1.4,1.5c0.9-0.1,1.8-0.6,2.4-1.2v-6.2h1.1V33H-552.1z"/>
		<path id="Path_86" class="st3" d="M-548.8,30.9c0.5,0.8,1.4,1.3,2.4,1.3c1.2,0,1.8-0.7,1.8-1.4c0-2.1-4.9-1-4.8-4
			c0.1-1.4,1.1-2.3,2.8-2.2c1.1,0,2.2,0.6,2.8,1.5l-0.8,0.7c-0.5-0.7-1.3-1.1-2.1-1.1c-1,0-1.5,0.5-1.5,1.2c0,1.8,4.8,0.9,4.8,4
			c0,1.6-1.4,2.4-2.9,2.4c-1.3,0-2.5-0.5-3.3-1.6L-548.8,30.9z"/>
		<path id="Path_87" class="st3" d="M-541.9,24.8v-2.7h1.1v2.7h1.9v1h-1.9v5.9c0,0.4,0.3,0.6,0.9,0.6c0.4,0,0.7-0.1,1-0.1v0.9
			c-0.4,0.1-0.9,0.1-1.4,0.1c-1.2,0-1.8-0.3-1.8-1.4v-6.1h-1.4v-1L-541.9,24.8z"/>
		<path id="Path_88" class="st3" d="M-537.9,26.3c0.6-1.1,1.8-1.8,3.1-1.7c1.4,0,2.9,0.7,2.9,2.5v4.2c0,0.6,0,1.2,0.2,1.8h-1.2
			l-0.1-1.1c-0.7,0.8-1.7,1.3-2.8,1.3c-1.2,0.1-2.3-0.8-2.4-2c0-0.1,0-0.2,0-0.3c0-1.8,1.4-2.7,5.1-3.4v-0.4c0-1.1-0.7-1.5-1.7-1.5
			c-0.9-0.1-1.8,0.5-2.1,1.3L-537.9,26.3z M-533.1,28.6c-2.7,0.5-3.9,1.2-3.9,2.4c0.1,0.7,0.6,1.3,1.4,1.3c1-0.1,1.9-0.6,2.5-1.4
			V28.6z"/>
		<path id="Path_89" class="st3" d="M-529.8,24.8v-2.7h1.1v2.7h1.9v1h-1.9v5.9c0,0.4,0.3,0.6,0.9,0.6c0.4,0,0.7-0.1,1-0.1v0.9
			c-0.4,0.1-0.9,0.1-1.4,0.1c-1.2,0-1.8-0.3-1.8-1.4v-6.1h-1.4v-1L-529.8,24.8z"/>
		<path id="Path_90" class="st4" d="M-514.1,8.6l10.5-4.4c2.1,1.4,3.5,3.1,3.8,4.9L-514.1,8.6z"/>
		<path id="Path_91" class="st3" d="M-517.9,0h-0.1c-4.9,0-3.6,2.7-2.1,5.5L-517.9,0z"/>
		<path id="Path_92" class="st5" d="M-504.7,3.5c-1.9-1-3.9-1.8-5.9-2.4l-5.6,6L-504.7,3.5z"/>
		<path id="Path_93" class="st3" d="M-518.5,7.3l6.6-6.6c-1.7-0.4-3.5-0.7-5.3-0.8L-518.5,7.3z"/>
		<path id="Path_94" class="st5" d="M-510.4,18c2.1-0.6,4.1-1.4,6-2.5l-11.8-3.8L-510.4,18z"/>
		<path id="Path_95" class="st4" d="M-514.1,10.3l10.8,4.7c2-1.6,3.4-3.3,3.6-5L-514.1,10.3z"/>
		<path id="Path_96" class="st3" d="M-520,13.4c-1.5,2.9-3,5.7,2,5.7h0.3L-520,13.4z"/>
		<path id="Path_97" class="st3" d="M-517.1,19.2c1.8-0.1,3.6-0.4,5.4-0.8l-6.8-6.8L-517.1,19.2z"/>
		<path id="Path_98" class="st6" d="M-602,19V1.9h9.8v2.5h-6.9v4.4h6v2.5h-6v5.1h7.3V19H-602z"/>
		<path id="Path_99" class="st6" d="M-583.1,6.2h2.7l-4,12.7h-2.5l-4.1-12.7h2.7l2.5,9h0.1L-583.1,6.2z"/>
		<path id="Path_100" class="st6" d="M-578.4,19V6.2h2.5v1.3h0.1c0.9-0.9,2.1-1.5,3.4-1.5l0.2,2.7c-0.3,0-0.6-0.1-0.9-0.1
			c-1,0-1.9,0.4-2.7,0.9V19L-578.4,19L-578.4,19z"/>
		<path id="Path_101" class="st6" d="M-561.3,13.3h-7v1.8c0,1.4,0.8,1.8,2.2,1.8c1.3,0,2.2-0.3,2.2-1.8l2.6,0.2
			c-0.1,2.8-2.2,3.7-4.8,3.7c-3,0-4.8-1.1-4.8-4.1v-5c0-3,1.8-4.1,4.8-4.1c3,0,4.8,1.1,4.8,4.1L-561.3,13.3z M-563.9,11.2v-1.1
			c0-1.4-0.8-2-2.2-2s-2.2,0.5-2.2,2v1.1H-563.9z"/>
		<path id="Path_102" class="st6" d="M-558.5,19V6.2h2.5v1.2h0.1c1-0.9,2.2-1.4,3.5-1.5c2.2,0,3.1,1.4,3.1,3.7V19h-2.7v-8.7
			c0-1.2-0.3-2-1.5-2c-0.9,0.1-1.8,0.5-2.4,1.2v9.5h-2.7V19z"/>
		<path id="Path_103" class="st6" d="M-547.3,8.4V6.2h9.2v2.2l-6.2,8.2v0.2h6.3V19h-9.5v-2.2l6.2-8.3V8.4L-547.3,8.4z"/>
		<path id="Path_104" class="st6" d="M-536.5,10c0-3,1.8-4,4.8-4c3,0,4.9,1,4.9,4v5.1c0,2.9-1.8,4.1-4.9,4.1s-4.8-1.1-4.8-4.1V10z
			 M-533.8,15.2c0,1.4,0.8,1.8,2.2,1.8c1.4,0,2.2-0.5,2.2-1.8V10c0-1.4-0.8-1.8-2.2-1.8c-1.4,0-2.2,0.5-2.2,1.8V15.2z"/>
		<path id="Path_105" class="st6" d="M-525.8,6.3h-0.5V6h1.5v0.3h-0.5v1.5h-0.4V6.3z"/>
		<path id="Path_106" class="st6" d="M-524.6,6h0.6l0.4,1.2l0,0l0.4-1.2h0.5v1.8h-0.4V6.6l0,0l-0.4,1.3h-0.3l-0.5-1.3l0,0v1.3h-0.4
			V6z"/>
	</g>
	<path id="Polygon_1" d="M-474.9,25.4l-4.2-7.5h8.5L-474.9,25.4z"/>
</g>
</svg>
