<?xml version="1.0" encoding="utf-8"?>
<!-- Generator: Adobe Illustrator 27.0.0, SVG Export Plug-In . SVG Version: 6.00 Build 0)  -->
<svg version="1.1" id="Group_40" xmlns="http://www.w3.org/2000/svg" xmlns:xlink="http://www.w3.org/1999/xlink" x="0px" y="0px"
	 viewBox="0 0 602 90" style="enable-background:new 0 0 602 90;" xml:space="preserve">
<style type="text/css">
	.st0{enable-background:new    ;}
	.st1{fill:#4D4D4F;}
	.st2{fill:#007A33;stroke:#007A33;stroke-width:0.5;}
</style>
<g class="st0">
	<path class="st1" d="M286.4,23.1h-2.3c-0.5-1.3-2-2-3.7-2c-2.9,0-4.6,1.5-4.6,4.2c0,2.5,1.8,4.1,4.4,4.1c2.1,0,3.7-1.1,4-2.5h2.3
		c-0.5,2.9-2.8,4.4-6.5,4.4c-4,0-6.6-2.3-6.6-6.3c0-3.7,2.5-5.9,6.8-5.9C283.6,19.1,285.7,20.4,286.4,23.1z"/>
	<path class="st1" d="M296.8,25.1v4.6c0,0.4,0,1,0.2,1.3h-2c-0.1-0.3-0.1-0.5-0.1-0.9c-1.4,0.8-2.6,1.2-3.7,1.2
		c-1.6,0-3.3-0.8-3.3-2.6c0-1.2,0.7-2,2.1-2.6c1.2-0.5,2.8-0.8,5-0.9v-0.4c0-0.8-0.7-1.1-2.2-1.1c-1.3,0-2.1,0.3-2.3,1.1h-2.1
		c0.4-1.8,1.9-2.7,4.4-2.7C295.2,22.1,296.8,22.9,296.8,25.1z M291.4,29.8c1.1,0,2.2-0.3,3.5-1.1v-2c-1.1,0-2.7,0.3-3.6,0.6
		c-0.7,0.2-1.3,0.6-1.3,1.4C289.9,29.3,290.4,29.8,291.4,29.8z"/>
	<path class="st1" d="M304.7,22.1v2.1c-0.6-0.1-0.7-0.2-1.2-0.2c-1.7,0-2.6,0.8-2.6,2.3V31h-2v-8.6h2v1.3l0,0c0.7-1,1.7-1.6,3.1-1.6
		C304.5,22.1,304.6,22.1,304.7,22.1z"/>
	<path class="st1" d="M315.4,19.4V31h-2v-1.1c-0.9,0.9-2,1.4-3.4,1.4c-2.6,0-4.5-1.9-4.5-4.6s1.8-4.5,4.6-4.5c1,0,1.9,0.1,3.3,1.2
		v-3.9h2V19.4z M310.5,29.6c1,0,1.8-0.3,2.9-1.3V25c-1-0.9-1.8-1.2-2.9-1.2c-1.6,0-3,1.1-3,2.9C307.5,28.4,308.8,29.6,310.5,29.6z"
		/>
	<path class="st1" d="M319.8,19.1v1.8h-2v-1.8H319.8z M319.8,22.4V31h-2v-8.6H319.8z"/>
	<path class="st1" d="M331.1,26.7c0,2.9-1.9,4.6-4.8,4.6s-4.8-1.6-4.8-4.6c0-2.7,1.8-4.6,4.8-4.6C329.4,22.1,331.1,24,331.1,26.7z
		 M326.3,29.6c1.8,0,2.8-1.1,2.8-2.9s-1.1-2.8-2.8-2.8c-1.6,0-2.8,1-2.8,2.8S324.6,29.6,326.3,29.6z"/>
	<path class="st1" d="M334.1,22.4l2.9,6.4l2.9-6.4h2.2L338,31h-2l-4-8.6H334.1z"/>
	<path class="st1" d="M351.9,25.1v4.6c0,0.4,0,1,0.2,1.3h-2c-0.1-0.3-0.1-0.5-0.1-0.9c-1.4,0.8-2.6,1.2-3.7,1.2
		c-1.6,0-3.3-0.8-3.3-2.6c0-1.2,0.7-2,2.1-2.6c1.2-0.5,2.8-0.8,5-0.9v-0.4c0-0.8-0.7-1.1-2.2-1.1c-1.3,0-2.1,0.3-2.3,1.1h-2.1
		c0.4-1.8,1.9-2.7,4.4-2.7C350.3,22.1,351.9,22.9,351.9,25.1z M346.5,29.8c1.1,0,2.2-0.3,3.5-1.1v-2c-1.1,0-2.7,0.3-3.6,0.6
		c-0.7,0.2-1.3,0.6-1.3,1.4C345,29.3,345.5,29.8,346.5,29.8z"/>
	<path class="st1" d="M362.2,24.1l-1.6,0.9c-0.8-1-1.7-1.3-2.8-1.3c-1.2,0-1.9,0.4-1.9,1c0,0.5,0.5,0.7,1.7,0.9
		c2.8,0.4,4.8,0.7,4.8,2.8c0,1.8-1.5,2.8-4.3,2.8c-1.7,0-3.3-0.3-4.7-2.1l1.7-1c0.6,1,1.7,1.5,3.1,1.5c1.2,0,2-0.4,2-1.1
		c0-0.8-0.9-0.8-2.4-1c-1.8-0.3-4.1-0.6-4.1-2.8c0-1.3,1.1-2.8,4-2.8C359.6,22.1,361.2,22.8,362.2,24.1z"/>
	<path class="st1" d="M372.8,25.4h-2c-0.3-0.9-1.3-1.6-2.5-1.6c-1.7,0-2.9,1.2-2.9,2.8c0,1.8,1,3,2.8,3c1.4,0,2.5-0.7,2.7-1.7h2.1
		c-0.5,2-2.1,3.4-4.6,3.4c-3.1,0-5-1.7-5-4.8c0-2.4,1.9-4.4,4.9-4.4C370.7,22.1,372.5,23.4,372.8,25.4z"/>
	<path class="st1" d="M376.5,22.4v4.9c0,1.6,0.5,2.3,1.9,2.3c1.2,0,2-0.3,2.7-1.3v-5.9h2V31h-2v-1.1c-0.9,1-1.9,1.4-3.2,1.4
		c-2.3,0-3.4-1.2-3.4-3.3v-5.6H376.5z"/>
	<path class="st1" d="M387.3,19.4V31h-2V19.4H387.3z"/>
	<path class="st1" d="M398.1,25.1v4.6c0,0.4,0,1,0.2,1.3h-2c-0.1-0.3-0.1-0.5-0.1-0.9c-1.4,0.8-2.6,1.2-3.7,1.2
		c-1.6,0-3.3-0.8-3.3-2.6c0-1.2,0.7-2,2.1-2.6c1.2-0.5,2.8-0.8,5-0.9v-0.4c0-0.8-0.7-1.1-2.2-1.1c-1.3,0-2.1,0.3-2.3,1.1h-2.1
		c0.4-1.8,1.9-2.7,4.4-2.7S398.1,22.9,398.1,25.1z M392.7,29.8c1.1,0,2.2-0.3,3.5-1.1v-2c-1.1,0-2.7,0.3-3.6,0.6
		c-0.7,0.2-1.3,0.6-1.3,1.4C391.2,29.3,391.7,29.8,392.7,29.8z"/>
	<path class="st1" d="M406,22.1v2.1c-0.6-0.1-0.7-0.2-1.2-0.2c-1.7,0-2.6,0.8-2.6,2.3V31h-2v-8.6h2v1.3l0,0c0.7-1,1.7-1.6,3.1-1.6
		C405.8,22.1,405.9,22.1,406,22.1z"/>
	<path class="st1" d="M421.3,24.1l-1.6,0.9c-0.8-1-1.7-1.3-2.8-1.3c-1.2,0-1.9,0.4-1.9,1c0,0.5,0.5,0.7,1.7,0.9
		c2.8,0.4,4.8,0.7,4.8,2.8c0,1.8-1.5,2.8-4.3,2.8c-1.7,0-3.3-0.3-4.7-2.1l1.7-1c0.6,1,1.7,1.5,3.1,1.5c1.2,0,2-0.4,2-1.1
		c0-0.8-0.9-0.8-2.4-1c-1.8-0.3-4.1-0.6-4.1-2.8c0-1.3,1.1-2.8,4-2.8C418.7,22.1,420.3,22.8,421.3,24.1z"/>
	<path class="st1" d="M431.5,25.1v4.6c0,0.4,0,1,0.2,1.3h-2c-0.1-0.3-0.1-0.5-0.1-0.9c-1.4,0.8-2.6,1.2-3.7,1.2
		c-1.6,0-3.3-0.8-3.3-2.6c0-1.2,0.7-2,2.1-2.6c1.2-0.5,2.8-0.8,5-0.9v-0.4c0-0.8-0.7-1.1-2.2-1.1c-1.3,0-2.1,0.3-2.3,1.1h-2.1
		c0.4-1.8,1.9-2.7,4.4-2.7C429.9,22.1,431.5,22.9,431.5,25.1z M426,29.8c1.1,0,2.2-0.3,3.5-1.1v-2c-1.1,0-2.7,0.3-3.6,0.6
		c-0.7,0.2-1.3,0.6-1.3,1.4C424.6,29.3,425,29.8,426,29.8z"/>
	<path class="st1" d="M440.3,19.3V21c-0.9-0.2-1.4-0.3-1.9-0.3c-1.2,0-1.6,0.5-1.6,1.4v0.5h3.1v1.7h-3.1V31h-2v-6.6h-1.9v-1.7h1.9
		v-1.1c0-1.4,0.8-2.6,3.4-2.6C438.6,19.1,438.9,19.1,440.3,19.3z"/>
	<path class="st1" d="M450.7,27.3h-7.5c0.2,1.6,1.4,2.4,2.9,2.4c1,0,2-0.5,2.3-1.3h2.2c-0.5,1.6-2.2,2.9-4.5,2.9
		c-3,0-4.9-1.9-4.9-4.6s1.9-4.6,4.7-4.6C448.8,22.1,450.7,23.8,450.7,27.3z M448.6,25.7c-0.3-1.3-1.2-2-2.7-2s-2.3,0.7-2.6,2H448.6z
		"/>
	<path class="st1" d="M454.9,19.9v2.8h3v1.7h-3v4c0,0.8,0.4,1.2,1.4,1.2c0.5,0,1.3-0.1,1.7-0.2v1.7c-0.5,0.1-1.3,0.2-2.1,0.2
		c-2.2,0-2.9-0.8-2.9-2.4v-4.4h-1.5v-1.7h1.5V20h1.9V19.9z"/>
	<path class="st1" d="M460.7,22.4l2.9,6.3l2.9-6.3h2.2l-4.5,9.3c-0.8,1.6-1.9,2.3-3.6,2.3c-0.7,0-1.3-0.1-1.7-0.3V32
		c0.7,0.2,0.8,0.2,1.2,0.2c1.4,0,2.2-0.5,2.2-1.3c0-0.4-0.1-0.8-0.4-1.4l-3.4-7.1C458.5,22.4,460.7,22.4,460.7,22.4z"/>
	<path class="st1" d="M485.8,26.6c0,2.8-2,4.6-4.5,4.6c-1.1,0-1.9-0.1-3.4-1.2v3.8h-2V22.4h2v1.1c1-1,2-1.4,3.3-1.4
		C484,22.1,485.8,24,485.8,26.6z M477.9,28.3c1.1,0.9,1.9,1.2,2.9,1.2c1.7,0,3-1.2,3-2.9c0-1.7-1.3-2.9-3-2.9c-1,0-1.9,0.4-2.8,1.2
		v3.4H477.9z"/>
	<path class="st1" d="M493.1,22.1v2.1c-0.6-0.1-0.7-0.2-1.2-0.2c-1.7,0-2.6,0.8-2.6,2.3V31h-2v-8.6h2v1.3l0,0c0.7-1,1.7-1.6,3.1-1.6
		C493,22.1,493,22.1,493.1,22.1z"/>
	<path class="st1" d="M503.6,26.7c0,2.9-1.9,4.6-4.8,4.6s-4.8-1.6-4.8-4.6c0-2.7,1.8-4.6,4.8-4.6C501.8,22.1,503.6,24,503.6,26.7z
		 M498.8,29.6c1.8,0,2.8-1.1,2.8-2.9s-1.1-2.8-2.8-2.8c-1.6,0-2.8,1-2.8,2.8S497,29.6,498.8,29.6z"/>
	<path class="st1" d="M511.1,19.3V21c-0.9-0.2-1.4-0.3-1.9-0.3c-1.1,0-1.6,0.4-1.6,1.4v0.5h3.1v1.7h-3.1V31h-2v-6.6H504v-1.7h1.6v-1
		c0-1.5,0.8-2.6,3.4-2.6C509.6,19.1,509.9,19.1,511.1,19.3z M514.4,19.1v1.8h-2v-1.8H514.4z M514.4,22.4V31h-2v-8.6H514.4z"/>
	<path class="st1" d="M518.9,19.4V31h-2V19.4H518.9z"/>
	<path class="st1" d="M530.2,27.3h-7.5c0.2,1.6,1.4,2.4,2.9,2.4c1,0,2-0.5,2.3-1.3h2.2c-0.5,1.6-2.2,2.9-4.5,2.9
		c-3,0-4.9-1.9-4.9-4.6s1.9-4.6,4.7-4.6C528.3,22.1,530.2,23.8,530.2,27.3z M528.1,25.7c-0.3-1.3-1.2-2-2.7-2s-2.3,0.7-2.6,2H528.1z
		"/>
	<path class="st1" d="M546.7,26.7c0,2.9-1.9,4.6-4.8,4.6c-2.9,0-4.8-1.6-4.8-4.6c0-2.7,1.8-4.6,4.8-4.6S546.7,24,546.7,26.7z
		 M541.9,29.6c1.8,0,2.8-1.1,2.8-2.9s-1.1-2.8-2.8-2.8c-1.6,0-2.8,1-2.8,2.8C539.1,28.5,540.1,29.6,541.9,29.6z"/>
	<path class="st1" d="M554.9,19.3V21c-0.9-0.2-1.4-0.3-1.9-0.3c-1.2,0-1.6,0.5-1.6,1.4v0.5h3.1v1.7h-3.1V31h-2v-6.6h-1.9v-1.7h1.9
		v-1.1c0-1.4,0.8-2.6,3.4-2.6C553.3,19.1,553.5,19.1,554.9,19.3z"/>
</g>
<g class="st0">
	<path class="st1" d="M284.8,37.4v2h-8.2V42h7v2h-7v3h8.4v2h-10.6V37.4H284.8z"/>
	<path class="st1" d="M288.2,37.4l4.4,9.3l4.4-9.3h2.4L293.7,49h-2.4l-5.6-11.6H288.2z"/>
	<path class="st1" d="M308.2,37.4c3.3,0,4.6,1.1,4.6,3.5c0,2-1.3,3.3-3.2,3.4l3.6,4.7h-2.8l-3.4-4.6h-3.6V49H301V37.4H308.2z
		 M307.8,42.5c2.1,0,2.7-0.5,2.7-1.6c0-1.2-0.7-1.6-2.7-1.6h-4.5v3.3h4.5V42.5z"/>
	<path class="st1" d="M325.7,37.4v2h-8.2V42h7v2h-7v3h8.4v2h-10.6V37.4H325.7z"/>
	<path class="st1" d="M330.1,37.4l7.8,8.4v-8.4h2.2V49H338l-8.1-8.7V49h-2.2V37.4H330.1z"/>
	<path class="st1" d="M353.3,37.4v1.3l-7.9,8.4h8.1v2h-11.7V48l8.1-8.6h-7.7v-2H353.3z"/>
	<path class="st1" d="M368.4,43.3c0,3.4-2.4,6-6.9,6s-6.9-2.6-6.9-6c0-3.8,2.4-6.2,6.9-6.2C365.9,37.1,368.4,39.5,368.4,43.3z
		 M361.4,39c-2.8,0-4.6,1.5-4.6,4.1c0,2.7,1.8,4.2,4.7,4.2c2.9,0,4.7-1.4,4.7-4.2C366.1,40.5,364.3,39,361.4,39z"/>
	<path class="st1" d="M375.2,37.4v1.1h-2V44h-1.4v-5.5h-2v-1.1H375.2z M378.7,37.4l1.7,4.5l1.7-4.5h2V44h-1.3v-5l0,0l-1.9,5h-1
		l-1.9-5l0,0v5h-1.3v-6.6H378.7z"/>
	<path class="st1" d="M405.5,37.1v1.8h-2v-1.8H405.5z M405.5,40.4V49h-2v-8.6H405.5z"/>
	<path class="st1" d="M416.4,43.4V49h-2v-4.8c0-1.6-0.5-2.3-1.9-2.3c-1.2,0-2,0.3-2.7,1.3V49h-2v-8.6h2v1.1c1-1,1.9-1.4,3.2-1.4
		C415.3,40.1,416.4,41.3,416.4,43.4z"/>
	<path class="st1" d="M434.3,44.6c0,2.8-2,4.6-4.5,4.6c-1.1,0-1.9-0.1-3.4-1.2v3.8h-2V40.4h2v1.1c1-1,2-1.4,3.3-1.4
		C432.5,40.1,434.3,42,434.3,44.6z M426.4,46.3c1.1,0.9,1.9,1.2,2.9,1.2c1.7,0,3-1.2,3-2.9s-1.3-2.9-3-2.9c-1,0-1.9,0.4-2.8,1.2v3.4
		H426.4z"/>
	<path class="st1" d="M444.4,43.1v4.6c0,0.4,0,1,0.2,1.3h-2c-0.1-0.3-0.1-0.5-0.1-0.9c-1.4,0.8-2.6,1.2-3.7,1.2
		c-1.6,0-3.3-0.8-3.3-2.6c0-1.2,0.7-2,2.1-2.6c1.2-0.5,2.8-0.8,5-0.9v-0.4c0-0.8-0.7-1.1-2.2-1.1c-1.3,0-2.1,0.3-2.3,1.1H436
		c0.4-1.8,1.9-2.7,4.4-2.7C442.8,40.1,444.4,40.9,444.4,43.1z M438.9,47.8c1.1,0,2.2-0.3,3.5-1.1v-2c-1.1,0-2.7,0.3-3.6,0.6
		c-0.7,0.2-1.3,0.6-1.3,1.4C437.5,47.3,437.9,47.8,438.9,47.8z"/>
	<path class="st1" d="M449.1,37.9v2.8h3v1.7h-3v4c0,0.8,0.4,1.2,1.4,1.2c0.5,0,1.3-0.1,1.7-0.2v1.7c-0.5,0.1-1.3,0.2-2.1,0.2
		c-2.2,0-2.9-0.8-2.9-2.4v-4.4h-1.5v-1.7h1.5V38L449.1,37.9L449.1,37.9z"/>
	<path class="st1" d="M455.8,37.1v1.8h-2v-1.8H455.8z M455.8,40.4V49h-2v-8.6H455.8z"/>
	<path class="st1" d="M467.1,45.3h-7.5c0.2,1.6,1.4,2.4,2.9,2.4c1,0,2-0.5,2.3-1.3h2.2c-0.5,1.6-2.2,2.9-4.5,2.9
		c-3,0-4.9-1.9-4.9-4.6c0-2.7,1.9-4.6,4.7-4.6C465.3,40.1,467.1,41.8,467.1,45.3z M465,43.7c-0.3-1.3-1.2-2-2.7-2s-2.3,0.7-2.6,2
		H465z"/>
	<path class="st1" d="M477.3,43.4V49h-2v-4.8c0-1.6-0.5-2.3-1.9-2.3c-1.2,0-2,0.3-2.7,1.3V49h-2v-8.6h2v1.1c1-1,1.9-1.4,3.2-1.4
		C476.2,40.1,477.3,41.3,477.3,43.4z"/>
	<path class="st1" d="M482,37.9v2.8h3v1.7h-3v4c0,0.8,0.4,1.2,1.4,1.2c0.5,0,1.3-0.1,1.7-0.2v1.7c-0.5,0.1-1.3,0.2-2.1,0.2
		c-2.2,0-2.9-0.8-2.9-2.4v-4.4h-1.5v-1.7h1.5V38L482,37.9L482,37.9z"/>
	<path class="st1" d="M494.6,42.1L493,43c-0.8-1-1.7-1.3-2.8-1.3c-1.2,0-1.9,0.4-1.9,1c0,0.5,0.5,0.7,1.7,0.9
		c2.8,0.4,4.8,0.7,4.8,2.8c0,1.8-1.5,2.8-4.3,2.8c-1.7,0-3.3-0.3-4.7-2.1l1.7-1c0.6,1,1.7,1.5,3.1,1.5c1.2,0,2-0.4,2-1.1
		c0-0.8-0.9-0.8-2.4-1c-1.8-0.3-4.1-0.6-4.1-2.8c0-1.3,1.1-2.8,4-2.8C492.1,40.1,493.7,40.8,494.6,42.1z"/>
	<path class="st1" d="M503.2,40.4l2.3,6l2.2-6h1.8l2.3,6l2.3-6h2l-3.4,8.6h-1.9l-2.2-6l-2.2,6h-1.9l-3.4-8.6H503.2z"/>
	<path class="st1" d="M519.3,37.1v1.8h-2v-1.8H519.3z M519.3,40.4V49h-2v-8.6H519.3z"/>
	<path class="st1" d="M524.2,37.9v2.8h3v1.7h-3v4c0,0.8,0.4,1.2,1.4,1.2c0.5,0,1.3-0.1,1.7-0.2v1.7c-0.5,0.1-1.3,0.2-2.1,0.2
		c-2.2,0-2.9-0.8-2.9-2.4v-4.4h-1.5v-1.7h1.5V38L524.2,37.9L524.2,37.9z"/>
	<path class="st1" d="M530.7,37.4v4.1c0.9-1,1.9-1.4,3.2-1.4c2.3,0,3.4,1.2,3.4,3.3V49h-2v-4.8c0-1.6-0.5-2.3-1.9-2.3
		c-1.2,0-2,0.3-2.7,1.3V49h-2V37.4H530.7z"/>
</g>
<g class="st0">
	<path class="st1" d="M282.6,61.1v4.6c0,0.4,0,1,0.2,1.3h-2c-0.1-0.3-0.1-0.5-0.1-0.9c-1.4,0.8-2.6,1.2-3.7,1.2
		c-1.6,0-3.3-0.8-3.3-2.6c0-1.2,0.7-2,2.1-2.6c1.2-0.5,2.8-0.8,5-0.9v-0.4c0-0.8-0.7-1.1-2.2-1.1c-1.3,0-2.1,0.3-2.3,1.1H274
		c0.4-1.8,1.9-2.7,4.4-2.7C281,58.1,282.6,58.9,282.6,61.1z M277.1,65.8c1.1,0,2.2-0.3,3.5-1.1v-2c-1.1,0-2.7,0.3-3.6,0.6
		c-0.7,0.2-1.3,0.6-1.3,1.4C275.7,65.3,276.2,65.8,277.1,65.8z"/>
	<path class="st1" d="M293.3,61.4V67h-2v-4.8c0-1.6-0.5-2.3-1.9-2.3c-1.2,0-2,0.3-2.7,1.3V67h-2v-8.6h2v1.1c1-1,1.9-1.4,3.2-1.4
		C292.2,58.1,293.3,59.3,293.3,61.4z"/>
	<path class="st1" d="M303.9,61.1v4.6c0,0.4,0,1,0.2,1.3h-2c-0.1-0.3-0.1-0.5-0.1-0.9c-1.4,0.8-2.6,1.2-3.7,1.2
		c-1.6,0-3.3-0.8-3.3-2.6c0-1.2,0.7-2,2.1-2.6c1.2-0.5,2.8-0.8,5-0.9v-0.4c0-0.8-0.7-1.1-2.2-1.1c-1.3,0-2.1,0.3-2.3,1.1h-2.1
		c0.4-1.8,1.9-2.7,4.4-2.7C302.4,58.1,303.9,58.9,303.9,61.1z M298.5,65.8c1.1,0,2.2-0.3,3.5-1.1v-2c-1.1,0-2.7,0.3-3.6,0.6
		c-0.7,0.2-1.3,0.6-1.3,1.4C297,65.3,297.5,65.8,298.5,65.8z"/>
	<path class="st1" d="M315.1,63.3h-7.5c0.2,1.6,1.4,2.4,2.9,2.4c1,0,2-0.5,2.3-1.3h2.2c-0.5,1.6-2.2,2.9-4.5,2.9
		c-3,0-4.9-1.9-4.9-4.6c0-2.7,1.9-4.6,4.7-4.6C313.3,58.1,315.1,59.8,315.1,63.3z M313,61.7c-0.3-1.3-1.2-2-2.7-2s-2.3,0.7-2.6,2
		H313z"/>
	<path class="st1" d="M324.4,59.5c0.7-0.9,1.8-1.4,3-1.4c2.2,0,3.3,1,3.3,2.7V67h-2v-5.3c0-1.3-0.5-1.9-1.7-1.9
		c-0.8,0-1.6,0.4-2.3,1.1V67h-2v-5.3c0-1.3-0.5-1.9-1.7-1.9c-0.8,0-1.6,0.4-2.3,1.1V67h-2v-8.6h2v1c1.1-1.1,2-1.3,2.9-1.3
		C322.8,58.1,323.7,58.5,324.4,59.5z"/>
	<path class="st1" d="M334.9,55.1v1.8h-2v-1.8H334.9z M334.9,58.4V67h-2v-8.6H334.9z"/>
	<path class="st1" d="M345.7,61.1v4.6c0,0.4,0,1,0.2,1.3h-2c-0.1-0.3-0.1-0.5-0.1-0.9c-1.4,0.8-2.6,1.2-3.7,1.2
		c-1.6,0-3.3-0.8-3.3-2.6c0-1.2,0.7-2,2.1-2.6c1.2-0.5,2.8-0.8,5-0.9v-0.4c0-0.8-0.7-1.1-2.2-1.1c-1.3,0-2.1,0.3-2.3,1.1h-2.1
		c0.4-1.8,1.9-2.7,4.4-2.7C344.2,58.1,345.7,58.9,345.7,61.1z M340.3,65.8c1.1,0,2.2-0.3,3.5-1.1v-2c-1.1,0-2.7,0.3-3.6,0.6
		c-0.7,0.2-1.3,0.6-1.3,1.4C338.8,65.3,339.3,65.8,340.3,65.8z"/>
	<path class="st1" d="M362.7,62.7c0,2.9-1.9,4.6-4.8,4.6s-4.8-1.6-4.8-4.6c0-2.7,1.8-4.6,4.8-4.6C360.9,58.1,362.7,60,362.7,62.7z
		 M357.9,65.6c1.8,0,2.8-1.1,2.8-2.9c0-1.8-1.1-2.8-2.8-2.8c-1.6,0-2.8,1-2.8,2.8C355.1,64.5,356.2,65.6,357.9,65.6z"/>
	<path class="st1" d="M371,55.3V57c-0.9-0.2-1.4-0.3-1.9-0.3c-1.2,0-1.6,0.5-1.6,1.4v0.5h3.1v1.7h-3.1V67h-2v-6.6h-1.9v-1.7h1.9
		v-1.1c0-1.4,0.8-2.6,3.4-2.6C369.3,55.1,369.6,55.1,371,55.3z"/>
	<path class="st1" d="M390.4,59.1h-2.3c-0.5-1.3-2-2-3.7-2c-2.9,0-4.6,1.5-4.6,4.2c0,2.5,1.8,4.1,4.4,4.1c2.1,0,3.7-1.1,4.1-2.5h2.3
		c-0.5,2.9-2.8,4.4-6.5,4.4c-4,0-6.6-2.3-6.6-6.3c0-3.7,2.5-5.9,6.8-5.9C387.6,55.1,389.7,56.4,390.4,59.1z"/>
	<path class="st1" d="M394.9,55.4v5.4l6.5-5.4h3.2L399,60l6.1,7h-3l-4.8-5.7l-2.5,2.1V67h-2.3V55.4H394.9z"/>
	<path class="st1" d="M412.5,55.4c4.1,0,6.6,1.9,6.6,5.7s-2.5,5.9-6.4,5.9h-5.8V55.4H412.5z M411.5,65c3.7,0,5.3-1.1,5.3-3.9
		s-1.4-3.8-5.2-3.8h-2.4V65H411.5z"/>
</g>
<g class="st0">
	<path class="st1" d="M425.9,56.8c0,1.1-0.8,2-1.7,2.8l-1.1,1h2.7v1.1h-4.2v-1.1c1-1,1.7-1.6,2-1.9c0.6-0.6,1.2-1.2,1.2-1.8
		s-0.3-0.9-0.9-0.9s-1,0.3-1,0.9V57h-1.2v-0.3c0-1.2,1-1.9,2.1-1.9S425.9,55.5,425.9,56.8z"/>
</g>
<g class="st0">
	<path class="st1" d="M12.5,8.2v0.9H9.8v1.4h2v0.9h-2V13h2.8v1H8.7V8.2H12.5z"/>
	<path class="st1" d="M14.1,8.2l1,4.3l0,0l1.1-4.3h1.1L15.7,14h-1.2L13,8.2H14.1z"/>
	<path class="st1" d="M20.3,8.2c1.1,0,1.8,0.6,1.8,1.7c0,0.7-0.4,1.3-1.1,1.5l1.3,2.6h-1.2L20,11.6h-1V14h-1V8.2H20.3z M19.9,10.8
		c0.7,0,1.1-0.2,1.1-0.8s-0.4-0.8-0.9-0.8h-1v1.6H19.9z"/>
	<path class="st1" d="M27.2,8.2v0.9h-2.7v1.4h2v0.9h-2V13h2.8v1h-3.9V8.2H27.2z"/>
	<path class="st1" d="M29.4,8.2l2.3,3.9l0,0V8.2h1V14h-1.1l-2.4-4.1l0,0V14h-1V8.2H29.4z"/>
	<path class="st1" d="M37.5,8.2v0.9l-2.8,4h2.8V14h-4.1v-0.9l2.7-3.9h-2.5v-1H37.5z"/>
	<path class="st1" d="M42.9,11.1c0,1.9-0.9,3-2.4,3S38,13,38,11.1s0.9-3,2.4-3S42.9,9.2,42.9,11.1z M40.4,13.2c0.9,0,1.3-0.7,1.3-2
		c0-1.4-0.4-2-1.3-2c-0.9,0-1.3,0.6-1.3,2.1C39.1,12.5,39.5,13.2,40.4,13.2z"/>
	<path class="st1" d="M48,8.1c-0.8,1-1.2,2.1-1.2,3.3s0.4,2.3,1.2,3.3h-1c-0.9-1.3-1.1-2.2-1.1-3.3s0.2-1.9,1.1-3.3H48z"/>
	<path class="st1" d="M50.8,10.8c0,0-0.1,0-0.2,0c-0.5,0-0.9,0.5-0.9,0.7V14h-1V9.8h0.9v0.7l0,0c0.2-0.5,0.6-0.8,1.2-0.8V10.8z"/>
	<path class="st1" d="M54.7,11.9c0,1.3-0.7,2.2-1.8,2.2s-1.8-0.8-1.8-2.2c0-1.3,0.7-2.2,1.8-2.2S54.7,10.6,54.7,11.9z M52.9,13.3
		c0.5,0,0.8-0.4,0.8-1.4c0-0.9-0.3-1.4-0.8-1.4c-0.6,0-0.8,0.5-0.8,1.4C52.1,12.9,52.3,13.3,52.9,13.3z"/>
	<path class="st1" d="M56.1,9.8l0.6,1.2l0.6-1.2h1.1l-1.2,2l1.3,2.2h-1.1l-0.7-1.3L56,14h-1.1l1.2-2.2l-1.2-2H56.1z"/>
	<path class="st1" d="M62,11.4v2c0,0.1,0,0.4,0.1,0.6h-1L61,13.6c-0.4,0.3-0.8,0.4-1.3,0.4c-0.7,0-1.1-0.5-1.1-1.1
		c0-0.9,0.8-1.4,2.4-1.6V11c0-0.3-0.3-0.5-0.6-0.5s-0.6,0.2-0.9,0.5l-0.6-0.5c0.3-0.4,0.9-0.8,1.5-0.8C61.5,9.8,62,10.2,62,11.4z
		 M60.1,13.3c0.3,0,0.6-0.2,0.9-0.4V12c-1.1,0.2-1.4,0.5-1.4,0.8C59.6,13.2,59.8,13.3,60.1,13.3z"/>
	<path class="st1" d="M66.4,8.2V14h-0.8v-0.4c-0.4,0.3-0.7,0.5-1.1,0.5c-1.1,0-1.7-0.9-1.7-2.3c0-1.1,0.6-2.1,1.7-2.1
		c0.4,0,0.8,0.2,1,0.5l0,0v-2C65.5,8.2,66.4,8.2,66.4,8.2z M64.6,13.3c0.4,0,0.6-0.2,0.8-0.4v-2c-0.2-0.2-0.4-0.4-0.8-0.4
		c-0.6,0-0.9,0.5-0.9,1.4S64,13.3,64.6,13.3z"/>
	<path class="st1" d="M68.4,9.8v2.7c0,0.5,0.1,0.7,0.5,0.7c0.3,0,0.7-0.2,0.9-0.4v-3h1V14h-0.9v-0.4c-0.5,0.4-0.9,0.5-1.3,0.5
		c-0.8,0-1.2-0.5-1.2-1.4V9.8H68.4z"/>
	<path class="st1" d="M74.5,10.4l-0.6,0.5c-0.3-0.3-0.5-0.4-0.8-0.4c-0.4,0-0.6,0.2-0.6,0.4s0.2,0.4,0.7,0.6c1,0.3,1.3,0.7,1.3,1.4
		c0,0.8-0.6,1.2-1.5,1.2c-0.7,0-1.2-0.3-1.6-0.8l0.7-0.5c0.3,0.4,0.6,0.6,1,0.6s0.6-0.2,0.6-0.5c0-0.2-0.2-0.4-0.8-0.6
		c-1-0.3-1.3-0.7-1.3-1.3c0-0.7,0.6-1.2,1.4-1.2C73.6,9.8,74.1,10,74.5,10.4z"/>
	<path class="st1" d="M76.6,8.5v1.4h0.8v0.8h-0.8V13c0,0.2,0.1,0.3,0.4,0.3c0.2,0,0.3,0,0.5-0.1V14c-0.3,0-0.5,0.1-0.8,0.1
		c-0.7,0-1-0.3-1-1v-2.5H75V9.8h0.6V8.5H76.6z"/>
	<path class="st1" d="M81.1,11.4v2c0,0.1,0,0.4,0.1,0.6h-1l-0.1-0.4c-0.4,0.3-0.8,0.4-1.3,0.4c-0.7,0-1.1-0.5-1.1-1.1
		c0-0.9,0.8-1.4,2.4-1.6V11c0-0.3-0.3-0.5-0.6-0.5c-0.3,0-0.6,0.2-0.9,0.5L78,10.5c0.3-0.4,0.9-0.8,1.5-0.8
		C80.6,9.8,81.1,10.2,81.1,11.4z M79.2,13.3c0.3,0,0.6-0.2,0.9-0.4V12c-1.1,0.2-1.4,0.5-1.4,0.8C78.7,13.2,78.9,13.3,79.2,13.3z"/>
	<path class="st1" d="M83.2,8.5v1.4H84v0.8h-0.8V13c0,0.2,0.1,0.3,0.4,0.3c0.2,0,0.3,0,0.5-0.1V14c-0.3,0-0.5,0.1-0.8,0.1
		c-0.7,0-1-0.3-1-1v-2.5h-0.6V9.8h0.6V8.5H83.2z"/>
	<path class="st1" d="M85.4,8.1c0.9,1.3,1.1,2.2,1.1,3.3s-0.2,1.9-1.1,3.3h-1c0.8-1,1.2-2,1.2-3.3c0-1.2-0.4-2.3-1.2-3.3H85.4z"/>
	<path class="st1" d="M90.9,8.1V9h-1V8.1H90.9z M90.9,9.8V14h-1V9.8H90.9z"/>
	<path class="st1" d="M94.7,10.4l-0.6,0.5c-0.3-0.3-0.5-0.4-0.8-0.4c-0.4,0-0.6,0.2-0.6,0.4s0.2,0.4,0.7,0.6c1,0.3,1.3,0.7,1.3,1.4
		c0,0.8-0.6,1.2-1.5,1.2c-0.7,0-1.2-0.3-1.6-0.8l0.7-0.5c0.3,0.4,0.6,0.6,1,0.6s0.6-0.2,0.6-0.5c0-0.2-0.2-0.4-0.8-0.6
		c-1-0.3-1.3-0.7-1.3-1.3c0-0.7,0.6-1.2,1.4-1.2C93.8,9.8,94.3,10,94.7,10.4z"/>
	<path class="st1" d="M99.1,8.1V9h-1V8.1H99.1z M99.1,9.8V14h-1V9.8H99.1z"/>
	<path class="st1" d="M103.7,11.1V14h-1v-2.7c0-0.5-0.1-0.7-0.5-0.7c-0.3,0-0.7,0.2-0.9,0.4v3h-1V9.8h0.9v0.4
		c0.5-0.4,0.9-0.5,1.3-0.5C103.3,9.8,103.7,10.3,103.7,11.1z"/>
	<path class="st1" d="M108.1,8.2V14h-0.8v-0.4c-0.4,0.3-0.7,0.5-1.1,0.5c-1.1,0-1.7-0.9-1.7-2.3c0-1.1,0.6-2.1,1.7-2.1
		c0.4,0,0.8,0.2,1,0.5l0,0v-2C107.2,8.2,108.1,8.2,108.1,8.2z M106.4,13.3c0.4,0,0.6-0.2,0.8-0.4v-2c-0.2-0.2-0.4-0.4-0.8-0.4
		c-0.6,0-0.9,0.5-0.9,1.4S105.8,13.3,106.4,13.3z"/>
	<path class="st1" d="M110.3,8.1V9h-1V8.1H110.3z M110.3,9.8V14h-1V9.8H110.3z"/>
	<path class="st1" d="M114.5,10.9l-0.8,0.3c-0.2-0.5-0.4-0.6-0.8-0.6c-0.6,0-0.8,0.4-0.8,1.4c0,0.9,0.3,1.4,0.8,1.4
		c0.4,0,0.6-0.2,0.9-0.7l0.8,0.4c-0.4,0.7-0.9,1-1.6,1c-1.2,0-1.8-0.8-1.8-2.2c0-1.3,0.7-2.2,1.8-2.2
		C113.6,9.8,114.3,10.2,114.5,10.9z"/>
	<path class="st1" d="M118.4,11.4v2c0,0.1,0,0.4,0.1,0.6h-1l-0.1-0.4c-0.4,0.3-0.8,0.4-1.3,0.4c-0.7,0-1.1-0.5-1.1-1.1
		c0-0.9,0.8-1.4,2.4-1.6V11c0-0.3-0.3-0.5-0.6-0.5c-0.3,0-0.6,0.2-0.9,0.5l-0.6-0.5c0.3-0.4,0.9-0.8,1.5-0.8
		C117.9,9.8,118.4,10.2,118.4,11.4z M116.5,13.3c0.3,0,0.6-0.2,0.9-0.4V12c-1.1,0.2-1.4,0.5-1.4,0.8C116,13.2,116.2,13.3,116.5,13.3
		z"/>
	<path class="st1" d="M120.5,8.5v1.4h0.8v0.8h-0.8V13c0,0.2,0.1,0.3,0.4,0.3c0.2,0,0.3,0,0.5-0.1V14c-0.3,0-0.5,0.1-0.8,0.1
		c-0.7,0-1-0.3-1-1v-2.5H119V9.8h0.6V8.5H120.5z"/>
	<path class="st1" d="M125.2,11.6V12h-2.5c0,0.8,0.3,1.2,0.9,1.2c0.4,0,0.6-0.1,0.9-0.5l0.7,0.4c-0.4,0.6-0.9,0.8-1.7,0.8
		c-1.1,0-1.8-0.8-1.8-2.2s0.7-2.2,1.8-2.2C124.7,9.8,125.2,10.8,125.2,11.6z M124.3,11.4c0-0.6-0.3-0.9-0.8-0.9s-0.8,0.3-0.8,0.9
		H124.3z"/>
	<path class="st1" d="M129.5,8.2V14h-0.8v-0.4c-0.4,0.3-0.7,0.5-1.1,0.5c-1.1,0-1.7-0.9-1.7-2.3c0-1.1,0.6-2.1,1.7-2.1
		c0.4,0,0.8,0.2,1,0.5l0,0v-2C128.6,8.2,129.5,8.2,129.5,8.2z M127.7,13.3c0.4,0,0.6-0.2,0.8-0.4v-2c-0.2-0.2-0.4-0.4-0.8-0.4
		c-0.6,0-0.9,0.5-0.9,1.4S127.1,13.3,127.7,13.3z"/>
	<path class="st1" d="M134.9,8.1v0.8h-0.2c-0.5,0-0.6,0.2-0.6,0.5v0.4h0.8v0.8h-0.8V14h-1v-3.4h-0.6V9.8h0.6V9.3
		c0-0.8,0.3-1.2,1.1-1.2H134.9z"/>
	<path class="st1" d="M138.9,11.9c0,1.3-0.7,2.2-1.8,2.2s-1.8-0.8-1.8-2.2c0-1.3,0.7-2.2,1.8-2.2S138.9,10.6,138.9,11.9z
		 M137.1,13.3c0.5,0,0.8-0.4,0.8-1.4c0-0.9-0.3-1.4-0.8-1.4c-0.6,0-0.8,0.5-0.8,1.4C136.3,12.9,136.5,13.3,137.1,13.3z"/>
	<path class="st1" d="M141.6,10.8c0,0-0.1,0-0.2,0c-0.5,0-0.9,0.5-0.9,0.7V14h-1V9.8h0.9v0.7l0,0c0.2-0.5,0.6-0.8,1.2-0.8V10.8z"/>
	<path class="st1" d="M145.9,8.5v1.4h0.8v0.8h-0.8V13c0,0.2,0.1,0.3,0.4,0.3c0.2,0,0.3,0,0.5-0.1V14c-0.3,0-0.5,0.1-0.8,0.1
		c-0.7,0-1-0.3-1-1v-2.5h-0.6V9.8h0.6V8.5H145.9z"/>
	<path class="st1" d="M149.4,10.8c0,0-0.1,0-0.2,0c-0.5,0-0.9,0.5-0.9,0.7V14h-1V9.8h0.9v0.7l0,0c0.2-0.5,0.6-0.8,1.2-0.8V10.8z"/>
	<path class="st1" d="M153.2,11.6V12h-2.5c0,0.8,0.3,1.2,0.9,1.2c0.4,0,0.6-0.1,0.9-0.5l0.7,0.4c-0.4,0.6-0.9,0.8-1.7,0.8
		c-1.1,0-1.8-0.8-1.8-2.2s0.7-2.2,1.8-2.2C152.7,9.8,153.2,10.8,153.2,11.6z M152.3,11.4c0-0.6-0.3-0.9-0.8-0.9s-0.8,0.3-0.8,0.9
		H152.3z"/>
	<path class="st1" d="M157,11.4v2c0,0.1,0,0.4,0.1,0.6h-1l-0.1-0.4c-0.4,0.3-0.8,0.4-1.3,0.4c-0.7,0-1.1-0.5-1.1-1.1
		c0-0.9,0.8-1.4,2.4-1.6V11c0-0.3-0.3-0.5-0.6-0.5s-0.6,0.2-0.9,0.5l-0.6-0.5c0.3-0.4,0.9-0.8,1.5-0.8C156.6,9.8,157,10.2,157,11.4z
		 M155.1,13.3c0.3,0,0.6-0.2,0.9-0.4V12c-1.1,0.2-1.4,0.5-1.4,0.8C154.7,13.2,154.9,13.3,155.1,13.3z"/>
	<path class="st1" d="M159.2,8.5v1.4h0.8v0.8h-0.8V13c0,0.2,0.1,0.3,0.4,0.3c0.2,0,0.3,0,0.5-0.1V14c-0.3,0-0.5,0.1-0.8,0.1
		c-0.7,0-1-0.3-1-1v-2.5h-0.6V9.8h0.6V8.5H159.2z"/>
	<path class="st1" d="M163.9,10.4c0.4-0.4,0.9-0.6,1.4-0.6c0.6,0,1,0.5,1,1.2v3h-1v-2.9c0-0.3-0.2-0.5-0.5-0.5
		c-0.2,0-0.5,0.2-0.8,0.4v3h-1v-2.9c0-0.3-0.2-0.5-0.5-0.5c-0.2,0-0.5,0.2-0.8,0.4v3h-1V9.8h0.9v0.4c0.4-0.4,0.7-0.5,1.2-0.5
		C163.3,9.8,163.7,10,163.9,10.4z"/>
	<path class="st1" d="M170.5,11.6V12H168c0,0.8,0.3,1.2,0.9,1.2c0.4,0,0.6-0.1,0.9-0.5l0.7,0.4c-0.4,0.6-0.9,0.8-1.7,0.8
		c-1.1,0-1.8-0.8-1.8-2.2s0.7-2.2,1.8-2.2C170,9.8,170.5,10.8,170.5,11.6z M169.6,11.4c0-0.6-0.3-0.9-0.8-0.9s-0.8,0.3-0.8,0.9
		H169.6z"/>
	<path class="st1" d="M174.8,11.1V14h-1v-2.7c0-0.5-0.1-0.7-0.5-0.7c-0.3,0-0.7,0.2-0.9,0.4v3h-1V9.8h0.9v0.4
		c0.5-0.4,0.9-0.5,1.3-0.5C174.4,9.8,174.8,10.3,174.8,11.1z"/>
	<path class="st1" d="M177,8.5v1.4h0.8v0.8H177V13c0,0.2,0.1,0.3,0.4,0.3c0.2,0,0.3,0,0.5-0.1V14c-0.3,0-0.5,0.1-0.8,0.1
		c-0.7,0-1-0.3-1-1v-2.5h-0.6V9.8h0.6V8.5H177z"/>
	<path class="st1" d="M184.2,11.9c0,1.3-0.7,2.2-1.8,2.2s-1.8-0.8-1.8-2.2c0-1.3,0.7-2.2,1.8-2.2S184.2,10.6,184.2,11.9z
		 M182.4,13.3c0.5,0,0.8-0.4,0.8-1.4c0-0.9-0.3-1.4-0.8-1.4c-0.6,0-0.8,0.5-0.8,1.4C181.6,12.9,181.9,13.3,182.4,13.3z"/>
	<path class="st1" d="M186.9,8.1v0.8h-0.2c-0.5,0-0.6,0.2-0.6,0.5v0.4h0.8v0.8h-0.8V14h-1v-3.4h-0.6V9.8h0.6V9.3
		c0-0.8,0.3-1.2,1.1-1.2H186.9z"/>
	<path class="st1" d="M193,11.4v2c0,0.1,0,0.4,0.1,0.6h-1l-0.1-0.4c-0.4,0.3-0.8,0.4-1.3,0.4c-0.7,0-1.1-0.5-1.1-1.1
		c0-0.9,0.8-1.4,2.4-1.6V11c0-0.3-0.3-0.5-0.6-0.5s-0.6,0.2-0.9,0.5l-0.6-0.5c0.3-0.4,0.9-0.8,1.5-0.8C192.6,9.8,193,10.2,193,11.4z
		 M191.1,13.3c0.3,0,0.6-0.2,0.9-0.4V12c-1.1,0.2-1.4,0.5-1.4,0.8C190.6,13.2,190.8,13.3,191.1,13.3z"/>
	<path class="st1" d="M197.4,8.2V14h-0.8v-0.4c-0.4,0.3-0.7,0.5-1.1,0.5c-1.1,0-1.7-0.9-1.7-2.3c0-1.1,0.6-2.1,1.7-2.1
		c0.4,0,0.8,0.2,1,0.5l0,0v-2C196.5,8.2,197.4,8.2,197.4,8.2z M195.7,13.3c0.4,0,0.6-0.2,0.8-0.4v-2c-0.2-0.2-0.4-0.4-0.8-0.4
		c-0.6,0-0.9,0.5-0.9,1.4S195.1,13.3,195.7,13.3z"/>
	<path class="st1" d="M199.5,9.8v2.7c0,0.5,0.1,0.7,0.5,0.7c0.3,0,0.7-0.2,0.9-0.4v-3h1V14H201v-0.4c-0.5,0.4-0.9,0.5-1.3,0.5
		c-0.8,0-1.2-0.5-1.2-1.4V9.8H199.5z"/>
	<path class="st1" d="M204,8.2V14h-1V8.2H204z"/>
	<path class="st1" d="M206.3,8.5v1.4h0.8v0.8h-0.8V13c0,0.2,0.1,0.3,0.4,0.3c0.2,0,0.3,0,0.5-0.1V14c-0.3,0-0.5,0.1-0.8,0.1
		c-0.7,0-1-0.3-1-1v-2.5h-0.6V9.8h0.6V8.5H206.3z"/>
</g>
<g class="st0">
	<path class="st1" d="M12.2,20c0,1.1-0.7,2.1-1.7,2.1c-0.3,0-0.8-0.2-1-0.5l0,0v1.9h-1v-5.7h1v0.4c0.3-0.3,0.6-0.5,1.1-0.5
		C11.6,17.8,12.2,18.7,12.2,20z M9.5,20.9c0.2,0.2,0.5,0.4,0.8,0.4c0.6,0,0.9-0.5,0.9-1.4s-0.3-1.4-0.9-1.4c-0.4,0-0.7,0.3-0.8,0.4
		V20.9z"/>
	<path class="st1" d="M16,19.4v2c0,0.1,0,0.4,0.1,0.6h-1L15,21.6c-0.4,0.3-0.8,0.4-1.3,0.4c-0.7,0-1.1-0.5-1.1-1.1
		c0-0.9,0.8-1.4,2.4-1.6V19c0-0.3-0.3-0.5-0.6-0.5s-0.6,0.2-0.9,0.5l-0.6-0.5c0.3-0.4,0.9-0.8,1.5-0.8C15.5,17.8,16,18.2,16,19.4z
		 M14.1,21.3c0.3,0,0.6-0.2,0.9-0.4V20c-1.1,0.2-1.4,0.5-1.4,0.8C13.6,21.2,13.8,21.3,14.1,21.3z"/>
	<path class="st1" d="M18.1,16.5v1.4h0.8v0.8h-0.8V21c0,0.2,0.1,0.3,0.4,0.3c0.2,0,0.3,0,0.5-0.1V22c-0.3,0-0.5,0.1-0.8,0.1
		c-0.7,0-1-0.3-1-1v-2.5h-0.6v-0.8h0.6v-1.4L18.1,16.5L18.1,16.5z"/>
	<path class="st1" d="M20.7,16.1V17h-1v-0.9H20.7z M20.7,17.8V22h-1v-4.2H20.7z"/>
	<path class="st1" d="M25,19.6V20h-2.5c0,0.8,0.3,1.2,0.9,1.2c0.4,0,0.6-0.1,0.9-0.5l0.7,0.4c-0.4,0.6-0.9,0.8-1.7,0.8
		c-1.1,0-1.8-0.8-1.8-2.2s0.7-2.2,1.8-2.2C24.5,17.8,25,18.8,25,19.6z M24.1,19.4c0-0.6-0.3-0.9-0.8-0.9s-0.8,0.3-0.8,0.9H24.1z"/>
	<path class="st1" d="M29.3,19.1V22h-1v-2.7c0-0.5-0.1-0.7-0.5-0.7c-0.3,0-0.7,0.2-0.9,0.4v3h-1v-4.2h0.9v0.4
		c0.5-0.4,0.9-0.5,1.3-0.5C28.8,17.8,29.3,18.3,29.3,19.1z"/>
	<path class="st1" d="M31.4,16.5v1.4h0.8v0.8h-0.8V21c0,0.2,0.1,0.3,0.4,0.3c0.2,0,0.3,0,0.5-0.1V22c-0.3,0-0.5,0.1-0.8,0.1
		c-0.7,0-1-0.3-1-1v-2.5h-0.6v-0.8h0.6v-1.4L31.4,16.5L31.4,16.5z"/>
	<path class="st1" d="M35.6,18.4L35,18.9c-0.3-0.3-0.5-0.4-0.8-0.4c-0.4,0-0.6,0.2-0.6,0.4c0,0.2,0.2,0.4,0.7,0.6
		c1,0.3,1.3,0.7,1.3,1.4c0,0.8-0.6,1.2-1.5,1.2c-0.7,0-1.2-0.3-1.6-0.8l0.7-0.5c0.3,0.4,0.6,0.6,1,0.6s0.6-0.2,0.6-0.5
		c0-0.2-0.2-0.4-0.8-0.6c-1-0.3-1.3-0.7-1.3-1.3c0-0.7,0.6-1.2,1.4-1.2C34.7,17.8,35.2,18,35.6,18.4z"/>
	<path class="st1" d="M39.5,17.8l0.6,2.6l0,0l0.6-2.6h0.9l0.6,2.6l0,0l0.6-2.6h0.9L42.6,22h-0.9l-0.6-2.6l0,0L40.5,22h-0.9l-1.1-4.2
		H39.5z"/>
	<path class="st1" d="M45.4,16.1V17h-1v-0.9H45.4z M45.4,17.8V22h-1v-4.2H45.4z"/>
	<path class="st1" d="M47.7,16.5v1.4h0.8v0.8h-0.8V21c0,0.2,0.1,0.3,0.4,0.3c0.2,0,0.3,0,0.5-0.1V22c-0.3,0-0.5,0.1-0.8,0.1
		c-0.7,0-1-0.3-1-1v-2.5h-0.6v-0.8h0.6v-1.4L47.7,16.5L47.7,16.5z"/>
	<path class="st1" d="M50.2,16.2v2.1c0.4-0.4,0.8-0.5,1.2-0.5c0.8,0,1.2,0.5,1.2,1.4V22h-1v-2.7c0-0.5-0.1-0.7-0.5-0.7
		c-0.3,0-0.7,0.2-0.9,0.4v3h-1v-5.8C49.2,16.2,50.2,16.2,50.2,16.2z"/>
	<path class="st1" d="M58.7,18.4l-0.6,0.5c-0.3-0.3-0.5-0.4-0.8-0.4c-0.4,0-0.6,0.2-0.6,0.4c0,0.2,0.2,0.4,0.7,0.6
		c1,0.3,1.3,0.7,1.3,1.4c0,0.8-0.6,1.2-1.5,1.2c-0.7,0-1.2-0.3-1.6-0.8l0.7-0.5c0.3,0.4,0.6,0.6,1,0.6s0.6-0.2,0.6-0.5
		c0-0.2-0.2-0.4-0.8-0.6c-1-0.3-1.3-0.7-1.3-1.3c0-0.7,0.6-1.2,1.4-1.2C57.8,17.8,58.4,18,58.7,18.4z"/>
	<path class="st1" d="M60.2,17.8l0.7,2.6l0,0l0.7-2.6h1L61.3,22c-0.1,0.2-0.2,0.5-0.4,0.8c-0.3,0.5-0.7,0.7-1.2,0.7
		c-0.2,0-0.3,0-0.5,0v-0.8c0.1,0,0.3,0,0.5,0s0.4,0,0.5-0.2c0.1-0.1,0.3-0.4,0.3-0.6c0-0.1,0-0.1,0-0.2l-1.2-3.9H60.2z"/>
	<path class="st1" d="M66.3,18.4c0.4-0.4,0.9-0.6,1.4-0.6c0.6,0,1,0.5,1,1.2v3h-1v-2.9c0-0.3-0.2-0.5-0.5-0.5
		c-0.2,0-0.5,0.2-0.8,0.4v3h-1v-2.9c0-0.3-0.2-0.5-0.5-0.5c-0.2,0-0.5,0.2-0.8,0.4v3h-1v-4.2H64v0.4c0.4-0.4,0.7-0.5,1.2-0.5
		C65.8,17.8,66.2,18,66.3,18.4z"/>
	<path class="st1" d="M73.5,20c0,1.1-0.7,2.1-1.7,2.1c-0.3,0-0.8-0.2-1-0.5l0,0v1.9h-1v-5.7h1v0.4c0.3-0.3,0.6-0.5,1.1-0.5
		C72.9,17.8,73.5,18.7,73.5,20z M70.8,20.9c0.2,0.2,0.5,0.4,0.8,0.4c0.6,0,0.9-0.5,0.9-1.4s-0.3-1.4-0.9-1.4c-0.4,0-0.7,0.3-0.8,0.4
		V20.9z"/>
	<path class="st1" d="M75.4,16.5v1.4h0.8v0.8h-0.8V21c0,0.2,0.1,0.3,0.4,0.3c0.2,0,0.3,0,0.5-0.1V22c-0.3,0-0.5,0.1-0.8,0.1
		c-0.7,0-1-0.3-1-1v-2.5h-0.6v-0.8h0.6v-1.4L75.4,16.5L75.4,16.5z"/>
	<path class="st1" d="M80.2,19.9c0,1.3-0.7,2.2-1.8,2.2c-1.1,0-1.8-0.8-1.8-2.2c0-1.3,0.7-2.2,1.8-2.2S80.2,18.6,80.2,19.9z
		 M78.4,21.3c0.5,0,0.8-0.4,0.8-1.4c0-0.9-0.3-1.4-0.8-1.4c-0.6,0-0.8,0.5-0.8,1.4C77.6,20.9,77.9,21.3,78.4,21.3z"/>
	<path class="st1" d="M84.1,18.4c0.4-0.4,0.9-0.6,1.4-0.6c0.6,0,1,0.5,1,1.2v3h-1v-2.9c0-0.3-0.2-0.5-0.5-0.5
		c-0.2,0-0.5,0.2-0.8,0.4v3h-1v-2.9c0-0.3-0.2-0.5-0.5-0.5c-0.2,0-0.5,0.2-0.8,0.4v3h-1v-4.2h0.9v0.4c0.4-0.4,0.7-0.5,1.2-0.5
		C83.5,17.8,83.9,18,84.1,18.4z"/>
	<path class="st1" d="M90.6,19.4v2c0,0.1,0,0.4,0.1,0.6h-1l-0.1-0.4c-0.4,0.3-0.8,0.4-1.3,0.4c-0.7,0-1.1-0.5-1.1-1.1
		c0-0.9,0.8-1.4,2.4-1.6V19c0-0.3-0.3-0.5-0.6-0.5c-0.3,0-0.6,0.2-0.9,0.5l-0.6-0.5c0.3-0.4,0.9-0.8,1.5-0.8
		C90.2,17.8,90.6,18.2,90.6,19.4z M88.7,21.3c0.3,0,0.6-0.2,0.9-0.4V20c-1.1,0.2-1.4,0.5-1.4,0.8C88.2,21.2,88.4,21.3,88.7,21.3z"/>
	<path class="st1" d="M92.8,16.5v1.4h0.8v0.8h-0.8V21c0,0.2,0.1,0.3,0.4,0.3c0.2,0,0.3,0,0.5-0.1V22c-0.3,0-0.5,0.1-0.8,0.1
		c-0.7,0-1-0.3-1-1v-2.5h-0.6v-0.8h0.6v-1.4L92.8,16.5L92.8,16.5z"/>
	<path class="st1" d="M95.4,16.1V17h-1v-0.9H95.4z M95.4,17.8V22h-1v-4.2H95.4z"/>
	<path class="st1" d="M99.6,18.9l-0.8,0.3c-0.2-0.5-0.4-0.6-0.8-0.6c-0.6,0-0.8,0.4-0.8,1.4c0,0.9,0.3,1.4,0.8,1.4
		c0.4,0,0.6-0.2,0.9-0.7l0.8,0.4c-0.4,0.7-0.9,1-1.6,1c-1.2,0-1.8-0.8-1.8-2.2c0-1.3,0.7-2.2,1.8-2.2C98.7,17.8,99.4,18.2,99.6,18.9
		z"/>
	<path class="st1" d="M105.9,19.4v2c0,0.1,0,0.4,0.1,0.6h-1l-0.1-0.4c-0.4,0.3-0.8,0.4-1.3,0.4c-0.7,0-1.1-0.5-1.1-1.1
		c0-0.9,0.8-1.4,2.4-1.6V19c0-0.3-0.3-0.5-0.6-0.5c-0.3,0-0.6,0.2-0.9,0.5l-0.6-0.5c0.3-0.4,0.9-0.8,1.5-0.8
		C105.5,17.8,105.9,18.2,105.9,19.4z M104,21.3c0.3,0,0.6-0.2,0.9-0.4V20c-1.1,0.2-1.4,0.5-1.4,0.8C103.6,21.2,103.8,21.3,104,21.3z
		"/>
	<path class="st1" d="M110.4,19.1V22h-1v-2.7c0-0.5-0.1-0.7-0.5-0.7c-0.3,0-0.7,0.2-0.9,0.4v3h-1v-4.2h0.9v0.4
		c0.5-0.4,0.9-0.5,1.3-0.5C109.9,17.8,110.4,18.3,110.4,19.1z"/>
	<path class="st1" d="M114.4,19.4v2c0,0.1,0,0.4,0.1,0.6h-1l-0.1-0.4c-0.4,0.3-0.8,0.4-1.3,0.4c-0.7,0-1.1-0.5-1.1-1.1
		c0-0.9,0.8-1.4,2.4-1.6V19c0-0.3-0.3-0.5-0.6-0.5c-0.3,0-0.6,0.2-0.9,0.5l-0.6-0.5c0.3-0.4,0.9-0.8,1.5-0.8
		C113.9,17.8,114.4,18.2,114.4,19.4z M112.5,21.3c0.3,0,0.6-0.2,0.9-0.4V20c-1.1,0.2-1.4,0.5-1.4,0.8
		C112,21.2,112.2,21.3,112.5,21.3z"/>
	<path class="st1" d="M118.6,19.6V20h-2.5c0,0.8,0.3,1.2,0.9,1.2c0.4,0,0.6-0.1,0.9-0.5l0.7,0.4c-0.4,0.6-0.9,0.8-1.7,0.8
		c-1.1,0-1.8-0.8-1.8-2.2s0.7-2.2,1.8-2.2C118,17.8,118.6,18.8,118.6,19.6z M117.7,19.4c0-0.6-0.3-0.9-0.8-0.9s-0.8,0.3-0.8,0.9
		H117.7z"/>
	<path class="st1" d="M122.6,18.4c0.4-0.4,0.9-0.6,1.4-0.6c0.6,0,1,0.5,1,1.2v3h-1v-2.9c0-0.3-0.2-0.5-0.5-0.5
		c-0.2,0-0.5,0.2-0.8,0.4v3h-1v-2.9c0-0.3-0.2-0.5-0.5-0.5c-0.2,0-0.5,0.2-0.8,0.4v3h-1v-4.2h0.9v0.4c0.4-0.4,0.7-0.5,1.2-0.5
		C122,17.8,122.4,18,122.6,18.4z"/>
	<path class="st1" d="M127.1,16.1V17h-1v-0.9H127.1z M127.1,17.8V22h-1v-4.2H127.1z"/>
	<path class="st1" d="M131.3,19.4v2c0,0.1,0,0.4,0.1,0.6h-1l-0.1-0.4c-0.4,0.3-0.8,0.4-1.3,0.4c-0.7,0-1.1-0.5-1.1-1.1
		c0-0.9,0.8-1.4,2.4-1.6V19c0-0.3-0.3-0.5-0.6-0.5s-0.6,0.2-0.9,0.5l-0.6-0.5c0.3-0.4,0.9-0.8,1.5-0.8
		C130.8,17.8,131.3,18.2,131.3,19.4z M129.4,21.3c0.3,0,0.6-0.2,0.9-0.4V20c-1.1,0.2-1.4,0.5-1.4,0.8
		C128.9,21.2,129.1,21.3,129.4,21.3z"/>
	<path class="st1" d="M137.7,19.4v2c0,0.1,0,0.4,0.1,0.6h-1l-0.1-0.4c-0.4,0.3-0.8,0.4-1.3,0.4c-0.7,0-1.1-0.5-1.1-1.1
		c0-0.9,0.8-1.4,2.4-1.6V19c0-0.3-0.3-0.5-0.6-0.5s-0.6,0.2-0.9,0.5l-0.6-0.5c0.3-0.4,0.9-0.8,1.5-0.8
		C137.3,17.8,137.7,18.2,137.7,19.4z M135.8,21.3c0.3,0,0.6-0.2,0.9-0.4V20c-1.1,0.2-1.4,0.5-1.4,0.8
		C135.3,21.2,135.5,21.3,135.8,21.3z"/>
	<path class="st1" d="M141.4,18.4l-0.6,0.5c-0.3-0.3-0.5-0.4-0.8-0.4c-0.4,0-0.6,0.2-0.6,0.4c0,0.2,0.2,0.4,0.7,0.6
		c1,0.3,1.3,0.7,1.3,1.4c0,0.8-0.6,1.2-1.5,1.2c-0.7,0-1.2-0.3-1.6-0.8l0.7-0.5c0.3,0.4,0.6,0.6,1,0.6s0.6-0.2,0.6-0.5
		c0-0.2-0.2-0.4-0.8-0.6c-1-0.3-1.3-0.7-1.3-1.3c0-0.7,0.6-1.2,1.4-1.2C140.5,17.8,141,18,141.4,18.4z"/>
	<path class="st1" d="M144.9,18.4l-0.6,0.5c-0.3-0.3-0.5-0.4-0.8-0.4c-0.4,0-0.6,0.2-0.6,0.4c0,0.2,0.2,0.4,0.7,0.6
		c1,0.3,1.3,0.7,1.3,1.4c0,0.8-0.6,1.2-1.5,1.2c-0.7,0-1.2-0.3-1.6-0.8l0.7-0.5c0.3,0.4,0.6,0.6,1,0.6s0.6-0.2,0.6-0.5
		c0-0.2-0.2-0.4-0.8-0.6c-1-0.3-1.3-0.7-1.3-1.3c0-0.7,0.6-1.2,1.4-1.2C144,17.8,144.5,18,144.9,18.4z"/>
	<path class="st1" d="M149.1,19.9c0,1.3-0.7,2.2-1.8,2.2s-1.8-0.8-1.8-2.2c0-1.3,0.7-2.2,1.8-2.2S149.1,18.6,149.1,19.9z
		 M147.3,21.3c0.5,0,0.8-0.4,0.8-1.4c0-0.9-0.3-1.4-0.8-1.4c-0.6,0-0.8,0.5-0.8,1.4C146.5,20.9,146.8,21.3,147.3,21.3z"/>
	<path class="st1" d="M152.9,18.9l-0.8,0.3c-0.2-0.5-0.4-0.6-0.8-0.6c-0.6,0-0.8,0.4-0.8,1.4c0,0.9,0.3,1.4,0.8,1.4
		c0.4,0,0.6-0.2,0.9-0.7L153,21c-0.4,0.7-0.9,1-1.6,1c-1.2,0-1.8-0.8-1.8-2.2c0-1.3,0.7-2.2,1.8-2.2
		C152.1,17.8,152.7,18.2,152.9,18.9z"/>
	<path class="st1" d="M154.9,16.1V17h-1v-0.9H154.9z M154.9,17.8V22h-1v-4.2H154.9z"/>
	<path class="st1" d="M159,19.4v2c0,0.1,0,0.4,0.1,0.6h-1l-0.1-0.4c-0.4,0.3-0.8,0.4-1.3,0.4c-0.7,0-1.1-0.5-1.1-1.1
		c0-0.9,0.8-1.4,2.4-1.6V19c0-0.3-0.3-0.5-0.6-0.5s-0.6,0.2-0.9,0.5l-0.6-0.5c0.3-0.4,0.9-0.8,1.5-0.8C158.6,17.8,159,18.2,159,19.4
		z M157.1,21.3c0.3,0,0.6-0.2,0.9-0.4V20c-1.1,0.2-1.4,0.5-1.4,0.8C156.7,21.2,156.9,21.3,157.1,21.3z"/>
	<path class="st1" d="M161.2,16.5v1.4h0.8v0.8h-0.8V21c0,0.2,0.1,0.3,0.4,0.3c0.2,0,0.3,0,0.5-0.1V22c-0.3,0-0.5,0.1-0.8,0.1
		c-0.7,0-1-0.3-1-1v-2.5h-0.6v-0.8h0.6v-1.4L161.2,16.5L161.2,16.5z"/>
	<path class="st1" d="M165.9,19.6V20h-2.5c0,0.8,0.3,1.2,0.9,1.2c0.4,0,0.6-0.1,0.9-0.5l0.7,0.4c-0.4,0.6-0.9,0.8-1.7,0.8
		c-1.1,0-1.8-0.8-1.8-2.2s0.7-2.2,1.8-2.2C165.4,17.8,165.9,18.8,165.9,19.6z M165,19.4c0-0.6-0.3-0.9-0.8-0.9s-0.8,0.3-0.8,0.9H165
		z"/>
	<path class="st1" d="M170.1,16.2V22h-0.8v-0.4c-0.4,0.3-0.7,0.5-1.1,0.5c-1.1,0-1.7-0.9-1.7-2.3c0-1.1,0.6-2.1,1.7-2.1
		c0.4,0,0.8,0.2,1,0.5l0,0v-2H170.1z M168.4,21.3c0.4,0,0.6-0.2,0.8-0.4v-2c-0.2-0.2-0.4-0.4-0.8-0.4c-0.6,0-0.9,0.5-0.9,1.4
		S167.8,21.3,168.4,21.3z"/>
	<path class="st1" d="M174.1,17.8l0.6,2.6l0,0l0.6-2.6h0.9l0.6,2.6l0,0l0.6-2.6h0.9l-1.1,4.2h-0.9l-0.6-2.6l0,0l-0.6,2.6h-0.9
		l-1.1-4.2H174.1z"/>
	<path class="st1" d="M180,16.1V17h-1v-0.9H180z M180,17.8V22h-1v-4.2H180z"/>
	<path class="st1" d="M182.3,16.5v1.4h0.8v0.8h-0.8V21c0,0.2,0.1,0.3,0.4,0.3c0.2,0,0.3,0,0.5-0.1V22c-0.3,0-0.5,0.1-0.8,0.1
		c-0.7,0-1-0.3-1-1v-2.5h-0.6v-0.8h0.6v-1.4L182.3,16.5L182.3,16.5z"/>
	<path class="st1" d="M184.8,16.2v2.1c0.4-0.4,0.8-0.5,1.2-0.5c0.8,0,1.2,0.5,1.2,1.4V22h-1v-2.7c0-0.5-0.1-0.7-0.5-0.7
		c-0.3,0-0.7,0.2-0.9,0.4v3h-1v-5.8C183.8,16.2,184.8,16.2,184.8,16.2z"/>
	<path class="st1" d="M194.8,17.7l-1,0.2c-0.2-0.5-0.5-0.8-1-0.8c-0.7,0-1.2,0.7-1.2,2.1s0.4,2,1.2,2c0.6,0,0.8-0.3,1.1-0.9l1,0.3
		c-0.3,1-1.1,1.5-2.2,1.5c-1.5,0-2.3-1.1-2.3-3s0.8-3,2.3-3C193.8,16.1,194.5,16.6,194.8,17.7z"/>
	<path class="st1" d="M196.8,16.2v2.6l1.9-2.6h1.3l-1.6,2.2l1.9,3.6H199l-1.4-2.7l-0.8,1V22h-1.1v-5.8H196.8z"/>
	<path class="st1" d="M203,16.2c1.6,0,2.6,1,2.6,2.9S204.7,22,203,22h-2v-5.8H203z M202.9,21.1c1,0,1.5-0.6,1.5-2s-0.6-2-1.5-2h-0.8
		V21h0.8V21.1z"/>
</g>
<g class="st0">
	<path class="st1" d="M207.6,15.9v3h0.5v0.5h-1.6v-0.5h0.5v-2.3h-0.6v-0.4c0.3,0,0.6-0.1,0.7-0.2h0.5V15.9z"/>
</g>
<g class="st0">
	<path class="st1" d="M12.5,61.8L11.9,62c-0.2-0.8-0.6-1.3-1.4-1.3c-1.1,0-1.5,1.2-1.5,2.4c0,1.6,0.6,2.4,1.6,2.4
		c0.7,0,1.2-0.4,1.4-1.4l0.6,0.1c-0.3,1.2-1,1.8-2,1.8c-1.6,0-2.2-1.4-2.2-3s0.6-3,2.2-3C11.6,60.1,12.2,60.7,12.5,61.8z"/>
	<path class="st1" d="M14.5,60.2v3l2.4-3h0.8l-1.8,2.2l2,3.6h-0.7l-1.7-3.1L14.6,64v2H14v-5.8H14.5z"/>
	<path class="st1" d="M20.6,60.2c1.7,0,2.6,1.2,2.6,2.9S22.3,66,20.6,66H19v-5.8H20.6z M20.6,65.5c1.4,0,2-0.9,2-2.3
		c0-1.6-0.7-2.3-2-2.3h-0.9v4.7L20.6,65.5L20.6,65.5z"/>
	<path class="st1" d="M25.2,65.1V66l-0.5,1.2h-0.3l0.4-1.2h-0.3v-0.9H25.2z"/>
	<path class="st1" d="M32,62.9l-0.5,0.2c-0.2-0.5-0.5-0.8-1-0.8c-0.9,0-1.1,0.8-1.1,1.7c0,1.1,0.4,1.7,1.1,1.7
		c0.6,0,0.8-0.2,1.1-0.8l0.5,0.2c-0.4,0.7-0.8,1.1-1.6,1.1c-1.2,0-1.7-1-1.7-2.2s0.5-2.2,1.7-2.2C31.2,61.8,31.7,62.1,32,62.9z"/>
	<path class="st1" d="M33.7,60.2v2.2l0,0c0.4-0.4,0.8-0.6,1.2-0.6c0.8,0,1.2,0.5,1.2,1.2v3h-0.6v-3c0-0.4-0.2-0.7-0.7-0.7
		c-0.4,0-0.9,0.3-1.2,0.6V66H33v-5.8H33.7z"/>
	<path class="st1" d="M39.4,62.4c-0.8,0-1.1,0.5-1.4,1.3V66h-0.6v-4.2H38v0.8l0,0c0.3-0.6,0.7-0.9,1.3-0.9l0,0v0.7H39.4z"/>
	<path class="st1" d="M43.3,63.9c0,1.1-0.5,2.2-1.7,2.2s-1.7-1-1.7-2.2c0-1.1,0.5-2.2,1.7-2.2S43.3,62.8,43.3,63.9z M41.6,65.6
		c0.8,0,1.1-0.8,1.1-1.7s-0.3-1.7-1.1-1.7s-1.1,0.9-1.1,1.7C40.4,64.7,40.7,65.6,41.6,65.6z"/>
	<path class="st1" d="M47.3,62.9V66h-0.6v-3c0-0.4-0.2-0.7-0.7-0.7c-0.4,0-0.9,0.3-1.2,0.6V66h-0.6v-4.2h0.6v0.6l0,0
		c0.4-0.4,0.8-0.6,1.2-0.6C46.8,61.8,47.3,62.2,47.3,62.9z"/>
	<path class="st1" d="M49.4,60.1v0.7h-0.6v-0.7H49.4z M49.4,61.8V66h-0.6v-4.2H49.4z"/>
	<path class="st1" d="M53.8,62.9l-0.5,0.2c-0.2-0.5-0.5-0.8-1-0.8c-0.9,0-1.1,0.8-1.1,1.7c0,1.1,0.4,1.7,1.1,1.7
		c0.6,0,0.8-0.2,1.1-0.8l0.5,0.2c-0.4,0.7-0.8,1.1-1.6,1.1c-1.2,0-1.7-1-1.7-2.2s0.5-2.2,1.7-2.2C53,61.8,53.4,62.1,53.8,62.9z"/>
	<path class="st1" d="M57.9,60.2v3.7l0,0l1.7-2.1h0.7l-1.2,1.5l1.4,2.6h-0.7l-1.1-2.1l-0.8,0.9V66h-0.6v-5.8H57.9z"/>
	<path class="st1" d="M62.1,60.1v0.7h-0.6v-0.7H62.1z M62.1,61.8V66h-0.6v-4.2H62.1z"/>
	<path class="st1" d="M66.6,60.2v5.4c0,0.1,0,0.3,0,0.4h-0.5L66,65.6c-0.2,0.3-0.6,0.5-1.1,0.5c-0.9,0-1.7-0.7-1.7-2.2
		c0-1.5,0.9-2.2,1.7-2.2c0.4,0,0.8,0.2,1.1,0.5v-2C66,60.2,66.6,60.2,66.6,60.2z M65,65.6c0.4,0,0.7-0.2,1-0.6v-2.2
		c-0.3-0.3-0.7-0.6-1.1-0.6c-0.8,0-1.2,0.6-1.2,1.7C63.8,64.8,64.2,65.6,65,65.6z"/>
	<path class="st1" d="M71.1,62.9V66h-0.6v-3c0-0.4-0.2-0.7-0.7-0.7c-0.4,0-0.9,0.3-1.2,0.6V66H68v-4.2h0.6v0.6l0,0
		c0.4-0.4,0.8-0.6,1.2-0.6C70.6,61.8,71.1,62.2,71.1,62.9z"/>
	<path class="st1" d="M75.4,63.6V64h-2.7c0,1,0.6,1.6,1.2,1.6c0.5,0,0.9-0.3,1.1-0.7l0.4,0.2c-0.4,0.7-0.9,1-1.6,1
		c-1.1,0-1.8-0.8-1.8-2.2c0-1.5,0.8-2.2,1.7-2.2C74.7,61.8,75.4,62.4,75.4,63.6z M74.8,63.5c0-0.8-0.4-1.3-1-1.3s-1,0.4-1.1,1.3
		H74.8z"/>
	<path class="st1" d="M76.5,61.8l1.1,3.2l0,0l1-3.2h0.6l-1.5,4.5c-0.3,0.8-0.7,1.2-1.4,1.2c-0.2,0-0.3,0-0.4,0V67c0.1,0,0.2,0,0.3,0
		c0.6,0,0.9-0.4,1.1-1l-1.4-4.2H76.5z"/>
	<path class="st1" d="M85.5,60.2v5.4c0,0.1,0,0.3,0,0.4H85l-0.1-0.4c-0.2,0.3-0.6,0.5-1.1,0.5c-0.9,0-1.7-0.7-1.7-2.2
		c0-1.5,0.9-2.2,1.7-2.2c0.4,0,0.8,0.2,1.1,0.5v-2C84.9,60.2,85.5,60.2,85.5,60.2z M83.9,65.6c0.4,0,0.7-0.2,1-0.6v-2.2
		c-0.3-0.3-0.7-0.6-1.1-0.6c-0.8,0-1.2,0.6-1.2,1.7C82.7,64.8,83.1,65.6,83.9,65.6z"/>
	<path class="st1" d="M87.6,60.1v0.7H87v-0.7H87.6z M87.6,61.8V66H87v-4.2H87.6z"/>
	<path class="st1" d="M91.6,62.5l-0.4,0.4c-0.3-0.4-0.6-0.6-1.1-0.6s-0.8,0.2-0.8,0.6c0,0.3,0.3,0.5,0.9,0.7
		c0.8,0.2,1.5,0.5,1.5,1.3c0,0.8-0.7,1.2-1.5,1.2c-0.6,0-1.3-0.3-1.7-0.8L89,65c0.3,0.4,0.7,0.6,1.2,0.6s0.9-0.2,0.9-0.7
		c0-0.4-0.3-0.6-0.9-0.7c-0.9-0.3-1.5-0.5-1.5-1.2c0-0.8,0.6-1.2,1.3-1.2C90.6,61.8,91.3,62,91.6,62.5z"/>
	<path class="st1" d="M95.6,63.6V64h-2.7c0,1,0.6,1.6,1.2,1.6c0.5,0,0.9-0.3,1.1-0.7l0.4,0.2c-0.4,0.7-0.9,1-1.6,1
		c-1.1,0-1.8-0.8-1.8-2.2c0-1.5,0.8-2.2,1.7-2.2C94.9,61.8,95.6,62.4,95.6,63.6z M95,63.5c0-0.8-0.4-1.3-1-1.3s-1,0.4-1.1,1.3H95z"
		/>
	<path class="st1" d="M99.5,63v2.2c0,0.2,0,0.5,0.1,0.8H99l-0.1-0.6c-0.4,0.4-0.9,0.7-1.4,0.7c-0.7,0-1.2-0.5-1.2-1.2
		c0-1.2,1.4-1.5,2.5-1.7V63c0-0.6-0.4-0.8-0.9-0.8s-0.9,0.3-1.1,0.6l-0.5-0.3c0.3-0.6,0.9-0.9,1.6-0.9C98.8,61.8,99.5,62.2,99.5,63z
		 M97.6,65.6c0.4,0,1-0.3,1.3-0.7v-1.1c-0.7,0.1-2,0.4-2,1.2C96.9,65.3,97.3,65.6,97.6,65.6z"/>
	<path class="st1" d="M103.1,62.5l-0.4,0.4c-0.3-0.4-0.6-0.6-1.1-0.6s-0.8,0.2-0.8,0.6c0,0.3,0.3,0.5,0.9,0.7
		c0.8,0.2,1.5,0.5,1.5,1.3c0,0.8-0.7,1.2-1.5,1.2c-0.6,0-1.3-0.3-1.7-0.8l0.5-0.3c0.3,0.4,0.7,0.6,1.2,0.6s0.9-0.2,0.9-0.7
		c0-0.4-0.3-0.6-0.9-0.7c-0.9-0.3-1.5-0.5-1.5-1.2c0-0.8,0.6-1.2,1.3-1.2C102.2,61.8,102.8,62,103.1,62.5z"/>
	<path class="st1" d="M107.1,63.6V64h-2.7c0,1,0.6,1.6,1.2,1.6c0.5,0,0.9-0.3,1.1-0.7l0.4,0.2c-0.4,0.7-0.9,1-1.6,1
		c-1.1,0-1.8-0.8-1.8-2.2c0-1.5,0.8-2.2,1.7-2.2C106.5,61.8,107.1,62.4,107.1,63.6z M106.6,63.5c0-0.8-0.4-1.3-1-1.3s-1,0.4-1.1,1.3
		H106.6z"/>
</g>
<g class="st0">
	<path class="st1" d="M12.3,68.2v0.9H9.7v1.4h1.9v0.9H9.7V74H8.6v-5.8H12.3z"/>
	<path class="st1" d="M16.3,71.9c0,1.3-0.7,2.2-1.8,2.2s-1.8-0.8-1.8-2.2c0-1.3,0.7-2.2,1.8-2.2S16.3,70.6,16.3,71.9z M14.4,73.3
		c0.5,0,0.8-0.4,0.8-1.4c0-0.9-0.3-1.4-0.8-1.4c-0.6,0-0.8,0.5-0.8,1.4C13.6,72.9,13.9,73.3,14.4,73.3z"/>
	<path class="st1" d="M19,70.8c0,0-0.1,0-0.2,0c-0.5,0-0.9,0.5-0.9,0.7V74h-1v-4.2h0.9v0.7l0,0c0.2-0.5,0.6-0.8,1.2-0.8V70.8z"/>
	<path class="st1" d="M23.3,68.2v2.3h2.2v-2.3h1.1V74h-1.1v-2.5h-2.2V74h-1.1v-5.8H23.3z"/>
	<path class="st1" d="M31,71.6V72h-2.5c0,0.8,0.3,1.2,0.9,1.2c0.4,0,0.6-0.1,0.9-0.5l0.7,0.4c-0.4,0.6-0.9,0.8-1.7,0.8
		c-1.1,0-1.8-0.8-1.8-2.2s0.7-2.2,1.8-2.2C30.5,69.8,31,70.8,31,71.6z M30.1,71.4c0-0.6-0.3-0.9-0.8-0.9s-0.8,0.3-0.8,0.9H30.1z"/>
	<path class="st1" d="M34.8,71.4v2c0,0.1,0,0.4,0.1,0.6h-1l-0.1-0.4C33.4,73.9,33,74,32.5,74c-0.7,0-1.1-0.5-1.1-1.1
		c0-0.9,0.8-1.4,2.4-1.6V71c0-0.3-0.3-0.5-0.6-0.5s-0.6,0.2-0.9,0.5l-0.6-0.5c0.3-0.4,0.9-0.8,1.5-0.8
		C34.4,69.8,34.8,70.2,34.8,71.4z M32.9,73.3c0.3,0,0.6-0.2,0.9-0.4V72c-1.1,0.2-1.4,0.5-1.4,0.8C32.5,73.2,32.7,73.3,32.9,73.3z"/>
	<path class="st1" d="M36.9,68.2V74h-1v-5.8H36.9z"/>
	<path class="st1" d="M39.2,68.5v1.4H40v0.8h-0.8V73c0,0.2,0.1,0.3,0.4,0.3c0.2,0,0.3,0,0.5-0.1V74c-0.3,0-0.5,0.1-0.8,0.1
		c-0.7,0-1-0.3-1-1v-2.5h-0.6v-0.8h0.6v-1.4h0.9V68.5z"/>
	<path class="st1" d="M41.7,68.2v2.1c0.4-0.4,0.8-0.5,1.2-0.5c0.8,0,1.2,0.5,1.2,1.4V74h-1v-2.7c0-0.5-0.1-0.7-0.5-0.7
		c-0.3,0-0.7,0.2-0.9,0.4v3h-1v-5.8C40.7,68.2,41.7,68.2,41.7,68.2z"/>
	<path class="st1" d="M48.3,70.9l-0.8,0.3c-0.2-0.5-0.4-0.6-0.8-0.6c-0.6,0-0.8,0.4-0.8,1.4c0,0.9,0.3,1.4,0.8,1.4
		c0.4,0,0.6-0.2,0.9-0.7l0.8,0.4c-0.4,0.7-0.9,1-1.6,1c-1.2,0-1.8-0.8-1.8-2.2c0-1.3,0.7-2.2,1.8-2.2C47.4,69.8,48.1,70.2,48.3,70.9
		z"/>
	<path class="st1" d="M52.2,71.4v2c0,0.1,0,0.4,0.1,0.6h-1l-0.1-0.4c-0.4,0.3-0.8,0.4-1.3,0.4c-0.7,0-1.1-0.5-1.1-1.1
		c0-0.9,0.8-1.4,2.4-1.6V71c0-0.3-0.3-0.5-0.6-0.5S50,70.7,49.7,71L49,70.5c0.3-0.4,0.9-0.8,1.5-0.8C51.7,69.8,52.2,70.2,52.2,71.4z
		 M50.3,73.3c0.3,0,0.6-0.2,0.9-0.4V72c-1.1,0.2-1.4,0.5-1.4,0.8C49.8,73.2,50,73.3,50.3,73.3z"/>
	<path class="st1" d="M55.2,70.8c0,0-0.1,0-0.2,0c-0.5,0-0.9,0.5-0.9,0.7V74h-1v-4.2H54v0.7l0,0c0.2-0.5,0.6-0.8,1.2-0.8V70.8z"/>
	<path class="st1" d="M59,71.6V72h-2.5c0,0.8,0.3,1.2,0.9,1.2c0.4,0,0.6-0.1,0.9-0.5l0.7,0.4c-0.4,0.6-0.9,0.8-1.7,0.8
		c-1.1,0-1.8-0.8-1.8-2.2s0.7-2.2,1.8-2.2C58.5,69.8,59,70.8,59,71.6z M58.1,71.4c0-0.6-0.3-0.9-0.8-0.9s-0.8,0.3-0.8,0.9H58.1z"/>
	<path class="st1" d="M64.4,68.2c1.3,0,2,0.6,2,1.7s-0.7,1.7-2,1.7h-1V74h-1.1v-5.8H64.4z M64.3,70.8c0.7,0,1-0.2,1-0.8
		s-0.4-0.8-1-0.8h-0.9v1.6C63.4,70.8,64.3,70.8,64.3,70.8z"/>
	<path class="st1" d="M69.2,70.8c0,0-0.1,0-0.2,0c-0.5,0-0.9,0.5-0.9,0.7V74h-1v-4.2H68v0.7l0,0c0.2-0.5,0.6-0.8,1.2-0.8V70.8z"/>
	<path class="st1" d="M73.1,71.9c0,1.3-0.7,2.2-1.8,2.2c-1.1,0-1.8-0.8-1.8-2.2c0-1.3,0.7-2.2,1.8-2.2S73.1,70.6,73.1,71.9z
		 M71.3,73.3c0.5,0,0.8-0.4,0.8-1.4c0-0.9-0.3-1.4-0.8-1.4c-0.6,0-0.8,0.5-0.8,1.4C70.5,72.9,70.8,73.3,71.3,73.3z"/>
	<path class="st1" d="M75.8,68.1v0.8h-0.2c-0.5,0-0.6,0.2-0.6,0.5v0.4h0.8v0.8H75V74h-1v-3.4h-0.6v-0.8H74v-0.5
		c0-0.8,0.3-1.2,1.1-1.2H75.8z"/>
	<path class="st1" d="M79.7,71.6V72h-2.5c0,0.8,0.3,1.2,0.9,1.2c0.4,0,0.6-0.1,0.9-0.5l0.7,0.4c-0.4,0.6-0.9,0.8-1.7,0.8
		c-1.1,0-1.8-0.8-1.8-2.2s0.7-2.2,1.8-2.2C79.1,69.8,79.7,70.8,79.7,71.6z M78.8,71.4c0-0.6-0.3-0.9-0.8-0.9s-0.8,0.3-0.8,0.9H78.8z
		"/>
	<path class="st1" d="M83.1,70.4l-0.6,0.5c-0.3-0.3-0.5-0.4-0.8-0.4c-0.4,0-0.6,0.2-0.6,0.4c0,0.2,0.2,0.4,0.7,0.6
		c1,0.3,1.3,0.7,1.3,1.4c0,0.8-0.6,1.2-1.5,1.2c-0.7,0-1.2-0.3-1.6-0.8l0.7-0.5c0.3,0.4,0.6,0.6,1,0.6s0.6-0.2,0.6-0.5
		c0-0.2-0.2-0.4-0.8-0.6c-1-0.3-1.3-0.7-1.3-1.3c0-0.7,0.6-1.2,1.4-1.2C82.2,69.8,82.8,70,83.1,70.4z"/>
	<path class="st1" d="M86.7,70.4l-0.6,0.5c-0.3-0.3-0.5-0.4-0.8-0.4c-0.4,0-0.6,0.2-0.6,0.4c0,0.2,0.2,0.4,0.7,0.6
		c1,0.3,1.3,0.7,1.3,1.4c0,0.8-0.6,1.2-1.5,1.2c-0.7,0-1.2-0.3-1.6-0.8l0.7-0.5c0.3,0.4,0.6,0.6,1,0.6s0.6-0.2,0.6-0.5
		c0-0.2-0.2-0.4-0.8-0.6c-1-0.3-1.3-0.7-1.3-1.3c0-0.7,0.6-1.2,1.4-1.2C85.8,69.8,86.3,70,86.7,70.4z"/>
	<path class="st1" d="M88.7,68.1V69h-1v-0.9H88.7z M88.7,69.8V74h-1v-4.2H88.7z"/>
	<path class="st1" d="M93.1,71.9c0,1.3-0.7,2.2-1.8,2.2c-1.1,0-1.8-0.8-1.8-2.2c0-1.3,0.7-2.2,1.8-2.2S93.1,70.6,93.1,71.9z
		 M91.3,73.3c0.5,0,0.8-0.4,0.8-1.4c0-0.9-0.3-1.4-0.8-1.4c-0.6,0-0.8,0.5-0.8,1.4C90.5,72.9,90.8,73.3,91.3,73.3z"/>
	<path class="st1" d="M97.2,71.1V74h-1v-2.7c0-0.5-0.1-0.7-0.5-0.7c-0.3,0-0.7,0.2-0.9,0.4v3h-1v-4.2h0.9v0.4
		c0.5-0.4,0.9-0.5,1.3-0.5C96.8,69.8,97.2,70.3,97.2,71.1z"/>
	<path class="st1" d="M101.3,71.4v2c0,0.1,0,0.4,0.1,0.6h-1l-0.1-0.4C99.9,73.9,99.5,74,99,74c-0.7,0-1.1-0.5-1.1-1.1
		c0-0.9,0.8-1.4,2.4-1.6V71c0-0.3-0.3-0.5-0.6-0.5c-0.3,0-0.6,0.2-0.9,0.5l-0.6-0.5c0.3-0.4,0.9-0.8,1.5-0.8
		C100.8,69.8,101.3,70.2,101.3,71.4z M99.4,73.3c0.3,0,0.6-0.2,0.9-0.4V72c-1.1,0.2-1.4,0.5-1.4,0.8C98.9,73.2,99.1,73.3,99.4,73.3z
		"/>
	<path class="st1" d="M103.4,68.2V74h-1v-5.8H103.4z"/>
	<path class="st1" d="M107.1,70.4l-0.6,0.5c-0.3-0.3-0.5-0.4-0.8-0.4c-0.4,0-0.6,0.2-0.6,0.4c0,0.2,0.2,0.4,0.7,0.6
		c1,0.3,1.3,0.7,1.3,1.4c0,0.8-0.6,1.2-1.5,1.2c-0.7,0-1.2-0.3-1.6-0.8l0.7-0.5c0.3,0.4,0.6,0.6,1,0.6s0.6-0.2,0.6-0.5
		c0-0.2-0.2-0.4-0.8-0.6c-1-0.3-1.3-0.7-1.3-1.3c0-0.7,0.6-1.2,1.4-1.2C106.2,69.8,106.8,70,107.1,70.4z"/>
	<path class="st1" d="M115.1,71.1c0,1.9-0.9,3-2.4,3s-2.4-1.1-2.4-3s0.9-3,2.4-3S115.1,69.2,115.1,71.1z M112.6,73.2
		c0.9,0,1.3-0.7,1.3-2c0-1.4-0.4-2-1.3-2s-1.3,0.6-1.3,2.1C111.3,72.5,111.7,73.2,112.6,73.2z"/>
	<path class="st1" d="M119.2,71.1V74h-1v-2.7c0-0.5-0.1-0.7-0.5-0.7c-0.3,0-0.7,0.2-0.9,0.4v3h-1v-4.2h0.9v0.4
		c0.5-0.4,0.9-0.5,1.3-0.5C118.8,69.8,119.2,70.3,119.2,71.1z"/>
	<path class="st1" d="M121.4,68.2V74h-1v-5.8H121.4z"/>
	<path class="st1" d="M123.1,69.8l0.7,2.6l0,0l0.7-2.6h1l-1.3,4.2c-0.1,0.2-0.2,0.5-0.4,0.8c-0.3,0.5-0.7,0.7-1.2,0.7
		c-0.2,0-0.3,0-0.5,0v-0.8c0.1,0,0.3,0,0.5,0s0.4,0,0.5-0.2c0.1-0.1,0.3-0.4,0.3-0.6c0-0.1,0-0.1,0-0.2l-1.2-3.9H123.1z"/>
</g>
<g class="st0">
	<path class="st1" d="M11.1,27.1v5.1H12V33H9.2v-0.8h0.9v-4H9v-0.7c0.5,0,1-0.1,1.3-0.4H11.1z"/>
	<path class="st1" d="M14.7,31.9V33h-1.1v-1.1H14.7z"/>
</g>
<g class="st0">
	<path class="st1" d="M22.1,27.2v0.5h-2.8v1.9h2v0.5h-2v2.2h3V33h-3.6v-5.8H22.1z"/>
	<path class="st1" d="M23.4,27.2l1.4,4.7l0,0l1.4-4.7H27L25.2,33h-0.6l-1.8-5.8H23.4z"/>
	<path class="st1" d="M29.8,27.2c1.1,0,1.9,0.5,1.9,1.5c0,0.7-0.4,1.2-1.2,1.5l1.2,2.8H31l-1.2-2.6h-1.4V33h-0.6v-5.8H29.8z
		 M29.7,29.8c0.8,0,1.3-0.3,1.3-1.1c0-0.7-0.4-1-1.3-1h-1.2v2.1H29.7z"/>
	<path class="st1" d="M36.8,27.2v0.5H34v1.9h2v0.5h-2v2.2h3V33h-3.6v-5.8H36.8z"/>
	<path class="st1" d="M39.1,27.2l2.5,4.4l0,0v-4.4h0.6V33h-0.5l-2.9-5.1l0,0V33h-0.6v-5.8H39.1z"/>
	<path class="st1" d="M47.2,27.2v0.4l-2.9,4.8h3V33h-3.7v-0.5l2.9-4.8h-2.6v-0.5H47.2z"/>
	<path class="st1" d="M52.5,30.1c0,1.6-0.6,3-2.3,3s-2.3-1.4-2.3-3s0.6-3,2.3-3C51.9,27.1,52.5,28.5,52.5,30.1z M50.2,32.5
		c1,0,1.6-0.8,1.6-2.4s-0.6-2.4-1.6-2.4s-1.6,0.8-1.6,2.4C48.6,31.7,49.2,32.5,50.2,32.5z"/>
	<path class="st1" d="M59.5,28.6l-0.6,0.1c-0.2-0.6-0.7-1-1.3-1c-0.7,0-1.1,0.3-1.1,0.9c0,0.5,0.5,0.7,1.1,1
		c1.1,0.4,2.1,0.7,2.1,1.8c0,1.2-0.8,1.7-1.9,1.7c-1,0-1.6-0.5-2.1-1.5l0.6-0.2c0.3,0.8,0.8,1.2,1.5,1.2s1.3-0.3,1.3-1
		s-0.7-1-1.6-1.3c-1-0.4-1.7-0.7-1.7-1.6s0.8-1.5,1.7-1.5C58.5,27.1,59.2,27.7,59.5,28.6z"/>
	<path class="st1" d="M65.1,28.8c0.8,0,1.1,0.4,1.1,1.2v3h-0.6v-3c0-0.5-0.2-0.7-0.6-0.7c-0.5,0-0.8,0.3-1.2,0.6V33h-0.6v-3
		c0-0.5-0.2-0.7-0.6-0.7c-0.5,0-0.8,0.3-1.2,0.6V33h-0.6v-4.2h0.6v0.6c0.4-0.4,0.8-0.6,1.2-0.6c0.5,0,0.9,0.3,1.1,0.7
		C64.1,29,64.6,28.8,65.1,28.8z"/>
	<path class="st1" d="M69.7,27.2c1.1,0,1.8,0.5,1.8,1.6c0,1.2-1,1.6-2.1,1.6h-1V33h-0.6v-5.8H69.7z M69.4,29.9c1,0,1.4-0.3,1.4-1.1
		s-0.5-1.1-1.3-1.1h-1.2v2.1h1.1V29.9z"/>
	<path class="st1" d="M76.3,28.8L75.7,29c-0.2-0.8-0.6-1.3-1.4-1.3c-1.1,0-1.5,1.2-1.5,2.4c0,1.6,0.6,2.4,1.6,2.4
		c0.7,0,1.2-0.4,1.4-1.4l0.6,0.1c-0.3,1.2-1,1.8-2,1.8c-1.6,0-2.2-1.4-2.2-3s0.6-3,2.2-3C75.3,27.1,76,27.7,76.3,28.8z"/>
	<path class="st1" d="M78.3,32.1V33h-0.8v-0.9H78.3z"/>
</g>
<g class="st0">
	<path class="st1" d="M12.3,36.8c0,0.6-0.3,1.1-0.7,1.6c-0.4,0.4-1.6,1.3-2,1.7h2.7V41H8.4v-1c0.1-0.3,0.4-0.7,1.2-1.3
		c1.4-1.1,1.6-1.5,1.6-1.9c0-0.5-0.3-0.8-0.9-0.8c-0.5,0-0.9,0.3-1,0.9l-0.9-0.2c0.1-0.9,1-1.6,2-1.6C11.5,35.1,12.3,35.8,12.3,36.8
		z"/>
	<path class="st1" d="M14.7,39.9V41h-1.1v-1.1H14.7z"/>
</g>
<g class="st0">
	<path class="st1" d="M20.7,35.2c1,0,1.7,0.5,1.7,1.4c0,0.7-0.3,1.1-1,1.3l0,0c0.7,0.2,1.1,0.8,1.1,1.5c0,1-0.7,1.6-2.1,1.6h-1.8
		v-5.8H20.7z M20.4,37.7c0.7,0,1.4-0.3,1.4-1s-0.4-0.9-1.1-0.9h-1.4v1.9H20.4z M20.5,40.5c0.9,0,1.4-0.3,1.4-1
		c0-0.8-0.7-1.2-1.5-1.2h-1.1v2.2H20.5z"/>
	<path class="st1" d="M26.6,38v2.2c0,0.2,0,0.5,0.1,0.8h-0.6L26,40.4c-0.4,0.4-0.9,0.7-1.4,0.7c-0.7,0-1.2-0.5-1.2-1.2
		c0-1.2,1.4-1.5,2.5-1.7V38c0-0.6-0.4-0.8-0.9-0.8s-0.9,0.3-1.1,0.6l-0.5-0.3c0.3-0.6,0.9-0.9,1.6-0.9C25.9,36.8,26.6,37.2,26.6,38z
		 M24.7,40.6c0.4,0,1-0.3,1.3-0.7v-1.1c-0.7,0.1-2,0.4-2,1.2C24,40.3,24.4,40.6,24.7,40.6z"/>
	<path class="st1" d="M29.6,37.4c-0.8,0-1.1,0.5-1.4,1.3V41h-0.6v-4.2h0.6v0.8l0,0c0.3-0.6,0.7-0.9,1.3-0.9l0,0v0.7H29.6z"/>
	<path class="st1" d="M32.3,37.4c-0.8,0-1.1,0.5-1.4,1.3V41h-0.6v-4.2h0.6v0.8l0,0c0.3-0.6,0.7-0.9,1.3-0.9l0,0L32.3,37.4L32.3,37.4
		z"/>
	<path class="st1" d="M35.9,38v2.2c0,0.2,0,0.5,0.1,0.8h-0.6l-0.1-0.6c-0.4,0.4-0.9,0.7-1.4,0.7c-0.7,0-1.2-0.5-1.2-1.2
		c0-1.2,1.4-1.5,2.5-1.7V38c0-0.6-0.4-0.8-0.9-0.8s-0.9,0.3-1.1,0.6l-0.5-0.3c0.3-0.6,0.9-0.9,1.6-0.9C35.2,36.8,35.9,37.2,35.9,38z
		 M34,40.6c0.4,0,1-0.3,1.3-0.7v-1.1c-0.7,0.1-2,0.4-2,1.2C33.3,40.3,33.7,40.6,34,40.6z"/>
	<path class="st1" d="M37.8,35.5v1.4h1v0.5h-1v3c0,0.2,0.1,0.3,0.5,0.3c0.2,0,0.3,0,0.5,0V41c-0.1,0-0.3,0.1-0.7,0.1
		c-0.6,0-0.9-0.1-0.9-0.7v-3.1h-0.7v-0.5h0.7v-1.4h0.6V35.5z"/>
	<path class="st1" d="M40.5,35.5v1.4h1v0.5h-1v3c0,0.2,0.1,0.3,0.5,0.3c0.2,0,0.3,0,0.5,0V41c-0.1,0-0.3,0.1-0.7,0.1
		c-0.6,0-0.9-0.1-0.9-0.7v-3.1h-0.7v-0.5h0.7v-1.4h0.6V35.5z"/>
	<path class="st1" d="M47,35.2v4.3c0,1-0.4,1.5-1.3,1.5c-0.6,0-1-0.2-1.4-0.7l0.5-0.3c0.2,0.3,0.5,0.5,0.9,0.5
		c0.5,0,0.7-0.3,0.7-0.8v-4.5H47z"/>
	<path class="st1" d="M53.8,38.6V39h-2.7c0,1,0.6,1.6,1.2,1.6c0.5,0,0.9-0.3,1.1-0.7l0.4,0.2c-0.4,0.7-0.9,1-1.6,1
		c-1.1,0-1.8-0.8-1.8-2.2c0-1.5,0.8-2.2,1.7-2.2C53.1,36.8,53.8,37.4,53.8,38.6z M53.2,38.5c0-0.8-0.4-1.3-1-1.3s-1,0.4-1.1,1.3
		H53.2z"/>
	<path class="st1" d="M55.6,35.5v1.4h1v0.5h-1v3c0,0.2,0.1,0.3,0.5,0.3c0.2,0,0.3,0,0.5,0V41c-0.1,0-0.3,0.1-0.7,0.1
		c-0.6,0-0.9-0.1-0.9-0.7v-3.1h-0.7v-0.5H55v-1.4h0.6V35.5z"/>
	<path class="st1" d="M62.7,38v2.2c0,0.2,0,0.5,0.1,0.8h-0.6l-0.1-0.6c-0.4,0.4-0.9,0.7-1.4,0.7c-0.7,0-1.2-0.5-1.2-1.2
		c0-1.2,1.4-1.5,2.5-1.7V38c0-0.6-0.4-0.8-0.9-0.8s-0.9,0.3-1.1,0.6l-0.5-0.3c0.3-0.6,0.9-0.9,1.6-0.9C62.1,36.8,62.7,37.2,62.7,38z
		 M60.9,40.6c0.4,0,1-0.3,1.3-0.7v-1.1c-0.7,0.1-2,0.4-2,1.2C60.2,40.3,60.6,40.6,60.9,40.6z"/>
	<path class="st1" d="M64.7,35.2V41h-0.6v-5.8H64.7z"/>
	<path class="st1" d="M67.1,40.1V41h-0.8v-0.9H67.1z"/>
	<path class="st1" d="M73.3,35.2l1.8,5.8h-0.7l-0.5-1.8h-2.1L71.3,41h-0.7l1.8-5.8H73.3z M72,38.6h1.8l-0.8-3h-0.1L72,38.6z"/>
	<path class="st1" d="M76.6,35.2v2c0.4-0.3,0.7-0.5,1.1-0.5c0.8,0,1.7,0.6,1.7,2.2c0,1.5-0.8,2.2-1.7,2.2c-0.5,0-0.9-0.2-1.2-0.5
		L76.4,41H76c0-0.1,0-0.3,0-0.4v-5.4C76,35.2,76.6,35.2,76.6,35.2z M76.6,40c0.4,0.4,0.7,0.6,1,0.6c0.9,0,1.2-0.8,1.2-1.6
		c0-1.1-0.4-1.7-1.2-1.7c-0.3,0-0.7,0.2-1,0.6V40z"/>
	<path class="st1" d="M82.9,37.5l-0.4,0.4c-0.3-0.4-0.6-0.6-1.1-0.6s-0.8,0.2-0.8,0.6c0,0.3,0.3,0.5,0.9,0.7
		c0.8,0.2,1.5,0.5,1.5,1.3s-0.7,1.2-1.5,1.2c-0.6,0-1.3-0.3-1.7-0.8l0.5-0.3c0.3,0.4,0.7,0.6,1.2,0.6s0.9-0.2,0.9-0.7
		c0-0.4-0.3-0.6-0.9-0.7C80.6,38.9,80,38.7,80,38c0-0.8,0.6-1.2,1.3-1.2C81.9,36.8,82.6,37,82.9,37.5z"/>
	<path class="st1" d="M84.7,35.5v1.4h1v0.5h-1v3c0,0.2,0.1,0.3,0.5,0.3c0.2,0,0.3,0,0.5,0V41c-0.1,0-0.3,0.1-0.7,0.1
		c-0.6,0-0.9-0.1-0.9-0.7v-3.1h-0.7v-0.5h0.7v-1.4h0.6V35.5z"/>
	<path class="st1" d="M88.5,37.4c-0.8,0-1.1,0.5-1.4,1.3V41h-0.6v-4.2h0.6v0.8l0,0c0.3-0.6,0.7-0.9,1.3-0.9l0,0L88.5,37.4L88.5,37.4
		z"/>
	<path class="st1" d="M92.1,38v2.2c0,0.2,0,0.5,0.1,0.8h-0.6l-0.1-0.6c-0.4,0.4-0.9,0.7-1.4,0.7c-0.7,0-1.2-0.5-1.2-1.2
		c0-1.2,1.4-1.5,2.5-1.7V38c0-0.6-0.4-0.8-0.9-0.8s-0.9,0.3-1.1,0.6l-0.5-0.3c0.3-0.6,0.9-0.9,1.6-0.9C91.4,36.8,92.1,37.2,92.1,38z
		 M90.2,40.6c0.4,0,1-0.3,1.3-0.7v-1.1c-0.7,0.1-2,0.4-2,1.2C89.5,40.3,89.9,40.6,90.2,40.6z"/>
	<path class="st1" d="M96.2,37.9l-0.5,0.2c-0.2-0.5-0.5-0.8-1-0.8c-0.9,0-1.1,0.8-1.1,1.7c0,1.1,0.4,1.7,1.1,1.7
		c0.6,0,0.8-0.2,1.1-0.8l0.5,0.2c-0.4,0.7-0.8,1.1-1.6,1.1c-1.2,0-1.7-1-1.7-2.2s0.5-2.2,1.7-2.2C95.4,36.8,95.8,37.1,96.2,37.9z"/>
	<path class="st1" d="M98,35.5v1.4h1v0.5h-1v3c0,0.2,0.1,0.3,0.5,0.3c0.2,0,0.3,0,0.5,0V41c-0.1,0-0.3,0.1-0.7,0.1
		c-0.6,0-0.9-0.1-0.9-0.7v-3.1h-0.7v-0.5h0.7v-1.4H98V35.5z"/>
	<path class="st1" d="M105.5,37.9V41h-0.6v-3c0-0.4-0.2-0.7-0.7-0.7c-0.4,0-0.9,0.3-1.2,0.6V41h-0.6v-4.2h0.6v0.6l0,0
		c0.4-0.4,0.8-0.6,1.2-0.6C105,36.8,105.5,37.2,105.5,37.9z"/>
	<path class="st1" d="M109.9,38.9c0,1.1-0.5,2.2-1.7,2.2s-1.7-1-1.7-2.2c0-1.1,0.5-2.2,1.7-2.2S109.9,37.8,109.9,38.9z M108.2,40.6
		c0.8,0,1.1-0.8,1.1-1.7s-0.3-1.7-1.1-1.7c-0.8,0-1.1,0.9-1.1,1.7C107,39.7,107.3,40.6,108.2,40.6z"/>
	<path class="st1" d="M111.8,40.1V41H111v-0.9H111.8z"/>
	<path class="st1" d="M119.3,36.7c0,0.6-0.2,1-0.6,1.4c-0.2,0.2-0.5,0.5-1,0.8c-0.7,0.5-1.2,0.9-1.5,1.6h3.1V41h-3.8v-0.6
		c0.3-0.7,0.9-1.3,1.5-1.7c0.3-0.2,0.6-0.4,0.9-0.6c0.5-0.4,0.8-0.8,0.8-1.4c0-0.7-0.4-1.1-1.2-1.1c-0.7,0-1.2,0.5-1.4,1.3l-0.6-0.1
		c0.3-1.1,0.9-1.6,1.9-1.6C118.6,35.1,119.3,35.7,119.3,36.7z"/>
	<path class="st1" d="M124,36.6c0,0.6-0.3,1.1-0.9,1.3c0.7,0.3,1.1,0.8,1.1,1.5c0,1.1-0.9,1.7-2,1.7c-0.9,0-1.6-0.4-2-1.1l0.5-0.3
		c0.4,0.6,1,1,1.6,1c0.7,0,1.4-0.4,1.4-1.1c0-0.9-0.6-1.3-1.6-1.3h-0.6v-0.5h0.4c0.8,0,1.6-0.2,1.6-1.1c0-0.6-0.5-1-1.1-1
		s-1,0.3-1.4,0.8l-0.5-0.3c0.5-0.7,1.1-1,1.9-1C123.3,35.1,124,35.6,124,36.6z"/>
	<path class="st1" d="M129.1,35.2v0.4l-2.4,5.4H126l2.4-5.3h-2.9v-0.5C125.5,35.2,129.1,35.2,129.1,35.2z"/>
	<path class="st1" d="M134.1,37.8c0,1.6-0.7,3.3-2.4,3.3c-0.5,0-1-0.1-1.2-0.3l0.2-0.5c0.3,0.2,0.6,0.3,1,0.3c1.2,0,1.7-1.2,1.8-2.4
		c-0.5,0.5-0.9,0.7-1.6,0.7c-0.8,0-1.7-0.5-1.7-1.9c0-1.2,0.8-1.9,1.9-1.9C133.4,35.1,134.1,36.1,134.1,37.8z M132,38.4
		c0.7,0,1.2-0.4,1.5-1.1c0-0.9-0.5-1.7-1.4-1.7c-0.7,0-1.3,0.5-1.3,1.3C130.8,37.9,131.4,38.4,132,38.4z"/>
	<path class="st1" d="M141.1,38.9c0,1.7-1.1,2.2-1.7,2.2c-0.4,0-0.8-0.2-1.1-0.5v1.9h-0.6v-5.7h0.6v0.5c0.2-0.3,0.7-0.6,1.1-0.6
		C140,36.8,141.1,37.1,141.1,38.9z M138.3,40c0.4,0.4,0.7,0.6,1.1,0.6c0.8,0,1.2-0.6,1.2-1.7c0-1-0.4-1.6-1.2-1.6
		c-0.4,0-0.8,0.3-1,0.6V40H138.3z"/>
	<path class="st1" d="M144,37.4c-0.8,0-1.1,0.5-1.4,1.3V41H142v-4.2h0.6v0.8l0,0c0.3-0.6,0.7-0.9,1.3-0.9l0,0L144,37.4L144,37.4z"/>
	<path class="st1" d="M147.7,38.6V39H145c0,1,0.6,1.6,1.2,1.6c0.5,0,0.9-0.3,1.1-0.7l0.4,0.2c-0.4,0.7-0.9,1-1.6,1
		c-1.1,0-1.8-0.8-1.8-2.2c0-1.5,0.8-2.2,1.7-2.2C147.1,36.8,147.7,37.4,147.7,38.6z M147.2,38.5c0-0.8-0.4-1.3-1-1.3s-1,0.4-1.1,1.3
		H147.2z"/>
	<path class="st1" d="M151.3,37.5l-0.4,0.4c-0.3-0.4-0.6-0.6-1.1-0.6s-0.8,0.2-0.8,0.6c0,0.3,0.3,0.5,0.9,0.7
		c0.8,0.2,1.5,0.5,1.5,1.3s-0.7,1.2-1.5,1.2c-0.6,0-1.3-0.3-1.7-0.8l0.5-0.3c0.3,0.4,0.7,0.6,1.2,0.6s0.9-0.2,0.9-0.7
		c0-0.4-0.3-0.6-0.9-0.7c-0.9-0.3-1.5-0.5-1.5-1.2c0-0.8,0.6-1.2,1.3-1.2C150.3,36.8,151,37,151.3,37.5z"/>
	<path class="st1" d="M155.3,38.6V39h-2.7c0,1,0.6,1.6,1.2,1.6c0.5,0,0.9-0.3,1.1-0.7l0.4,0.2c-0.4,0.7-0.9,1-1.6,1
		c-1.1,0-1.8-0.8-1.8-2.2c0-1.5,0.8-2.2,1.7-2.2C154.6,36.8,155.3,37.4,155.3,38.6z M154.7,38.5c0-0.8-0.4-1.3-1-1.3s-1,0.4-1.1,1.3
		H154.7z"/>
	<path class="st1" d="M159.4,37.9V41h-0.6v-3c0-0.4-0.2-0.7-0.7-0.7c-0.4,0-0.9,0.3-1.2,0.6V41h-0.6v-4.2h0.6v0.6l0,0
		c0.4-0.4,0.8-0.6,1.2-0.6C159,36.8,159.4,37.2,159.4,37.9z"/>
	<path class="st1" d="M161.5,35.5v1.4h1v0.5h-1v3c0,0.2,0.1,0.3,0.5,0.3c0.2,0,0.3,0,0.5,0V41c-0.1,0-0.3,0.1-0.7,0.1
		c-0.6,0-0.9-0.1-0.9-0.7v-3.1h-0.7v-0.5h0.7v-1.4h0.6V35.5z"/>
	<path class="st1" d="M166.4,38.6V39h-2.7c0,1,0.6,1.6,1.2,1.6c0.5,0,0.9-0.3,1.1-0.7l0.4,0.2c-0.4,0.7-0.9,1-1.6,1
		c-1.1,0-1.8-0.8-1.8-2.2c0-1.5,0.8-2.2,1.7-2.2C165.7,36.8,166.4,37.4,166.4,38.6z M165.8,38.5c0-0.8-0.4-1.3-1-1.3s-1,0.4-1.1,1.3
		H165.8z"/>
	<path class="st1" d="M170.6,35.2v5.4c0,0.1,0,0.3,0,0.4h-0.5l-0.1-0.4c-0.2,0.3-0.6,0.5-1.1,0.5c-0.9,0-1.7-0.7-1.7-2.2
		s0.9-2.2,1.7-2.2c0.4,0,0.8,0.2,1.1,0.5v-2H170.6z M168.9,40.6c0.4,0,0.7-0.2,1-0.6v-2.2c-0.3-0.3-0.7-0.6-1.1-0.6
		c-0.8,0-1.2,0.6-1.2,1.7C167.8,39.8,168.1,40.6,168.9,40.6z"/>
	<path class="st1" d="M177.2,38v2.2c0,0.2,0,0.5,0.1,0.8h-0.6l-0.1-0.6c-0.4,0.4-0.9,0.7-1.4,0.7c-0.7,0-1.2-0.5-1.2-1.2
		c0-1.2,1.4-1.5,2.5-1.7V38c0-0.6-0.4-0.8-0.9-0.8s-0.9,0.3-1.1,0.6l-0.5-0.3c0.3-0.6,0.9-0.9,1.6-0.9
		C176.5,36.8,177.2,37.2,177.2,38z M175.3,40.6c0.4,0,1-0.3,1.3-0.7v-1.1c-0.7,0.1-2,0.4-2,1.2C174.6,40.3,175,40.6,175.3,40.6z"/>
	<path class="st1" d="M179.1,35.5v1.4h1v0.5h-1v3c0,0.2,0.1,0.3,0.5,0.3c0.2,0,0.3,0,0.5,0V41c-0.1,0-0.3,0.1-0.7,0.1
		c-0.6,0-0.9-0.1-0.9-0.7v-3.1h-0.7v-0.5h0.7v-1.4h0.6V35.5z"/>
	<path class="st1" d="M184.2,35.5v1.4h1v0.5h-1v3c0,0.2,0.1,0.3,0.5,0.3c0.2,0,0.3,0,0.5,0V41c-0.1,0-0.3,0.1-0.7,0.1
		c-0.6,0-0.9-0.1-0.9-0.7v-3.1H183v-0.5h0.7v-1.4h0.5V35.5z"/>
	<path class="st1" d="M186.8,35.2v2.2l0,0c0.4-0.4,0.8-0.6,1.2-0.6c0.8,0,1.2,0.5,1.2,1.2v3h-0.6v-3c0-0.4-0.2-0.7-0.7-0.7
		c-0.4,0-0.9,0.3-1.2,0.6V41h-0.6v-5.8H186.8z"/>
	<path class="st1" d="M193.5,38.6V39h-2.7c0,1,0.6,1.6,1.2,1.6c0.5,0,0.9-0.3,1.1-0.7l0.4,0.2c-0.4,0.7-0.9,1-1.6,1
		c-1.1,0-1.8-0.8-1.8-2.2c0-1.5,0.8-2.2,1.7-2.2C192.8,36.8,193.5,37.4,193.5,38.6z M192.9,38.5c0-0.8-0.4-1.3-1-1.3s-1,0.4-1.1,1.3
		H192.9z"/>
</g>
<g class="st0">
	<path class="st1" d="M12,43.2v0.5H9.5l-0.1,1.8c0.4-0.3,0.8-0.5,1.2-0.5c1,0,1.8,0.7,1.8,1.9c0,0.9-0.6,2-2,2
		c-0.8,0-1.3-0.3-1.8-1.1l0.5-0.3c0.3,0.6,0.8,0.9,1.3,0.9c0.9,0,1.4-0.6,1.4-1.5c0-0.8-0.5-1.5-1.3-1.5c-0.6,0-1,0.3-1.2,0.9
		l-0.5-0.1l0.2-3H12z"/>
	<path class="st1" d="M17.3,45.8c0,1.6-0.7,3.3-2.4,3.3c-0.5,0-1-0.1-1.2-0.3l0.2-0.5c0.3,0.2,0.6,0.3,1,0.3c1.2,0,1.7-1.2,1.8-2.4
		c-0.5,0.5-0.9,0.7-1.6,0.7c-0.8,0-1.7-0.5-1.7-1.9c0-1.2,0.8-1.9,1.9-1.9C16.6,43.1,17.3,44.1,17.3,45.8z M15.2,46.4
		c0.7,0,1.2-0.4,1.5-1.1c0-0.9-0.5-1.7-1.4-1.7c-0.7,0-1.3,0.5-1.3,1.3C14,45.9,14.6,46.4,15.2,46.4z"/>
	<path class="st1" d="M19.2,43.5v1.4h1v0.5h-1v3c0,0.2,0.1,0.3,0.5,0.3c0.2,0,0.3,0,0.5,0V49c-0.1,0-0.3,0.1-0.7,0.1
		c-0.6,0-0.9-0.1-0.9-0.7v-3.1h-0.7v-0.5h0.7v-1.4h0.6V43.5z"/>
	<path class="st1" d="M21.7,43.2v2.2l0,0c0.4-0.4,0.8-0.6,1.2-0.6c0.8,0,1.2,0.5,1.2,1.2v3h-0.6v-3c0-0.4-0.2-0.7-0.7-0.7
		c-0.4,0-0.9,0.3-1.2,0.6V49H21v-5.8H21.7z"/>
	<path class="st1" d="M31.7,43.2v0.5h-2.8v1.9h2v0.5h-2v2.2h3V49h-3.6v-5.8H31.7z"/>
	<path class="st1" d="M34.9,43.2c1.1,0,1.9,0.5,1.9,1.5c0,0.7-0.4,1.2-1.2,1.5l1.2,2.8h-0.7L35,46.4h-1.4V49H33v-5.8H34.9z
		 M34.8,45.8c0.8,0,1.3-0.3,1.3-1.1c0-0.7-0.4-1-1.3-1h-1.2v2.1H34.8z"/>
	<path class="st1" d="M40.5,43.2l1.8,5.8h-0.7L41,47.2h-2L38.4,49h-0.7l1.8-5.8H40.5z M39.1,46.6h1.8l-0.8-3H40L39.1,46.6z"/>
	<path class="st1" d="M49.4,44.8L48.8,45c-0.2-0.8-0.6-1.3-1.4-1.3c-1.1,0-1.5,1.2-1.5,2.4c0,1.6,0.6,2.4,1.6,2.4
		c0.7,0,1.2-0.4,1.4-1.4l0.6,0.1c-0.3,1.2-1,1.8-2,1.8c-1.6,0-2.2-1.4-2.2-3s0.6-3,2.2-3C48.4,43.1,49.1,43.7,49.4,44.8z"/>
	<path class="st1" d="M53.5,46.9c0,1.1-0.5,2.2-1.7,2.2s-1.7-1-1.7-2.2c0-1.1,0.5-2.2,1.7-2.2S53.5,45.8,53.5,46.9z M51.8,48.6
		c0.8,0,1.1-0.8,1.1-1.7s-0.3-1.7-1.1-1.7s-1.1,0.9-1.1,1.7C50.6,47.7,50.9,48.6,51.8,48.6z"/>
	<path class="st1" d="M57.5,45.9V49h-0.6v-3c0-0.4-0.2-0.7-0.7-0.7c-0.4,0-0.9,0.3-1.2,0.6V49h-0.6v-4.2H55v0.6l0,0
		c0.4-0.4,0.8-0.6,1.2-0.6C57.1,44.8,57.5,45.2,57.5,45.9z"/>
	<path class="st1" d="M62.1,45.3c-0.3,0-0.5,0-0.6,0.1c0.2,0.2,0.3,0.5,0.3,0.8c0,0.8-0.7,1.5-1.5,1.5c-0.3,0-0.4,0-0.7-0.1
		c-0.2,0.1-0.3,0.2-0.3,0.4s0.1,0.3,0.4,0.3c1.8,0,2.6,0.3,2.6,1.2c0,0.6-0.6,1.1-1.9,1.1c-1.2,0-1.8-0.3-1.8-1
		c0-0.4,0.3-0.6,0.7-0.8c-0.3-0.1-0.5-0.3-0.5-0.6c0-0.4,0.3-0.5,0.6-0.7c-0.4-0.3-0.6-0.7-0.6-1.2c0-0.9,0.7-1.5,1.6-1.5
		c0.4,0,0.8,0.1,1,0.3c0.2-0.2,0.6-0.3,0.9-0.4v0.6H62.1z M60.2,50c0.8,0,1.3-0.2,1.3-0.6c0-0.4-0.4-0.6-1.4-0.6
		c-0.6,0-1.2,0.2-1.2,0.7C58.9,49.9,59.2,50,60.2,50z M60.2,47.2c0.6,0,1-0.4,1-0.9c0-0.6-0.4-1-1.1-1c-0.6,0-1,0.4-1,1
		S59.6,47.2,60.2,47.2z"/>
	<path class="st1" d="M64.7,45.4c-0.8,0-1.1,0.5-1.4,1.3V49h-0.6v-4.2h0.6v0.8l0,0c0.3-0.6,0.7-0.9,1.3-0.9l0,0L64.7,45.4L64.7,45.4
		z"/>
	<path class="st1" d="M68.5,46.6V47h-2.7c0,1,0.6,1.6,1.2,1.6c0.5,0,0.9-0.3,1.1-0.7l0.4,0.2c-0.4,0.7-0.9,1-1.6,1
		c-1.1,0-1.8-0.8-1.8-2.2c0-1.5,0.8-2.2,1.7-2.2C67.8,44.8,68.5,45.4,68.5,46.6z M67.9,46.5c0-0.8-0.4-1.3-1-1.3s-1,0.4-1.1,1.3
		H67.9z"/>
	<path class="st1" d="M72,45.5l-0.4,0.4c-0.3-0.4-0.6-0.6-1.1-0.6s-0.8,0.2-0.8,0.6c0,0.3,0.3,0.5,0.9,0.7c0.8,0.2,1.5,0.5,1.5,1.3
		s-0.7,1.2-1.5,1.2c-0.6,0-1.3-0.3-1.7-0.8l0.5-0.3c0.3,0.4,0.7,0.6,1.2,0.6s0.9-0.2,0.9-0.7c0-0.4-0.3-0.6-0.9-0.7
		c-0.9-0.3-1.5-0.5-1.5-1.2c0-0.8,0.6-1.2,1.3-1.2C71.1,44.8,71.7,45,72,45.5z"/>
	<path class="st1" d="M75.5,45.5l-0.4,0.4c-0.3-0.4-0.6-0.6-1.1-0.6s-0.8,0.2-0.8,0.6c0,0.3,0.3,0.5,0.9,0.7
		c0.8,0.2,1.5,0.5,1.5,1.3s-0.7,1.2-1.5,1.2c-0.6,0-1.3-0.3-1.7-0.8l0.5-0.3c0.3,0.4,0.7,0.6,1.2,0.6s0.9-0.2,0.9-0.7
		c0-0.4-0.3-0.6-0.9-0.7c-0.9-0.3-1.5-0.5-1.5-1.2c0-0.8,0.6-1.2,1.3-1.2C74.6,44.8,75.3,45,75.5,45.5z"/>
	<path class="st1" d="M77.6,48.1V49l-0.5,1.2h-0.3l0.4-1.2h-0.3v-0.9H77.6z"/>
	<path class="st1" d="M83.7,43.2c1.1,0,1.8,0.5,1.8,1.6c0,1.2-1,1.6-2.1,1.6h-1V49h-0.6v-5.8H83.7z M83.4,45.9c1,0,1.4-0.3,1.4-1.1
		s-0.5-1.1-1.3-1.1h-1.2v2.1L83.4,45.9L83.4,45.9z"/>
	<path class="st1" d="M89.2,46v2.2c0,0.2,0,0.5,0.1,0.8h-0.6l-0.1-0.6c-0.4,0.4-0.9,0.7-1.4,0.7c-0.7,0-1.2-0.5-1.2-1.2
		c0-1.2,1.4-1.5,2.5-1.7V46c0-0.6-0.4-0.8-0.9-0.8s-0.9,0.3-1.1,0.6L86,45.5c0.3-0.6,0.9-0.9,1.6-0.9C88.6,44.8,89.2,45.2,89.2,46z
		 M87.4,48.6c0.4,0,1-0.3,1.3-0.7v-1.1c-0.7,0.1-2,0.4-2,1.2C86.7,48.3,87,48.6,87.4,48.6z"/>
	<path class="st1" d="M92.3,45.4c-0.8,0-1.1,0.5-1.4,1.3V49h-0.6v-4.2h0.6v0.8l0,0c0.3-0.6,0.7-0.9,1.3-0.9l0,0L92.3,45.4L92.3,45.4
		z"/>
	<path class="st1" d="M93.8,43.1v0.7h-0.6v-0.7H93.8z M93.8,44.8V49h-0.6v-4.2H93.8z"/>
	<path class="st1" d="M97.8,45.5l-0.4,0.4c-0.3-0.4-0.6-0.6-1.1-0.6s-0.8,0.2-0.8,0.6c0,0.3,0.3,0.5,0.9,0.7
		c0.8,0.2,1.5,0.5,1.5,1.3s-0.7,1.2-1.5,1.2c-0.6,0-1.3-0.3-1.7-0.8l0.5-0.3c0.3,0.4,0.7,0.6,1.2,0.6s0.9-0.2,0.9-0.7
		c0-0.4-0.3-0.6-0.9-0.7c-0.9-0.3-1.5-0.5-1.5-1.2c0-0.8,0.6-1.2,1.3-1.2C96.8,44.8,97.5,45,97.8,45.5z"/>
	<path class="st1" d="M99.8,48.1V49l-0.5,1.2H99l0.4-1.2H99v-0.9H99.8z"/>
	<path class="st1" d="M107.3,43.2v0.5h-2.8v1.9h2.1v0.5h-2.1V49h-0.6v-5.8H107.3z"/>
	<path class="st1" d="M110,45.4c-0.8,0-1.1,0.5-1.4,1.3V49H108v-4.2h0.6v0.8l0,0c0.3-0.6,0.7-0.9,1.3-0.9l0,0L110,45.4L110,45.4z"/>
	<path class="st1" d="M113.6,46v2.2c0,0.2,0,0.5,0.1,0.8h-0.6l-0.1-0.6c-0.4,0.4-0.9,0.7-1.4,0.7c-0.7,0-1.2-0.5-1.2-1.2
		c0-1.2,1.4-1.5,2.5-1.7V46c0-0.6-0.4-0.8-0.9-0.8s-0.9,0.3-1.1,0.6l-0.5-0.3c0.3-0.6,0.9-0.9,1.6-0.9C113,44.8,113.6,45.2,113.6,46
		z M111.8,48.6c0.4,0,1-0.3,1.3-0.7v-1.1c-0.7,0.1-2,0.4-2,1.2C111.1,48.3,111.4,48.6,111.8,48.6z"/>
	<path class="st1" d="M117.9,45.9V49h-0.6v-3c0-0.4-0.2-0.7-0.7-0.7c-0.4,0-0.9,0.3-1.2,0.6V49h-0.6v-4.2h0.6v0.6l0,0
		c0.4-0.4,0.8-0.6,1.2-0.6C117.5,44.8,117.9,45.2,117.9,45.9z"/>
	<path class="st1" d="M122.2,45.9l-0.5,0.2c-0.2-0.5-0.5-0.8-1-0.8c-0.9,0-1.1,0.8-1.1,1.7c0,1.1,0.4,1.7,1.1,1.7
		c0.6,0,0.8-0.2,1.1-0.8l0.5,0.2c-0.4,0.7-0.8,1.1-1.6,1.1c-1.2,0-1.7-1-1.7-2.2s0.5-2.2,1.7-2.2C121.4,44.8,121.9,45.1,122.2,45.9z
		"/>
	<path class="st1" d="M126.2,46.6V47h-2.7c0,1,0.6,1.6,1.2,1.6c0.5,0,0.9-0.3,1.1-0.7l0.4,0.2c-0.4,0.7-0.9,1-1.6,1
		c-1.1,0-1.8-0.8-1.8-2.2c0-1.5,0.8-2.2,1.7-2.2C125.6,44.8,126.2,45.4,126.2,46.6z M125.7,46.5c0-0.8-0.4-1.3-1-1.3s-1,0.4-1.1,1.3
		H125.7z"/>
	<path class="st1" d="M128.2,48.1V49h-0.8v-0.9H128.2z"/>
	<path class="st1" d="M134.3,43.1v5.4h1V49h-2.6v-0.5h1v-4.7l-1.1,0.1v-0.4c0.5-0.1,0.9-0.2,1.1-0.4
		C133.7,43.1,134.3,43.1,134.3,43.1z"/>
	<path class="st1" d="M140.8,45.8c0,1.6-0.7,3.3-2.4,3.3c-0.5,0-1-0.1-1.2-0.3l0.2-0.5c0.3,0.2,0.6,0.3,1,0.3c1.2,0,1.7-1.2,1.8-2.4
		c-0.5,0.5-0.9,0.7-1.6,0.7c-0.8,0-1.7-0.5-1.7-1.9c0-1.2,0.8-1.9,1.9-1.9C140.1,43.1,140.8,44.1,140.8,45.8z M138.7,46.4
		c0.7,0,1.2-0.4,1.5-1.1c0-0.9-0.5-1.7-1.4-1.7c-0.7,0-1.3,0.5-1.3,1.3C137.5,45.9,138.1,46.4,138.7,46.4z"/>
	<path class="st1" d="M145.3,46.7v0.4h-4v-0.4H145.3z"/>
	<path class="st1" d="M149.6,44.7c0,0.6-0.2,1-0.6,1.4c-0.2,0.2-0.5,0.5-1,0.8c-0.7,0.5-1.2,0.9-1.5,1.6h3.1V49h-3.8v-0.6
		c0.3-0.7,0.9-1.3,1.5-1.7c0.3-0.2,0.6-0.4,0.9-0.6c0.5-0.4,0.8-0.8,0.8-1.4c0-0.7-0.4-1.1-1.2-1.1c-0.7,0-1.2,0.5-1.4,1.3l-0.6-0.1
		c0.3-1.1,0.9-1.6,1.9-1.6C148.8,43.1,149.6,43.7,149.6,44.7z"/>
	<path class="st1" d="M154.5,44.7c0,0.6-0.2,1-0.6,1.4c-0.2,0.2-0.5,0.5-1,0.8c-0.7,0.5-1.2,0.9-1.5,1.6h3.1V49h-3.8v-0.6
		c0.3-0.7,0.9-1.3,1.5-1.7c0.3-0.2,0.6-0.4,0.9-0.6c0.5-0.4,0.8-0.8,0.8-1.4c0-0.7-0.4-1.1-1.2-1.1c-0.7,0-1.2,0.5-1.4,1.3l-0.6-0.1
		c0.3-1.1,0.9-1.6,1.9-1.6C153.7,43.1,154.5,43.7,154.5,44.7z"/>
	<path class="st1" d="M159.4,43.2l1.5,4.7l0,0l1.4-4.7h1V49h-0.6v-5.4l-1.6,5.4h-0.5l-1.6-5.4V49h-0.6v-5.8H159.4z"/>
	<path class="st1" d="M167.6,46v2.2c0,0.2,0,0.5,0.1,0.8h-0.6l-0.1-0.6c-0.4,0.4-0.9,0.7-1.4,0.7c-0.7,0-1.2-0.5-1.2-1.2
		c0-1.2,1.4-1.5,2.5-1.7V46c0-0.6-0.4-0.8-0.9-0.8s-0.9,0.3-1.1,0.6l-0.5-0.3c0.3-0.6,0.9-0.9,1.6-0.9C167,44.8,167.6,45.2,167.6,46
		z M165.8,48.6c0.4,0,1-0.3,1.3-0.7v-1.1c-0.7,0.1-2,0.4-2,1.2C165.1,48.3,165.4,48.6,165.8,48.6z"/>
	<path class="st1" d="M168.9,44.8L170,48l0,0l1-3.2h0.6l-1.5,4.5c-0.3,0.8-0.7,1.2-1.4,1.2c-0.2,0-0.3,0-0.4,0V50c0.1,0,0.2,0,0.3,0
		c0.6,0,0.9-0.4,1.1-1l-1.4-4.2H168.9z"/>
	<path class="st1" d="M178.4,44.7c0,0.6-0.2,1-0.6,1.4c-0.2,0.2-0.5,0.5-1,0.8c-0.7,0.5-1.2,0.9-1.5,1.6h3.1V49h-3.8v-0.6
		c0.3-0.7,0.9-1.3,1.5-1.7c0.3-0.2,0.6-0.4,0.9-0.6c0.5-0.4,0.8-0.8,0.8-1.4c0-0.7-0.4-1.1-1.2-1.1c-0.7,0-1.2,0.5-1.4,1.3l-0.6-0.1
		c0.3-1.1,0.9-1.6,1.9-1.6C177.7,43.1,178.4,43.7,178.4,44.7z"/>
	<path class="st1" d="M183.5,46.1c0,2-0.7,3-2,3s-2-1-2-3s0.7-3,2-3S183.5,44.2,183.5,46.1z M181.5,48.6c1,0,1.4-0.8,1.4-2.5
		s-0.4-2.5-1.4-2.5s-1.4,0.8-1.4,2.5S180.5,48.6,181.5,48.6z"/>
	<path class="st1" d="M188.2,44.7c0,0.6-0.2,1-0.6,1.4c-0.2,0.2-0.5,0.5-1,0.8c-0.7,0.5-1.2,0.9-1.5,1.6h3.1V49h-3.8v-0.6
		c0.3-0.7,0.9-1.3,1.5-1.7c0.3-0.2,0.6-0.4,0.9-0.6c0.5-0.4,0.8-0.8,0.8-1.4c0-0.7-0.4-1.1-1.2-1.1c-0.7,0-1.2,0.5-1.4,1.3l-0.6-0.1
		c0.3-1.1,0.9-1.6,1.9-1.6C187.4,43.1,188.2,43.7,188.2,44.7z"/>
	<path class="st1" d="M193.1,44.7c0,0.6-0.2,1-0.6,1.4c-0.2,0.2-0.5,0.5-1,0.8c-0.7,0.5-1.2,0.9-1.5,1.6h3.1V49h-3.8v-0.6
		c0.3-0.7,0.9-1.3,1.5-1.7c0.3-0.2,0.6-0.4,0.9-0.6c0.5-0.4,0.8-0.8,0.8-1.4c0-0.7-0.4-1.1-1.2-1.1c-0.7,0-1.2,0.5-1.4,1.3l-0.6-0.1
		c0.3-1.1,0.9-1.6,1.9-1.6C192.3,43.1,193.1,43.7,193.1,44.7z"/>
	<path class="st1" d="M195.3,48.1V49h-0.8v-0.9H195.3z"/>
</g>
<g id="Group_38" transform="translate(-195.282 -77.607)">
	<path id="Path_109" class="st2" d="M398.3,118l1.4-3.3c0-0.1,0.1-0.1,0.2-0.1s0.2,0.1,0.2,0.2l1.6,9.6l3.9-22.9
		c0-0.1,0.1-0.2,0.2-0.2s0.2,0.1,0.2,0.2l2.4,31.2l2.5-18.9c0-0.1,0.1-0.2,0.2-0.2s0.2,0.1,0.2,0.2l1,9.8l1.4-5.4
		c0-0.1,0.1-0.2,0.2-0.2h13.3l1.4-3.3c0-0.1,0.1-0.1,0.2-0.1s0.2,0.1,0.2,0.2l1.6,9.6l3.9-22.9c0-0.1,0.1-0.2,0.2-0.2
		s0.2,0.1,0.2,0.2l2.4,31.2l2.5-18.9c0-0.1,0.1-0.2,0.2-0.2s0.2,0.1,0.2,0.2l1,9.8l1.4-5.4c0-0.1,0.1-0.2,0.2-0.2h7.3
		c0.1,0,0.2,0.1,0.2,0.2s-0.1,0.2-0.2,0.2l0,0H443l-1.7,6.4c0,0.1-0.2,0.2-0.3,0.2c-0.1,0-0.2-0.1-0.2-0.2l-0.9-9.1l-2.5,19.1
		c0,0.1-0.1,0.2-0.2,0.2l0,0c-0.1,0-0.2-0.1-0.2-0.2l-2.4-31.5l-3.8,22.4c0,0.1-0.1,0.2-0.3,0.2c-0.1,0-0.2-0.1-0.2-0.2l-1.7-10.1
		l-1.2,2.7c0,0.1-0.1,0.1-0.2,0.1H414l-1.7,6.4c0,0.1-0.2,0.2-0.3,0.2c-0.1,0-0.2-0.1-0.2-0.2l-0.9-9.1l-2.5,19.1
		c0,0.1-0.1,0.2-0.2,0.2s-0.2-0.1-0.2-0.2l-2.4-31.5l-3.8,22.4c0,0.1-0.1,0.2-0.3,0.2c-0.1,0-0.2-0.1-0.2-0.2l-1.7-10.1l-1.2,2.7
		c0,0.1-0.1,0.1-0.2,0.1"/>
</g>
<path id="Polygon_1" d="M389.5,45.4l-4.5-8h9L389.5,45.4z"/>
</svg>
