<?xml version="1.0" encoding="utf-8"?>
<!-- Generator: Adobe Illustrator 27.0.0, SVG Export Plug-In . SVG Version: 6.00 Build 0)  -->
<svg version="1.1" id="Layer_1" xmlns="http://www.w3.org/2000/svg" xmlns:xlink="http://www.w3.org/1999/xlink" x="0px" y="0px"
	 viewBox="0 0 728 90" style="enable-background:new 0 0 728 90;" xml:space="preserve">
<style type="text/css">
	.st0{enable-background:new    ;}
	.st1{fill:#4D4D4F;}
</style>
<g class="st0">
	<path class="st1" d="M19.1,10.1v1.8h-7.6v2.5H18v1.8h-6.6v2.9h7.8V21h-10V10.1H19.1z"/>
	<path class="st1" d="M22.2,10.1l4.1,8.7l4.2-8.7h2.3L27.4,21h-2.2l-5.3-10.9H22.2z"/>
	<path class="st1" d="M41,10.1c3.1,0,4.3,1,4.3,3.3c0,1.8-1.2,3.1-3,3.2l3.3,4.4H43l-3.2-4.3h-3.4V21h-2.1V10.1H41z M40.6,14.9
		c1.9,0,2.5-0.4,2.5-1.5c0-1.1-0.6-1.5-2.5-1.5h-4.2v3.1H40.6z"/>
	<path class="st1" d="M57.4,10.1v1.8h-7.6v2.5h6.6v1.8h-6.6v2.9h7.8V21h-10V10.1H57.4z"/>
	<path class="st1" d="M61.5,10.1l7.3,7.9v-7.9h2V21h-2l-7.6-8.2V21h-2V10.1H61.5z"/>
	<path class="st1" d="M83.3,10.1v1.2l-7.4,7.9h7.6V21H72.5v-1l7.6-8h-7.2v-1.8H83.3z"/>
	<path class="st1" d="M97.4,15.6c0,3.2-2.2,5.6-6.5,5.6c-4.3,0-6.5-2.5-6.5-5.6c0-3.6,2.3-5.8,6.5-5.8C95.1,9.8,97.4,12.1,97.4,15.6
		z M90.9,11.7c-2.7,0-4.4,1.4-4.4,3.9c0,2.5,1.6,3.9,4.4,3.9c2.7,0,4.4-1.4,4.4-3.9C95.3,13.1,93.6,11.7,90.9,11.7z"/>
	<path class="st1" d="M112.4,15.5v4.3c0,0.4,0,0.9,0.1,1.2h-1.9c-0.1-0.3-0.1-0.5-0.1-0.8c-1.3,0.8-2.4,1.1-3.5,1.1
		c-1.5,0-3.1-0.7-3.1-2.4c0-1.1,0.6-1.9,2-2.4c1.1-0.5,2.6-0.7,4.7-0.8v-0.3c0-0.7-0.7-1.1-2.1-1.1c-1.2,0-2,0.3-2.2,1.1h-1.9
		c0.3-1.7,1.8-2.6,4.1-2.6C110.9,12.7,112.4,13.4,112.4,15.5z M107.3,19.8c1.1,0,2-0.3,3.3-1v-1.8c-1.1,0-2.5,0.3-3.4,0.5
		c-0.7,0.2-1.2,0.6-1.2,1.3C105.9,19.4,106.4,19.8,107.3,19.8z"/>
	<path class="st1" d="M122.8,15.7h-1.9c-0.3-0.8-1.2-1.5-2.4-1.5c-1.6,0-2.8,1.2-2.8,2.6c0,1.7,1,2.8,2.6,2.8c1.3,0,2.3-0.6,2.6-1.6
		h2c-0.5,1.9-2,3.1-4.3,3.1c-2.9,0-4.7-1.6-4.7-4.5c0-2.2,1.8-4.1,4.6-4.1C120.8,12.7,122.5,13.8,122.8,15.7z"/>
	<path class="st1" d="M126.3,10.1V14c0.8-0.9,1.8-1.3,3-1.3c2.1,0,3.1,1.1,3.1,3.1V21h-1.9v-4.5c0-1.5-0.5-2.2-1.7-2.2
		c-1.1,0-1.8,0.3-2.5,1.2V21h-1.9V10.1H126.3z"/>
	<path class="st1" d="M136.4,9.8v1.7h-1.9V9.8H136.4z M136.4,12.9V21h-1.9v-8.1H136.4z"/>
	<path class="st1" d="M147.1,17.5H140c0.2,1.5,1.3,2.3,2.7,2.3c1,0,1.9-0.4,2.2-1.2h2c-0.4,1.5-2,2.7-4.2,2.7
		c-2.8,0-4.6-1.7-4.6-4.3c0-2.5,1.7-4.3,4.4-4.3C145.3,12.7,147,14.3,147.1,17.5z M145.1,16c-0.3-1.2-1.1-1.9-2.5-1.9
		c-1.4,0-2.2,0.7-2.5,1.9H145.1z"/>
	<path class="st1" d="M149.9,12.9l2.7,6l2.7-6h2l-3.8,8.1h-1.9l-3.8-8.1H149.9z"/>
	<path class="st1" d="M167.1,17.5H160c0.2,1.5,1.3,2.3,2.7,2.3c1,0,1.9-0.4,2.2-1.2h2c-0.4,1.5-2,2.7-4.2,2.7
		c-2.8,0-4.6-1.7-4.6-4.3c0-2.5,1.7-4.3,4.4-4.3C165.3,12.7,167.1,14.3,167.1,17.5z M165.1,16c-0.3-1.2-1.1-1.9-2.5-1.9
		c-1.4,0-2.2,0.7-2.5,1.9H165.1z"/>
	<path class="st1" d="M176.2,14.6l-1.5,0.9c-0.7-1-1.6-1.3-2.6-1.3c-1.2,0-1.8,0.4-1.8,1c0,0.5,0.5,0.7,1.6,0.8
		c2.6,0.3,4.5,0.7,4.5,2.7c0,1.7-1.4,2.6-4,2.6c-1.6,0-3.1-0.3-4.4-2l1.6-0.9c0.6,0.9,1.6,1.4,2.9,1.4c1.1,0,1.9-0.4,1.9-1
		c0-0.7-0.8-0.7-2.2-0.9c-1.7-0.3-3.9-0.6-3.9-2.6c0-1.2,1-2.6,3.8-2.6C173.8,12.7,175.3,13.3,176.2,14.6z"/>
	<path class="st1" d="M191.2,15.5v4.3c0,0.4,0,0.9,0.1,1.2h-1.9c-0.1-0.3-0.1-0.5-0.1-0.8c-1.3,0.8-2.4,1.1-3.5,1.1
		c-1.5,0-3.1-0.7-3.1-2.4c0-1.1,0.6-1.9,2-2.4c1.1-0.5,2.6-0.7,4.7-0.8v-0.3c0-0.7-0.7-1.1-2.1-1.1c-1.2,0-2,0.3-2.2,1.1h-1.9
		c0.3-1.7,1.8-2.6,4.1-2.6C189.7,12.7,191.2,13.4,191.2,15.5z M186,19.8c1.1,0,2-0.3,3.3-1v-1.8c-1.1,0-2.5,0.3-3.4,0.5
		c-0.7,0.2-1.2,0.6-1.2,1.3C184.7,19.4,185.1,19.8,186,19.8z"/>
	<path class="st1" d="M201.2,15.8V21h-1.9v-4.5c0-1.5-0.5-2.2-1.7-2.2c-1.1,0-1.8,0.3-2.5,1.2V21h-1.9v-8.1h1.8v1
		c0.9-0.9,1.8-1.3,3-1.3C200.1,12.7,201.2,13.8,201.2,15.8z"/>
	<path class="st1" d="M211.9,10.1V21h-1.8v-1c-0.9,0.9-1.9,1.3-3.2,1.3c-2.4,0-4.2-1.8-4.2-4.3c0-2.5,1.7-4.2,4.3-4.2
		c0.9,0,1.8,0.1,3.1,1.1v-3.7H211.9z M207.3,19.7c0.9,0,1.6-0.3,2.7-1.2v-3.1c-0.9-0.8-1.7-1.1-2.7-1.1c-1.5,0-2.8,1-2.8,2.7
		C204.6,18.6,205.7,19.7,207.3,19.7z"/>
</g>
<g class="st0">
	<path class="st1" d="M16.1,29c0.7-0.8,1.7-1.3,2.8-1.3c2.1,0,3.1,1,3.1,2.6V36h-1.9v-4.9c0-1.2-0.5-1.8-1.6-1.8
		c-0.7,0-1.5,0.4-2.2,1V36h-1.9v-4.9c0-1.2-0.5-1.8-1.6-1.8c-0.7,0-1.5,0.4-2.2,1V36H8.9v-8.1h1.8v0.9c1-1,1.8-1.2,2.7-1.2
		C14.7,27.7,15.5,28.1,16.1,29z"/>
	<path class="st1" d="M32,30.5v4.3c0,0.4,0,0.9,0.1,1.2h-1.9c-0.1-0.3-0.1-0.5-0.1-0.8c-1.3,0.8-2.4,1.1-3.5,1.1
		c-1.5,0-3.1-0.7-3.1-2.4c0-1.1,0.6-1.9,2-2.4c1.1-0.5,2.6-0.7,4.7-0.8v-0.3c0-0.7-0.7-1.1-2.1-1.1c-1.2,0-2,0.3-2.2,1.1h-1.9
		c0.3-1.7,1.8-2.6,4.1-2.6C30.5,27.7,32,28.4,32,30.5z M26.9,34.8c1.1,0,2-0.3,3.3-1v-1.8c-1.1,0-2.5,0.3-3.4,0.5
		c-0.7,0.2-1.2,0.6-1.2,1.3C25.5,34.4,26,34.8,26.9,34.8z"/>
	<path class="st1" d="M36,24.8v1.7h-1.9v-1.7H36z M36,27.9V36h-1.9v-8.1H36z"/>
	<path class="st1" d="M46.2,30.8V36h-1.9v-4.5c0-1.5-0.5-2.2-1.7-2.2c-1.1,0-1.8,0.3-2.5,1.2V36h-1.9v-8.1H40v1
		c0.9-0.9,1.8-1.3,3-1.3C45.1,27.7,46.2,28.8,46.2,30.8z"/>
	<path class="st1" d="M50.6,25.6v2.6h2.8v1.6h-2.8v3.7c0,0.7,0.4,1.2,1.3,1.2c0.5,0,1.3-0.1,1.6-0.2v1.6c-0.5,0.1-1.2,0.2-2,0.2
		c-2,0-2.8-0.8-2.8-2.3v-4.2h-1.4v-1.6h1.4v-2.6H50.6z"/>
	<path class="st1" d="M62.8,30.5v4.3c0,0.4,0,0.9,0.1,1.2h-1.9C61,35.7,61,35.5,61,35.2c-1.3,0.8-2.4,1.1-3.5,1.1
		c-1.5,0-3.1-0.7-3.1-2.4c0-1.1,0.6-1.9,2-2.4c1.1-0.5,2.6-0.7,4.7-0.8v-0.3c0-0.7-0.7-1.1-2.1-1.1c-1.2,0-2,0.3-2.2,1.1h-1.9
		c0.3-1.7,1.8-2.6,4.1-2.6C61.4,27.7,62.8,28.4,62.8,30.5z M57.7,34.8c1.1,0,2-0.3,3.3-1v-1.8c-1.1,0-2.5,0.3-3.4,0.5
		c-0.7,0.2-1.2,0.6-1.2,1.3C56.4,34.4,56.8,34.8,57.7,34.8z"/>
	<path class="st1" d="M66.9,24.8v1.7H65v-1.7H66.9z M66.9,27.9V36H65v-8.1H66.9z"/>
	<path class="st1" d="M77,30.8V36h-1.9v-4.5c0-1.5-0.5-2.2-1.7-2.2c-1.1,0-1.8,0.3-2.5,1.2V36H69v-8.1h1.8v1c0.9-0.9,1.8-1.3,3-1.3
		C76,27.7,77,28.8,77,30.8z"/>
	<path class="st1" d="M86.6,29.6l-1.5,0.9c-0.7-1-1.6-1.3-2.6-1.3c-1.2,0-1.8,0.4-1.8,1c0,0.5,0.5,0.7,1.6,0.8
		c2.6,0.3,4.5,0.7,4.5,2.7c0,1.7-1.4,2.6-4,2.6c-1.6,0-3.1-0.3-4.4-2l1.6-0.9c0.6,0.9,1.6,1.4,2.9,1.4c1.1,0,1.9-0.4,1.9-1
		c0-0.7-0.8-0.7-2.2-0.9c-1.7-0.3-3.9-0.6-3.9-2.6c0-1.2,1-2.6,3.8-2.6C84.2,27.7,85.7,28.3,86.6,29.6z"/>
	<path class="st1" d="M96,25.6v2.6h2.8v1.6H96v3.7c0,0.7,0.4,1.2,1.3,1.2c0.5,0,1.3-0.1,1.6-0.2v1.6c-0.5,0.1-1.2,0.2-2,0.2
		c-2,0-2.8-0.8-2.8-2.3v-4.2h-1.4v-1.6h1.4v-2.6H96z"/>
	<path class="st1" d="M108.2,30.5v4.3c0,0.4,0,0.9,0.1,1.2h-1.9c-0.1-0.3-0.1-0.5-0.1-0.8c-1.3,0.8-2.4,1.1-3.5,1.1
		c-1.5,0-3.1-0.7-3.1-2.4c0-1.1,0.6-1.9,2-2.4c1.1-0.5,2.6-0.7,4.7-0.8v-0.3c0-0.7-0.7-1.1-2.1-1.1c-1.2,0-2,0.3-2.2,1.1h-1.9
		c0.3-1.7,1.8-2.6,4.1-2.6C106.8,27.7,108.2,28.4,108.2,30.5z M103.1,34.8c1.1,0,2-0.3,3.3-1v-1.8c-1.1,0-2.5,0.3-3.4,0.5
		c-0.7,0.2-1.2,0.6-1.2,1.3C101.8,34.4,102.2,34.8,103.1,34.8z"/>
	<path class="st1" d="M115.7,27.7v2c-0.5-0.1-0.7-0.1-1.1-0.1c-1.6,0-2.4,0.7-2.4,2.1V36h-1.9v-8.1h1.9v1.2h0c0.6-1,1.6-1.5,2.9-1.5
		C115.5,27.7,115.5,27.7,115.7,27.7z"/>
	<path class="st1" d="M125.6,29.3c-0.3-0.1-0.5-0.1-0.6-0.1c-0.3,0-0.4,0-0.6,0.2c0.2,0.4,0.4,0.8,0.4,1.3c0,1.9-1.5,3-4.1,3
		c-0.8,0-1.3-0.1-1.7-0.3c-0.3,0.2-0.5,0.4-0.5,0.6c0,0.4,0.6,0.5,1.6,0.5h2.5c1.8,0,3,0.5,3,1.8c0,1.6-2.1,2.5-5.2,2.5
		c-2.7,0-4.2-0.6-4.2-1.8c0-0.6,0.3-1,1.6-1.2v0c-0.8-0.1-1.2-0.5-1.2-1.2c0-0.7,0.6-1.4,1.4-1.5v0c-0.9-0.5-1.3-1.3-1.3-2.3
		c0-1.9,1.4-2.9,4.2-2.9c1.1,0,2,0.2,2.8,0.7c0.6-0.6,1.1-0.9,1.7-0.9h0.3V29.3z M119.3,36.1c-0.7,0-1.1,0.2-1.1,0.6
		c0,0.5,0.4,0.7,2.3,0.7c2,0,3-0.3,3-0.8c0-0.4-0.2-0.5-1.3-0.5H119.3z M120.7,32.2c1.3,0,2.2-0.6,2.2-1.6c0-1-0.9-1.6-2.2-1.6
		c-1.2,0-2.1,0.5-2.1,1.6C118.5,31.7,119.3,32.2,120.7,32.2z"/>
	<path class="st1" d="M135.4,32.5h-7.1c0.2,1.5,1.3,2.3,2.7,2.3c1,0,1.9-0.4,2.2-1.2h2c-0.4,1.5-2,2.7-4.2,2.7
		c-2.8,0-4.6-1.7-4.6-4.3c0-2.5,1.7-4.3,4.4-4.3C133.7,27.7,135.4,29.3,135.4,32.5z M133.4,31c-0.3-1.2-1.1-1.9-2.5-1.9
		c-1.4,0-2.2,0.7-2.5,1.9H133.4z"/>
	<path class="st1" d="M139.4,25.6v2.6h2.8v1.6h-2.8v3.7c0,0.7,0.4,1.2,1.3,1.2c0.5,0,1.3-0.1,1.6-0.2v1.6c-0.5,0.1-1.2,0.2-2,0.2
		c-2,0-2.8-0.8-2.8-2.3v-4.2h-1.4v-1.6h1.4v-2.6H139.4z"/>
	<path class="st1" d="M151.4,25.1v4.3h7.3v-4.3h2.1V36h-2.1v-4.7h-7.3V36h-2.1V25.1H151.4z"/>
	<path class="st1" d="M165.1,25.1v3.7c1.3-1,2.2-1.1,3.1-1.1c2.6,0,4.3,1.8,4.3,4.2c0,2.6-1.9,4.3-4.2,4.3c-1.3,0-2.4-0.4-3.2-1.3v1
		h-1.8V25.1H165.1z M165.1,33.5c1.1,0.9,1.8,1.2,2.7,1.2c1.6,0,2.8-1,2.8-2.7c0-1.7-1.2-2.7-2.8-2.7c-0.9,0-1.8,0.3-2.7,1.1V33.5z"
		/>
	<path class="st1" d="M181.4,25.1V36h-1.9V25.1H181.4z"/>
	<path class="st1" d="M192.1,32.5H185c0.2,1.5,1.3,2.3,2.7,2.3c1,0,1.9-0.4,2.2-1.2h2c-0.4,1.5-2,2.7-4.2,2.7
		c-2.8,0-4.6-1.7-4.6-4.3c0-2.5,1.7-4.3,4.4-4.3C190.3,27.7,192,29.3,192.1,32.5z M190.1,31c-0.3-1.2-1.1-1.9-2.5-1.9
		c-1.4,0-2.2,0.7-2.5,1.9H190.1z"/>
	<path class="st1" d="M194.9,27.9l2.7,6l2.7-6h2l-3.8,8.1h-1.9l-3.8-8.1H194.9z"/>
	<path class="st1" d="M212.1,32.5H205c0.2,1.5,1.3,2.3,2.7,2.3c1,0,1.9-0.4,2.2-1.2h2c-0.4,1.5-2,2.7-4.2,2.7
		c-2.8,0-4.6-1.7-4.6-4.3c0-2.5,1.7-4.3,4.4-4.3C210.3,27.7,212.1,29.3,212.1,32.5z M210.1,31c-0.3-1.2-1.1-1.9-2.5-1.9
		c-1.4,0-2.2,0.7-2.5,1.9H210.1z"/>
	<path class="st1" d="M215.6,25.1V36h-1.9V25.1H215.6z"/>
	<path class="st1" d="M225.4,29.6l-1.5,0.9c-0.7-1-1.6-1.3-2.6-1.3c-1.2,0-1.8,0.4-1.8,1c0,0.5,0.5,0.7,1.6,0.8
		c2.6,0.3,4.5,0.7,4.5,2.7c0,1.7-1.4,2.6-4,2.6c-1.6,0-3.1-0.3-4.4-2l1.6-0.9c0.6,0.9,1.6,1.4,2.9,1.4c1.1,0,1.9-0.4,1.9-1
		c0-0.7-0.8-0.7-2.2-0.9c-1.7-0.3-3.9-0.6-3.9-2.6c0-1.2,1-2.6,3.8-2.6C223,27.7,224.5,28.3,225.4,29.6z"/>
</g>
<g class="st0">
	<path class="st1" d="M228.6,24.5V31h-1.1v-4.9h-1.3v-0.7c0.8-0.1,1.3-0.4,1.8-0.9H228.6z"/>
	<path class="st1" d="M233.1,29.8V31l-0.6,1.3H232l0.5-1.3H232v-1.2H233.1z"/>
	<path class="st1" d="M240.1,26.6c0,0.9-0.5,1.6-1.5,2.2l-2,1.1v0h3.5v1h-5.6v-0.9l3.2-2c0.6-0.3,1.3-0.8,1.3-1.5
		c0-0.7-0.5-1.1-1.6-1.1c-0.9,0-1.5,0.4-1.7,1.2h-1.2c0-1.2,1.1-2.2,2.8-2.2C239,24.5,240.1,25.2,240.1,26.6z"/>
</g>
<g class="st0">
	<path class="st1" d="M249.3,27.9l2.1,5.7l2.1-5.7h1.6l2.1,5.7l2.1-5.7h1.9l-3.1,8.1h-1.8l-2.1-5.6l-2.1,5.6h-1.8l-3.2-8.1H249.3z"
		/>
	<path class="st1" d="M264.4,24.8v1.7h-1.9v-1.7H264.4z M264.4,27.9V36h-1.9v-8.1H264.4z"/>
	<path class="st1" d="M269,25.6v2.6h2.8v1.6H269v3.7c0,0.7,0.4,1.2,1.3,1.2c0.5,0,1.3-0.1,1.6-0.2v1.6c-0.5,0.1-1.2,0.2-2,0.2
		c-2,0-2.8-0.8-2.8-2.3v-4.2h-1.4v-1.6h1.4v-2.6H269z"/>
	<path class="st1" d="M275.1,25.1V29c0.8-0.9,1.8-1.3,3-1.3c2.1,0,3.1,1.1,3.1,3.1V36h-1.9v-4.5c0-1.5-0.5-2.2-1.7-2.2
		c-1.1,0-1.8,0.3-2.5,1.2V36h-1.9V25.1H275.1z"/>
</g>
<g class="st0">
	<path class="st1" d="M17,45.5v4.3c0,0.4,0,0.9,0.1,1.2h-1.9c-0.1-0.3-0.1-0.5-0.1-0.8c-1.3,0.8-2.4,1.1-3.5,1.1
		c-1.5,0-3.1-0.7-3.1-2.4c0-1.1,0.6-1.9,2-2.4c1.1-0.5,2.6-0.7,4.7-0.8v-0.3c0-0.7-0.7-1.1-2.1-1.1c-1.2,0-2,0.3-2.2,1.1H8.9
		c0.3-1.7,1.8-2.6,4.1-2.6C15.5,42.7,17,43.4,17,45.5z M11.9,49.8c1.1,0,2-0.3,3.3-1v-1.8c-1.1,0-2.5,0.3-3.4,0.5
		c-0.7,0.2-1.2,0.6-1.2,1.3C10.5,49.4,11,49.8,11.9,49.8z"/>
	<path class="st1" d="M29.8,42.7v2c-0.5-0.1-0.7-0.1-1.1-0.1c-1.6,0-2.4,0.7-2.4,2.1V51h-1.9v-8.1h1.9v1.2h0c0.6-1,1.6-1.5,2.9-1.5
		C29.6,42.7,29.7,42.7,29.8,42.7z"/>
	<path class="st1" d="M39.6,47.5h-7.1c0.2,1.5,1.3,2.3,2.7,2.3c1,0,1.9-0.4,2.2-1.2h2c-0.4,1.5-2,2.7-4.2,2.7
		c-2.8,0-4.6-1.7-4.6-4.3c0-2.5,1.7-4.3,4.4-4.3C37.8,42.7,39.5,44.3,39.6,47.5z M37.6,46c-0.3-1.2-1.1-1.9-2.5-1.9
		c-1.4,0-2.2,0.7-2.5,1.9H37.6z"/>
	<path class="st1" d="M49.8,40.1V51H48v-1c-0.9,0.9-1.9,1.3-3.2,1.3c-2.4,0-4.2-1.8-4.2-4.3c0-2.5,1.7-4.2,4.3-4.2
		c0.9,0,1.8,0.1,3.1,1.1v-3.7H49.8z M45.2,49.7c0.9,0,1.6-0.3,2.7-1.2v-3.1c-0.9-0.8-1.7-1.1-2.7-1.1c-1.5,0-2.8,1-2.8,2.7
		C42.5,48.6,43.6,49.7,45.2,49.7z"/>
	<path class="st1" d="M53.8,42.9v4.5c0,1.5,0.5,2.2,1.7,2.2c1.1,0,1.8-0.3,2.5-1.2v-5.5h1.9V51h-1.8v-1c-0.9,0.9-1.8,1.3-3,1.3
		c-2.1,0-3.1-1.2-3.1-3.1v-5.2H53.8z"/>
	<path class="st1" d="M70.3,45.7h-1.9c-0.3-0.8-1.2-1.5-2.4-1.5c-1.6,0-2.8,1.2-2.8,2.6c0,1.7,1,2.8,2.6,2.8c1.3,0,2.3-0.6,2.6-1.6
		h2c-0.5,1.9-2,3.1-4.3,3.1c-2.9,0-4.7-1.6-4.7-4.5c0-2.2,1.8-4.1,4.6-4.1C68.3,42.7,70,43.8,70.3,45.7z"/>
	<path class="st1" d="M80.4,47.5h-7.1c0.2,1.5,1.3,2.3,2.7,2.3c1,0,1.9-0.4,2.2-1.2h2c-0.4,1.5-2,2.7-4.2,2.7
		c-2.8,0-4.6-1.7-4.6-4.3c0-2.5,1.7-4.3,4.4-4.3C78.6,42.7,80.4,44.3,80.4,47.5z M78.4,46c-0.3-1.2-1.1-1.9-2.5-1.9
		c-1.4,0-2.2,0.7-2.5,1.9H78.4z"/>
	<path class="st1" d="M90.7,40.1V51h-1.8v-1c-0.9,0.9-1.9,1.3-3.2,1.3c-2.4,0-4.2-1.8-4.2-4.3c0-2.5,1.7-4.2,4.3-4.2
		c0.9,0,1.8,0.1,3.1,1.1v-3.7H90.7z M86.1,49.7c0.9,0,1.6-0.3,2.7-1.2v-3.1c-0.9-0.8-1.7-1.1-2.7-1.1c-1.5,0-2.8,1-2.8,2.7
		C83.3,48.6,84.5,49.7,86.1,49.7z"/>
	<path class="st1" d="M100,42.9v4.5c0,1.5,0.5,2.2,1.7,2.2c1.1,0,1.8-0.3,2.5-1.2v-5.5h1.9V51h-1.8v-1c-0.9,0.9-1.8,1.3-3,1.3
		c-2.1,0-3.1-1.2-3.1-3.1v-5.2H100z"/>
	<path class="st1" d="M115.8,44.6l-1.5,0.9c-0.7-1-1.6-1.3-2.6-1.3c-1.2,0-1.8,0.4-1.8,1c0,0.5,0.5,0.7,1.6,0.8
		c2.6,0.3,4.5,0.7,4.5,2.7c0,1.7-1.4,2.6-4,2.6c-1.6,0-3.1-0.3-4.4-2l1.6-0.9c0.6,0.9,1.6,1.4,2.9,1.4c1.1,0,1.9-0.4,1.9-1
		c0-0.7-0.8-0.7-2.2-0.9c-1.7-0.3-3.9-0.6-3.9-2.6c0-1.2,1-2.6,3.8-2.6C113.4,42.7,114.9,43.3,115.8,44.6z"/>
	<path class="st1" d="M125.8,47.5h-7.1c0.2,1.5,1.3,2.3,2.7,2.3c1,0,1.9-0.4,2.2-1.2h2c-0.4,1.5-2,2.7-4.2,2.7
		c-2.8,0-4.6-1.7-4.6-4.3c0-2.5,1.7-4.3,4.4-4.3C124.1,42.7,125.8,44.3,125.8,47.5z M123.8,46c-0.3-1.2-1.1-1.9-2.5-1.9
		c-1.4,0-2.2,0.7-2.5,1.9H123.8z"/>
	<path class="st1" d="M141.3,47c0,2.8-1.8,4.3-4.5,4.3c-2.7,0-4.5-1.5-4.5-4.3c0-2.5,1.6-4.3,4.5-4.3
		C139.6,42.7,141.3,44.4,141.3,47z M136.7,49.7c1.6,0,2.6-1.1,2.6-2.7c0-1.7-1.1-2.7-2.6-2.7c-1.5,0-2.6,0.9-2.6,2.7
		C134.1,48.6,135.1,49.7,136.7,49.7z"/>
	<path class="st1" d="M149,40.1v1.6c-0.8-0.2-1.3-0.2-1.8-0.2c-1.1,0-1.5,0.4-1.5,1.3v0.5h2.9v1.6h-2.9V51h-1.9v-6.2H142v-1.6h1.8
		v-1c0-1.3,0.8-2.4,3.2-2.4C147.4,39.8,147.7,39.8,149,40.1z"/>
	<path class="st1" d="M158.2,40.1V51h-2.1V40.1H158.2z"/>
	<path class="st1" d="M162.2,40.1l4.1,8.7l4.2-8.7h2.3L167.4,51h-2.2l-5.3-10.9H162.2z"/>
	<path class="st1" d="M181.4,39.8v1.7h-1.9v-1.7H181.4z M181.4,42.9V51h-1.9v-8.1H181.4z"/>
	<path class="st1" d="M188.9,42.7v2c-0.5-0.1-0.7-0.1-1.1-0.1c-1.6,0-2.4,0.7-2.4,2.1V51h-1.9v-8.1h1.9v1.2h0c0.6-1,1.6-1.5,2.9-1.5
		C188.8,42.7,188.8,42.7,188.9,42.7z"/>
	<path class="st1" d="M198.7,47c0,2.8-1.8,4.3-4.5,4.3c-2.7,0-4.5-1.5-4.5-4.3c0-2.5,1.6-4.3,4.5-4.3C197,42.7,198.7,44.4,198.7,47z
		 M194.2,49.7c1.6,0,2.6-1.1,2.6-2.7c0-1.7-1.1-2.7-2.6-2.7c-1.5,0-2.6,0.9-2.6,2.7C191.6,48.6,192.6,49.7,194.2,49.7z"/>
	<path class="st1" d="M208.2,45.8V51h-1.9v-4.5c0-1.5-0.5-2.2-1.7-2.2c-1.1,0-1.8,0.3-2.5,1.2V51h-1.9v-8.1h1.8v1
		c0.9-0.9,1.8-1.3,3-1.3C207.2,42.7,208.2,43.8,208.2,45.8z"/>
	<path class="st1" d="M216.9,42.9l2.7,6l2.7-6h2l-3.8,8.1h-1.9l-3.8-8.1H216.9z"/>
	<path class="st1" d="M233.3,44.6l-1.5,0.9c-0.7-1-1.6-1.3-2.6-1.3c-1.2,0-1.8,0.4-1.8,1c0,0.5,0.5,0.7,1.6,0.8
		c2.6,0.3,4.5,0.7,4.5,2.7c0,1.7-1.4,2.6-4,2.6c-1.6,0-3.1-0.3-4.4-2l1.6-0.9c0.6,0.9,1.6,1.4,2.9,1.4c1.1,0,1.9-0.4,1.9-1
		c0-0.7-0.8-0.7-2.2-0.9c-1.7-0.3-3.9-0.6-3.9-2.6c0-1.2,1-2.6,3.8-2.6C230.8,42.7,232.3,43.3,233.3,44.6z"/>
	<path class="st1" d="M236.7,48.9V51h-2v-2.1H236.7z"/>
	<path class="st1" d="M254.3,40.1v1.8h-7.6v2.5h6.6v1.8h-6.6v2.9h7.8V51h-10V40.1H254.3z"/>
	<path class="st1" d="M266.7,42.8l-2,0.7c-0.5-1.3-1.7-1.8-3.8-1.8c-1.7,0-2.9,0.5-2.9,1.4c0,0.7,1,1,1.9,1.2l3.1,0.5
		c2.5,0.4,3.9,1.4,3.9,3.2c0,2.3-2,3.5-5.4,3.5c-3.3,0-5.5-1.3-6.1-3.1l2.1-0.6c0.6,1.3,2,2,4.1,2c1.9,0,3.2-0.6,3.2-1.5
		c0-0.7-0.9-1.2-2.1-1.3l-2.7-0.4c-2.8-0.4-4-1.5-4-3.1c0-2.1,1.8-3.3,5.1-3.3C264.1,39.8,266.1,40.8,266.7,42.8z"/>
	<path class="st1" d="M275.3,40.1l5.3,10.9h-2.2l-1.1-2.5h-6.3l-1.2,2.5h-2.3l5.4-10.9H275.3z M271.8,46.7h4.6l-2.3-4.9L271.8,46.7z
		"/>
</g>
<g class="st0">
	<path class="st1" d="M287.3,41.6c0,0.9-0.5,1.6-1.5,2.2l-2,1.1v0h3.5v1h-5.6v-0.9l3.2-2c0.6-0.3,1.3-0.8,1.3-1.5
		c0-0.7-0.5-1.1-1.6-1.1c-0.9,0-1.5,0.4-1.7,1.2h-1.2c0-1.2,1.1-2.2,2.8-2.2C286.3,39.5,287.3,40.2,287.3,41.6z"/>
</g>
<g class="st0">
	<path class="st1" d="M12.3,60.2v0.5H9.5v1.9h2v0.5h-2v2.2h3V66H8.9v-5.8H12.3z"/>
	<path class="st1" d="M17,61.6l-0.6,0.1c-0.2-0.6-0.7-1-1.3-1c-0.7,0-1.1,0.3-1.1,0.9c0,0.5,0.5,0.7,1.1,1c1.1,0.4,2.1,0.7,2.1,1.8
		c0,1.2-0.8,1.7-1.9,1.7c-1,0-1.6-0.5-2.1-1.5l0.6-0.2c0.3,0.8,0.8,1.2,1.5,1.2c0.7,0,1.3-0.3,1.3-1c0-0.7-0.7-1-1.6-1.3
		c-1-0.4-1.7-0.7-1.7-1.6c0-0.9,0.8-1.5,1.7-1.5C16.1,60.1,16.7,60.7,17,61.6z"/>
	<path class="st1" d="M20.7,60.2l1.8,5.8h-0.7l-0.5-1.8h-2.1L18.6,66H18l1.8-5.8H20.7z M19.3,63.6h1.8l-0.8-3h-0.1L19.3,63.6z"/>
	<path class="st1" d="M24.3,65.1V66l-0.5,1.2h-0.3l0.4-1.2h-0.3v-0.9H24.3z"/>
	<path class="st1" d="M31.1,63.6V64h-2.7c0,1,0.6,1.6,1.2,1.6c0.5,0,0.9-0.3,1.1-0.7l0.4,0.2c-0.4,0.7-0.9,1-1.6,1
		c-1.1,0-1.8-0.8-1.8-2.2c0-1.5,0.8-2.2,1.7-2.2C30.5,61.8,31.1,62.4,31.1,63.6z M30.6,63.5c0-0.8-0.4-1.3-1-1.3s-1,0.4-1.1,1.3
		H30.6z"/>
	<path class="st1" d="M34,62.4c-0.8,0-1.1,0.5-1.4,1.3V66h-0.6v-4.2h0.6v0.8h0c0.3-0.6,0.7-0.9,1.3-0.9h0V62.4z"/>
	<path class="st1" d="M34.9,61.8L36,65h0l1-3.2h0.6l-1.5,4.5c-0.3,0.8-0.7,1.2-1.4,1.2c-0.2,0-0.3,0-0.4,0V67c0.1,0,0.2,0,0.3,0
		c0.6,0,0.9-0.4,1.1-1l-1.4-4.2H34.9z"/>
	<path class="st1" d="M39.2,60.5v1.4h1v0.5h-1v3c0,0.2,0.1,0.3,0.5,0.3c0.2,0,0.3,0,0.5,0V66c-0.1,0-0.3,0.1-0.7,0.1
		c-0.6,0-0.9-0.1-0.9-0.7v-3.1h-0.7v-0.5h0.7v-1.4H39.2z"/>
	<path class="st1" d="M41.7,60.2v2.2h0c0.4-0.4,0.8-0.6,1.2-0.6c0.8,0,1.2,0.5,1.2,1.2V66h-0.6v-3c0-0.4-0.2-0.7-0.7-0.7
		c-0.4,0-0.9,0.3-1.2,0.6V66h-0.6v-5.8H41.7z"/>
	<path class="st1" d="M47.4,62.4c-0.8,0-1.1,0.5-1.4,1.3V66h-0.6v-4.2H46v0.8h0c0.3-0.6,0.7-0.9,1.3-0.9h0V62.4z"/>
	<path class="st1" d="M51.2,63.9c0,1.1-0.5,2.2-1.7,2.2s-1.7-1-1.7-2.2c0-1.1,0.5-2.2,1.7-2.2S51.2,62.8,51.2,63.9z M49.5,65.6
		c0.8,0,1.1-0.8,1.1-1.7s-0.3-1.7-1.1-1.7c-0.8,0-1.1,0.9-1.1,1.7C48.4,64.7,48.7,65.6,49.5,65.6z"/>
	<path class="st1" d="M55.6,63.9c0,1.7-1.1,2.2-1.7,2.2c-0.4,0-0.8-0.2-1.1-0.5v1.9h-0.6v-5.7h0.6v0.5c0.2-0.3,0.7-0.6,1.1-0.6
		C54.5,61.8,55.6,62.1,55.6,63.9z M52.8,65c0.4,0.4,0.7,0.6,1.1,0.6c0.8,0,1.2-0.6,1.2-1.7c0-1-0.4-1.6-1.2-1.6
		c-0.4,0-0.8,0.3-1,0.6V65z"/>
	<path class="st1" d="M59.7,63.9c0,1.1-0.5,2.2-1.7,2.2s-1.7-1-1.7-2.2c0-1.1,0.5-2.2,1.7-2.2S59.7,62.8,59.7,63.9z M58,65.6
		c0.8,0,1.1-0.8,1.1-1.7s-0.3-1.7-1.1-1.7c-0.8,0-1.1,0.9-1.1,1.7C56.9,64.7,57.1,65.6,58,65.6z"/>
	<path class="st1" d="M61.4,60.1v0.7h-0.6v-0.7H61.4z M61.4,61.8V66h-0.6v-4.2H61.4z"/>
	<path class="st1" d="M65.8,63.6V64h-2.7c0,1,0.6,1.6,1.2,1.6c0.5,0,0.9-0.3,1.1-0.7l0.4,0.2c-0.4,0.7-0.9,1-1.6,1
		c-1.1,0-1.8-0.8-1.8-2.2c0-1.5,0.8-2.2,1.7-2.2C65.1,61.8,65.8,62.4,65.8,63.6z M65.2,63.5c0-0.8-0.4-1.3-1-1.3s-1,0.4-1.1,1.3
		H65.2z"/>
	<path class="st1" d="M69.3,62.5l-0.4,0.4c-0.3-0.4-0.6-0.6-1.1-0.6c-0.5,0-0.8,0.2-0.8,0.6c0,0.3,0.3,0.5,0.9,0.7
		c0.8,0.2,1.5,0.5,1.5,1.3c0,0.8-0.7,1.2-1.5,1.2c-0.6,0-1.3-0.3-1.7-0.8l0.5-0.3c0.3,0.4,0.7,0.6,1.2,0.6c0.5,0,0.9-0.2,0.9-0.7
		c0-0.4-0.3-0.6-0.9-0.7c-0.9-0.3-1.5-0.5-1.5-1.2c0-0.8,0.6-1.2,1.3-1.2C68.4,61.8,69,62,69.3,62.5z"/>
	<path class="st1" d="M71.2,60.1v0.7h-0.6v-0.7H71.2z M71.2,61.8V66h-0.6v-4.2H71.2z"/>
	<path class="st1" d="M75.1,62.5l-0.4,0.4c-0.3-0.4-0.6-0.6-1.1-0.6c-0.5,0-0.8,0.2-0.8,0.6c0,0.3,0.3,0.5,0.9,0.7
		c0.8,0.2,1.5,0.5,1.5,1.3c0,0.8-0.7,1.2-1.5,1.2c-0.6,0-1.3-0.3-1.7-0.8l0.5-0.3c0.3,0.4,0.7,0.6,1.2,0.6c0.5,0,0.9-0.2,0.9-0.7
		c0-0.4-0.3-0.6-0.9-0.7c-0.9-0.3-1.5-0.5-1.5-1.2c0-0.8,0.6-1.2,1.3-1.2C74.2,61.8,74.8,62,75.1,62.5z"/>
	<path class="st1" d="M77.9,63.7v0.5h-2v-0.5H77.9z"/>
	<path class="st1" d="M81.3,62.5l-0.4,0.4c-0.3-0.4-0.6-0.6-1.1-0.6c-0.5,0-0.8,0.2-0.8,0.6c0,0.3,0.3,0.5,0.9,0.7
		c0.8,0.2,1.5,0.5,1.5,1.3c0,0.8-0.7,1.2-1.5,1.2c-0.6,0-1.3-0.3-1.7-0.8l0.5-0.3c0.3,0.4,0.7,0.6,1.2,0.6c0.5,0,0.9-0.2,0.9-0.7
		c0-0.4-0.3-0.6-0.9-0.7c-0.9-0.3-1.5-0.5-1.5-1.2c0-0.8,0.6-1.2,1.3-1.2C80.4,61.8,81,62,81.3,62.5z"/>
	<path class="st1" d="M83.2,60.5v1.4h1v0.5h-1v3c0,0.2,0.1,0.3,0.5,0.3c0.2,0,0.3,0,0.5,0V66c-0.1,0-0.3,0.1-0.7,0.1
		c-0.6,0-0.9-0.1-0.9-0.7v-3.1h-0.7v-0.5h0.7v-1.4H83.2z"/>
	<path class="st1" d="M85.8,60.1v0.7h-0.6v-0.7H85.8z M85.8,61.8V66h-0.6v-4.2H85.8z"/>
	<path class="st1" d="M91.5,61.8c0.8,0,1.1,0.4,1.1,1.2v3h-0.6v-3c0-0.5-0.2-0.7-0.6-0.7c-0.5,0-0.8,0.3-1.2,0.6V66h-0.6v-3
		c0-0.5-0.2-0.7-0.6-0.7c-0.5,0-0.8,0.3-1.2,0.6V66h-0.6v-4.2h0.6v0.6c0.4-0.4,0.8-0.6,1.2-0.6c0.5,0,0.9,0.3,1.1,0.7
		C90.5,62,91,61.8,91.5,61.8z"/>
	<path class="st1" d="M94.6,61.8v3c0,0.4,0.2,0.7,0.7,0.7c0.4,0,0.9-0.3,1.2-0.6v-3.1H97V66h-0.6v-0.6h0c-0.4,0.4-0.8,0.6-1.2,0.6
		c-0.7,0-1.2-0.5-1.2-1.2v-3H94.6z"/>
	<path class="st1" d="M99.2,60.2V66h-0.6v-5.8H99.2z"/>
	<path class="st1" d="M103.4,63v2.2c0,0.2,0,0.5,0.1,0.8h-0.6l-0.1-0.6c-0.4,0.4-0.9,0.7-1.4,0.7c-0.7,0-1.2-0.5-1.2-1.2
		c0-1.2,1.4-1.5,2.5-1.7V63c0-0.6-0.4-0.8-0.9-0.8c-0.5,0-0.9,0.3-1.1,0.6l-0.5-0.3c0.3-0.6,0.9-0.9,1.6-0.9
		C102.8,61.8,103.4,62.2,103.4,63z M101.6,65.6c0.4,0,1-0.3,1.3-0.7v-1.1c-0.7,0.1-2,0.4-2,1.2C100.9,65.3,101.2,65.6,101.6,65.6z"
		/>
	<path class="st1" d="M105.4,60.5v1.4h1v0.5h-1v3c0,0.2,0.1,0.3,0.5,0.3c0.2,0,0.3,0,0.5,0V66c-0.1,0-0.3,0.1-0.7,0.1
		c-0.6,0-0.9-0.1-0.9-0.7v-3.1h-0.7v-0.5h0.7v-1.4H105.4z"/>
	<path class="st1" d="M108,60.1v0.7h-0.6v-0.7H108z M108,61.8V66h-0.6v-4.2H108z"/>
	<path class="st1" d="M112.6,62.9V66H112v-3c0-0.4-0.2-0.7-0.7-0.7c-0.4,0-0.9,0.3-1.2,0.6V66h-0.6v-4.2h0.6v0.6h0
		c0.4-0.4,0.8-0.6,1.2-0.6C112.1,61.8,112.6,62.2,112.6,62.9z"/>
	<path class="st1" d="M117.1,62.3c-0.3,0-0.5,0-0.6,0.1c0.2,0.2,0.3,0.5,0.3,0.8c0,0.8-0.7,1.5-1.5,1.5c-0.3,0-0.4,0-0.7-0.1
		c-0.2,0.1-0.3,0.2-0.3,0.4c0,0.2,0.1,0.3,0.4,0.3c1.8,0,2.6,0.3,2.6,1.2c0,0.6-0.6,1.1-1.9,1.1c-1.2,0-1.8-0.3-1.8-1
		c0-0.4,0.3-0.6,0.7-0.8c-0.3-0.1-0.5-0.3-0.5-0.6c0-0.4,0.3-0.5,0.6-0.7c-0.4-0.3-0.6-0.7-0.6-1.2c0-0.9,0.7-1.5,1.6-1.5
		c0.4,0,0.8,0.1,1,0.3c0.2-0.2,0.6-0.3,0.9-0.4V62.3z M115.3,67c0.8,0,1.3-0.2,1.3-0.6c0-0.4-0.4-0.6-1.4-0.6
		c-0.6,0-1.2,0.2-1.2,0.7C114,66.9,114.3,67,115.3,67z M115.3,64.2c0.6,0,1-0.4,1-0.9c0-0.6-0.4-1-1.1-1c-0.6,0-1,0.4-1,1
		S114.7,64.2,115.3,64.2z"/>
	<path class="st1" d="M123.2,63v2.2c0,0.2,0,0.5,0.1,0.8h-0.6l-0.1-0.6c-0.4,0.4-0.9,0.7-1.4,0.7c-0.7,0-1.2-0.5-1.2-1.2
		c0-1.2,1.4-1.5,2.5-1.7V63c0-0.6-0.4-0.8-0.9-0.8c-0.5,0-0.9,0.3-1.1,0.6l-0.5-0.3c0.3-0.6,0.9-0.9,1.6-0.9
		C122.6,61.8,123.2,62.2,123.2,63z M121.4,65.6c0.4,0,1-0.3,1.3-0.7v-1.1c-0.7,0.1-2,0.4-2,1.2C120.7,65.3,121,65.6,121.4,65.6z"/>
	<path class="st1" d="M127.6,62.3c-0.3,0-0.5,0-0.6,0.1c0.2,0.2,0.3,0.5,0.3,0.8c0,0.8-0.7,1.5-1.5,1.5c-0.3,0-0.4,0-0.7-0.1
		c-0.2,0.1-0.3,0.2-0.3,0.4c0,0.2,0.1,0.3,0.4,0.3c1.8,0,2.6,0.3,2.6,1.2c0,0.6-0.6,1.1-1.9,1.1c-1.2,0-1.8-0.3-1.8-1
		c0-0.4,0.3-0.6,0.7-0.8c-0.3-0.1-0.5-0.3-0.5-0.6c0-0.4,0.3-0.5,0.6-0.7c-0.4-0.3-0.6-0.7-0.6-1.2c0-0.9,0.7-1.5,1.6-1.5
		c0.4,0,0.8,0.1,1,0.3c0.2-0.2,0.6-0.3,0.9-0.4V62.3z M125.8,67c0.8,0,1.3-0.2,1.3-0.6c0-0.4-0.4-0.6-1.4-0.6
		c-0.6,0-1.2,0.2-1.2,0.7C124.5,66.9,124.7,67,125.8,67z M125.7,64.2c0.6,0,1-0.4,1-0.9c0-0.6-0.4-1-1.1-1c-0.6,0-1,0.4-1,1
		S125.1,64.2,125.7,64.2z"/>
	<path class="st1" d="M131.3,63.6V64h-2.7c0,1,0.6,1.6,1.2,1.6c0.5,0,0.9-0.3,1.1-0.7l0.4,0.2c-0.4,0.7-0.9,1-1.6,1
		c-1.1,0-1.8-0.8-1.8-2.2c0-1.5,0.8-2.2,1.7-2.2C130.7,61.8,131.3,62.4,131.3,63.6z M130.8,63.5c0-0.8-0.4-1.3-1-1.3s-1,0.4-1.1,1.3
		H130.8z"/>
	<path class="st1" d="M135.5,62.9V66h-0.6v-3c0-0.4-0.2-0.7-0.7-0.7c-0.4,0-0.9,0.3-1.2,0.6V66h-0.6v-4.2h0.6v0.6h0
		c0.4-0.4,0.8-0.6,1.2-0.6C135,61.8,135.5,62.2,135.5,62.9z"/>
	<path class="st1" d="M137.6,60.5v1.4h1v0.5h-1v3c0,0.2,0.1,0.3,0.5,0.3c0.2,0,0.3,0,0.5,0V66c-0.1,0-0.3,0.1-0.7,0.1
		c-0.6,0-0.9-0.1-0.9-0.7v-3.1h-0.7v-0.5h0.7v-1.4H137.6z"/>
	<path class="st1" d="M140.5,65.1V66l-0.5,1.2h-0.3L140,66h-0.3v-0.9H140.5z M140.5,62.8v0.9h-0.8v-0.9H140.5z"/>
	<path class="st1" d="M145.2,60.2v2.5h2.8v-2.5h0.6V66H148v-2.8h-2.8V66h-0.6v-5.8H145.2z"/>
	<path class="st1" d="M150.8,60.2v2c0.4-0.3,0.7-0.5,1.1-0.5c0.8,0,1.7,0.6,1.7,2.2c0,1.5-0.8,2.2-1.7,2.2c-0.5,0-0.9-0.2-1.2-0.5
		l-0.1,0.4h-0.4c0-0.1,0-0.3,0-0.4v-5.4H150.8z M150.8,65c0.4,0.4,0.7,0.6,1,0.6c0.9,0,1.2-0.8,1.2-1.6c0-1.1-0.4-1.7-1.2-1.7
		c-0.3,0-0.7,0.2-1,0.6V65z"/>
	<path class="st1" d="M155.6,65.1V66l-0.5,1.2h-0.3l0.4-1.2h-0.3v-0.9H155.6z"/>
	<path class="st1" d="M160.1,60.2v2.2h0c0.4-0.4,0.8-0.6,1.2-0.6c0.8,0,1.2,0.5,1.2,1.2V66H162v-3c0-0.4-0.2-0.7-0.7-0.7
		c-0.4,0-0.9,0.3-1.2,0.6V66h-0.6v-5.8H160.1z"/>
	<path class="st1" d="M166.7,63v2.2c0,0.2,0,0.5,0.1,0.8h-0.6l-0.1-0.6c-0.4,0.4-0.9,0.7-1.4,0.7c-0.7,0-1.2-0.5-1.2-1.2
		c0-1.2,1.4-1.5,2.5-1.7V63c0-0.6-0.4-0.8-0.9-0.8c-0.5,0-0.9,0.3-1.1,0.6l-0.5-0.3c0.3-0.6,0.9-0.9,1.6-0.9
		C166.1,61.8,166.7,62.2,166.7,63z M164.9,65.6c0.4,0,1-0.3,1.3-0.7v-1.1c-0.7,0.1-2,0.4-2,1.2C164.2,65.3,164.6,65.6,164.9,65.6z"
		/>
	<path class="st1" d="M170.9,63.6V64h-2.7c0,1,0.6,1.6,1.2,1.6c0.5,0,0.9-0.3,1.1-0.7l0.4,0.2c-0.4,0.7-0.9,1-1.6,1
		c-1.1,0-1.8-0.8-1.8-2.2c0-1.5,0.8-2.2,1.7-2.2C170.2,61.8,170.9,62.4,170.9,63.6z M170.3,63.5c0-0.8-0.4-1.3-1-1.3s-1,0.4-1.1,1.3
		H170.3z"/>
	<path class="st1" d="M176.1,61.8c0.8,0,1.1,0.4,1.1,1.2v3h-0.6v-3c0-0.5-0.2-0.7-0.6-0.7c-0.5,0-0.8,0.3-1.2,0.6V66h-0.6v-3
		c0-0.5-0.2-0.7-0.6-0.7c-0.5,0-0.8,0.3-1.2,0.6V66H172v-4.2h0.6v0.6c0.4-0.4,0.8-0.6,1.2-0.6c0.5,0,0.9,0.3,1.1,0.7
		C175.2,62,175.7,61.8,176.1,61.8z"/>
	<path class="st1" d="M181.7,63.9c0,1.1-0.5,2.2-1.7,2.2s-1.7-1-1.7-2.2c0-1.1,0.5-2.2,1.7-2.2S181.7,62.8,181.7,63.9z M180,65.6
		c0.8,0,1.1-0.8,1.1-1.7s-0.3-1.7-1.1-1.7c-0.8,0-1.1,0.9-1.1,1.7C178.8,64.7,179.1,65.6,180,65.6z"/>
	<path class="st1" d="M185.8,62.3c-0.3,0-0.5,0-0.6,0.1c0.2,0.2,0.3,0.5,0.3,0.8c0,0.8-0.7,1.5-1.5,1.5c-0.3,0-0.4,0-0.7-0.1
		c-0.2,0.1-0.3,0.2-0.3,0.4c0,0.2,0.1,0.3,0.4,0.3c1.8,0,2.6,0.3,2.6,1.2c0,0.6-0.6,1.1-1.9,1.1c-1.2,0-1.8-0.3-1.8-1
		c0-0.4,0.3-0.6,0.7-0.8c-0.3-0.1-0.5-0.3-0.5-0.6c0-0.4,0.3-0.5,0.6-0.7c-0.4-0.3-0.6-0.7-0.6-1.2c0-0.9,0.7-1.5,1.6-1.5
		c0.4,0,0.8,0.1,1,0.3c0.2-0.2,0.6-0.3,0.9-0.4V62.3z M184,67c0.8,0,1.3-0.2,1.3-0.6c0-0.4-0.4-0.6-1.4-0.6c-0.6,0-1.2,0.2-1.2,0.7
		C182.7,66.9,182.9,67,184,67z M183.9,64.2c0.6,0,1-0.4,1-0.9c0-0.6-0.4-1-1.1-1c-0.6,0-1,0.4-1,1S183.3,64.2,183.9,64.2z"/>
	<path class="st1" d="M187.4,60.2V66h-0.6v-5.8H187.4z"/>
	<path class="st1" d="M191.9,63.9c0,1.1-0.5,2.2-1.7,2.2s-1.7-1-1.7-2.2c0-1.1,0.5-2.2,1.7-2.2S191.9,62.8,191.9,63.9z M190.2,65.6
		c0.8,0,1.1-0.8,1.1-1.7s-0.3-1.7-1.1-1.7c-0.8,0-1.1,0.9-1.1,1.7C189.1,64.7,189.3,65.6,190.2,65.6z"/>
	<path class="st1" d="M193.5,60.2v2c0.4-0.3,0.7-0.5,1.1-0.5c0.8,0,1.7,0.6,1.7,2.2c0,1.5-0.8,2.2-1.7,2.2c-0.5,0-0.9-0.2-1.2-0.5
		l-0.1,0.4h-0.4c0-0.1,0-0.3,0-0.4v-5.4H193.5z M193.5,65c0.4,0.4,0.7,0.6,1,0.6c0.9,0,1.2-0.8,1.2-1.6c0-1.1-0.4-1.7-1.2-1.7
		c-0.3,0-0.7,0.2-1,0.6V65z"/>
	<path class="st1" d="M198,60.1v0.7h-0.6v-0.7H198z M198,61.8V66h-0.6v-4.2H198z"/>
	<path class="st1" d="M202.6,62.9V66H202v-3c0-0.4-0.2-0.7-0.7-0.7c-0.4,0-0.9,0.3-1.2,0.6V66h-0.6v-4.2h0.6v0.6h0
		c0.4-0.4,0.8-0.6,1.2-0.6C202.1,61.8,202.6,62.2,202.6,62.9z"/>
	<path class="st1" d="M204.9,65.1V66l-0.5,1.2h-0.3l0.4-1.2h-0.3v-0.9H204.9z M204.9,62.8v0.9h-0.8v-0.9H204.9z"/>
	<path class="st1" d="M209.8,60.2V66h-0.6v-5.8H209.8z"/>
	<path class="st1" d="M211.6,60.2l1.4,4.7h0l1.4-4.7h0.6l-1.8,5.8h-0.6l-1.8-5.8H211.6z"/>
	<path class="st1" d="M216,65.1V66l-0.5,1.2h-0.3l0.4-1.2h-0.3v-0.9H216z"/>
	<path class="st1" d="M220.7,60.1v0.7h-0.6v-0.7H220.7z M220.7,61.8V66h-0.6v-4.2H220.7z"/>
	<path class="st1" d="M225.2,62.9V66h-0.6v-3c0-0.4-0.2-0.7-0.7-0.7c-0.4,0-0.9,0.3-1.2,0.6V66h-0.6v-4.2h0.6v0.6h0
		c0.4-0.4,0.8-0.6,1.2-0.6C224.8,61.8,225.2,62.2,225.2,62.9z"/>
	<path class="st1" d="M227.4,60.5v1.4h1v0.5h-1v3c0,0.2,0.1,0.3,0.5,0.3c0.2,0,0.3,0,0.5,0V66c-0.1,0-0.3,0.1-0.7,0.1
		c-0.6,0-0.9-0.1-0.9-0.7v-3.1h-0.7v-0.5h0.7v-1.4H227.4z"/>
	<path class="st1" d="M231.1,62.4c-0.8,0-1.1,0.5-1.4,1.3V66h-0.6v-4.2h0.6v0.8h0c0.3-0.6,0.7-0.9,1.3-0.9h0V62.4z"/>
	<path class="st1" d="M234.7,63v2.2c0,0.2,0,0.5,0.1,0.8h-0.6l-0.1-0.6c-0.4,0.4-0.9,0.7-1.4,0.7c-0.7,0-1.2-0.5-1.2-1.2
		c0-1.2,1.4-1.5,2.5-1.7V63c0-0.6-0.4-0.8-0.9-0.8c-0.5,0-0.9,0.3-1.1,0.6l-0.5-0.3c0.3-0.6,0.9-0.9,1.6-0.9
		C234.1,61.8,234.7,62.2,234.7,63z M232.9,65.6c0.4,0,1-0.3,1.3-0.7v-1.1c-0.7,0.1-2,0.4-2,1.2C232.2,65.3,232.5,65.6,232.9,65.6z"
		/>
	<path class="st1" d="M236,61.8l1.1,3.4h0l1.1-3.4h0.6l-1.2,4.2h-0.8l-1.3-4.2H236z"/>
	<path class="st1" d="M242.4,63.6V64h-2.7c0,1,0.6,1.6,1.2,1.6c0.5,0,0.9-0.3,1.1-0.7l0.4,0.2c-0.4,0.7-0.9,1-1.6,1
		c-1.1,0-1.8-0.8-1.8-2.2c0-1.5,0.8-2.2,1.7-2.2C241.8,61.8,242.4,62.4,242.4,63.6z M241.9,63.5c0-0.8-0.4-1.3-1-1.3s-1,0.4-1.1,1.3
		H241.9z"/>
	<path class="st1" d="M246.6,62.9V66H246v-3c0-0.4-0.2-0.7-0.7-0.7c-0.4,0-0.9,0.3-1.2,0.6V66h-0.6v-4.2h0.6v0.6h0
		c0.4-0.4,0.8-0.6,1.2-0.6C246.1,61.8,246.6,62.2,246.6,62.9z"/>
	<path class="st1" d="M251,63.9c0,1.1-0.5,2.2-1.7,2.2s-1.7-1-1.7-2.2c0-1.1,0.5-2.2,1.7-2.2S251,62.8,251,63.9z M249.3,65.6
		c0.8,0,1.1-0.8,1.1-1.7s-0.3-1.7-1.1-1.7c-0.8,0-1.1,0.9-1.1,1.7C248.2,64.7,248.4,65.6,249.3,65.6z"/>
	<path class="st1" d="M252.6,61.8v3c0,0.4,0.2,0.7,0.7,0.7c0.4,0,0.9-0.3,1.2-0.6v-3.1h0.6V66h-0.6v-0.6h0c-0.4,0.4-0.8,0.6-1.2,0.6
		c-0.7,0-1.2-0.5-1.2-1.2v-3H252.6z"/>
	<path class="st1" d="M258.9,62.5l-0.4,0.4c-0.3-0.4-0.6-0.6-1.1-0.6c-0.5,0-0.8,0.2-0.8,0.6c0,0.3,0.3,0.5,0.9,0.7
		c0.8,0.2,1.5,0.5,1.5,1.3c0,0.8-0.7,1.2-1.5,1.2c-0.6,0-1.3-0.3-1.7-0.8l0.5-0.3c0.3,0.4,0.7,0.6,1.2,0.6c0.5,0,0.9-0.2,0.9-0.7
		c0-0.4-0.3-0.6-0.9-0.7c-0.9-0.3-1.5-0.5-1.5-1.2c0-0.8,0.6-1.2,1.3-1.2C257.9,61.8,258.6,62,258.9,62.5z"/>
</g>
<g class="st0">
	<path class="st1" d="M12.3,68.2v0.9H9.7v1.4h1.9v0.9H9.7V74H8.6v-5.8H12.3z"/>
	<path class="st1" d="M16.3,71.9c0,1.3-0.7,2.2-1.8,2.2c-1.1,0-1.8-0.8-1.8-2.2c0-1.3,0.7-2.2,1.8-2.2S16.3,70.6,16.3,71.9z
		 M14.4,73.3c0.5,0,0.8-0.4,0.8-1.4c0-0.9-0.3-1.4-0.8-1.4c-0.6,0-0.8,0.5-0.8,1.4C13.6,72.9,13.9,73.3,14.4,73.3z"/>
	<path class="st1" d="M19,70.8c0,0-0.1,0-0.2,0c-0.5,0-0.9,0.5-0.9,0.7V74h-1v-4.2h0.9v0.7h0c0.2-0.5,0.6-0.8,1.2-0.8V70.8z"/>
	<path class="st1" d="M23.3,68.2v2.3h2.2v-2.3h1.1V74h-1.1v-2.5h-2.2V74h-1.1v-5.8H23.3z"/>
	<path class="st1" d="M31,71.6v0.4h-2.5c0,0.8,0.3,1.2,0.9,1.2c0.4,0,0.6-0.1,0.9-0.5l0.7,0.4c-0.4,0.6-0.9,0.8-1.7,0.8
		c-1.1,0-1.8-0.8-1.8-2.2s0.7-2.2,1.8-2.2C30.5,69.8,31,70.8,31,71.6z M30.1,71.4c0-0.6-0.3-0.9-0.8-0.9c-0.5,0-0.8,0.3-0.8,0.9
		H30.1z"/>
	<path class="st1" d="M34.8,71.4v2c0,0.1,0,0.4,0.1,0.6h-1l-0.1-0.4c-0.4,0.3-0.8,0.4-1.3,0.4c-0.7,0-1.1-0.5-1.1-1.1
		c0-0.9,0.8-1.4,2.4-1.6V71c0-0.3-0.3-0.5-0.6-0.5c-0.3,0-0.6,0.2-0.9,0.5l-0.6-0.5c0.3-0.4,0.9-0.8,1.5-0.8
		C34.4,69.8,34.8,70.2,34.8,71.4z M32.9,73.3c0.3,0,0.6-0.2,0.9-0.4V72c-1.1,0.2-1.4,0.5-1.4,0.8C32.5,73.2,32.7,73.3,32.9,73.3z"/>
	<path class="st1" d="M36.9,68.2V74h-1v-5.8H36.9z"/>
	<path class="st1" d="M39.2,68.5v1.4H40v0.8h-0.8V73c0,0.2,0.1,0.3,0.4,0.3c0.2,0,0.3,0,0.5-0.1V74c-0.3,0-0.5,0.1-0.8,0.1
		c-0.7,0-1-0.3-1-1v-2.5h-0.6v-0.8h0.6v-1.4H39.2z"/>
	<path class="st1" d="M41.7,68.2v2.1c0.4-0.4,0.8-0.5,1.2-0.5c0.8,0,1.2,0.5,1.2,1.4V74h-1v-2.7c0-0.5-0.1-0.7-0.5-0.7
		c-0.3,0-0.7,0.2-0.9,0.4v3h-1v-5.8H41.7z"/>
	<path class="st1" d="M48.3,70.9l-0.8,0.3c-0.2-0.5-0.4-0.6-0.8-0.6c-0.6,0-0.8,0.4-0.8,1.4c0,0.9,0.3,1.4,0.8,1.4
		c0.4,0,0.6-0.2,0.9-0.7l0.8,0.4c-0.4,0.7-0.9,1-1.6,1c-1.2,0-1.8-0.8-1.8-2.2c0-1.3,0.7-2.2,1.8-2.2C47.4,69.8,48.1,70.2,48.3,70.9
		z"/>
	<path class="st1" d="M52.2,71.4v2c0,0.1,0,0.4,0.1,0.6h-1l-0.1-0.4c-0.4,0.3-0.8,0.4-1.3,0.4c-0.7,0-1.1-0.5-1.1-1.1
		c0-0.9,0.8-1.4,2.4-1.6V71c0-0.3-0.3-0.5-0.6-0.5c-0.3,0-0.6,0.2-0.9,0.5L49,70.5c0.3-0.4,0.9-0.8,1.5-0.8
		C51.7,69.8,52.2,70.2,52.2,71.4z M50.3,73.3c0.3,0,0.6-0.2,0.9-0.4V72c-1.1,0.2-1.4,0.5-1.4,0.8C49.8,73.2,50,73.3,50.3,73.3z"/>
	<path class="st1" d="M55.2,70.8c0,0-0.1,0-0.2,0c-0.5,0-0.9,0.5-0.9,0.7V74h-1v-4.2H54v0.7h0c0.2-0.5,0.6-0.8,1.2-0.8V70.8z"/>
	<path class="st1" d="M59,71.6v0.4h-2.5c0,0.8,0.3,1.2,0.9,1.2c0.4,0,0.6-0.1,0.9-0.5l0.7,0.4c-0.4,0.6-0.9,0.8-1.7,0.8
		c-1.1,0-1.8-0.8-1.8-2.2s0.7-2.2,1.8-2.2C58.5,69.8,59,70.8,59,71.6z M58.1,71.4c0-0.6-0.3-0.9-0.8-0.9c-0.5,0-0.8,0.3-0.8,0.9
		H58.1z"/>
	<path class="st1" d="M64.4,68.2c1.3,0,2,0.6,2,1.7s-0.7,1.7-2,1.7h-1V74h-1.1v-5.8H64.4z M64.3,70.8c0.7,0,1-0.2,1-0.8
		s-0.4-0.8-1-0.8h-0.9v1.6H64.3z"/>
	<path class="st1" d="M69.2,70.8c0,0-0.1,0-0.2,0c-0.5,0-0.9,0.5-0.9,0.7V74h-1v-4.2H68v0.7h0c0.2-0.5,0.6-0.8,1.2-0.8V70.8z"/>
	<path class="st1" d="M73.1,71.9c0,1.3-0.7,2.2-1.8,2.2c-1.1,0-1.8-0.8-1.8-2.2c0-1.3,0.7-2.2,1.8-2.2S73.1,70.6,73.1,71.9z
		 M71.3,73.3c0.5,0,0.8-0.4,0.8-1.4c0-0.9-0.3-1.4-0.8-1.4c-0.6,0-0.8,0.5-0.8,1.4C70.5,72.9,70.8,73.3,71.3,73.3z"/>
	<path class="st1" d="M75.8,68.1v0.8h-0.2c-0.5,0-0.6,0.2-0.6,0.5v0.4h0.8v0.8H75V74h-1v-3.4h-0.6v-0.8H74v-0.5
		c0-0.8,0.3-1.2,1.1-1.2H75.8z"/>
	<path class="st1" d="M79.7,71.6v0.4h-2.5c0,0.8,0.3,1.2,0.9,1.2c0.4,0,0.6-0.1,0.9-0.5l0.7,0.4c-0.4,0.6-0.9,0.8-1.7,0.8
		c-1.1,0-1.8-0.8-1.8-2.2s0.7-2.2,1.8-2.2C79.1,69.8,79.7,70.8,79.7,71.6z M78.8,71.4c0-0.6-0.3-0.9-0.8-0.9c-0.5,0-0.8,0.3-0.8,0.9
		H78.8z"/>
	<path class="st1" d="M83.1,70.4l-0.6,0.5c-0.3-0.3-0.5-0.4-0.8-0.4c-0.4,0-0.6,0.2-0.6,0.4c0,0.2,0.2,0.4,0.7,0.6
		c1,0.3,1.3,0.7,1.3,1.4c0,0.8-0.6,1.2-1.5,1.2c-0.7,0-1.2-0.3-1.6-0.8l0.7-0.5c0.3,0.4,0.6,0.6,1,0.6c0.4,0,0.6-0.2,0.6-0.5
		c0-0.2-0.2-0.4-0.8-0.6c-1-0.3-1.3-0.7-1.3-1.3c0-0.7,0.6-1.2,1.4-1.2C82.2,69.8,82.8,70,83.1,70.4z"/>
	<path class="st1" d="M86.7,70.4l-0.6,0.5c-0.3-0.3-0.5-0.4-0.8-0.4c-0.4,0-0.6,0.2-0.6,0.4c0,0.2,0.2,0.4,0.7,0.6
		c1,0.3,1.3,0.7,1.3,1.4c0,0.8-0.6,1.2-1.5,1.2c-0.7,0-1.2-0.3-1.6-0.8l0.7-0.5c0.3,0.4,0.6,0.6,1,0.6c0.4,0,0.6-0.2,0.6-0.5
		c0-0.2-0.2-0.4-0.8-0.6c-1-0.3-1.3-0.7-1.3-1.3c0-0.7,0.6-1.2,1.4-1.2C85.8,69.8,86.3,70,86.7,70.4z"/>
	<path class="st1" d="M88.7,68.1v0.9h-1v-0.9H88.7z M88.7,69.8V74h-1v-4.2H88.7z"/>
	<path class="st1" d="M93.1,71.9c0,1.3-0.7,2.2-1.8,2.2c-1.1,0-1.8-0.8-1.8-2.2c0-1.3,0.7-2.2,1.8-2.2S93.1,70.6,93.1,71.9z
		 M91.3,73.3c0.5,0,0.8-0.4,0.8-1.4c0-0.9-0.3-1.4-0.8-1.4c-0.6,0-0.8,0.5-0.8,1.4C90.5,72.9,90.8,73.3,91.3,73.3z"/>
	<path class="st1" d="M97.2,71.1V74h-1v-2.7c0-0.5-0.1-0.7-0.5-0.7c-0.3,0-0.7,0.2-0.9,0.4v3h-1v-4.2h0.9v0.4
		c0.5-0.4,0.9-0.5,1.3-0.5C96.8,69.8,97.2,70.3,97.2,71.1z"/>
	<path class="st1" d="M101.3,71.4v2c0,0.1,0,0.4,0.1,0.6h-1l-0.1-0.4c-0.4,0.3-0.8,0.4-1.3,0.4c-0.7,0-1.1-0.5-1.1-1.1
		c0-0.9,0.8-1.4,2.4-1.6V71c0-0.3-0.3-0.5-0.6-0.5c-0.3,0-0.6,0.2-0.9,0.5l-0.6-0.5c0.3-0.4,0.9-0.8,1.5-0.8
		C100.8,69.8,101.3,70.2,101.3,71.4z M99.4,73.3c0.3,0,0.6-0.2,0.9-0.4V72c-1.1,0.2-1.4,0.5-1.4,0.8C98.9,73.2,99.1,73.3,99.4,73.3z
		"/>
	<path class="st1" d="M103.4,68.2V74h-1v-5.8H103.4z"/>
	<path class="st1" d="M107.1,70.4l-0.6,0.5c-0.3-0.3-0.5-0.4-0.8-0.4c-0.4,0-0.6,0.2-0.6,0.4c0,0.2,0.2,0.4,0.7,0.6
		c1,0.3,1.3,0.7,1.3,1.4c0,0.8-0.6,1.2-1.5,1.2c-0.7,0-1.2-0.3-1.6-0.8l0.7-0.5c0.3,0.4,0.6,0.6,1,0.6c0.4,0,0.6-0.2,0.6-0.5
		c0-0.2-0.2-0.4-0.8-0.6c-1-0.3-1.3-0.7-1.3-1.3c0-0.7,0.6-1.2,1.4-1.2C106.2,69.8,106.8,70,107.1,70.4z"/>
	<path class="st1" d="M115.1,71.1c0,1.9-0.9,3-2.4,3s-2.4-1.1-2.4-3c0-1.9,0.9-3,2.4-3S115.1,69.2,115.1,71.1z M112.6,73.2
		c0.9,0,1.3-0.7,1.3-2c0-1.4-0.4-2-1.3-2c-0.9,0-1.3,0.6-1.3,2.1C111.3,72.5,111.7,73.2,112.6,73.2z"/>
	<path class="st1" d="M119.2,71.1V74h-1v-2.7c0-0.5-0.1-0.7-0.5-0.7c-0.3,0-0.7,0.2-0.9,0.4v3h-1v-4.2h0.9v0.4
		c0.5-0.4,0.9-0.5,1.3-0.5C118.8,69.8,119.2,70.3,119.2,71.1z"/>
	<path class="st1" d="M121.4,68.2V74h-1v-5.8H121.4z"/>
	<path class="st1" d="M123.1,69.8l0.7,2.6h0l0.7-2.6h1l-1.3,4.2c-0.1,0.2-0.2,0.5-0.4,0.8c-0.3,0.5-0.7,0.7-1.2,0.7
		c-0.2,0-0.3,0-0.5,0v-0.8c0.1,0,0.3,0,0.5,0c0.2,0,0.4,0,0.5-0.2c0.1-0.1,0.3-0.4,0.3-0.6c0-0.1,0-0.1,0-0.2l-1.2-3.9H123.1z"/>
</g>
<g class="st0">
	<path class="st1" d="M277.1,63.1v5.1h0.9V69h-2.8v-0.8h0.9v-4h-1v-0.7c0.5,0,1-0.1,1.3-0.4H277.1z"/>
	<path class="st1" d="M280.7,67.9V69h-1.1v-1.1H280.7z"/>
</g>
<g class="st0">
	<path class="st1" d="M288.1,63.2v0.5h-2.8v1.9h2v0.5h-2v2.2h3V69h-3.6v-5.8H288.1z"/>
	<path class="st1" d="M289.4,63.2l1.4,4.7h0l1.4-4.7h0.6l-1.8,5.8h-0.6l-1.8-5.8H289.4z"/>
	<path class="st1" d="M295.8,63.2c1.1,0,1.9,0.5,1.9,1.5c0,0.7-0.4,1.2-1.2,1.5l1.2,2.8h-0.7l-1.2-2.6h-1.4V69h-0.6v-5.8H295.8z
		 M295.7,65.8c0.8,0,1.3-0.3,1.3-1.1c0-0.7-0.4-1-1.3-1h-1.2v2.1H295.7z"/>
	<path class="st1" d="M302.8,63.2v0.5h-2.8v1.9h2v0.5h-2v2.2h3V69h-3.6v-5.8H302.8z"/>
	<path class="st1" d="M305.1,63.2l2.5,4.4h0v-4.4h0.6V69h-0.5l-2.9-5.1h0V69h-0.6v-5.8H305.1z"/>
	<path class="st1" d="M313.2,63.2v0.4l-2.9,4.8h3V69h-3.7v-0.5l2.9-4.8h-2.6v-0.5H313.2z"/>
	<path class="st1" d="M318.5,66.1c0,1.6-0.6,3-2.3,3s-2.3-1.4-2.3-3c0-1.6,0.6-3,2.3-3C317.9,63.1,318.5,64.5,318.5,66.1z
		 M316.2,68.5c1,0,1.6-0.8,1.6-2.4c0-1.6-0.6-2.4-1.6-2.4c-1,0-1.6,0.8-1.6,2.4C314.6,67.7,315.2,68.5,316.2,68.5z"/>
	<path class="st1" d="M325.5,64.6l-0.6,0.1c-0.2-0.6-0.7-1-1.3-1c-0.7,0-1.1,0.3-1.1,0.9c0,0.5,0.5,0.7,1.1,1
		c1.1,0.4,2.1,0.7,2.1,1.8c0,1.2-0.8,1.7-1.9,1.7c-1,0-1.6-0.5-2.1-1.5l0.6-0.2c0.3,0.8,0.8,1.2,1.5,1.2c0.7,0,1.3-0.3,1.3-1
		c0-0.7-0.7-1-1.6-1.3c-1-0.4-1.7-0.7-1.7-1.6c0-0.9,0.8-1.5,1.7-1.5C324.5,63.1,325.2,63.7,325.5,64.6z"/>
	<path class="st1" d="M331.1,64.8c0.8,0,1.1,0.4,1.1,1.2v3h-0.6v-3c0-0.5-0.2-0.7-0.6-0.7c-0.5,0-0.8,0.3-1.2,0.6V69h-0.6v-3
		c0-0.5-0.2-0.7-0.6-0.7c-0.5,0-0.8,0.3-1.2,0.6V69h-0.6v-4.2h0.6v0.6c0.4-0.4,0.8-0.6,1.2-0.6c0.5,0,0.9,0.3,1.1,0.7
		C330.1,65,330.6,64.8,331.1,64.8z"/>
	<path class="st1" d="M335.7,63.2c1.1,0,1.8,0.5,1.8,1.6c0,1.2-1,1.6-2.1,1.6h-1V69h-0.6v-5.8H335.7z M335.4,65.9
		c1,0,1.4-0.3,1.4-1.1s-0.5-1.1-1.3-1.1h-1.2v2.1H335.4z"/>
	<path class="st1" d="M342.3,64.8l-0.6,0.2c-0.2-0.8-0.6-1.3-1.4-1.3c-1.1,0-1.5,1.2-1.5,2.4c0,1.6,0.6,2.4,1.6,2.4
		c0.7,0,1.2-0.4,1.4-1.4l0.6,0.1c-0.3,1.2-1,1.8-2,1.8c-1.6,0-2.2-1.4-2.2-3c0-1.6,0.6-3,2.2-3C341.3,63.1,342,63.7,342.3,64.8z"/>
	<path class="st1" d="M344.3,68.1V69h-0.8v-0.9H344.3z"/>
</g>
<g class="st0">
	<path class="st1" d="M278.3,72.8c0,0.6-0.3,1.1-0.7,1.6c-0.4,0.4-1.6,1.3-2,1.7h2.7V77h-3.9v-1c0.1-0.3,0.4-0.7,1.2-1.3
		c1.4-1.1,1.6-1.5,1.6-1.9c0-0.5-0.3-0.8-0.9-0.8c-0.5,0-0.9,0.3-1,0.9l-0.9-0.2c0.1-0.9,1-1.6,2-1.6
		C277.5,71.1,278.3,71.8,278.3,72.8z"/>
	<path class="st1" d="M280.7,75.9V77h-1.1v-1.1H280.7z"/>
</g>
<g class="st0">
	<path class="st1" d="M286.7,71.2c1,0,1.7,0.5,1.7,1.4c0,0.7-0.3,1.1-1,1.3l0,0c0.7,0.2,1.1,0.8,1.1,1.5c0,1-0.7,1.6-2.1,1.6h-1.8
		v-5.8H286.7z M286.4,73.7c0.7,0,1.4-0.3,1.4-1c0-0.7-0.4-0.9-1.1-0.9h-1.4v1.9H286.4z M286.5,76.5c0.9,0,1.4-0.3,1.4-1
		c0-0.8-0.7-1.2-1.5-1.2h-1.1v2.2H286.5z"/>
	<path class="st1" d="M292.6,74v2.2c0,0.2,0,0.5,0.1,0.8h-0.6l-0.1-0.6c-0.4,0.4-0.9,0.7-1.4,0.7c-0.7,0-1.2-0.5-1.2-1.2
		c0-1.2,1.4-1.5,2.5-1.7V74c0-0.6-0.4-0.8-0.9-0.8c-0.5,0-0.9,0.3-1.1,0.6l-0.5-0.3c0.3-0.6,0.9-0.9,1.6-0.9
		C291.9,72.8,292.6,73.2,292.6,74z M290.7,76.6c0.4,0,1-0.3,1.3-0.7v-1.1c-0.7,0.1-2,0.4-2,1.2C290,76.3,290.4,76.6,290.7,76.6z"/>
	<path class="st1" d="M295.6,73.4c-0.8,0-1.1,0.5-1.4,1.3V77h-0.6v-4.2h0.6v0.8h0c0.3-0.6,0.7-0.9,1.3-0.9h0V73.4z"/>
	<path class="st1" d="M298.3,73.4c-0.8,0-1.1,0.5-1.4,1.3V77h-0.6v-4.2h0.6v0.8h0c0.3-0.6,0.7-0.9,1.3-0.9h0V73.4z"/>
	<path class="st1" d="M301.9,74v2.2c0,0.2,0,0.5,0.1,0.8h-0.6l-0.1-0.6c-0.4,0.4-0.9,0.7-1.4,0.7c-0.7,0-1.2-0.5-1.2-1.2
		c0-1.2,1.4-1.5,2.5-1.7V74c0-0.6-0.4-0.8-0.9-0.8c-0.5,0-0.9,0.3-1.1,0.6l-0.5-0.3c0.3-0.6,0.9-0.9,1.6-0.9
		C301.2,72.8,301.9,73.2,301.9,74z M300,76.6c0.4,0,1-0.3,1.3-0.7v-1.1c-0.7,0.1-2,0.4-2,1.2C299.3,76.3,299.7,76.6,300,76.6z"/>
	<path class="st1" d="M303.8,71.5v1.4h1v0.5h-1v3c0,0.2,0.1,0.3,0.5,0.3c0.2,0,0.3,0,0.5,0V77c-0.1,0-0.3,0.1-0.7,0.1
		c-0.6,0-0.9-0.1-0.9-0.7v-3.1h-0.7v-0.5h0.7v-1.4H303.8z"/>
	<path class="st1" d="M306.5,71.5v1.4h1v0.5h-1v3c0,0.2,0.1,0.3,0.5,0.3c0.2,0,0.3,0,0.5,0V77c-0.1,0-0.3,0.1-0.7,0.1
		c-0.6,0-0.9-0.1-0.9-0.7v-3.1h-0.7v-0.5h0.7v-1.4H306.5z"/>
	<path class="st1" d="M313,71.2v4.3c0,1-0.4,1.5-1.3,1.5c-0.6,0-1-0.2-1.4-0.7l0.5-0.3c0.2,0.3,0.5,0.5,0.9,0.5
		c0.5,0,0.7-0.3,0.7-0.8v-4.5H313z"/>
	<path class="st1" d="M319.8,74.6V75h-2.7c0,1,0.6,1.6,1.2,1.6c0.5,0,0.9-0.3,1.1-0.7l0.4,0.2c-0.4,0.7-0.9,1-1.6,1
		c-1.1,0-1.8-0.8-1.8-2.2c0-1.5,0.8-2.2,1.7-2.2C319.1,72.8,319.8,73.4,319.8,74.6z M319.2,74.5c0-0.8-0.4-1.3-1-1.3
		c-0.6,0-1,0.4-1.1,1.3H319.2z"/>
	<path class="st1" d="M321.6,71.5v1.4h1v0.5h-1v3c0,0.2,0.1,0.3,0.5,0.3c0.2,0,0.3,0,0.5,0V77c-0.1,0-0.3,0.1-0.7,0.1
		c-0.6,0-0.9-0.1-0.9-0.7v-3.1h-0.7v-0.5h0.7v-1.4H321.6z"/>
	<path class="st1" d="M328.7,74v2.2c0,0.2,0,0.5,0.1,0.8h-0.6l-0.1-0.6c-0.4,0.4-0.9,0.7-1.4,0.7c-0.7,0-1.2-0.5-1.2-1.2
		c0-1.2,1.4-1.5,2.5-1.7V74c0-0.6-0.4-0.8-0.9-0.8c-0.5,0-0.9,0.3-1.1,0.6l-0.5-0.3c0.3-0.6,0.9-0.9,1.6-0.9
		C328.1,72.8,328.7,73.2,328.7,74z M326.9,76.6c0.4,0,1-0.3,1.3-0.7v-1.1c-0.7,0.1-2,0.4-2,1.2C326.2,76.3,326.6,76.6,326.9,76.6z"
		/>
	<path class="st1" d="M330.7,71.2V77h-0.6v-5.8H330.7z"/>
	<path class="st1" d="M333.1,76.1V77h-0.8v-0.9H333.1z"/>
	<path class="st1" d="M338.2,71.2l2.5,4.4h0v-4.4h0.6V77h-0.5l-2.9-5.1h0V77h-0.6v-5.8H338.2z"/>
	<path class="st1" d="M345.8,74.6V75h-2.7c0,1,0.6,1.6,1.2,1.6c0.5,0,0.9-0.3,1.1-0.7l0.4,0.2c-0.4,0.7-0.9,1-1.6,1
		c-1.1,0-1.8-0.8-1.8-2.2c0-1.5,0.8-2.2,1.7-2.2C345.1,72.8,345.8,73.4,345.8,74.6z M345.2,74.5c0-0.8-0.4-1.3-1-1.3
		c-0.6,0-1,0.4-1.1,1.3H345.2z"/>
	<path class="st1" d="M350.3,74.9c0,1.7-1.1,2.2-1.7,2.2c-0.4,0-0.8-0.2-1.1-0.5v1.9h-0.6v-5.7h0.6v0.5c0.2-0.3,0.7-0.6,1.1-0.6
		C349.1,72.8,350.3,73.1,350.3,74.9z M347.5,76c0.4,0.4,0.7,0.6,1.1,0.6c0.8,0,1.2-0.6,1.2-1.7c0-1-0.4-1.6-1.2-1.6
		c-0.4,0-0.8,0.3-1,0.6V76z"/>
	<path class="st1" d="M351.9,71.2v2.2h0c0.4-0.4,0.8-0.6,1.2-0.6c0.8,0,1.2,0.5,1.2,1.2V77h-0.6v-3c0-0.4-0.2-0.7-0.7-0.7
		c-0.4,0-0.9,0.3-1.2,0.6V77h-0.6v-5.8H351.9z"/>
	<path class="st1" d="M357.6,73.4c-0.8,0-1.1,0.5-1.4,1.3V77h-0.6v-4.2h0.6v0.8h0c0.3-0.6,0.7-0.9,1.3-0.9h0V73.4z"/>
	<path class="st1" d="M361.4,74.9c0,1.1-0.5,2.2-1.7,2.2s-1.7-1-1.7-2.2c0-1.1,0.5-2.2,1.7-2.2S361.4,73.8,361.4,74.9z M359.7,76.6
		c0.8,0,1.1-0.8,1.1-1.7s-0.3-1.7-1.1-1.7c-0.8,0-1.1,0.9-1.1,1.7C358.6,75.7,358.9,76.6,359.7,76.6z"/>
	<path class="st1" d="M363.1,71.2V77h-0.6v-5.8H363.1z"/>
	<path class="st1" d="M368.8,71.2c1.7,0,2.6,1.2,2.6,2.9c0,1.7-0.9,2.9-2.6,2.9h-1.6v-5.8H368.8z M368.7,76.5c1.4,0,2-0.9,2-2.3
		c0-1.6-0.7-2.3-2-2.3h-0.9v4.7H368.7z"/>
	<path class="st1" d="M373.1,71.1v0.7h-0.6v-0.7H373.1z M373.1,72.8V77h-0.6v-4.2H373.1z"/>
	<path class="st1" d="M377.4,74v2.2c0,0.2,0,0.5,0.1,0.8h-0.6l-0.1-0.6c-0.4,0.4-0.9,0.7-1.4,0.7c-0.7,0-1.2-0.5-1.2-1.2
		c0-1.2,1.4-1.5,2.5-1.7V74c0-0.6-0.4-0.8-0.9-0.8c-0.5,0-0.9,0.3-1.1,0.6l-0.5-0.3c0.3-0.6,0.9-0.9,1.6-0.9
		C376.8,72.8,377.4,73.2,377.4,74z M375.6,76.6c0.4,0,1-0.3,1.3-0.7v-1.1c-0.7,0.1-2,0.4-2,1.2C374.9,76.3,375.2,76.6,375.6,76.6z"
		/>
	<path class="st1" d="M379.4,71.2V77h-0.6v-5.8H379.4z"/>
	<path class="st1" d="M386.9,71.2v0.5h-1.7V77h-0.6v-5.2h-1.7v-0.5H386.9z"/>
	<path class="st1" d="M388.8,73.4c-0.8,0-1.1,0.5-1.4,1.3V77h-0.6v-4.2h0.6v0.8h0c0.3-0.6,0.7-0.9,1.3-0.9h0V73.4z"/>
	<path class="st1" d="M392.5,74v2.2c0,0.2,0,0.5,0.1,0.8H392l-0.1-0.6c-0.4,0.4-0.9,0.7-1.4,0.7c-0.7,0-1.2-0.5-1.2-1.2
		c0-1.2,1.4-1.5,2.5-1.7V74c0-0.6-0.4-0.8-0.9-0.8c-0.5,0-0.9,0.3-1.1,0.6l-0.5-0.3c0.3-0.6,0.9-0.9,1.6-0.9
		C391.8,72.8,392.5,73.2,392.5,74z M390.6,76.6c0.4,0,1-0.3,1.3-0.7v-1.1c-0.7,0.1-2,0.4-2,1.2C389.9,76.3,390.3,76.6,390.6,76.6z"
		/>
	<path class="st1" d="M396.7,73.9V77h-0.6v-3c0-0.4-0.2-0.7-0.7-0.7c-0.4,0-0.9,0.3-1.2,0.6V77h-0.6v-4.2h0.6v0.6h0
		c0.4-0.4,0.8-0.6,1.2-0.6C396.3,72.8,396.7,73.2,396.7,73.9z"/>
	<path class="st1" d="M400.6,73.5l-0.4,0.4c-0.3-0.4-0.6-0.6-1.1-0.6c-0.5,0-0.8,0.2-0.8,0.6c0,0.3,0.3,0.5,0.9,0.7
		c0.8,0.2,1.5,0.5,1.5,1.3c0,0.8-0.7,1.2-1.5,1.2c-0.6,0-1.3-0.3-1.7-0.8l0.5-0.3c0.3,0.4,0.7,0.6,1.2,0.6c0.5,0,0.9-0.2,0.9-0.7
		c0-0.4-0.3-0.6-0.9-0.7c-0.9-0.3-1.5-0.5-1.5-1.2c0-0.8,0.6-1.2,1.3-1.2C399.6,72.8,400.3,73,400.6,73.5z"/>
	<path class="st1" d="M405.1,74.9c0,1.7-1.1,2.2-1.7,2.2c-0.4,0-0.8-0.2-1.1-0.5v1.9h-0.6v-5.7h0.6v0.5c0.2-0.3,0.7-0.6,1.1-0.6
		C403.9,72.8,405.1,73.1,405.1,74.9z M402.3,76c0.4,0.4,0.7,0.6,1.1,0.6c0.8,0,1.2-0.6,1.2-1.7c0-1-0.4-1.6-1.2-1.6
		c-0.4,0-0.8,0.3-1,0.6V76z"/>
	<path class="st1" d="M406.8,71.2V77h-0.6v-5.8H406.8z"/>
	<path class="st1" d="M411.1,74v2.2c0,0.2,0,0.5,0.1,0.8h-0.6l-0.1-0.6c-0.4,0.4-0.9,0.7-1.4,0.7c-0.7,0-1.2-0.5-1.2-1.2
		c0-1.2,1.4-1.5,2.5-1.7V74c0-0.6-0.4-0.8-0.9-0.8c-0.5,0-0.9,0.3-1.1,0.6l-0.5-0.3c0.3-0.6,0.9-0.9,1.6-0.9
		C410.5,72.8,411.1,73.2,411.1,74z M409.3,76.6c0.4,0,1-0.3,1.3-0.7v-1.1c-0.7,0.1-2,0.4-2,1.2C408.6,76.3,408.9,76.6,409.3,76.6z"
		/>
	<path class="st1" d="M415.4,73.9V77h-0.6v-3c0-0.4-0.2-0.7-0.7-0.7c-0.4,0-0.9,0.3-1.2,0.6V77h-0.6v-4.2h0.6v0.6h0
		c0.4-0.4,0.8-0.6,1.2-0.6C415,72.8,415.4,73.2,415.4,73.9z"/>
	<path class="st1" d="M417.5,71.5v1.4h1v0.5h-1v3c0,0.2,0.1,0.3,0.5,0.3c0.2,0,0.3,0,0.5,0V77c-0.1,0-0.3,0.1-0.7,0.1
		c-0.6,0-0.9-0.1-0.9-0.7v-3.1h-0.7v-0.5h0.7v-1.4H417.5z"/>
	<path class="st1" d="M420.4,76.1V77h-0.8v-0.9H420.4z"/>
</g>
<g class="st0">
	<path class="st1" d="M278.3,80.7c0,0.6-0.2,1-0.6,1.4c-0.2,0.2-0.5,0.5-1,0.8c-0.7,0.5-1.2,0.9-1.5,1.6h3.1V85h-3.8v-0.6
		c0.3-0.7,0.9-1.3,1.5-1.7c0.3-0.2,0.6-0.4,0.9-0.6c0.5-0.4,0.8-0.8,0.8-1.4c0-0.7-0.4-1.1-1.2-1.1c-0.7,0-1.2,0.5-1.4,1.3l-0.6-0.1
		c0.3-1.1,0.9-1.6,1.9-1.6C277.5,79.1,278.3,79.7,278.3,80.7z"/>
	<path class="st1" d="M283.4,82.1c0,2-0.7,3-2,3c-1.3,0-2-1-2-3c0-2,0.7-3,2-3C282.7,79.1,283.4,80.2,283.4,82.1z M281.3,84.6
		c1,0,1.4-0.8,1.4-2.5c0-1.7-0.4-2.5-1.4-2.5c-1,0-1.4,0.8-1.4,2.5C279.9,83.8,280.4,84.6,281.3,84.6z"/>
	<path class="st1" d="M288.1,80.7c0,0.6-0.2,1-0.6,1.4c-0.2,0.2-0.5,0.5-1,0.8c-0.7,0.5-1.2,0.9-1.5,1.6h3.1V85h-3.8v-0.6
		c0.3-0.7,0.9-1.3,1.5-1.7c0.3-0.2,0.6-0.4,0.9-0.6c0.5-0.4,0.8-0.8,0.8-1.4c0-0.7-0.4-1.1-1.2-1.1c-0.7,0-1.2,0.5-1.4,1.3l-0.6-0.1
		c0.3-1.1,0.9-1.6,1.9-1.6C287.3,79.1,288.1,79.7,288.1,80.7z"/>
	<path class="st1" d="M291.5,79.1v5.4h1V85h-2.6v-0.5h1v-4.7l-1.1,0.1v-0.4c0.5-0.1,0.9-0.2,1.1-0.4H291.5z"/>
	<path class="st1" d="M295.2,84.1V85l-0.5,1.2h-0.3l0.4-1.2h-0.3v-0.9H295.2z M295.2,81.8v0.9h-0.8v-0.9H295.2z"/>
	<path class="st1" d="M300.1,80.6c0,0.6-0.3,1.1-0.9,1.3c0.7,0.3,1.1,0.8,1.1,1.5c0,1.1-0.9,1.7-2,1.7c-0.9,0-1.6-0.4-2-1.1l0.5-0.3
		c0.4,0.6,1,1,1.6,1c0.7,0,1.4-0.4,1.4-1.1c0-0.9-0.6-1.3-1.6-1.3h-0.6v-0.5h0.4c0.8,0,1.6-0.2,1.6-1.1c0-0.6-0.5-1-1.1-1
		c-0.6,0-1,0.3-1.4,0.8l-0.5-0.3c0.5-0.7,1.1-1,1.9-1C299.4,79.1,300.1,79.6,300.1,80.6z"/>
	<path class="st1" d="M305,79.5l-0.2,0.5c-0.3-0.2-0.6-0.3-1-0.3c-1.2,0-1.8,1.2-1.8,2.4c0.5-0.5,1-0.7,1.6-0.7c1,0,1.7,0.7,1.7,1.9
		c0,1.1-0.8,1.9-1.9,1.9c-1.4,0-2.1-0.9-2.1-2.7c0-1.6,0.7-3.3,2.4-3.3C304.2,79.1,304.7,79.2,305,79.5z M303.4,84.6
		c0.8,0,1.3-0.5,1.3-1.3c0-0.8-0.5-1.4-1.2-1.4c-0.8,0-1.5,0.7-1.5,1.2C302,83.9,302.5,84.6,303.4,84.6z"/>
	<path class="st1" d="M308,79.1c-0.8,1-1.1,2-1.1,3.3c0,1.1,0.4,2.2,1.1,3.2h-0.6c-0.7-1-1.1-2.1-1.1-3.3c0-1.2,0.4-2.3,1.1-3.2H308
		z"/>
	<path class="st1" d="M312.8,81.8c0,1.6-0.7,3.3-2.4,3.3c-0.5,0-1-0.1-1.2-0.3l0.2-0.5c0.3,0.2,0.6,0.3,1,0.3c1.2,0,1.7-1.2,1.8-2.4
		c-0.5,0.5-0.9,0.7-1.6,0.7c-0.8,0-1.7-0.5-1.7-1.9c0-1.2,0.8-1.9,1.9-1.9C312.1,79.1,312.8,80.1,312.8,81.8z M310.7,82.4
		c0.7,0,1.2-0.4,1.5-1.1c0-0.9-0.5-1.7-1.4-1.7c-0.7,0-1.3,0.5-1.3,1.3C309.5,81.9,310.1,82.4,310.7,82.4z"/>
	<path class="st1" d="M314.3,79.1c0.7,1,1.1,2.1,1.1,3.3c0,1.2-0.4,2.3-1.1,3.2h-0.6c0.8-1,1.1-2,1.1-3.3c0-1.1-0.4-2.1-1.1-3.2
		H314.3z"/>
	<path class="st1" d="M317.6,81.8v0.9h-0.8v-0.9H317.6z M317.6,84.1V85h-0.8v-0.9H317.6z"/>
	<path class="st1" d="M321.2,79.1v5.4h1V85h-2.6v-0.5h1v-4.7l-1.1,0.1v-0.4c0.5-0.1,0.9-0.2,1.1-0.4H321.2z"/>
	<path class="st1" d="M327.4,79.5l-0.2,0.5c-0.3-0.2-0.6-0.3-1-0.3c-1.2,0-1.8,1.2-1.8,2.4c0.5-0.5,1-0.7,1.6-0.7
		c1,0,1.7,0.7,1.7,1.9c0,1.1-0.8,1.9-1.9,1.9c-1.4,0-2.1-0.9-2.1-2.7c0-1.6,0.7-3.3,2.4-3.3C326.6,79.1,327.1,79.2,327.4,79.5z
		 M325.8,84.6c0.8,0,1.3-0.5,1.3-1.3c0-0.8-0.5-1.4-1.2-1.4c-0.8,0-1.5,0.7-1.5,1.2C324.4,83.9,325,84.6,325.8,84.6z"/>
	<path class="st1" d="M331,79.1v5.4h1V85h-2.6v-0.5h1v-4.7l-1.1,0.1v-0.4c0.5-0.1,0.9-0.2,1.1-0.4H331z"/>
	<path class="st1" d="M337.2,79.5l-0.2,0.5c-0.3-0.2-0.6-0.3-1-0.3c-1.2,0-1.8,1.2-1.8,2.4c0.5-0.5,1-0.7,1.6-0.7
		c1,0,1.7,0.7,1.7,1.9c0,1.1-0.8,1.9-1.9,1.9c-1.4,0-2.1-0.9-2.1-2.7c0-1.6,0.7-3.3,2.4-3.3C336.4,79.1,336.9,79.2,337.2,79.5z
		 M335.6,84.6c0.8,0,1.3-0.5,1.3-1.3c0-0.8-0.5-1.4-1.2-1.4c-0.8,0-1.5,0.7-1.5,1.2C334.2,83.9,334.8,84.6,335.6,84.6z"/>
	<path class="st1" d="M342,82.7v0.4h-4v-0.4H342z"/>
	<path class="st1" d="M344.8,79.1v5.4h1V85h-2.6v-0.5h1v-4.7l-1.1,0.1v-0.4c0.5-0.1,0.9-0.2,1.1-0.4H344.8z"/>
	<path class="st1" d="M351,79.5l-0.2,0.5c-0.3-0.2-0.6-0.3-1-0.3c-1.2,0-1.8,1.2-1.8,2.4c0.5-0.5,1-0.7,1.6-0.7c1,0,1.7,0.7,1.7,1.9
		c0,1.1-0.8,1.9-1.9,1.9c-1.4,0-2.1-0.9-2.1-2.7c0-1.6,0.7-3.3,2.4-3.3C350.1,79.1,350.7,79.2,351,79.5z M349.4,84.6
		c0.8,0,1.3-0.5,1.3-1.3c0-0.8-0.5-1.4-1.2-1.4c-0.8,0-1.5,0.7-1.5,1.2C348,83.9,348.5,84.6,349.4,84.6z"/>
	<path class="st1" d="M356,80.7c0,0.6-0.2,1-0.6,1.4c-0.2,0.2-0.5,0.5-1,0.8c-0.7,0.5-1.2,0.9-1.5,1.6h3.1V85h-3.8v-0.6
		c0.3-0.7,0.9-1.3,1.5-1.7c0.3-0.2,0.6-0.4,0.9-0.6c0.5-0.4,0.8-0.8,0.8-1.4c0-0.7-0.4-1.1-1.2-1.1c-0.7,0-1.2,0.5-1.4,1.3l-0.6-0.1
		c0.3-1.1,0.9-1.6,1.9-1.6C355.3,79.1,356,79.7,356,80.7z"/>
	<path class="st1" d="M360.9,80.6c0,0.6-0.3,1.1-1,1.3v0c0.8,0.3,1.3,0.9,1.3,1.6c0,1-0.8,1.6-2.1,1.6c-1.2,0-2.1-0.5-2.1-1.6
		c0-0.6,0.4-1.2,1.3-1.6v0c-0.7-0.2-1-0.7-1-1.3c0-1,0.9-1.4,1.9-1.4C360,79.1,360.9,79.6,360.9,80.6z M359.1,84.6
		c1,0,1.5-0.5,1.5-1.1c0-0.7-0.8-1-1.6-1.3c-0.9,0.4-1.4,0.8-1.4,1.3C357.6,84.1,358.1,84.6,359.1,84.6z M359.1,81.7
		c0.6-0.2,1.3-0.5,1.3-1.1c0-0.7-0.7-0.9-1.3-0.9c-0.6,0-1.2,0.2-1.2,0.9C357.8,81,358.2,81.4,359.1,81.7z"/>
	<path class="st1" d="M363.1,84.1V85h-0.8v-0.9H363.1z"/>
</g>
</svg>
