<?xml version="1.0" encoding="utf-8"?>
<!-- Generator: Adobe Illustrator 27.0.0, SVG Export Plug-In . SVG Version: 6.00 Build 0)  -->
<svg version="1.1" id="Group_41" xmlns="http://www.w3.org/2000/svg" xmlns:xlink="http://www.w3.org/1999/xlink" x="0px" y="0px"
	 viewBox="0 0 602 90" style="enable-background:new 0 0 602 90;" xml:space="preserve">
<style type="text/css">
	.st0{fill:#007A33;}
	.st1{enable-background:new    ;}
	.st2{fill:#FFFFFF;}
</style>
<path id="Green-bg" class="st0" d="M0,0h602v90H0V0z"/>
<g class="st1">
	<path class="st2" d="M13.3,59.2v0.9h-1.5V65h-1.1v-4.9H9.2v-0.9H13.3z"/>
	<path class="st2" d="M15,59.2v2.1c0.4-0.4,0.8-0.5,1.2-0.5c0.8,0,1.2,0.5,1.2,1.4V65h-1v-2.7c0-0.5-0.1-0.7-0.5-0.7
		c-0.3,0-0.7,0.2-0.9,0.4v3h-1v-5.8H15z"/>
	<path class="st2" d="M19.5,59.1v0.9h-1v-0.9H19.5z M19.5,60.8V65h-1v-4.2H19.5z"/>
	<path class="st2" d="M23.3,61.4l-0.6,0.5c-0.3-0.3-0.5-0.4-0.8-0.4c-0.4,0-0.6,0.2-0.6,0.4c0,0.2,0.2,0.4,0.7,0.6
		c1,0.3,1.3,0.7,1.3,1.4c0,0.8-0.6,1.2-1.5,1.2c-0.7,0-1.2-0.3-1.6-0.8l0.7-0.5c0.3,0.4,0.6,0.6,1,0.6c0.4,0,0.6-0.2,0.6-0.5
		c0-0.2-0.2-0.4-0.8-0.6c-1-0.3-1.3-0.7-1.3-1.3c0-0.7,0.6-1.2,1.4-1.2C22.4,60.8,22.9,61,23.3,61.4z"/>
	<path class="st2" d="M29.6,62.4v2c0,0.1,0,0.4,0.1,0.6h-1l-0.1-0.4c-0.4,0.3-0.8,0.4-1.3,0.4c-0.7,0-1.1-0.5-1.1-1.1
		c0-0.9,0.8-1.4,2.4-1.6V62c0-0.3-0.3-0.5-0.6-0.5c-0.3,0-0.6,0.2-0.9,0.5l-0.6-0.5c0.3-0.4,0.9-0.8,1.5-0.8
		C29.2,60.8,29.6,61.2,29.6,62.4z M27.7,64.3c0.3,0,0.6-0.2,0.9-0.4V63c-1.1,0.2-1.4,0.5-1.4,0.8C27.2,64.2,27.4,64.3,27.7,64.3z"/>
	<path class="st2" d="M34,59.2V65h-0.8l0-0.4c-0.4,0.3-0.7,0.5-1.1,0.5c-1.1,0-1.7-0.9-1.7-2.3c0-1.1,0.6-2.1,1.7-2.1
		c0.4,0,0.8,0.2,1,0.5h0v-2H34z M32.3,64.3c0.4,0,0.6-0.2,0.8-0.4v-2c-0.2-0.2-0.4-0.4-0.8-0.4c-0.6,0-0.9,0.5-0.9,1.4
		S31.7,64.3,32.3,64.3z"/>
	<path class="st2" d="M35.6,60.8l0.7,2.8h0l0.7-2.8h1L36.8,65h-1l-1.2-4.2H35.6z"/>
	<path class="st2" d="M41.8,62.6v0.4h-2.5c0,0.8,0.3,1.2,0.9,1.2c0.4,0,0.6-0.1,0.9-0.5l0.7,0.4c-0.4,0.6-0.9,0.8-1.7,0.8
		c-1.1,0-1.8-0.8-1.8-2.2s0.7-2.2,1.8-2.2C41.3,60.8,41.8,61.8,41.8,62.6z M40.9,62.4c0-0.6-0.3-0.9-0.8-0.9c-0.5,0-0.8,0.3-0.8,0.9
		H40.9z"/>
	<path class="st2" d="M44.7,61.8c0,0-0.1,0-0.2,0c-0.5,0-0.9,0.5-0.9,0.7V65h-1v-4.2h0.9v0.7h0c0.2-0.5,0.6-0.8,1.2-0.8V61.8z"/>
	<path class="st2" d="M46.4,59.5v1.4h0.8v0.8h-0.8V64c0,0.2,0.1,0.3,0.4,0.3c0.2,0,0.3,0,0.5-0.1V65c-0.3,0-0.5,0.1-0.8,0.1
		c-0.7,0-1-0.3-1-1v-2.5h-0.6v-0.8h0.6v-1.4H46.4z"/>
	<path class="st2" d="M51.5,59.1v0.9h-1v-0.9H51.5z M51.5,60.8V65h-1v-4.2H51.5z"/>
	<path class="st2" d="M55.3,61.4l-0.6,0.5c-0.3-0.3-0.5-0.4-0.8-0.4c-0.4,0-0.6,0.2-0.6,0.4c0,0.2,0.2,0.4,0.7,0.6
		c1,0.3,1.3,0.7,1.3,1.4c0,0.8-0.6,1.2-1.5,1.2c-0.7,0-1.2-0.3-1.6-0.8l0.7-0.5c0.3,0.4,0.6,0.6,1,0.6c0.4,0,0.6-0.2,0.6-0.5
		c0-0.2-0.2-0.4-0.8-0.6c-1-0.3-1.3-0.7-1.3-1.3c0-0.7,0.6-1.2,1.4-1.2C54.4,60.8,54.9,61,55.3,61.4z"/>
	<path class="st2" d="M59.7,59.1v0.9h-1v-0.9H59.7z M59.7,60.8V65h-1v-4.2H59.7z"/>
	<path class="st2" d="M64.3,62.1V65h-1v-2.7c0-0.5-0.1-0.7-0.5-0.7c-0.3,0-0.7,0.2-0.9,0.4v3h-1v-4.2h0.9v0.4
		c0.5-0.4,0.9-0.5,1.3-0.5C63.8,60.8,64.3,61.3,64.3,62.1z"/>
	<path class="st2" d="M66.4,59.5v1.4h0.8v0.8h-0.8V64c0,0.2,0.1,0.3,0.4,0.3c0.2,0,0.3,0,0.5-0.1V65c-0.3,0-0.5,0.1-0.8,0.1
		c-0.7,0-1-0.3-1-1v-2.5h-0.6v-0.8h0.6v-1.4H66.4z"/>
	<path class="st2" d="M71.1,62.6v0.4h-2.5c0,0.8,0.3,1.2,0.9,1.2c0.4,0,0.6-0.1,0.9-0.5l0.7,0.4c-0.4,0.6-0.9,0.8-1.7,0.8
		c-1.1,0-1.8-0.8-1.8-2.2s0.7-2.2,1.8-2.2C70.6,60.8,71.1,61.8,71.1,62.6z M70.2,62.4c0-0.6-0.3-0.9-0.8-0.9c-0.5,0-0.8,0.3-0.8,0.9
		H70.2z"/>
	<path class="st2" d="M75.4,62.1V65h-1v-2.7c0-0.5-0.1-0.7-0.5-0.7c-0.3,0-0.7,0.2-0.9,0.4v3h-1v-4.2h0.9v0.4
		c0.5-0.4,0.9-0.5,1.3-0.5C74.9,60.8,75.4,61.3,75.4,62.1z"/>
	<path class="st2" d="M79.8,59.2V65H79l0-0.4c-0.4,0.3-0.7,0.5-1.1,0.5c-1.1,0-1.7-0.9-1.7-2.3c0-1.1,0.6-2.1,1.7-2.1
		c0.4,0,0.8,0.2,1,0.5h0v-2H79.8z M78.1,64.3c0.4,0,0.6-0.2,0.8-0.4v-2c-0.2-0.2-0.4-0.4-0.8-0.4c-0.6,0-0.9,0.5-0.9,1.4
		S77.5,64.3,78.1,64.3z"/>
	<path class="st2" d="M84,62.6v0.4h-2.5c0,0.8,0.3,1.2,0.9,1.2c0.4,0,0.6-0.1,0.9-0.5l0.7,0.4c-0.4,0.6-0.9,0.8-1.7,0.8
		c-1.1,0-1.8-0.8-1.8-2.2s0.7-2.2,1.8-2.2C83.5,60.8,84,61.8,84,62.6z M83.1,62.4c0-0.6-0.3-0.9-0.8-0.9c-0.5,0-0.8,0.3-0.8,0.9
		H83.1z"/>
	<path class="st2" d="M88.3,59.2V65h-0.8l0-0.4c-0.4,0.3-0.7,0.5-1.1,0.5c-1.1,0-1.7-0.9-1.7-2.3c0-1.1,0.6-2.1,1.7-2.1
		c0.4,0,0.8,0.2,1,0.5h0v-2H88.3z M86.5,64.3c0.4,0,0.6-0.2,0.8-0.4v-2c-0.2-0.2-0.4-0.4-0.8-0.4c-0.6,0-0.9,0.5-0.9,1.4
		S85.9,64.3,86.5,64.3z"/>
	<path class="st2" d="M93.7,59.1v0.8h-0.2c-0.5,0-0.6,0.2-0.6,0.5v0.4h0.8v0.8h-0.8V65h-1v-3.4h-0.6v-0.8h0.6v-0.5
		c0-0.8,0.3-1.2,1.1-1.2H93.7z"/>
	<path class="st2" d="M97.7,62.9c0,1.3-0.7,2.2-1.8,2.2c-1.1,0-1.8-0.8-1.8-2.2c0-1.3,0.7-2.2,1.8-2.2S97.7,61.6,97.7,62.9z
		 M95.9,64.3c0.5,0,0.8-0.4,0.8-1.4c0-0.9-0.3-1.4-0.8-1.4c-0.6,0-0.8,0.5-0.8,1.4C95.1,63.9,95.3,64.3,95.9,64.3z"/>
	<path class="st2" d="M100.4,61.8c0,0-0.1,0-0.2,0c-0.5,0-0.9,0.5-0.9,0.7V65h-1v-4.2h0.9v0.7h0c0.2-0.5,0.6-0.8,1.2-0.8V61.8z"/>
	<path class="st2" d="M104.8,59.2v3.7c0,0.8,0.3,1.2,1.1,1.2c0.8,0,1.1-0.4,1.1-1.2v-3.7h1.1v3.7c0,1.4-0.8,2.2-2.2,2.2
		c-1.4,0-2.2-0.8-2.2-2.2v-3.6H104.8z"/>
	<path class="st2" d="M110.5,59.2v2.6l1.9-2.6h1.3l-1.6,2.2l1.9,3.6h-1.2l-1.4-2.7l-0.8,1V65h-1.1v-5.8H110.5z"/>
	<path class="st2" d="M120.1,62.4v2c0,0.1,0,0.4,0.1,0.6h-1l-0.1-0.4c-0.4,0.3-0.8,0.4-1.3,0.4c-0.7,0-1.1-0.5-1.1-1.1
		c0-0.9,0.8-1.4,2.4-1.6V62c0-0.3-0.3-0.5-0.6-0.5c-0.3,0-0.6,0.2-0.9,0.5l-0.6-0.5c0.3-0.4,0.9-0.8,1.5-0.8
		C119.6,60.8,120.1,61.2,120.1,62.4z M118.1,64.3c0.3,0,0.6-0.2,0.9-0.4V63c-1.1,0.2-1.4,0.5-1.4,0.8
		C117.7,64.2,117.9,64.3,118.1,64.3z"/>
	<path class="st2" d="M124.5,62.1V65h-1v-2.7c0-0.5-0.1-0.7-0.5-0.7c-0.3,0-0.7,0.2-0.9,0.4v3h-1v-4.2h0.9v0.4
		c0.5-0.4,0.9-0.5,1.3-0.5C124,60.8,124.5,61.3,124.5,62.1z"/>
	<path class="st2" d="M128.9,59.2V65h-0.8l0-0.4c-0.4,0.3-0.7,0.5-1.1,0.5c-1.1,0-1.7-0.9-1.7-2.3c0-1.1,0.6-2.1,1.7-2.1
		c0.4,0,0.8,0.2,1,0.5h0v-2H128.9z M127.2,64.3c0.4,0,0.6-0.2,0.8-0.4v-2c-0.2-0.2-0.4-0.4-0.8-0.4c-0.6,0-0.9,0.5-0.9,1.4
		S126.6,64.3,127.2,64.3z"/>
	<path class="st2" d="M136.4,59.2v0.9h-2.7v1.4h2v0.9h-2v1.6h2.8V65h-3.9v-5.8H136.4z"/>
	<path class="st2" d="M138.5,59.2v3.7c0,0.8,0.3,1.2,1.1,1.2c0.8,0,1.1-0.4,1.1-1.2v-3.7h1.1v3.7c0,1.4-0.8,2.2-2.2,2.2
		c-1.4,0-2.2-0.8-2.2-2.2v-3.6H138.5z"/>
	<path class="st2" d="M146.7,59.2v2.3h2.2v-2.3h1.1V65H149v-2.5h-2.2V65h-1.1v-5.8H146.7z"/>
	<path class="st2" d="M154.4,62.6v0.4h-2.5c0,0.8,0.3,1.2,0.9,1.2c0.4,0,0.6-0.1,0.9-0.5l0.7,0.4c-0.4,0.6-0.9,0.8-1.7,0.8
		c-1.1,0-1.8-0.8-1.8-2.2s0.7-2.2,1.8-2.2C153.9,60.8,154.4,61.8,154.4,62.6z M153.5,62.4c0-0.6-0.3-0.9-0.8-0.9
		c-0.5,0-0.8,0.3-0.8,0.9H153.5z"/>
	<path class="st2" d="M158.3,62.4v2c0,0.1,0,0.4,0.1,0.6h-1l-0.1-0.4c-0.4,0.3-0.8,0.4-1.3,0.4c-0.7,0-1.1-0.5-1.1-1.1
		c0-0.9,0.8-1.4,2.4-1.6V62c0-0.3-0.3-0.5-0.6-0.5c-0.3,0-0.6,0.2-0.9,0.5l-0.6-0.5c0.3-0.4,0.9-0.8,1.5-0.8
		C157.8,60.8,158.3,61.2,158.3,62.4z M156.4,64.3c0.3,0,0.6-0.2,0.9-0.4V63c-1.1,0.2-1.4,0.5-1.4,0.8
		C155.9,64.2,156.1,64.3,156.4,64.3z"/>
	<path class="st2" d="M160.4,59.2V65h-1v-5.8H160.4z"/>
	<path class="st2" d="M162.6,59.5v1.4h0.8v0.8h-0.8V64c0,0.2,0.1,0.3,0.4,0.3c0.2,0,0.3,0,0.5-0.1V65c-0.3,0-0.5,0.1-0.8,0.1
		c-0.7,0-1-0.3-1-1v-2.5h-0.6v-0.8h0.6v-1.4H162.6z"/>
	<path class="st2" d="M165.1,59.2v2.1c0.4-0.4,0.8-0.5,1.2-0.5c0.8,0,1.2,0.5,1.2,1.4V65h-1v-2.7c0-0.5-0.1-0.7-0.5-0.7
		c-0.3,0-0.7,0.2-0.9,0.4v3h-1v-5.8H165.1z"/>
	<path class="st2" d="M171.7,61.9l-0.8,0.3c-0.2-0.5-0.4-0.6-0.8-0.6c-0.6,0-0.8,0.4-0.8,1.4c0,0.9,0.3,1.4,0.8,1.4
		c0.4,0,0.6-0.2,0.9-0.7l0.8,0.4c-0.4,0.7-0.9,1-1.6,1c-1.2,0-1.8-0.8-1.8-2.2c0-1.3,0.7-2.2,1.8-2.2
		C170.9,60.8,171.5,61.2,171.7,61.9z"/>
	<path class="st2" d="M175.6,62.4v2c0,0.1,0,0.4,0.1,0.6h-1l-0.1-0.4c-0.4,0.3-0.8,0.4-1.3,0.4c-0.7,0-1.1-0.5-1.1-1.1
		c0-0.9,0.8-1.4,2.4-1.6V62c0-0.3-0.3-0.5-0.6-0.5c-0.3,0-0.6,0.2-0.9,0.5l-0.6-0.5c0.3-0.4,0.9-0.8,1.5-0.8
		C175.1,60.8,175.6,61.2,175.6,62.4z M173.7,64.3c0.3,0,0.6-0.2,0.9-0.4V63c-1.1,0.2-1.4,0.5-1.4,0.8
		C173.2,64.2,173.4,64.3,173.7,64.3z"/>
	<path class="st2" d="M178.6,61.8c0,0-0.1,0-0.2,0c-0.5,0-0.9,0.5-0.9,0.7V65h-1v-4.2h0.9v0.7h0c0.2-0.5,0.6-0.8,1.2-0.8V61.8z"/>
	<path class="st2" d="M182.4,62.6v0.4h-2.5c0,0.8,0.3,1.2,0.9,1.2c0.4,0,0.6-0.1,0.9-0.5l0.7,0.4c-0.4,0.6-0.9,0.8-1.7,0.8
		c-1.1,0-1.8-0.8-1.8-2.2s0.7-2.2,1.8-2.2C181.9,60.8,182.4,61.8,182.4,62.6z M181.5,62.4c0-0.6-0.3-0.9-0.8-0.9
		c-0.5,0-0.8,0.3-0.8,0.9H181.5z"/>
	<path class="st2" d="M187.9,59.2c1.3,0,2,0.6,2,1.7s-0.7,1.7-2,1.7h-1V65h-1.1v-5.8H187.9z M187.7,61.8c0.7,0,1-0.2,1-0.8
		s-0.4-0.8-1-0.8h-0.9v1.6H187.7z"/>
	<path class="st2" d="M192.6,61.8c0,0-0.1,0-0.2,0c-0.5,0-0.9,0.5-0.9,0.7V65h-1v-4.2h0.9v0.7h0c0.2-0.5,0.6-0.8,1.2-0.8V61.8z"/>
	<path class="st2" d="M196.5,62.9c0,1.3-0.7,2.2-1.8,2.2c-1.1,0-1.8-0.8-1.8-2.2c0-1.3,0.7-2.2,1.8-2.2S196.5,61.6,196.5,62.9z
		 M194.7,64.3c0.5,0,0.8-0.4,0.8-1.4c0-0.9-0.3-1.4-0.8-1.4c-0.6,0-0.8,0.5-0.8,1.4C193.9,63.9,194.2,64.3,194.7,64.3z"/>
	<path class="st2" d="M199.2,59.1v0.8H199c-0.5,0-0.6,0.2-0.6,0.5v0.4h0.8v0.8h-0.8V65h-1v-3.4h-0.6v-0.8h0.6v-0.5
		c0-0.8,0.3-1.2,1.1-1.2H199.2z"/>
	<path class="st2" d="M203.1,62.6v0.4h-2.5c0,0.8,0.3,1.2,0.9,1.2c0.4,0,0.6-0.1,0.9-0.5l0.7,0.4c-0.4,0.6-0.9,0.8-1.7,0.8
		c-1.1,0-1.8-0.8-1.8-2.2s0.7-2.2,1.8-2.2C202.6,60.8,203.1,61.8,203.1,62.6z M202.2,62.4c0-0.6-0.3-0.9-0.8-0.9
		c-0.5,0-0.8,0.3-0.8,0.9H202.2z"/>
	<path class="st2" d="M206.6,61.4l-0.6,0.5c-0.3-0.3-0.5-0.4-0.8-0.4c-0.4,0-0.6,0.2-0.6,0.4c0,0.2,0.2,0.4,0.7,0.6
		c1,0.3,1.3,0.7,1.3,1.4c0,0.8-0.6,1.2-1.5,1.2c-0.7,0-1.2-0.3-1.6-0.8l0.7-0.5c0.3,0.4,0.6,0.6,1,0.6c0.4,0,0.6-0.2,0.6-0.5
		c0-0.2-0.2-0.4-0.8-0.6c-1-0.3-1.3-0.7-1.3-1.3c0-0.7,0.6-1.2,1.4-1.2C205.7,60.8,206.2,61,206.6,61.4z"/>
	<path class="st2" d="M210.1,61.4l-0.6,0.5c-0.3-0.3-0.5-0.4-0.8-0.4c-0.4,0-0.6,0.2-0.6,0.4c0,0.2,0.2,0.4,0.7,0.6
		c1,0.3,1.3,0.7,1.3,1.4c0,0.8-0.6,1.2-1.5,1.2c-0.7,0-1.2-0.3-1.6-0.8l0.7-0.5c0.3,0.4,0.6,0.6,1,0.6c0.4,0,0.6-0.2,0.6-0.5
		c0-0.2-0.2-0.4-0.8-0.6c-1-0.3-1.3-0.7-1.3-1.3c0-0.7,0.6-1.2,1.4-1.2C209.2,60.8,209.8,61,210.1,61.4z"/>
	<path class="st2" d="M212.1,59.1v0.9h-1v-0.9H212.1z M212.1,60.8V65h-1v-4.2H212.1z"/>
	<path class="st2" d="M216.5,62.9c0,1.3-0.7,2.2-1.8,2.2c-1.1,0-1.8-0.8-1.8-2.2c0-1.3,0.7-2.2,1.8-2.2S216.5,61.6,216.5,62.9z
		 M214.7,64.3c0.5,0,0.8-0.4,0.8-1.4c0-0.9-0.3-1.4-0.8-1.4c-0.6,0-0.8,0.5-0.8,1.4C213.9,63.9,214.2,64.3,214.7,64.3z"/>
	<path class="st2" d="M220.7,62.1V65h-1v-2.7c0-0.5-0.1-0.7-0.5-0.7c-0.3,0-0.7,0.2-0.9,0.4v3h-1v-4.2h0.9v0.4
		c0.5-0.4,0.9-0.5,1.3-0.5C220.2,60.8,220.7,61.3,220.7,62.1z"/>
	<path class="st2" d="M224.7,62.4v2c0,0.1,0,0.4,0.1,0.6h-1l-0.1-0.4c-0.4,0.3-0.8,0.4-1.3,0.4c-0.7,0-1.1-0.5-1.1-1.1
		c0-0.9,0.8-1.4,2.4-1.6V62c0-0.3-0.3-0.5-0.6-0.5c-0.3,0-0.6,0.2-0.9,0.5l-0.6-0.5c0.3-0.4,0.9-0.8,1.5-0.8
		C224.2,60.8,224.7,61.2,224.7,62.4z M222.8,64.3c0.3,0,0.6-0.2,0.9-0.4V63c-1.1,0.2-1.4,0.5-1.4,0.8
		C222.3,64.2,222.5,64.3,222.8,64.3z"/>
	<path class="st2" d="M226.8,59.2V65h-1v-5.8H226.8z"/>
	<path class="st2" d="M230.6,61.4l-0.6,0.5c-0.3-0.3-0.5-0.4-0.8-0.4c-0.4,0-0.6,0.2-0.6,0.4c0,0.2,0.2,0.4,0.7,0.6
		c1,0.3,1.3,0.7,1.3,1.4c0,0.8-0.6,1.2-1.5,1.2c-0.7,0-1.2-0.3-1.6-0.8l0.7-0.5c0.3,0.4,0.6,0.6,1,0.6c0.4,0,0.6-0.2,0.6-0.5
		c0-0.2-0.2-0.4-0.8-0.6c-1-0.3-1.3-0.7-1.3-1.3c0-0.7,0.6-1.2,1.4-1.2C229.7,60.8,230.2,61,230.6,61.4z"/>
	<path class="st2" d="M236.9,62.4v2c0,0.1,0,0.4,0.1,0.6h-1l-0.1-0.4c-0.4,0.3-0.8,0.4-1.3,0.4c-0.7,0-1.1-0.5-1.1-1.1
		c0-0.9,0.8-1.4,2.4-1.6V62c0-0.3-0.3-0.5-0.6-0.5c-0.3,0-0.6,0.2-0.9,0.5l-0.6-0.5c0.3-0.4,0.9-0.8,1.5-0.8
		C236.5,60.8,236.9,61.2,236.9,62.4z M235,64.3c0.3,0,0.6-0.2,0.9-0.4V63c-1.1,0.2-1.4,0.5-1.4,0.8C234.5,64.2,234.7,64.3,235,64.3z
		"/>
	<path class="st2" d="M241.3,62.1V65h-1v-2.7c0-0.5-0.1-0.7-0.5-0.7c-0.3,0-0.7,0.2-0.9,0.4v3h-1v-4.2h0.9v0.4
		c0.5-0.4,0.9-0.5,1.3-0.5C240.9,60.8,241.3,61.3,241.3,62.1z"/>
	<path class="st2" d="M245.8,59.2V65h-0.8l0-0.4c-0.4,0.3-0.7,0.5-1.1,0.5c-1.1,0-1.7-0.9-1.7-2.3c0-1.1,0.6-2.1,1.7-2.1
		c0.4,0,0.8,0.2,1,0.5h0v-2H245.8z M244,64.3c0.4,0,0.6-0.2,0.8-0.4v-2c-0.2-0.2-0.4-0.4-0.8-0.4c-0.6,0-0.9,0.5-0.9,1.4
		S243.4,64.3,244,64.3z"/>
</g>
<g class="st1">
	<path class="st2" d="M10.5,68.2v2.1c0.4-0.4,0.8-0.5,1.2-0.5c0.8,0,1.2,0.5,1.2,1.4V74h-1v-2.7c0-0.5-0.1-0.7-0.5-0.7
		c-0.3,0-0.7,0.2-0.9,0.4v3h-1v-5.8H10.5z"/>
	<path class="st2" d="M17,71.4v2c0,0.1,0,0.4,0.1,0.6h-1L16,73.6c-0.4,0.3-0.8,0.4-1.3,0.4c-0.7,0-1.1-0.5-1.1-1.1
		c0-0.9,0.8-1.4,2.4-1.6V71c0-0.3-0.3-0.5-0.6-0.5c-0.3,0-0.6,0.2-0.9,0.5l-0.6-0.5c0.3-0.4,0.9-0.8,1.5-0.8
		C16.5,69.8,17,70.2,17,71.4z M15.1,73.3c0.3,0,0.6-0.2,0.9-0.4V72c-1.1,0.2-1.4,0.5-1.4,0.8C14.6,73.2,14.8,73.3,15.1,73.3z"/>
	<path class="st2" d="M20.6,70.4L20,70.9c-0.3-0.3-0.5-0.4-0.8-0.4c-0.4,0-0.6,0.2-0.6,0.4c0,0.2,0.2,0.4,0.7,0.6
		c1,0.3,1.3,0.7,1.3,1.4c0,0.8-0.6,1.2-1.5,1.2c-0.7,0-1.2-0.3-1.6-0.8l0.7-0.5c0.3,0.4,0.6,0.6,1,0.6c0.4,0,0.6-0.2,0.6-0.5
		c0-0.2-0.2-0.4-0.8-0.6c-1-0.3-1.3-0.7-1.3-1.3c0-0.7,0.6-1.2,1.4-1.2C19.7,69.8,20.2,70,20.6,70.4z"/>
	<path class="st2" d="M24.9,68.2v2h0c0.2-0.2,0.6-0.5,1-0.5c1,0,1.7,0.9,1.7,2.1c0,1.4-0.6,2.3-1.7,2.3c-0.4,0-0.8-0.2-1.1-0.5
		L24.7,74H24v-5.8H24.9z M24.9,72.9c0.2,0.1,0.3,0.4,0.8,0.4c0.6,0,0.9-0.5,0.9-1.4s-0.3-1.4-0.9-1.4c-0.3,0-0.5,0.1-0.8,0.4V72.9z"
		/>
	<path class="st2" d="M31.6,71.6v0.4h-2.5c0,0.8,0.3,1.2,0.9,1.2c0.4,0,0.6-0.1,0.9-0.5l0.7,0.4c-0.4,0.6-0.9,0.8-1.7,0.8
		c-1.1,0-1.8-0.8-1.8-2.2s0.7-2.2,1.8-2.2C31.1,69.8,31.6,70.8,31.6,71.6z M30.7,71.4c0-0.6-0.3-0.9-0.8-0.9c-0.5,0-0.8,0.3-0.8,0.9
		H30.7z"/>
	<path class="st2" d="M35.6,71.6v0.4h-2.5c0,0.8,0.3,1.2,0.9,1.2c0.4,0,0.6-0.1,0.9-0.5l0.7,0.4c-0.4,0.6-0.9,0.8-1.7,0.8
		c-1.1,0-1.8-0.8-1.8-2.2s0.7-2.2,1.8-2.2C35.1,69.8,35.6,70.8,35.6,71.6z M34.7,71.4c0-0.6-0.3-0.9-0.8-0.9c-0.5,0-0.8,0.3-0.8,0.9
		H34.7z"/>
	<path class="st2" d="M39.8,71.1V74h-1v-2.7c0-0.5-0.1-0.7-0.5-0.7c-0.3,0-0.7,0.2-0.9,0.4v3h-1v-4.2h0.9v0.4
		c0.5-0.4,0.9-0.5,1.3-0.5C39.4,69.8,39.8,70.3,39.8,71.1z"/>
	<path class="st2" d="M46.3,71.4v2c0,0.1,0,0.4,0.1,0.6h-1l-0.1-0.4c-0.4,0.3-0.8,0.4-1.3,0.4c-0.7,0-1.1-0.5-1.1-1.1
		c0-0.9,0.8-1.4,2.4-1.6V71c0-0.3-0.3-0.5-0.6-0.5c-0.3,0-0.6,0.2-0.9,0.5l-0.6-0.5c0.3-0.4,0.9-0.8,1.5-0.8
		C45.8,69.8,46.3,70.2,46.3,71.4z M44.4,73.3c0.3,0,0.6-0.2,0.9-0.4V72c-1.1,0.2-1.4,0.5-1.4,0.8C43.9,73.2,44.1,73.3,44.4,73.3z"/>
	<path class="st2" d="M51,72c0,1.1-0.7,2.1-1.7,2.1c-0.3,0-0.8-0.2-1-0.5h0v1.9h-1v-5.7h1v0.4c0.3-0.3,0.6-0.5,1.1-0.5
		C50.4,69.8,51,70.7,51,72z M48.3,72.9c0.2,0.2,0.5,0.4,0.8,0.4c0.6,0,0.9-0.5,0.9-1.4c0-0.9-0.3-1.4-0.9-1.4
		c-0.4,0-0.7,0.3-0.8,0.4V72.9z"/>
	<path class="st2" d="M55.4,72c0,1.1-0.7,2.1-1.7,2.1c-0.3,0-0.8-0.2-1-0.5h0v1.9h-1v-5.7h1v0.4c0.3-0.3,0.6-0.5,1.1-0.5
		C54.8,69.8,55.4,70.7,55.4,72z M52.7,72.9c0.2,0.2,0.5,0.4,0.8,0.4c0.6,0,0.9-0.5,0.9-1.4c0-0.9-0.3-1.4-0.9-1.4
		c-0.4,0-0.7,0.3-0.8,0.4V72.9z"/>
	<path class="st2" d="M58.2,70.8c0,0-0.1,0-0.2,0c-0.5,0-0.9,0.5-0.9,0.7V74h-1v-4.2H57v0.7h0c0.2-0.5,0.6-0.8,1.2-0.8V70.8z"/>
	<path class="st2" d="M62.1,71.9c0,1.3-0.7,2.2-1.8,2.2c-1.1,0-1.8-0.8-1.8-2.2c0-1.3,0.7-2.2,1.8-2.2S62.1,70.6,62.1,71.9z
		 M60.3,73.3c0.5,0,0.8-0.4,0.8-1.4c0-0.9-0.3-1.4-0.8-1.4c-0.6,0-0.8,0.5-0.8,1.4C59.5,72.9,59.8,73.3,60.3,73.3z"/>
	<path class="st2" d="M63.4,69.8l0.7,2.8h0l0.7-2.8h1L64.6,74h-1l-1.2-4.2H63.4z"/>
	<path class="st2" d="M69.6,71.6v0.4h-2.5c0,0.8,0.3,1.2,0.9,1.2c0.4,0,0.6-0.1,0.9-0.5l0.7,0.4c-0.4,0.6-0.9,0.8-1.7,0.8
		c-1.1,0-1.8-0.8-1.8-2.2s0.7-2.2,1.8-2.2C69.1,69.8,69.6,70.8,69.6,71.6z M68.7,71.4c0-0.6-0.3-0.9-0.8-0.9c-0.5,0-0.8,0.3-0.8,0.9
		H68.7z"/>
	<path class="st2" d="M73.8,68.2V74H73l0-0.4c-0.4,0.3-0.7,0.5-1.1,0.5c-1.1,0-1.7-0.9-1.7-2.3c0-1.1,0.6-2.1,1.7-2.1
		c0.4,0,0.8,0.2,1,0.5h0v-2H73.8z M72.1,73.3c0.4,0,0.6-0.2,0.8-0.4v-2c-0.2-0.2-0.4-0.4-0.8-0.4c-0.6,0-0.9,0.5-0.9,1.4
		S71.5,73.3,72.1,73.3z"/>
	<path class="st2" d="M80.4,70.9l-0.8,0.3c-0.2-0.5-0.4-0.6-0.8-0.6c-0.6,0-0.8,0.4-0.8,1.4c0,0.9,0.3,1.4,0.8,1.4
		c0.4,0,0.6-0.2,0.9-0.7l0.8,0.4c-0.4,0.7-0.9,1-1.6,1c-1.2,0-1.8-0.8-1.8-2.2c0-1.3,0.7-2.2,1.8-2.2C79.5,69.8,80.2,70.2,80.4,70.9
		z"/>
	<path class="st2" d="M84.6,71.9c0,1.3-0.7,2.2-1.8,2.2c-1.1,0-1.8-0.8-1.8-2.2c0-1.3,0.7-2.2,1.8-2.2S84.6,70.6,84.6,71.9z
		 M82.8,73.3c0.5,0,0.8-0.4,0.8-1.4c0-0.9-0.3-1.4-0.8-1.4c-0.6,0-0.8,0.5-0.8,1.4C82,72.9,82.2,73.3,82.8,73.3z"/>
	<path class="st2" d="M88.7,71.1V74h-1v-2.7c0-0.5-0.1-0.7-0.5-0.7c-0.3,0-0.7,0.2-0.9,0.4v3h-1v-4.2h0.9v0.4
		c0.5-0.4,0.9-0.5,1.3-0.5C88.3,69.8,88.7,70.3,88.7,71.1z"/>
	<path class="st2" d="M92.4,70.4l-0.6,0.5c-0.3-0.3-0.5-0.4-0.8-0.4c-0.4,0-0.6,0.2-0.6,0.4c0,0.2,0.2,0.4,0.7,0.6
		c1,0.3,1.3,0.7,1.3,1.4c0,0.8-0.6,1.2-1.5,1.2c-0.7,0-1.2-0.3-1.6-0.8l0.7-0.5c0.3,0.4,0.6,0.6,1,0.6c0.4,0,0.6-0.2,0.6-0.5
		c0-0.2-0.2-0.4-0.8-0.6c-1-0.3-1.3-0.7-1.3-1.3c0-0.7,0.6-1.2,1.4-1.2C91.5,69.8,92,70,92.4,70.4z"/>
	<path class="st2" d="M94.4,68.1v0.9h-1v-0.9H94.4z M94.4,69.8V74h-1v-4.2H94.4z"/>
	<path class="st2" d="M98.2,70.4l-0.6,0.5c-0.3-0.3-0.5-0.4-0.8-0.4c-0.4,0-0.6,0.2-0.6,0.4c0,0.2,0.2,0.4,0.7,0.6
		c1,0.3,1.3,0.7,1.3,1.4c0,0.8-0.6,1.2-1.5,1.2c-0.7,0-1.2-0.3-1.6-0.8l0.7-0.5c0.3,0.4,0.6,0.6,1,0.6c0.4,0,0.6-0.2,0.6-0.5
		c0-0.2-0.2-0.4-0.8-0.6c-1-0.3-1.3-0.7-1.3-1.3c0-0.7,0.6-1.2,1.4-1.2C97.3,69.8,97.8,70,98.2,70.4z"/>
	<path class="st2" d="M100.2,68.5v1.4h0.8v0.8h-0.8V73c0,0.2,0.1,0.3,0.4,0.3c0.2,0,0.3,0,0.5-0.1V74c-0.3,0-0.5,0.1-0.8,0.1
		c-0.7,0-1-0.3-1-1v-2.5h-0.6v-0.8h0.6v-1.4H100.2z"/>
	<path class="st2" d="M104.9,71.6v0.4h-2.5c0,0.8,0.3,1.2,0.9,1.2c0.4,0,0.6-0.1,0.9-0.5l0.7,0.4c-0.4,0.6-0.9,0.8-1.7,0.8
		c-1.1,0-1.8-0.8-1.8-2.2s0.7-2.2,1.8-2.2C104.4,69.8,104.9,70.8,104.9,71.6z M104,71.4c0-0.6-0.3-0.9-0.8-0.9
		c-0.5,0-0.8,0.3-0.8,0.9H104z"/>
	<path class="st2" d="M109.1,71.1V74h-1v-2.7c0-0.5-0.1-0.7-0.5-0.7c-0.3,0-0.7,0.2-0.9,0.4v3h-1v-4.2h0.9v0.4
		c0.5-0.4,0.9-0.5,1.3-0.5C108.7,69.8,109.1,70.3,109.1,71.1z"/>
	<path class="st2" d="M111.3,68.5v1.4h0.8v0.8h-0.8V73c0,0.2,0.1,0.3,0.4,0.3c0.2,0,0.3,0,0.5-0.1V74c-0.3,0-0.5,0.1-0.8,0.1
		c-0.7,0-1-0.3-1-1v-2.5h-0.6v-0.8h0.6v-1.4H111.3z"/>
	<path class="st2" d="M115.8,69.8l0.6,2.6h0l0.6-2.6h0.9l0.6,2.6h0l0.6-2.6h0.9l-1.1,4.2h-0.9l-0.6-2.6h0l-0.6,2.6h-0.9l-1.1-4.2
		H115.8z"/>
	<path class="st2" d="M121.7,68.1v0.9h-1v-0.9H121.7z M121.7,69.8V74h-1v-4.2H121.7z"/>
	<path class="st2" d="M124,68.5v1.4h0.8v0.8H124V73c0,0.2,0.1,0.3,0.4,0.3c0.2,0,0.3,0,0.5-0.1V74c-0.3,0-0.5,0.1-0.8,0.1
		c-0.7,0-1-0.3-1-1v-2.5h-0.6v-0.8h0.6v-1.4H124z"/>
	<path class="st2" d="M126.5,68.2v2.1c0.4-0.4,0.8-0.5,1.2-0.5c0.8,0,1.2,0.5,1.2,1.4V74h-1v-2.7c0-0.5-0.1-0.7-0.5-0.7
		c-0.3,0-0.7,0.2-0.9,0.4v3h-1v-5.8H126.5z"/>
	<path class="st2" d="M133.7,68.2v3.7c0,0.8,0.3,1.2,1.1,1.2c0.8,0,1.1-0.4,1.1-1.2v-3.7h1.1v3.7c0,1.4-0.8,2.2-2.2,2.2
		c-1.4,0-2.2-0.8-2.2-2.2v-3.6H133.7z"/>
	<path class="st2" d="M139.4,68.2v2.6l1.9-2.6h1.3l-1.6,2.2l1.9,3.6h-1.2l-1.4-2.7l-0.8,1V74h-1.1v-5.8H139.4z"/>
	<path class="st2" d="M148,70.8c0,0-0.1,0-0.2,0c-0.5,0-0.9,0.5-0.9,0.7V74h-1v-4.2h0.9v0.7h0c0.2-0.5,0.6-0.8,1.2-0.8V70.8z"/>
	<path class="st2" d="M151.8,71.6v0.4h-2.5c0,0.8,0.3,1.2,0.9,1.2c0.4,0,0.6-0.1,0.9-0.5l0.7,0.4c-0.4,0.6-0.9,0.8-1.7,0.8
		c-1.1,0-1.8-0.8-1.8-2.2s0.7-2.2,1.8-2.2C151.3,69.8,151.8,70.8,151.8,71.6z M150.9,71.4c0-0.6-0.3-0.9-0.8-0.9
		c-0.5,0-0.8,0.3-0.8,0.9H150.9z"/>
	<path class="st2" d="M156,69.8v0.7c-0.2,0-0.5,0-0.6,0.1c0.1,0.2,0.2,0.4,0.2,0.7c0,0.9-0.6,1.3-1.6,1.3c-0.7,0-0.7,0.1-0.7,0.2
		c0,0.2,0.2,0.3,0.9,0.3c0.7,0,1.2,0.1,1.4,0.3c0.3,0.2,0.4,0.5,0.4,0.8c0,0.7-0.7,1.2-1.9,1.2c-1.2,0-1.9-0.4-1.9-1
		c0-0.5,0.3-0.8,0.8-0.8v0c-0.5-0.2-0.6-0.4-0.6-0.7c0-0.3,0.3-0.6,0.6-0.8c-0.4-0.4-0.6-0.7-0.6-1.1c0-0.8,0.6-1.4,1.6-1.4
		c0.4,0,0.8,0.1,1,0.4C155.2,69.9,155.5,69.8,156,69.8L156,69.8z M154.2,74.9c0.6,0,0.9-0.3,0.9-0.5c0-0.3-0.4-0.5-1.3-0.5
		c-0.4,0-0.7,0.2-0.7,0.5C153.1,74.8,153.4,74.9,154.2,74.9z M154,71.9c0.4,0,0.7-0.3,0.7-0.7s-0.3-0.7-0.7-0.7
		c-0.4,0-0.7,0.3-0.7,0.7C153.3,71.6,153.6,71.9,154,71.9z"/>
	<path class="st2" d="M157.6,69.8v2.7c0,0.5,0.1,0.7,0.5,0.7c0.3,0,0.7-0.2,0.9-0.4v-3h1V74h-0.9v-0.4c-0.5,0.4-0.9,0.5-1.3,0.5
		c-0.8,0-1.2-0.5-1.2-1.4v-2.9H157.6z"/>
	<path class="st2" d="M162.1,68.2V74h-1v-5.8H162.1z"/>
	<path class="st2" d="M166.3,71.4v2c0,0.1,0,0.4,0.1,0.6h-1l-0.1-0.4c-0.4,0.3-0.8,0.4-1.3,0.4c-0.7,0-1.1-0.5-1.1-1.1
		c0-0.9,0.8-1.4,2.4-1.6V71c0-0.3-0.3-0.5-0.6-0.5c-0.3,0-0.6,0.2-0.9,0.5l-0.6-0.5c0.3-0.4,0.9-0.8,1.5-0.8
		C165.8,69.8,166.3,70.2,166.3,71.4z M164.4,73.3c0.3,0,0.6-0.2,0.9-0.4V72c-1.1,0.2-1.4,0.5-1.4,0.8
		C163.9,73.2,164.1,73.3,164.4,73.3z"/>
	<path class="st2" d="M168.4,68.5v1.4h0.8v0.8h-0.8V73c0,0.2,0.1,0.3,0.4,0.3c0.2,0,0.3,0,0.5-0.1V74c-0.3,0-0.5,0.1-0.8,0.1
		c-0.7,0-1-0.3-1-1v-2.5h-0.6v-0.8h0.6v-1.4H168.4z"/>
	<path class="st2" d="M171,68.1v0.9h-1v-0.9H171z M171,69.8V74h-1v-4.2H171z"/>
	<path class="st2" d="M175.5,71.9c0,1.3-0.7,2.2-1.8,2.2c-1.1,0-1.8-0.8-1.8-2.2c0-1.3,0.7-2.2,1.8-2.2S175.5,70.6,175.5,71.9z
		 M173.7,73.3c0.5,0,0.8-0.4,0.8-1.4c0-0.9-0.3-1.4-0.8-1.4c-0.6,0-0.8,0.5-0.8,1.4C172.8,72.9,173.1,73.3,173.7,73.3z"/>
	<path class="st2" d="M179.6,71.1V74h-1v-2.7c0-0.5-0.1-0.7-0.5-0.7c-0.3,0-0.7,0.2-0.9,0.4v3h-1v-4.2h0.9v0.4
		c0.5-0.4,0.9-0.5,1.3-0.5C179.2,69.8,179.6,70.3,179.6,71.1z"/>
	<path class="st2" d="M183.3,70.4l-0.6,0.5c-0.3-0.3-0.5-0.4-0.8-0.4c-0.4,0-0.6,0.2-0.6,0.4c0,0.2,0.2,0.4,0.7,0.6
		c1,0.3,1.3,0.7,1.3,1.4c0,0.8-0.6,1.2-1.5,1.2c-0.7,0-1.2-0.3-1.6-0.8l0.7-0.5c0.3,0.4,0.6,0.6,1,0.6c0.4,0,0.6-0.2,0.6-0.5
		c0-0.2-0.2-0.4-0.8-0.6c-1-0.3-1.3-0.7-1.3-1.3c0-0.7,0.6-1.2,1.4-1.2C182.4,69.8,182.9,70,183.3,70.4z"/>
</g>
<g class="st1">
	<path class="st2" d="M17.9,12.3v1.5h-6.1v2H17v1.5h-5.3v2.3H18V21h-8v-8.7H17.9z"/>
	<path class="st2" d="M20.4,12.3l3.3,7l3.3-7h1.8L24.5,21h-1.8l-4.2-8.7H20.4z"/>
	<path class="st2" d="M35.4,12.3c2.5,0,3.5,0.8,3.5,2.6c0,1.5-1,2.5-2.4,2.6l2.7,3.5H37l-2.5-3.4h-2.7V21H30v-8.7H35.4z M35.1,16.2
		c1.6,0,2-0.3,2-1.2c0-0.9-0.5-1.2-2-1.2h-3.4v2.5H35.1z"/>
	<path class="st2" d="M48.5,12.3v1.5h-6.1v2h5.3v1.5h-5.3v2.3h6.3V21h-8v-8.7H48.5z"/>
	<path class="st2" d="M51.8,12.3l5.8,6.3v-6.3h1.6V21h-1.6l-6.1-6.5V21H50v-8.7H51.8z"/>
	<path class="st2" d="M69.2,12.3v1l-5.9,6.3h6.1V21h-8.8v-0.8l6.1-6.4h-5.8v-1.5H69.2z"/>
	<path class="st2" d="M80.5,16.7c0,2.5-1.8,4.5-5.2,4.5c-3.4,0-5.2-2-5.2-4.5c0-2.9,1.8-4.6,5.2-4.6C78.7,12.1,80.5,13.9,80.5,16.7z
		 M75.3,13.5c-2.1,0-3.5,1.1-3.5,3.1c0,2,1.3,3.1,3.5,3.1c2.2,0,3.5-1.1,3.5-3.1C78.8,14.7,77.5,13.5,75.3,13.5z"/>
	<path class="st2" d="M84,15.7v1.7h-1.6v-1.7H84z M84,19.3V21h-1.6v-1.7H84z"/>
	<path class="st2" d="M92,12.7v2.1h2.2V16H92v3c0,0.6,0.3,0.9,1,0.9c0.4,0,1-0.1,1.3-0.2v1.3c-0.4,0-1,0.1-1.6,0.1
		c-1.6,0-2.2-0.6-2.2-1.8V16h-1.2v-1.3h1.2v-2.1H92z"/>
	<path class="st2" d="M96.8,12.3v3.1c0.7-0.7,1.4-1,2.4-1c1.7,0,2.5,0.9,2.5,2.5V21h-1.5v-3.6c0-1.2-0.4-1.8-1.4-1.8
		c-0.9,0-1.5,0.2-2,0.9V21h-1.5v-8.7H96.8z"/>
	<path class="st2" d="M110.1,18.2h-5.6c0.1,1.2,1,1.8,2.1,1.8c0.8,0,1.5-0.3,1.8-0.9h1.6c-0.3,1.2-1.6,2.1-3.4,2.1
		c-2.3,0-3.7-1.4-3.7-3.5c0-2,1.4-3.4,3.5-3.4C108.7,14.3,110.1,15.6,110.1,18.2z M108.5,17c-0.2-1-0.9-1.5-2-1.5
		c-1.1,0-1.8,0.5-2,1.5H108.5z"/>
	<path class="st2" d="M122.4,16.8h-1.5c-0.2-0.7-0.9-1.2-1.9-1.2c-1.3,0-2.2,0.9-2.2,2.1c0,1.3,0.8,2.3,2.1,2.3c1,0,1.9-0.5,2.1-1.2
		h1.6c-0.4,1.5-1.6,2.5-3.5,2.5c-2.4,0-3.8-1.3-3.8-3.6c0-1.8,1.4-3.3,3.7-3.3C120.8,14.3,122.2,15.3,122.4,16.8z"/>
	<path class="st2" d="M130.5,17.8c0,2.2-1.5,3.4-3.6,3.4c-2.1,0-3.6-1.2-3.6-3.4c0-2,1.3-3.4,3.6-3.4
		C129.1,14.3,130.5,15.7,130.5,17.8z M126.9,19.9c1.3,0,2.1-0.9,2.1-2.2c0-1.4-0.9-2.1-2.1-2.1c-1.2,0-2.1,0.7-2.1,2.1
		C124.8,19.1,125.6,19.9,126.9,19.9z"/>
	<path class="st2" d="M138.1,16.8V21h-1.5v-3.6c0-1.2-0.4-1.8-1.4-1.8c-0.9,0-1.5,0.2-2,0.9V21h-1.5v-6.4h1.5v0.8
		c0.8-0.8,1.5-1,2.4-1C137.2,14.3,138.1,15.3,138.1,16.8z"/>
	<path class="st2" d="M140.7,14.6l2.2,4.8l2.2-4.8h1.6l-3.1,6.4h-1.5l-3-6.4H140.7z"/>
	<path class="st2" d="M154.5,18.2h-5.6c0.1,1.2,1,1.8,2.1,1.8c0.8,0,1.5-0.3,1.8-0.9h1.6c-0.3,1.2-1.6,2.1-3.4,2.1
		c-2.3,0-3.7-1.4-3.7-3.5c0-2,1.4-3.4,3.5-3.4C153.1,14.3,154.4,15.6,154.5,18.2z M152.9,17c-0.2-1-0.9-1.5-2-1.5
		c-1.1,0-1.8,0.5-2,1.5H152.9z"/>
	<path class="st2" d="M162.1,16.8V21h-1.5v-3.6c0-1.2-0.4-1.8-1.4-1.8c-0.9,0-1.5,0.2-2,0.9V21h-1.5v-6.4h1.5v0.8
		c0.8-0.8,1.5-1,2.4-1C161.3,14.3,162.1,15.3,162.1,16.8z"/>
	<path class="st2" d="M165.3,12.1v1.3h-1.5v-1.3H165.3z M165.3,14.6V21h-1.5v-6.4H165.3z"/>
	<path class="st2" d="M173.8,18.2h-5.6c0.1,1.2,1,1.8,2.1,1.8c0.8,0,1.5-0.3,1.8-0.9h1.6c-0.3,1.2-1.6,2.1-3.4,2.1
		c-2.3,0-3.7-1.4-3.7-3.5c0-2,1.4-3.4,3.5-3.4C172.4,14.3,173.8,15.6,173.8,18.2z M172.2,17c-0.2-1-0.9-1.5-2-1.5
		c-1.1,0-1.8,0.5-2,1.5H172.2z"/>
	<path class="st2" d="M181.4,16.8V21h-1.5v-3.6c0-1.2-0.4-1.8-1.4-1.8c-0.9,0-1.5,0.2-2,0.9V21H175v-6.4h1.5v0.8
		c0.8-0.8,1.5-1,2.4-1C180.6,14.3,181.4,15.3,181.4,16.8z"/>
	<path class="st2" d="M189.7,16.8h-1.5c-0.2-0.7-0.9-1.2-1.9-1.2c-1.3,0-2.2,0.9-2.2,2.1c0,1.3,0.8,2.3,2.1,2.3c1,0,1.9-0.5,2.1-1.2
		h1.6c-0.4,1.5-1.6,2.5-3.5,2.5c-2.4,0-3.8-1.3-3.8-3.6c0-1.8,1.4-3.3,3.7-3.3C188.1,14.3,189.5,15.3,189.7,16.8z"/>
	<path class="st2" d="M197.8,18.2h-5.6c0.1,1.2,1,1.8,2.1,1.8c0.8,0,1.5-0.3,1.8-0.9h1.6c-0.3,1.2-1.6,2.1-3.4,2.1
		c-2.3,0-3.7-1.4-3.7-3.5c0-2,1.4-3.4,3.5-3.4C196.4,14.3,197.8,15.6,197.8,18.2z M196.2,17c-0.2-1-0.9-1.5-2-1.5
		c-1.1,0-1.8,0.5-2,1.5H196.2z"/>
	<path class="st2" d="M210.2,17.8c0,2.2-1.5,3.4-3.6,3.4c-2.1,0-3.6-1.2-3.6-3.4c0-2,1.3-3.4,3.6-3.4
		C208.8,14.3,210.2,15.7,210.2,17.8z M206.6,19.9c1.3,0,2.1-0.9,2.1-2.2c0-1.4-0.9-2.1-2.1-2.1c-1.2,0-2.1,0.7-2.1,2.1
		C204.5,19.1,205.2,19.9,206.6,19.9z"/>
	<path class="st2" d="M216.3,12.3v1.3c-0.7-0.2-1.1-0.2-1.4-0.2c-0.9,0-1.2,0.3-1.2,1.1v0.4h2.3V16h-2.3v5h-1.5v-5h-1.4v-1.3h1.4V14
		c0-1.1,0.6-1.9,2.5-1.9C215.1,12.1,215.3,12.1,216.3,12.3z"/>
	<path class="st2" d="M228.1,16.6V20c0,0.3,0,0.7,0.1,1h-1.5c0-0.2-0.1-0.4-0.1-0.6c-1.1,0.6-1.9,0.9-2.8,0.9
		c-1.2,0-2.5-0.6-2.5-1.9c0-0.9,0.5-1.5,1.6-2c0.9-0.4,2.1-0.6,3.7-0.6v-0.3c0-0.6-0.6-0.9-1.7-0.9c-1,0-1.6,0.2-1.7,0.9h-1.5
		c0.3-1.3,1.4-2.1,3.3-2.1C226.9,14.3,228.1,14.9,228.1,16.6z M224,20.1c0.9,0,1.6-0.3,2.6-0.8v-1.5c-0.9,0-2,0.2-2.7,0.4
		c-0.6,0.2-1,0.5-1,1C222.9,19.7,223.2,20.1,224,20.1z"/>
	<path class="st2" d="M236.1,16.8V21h-1.5v-3.6c0-1.2-0.4-1.8-1.4-1.8c-0.9,0-1.5,0.2-2,0.9V21h-1.5v-6.4h1.5v0.8
		c0.8-0.8,1.5-1,2.4-1C235.3,14.3,236.1,15.3,236.1,16.8z"/>
	<path class="st2" d="M248.8,17.8c0,2.2-1.5,3.4-3.6,3.4c-2.1,0-3.6-1.2-3.6-3.4c0-2,1.3-3.4,3.6-3.4
		C247.5,14.3,248.8,15.7,248.8,17.8z M245.2,19.9c1.3,0,2.1-0.9,2.1-2.2c0-1.4-0.9-2.1-2.1-2.1c-1.2,0-2.1,0.7-2.1,2.1
		C243.1,19.1,243.9,19.9,245.2,19.9z"/>
	<path class="st2" d="M254.3,14.4V16c-0.4-0.1-0.5-0.1-0.9-0.1c-1.3,0-1.9,0.6-1.9,1.7V21H250v-6.4h1.5v1h0c0.5-0.8,1.3-1.2,2.3-1.2
		C254.2,14.3,254.2,14.3,254.3,14.4z"/>
	<path class="st2" d="M261.7,16.6V20c0,0.3,0,0.7,0.1,1h-1.5c0-0.2-0.1-0.4-0.1-0.6c-1.1,0.6-1.9,0.9-2.8,0.9
		c-1.2,0-2.5-0.6-2.5-1.9c0-0.9,0.5-1.5,1.6-2c0.9-0.4,2.1-0.6,3.7-0.6v-0.3c0-0.6-0.6-0.9-1.7-0.9c-1,0-1.6,0.2-1.7,0.9h-1.5
		c0.3-1.3,1.4-2.1,3.3-2.1C260.5,14.3,261.7,14.9,261.7,16.6z M257.6,20.1c0.9,0,1.6-0.3,2.6-0.8v-1.5c-0.9,0-2,0.2-2.7,0.4
		c-0.6,0.2-1,0.5-1,1C256.6,19.7,256.9,20.1,257.6,20.1z"/>
	<path class="st2" d="M265,12.3V21h-1.5v-8.7H265z"/>
	<path class="st2" d="M273,12.7v2.1h2.2V16H273v3c0,0.6,0.3,0.9,1,0.9c0.4,0,1-0.1,1.3-0.2v1.3c-0.4,0-1,0.1-1.6,0.1
		c-1.6,0-2.2-0.6-2.2-1.8V16h-1.2v-1.3h1.2v-2.1H273z"/>
	<path class="st2" d="M282.7,16.6V20c0,0.3,0,0.7,0.1,1h-1.5c0-0.2-0.1-0.4-0.1-0.6c-1.1,0.6-1.9,0.9-2.8,0.9
		c-1.2,0-2.5-0.6-2.5-1.9c0-0.9,0.5-1.5,1.6-2c0.9-0.4,2.1-0.6,3.7-0.6v-0.3c0-0.6-0.6-0.9-1.7-0.9c-1,0-1.6,0.2-1.7,0.9h-1.5
		c0.3-1.3,1.4-2.1,3.3-2.1C281.5,14.3,282.7,14.9,282.7,16.6z M278.6,20.1c0.9,0,1.6-0.3,2.6-0.8v-1.5c-0.9,0-2,0.2-2.7,0.4
		c-0.6,0.2-1,0.5-1,1C277.6,19.7,277.9,20.1,278.6,20.1z"/>
	<path class="st2" d="M285.9,12.3v3c1-0.8,1.8-0.9,2.5-0.9c2.1,0,3.5,1.4,3.5,3.4c0,2.1-1.5,3.5-3.4,3.5c-1,0-1.9-0.4-2.6-1V21h-1.5
		v-8.7H285.9z M285.9,19c0.9,0.7,1.5,0.9,2.2,0.9c1.3,0,2.2-0.8,2.2-2.2c0-1.3-1-2.2-2.3-2.2c-0.8,0-1.4,0.3-2.1,0.9V19z"/>
	<path class="st2" d="M294.6,12.3V21h-1.5v-8.7H294.6z"/>
	<path class="st2" d="M303.1,18.2h-5.6c0.1,1.2,1,1.8,2.1,1.8c0.8,0,1.5-0.3,1.8-0.9h1.6c-0.3,1.2-1.6,2.1-3.4,2.1
		c-2.3,0-3.7-1.4-3.7-3.5c0-2,1.4-3.4,3.5-3.4C301.7,14.3,303.1,15.6,303.1,18.2z M301.5,17c-0.2-1-0.9-1.5-2-1.5
		c-1.1,0-1.8,0.5-2,1.5H301.5z"/>
	<path class="st2" d="M306.3,12.7v2.1h2.2V16h-2.2v3c0,0.6,0.3,0.9,1,0.9c0.4,0,1-0.1,1.3-0.2v1.3c-0.4,0-1,0.1-1.6,0.1
		c-1.6,0-2.2-0.6-2.2-1.8V16h-1.2v-1.3h1.2v-2.1H306.3z"/>
</g>
<g class="st1">
	<path class="st2" d="M313.5,11.8V17h-0.9v-3.9h-1v-0.6c0.6-0.1,1.1-0.3,1.4-0.7H313.5z"/>
	<path class="st2" d="M317.2,16v1l-0.4,1h-0.5l0.4-1.1h-0.4v-1H317.2z"/>
	<path class="st2" d="M322.7,13.5c0,0.7-0.4,1.3-1.2,1.7l-1.6,0.9v0h2.8V17h-4.5v-0.7l2.6-1.6c0.5-0.3,1.1-0.6,1.1-1.2
		c0-0.6-0.4-0.9-1.3-0.9c-0.7,0-1.2,0.3-1.4,1h-0.9c0-1,0.9-1.8,2.3-1.8C321.9,11.8,322.7,12.4,322.7,13.5z"/>
</g>
<g class="st1">
	<path class="st2" d="M12.1,39.1v5.1H13V45h-2.8v-0.8h0.9v-4h-1v-0.7c0.5,0,1-0.1,1.3-0.4H12.1z"/>
	<path class="st2" d="M15.7,43.9V45h-1.1v-1.1H15.7z"/>
</g>
<g class="st1">
	<path class="st2" d="M23.1,39.2v0.5h-2.8v1.9h2v0.5h-2v2.2h3V45h-3.6v-5.8H23.1z"/>
	<path class="st2" d="M24.4,39.2l1.4,4.7h0l1.4-4.7H28L26.2,45h-0.6l-1.8-5.8H24.4z"/>
	<path class="st2" d="M30.8,39.2c1.1,0,1.9,0.5,1.9,1.5c0,0.7-0.4,1.2-1.2,1.5l1.2,2.8h-0.7l-1.2-2.6h-1.4V45h-0.6v-5.8H30.8z
		 M30.7,41.8c0.8,0,1.3-0.3,1.3-1.1c0-0.7-0.4-1-1.3-1h-1.2v2.1H30.7z"/>
	<path class="st2" d="M37.8,39.2v0.5h-2.8v1.9h2v0.5h-2v2.2h3V45h-3.6v-5.8H37.8z"/>
	<path class="st2" d="M40.1,39.2l2.5,4.4h0v-4.4h0.6V45h-0.5l-2.9-5.1h0V45h-0.6v-5.8H40.1z"/>
	<path class="st2" d="M48.2,39.2v0.4l-2.9,4.8h3V45h-3.7v-0.5l2.9-4.8h-2.6v-0.5H48.2z"/>
	<path class="st2" d="M53.5,42.1c0,1.6-0.6,3-2.3,3s-2.3-1.4-2.3-3c0-1.6,0.6-3,2.3-3C52.9,39.1,53.5,40.5,53.5,42.1z M51.2,44.5
		c1,0,1.6-0.8,1.6-2.4c0-1.6-0.6-2.4-1.6-2.4c-1,0-1.6,0.8-1.6,2.4C49.6,43.7,50.2,44.5,51.2,44.5z"/>
	<path class="st2" d="M60.5,40.6l-0.6,0.1c-0.2-0.6-0.7-1-1.3-1c-0.7,0-1.1,0.3-1.1,0.9c0,0.5,0.5,0.7,1.1,1
		c1.1,0.4,2.1,0.7,2.1,1.8c0,1.2-0.8,1.7-1.9,1.7c-1,0-1.6-0.5-2.1-1.5l0.6-0.2c0.3,0.8,0.8,1.2,1.5,1.2c0.7,0,1.3-0.3,1.3-1
		c0-0.7-0.7-1-1.6-1.3c-1-0.4-1.7-0.7-1.7-1.6c0-0.9,0.8-1.5,1.7-1.5C59.5,39.1,60.2,39.7,60.5,40.6z"/>
	<path class="st2" d="M66.1,40.8c0.8,0,1.1,0.4,1.1,1.2v3h-0.6v-3c0-0.5-0.2-0.7-0.6-0.7c-0.5,0-0.8,0.3-1.2,0.6V45h-0.6v-3
		c0-0.5-0.2-0.7-0.6-0.7c-0.5,0-0.8,0.3-1.2,0.6V45h-0.6v-4.2h0.6v0.6c0.4-0.4,0.8-0.6,1.2-0.6c0.5,0,0.9,0.3,1.1,0.7
		C65.1,41,65.6,40.8,66.1,40.8z"/>
	<path class="st2" d="M70.7,39.2c1.1,0,1.8,0.5,1.8,1.6c0,1.2-1,1.6-2.1,1.6h-1V45h-0.6v-5.8H70.7z M70.4,41.9c1,0,1.4-0.3,1.4-1.1
		s-0.5-1.1-1.3-1.1h-1.2v2.1H70.4z"/>
	<path class="st2" d="M77.3,40.8L76.7,41c-0.2-0.8-0.6-1.3-1.4-1.3c-1.1,0-1.5,1.2-1.5,2.4c0,1.6,0.6,2.4,1.6,2.4
		c0.7,0,1.2-0.4,1.4-1.4l0.6,0.1c-0.3,1.2-1,1.8-2,1.8c-1.6,0-2.2-1.4-2.2-3c0-1.6,0.6-3,2.2-3C76.3,39.1,77,39.7,77.3,40.8z"/>
	<path class="st2" d="M79.3,44.1V45h-0.8v-0.9H79.3z"/>
</g>
<g class="st1">
	<path class="st2" d="M13.3,49.8c0,0.6-0.3,1.1-0.7,1.6c-0.4,0.4-1.6,1.3-2,1.7h2.7V54H9.4v-1c0.1-0.3,0.4-0.7,1.2-1.3
		c1.4-1.1,1.6-1.5,1.6-1.9c0-0.5-0.3-0.8-0.9-0.8c-0.5,0-0.9,0.3-1,0.9l-0.9-0.2c0.1-0.9,1-1.6,2-1.6C12.5,48.1,13.3,48.8,13.3,49.8
		z"/>
	<path class="st2" d="M15.7,52.9V54h-1.1v-1.1H15.7z"/>
</g>
<g class="st1">
	<path class="st2" d="M21.7,48.2l1.8,5.8h-0.7l-0.5-1.8h-2.1L19.6,54H19l1.8-5.8H21.7z M20.3,51.6h1.8l-0.8-3h-0.1L20.3,51.6z"/>
	<path class="st2" d="M24.9,48.2v3.7h0l1.7-2.1h0.7l-1.2,1.5l1.4,2.6h-0.7l-1.1-2.1l-0.8,0.9V54h-0.6v-5.8H24.9z"/>
	<path class="st2" d="M29.1,48.1v0.7h-0.6v-0.7H29.1z M29.1,49.8V54h-0.6v-4.2H29.1z"/>
	<path class="st2" d="M33.2,49.8v0.4l-2.3,3.2h2.3V54h-3.1v-0.4l2.3-3.2h-2v-0.5H33.2z"/>
	<path class="st2" d="M36.9,51v2.2c0,0.2,0,0.5,0.1,0.8h-0.6l-0.1-0.6c-0.4,0.4-0.9,0.7-1.4,0.7c-0.7,0-1.2-0.5-1.2-1.2
		c0-1.2,1.4-1.5,2.5-1.7V51c0-0.6-0.4-0.8-0.9-0.8c-0.5,0-0.9,0.3-1.1,0.6l-0.5-0.3c0.3-0.6,0.9-0.9,1.6-0.9
		C36.2,49.8,36.9,50.2,36.9,51z M35,53.6c0.4,0,1-0.3,1.3-0.7v-1.1c-0.7,0.1-2,0.4-2,1.2C34.3,53.3,34.7,53.6,35,53.6z"/>
	<path class="st2" d="M38.1,49.8L39,53h0l0.8-3.2h0.6l0.8,3.2h0l0.8-3.2h0.6L41.5,54h-0.6l-0.8-3.2h0L39.3,54h-0.6l-1.1-4.2H38.1z"
		/>
	<path class="st2" d="M46.2,51v2.2c0,0.2,0,0.5,0.1,0.8h-0.6l-0.1-0.6c-0.4,0.4-0.9,0.7-1.4,0.7c-0.7,0-1.2-0.5-1.2-1.2
		c0-1.2,1.4-1.5,2.5-1.7V51c0-0.6-0.4-0.8-0.9-0.8c-0.5,0-0.9,0.3-1.1,0.6l-0.5-0.3c0.3-0.6,0.9-0.9,1.6-0.9
		C45.6,49.8,46.2,50.2,46.2,51z M44.4,53.6c0.4,0,1-0.3,1.3-0.7v-1.1c-0.7,0.1-2,0.4-2,1.2C43.7,53.3,44,53.6,44.4,53.6z"/>
	<path class="st2" d="M53.5,48.2v0.5h-1.7V54h-0.6v-5.2h-1.7v-0.5H53.5z"/>
	<path class="st2" d="M59.7,51.6V52H57c0,1,0.6,1.6,1.2,1.6c0.5,0,0.9-0.3,1.1-0.7l0.4,0.2c-0.4,0.7-0.9,1-1.6,1
		c-1.1,0-1.8-0.8-1.8-2.2c0-1.5,0.8-2.2,1.7-2.2C59,49.8,59.7,50.4,59.7,51.6z M59.1,51.5c0-0.8-0.4-1.3-1-1.3c-0.6,0-1,0.4-1.1,1.3
		H59.1z"/>
	<path class="st2" d="M61.5,48.5v1.4h1v0.5h-1v3c0,0.2,0.1,0.3,0.5,0.3c0.2,0,0.3,0,0.5,0V54c-0.1,0-0.3,0.1-0.7,0.1
		c-0.6,0-0.9-0.1-0.9-0.7v-3.1h-0.7v-0.5h0.7v-1.4H61.5z"/>
	<path class="st2" d="M68.7,51v2.2c0,0.2,0,0.5,0.1,0.8h-0.6l-0.1-0.6c-0.4,0.4-0.9,0.7-1.4,0.7c-0.7,0-1.2-0.5-1.2-1.2
		c0-1.2,1.4-1.5,2.5-1.7V51c0-0.6-0.4-0.8-0.9-0.8c-0.5,0-0.9,0.3-1.1,0.6l-0.5-0.3c0.3-0.6,0.9-0.9,1.6-0.9
		C68,49.8,68.7,50.2,68.7,51z M66.8,53.6c0.4,0,1-0.3,1.3-0.7v-1.1c-0.7,0.1-2,0.4-2,1.2C66.1,53.3,66.5,53.6,66.8,53.6z"/>
	<path class="st2" d="M70.6,48.2V54H70v-5.8H70.6z"/>
	<path class="st2" d="M73,53.1V54h-0.8v-0.9H73z"/>
	<path class="st2" d="M79.1,48.2v4.3c0,1-0.4,1.5-1.3,1.5c-0.6,0-1-0.2-1.4-0.7l0.5-0.3c0.2,0.3,0.5,0.5,0.9,0.5
		c0.5,0,0.7-0.3,0.7-0.8v-4.5H79.1z"/>
	<path class="st2" d="M85.2,48.2L87,54h-0.7l-0.5-1.8h-2.1L83.2,54h-0.7l1.8-5.8H85.2z M83.9,51.6h1.8l-0.8-3h-0.1L83.9,51.6z"/>
	<path class="st2" d="M92,49.8c0.8,0,1.1,0.4,1.1,1.2v3h-0.6v-3c0-0.5-0.2-0.7-0.6-0.7c-0.5,0-0.8,0.3-1.2,0.6V54h-0.6v-3
		c0-0.5-0.2-0.7-0.6-0.7c-0.5,0-0.8,0.3-1.2,0.6V54h-0.6v-4.2h0.6v0.6c0.4-0.4,0.8-0.6,1.2-0.6c0.5,0,0.9,0.3,1.1,0.7
		C91.1,50,91.5,49.8,92,49.8z"/>
	<path class="st2" d="M100.4,49.6l-0.6,0.1c-0.2-0.6-0.7-1-1.3-1c-0.7,0-1.1,0.3-1.1,0.9c0,0.5,0.5,0.7,1.1,1
		c1.1,0.4,2.1,0.7,2.1,1.8c0,1.2-0.8,1.7-1.9,1.7c-1,0-1.6-0.5-2.1-1.5l0.6-0.2c0.3,0.8,0.8,1.2,1.5,1.2c0.7,0,1.3-0.3,1.3-1
		c0-0.7-0.7-1-1.6-1.3c-1-0.4-1.7-0.7-1.7-1.6c0-0.9,0.8-1.5,1.7-1.5C99.5,48.1,100.1,48.7,100.4,49.6z"/>
	<path class="st2" d="M104.9,51.9c0,1.1-0.5,2.2-1.7,2.2s-1.7-1-1.7-2.2c0-1.1,0.5-2.2,1.7-2.2S104.9,50.8,104.9,51.9z M103.2,53.6
		c0.8,0,1.1-0.8,1.1-1.7s-0.3-1.7-1.1-1.7c-0.8,0-1.1,0.9-1.1,1.7C102,52.7,102.3,53.6,103.2,53.6z"/>
	<path class="st2" d="M108.7,50.9l-0.5,0.2c-0.2-0.5-0.5-0.8-1-0.8c-0.9,0-1.1,0.8-1.1,1.7c0,1.1,0.4,1.7,1.1,1.7
		c0.6,0,0.8-0.2,1.1-0.8l0.5,0.2c-0.4,0.7-0.8,1.1-1.6,1.1c-1.2,0-1.7-1-1.7-2.2s0.5-2.2,1.7-2.2C107.9,49.8,108.4,50.1,108.7,50.9z
		"/>
	<path class="st2" d="M113.4,48.2l2.5,4.4h0v-4.4h0.6V54H116l-2.9-5.1h0V54h-0.6v-5.8H113.4z"/>
	<path class="st2" d="M121,51.6V52h-2.7c0,1,0.6,1.6,1.2,1.6c0.5,0,0.9-0.3,1.1-0.7l0.4,0.2c-0.4,0.7-0.9,1-1.6,1
		c-1.1,0-1.8-0.8-1.8-2.2c0-1.5,0.8-2.2,1.7-2.2C120.3,49.8,121,50.4,121,51.6z M120.4,51.5c0-0.8-0.4-1.3-1-1.3
		c-0.6,0-1,0.4-1.1,1.3H120.4z"/>
	<path class="st2" d="M125.5,51.9c0,1.7-1.1,2.2-1.7,2.2c-0.4,0-0.8-0.2-1.1-0.5v1.9h-0.6v-5.7h0.6v0.5c0.2-0.3,0.7-0.6,1.1-0.6
		C124.3,49.8,125.5,50.1,125.5,51.9z M122.7,53c0.4,0.4,0.7,0.6,1.1,0.6c0.8,0,1.2-0.6,1.2-1.7c0-1-0.4-1.6-1.2-1.6
		c-0.4,0-0.8,0.3-1,0.6V53z"/>
	<path class="st2" d="M127.1,48.2v2.2h0c0.4-0.4,0.8-0.6,1.2-0.6c0.8,0,1.2,0.5,1.2,1.2V54H129v-3c0-0.4-0.2-0.7-0.7-0.7
		c-0.4,0-0.9,0.3-1.2,0.6V54h-0.6v-5.8H127.1z"/>
	<path class="st2" d="M132.8,50.4c-0.8,0-1.1,0.5-1.4,1.3V54h-0.6v-4.2h0.6v0.8h0c0.3-0.6,0.7-0.9,1.3-0.9h0V50.4z"/>
	<path class="st2" d="M136.7,51.9c0,1.1-0.5,2.2-1.7,2.2s-1.7-1-1.7-2.2c0-1.1,0.5-2.2,1.7-2.2S136.7,50.8,136.7,51.9z M134.9,53.6
		c0.8,0,1.1-0.8,1.1-1.7s-0.3-1.7-1.1-1.7c-0.8,0-1.1,0.9-1.1,1.7C133.8,52.7,134.1,53.6,134.9,53.6z"/>
	<path class="st2" d="M138.3,48.2V54h-0.6v-5.8H138.3z"/>
	<path class="st2" d="M140.8,53.1V54H140v-0.9H140.8z"/>
	<path class="st2" d="M148.3,49.7c0,0.6-0.2,1-0.6,1.4c-0.2,0.2-0.5,0.5-1,0.8c-0.7,0.5-1.2,0.9-1.5,1.6h3.1V54h-3.8v-0.6
		c0.3-0.7,0.9-1.3,1.5-1.7c0.3-0.2,0.6-0.4,0.9-0.6c0.5-0.4,0.8-0.8,0.8-1.4c0-0.7-0.4-1.1-1.2-1.1c-0.7,0-1.2,0.5-1.4,1.3l-0.6-0.1
		c0.3-1.1,0.9-1.6,1.9-1.6C147.6,48.1,148.3,48.7,148.3,49.7z"/>
	<path class="st2" d="M153.4,51.1c0,2-0.7,3-2,3c-1.3,0-2-1-2-3c0-2,0.7-3,2-3C152.7,48.1,153.4,49.2,153.4,51.1z M151.4,53.6
		c1,0,1.4-0.8,1.4-2.5c0-1.7-0.4-2.5-1.4-2.5c-1,0-1.4,0.8-1.4,2.5C150,52.8,150.4,53.6,151.4,53.6z"/>
	<path class="st2" d="M158.1,49.7c0,0.6-0.2,1-0.6,1.4c-0.2,0.2-0.5,0.5-1,0.8c-0.7,0.5-1.2,0.9-1.5,1.6h3.1V54h-3.8v-0.6
		c0.3-0.7,0.9-1.3,1.5-1.7c0.3-0.2,0.6-0.4,0.9-0.6c0.5-0.4,0.8-0.8,0.8-1.4c0-0.7-0.4-1.1-1.2-1.1s-1.2,0.5-1.4,1.3l-0.6-0.1
		c0.3-1.1,0.9-1.6,1.9-1.6C157.3,48.1,158.1,48.7,158.1,49.7z"/>
	<path class="st2" d="M163.2,51.1c0,2-0.7,3-2,3c-1.3,0-2-1-2-3c0-2,0.7-3,2-3C162.5,48.1,163.2,49.2,163.2,51.1z M161.2,53.6
		c1,0,1.4-0.8,1.4-2.5c0-1.7-0.4-2.5-1.4-2.5c-1,0-1.4,0.8-1.4,2.5C159.7,52.8,160.2,53.6,161.2,53.6z"/>
	<path class="st2" d="M165.2,53.1V54l-0.5,1.2h-0.3l0.4-1.2h-0.3v-0.9H165.2z M165.2,50.8v0.9h-0.8v-0.9H165.2z"/>
	<path class="st2" d="M170.1,49.6c0,0.6-0.3,1.1-0.9,1.3c0.7,0.3,1.1,0.8,1.1,1.5c0,1.1-0.9,1.7-2,1.7c-0.9,0-1.6-0.4-2-1.1l0.5-0.3
		c0.4,0.6,1,1,1.6,1c0.7,0,1.4-0.4,1.4-1.1c0-0.9-0.6-1.3-1.6-1.3h-0.6v-0.5h0.4c0.8,0,1.6-0.2,1.6-1.1c0-0.6-0.5-1-1.1-1
		c-0.6,0-1,0.3-1.4,0.8l-0.5-0.3c0.5-0.7,1.1-1,1.9-1C169.4,48.1,170.1,48.6,170.1,49.6z"/>
	<path class="st2" d="M173.7,48.1v5.4h1V54h-2.6v-0.5h1v-4.7l-1.1,0.1v-0.4c0.5-0.1,0.9-0.2,1.1-0.4H173.7z"/>
	<path class="st2" d="M178.1,48.1c-0.8,1-1.1,2-1.1,3.3c0,1.1,0.4,2.2,1.1,3.2h-0.6c-0.7-1-1.1-2.1-1.1-3.3c0-1.2,0.4-2.3,1.1-3.2
		H178.1z"/>
	<path class="st2" d="M182.7,48.2v0.4l-2.4,5.4h-0.7l2.4-5.3h-2.9v-0.5H182.7z"/>
	<path class="st2" d="M184.4,48.1c0.7,1,1.1,2.1,1.1,3.3c0,1.2-0.4,2.3-1.1,3.2h-0.6c0.8-1,1.1-2,1.1-3.3c0-1.1-0.4-2.1-1.1-3.2
		H184.4z"/>
	<path class="st2" d="M187.6,50.8v0.9h-0.8v-0.9H187.6z M187.6,53.1V54h-0.8v-0.9H187.6z"/>
	<path class="st2" d="M191.3,48.1v5.4h1V54h-2.6v-0.5h1v-4.7l-1.1,0.1v-0.4c0.5-0.1,0.9-0.2,1.1-0.4H191.3z"/>
	<path class="st2" d="M197.5,48.5l-0.2,0.5c-0.3-0.2-0.6-0.3-1-0.3c-1.2,0-1.8,1.2-1.8,2.4c0.5-0.5,1-0.7,1.6-0.7
		c1,0,1.7,0.7,1.7,1.9c0,1.1-0.8,1.9-1.9,1.9c-1.4,0-2.1-0.9-2.1-2.7c0-1.6,0.7-3.3,2.4-3.3C196.6,48.1,197.2,48.2,197.5,48.5z
		 M195.9,53.6c0.8,0,1.3-0.5,1.3-1.3c0-0.8-0.5-1.4-1.2-1.4c-0.8,0-1.5,0.7-1.5,1.2C194.5,52.9,195,53.6,195.9,53.6z"/>
	<path class="st2" d="M202.5,49.7c0,0.6-0.2,1-0.6,1.4c-0.2,0.2-0.5,0.5-1,0.8c-0.7,0.5-1.2,0.9-1.5,1.6h3.1V54h-3.8v-0.6
		c0.3-0.7,0.9-1.3,1.5-1.7c0.3-0.2,0.6-0.4,0.9-0.6c0.5-0.4,0.8-0.8,0.8-1.4c0-0.7-0.4-1.1-1.2-1.1c-0.7,0-1.2,0.5-1.4,1.3l-0.6-0.1
		c0.3-1.1,0.9-1.6,1.9-1.6C201.8,48.1,202.5,48.7,202.5,49.7z"/>
	<path class="st2" d="M207.4,49.6c0,0.6-0.3,1.1-1,1.3v0c0.8,0.3,1.3,0.9,1.3,1.6c0,1-0.8,1.6-2.1,1.6c-1.2,0-2.1-0.5-2.1-1.6
		c0-0.6,0.4-1.2,1.3-1.6v0c-0.7-0.2-1-0.7-1-1.3c0-1,0.9-1.4,1.9-1.4C206.5,48.1,207.4,48.6,207.4,49.6z M205.6,53.6
		c1,0,1.5-0.5,1.5-1.1c0-0.7-0.8-1-1.6-1.3c-0.9,0.4-1.4,0.8-1.4,1.3C204.1,53.1,204.7,53.6,205.6,53.6z M205.6,50.7
		c0.6-0.2,1.3-0.5,1.3-1.1c0-0.7-0.7-0.9-1.3-0.9c-0.6,0-1.2,0.2-1.2,0.9C204.3,50,204.7,50.4,205.6,50.7z"/>
	<path class="st2" d="M212,51.7v0.4h-4v-0.4H212z"/>
	<path class="st2" d="M214.8,48.1v5.4h1V54h-2.6v-0.5h1v-4.7l-1.1,0.1v-0.4c0.5-0.1,0.9-0.2,1.1-0.4H214.8z"/>
	<path class="st2" d="M221,48.5l-0.2,0.5c-0.3-0.2-0.6-0.3-1-0.3c-1.2,0-1.8,1.2-1.8,2.4c0.5-0.5,1-0.7,1.6-0.7c1,0,1.7,0.7,1.7,1.9
		c0,1.1-0.8,1.9-1.9,1.9c-1.4,0-2.1-0.9-2.1-2.7c0-1.6,0.7-3.3,2.4-3.3C220.2,48.1,220.7,48.2,221,48.5z M219.4,53.6
		c0.8,0,1.3-0.5,1.3-1.3c0-0.8-0.5-1.4-1.2-1.4c-0.8,0-1.5,0.7-1.5,1.2C218,52.9,218.6,53.6,219.4,53.6z"/>
	<path class="st2" d="M225.9,49.6c0,0.6-0.3,1.1-0.9,1.3c0.7,0.3,1.1,0.8,1.1,1.5c0,1.1-0.9,1.7-2,1.7c-0.9,0-1.6-0.4-2-1.1l0.5-0.3
		c0.4,0.6,1,1,1.6,1c0.7,0,1.4-0.4,1.4-1.1c0-0.9-0.6-1.3-1.6-1.3h-0.6v-0.5h0.4c0.8,0,1.6-0.2,1.6-1.1c0-0.6-0.5-1-1.1-1
		c-0.6,0-1,0.3-1.4,0.8l-0.5-0.3c0.5-0.7,1.1-1,1.9-1C225.2,48.1,225.9,48.6,225.9,49.6z"/>
	<path class="st2" d="M231.1,50.8c0,1.6-0.7,3.3-2.4,3.3c-0.5,0-1-0.1-1.2-0.3l0.2-0.5c0.3,0.2,0.6,0.3,1,0.3c1.2,0,1.7-1.2,1.8-2.4
		c-0.5,0.5-0.9,0.7-1.6,0.7c-0.8,0-1.7-0.5-1.7-1.9c0-1.2,0.8-1.9,1.9-1.9C230.4,48.1,231.1,49.1,231.1,50.8z M229,51.4
		c0.7,0,1.2-0.4,1.5-1.1c0-0.9-0.5-1.7-1.4-1.7c-0.7,0-1.3,0.5-1.3,1.3C227.8,50.9,228.4,51.4,229,51.4z"/>
	<path class="st2" d="M233.2,53.1V54h-0.8v-0.9H233.2z"/>
</g>
<g id="Astellas-Logo" transform="translate(523 47.38)">
	<g id="Group_10" transform="translate(18 20.62)">
		<g id="Group_9">
			<path id="Path_51" class="st2" d="M23.8,9.5c0-0.5,0.4-0.9,0.9-0.9c0,0,0,0,0,0c0.7,0,0.9,0.3,1,0.6l0.2,0.4H26l0.1-1.2
				c-0.4-0.1-0.8-0.1-1.2-0.1c-1.4,0-2,0.9-2,1.5c0,1.6,2.5,1.4,2.5,2.8c0,0.7-0.5,0.9-1.1,0.9c-0.3,0-0.5-0.1-0.7-0.2
				c-0.2-0.3-0.3-0.6-0.4-0.9h-0.1L23,13.7c0.3,0.1,0.7,0.1,1,0.1c1.8,0,2.2-0.9,2.2-1.6C26.3,10.5,23.8,10.8,23.8,9.5"/>
			<path id="Path_52" class="st2" d="M30.1,12.9c-0.2,0.2-0.5,0.4-0.8,0.4c-0.3,0-0.6-0.3-0.6-0.7c0,0,0,0,0,0V8.8H30V8.5h-1.3V7.2
				h-0.2c-0.3,0.7-0.9,1.2-1.6,1.4v0.2h0.9v1.9c0,0.6,0,1.6,0,2.1c0,0.9,0.6,1,0.9,1c0.6,0,1.2-0.3,1.6-0.7L30.1,12.9"/>
			<path id="Path_53" class="st2" d="M35,10.4c0.2,0,0.3-0.1,0.3-0.3c0-1-0.6-1.7-2-1.7c-1.4,0-2.6,1.2-2.6,2.6c0,0.1,0,0.1,0,0.2
				c-0.1,1.3,0.8,2.5,2.1,2.7c0.1,0,0.2,0,0.2,0c0.8,0,1.5-0.3,2-0.8L35,12.8c-0.3,0.3-0.8,0.5-1.3,0.5c-1.3,0-1.9-1.3-1.9-2.5
				c0-0.1,0-0.3,0-0.4L35,10.4z M33.2,8.6c0.8,0,1.1,0.5,1.1,1.3v0.2c-0.2,0-0.3,0-0.7,0l-1.8,0C32,9.2,32.5,8.6,33.2,8.6"/>
			<path id="Path_54" class="st2" d="M37.5,12.5V8.1c0-0.8,0-1.5,0.1-2.3c-0.6,0.1-1.2,0.1-1.8,0.1V6l0.7,0.2c0.1,0,0.1,0.1,0.2,0.1
				c0.1,0.3,0.1,0.6,0.1,1v5.2c0,0.6,0,0.7-0.4,0.9l-0.5,0.2v0.2c0.4-0.1,0.9-0.1,1.3-0.1c0.5,0,0.9,0,1.4,0.1v-0.2l-0.6-0.2
				C37.5,13.3,37.5,13.1,37.5,12.5"/>
			<path id="Path_55" class="st2" d="M41,13.4c-0.3-0.1-0.4-0.3-0.4-0.9V8.1c0-0.8,0-1.5,0.1-2.3c-0.6,0.1-1.2,0.1-1.8,0.1V6
				l0.7,0.2c0.1,0,0.1,0.1,0.2,0.1c0.1,0.3,0.1,0.6,0.1,1v5.2c0,0.6,0,0.7-0.4,0.9l-0.5,0.2v0.2c0.4-0.1,0.9-0.1,1.3-0.1
				c0.5,0,0.9,0,1.4,0.1v-0.2L41,13.4"/>
			<path id="Path_56" class="st2" d="M46.1,12.8V9.7c0-1-0.8-1.4-1.7-1.4c-0.9,0-1.7,0.5-2.1,1.3l0.3,0.2C43,9.3,43.5,9,44.1,8.9
				c0.6,0,1.1,0.2,1.1,1.1v0.6h-0.1c-1.9,0-3.2,0.6-3.2,1.9c0,0.7,0.5,1.4,1.2,1.4c0.1,0,0.2,0,0.2,0c0.7,0,1.4-0.4,1.7-1.1h0l0,1
				c0.3-0.1,0.5-0.1,0.8-0.1c0.3,0,0.6,0,0.9,0.1v-0.2C46.2,13.5,46.1,13.4,46.1,12.8 M45.3,11.9c0.1,0.7-0.5,1.4-1.2,1.4
				c0,0-0.1,0-0.1,0c-0.5,0-0.9-0.3-1-0.8c0-0.1,0-0.1,0-0.2c0-1.2,1.4-1.4,2.3-1.4V11.9"/>
			<path id="Path_57" class="st2" d="M21.5,12.8V9.7c0-1-0.8-1.4-1.7-1.4c-0.9,0-1.7,0.5-2.1,1.3L18,9.8c0.3-0.5,0.9-0.8,1.5-0.9
				c0.6,0,1.1,0.2,1.1,1.1v0.6h-0.1c-1.9,0-3.2,0.6-3.2,1.9c0,0.7,0.5,1.4,1.2,1.4c0.1,0,0.2,0,0.2,0c0.7,0,1.4-0.4,1.7-1.1h0l0,1
				c0.3-0.1,0.5-0.1,0.8-0.1c0.3,0,0.6,0,0.9,0.1v-0.2C21.6,13.5,21.5,13.4,21.5,12.8 M20.6,11.9c0.1,0.7-0.5,1.4-1.2,1.4
				c0,0-0.1,0-0.1,0c-0.5,0-0.9-0.3-1-0.8c0-0.1,0-0.1,0-0.2c0-1.2,1.4-1.4,2.3-1.4L20.6,11.9"/>
			<path id="Path_58" class="st2" d="M48.5,9.5c0-0.5,0.4-0.9,0.9-0.9c0,0,0,0,0,0c0.7,0,0.9,0.3,1,0.6l0.2,0.4h0.1l0.1-1.2
				c-0.4-0.1-0.8-0.1-1.2-0.1c-1.4,0-2,0.9-2,1.5c0,1.6,2.5,1.4,2.5,2.8c0,0.7-0.5,0.9-1.1,0.9c-0.3,0-0.5-0.1-0.7-0.2
				c-0.2-0.3-0.3-0.6-0.4-0.9h-0.1l-0.1,1.3c0.3,0.1,0.7,0.1,1,0.1c1.8,0,2.2-0.9,2.2-1.6C51,10.5,48.5,10.8,48.5,9.5"/>
			<path id="Path_59" class="st2" d="M15.2,5.6c-1.4,1.1-3,2.2-4.6,3c-0.3,1.9-0.9,3.7-1.8,5.4c1.9-0.9,3.7-3.4,4.7-5.5
				c0.9,0.2,1.8,0.7,2.5,1.3C16.1,8.4,15.8,6.9,15.2,5.6"/>
			<path id="Path_60" class="st2" d="M13.5,0c-0.8,0.9-1.4,2-1.7,3.2c0.9,0.2,1.8,0.5,2.6,0.6C13.7,2.6,13.4,1.3,13.5,0"/>
			<path id="Path_61" class="st2" d="M0,1.4c3.5,0.5,6.6,2.3,8.8,5c-1.7,1.8-3,4-3.6,6.4c1-1.5,3.2-2.9,5.3-4.1
				c0.4-1.9,0.7-3.8,1.2-5.4C8.1,2.2,3.5,0.7,0,1.4"/>
			<path id="Path_62" class="st2" d="M14.3,3.8c0.3,0.6,0.6,1.2,0.9,1.8c0.6-0.5,1.1-1.1,1.4-1.8C15.9,3.9,15.1,3.9,14.3,3.8"/>
			<path id="Path_63" class="st2" d="M14.3,3.8c-0.8-0.1-1.6-0.3-2.6-0.6c-0.5,1.6-0.8,3.6-1.2,5.4c1.6-0.9,3.2-1.9,4.6-3
				C14.9,5,14.6,4.4,14.3,3.8"/>
		</g>
	</g>
</g>
</svg>
