<?xml version="1.0" encoding="utf-8"?>
<!-- Generator: Adobe Illustrator 27.0.0, SVG Export Plug-In . SVG Version: 6.00 Build 0)  -->
<svg version="1.1" id="Layer_1" xmlns="http://www.w3.org/2000/svg" xmlns:xlink="http://www.w3.org/1999/xlink" x="0px" y="0px"
	 viewBox="0 0 728 90" style="enable-background:new 0 0 728 90;" xml:space="preserve">
<style type="text/css">
	.st0{enable-background:new    ;}
	.st1{fill:#4D4D4F;}
</style>
<g class="st0">
	<path class="st1" d="M10.8,7.3V16H9.1V7.3H10.8z"/>
	<path class="st1" d="M19.2,11.8V16h-1.5v-3.6c0-1.2-0.4-1.8-1.4-1.8c-0.9,0-1.5,0.2-2,0.9V16h-1.5V9.6h1.5v0.8c0.8-0.8,1.5-1,2.4-1
		C18.4,9.3,19.2,10.3,19.2,11.8z"/>
	<path class="st1" d="M32.6,12.7c0,2.1-1.5,3.5-3.4,3.5c-0.8,0-1.4-0.1-2.5-0.9v2.9h-1.5V9.6h1.5v0.8c0.7-0.7,1.5-1,2.5-1
		C31.3,9.3,32.6,10.8,32.6,12.7z M26.7,14c0.9,0.7,1.4,0.9,2.2,0.9c1.3,0,2.2-0.9,2.2-2.2c0-1.3-1-2.2-2.3-2.2
		c-0.8,0-1.4,0.3-2.1,0.9V14z"/>
	<path class="st1" d="M40.2,11.6V15c0,0.3,0,0.7,0.1,1h-1.5c0-0.2-0.1-0.4-0.1-0.6c-1.1,0.6-1.9,0.9-2.8,0.9c-1.2,0-2.5-0.6-2.5-1.9
		c0-0.9,0.5-1.5,1.6-2c0.9-0.4,2.1-0.6,3.7-0.6v-0.3c0-0.6-0.6-0.9-1.7-0.9c-1,0-1.6,0.2-1.7,0.9h-1.5c0.3-1.3,1.4-2.1,3.3-2.1
		C39,9.3,40.2,9.9,40.2,11.6z M36.1,15.1c0.9,0,1.6-0.3,2.6-0.8v-1.5c-0.9,0-2,0.2-2.7,0.4c-0.6,0.2-1,0.5-1,1
		C35,14.7,35.3,15.1,36.1,15.1z"/>
	<path class="st1" d="M43.7,7.7v2.1H46V11h-2.2v3c0,0.6,0.3,0.9,1,0.9c0.4,0,1-0.1,1.3-0.2v1.3c-0.4,0-1,0.1-1.6,0.1
		c-1.6,0-2.2-0.6-2.2-1.8V11h-1.2V9.8h1.2V7.7H43.7z"/>
	<path class="st1" d="M48.7,7.1v1.3h-1.5V7.1H48.7z M48.7,9.6V16h-1.5V9.6H48.7z"/>
	<path class="st1" d="M57.2,13.2h-5.6c0.1,1.2,1,1.8,2.1,1.8c0.8,0,1.5-0.3,1.8-0.9h1.6c-0.3,1.2-1.6,2.1-3.4,2.1
		c-2.3,0-3.7-1.4-3.7-3.5c0-2,1.4-3.4,3.5-3.4C55.8,9.3,57.2,10.6,57.2,13.2z M55.6,12c-0.2-1-0.9-1.5-2-1.5c-1.1,0-1.8,0.5-2,1.5
		H55.6z"/>
	<path class="st1" d="M64.9,11.8V16h-1.5v-3.6c0-1.2-0.4-1.8-1.4-1.8c-0.9,0-1.5,0.2-2,0.9V16h-1.5V9.6h1.5v0.8c0.8-0.8,1.5-1,2.4-1
		C64,9.3,64.9,10.3,64.9,11.8z"/>
	<path class="st1" d="M68.4,7.7v2.1h2.2V11h-2.2v3c0,0.6,0.3,0.9,1,0.9c0.4,0,1-0.1,1.3-0.2v1.3c-0.4,0-1,0.1-1.6,0.1
		c-1.6,0-2.2-0.6-2.2-1.8V11h-1.2V9.8h1.2V7.7H68.4z"/>
	<path class="st1" d="M77.9,10.9l-1.2,0.7c-0.6-0.8-1.3-1-2.1-1c-0.9,0-1.4,0.3-1.4,0.8c0,0.4,0.4,0.6,1.3,0.7
		c2.1,0.3,3.6,0.5,3.6,2.1c0,1.4-1.1,2.1-3.2,2.1c-1.3,0-2.5-0.2-3.5-1.6l1.3-0.7c0.4,0.7,1.2,1.1,2.4,1.1c0.9,0,1.5-0.3,1.5-0.8
		c0-0.6-0.7-0.6-1.8-0.7c-1.4-0.2-3.1-0.4-3.1-2.1c0-0.9,0.8-2.1,3-2.1C76,9.3,77.2,9.8,77.9,10.9z"/>
	<path class="st1" d="M89.8,11.8V16h-1.5v-3.6c0-1.2-0.4-1.8-1.4-1.8c-0.9,0-1.5,0.2-2,0.9V16h-1.5V9.6h1.5v0.8c0.8-0.8,1.5-1,2.4-1
		C89,9.3,89.8,10.3,89.8,11.8z"/>
	<path class="st1" d="M98.3,12.8c0,2.2-1.5,3.4-3.6,3.4c-2.1,0-3.6-1.2-3.6-3.4c0-2,1.3-3.4,3.6-3.4C96.9,9.3,98.3,10.7,98.3,12.8z
		 M94.6,14.9c1.3,0,2.1-0.9,2.1-2.2c0-1.4-0.9-2.1-2.1-2.1c-1.2,0-2.1,0.7-2.1,2.1C92.5,14.1,93.3,14.9,94.6,14.9z"/>
	<path class="st1" d="M101.4,7.7v2.1h2.2V11h-2.2v3c0,0.6,0.3,0.9,1,0.9c0.4,0,1-0.1,1.3-0.2v1.3c-0.4,0-1,0.1-1.6,0.1
		c-1.6,0-2.2-0.6-2.2-1.8V11h-1.2V9.8h1.2V7.7H101.4z"/>
	<path class="st1" d="M115.9,12.8c0,2.2-1.5,3.4-3.6,3.4c-2.1,0-3.6-1.2-3.6-3.4c0-2,1.3-3.4,3.6-3.4
		C114.6,9.3,115.9,10.7,115.9,12.8z M112.3,14.9c1.3,0,2.1-0.9,2.1-2.2c0-1.4-0.9-2.1-2.1-2.1c-1.2,0-2.1,0.7-2.1,2.1
		C110.2,14.1,111,14.9,112.3,14.9z"/>
	<path class="st1" d="M123.5,11.8V16H122v-3.6c0-1.2-0.4-1.8-1.4-1.8c-0.9,0-1.5,0.2-2,0.9V16h-1.5V9.6h1.5v0.8c0.8-0.8,1.5-1,2.4-1
		C122.7,9.3,123.5,10.3,123.5,11.8z"/>
	<path class="st1" d="M136.4,7.3V16H135v-0.8c-0.7,0.7-1.5,1-2.6,1c-1.9,0-3.4-1.4-3.4-3.5c0-2,1.4-3.4,3.5-3.4
		c0.7,0,1.4,0.1,2.5,0.9v-3H136.4z M132.7,14.9c0.7,0,1.3-0.2,2.2-0.9v-2.5c-0.7-0.6-1.4-0.9-2.1-0.9c-1.2,0-2.3,0.8-2.3,2.2
		C130.5,14.1,131.5,14.9,132.7,14.9z"/>
	<path class="st1" d="M139.7,7.1v1.3h-1.5V7.1H139.7z M139.7,9.6V16h-1.5V9.6H139.7z"/>
	<path class="st1" d="M147.8,11.6V15c0,0.3,0,0.7,0.1,1h-1.5c0-0.2-0.1-0.4-0.1-0.6c-1.1,0.6-1.9,0.9-2.8,0.9
		c-1.2,0-2.5-0.6-2.5-1.9c0-0.9,0.5-1.5,1.6-2c0.9-0.4,2.1-0.6,3.7-0.6v-0.3c0-0.6-0.6-0.9-1.7-0.9c-1,0-1.6,0.2-1.7,0.9h-1.5
		c0.3-1.3,1.4-2.1,3.3-2.1C146.6,9.3,147.8,9.9,147.8,11.6z M143.7,15.1c0.9,0,1.6-0.3,2.6-0.8v-1.5c-0.9,0-2,0.2-2.7,0.4
		c-0.6,0.2-1,0.5-1,1C142.6,14.7,143,15.1,143.7,15.1z"/>
	<path class="st1" d="M151,7.3V16h-1.5V7.3H151z"/>
	<path class="st1" d="M153.8,9.6l2.2,4.7l2.2-4.7h1.6l-3.3,6.9c-0.6,1.2-1.4,1.7-2.7,1.7c-0.6,0-1-0.1-1.3-0.2v-1.3
		c0.6,0.1,0.6,0.1,0.9,0.1c1,0,1.6-0.4,1.6-1c0-0.3-0.1-0.6-0.3-1l-2.6-5.3H153.8z"/>
	<path class="st1" d="M166.9,10.9l-1.2,0.7c-0.6-0.8-1.3-1-2.1-1c-0.9,0-1.4,0.3-1.4,0.8c0,0.4,0.4,0.6,1.3,0.7
		c2.1,0.3,3.6,0.5,3.6,2.1c0,1.4-1.1,2.1-3.2,2.1c-1.3,0-2.5-0.2-3.5-1.6l1.3-0.7c0.4,0.7,1.2,1.1,2.4,1.1c0.9,0,1.5-0.3,1.5-0.8
		c0-0.6-0.7-0.6-1.8-0.7c-1.4-0.2-3.1-0.4-3.1-2.1c0-0.9,0.8-2.1,3-2.1C164.9,9.3,166.1,9.8,166.9,10.9z"/>
	<path class="st1" d="M169.7,7.1v1.3h-1.5V7.1H169.7z M169.7,9.6V16h-1.5V9.6H169.7z"/>
	<path class="st1" d="M177.5,10.9l-1.2,0.7c-0.6-0.8-1.3-1-2.1-1c-0.9,0-1.4,0.3-1.4,0.8c0,0.4,0.4,0.6,1.3,0.7
		c2.1,0.3,3.6,0.5,3.6,2.1c0,1.4-1.1,2.1-3.2,2.1c-1.3,0-2.5-0.2-3.5-1.6l1.3-0.7c0.4,0.7,1.2,1.1,2.4,1.1c0.9,0,1.5-0.3,1.5-0.8
		c0-0.6-0.7-0.6-1.8-0.7c-1.4-0.2-3.1-0.4-3.1-2.1c0-0.9,0.8-2.1,3-2.1C175.6,9.3,176.8,9.8,177.5,10.9z"/>
	<path class="st1" d="M189.5,11.6V15c0,0.3,0,0.7,0.1,1h-1.5c0-0.2-0.1-0.4-0.1-0.6c-1.1,0.6-1.9,0.9-2.8,0.9
		c-1.2,0-2.5-0.6-2.5-1.9c0-0.9,0.5-1.5,1.6-2c0.9-0.4,2.1-0.6,3.7-0.6v-0.3c0-0.6-0.6-0.9-1.7-0.9c-1,0-1.6,0.2-1.7,0.9h-1.5
		c0.3-1.3,1.4-2.1,3.3-2.1C188.3,9.3,189.5,9.9,189.5,11.6z M185.4,15.1c0.9,0,1.6-0.3,2.6-0.8v-1.5c-0.9,0-2,0.2-2.7,0.4
		c-0.6,0.2-1,0.5-1,1C184.3,14.7,184.7,15.1,185.4,15.1z"/>
	<path class="st1" d="M197.5,11.8V16H196v-3.6c0-1.2-0.4-1.8-1.4-1.8c-0.9,0-1.5,0.2-2,0.9V16h-1.5V9.6h1.5v0.8c0.8-0.8,1.5-1,2.4-1
		C196.7,9.3,197.5,10.3,197.5,11.8z"/>
	<path class="st1" d="M206.1,7.3V16h-1.5v-0.8c-0.7,0.7-1.5,1-2.6,1c-1.9,0-3.4-1.4-3.4-3.5c0-2,1.4-3.4,3.5-3.4
		c0.7,0,1.4,0.1,2.5,0.9v-3H206.1z M202.4,14.9c0.7,0,1.3-0.2,2.2-0.9v-2.5c-0.7-0.6-1.4-0.9-2.1-0.9c-1.2,0-2.3,0.8-2.3,2.2
		C200.2,14.1,201.2,14.9,202.4,14.9z"/>
	<path class="st1" d="M214.1,7.7v2.1h2.2V11h-2.2v3c0,0.6,0.3,0.9,1,0.9c0.4,0,1-0.1,1.3-0.2v1.3c-0.4,0-1,0.1-1.6,0.1
		c-1.6,0-2.2-0.6-2.2-1.8V11h-1.2V9.8h1.2V7.7H214.1z"/>
	<path class="st1" d="M218.9,7.3v3.1c0.7-0.7,1.4-1,2.4-1c1.7,0,2.5,0.9,2.5,2.5V16h-1.5v-3.6c0-1.2-0.4-1.8-1.4-1.8
		c-0.9,0-1.5,0.2-2,0.9V16h-1.5V7.3H218.9z"/>
	<path class="st1" d="M232.2,12.8c0,2.2-1.5,3.4-3.6,3.4c-2.1,0-3.6-1.2-3.6-3.4c0-2,1.3-3.4,3.6-3.4
		C230.9,9.3,232.2,10.7,232.2,12.8z M228.6,14.9c1.3,0,2.1-0.9,2.1-2.2c0-1.4-0.9-2.1-2.1-2.1c-1.2,0-2.1,0.7-2.1,2.1
		C226.5,14.1,227.3,14.9,228.6,14.9z"/>
	<path class="st1" d="M239.5,10.9l-1.2,0.7c-0.6-0.8-1.3-1-2.1-1c-0.9,0-1.4,0.3-1.4,0.8c0,0.4,0.4,0.6,1.3,0.7
		c2.1,0.3,3.6,0.5,3.6,2.1c0,1.4-1.1,2.1-3.2,2.1c-1.3,0-2.5-0.2-3.5-1.6l1.3-0.7c0.4,0.7,1.2,1.1,2.4,1.1c0.9,0,1.5-0.3,1.5-0.8
		c0-0.6-0.7-0.6-1.8-0.7c-1.4-0.2-3.1-0.4-3.1-2.1c0-0.9,0.8-2.1,3-2.1C237.6,9.3,238.8,9.8,239.5,10.9z"/>
	<path class="st1" d="M247.5,13.2h-5.6c0.1,1.2,1,1.8,2.1,1.8c0.8,0,1.5-0.3,1.8-0.9h1.6c-0.3,1.2-1.6,2.1-3.4,2.1
		c-2.3,0-3.7-1.4-3.7-3.5c0-2,1.4-3.4,3.5-3.4C246.2,9.3,247.5,10.6,247.5,13.2z M246,12c-0.2-1-0.9-1.5-2-1.5c-1.1,0-1.8,0.5-2,1.5
		H246z"/>
	<path class="st1" d="M254.7,9.6v6.8c0,1.2-0.8,1.8-1.9,1.8c-0.2,0-0.5,0-0.8-0.1v-1.3c0.1,0,0.3,0.1,0.5,0.1c0.5,0,0.7-0.3,0.7-0.9
		V9.6H254.7z M254.7,7.1v1.3h-1.5V7.1H254.7z"/>
	<path class="st1" d="M257.9,9.6v3.6c0,1.2,0.4,1.8,1.4,1.8c0.9,0,1.5-0.2,2-0.9V9.6h1.5V16h-1.5v-0.8c-0.7,0.7-1.5,1-2.4,1
		c-1.7,0-2.5-0.9-2.5-2.5V9.6H257.9z"/>
	<path class="st1" d="M270.5,10.9l-1.2,0.7c-0.6-0.8-1.3-1-2.1-1c-0.9,0-1.4,0.3-1.4,0.8c0,0.4,0.4,0.6,1.3,0.7
		c2.1,0.3,3.6,0.5,3.6,2.1c0,1.4-1.1,2.1-3.2,2.1c-1.3,0-2.5-0.2-3.5-1.6l1.3-0.7c0.4,0.7,1.2,1.1,2.4,1.1c0.9,0,1.5-0.3,1.5-0.8
		c0-0.6-0.7-0.6-1.8-0.7c-1.4-0.2-3.1-0.4-3.1-2.1c0-0.9,0.8-2.1,3-2.1C268.6,9.3,269.8,9.8,270.5,10.9z"/>
	<path class="st1" d="M273.7,7.7v2.1h2.2V11h-2.2v3c0,0.6,0.3,0.9,1,0.9c0.4,0,1-0.1,1.3-0.2v1.3c-0.4,0-1,0.1-1.6,0.1
		c-1.6,0-2.2-0.6-2.2-1.8V11h-1.2V9.8h1.2V7.7H273.7z"/>
</g>
<g class="st0">
	<path class="st1" d="M14.9,23.9l-1.2,0.7c-0.6-0.8-1.3-1-2.1-1c-0.9,0-1.4,0.3-1.4,0.8c0,0.4,0.4,0.6,1.3,0.7
		c2.1,0.3,3.6,0.5,3.6,2.1c0,1.4-1.1,2.1-3.2,2.1c-1.3,0-2.5-0.2-3.5-1.6l1.3-0.7c0.4,0.7,1.2,1.1,2.4,1.1c0.9,0,1.5-0.3,1.5-0.8
		c0-0.6-0.7-0.6-1.8-0.7c-1.4-0.2-3.1-0.4-3.1-2.1c0-0.9,0.8-2.1,3-2.1C13,22.3,14.2,22.8,14.9,23.9z"/>
	<path class="st1" d="M18.1,20.7v2.1h2.2V24h-2.2v3c0,0.6,0.3,0.9,1,0.9c0.4,0,1-0.1,1.3-0.2v1.3c-0.4,0-1,0.1-1.6,0.1
		c-1.6,0-2.2-0.6-2.2-1.8V24h-1.2v-1.3h1.2v-2.1H18.1z"/>
	<path class="st1" d="M27.8,24.6V28c0,0.3,0,0.7,0.1,1h-1.5c0-0.2-0.1-0.4-0.1-0.6c-1.1,0.6-1.9,0.9-2.8,0.9c-1.2,0-2.5-0.6-2.5-1.9
		c0-0.9,0.5-1.5,1.6-2c0.9-0.4,2.1-0.6,3.7-0.6v-0.3c0-0.6-0.6-0.9-1.7-0.9c-1,0-1.6,0.2-1.7,0.9h-1.5c0.3-1.3,1.4-2.1,3.3-2.1
		C26.7,22.3,27.8,22.9,27.8,24.6z M23.8,28.1c0.9,0,1.6-0.3,2.6-0.8v-1.5c-0.9,0-2,0.2-2.7,0.4c-0.6,0.2-1,0.5-1,1
		C22.7,27.7,23,28.1,23.8,28.1z"/>
	<path class="st1" d="M33.8,22.4V24c-0.4-0.1-0.5-0.1-0.9-0.1c-1.3,0-1.9,0.6-1.9,1.7V29h-1.5v-6.4H31v1h0c0.5-0.8,1.3-1.2,2.3-1.2
		C33.6,22.3,33.7,22.3,33.8,22.4z"/>
	<path class="st1" d="M36.7,20.7v2.1H39V24h-2.2v3c0,0.6,0.3,0.9,1,0.9c0.4,0,1-0.1,1.3-0.2v1.3c-0.4,0-1,0.1-1.6,0.1
		c-1.6,0-2.2-0.6-2.2-1.8V24h-1.2v-1.3h1.2v-2.1H36.7z"/>
	<path class="st1" d="M46.9,26.2h-5.6c0.1,1.2,1,1.8,2.1,1.8c0.8,0,1.5-0.3,1.8-0.9h1.6c-0.3,1.2-1.6,2.1-3.4,2.1
		c-2.3,0-3.7-1.4-3.7-3.5c0-2,1.4-3.4,3.5-3.4C45.5,22.3,46.9,23.6,46.9,26.2z M45.3,25c-0.2-1-0.9-1.5-2-1.5c-1.1,0-1.8,0.5-2,1.5
		H45.3z"/>
	<path class="st1" d="M55.1,20.3V29h-1.5v-0.8c-0.7,0.7-1.5,1-2.6,1c-1.9,0-3.4-1.4-3.4-3.5c0-2,1.4-3.4,3.5-3.4
		c0.7,0,1.4,0.1,2.5,0.9v-3H55.1z M51.4,27.9c0.7,0,1.3-0.2,2.2-0.9v-2.5c-0.7-0.6-1.4-0.9-2.1-0.9c-1.2,0-2.3,0.8-2.3,2.2
		C49.2,27.1,50.2,27.9,51.4,27.9z"/>
	<path class="st1" d="M67.9,25.8c0,2.2-1.5,3.4-3.6,3.4c-2.1,0-3.6-1.2-3.6-3.4c0-2,1.3-3.4,3.6-3.4C66.6,22.3,67.9,23.7,67.9,25.8z
		 M64.3,27.9c1.3,0,2.1-0.9,2.1-2.2c0-1.4-0.9-2.1-2.1-2.1c-1.2,0-2.1,0.7-2.1,2.1C62.2,27.1,63,27.9,64.3,27.9z"/>
	<path class="st1" d="M75.5,24.8V29H74v-3.6c0-1.2-0.4-1.8-1.4-1.8c-0.9,0-1.5,0.2-2,0.9V29h-1.5v-6.4h1.5v0.8c0.8-0.8,1.5-1,2.4-1
		C74.7,22.3,75.5,23.3,75.5,24.8z"/>
	<path class="st1" d="M88.4,20.3V29H87v-0.8c-0.7,0.7-1.5,1-2.6,1c-1.9,0-3.4-1.4-3.4-3.5c0-2,1.4-3.4,3.5-3.4
		c0.7,0,1.4,0.1,2.5,0.9v-3H88.4z M84.8,27.9c0.7,0,1.3-0.2,2.2-0.9v-2.5c-0.7-0.6-1.4-0.9-2.1-0.9c-1.2,0-2.3,0.8-2.3,2.2
		C82.5,27.1,83.5,27.9,84.8,27.9z"/>
	<path class="st1" d="M91.7,20.1v1.3h-1.5v-1.3H91.7z M91.7,22.6V29h-1.5v-6.4H91.7z"/>
	<path class="st1" d="M99.8,24.6V28c0,0.3,0,0.7,0.1,1h-1.5c0-0.2-0.1-0.4-0.1-0.6c-1.1,0.6-1.9,0.9-2.8,0.9c-1.2,0-2.5-0.6-2.5-1.9
		c0-0.9,0.5-1.5,1.6-2c0.9-0.4,2.1-0.6,3.7-0.6v-0.3c0-0.6-0.6-0.9-1.7-0.9c-1,0-1.6,0.2-1.7,0.9h-1.5c0.3-1.3,1.4-2.1,3.3-2.1
		C98.7,22.3,99.8,22.9,99.8,24.6z M95.7,28.1c0.9,0,1.6-0.3,2.6-0.8v-1.5c-0.9,0-2,0.2-2.7,0.4c-0.6,0.2-1,0.5-1,1
		C94.7,27.7,95,28.1,95.7,28.1z"/>
	<path class="st1" d="M103.1,20.3V29h-1.5v-8.7H103.1z"/>
	<path class="st1" d="M105.8,22.6l2.2,4.7l2.2-4.7h1.6l-3.3,6.9c-0.6,1.2-1.4,1.7-2.7,1.7c-0.6,0-1-0.1-1.3-0.2v-1.3
		c0.6,0.1,0.6,0.1,0.9,0.1c1,0,1.6-0.4,1.6-1c0-0.3-0.1-0.6-0.3-1l-2.6-5.3H105.8z"/>
	<path class="st1" d="M118.9,23.9l-1.2,0.7c-0.6-0.8-1.3-1-2.1-1c-0.9,0-1.4,0.3-1.4,0.8c0,0.4,0.4,0.6,1.3,0.7
		c2.1,0.3,3.6,0.5,3.6,2.1c0,1.4-1.1,2.1-3.2,2.1c-1.3,0-2.5-0.2-3.5-1.6l1.3-0.7c0.4,0.7,1.2,1.1,2.4,1.1c0.9,0,1.5-0.3,1.5-0.8
		c0-0.6-0.7-0.6-1.8-0.7c-1.4-0.2-3.1-0.4-3.1-2.1c0-0.9,0.8-2.1,3-2.1C117,22.3,118.2,22.8,118.9,23.9z"/>
	<path class="st1" d="M121.7,20.1v1.3h-1.5v-1.3H121.7z M121.7,22.6V29h-1.5v-6.4H121.7z"/>
	<path class="st1" d="M129.6,23.9l-1.2,0.7c-0.6-0.8-1.3-1-2.1-1c-0.9,0-1.4,0.3-1.4,0.8c0,0.4,0.4,0.6,1.3,0.7
		c2.1,0.3,3.6,0.5,3.6,2.1c0,1.4-1.1,2.1-3.2,2.1c-1.3,0-2.5-0.2-3.5-1.6l1.3-0.7c0.4,0.7,1.2,1.1,2.4,1.1c0.9,0,1.5-0.3,1.5-0.8
		c0-0.6-0.7-0.6-1.8-0.7c-1.4-0.2-3.1-0.4-3.1-2.1c0-0.9,0.8-2.1,3-2.1C127.6,22.3,128.8,22.8,129.6,23.9z"/>
	<path class="st1" d="M132.3,27.3v1.8l-0.8,1.8h-0.8l0.6-1.8h-0.7v-1.7H132.3z"/>
	<path class="st1" d="M140.3,20.7v2.1h2.2V24h-2.2v3c0,0.6,0.3,0.9,1,0.9c0.4,0,1-0.1,1.3-0.2v1.3c-0.4,0-1,0.1-1.6,0.1
		c-1.6,0-2.2-0.6-2.2-1.8V24h-1.2v-1.3h1.2v-2.1H140.3z"/>
	<path class="st1" d="M145.2,20.3v3.1c0.7-0.7,1.4-1,2.4-1c1.7,0,2.5,0.9,2.5,2.5V29h-1.5v-3.6c0-1.2-0.4-1.8-1.4-1.8
		c-0.9,0-1.5,0.2-2,0.9V29h-1.5v-8.7H145.2z"/>
	<path class="st1" d="M158.5,26.2h-5.6c0.1,1.2,1,1.8,2.1,1.8c0.8,0,1.5-0.3,1.8-0.9h1.6c-0.3,1.2-1.6,2.1-3.4,2.1
		c-2.3,0-3.7-1.4-3.7-3.5c0-2,1.4-3.4,3.5-3.4C157.1,22.3,158.4,23.6,158.5,26.2z M156.9,25c-0.2-1-0.9-1.5-2-1.5
		c-1.1,0-1.8,0.5-2,1.5H156.9z"/>
	<path class="st1" d="M168.3,22.4V24c-0.4-0.1-0.5-0.1-0.9-0.1c-1.3,0-1.9,0.6-1.9,1.7V29H164v-6.4h1.5v1h0c0.5-0.8,1.3-1.2,2.3-1.2
		C168.2,22.3,168.2,22.3,168.3,22.4z"/>
	<path class="st1" d="M171,20.1v1.3h-1.5v-1.3H171z M171,22.6V29h-1.5v-6.4H171z"/>
	<path class="st1" d="M178.8,23.9l-1.2,0.7c-0.6-0.8-1.3-1-2.1-1c-0.9,0-1.4,0.3-1.4,0.8c0,0.4,0.4,0.6,1.3,0.7
		c2.1,0.3,3.6,0.5,3.6,2.1c0,1.4-1.1,2.1-3.2,2.1c-1.3,0-2.5-0.2-3.5-1.6l1.3-0.7c0.4,0.7,1.2,1.1,2.4,1.1c0.9,0,1.5-0.3,1.5-0.8
		c0-0.6-0.7-0.6-1.8-0.7c-1.4-0.2-3.1-0.4-3.1-2.1c0-0.9,0.8-2.1,3-2.1C176.8,22.3,178,22.8,178.8,23.9z"/>
	<path class="st1" d="M181.5,20.3v4.9l3.3-2.7h2.1l-2.7,2.2l2.9,4.3h-1.8l-2.3-3.3l-1.5,1.2V29H180v-8.7H181.5z"/>
	<path class="st1" d="M199.2,25.8c0,2.2-1.5,3.4-3.6,3.4c-2.1,0-3.6-1.2-3.6-3.4c0-2,1.3-3.4,3.6-3.4
		C197.8,22.3,199.2,23.7,199.2,25.8z M195.5,27.9c1.3,0,2.1-0.9,2.1-2.2c0-1.4-0.9-2.1-2.1-2.1c-1.2,0-2.1,0.7-2.1,2.1
		C193.4,27.1,194.2,27.9,195.5,27.9z"/>
	<path class="st1" d="M205.3,20.3v1.3c-0.7-0.2-1.1-0.2-1.4-0.2c-0.9,0-1.2,0.3-1.2,1.1v0.4h2.3V24h-2.3v5h-1.5v-5h-1.4v-1.3h1.4V22
		c0-1.1,0.6-1.9,2.5-1.9C204.1,20.1,204.3,20.1,205.3,20.3z"/>
	<path class="st1" d="M216.4,23.4c0.5-0.7,1.3-1,2.3-1c1.6,0,2.5,0.8,2.5,2.1V29h-1.5v-3.9c0-1-0.4-1.4-1.3-1.4
		c-0.6,0-1.2,0.3-1.7,0.8V29h-1.5v-3.9c0-1-0.4-1.4-1.3-1.4c-0.6,0-1.2,0.3-1.7,0.8V29h-1.5v-6.4h1.5v0.7c0.8-0.8,1.5-0.9,2.2-0.9
		C215.2,22.3,215.9,22.7,216.4,23.4z"/>
	<path class="st1" d="M229.1,24.6V28c0,0.3,0,0.7,0.1,1h-1.5c0-0.2-0.1-0.4-0.1-0.6c-1.1,0.6-1.9,0.9-2.8,0.9
		c-1.2,0-2.5-0.6-2.5-1.9c0-0.9,0.5-1.5,1.6-2c0.9-0.4,2.1-0.6,3.7-0.6v-0.3c0-0.6-0.6-0.9-1.7-0.9c-1,0-1.6,0.2-1.7,0.9h-1.5
		c0.3-1.3,1.4-2.1,3.3-2.1C227.9,22.3,229.1,22.9,229.1,24.6z M225,28.1c0.9,0,1.6-0.3,2.6-0.8v-1.5c-0.9,0-2,0.2-2.7,0.4
		c-0.6,0.2-1,0.5-1,1C223.9,27.7,224.2,28.1,225,28.1z"/>
	<path class="st1" d="M232.3,22.6v6.8c0,1.2-0.8,1.8-1.9,1.8c-0.2,0-0.5,0-0.8-0.1v-1.3c0.1,0,0.3,0.1,0.5,0.1
		c0.5,0,0.7-0.3,0.7-0.9v-6.4H232.3z M232.3,20.1v1.3h-1.5v-1.3H232.3z"/>
	<path class="st1" d="M240.8,25.8c0,2.2-1.5,3.4-3.6,3.4c-2.1,0-3.6-1.2-3.6-3.4c0-2,1.3-3.4,3.6-3.4
		C239.5,22.3,240.8,23.7,240.8,25.8z M237.2,27.9c1.3,0,2.1-0.9,2.1-2.2c0-1.4-0.9-2.1-2.1-2.1c-1.2,0-2.1,0.7-2.1,2.1
		C235.1,27.1,235.9,27.9,237.2,27.9z"/>
	<path class="st1" d="M246.3,22.4V24c-0.4-0.1-0.5-0.1-0.9-0.1c-1.3,0-1.9,0.6-1.9,1.7V29H242v-6.4h1.5v1h0c0.5-0.8,1.3-1.2,2.3-1.2
		C246.2,22.3,246.2,22.3,246.3,22.4z"/>
	<path class="st1" d="M258,24.6V28c0,0.3,0,0.7,0.1,1h-1.5c0-0.2-0.1-0.4-0.1-0.6c-1.1,0.6-1.9,0.9-2.8,0.9c-1.2,0-2.5-0.6-2.5-1.9
		c0-0.9,0.5-1.5,1.6-2c0.9-0.4,2.1-0.6,3.7-0.6v-0.3c0-0.6-0.6-0.9-1.7-0.9c-1,0-1.6,0.2-1.7,0.9h-1.5c0.3-1.3,1.4-2.1,3.3-2.1
		C256.9,22.3,258,22.9,258,24.6z M254,28.1c0.9,0,1.6-0.3,2.6-0.8v-1.5c-0.9,0-2,0.2-2.7,0.4c-0.6,0.2-1,0.5-1,1
		C252.9,27.7,253.2,28.1,254,28.1z"/>
	<path class="st1" d="M266.7,20.3V29h-1.5v-0.8c-0.7,0.7-1.5,1-2.6,1c-1.9,0-3.4-1.4-3.4-3.5c0-2,1.4-3.4,3.5-3.4
		c0.7,0,1.4,0.1,2.5,0.9v-3H266.7z M263,27.9c0.7,0,1.3-0.2,2.2-0.9v-2.5c-0.7-0.6-1.4-0.9-2.1-0.9c-1.2,0-2.3,0.8-2.3,2.2
		C260.8,27.1,261.7,27.9,263,27.9z"/>
	<path class="st1" d="M269.4,22.6l2.2,4.8l2.2-4.8h1.6l-3.1,6.4h-1.5l-3-6.4H269.4z"/>
	<path class="st1" d="M283.1,26.2h-5.6c0.1,1.2,1,1.8,2.1,1.8c0.8,0,1.5-0.3,1.8-0.9h1.6c-0.3,1.2-1.6,2.1-3.4,2.1
		c-2.3,0-3.7-1.4-3.7-3.5c0-2,1.4-3.4,3.5-3.4C281.7,22.3,283.1,23.6,283.1,26.2z M281.5,25c-0.2-1-0.9-1.5-2-1.5
		c-1.1,0-1.8,0.5-2,1.5H281.5z"/>
	<path class="st1" d="M288.6,22.4V24c-0.4-0.1-0.5-0.1-0.9-0.1c-1.3,0-1.9,0.6-1.9,1.7V29h-1.5v-6.4h1.5v1h0
		c0.5-0.8,1.3-1.2,2.3-1.2C288.5,22.3,288.6,22.3,288.6,22.4z"/>
	<path class="st1" d="M295.8,23.9l-1.2,0.7c-0.6-0.8-1.3-1-2.1-1c-0.9,0-1.4,0.3-1.4,0.8c0,0.4,0.4,0.6,1.3,0.7
		c2.1,0.3,3.6,0.5,3.6,2.1c0,1.4-1.1,2.1-3.2,2.1c-1.3,0-2.5-0.2-3.5-1.6l1.3-0.7c0.4,0.7,1.2,1.1,2.4,1.1c0.9,0,1.5-0.3,1.5-0.8
		c0-0.6-0.7-0.6-1.8-0.7c-1.4-0.2-3.1-0.4-3.1-2.1c0-0.9,0.8-2.1,3-2.1C293.8,22.3,295,22.8,295.8,23.9z"/>
	<path class="st1" d="M303.8,26.2h-5.6c0.1,1.2,1,1.8,2.1,1.8c0.8,0,1.5-0.3,1.8-0.9h1.6c-0.3,1.2-1.6,2.1-3.4,2.1
		c-2.3,0-3.7-1.4-3.7-3.5c0-2,1.4-3.4,3.5-3.4C302.4,22.3,303.8,23.6,303.8,26.2z M302.2,25c-0.2-1-0.9-1.5-2-1.5
		c-1.1,0-1.8,0.5-2,1.5H302.2z"/>
</g>
<g class="st0">
	<path class="st1" d="M18.1,36.1h-1.7c-0.4-0.9-1.5-1.5-2.8-1.5c-2.2,0-3.4,1.2-3.4,3.2c0,1.9,1.3,3.1,3.3,3.1c1.5,0,2.7-0.8,3-1.9
		h1.7c-0.4,2.1-2.1,3.3-4.9,3.3c-3,0-4.9-1.8-4.9-4.7c0-2.8,1.9-4.4,5.1-4.4C15.9,33.1,17.5,34,18.1,36.1z"/>
	<path class="st1" d="M20.7,33.3l3.3,7l3.3-7h1.8L24.9,42h-1.8l-4.2-8.7H20.7z"/>
	<path class="st1" d="M41.2,39.2h-5.6c0.1,1.2,1,1.8,2.1,1.8c0.8,0,1.5-0.3,1.8-0.9h1.6c-0.3,1.2-1.6,2.1-3.4,2.1
		c-2.3,0-3.7-1.4-3.7-3.5c0-2,1.4-3.4,3.5-3.4C39.9,35.3,41.2,36.6,41.2,39.2z M39.7,38c-0.2-1-0.9-1.5-2-1.5c-1.1,0-1.8,0.5-2,1.5
		H39.7z"/>
	<path class="st1" d="M43.5,35.6l2.2,4.8l2.2-4.8h1.6L46.4,42h-1.5l-3-6.4H43.5z"/>
	<path class="st1" d="M57.3,39.2h-5.6c0.1,1.2,1,1.8,2.1,1.8c0.8,0,1.5-0.3,1.8-0.9h1.6c-0.3,1.2-1.6,2.1-3.4,2.1
		c-2.3,0-3.7-1.4-3.7-3.5c0-2,1.4-3.4,3.5-3.4C55.9,35.3,57.2,36.6,57.3,39.2z M55.7,38c-0.2-1-0.9-1.5-2-1.5c-1.1,0-1.8,0.5-2,1.5
		H55.7z"/>
	<path class="st1" d="M64.9,37.8V42h-1.5v-3.6c0-1.2-0.4-1.8-1.4-1.8c-0.9,0-1.5,0.2-2,0.9V42h-1.5v-6.4h1.5v0.8
		c0.8-0.8,1.5-1,2.4-1C64,35.3,64.9,36.3,64.9,37.8z"/>
	<path class="st1" d="M68.4,33.7v2.1h2.2V37h-2.2v3c0,0.6,0.3,0.9,1,0.9c0.4,0,1-0.1,1.3-0.2v1.3c-0.4,0-1,0.1-1.6,0.1
		c-1.6,0-2.2-0.6-2.2-1.8V37h-1.2v-1.3h1.2v-2.1H68.4z"/>
	<path class="st1" d="M77.9,36.9l-1.2,0.7c-0.6-0.8-1.3-1-2.1-1c-0.9,0-1.4,0.3-1.4,0.8c0,0.4,0.4,0.6,1.3,0.7
		c2.1,0.3,3.6,0.5,3.6,2.1c0,1.4-1.1,2.1-3.2,2.1c-1.3,0-2.5-0.2-3.5-1.6l1.3-0.7c0.4,0.7,1.2,1.1,2.4,1.1c0.9,0,1.5-0.3,1.5-0.8
		c0-0.6-0.7-0.6-1.8-0.7c-1.4-0.2-3.1-0.4-3.1-2.1c0-0.9,0.8-2.1,3-2.1C76,35.3,77.2,35.8,77.9,36.9z"/>
	<path class="st1" d="M90.3,38.8c0,2.2-1.5,3.4-3.6,3.4c-2.1,0-3.6-1.2-3.6-3.4c0-2,1.3-3.4,3.6-3.4C88.9,35.3,90.3,36.7,90.3,38.8z
		 M86.7,40.9c1.3,0,2.1-0.9,2.1-2.2c0-1.4-0.9-2.1-2.1-2.1c-1.2,0-2.1,0.7-2.1,2.1C84.6,40.1,85.3,40.9,86.7,40.9z"/>
	<path class="st1" d="M95.8,35.4V37c-0.4-0.1-0.5-0.1-0.9-0.1c-1.3,0-1.9,0.6-1.9,1.7V42h-1.5v-6.4H93v1h0c0.5-0.8,1.3-1.2,2.3-1.2
		C95.6,35.3,95.7,35.3,95.8,35.4z"/>
	<path class="st1" d="M107.5,37.6V41c0,0.3,0,0.7,0.1,1h-1.5c0-0.2-0.1-0.4-0.1-0.6c-1.1,0.6-1.9,0.9-2.8,0.9
		c-1.2,0-2.5-0.6-2.5-1.9c0-0.9,0.5-1.5,1.6-2c0.9-0.4,2.1-0.6,3.7-0.6v-0.3c0-0.6-0.6-0.9-1.7-0.9c-1,0-1.6,0.2-1.7,0.9h-1.5
		c0.3-1.3,1.4-2.1,3.3-2.1C106.3,35.3,107.5,35.9,107.5,37.6z M103.4,41.1c0.9,0,1.6-0.3,2.6-0.8v-1.5c-0.9,0-2,0.2-2.7,0.4
		c-0.6,0.2-1,0.5-1,1C102.3,40.7,102.7,41.1,103.4,41.1z"/>
	<path class="st1" d="M110.7,33.3V42h-1.5v-8.7H110.7z"/>
	<path class="st1" d="M114.1,33.3V42h-1.5v-8.7H114.1z"/>
	<path class="st1" d="M118.5,38v1.3h-2.9V38H118.5z"/>
	<path class="st1" d="M126.5,37.8H125c-0.2-0.7-0.9-1.2-1.9-1.2c-1.3,0-2.2,0.9-2.2,2.1c0,1.3,0.8,2.3,2.1,2.3c1,0,1.9-0.5,2.1-1.2
		h1.6c-0.4,1.5-1.6,2.5-3.5,2.5c-2.4,0-3.8-1.3-3.8-3.6c0-1.8,1.4-3.3,3.7-3.3C124.9,35.3,126.3,36.3,126.5,37.8z"/>
	<path class="st1" d="M134.2,37.6V41c0,0.3,0,0.7,0.1,1h-1.5c0-0.2-0.1-0.4-0.1-0.6c-1.1,0.6-1.9,0.9-2.8,0.9
		c-1.2,0-2.5-0.6-2.5-1.9c0-0.9,0.5-1.5,1.6-2c0.9-0.4,2.1-0.6,3.7-0.6v-0.3c0-0.6-0.6-0.9-1.7-0.9c-1,0-1.6,0.2-1.7,0.9h-1.5
		c0.3-1.3,1.4-2.1,3.3-2.1C133,35.3,134.2,35.9,134.2,37.6z M130.1,41.1c0.9,0,1.6-0.3,2.6-0.8v-1.5c-0.9,0-2,0.2-2.7,0.4
		c-0.6,0.2-1,0.5-1,1C129,40.7,129.4,41.1,130.1,41.1z"/>
	<path class="st1" d="M137.3,35.6v3.6c0,1.2,0.4,1.8,1.4,1.8c0.9,0,1.5-0.2,2-0.9v-4.4h1.5V42h-1.5v-0.8c-0.7,0.7-1.5,1-2.4,1
		c-1.7,0-2.5-0.9-2.5-2.5v-4.2H137.3z"/>
	<path class="st1" d="M149.9,36.9l-1.2,0.7c-0.6-0.8-1.3-1-2.1-1c-0.9,0-1.4,0.3-1.4,0.8c0,0.4,0.4,0.6,1.3,0.7
		c2.1,0.3,3.6,0.5,3.6,2.1c0,1.4-1.1,2.1-3.2,2.1c-1.3,0-2.5-0.2-3.5-1.6l1.3-0.7c0.4,0.7,1.2,1.1,2.4,1.1c0.9,0,1.5-0.3,1.5-0.8
		c0-0.6-0.7-0.6-1.8-0.7c-1.4-0.2-3.1-0.4-3.1-2.1c0-0.9,0.8-2.1,3-2.1C148,35.3,149.2,35.8,149.9,36.9z"/>
	<path class="st1" d="M157.9,39.2h-5.6c0.1,1.2,1,1.8,2.1,1.8c0.8,0,1.5-0.3,1.8-0.9h1.6c-0.3,1.2-1.6,2.1-3.4,2.1
		c-2.3,0-3.7-1.4-3.7-3.5c0-2,1.4-3.4,3.5-3.4C156.5,35.3,157.9,36.6,157.9,39.2z M156.3,38c-0.2-1-0.9-1.5-2-1.5
		c-1.1,0-1.8,0.5-2,1.5H156.3z"/>
	<path class="st1" d="M169.2,36.4c0.5-0.7,1.3-1,2.3-1c1.6,0,2.5,0.8,2.5,2.1V42h-1.5v-3.9c0-1-0.4-1.4-1.3-1.4
		c-0.6,0-1.2,0.3-1.7,0.8V42h-1.5v-3.9c0-1-0.4-1.4-1.3-1.4c-0.6,0-1.2,0.3-1.7,0.8V42h-1.5v-6.4h1.5v0.7c0.8-0.8,1.5-0.9,2.2-0.9
		C168,35.3,168.7,35.7,169.2,36.4z"/>
	<path class="st1" d="M182.3,38.8c0,2.2-1.5,3.4-3.6,3.4c-2.1,0-3.6-1.2-3.6-3.4c0-2,1.3-3.4,3.6-3.4
		C180.9,35.3,182.3,36.7,182.3,38.8z M178.7,40.9c1.3,0,2.1-0.9,2.1-2.2c0-1.4-0.9-2.1-2.1-2.1c-1.2,0-2.1,0.7-2.1,2.1
		C176.6,40.1,177.3,40.9,178.7,40.9z"/>
	<path class="st1" d="M187.8,35.4V37c-0.4-0.1-0.5-0.1-0.9-0.1c-1.3,0-1.9,0.6-1.9,1.7V42h-1.5v-6.4h1.5v1h0
		c0.5-0.8,1.3-1.2,2.3-1.2C187.6,35.3,187.7,35.3,187.8,35.4z"/>
	<path class="st1" d="M190.7,33.7v2.1h2.2V37h-2.2v3c0,0.6,0.3,0.9,1,0.9c0.4,0,1-0.1,1.3-0.2v1.3c-0.4,0-1,0.1-1.6,0.1
		c-1.6,0-2.2-0.6-2.2-1.8V37h-1.2v-1.3h1.2v-2.1H190.7z"/>
	<path class="st1" d="M200.5,37.6V41c0,0.3,0,0.7,0.1,1h-1.5c0-0.2-0.1-0.4-0.1-0.6c-1.1,0.6-1.9,0.9-2.8,0.9
		c-1.2,0-2.5-0.6-2.5-1.9c0-0.9,0.5-1.5,1.6-2c0.9-0.4,2.1-0.6,3.7-0.6v-0.3c0-0.6-0.6-0.9-1.7-0.9c-1,0-1.6,0.2-1.7,0.9h-1.5
		c0.3-1.3,1.4-2.1,3.3-2.1C199.3,35.3,200.5,35.9,200.5,37.6z M196.4,41.1c0.9,0,1.6-0.3,2.6-0.8v-1.5c-0.9,0-2,0.2-2.7,0.4
		c-0.6,0.2-1,0.5-1,1C195.3,40.7,195.7,41.1,196.4,41.1z"/>
	<path class="st1" d="M203.7,33.3V42h-1.5v-8.7H203.7z"/>
	<path class="st1" d="M207.1,33.1v1.3h-1.5v-1.3H207.1z M207.1,35.6V42h-1.5v-6.4H207.1z"/>
	<path class="st1" d="M210.7,33.7v2.1h2.2V37h-2.2v3c0,0.6,0.3,0.9,1,0.9c0.4,0,1-0.1,1.3-0.2v1.3c-0.4,0-1,0.1-1.6,0.1
		c-1.6,0-2.2-0.6-2.2-1.8V37h-1.2v-1.3h1.2v-2.1H210.7z"/>
	<path class="st1" d="M215.1,35.6l2.2,4.7l2.2-4.7h1.6l-3.3,6.9c-0.6,1.2-1.4,1.7-2.7,1.7c-0.6,0-1-0.1-1.3-0.2v-1.3
		c0.6,0.1,0.6,0.1,0.9,0.1c1,0,1.6-0.4,1.6-1c0-0.3-0.1-0.6-0.3-1l-2.6-5.3H215.1z"/>
	<path class="st1" d="M227.3,35.6l1.7,4.5l1.7-4.5h1.3l1.7,4.5l1.7-4.5h1.5l-2.5,6.4H233l-1.6-4.5l-1.6,4.5h-1.4l-2.5-6.4H227.3z"/>
	<path class="st1" d="M244.2,37.6V41c0,0.3,0,0.7,0.1,1h-1.5c0-0.2-0.1-0.4-0.1-0.6c-1.1,0.6-1.9,0.9-2.8,0.9
		c-1.2,0-2.5-0.6-2.5-1.9c0-0.9,0.5-1.5,1.6-2c0.9-0.4,2.1-0.6,3.7-0.6v-0.3c0-0.6-0.6-0.9-1.7-0.9c-1,0-1.6,0.2-1.7,0.9h-1.5
		c0.3-1.3,1.4-2.1,3.3-2.1C243,35.3,244.2,35.9,244.2,37.6z M240.1,41.1c0.9,0,1.6-0.3,2.6-0.8v-1.5c-0.9,0-2,0.2-2.7,0.4
		c-0.6,0.2-1,0.5-1,1C239,40.7,239.3,41.1,240.1,41.1z"/>
	<path class="st1" d="M251.9,36.9l-1.2,0.7c-0.6-0.8-1.3-1-2.1-1c-0.9,0-1.4,0.3-1.4,0.8c0,0.4,0.4,0.6,1.3,0.7
		c2.1,0.3,3.6,0.5,3.6,2.1c0,1.4-1.1,2.1-3.2,2.1c-1.3,0-2.5-0.2-3.5-1.6l1.3-0.7c0.4,0.7,1.2,1.1,2.4,1.1c0.9,0,1.5-0.3,1.5-0.8
		c0-0.6-0.7-0.6-1.8-0.7c-1.4-0.2-3.1-0.4-3.1-2.1c0-0.9,0.8-2.1,3-2.1C249.9,35.3,251.1,35.8,251.9,36.9z"/>
</g>
<g class="st0">
	<path class="st1" d="M15.5,50.8H14c-0.2-0.7-0.9-1.2-1.9-1.2c-1.3,0-2.2,0.9-2.2,2.1c0,1.3,0.8,2.3,2.1,2.3c1,0,1.9-0.5,2.1-1.2
		h1.6c-0.4,1.5-1.6,2.5-3.5,2.5c-2.4,0-3.8-1.3-3.8-3.6c0-1.8,1.4-3.3,3.7-3.3C13.9,48.3,15.3,49.3,15.5,50.8z"/>
	<path class="st1" d="M23.6,51.8c0,2.2-1.5,3.4-3.6,3.4c-2.1,0-3.6-1.2-3.6-3.4c0-2,1.3-3.4,3.6-3.4C22.3,48.3,23.6,49.7,23.6,51.8z
		 M20,53.9c1.3,0,2.1-0.9,2.1-2.2c0-1.4-0.9-2.1-2.1-2.1c-1.2,0-2.1,0.7-2.1,2.1C17.9,53.1,18.7,53.9,20,53.9z"/>
	<path class="st1" d="M30.5,49.4c0.5-0.7,1.3-1,2.3-1c1.6,0,2.5,0.8,2.5,2.1V55h-1.5v-3.9c0-1-0.4-1.4-1.3-1.4
		c-0.6,0-1.2,0.3-1.7,0.8V55h-1.5v-3.9c0-1-0.4-1.4-1.3-1.4c-0.6,0-1.2,0.3-1.7,0.8V55h-1.5v-6.4h1.5v0.7c0.8-0.8,1.5-0.9,2.2-0.9
		C29.3,48.3,30,48.7,30.5,49.4z"/>
	<path class="st1" d="M44.3,51.7c0,2.1-1.5,3.5-3.4,3.5c-0.8,0-1.4-0.1-2.5-0.9v2.9h-1.5v-8.6h1.5v0.8c0.7-0.7,1.5-1,2.5-1
		C42.9,48.3,44.3,49.8,44.3,51.7z M38.3,53c0.9,0.7,1.4,0.9,2.2,0.9c1.3,0,2.2-0.9,2.2-2.2c0-1.3-1-2.2-2.3-2.2
		c-0.8,0-1.4,0.3-2.1,0.9V53z"/>
	<path class="st1" d="M51.8,50.6V54c0,0.3,0,0.7,0.1,1h-1.5c0-0.2-0.1-0.4-0.1-0.6c-1.1,0.6-1.9,0.9-2.8,0.9c-1.2,0-2.5-0.6-2.5-1.9
		c0-0.9,0.5-1.5,1.6-2c0.9-0.4,2.1-0.6,3.7-0.6v-0.3c0-0.6-0.6-0.9-1.7-0.9c-1,0-1.6,0.2-1.7,0.9h-1.5c0.3-1.3,1.4-2.1,3.3-2.1
		C50.7,48.3,51.8,48.9,51.8,50.6z M47.7,54.1c0.9,0,1.6-0.3,2.6-0.8v-1.5c-0.9,0-2,0.2-2.7,0.4c-0.6,0.2-1,0.5-1,1
		C46.7,53.7,47,54.1,47.7,54.1z"/>
	<path class="st1" d="M57.8,48.4V50c-0.4-0.1-0.5-0.1-0.9-0.1c-1.3,0-1.9,0.6-1.9,1.7V55h-1.5v-6.4h1.5v1h0c0.5-0.8,1.3-1.2,2.3-1.2
		C57.6,48.3,57.7,48.3,57.8,48.4z"/>
	<path class="st1" d="M65.2,50.6V54c0,0.3,0,0.7,0.1,1h-1.5c0-0.2-0.1-0.4-0.1-0.6c-1.1,0.6-1.9,0.9-2.8,0.9c-1.2,0-2.5-0.6-2.5-1.9
		c0-0.9,0.5-1.5,1.6-2c0.9-0.4,2.1-0.6,3.7-0.6v-0.3c0-0.6-0.6-0.9-1.7-0.9c-1,0-1.6,0.2-1.7,0.9h-1.5c0.3-1.3,1.4-2.1,3.3-2.1
		C64,48.3,65.2,48.9,65.2,50.6z M61.1,54.1c0.9,0,1.6-0.3,2.6-0.8v-1.5c-0.9,0-2,0.2-2.7,0.4c-0.6,0.2-1,0.5-1,1
		C60,53.7,60.3,54.1,61.1,54.1z"/>
	<path class="st1" d="M68.3,46.3v3c1-0.8,1.8-0.9,2.5-0.9c2.1,0,3.5,1.4,3.5,3.4c0,2.1-1.5,3.5-3.4,3.5c-1,0-1.9-0.4-2.6-1V55h-1.5
		v-8.7H68.3z M68.3,53c0.9,0.7,1.5,0.9,2.2,0.9c1.3,0,2.2-0.8,2.2-2.2c0-1.3-1-2.2-2.3-2.2c-0.8,0-1.4,0.3-2.1,0.9V53z"/>
	<path class="st1" d="M77.1,46.3V55h-1.5v-8.7H77.1z"/>
	<path class="st1" d="M85.6,52.2h-5.6c0.1,1.2,1,1.8,2.1,1.8c0.8,0,1.5-0.3,1.8-0.9h1.6c-0.3,1.2-1.6,2.1-3.4,2.1
		c-2.3,0-3.7-1.4-3.7-3.5c0-2,1.4-3.4,3.5-3.4C84.2,48.3,85.6,49.6,85.6,52.2z M84,51c-0.2-1-0.9-1.5-2-1.5c-1.1,0-1.8,0.5-2,1.5H84
		z"/>
	<path class="st1" d="M92.7,46.3v3c1-0.8,1.8-0.9,2.5-0.9c2.1,0,3.5,1.4,3.5,3.4c0,2.1-1.5,3.5-3.4,3.5c-1,0-1.9-0.4-2.6-1V55h-1.5
		v-8.7H92.7z M92.7,53c0.9,0.7,1.5,0.9,2.2,0.9c1.3,0,2.2-0.8,2.2-2.2c0-1.3-1-2.2-2.3-2.2c-0.8,0-1.4,0.3-2.1,0.9V53z"/>
	<path class="st1" d="M106.6,52.2h-5.6c0.1,1.2,1,1.8,2.1,1.8c0.8,0,1.5-0.3,1.8-0.9h1.6c-0.3,1.2-1.6,2.1-3.4,2.1
		c-2.3,0-3.7-1.4-3.7-3.5c0-2,1.4-3.4,3.5-3.4C105.2,48.3,106.6,49.6,106.6,52.2z M105,51c-0.2-1-0.9-1.5-2-1.5
		c-1.1,0-1.8,0.5-2,1.5H105z"/>
	<path class="st1" d="M109.7,46.7v2.1h2.2V50h-2.2v3c0,0.6,0.3,0.9,1,0.9c0.4,0,1-0.1,1.3-0.2v1.3c-0.4,0-1,0.1-1.6,0.1
		c-1.6,0-2.2-0.6-2.2-1.8V50h-1.2v-1.3h1.2v-2.1H109.7z"/>
	<path class="st1" d="M113.9,48.6l1.7,4.5l1.7-4.5h1.3l1.7,4.5l1.7-4.5h1.5L121,55h-1.4l-1.6-4.5l-1.6,4.5h-1.4l-2.5-6.4H113.9z"/>
	<path class="st1" d="M131.2,52.2h-5.6c0.1,1.2,1,1.8,2.1,1.8c0.8,0,1.5-0.3,1.8-0.9h1.6c-0.3,1.2-1.6,2.1-3.4,2.1
		c-2.3,0-3.7-1.4-3.7-3.5c0-2,1.4-3.4,3.5-3.4C129.8,48.3,131.2,49.6,131.2,52.2z M129.6,51c-0.2-1-0.9-1.5-2-1.5
		c-1.1,0-1.8,0.5-2,1.5H129.6z"/>
	<path class="st1" d="M139.2,52.2h-5.6c0.1,1.2,1,1.8,2.1,1.8c0.8,0,1.5-0.3,1.8-0.9h1.6c-0.3,1.2-1.6,2.1-3.4,2.1
		c-2.3,0-3.7-1.4-3.7-3.5c0-2,1.4-3.4,3.5-3.4C137.8,48.3,139.2,49.6,139.2,52.2z M137.6,51c-0.2-1-0.9-1.5-2-1.5
		c-1.1,0-1.8,0.5-2,1.5H137.6z"/>
	<path class="st1" d="M146.8,50.8V55h-1.5v-3.6c0-1.2-0.4-1.8-1.4-1.8c-0.9,0-1.5,0.2-2,0.9V55h-1.5v-6.4h1.5v0.8
		c0.8-0.8,1.5-1,2.4-1C146,48.3,146.8,49.3,146.8,50.8z"/>
	<path class="st1" d="M160.8,46.3v1.5h-6.1v2h5.3v1.5h-5.3v2.3h6.3V55h-8v-8.7H160.8z"/>
	<path class="st1" d="M163.3,46.3l3.3,7l3.3-7h1.8l-4.3,8.7h-1.8l-4.2-8.7H163.3z"/>
	<path class="st1" d="M178.3,46.3c2.5,0,3.5,0.8,3.5,2.6c0,1.5-1,2.5-2.4,2.6l2.7,3.5H180l-2.5-3.4h-2.7V55H173v-8.7H178.3z
		 M178.1,50.2c1.6,0,2-0.3,2-1.2c0-0.9-0.5-1.2-2-1.2h-3.4v2.5H178.1z"/>
	<path class="st1" d="M191.5,46.3v1.5h-6.1v2h5.3v1.5h-5.3v2.3h6.3V55h-8v-8.7H191.5z"/>
	<path class="st1" d="M194.8,46.3l5.8,6.3v-6.3h1.6V55h-1.6l-6.1-6.5V55H193v-8.7H194.8z"/>
	<path class="st1" d="M212.2,46.3v1l-5.9,6.3h6.1V55h-8.8v-0.8l6.1-6.4h-5.8v-1.5H212.2z"/>
	<path class="st1" d="M223.5,50.7c0,2.5-1.8,4.5-5.2,4.5c-3.4,0-5.2-2-5.2-4.5c0-2.9,1.8-4.6,5.2-4.6
		C221.7,46.1,223.5,47.9,223.5,50.7z M218.3,47.5c-2.1,0-3.5,1.1-3.5,3.1c0,2,1.3,3.1,3.5,3.1c2.2,0,3.5-1.1,3.5-3.1
		C221.8,48.7,220.5,47.5,218.3,47.5z"/>
	<path class="st1" d="M235.5,50.6V54c0,0.3,0,0.7,0.1,1h-1.5c0-0.2-0.1-0.4-0.1-0.6c-1.1,0.6-1.9,0.9-2.8,0.9
		c-1.2,0-2.5-0.6-2.5-1.9c0-0.9,0.5-1.5,1.6-2c0.9-0.4,2.1-0.6,3.7-0.6v-0.3c0-0.6-0.6-0.9-1.7-0.9c-1,0-1.6,0.2-1.7,0.9h-1.5
		c0.3-1.3,1.4-2.1,3.3-2.1C234.3,48.3,235.5,48.9,235.5,50.6z M231.4,54.1c0.9,0,1.6-0.3,2.6-0.8v-1.5c-0.9,0-2,0.2-2.7,0.4
		c-0.6,0.2-1,0.5-1,1C230.3,53.7,230.7,54.1,231.4,54.1z"/>
	<path class="st1" d="M243.5,50.8V55H242v-3.6c0-1.2-0.4-1.8-1.4-1.8c-0.9,0-1.5,0.2-2,0.9V55h-1.5v-6.4h1.5v0.8
		c0.8-0.8,1.5-1,2.4-1C242.7,48.3,243.5,49.3,243.5,50.8z"/>
	<path class="st1" d="M252.1,46.3V55h-1.5v-0.8c-0.7,0.7-1.5,1-2.6,1c-1.9,0-3.4-1.4-3.4-3.5c0-2,1.4-3.4,3.5-3.4
		c0.7,0,1.4,0.1,2.5,0.9v-3H252.1z M248.4,53.9c0.7,0,1.3-0.2,2.2-0.9v-2.5c-0.7-0.6-1.4-0.9-2.1-0.9c-1.2,0-2.3,0.8-2.3,2.2
		C246.2,53.1,247.2,53.9,248.4,53.9z"/>
	<path class="st1" d="M266.2,46.3v1.5h-6.1v2h5.3v1.5h-5.3v2.3h6.3V55h-8v-8.7H266.2z"/>
	<path class="st1" d="M276.1,48.4l-1.6,0.5c-0.4-1-1.4-1.5-3.1-1.5c-1.3,0-2.3,0.4-2.3,1.1c0,0.6,0.8,0.8,1.5,0.9l2.5,0.4
		c2,0.3,3.1,1.1,3.1,2.5c0,1.8-1.6,2.8-4.3,2.8c-2.7,0-4.4-1-4.8-2.5l1.6-0.5c0.5,1.1,1.6,1.6,3.2,1.6c1.5,0,2.6-0.5,2.6-1.2
		c0-0.6-0.7-0.9-1.7-1.1l-2.2-0.3c-2.2-0.3-3.2-1.2-3.2-2.5c0-1.7,1.5-2.6,4.1-2.6C274,46.1,275.6,46.8,276.1,48.4z"/>
	<path class="st1" d="M283,46.3l4.2,8.7h-1.8l-0.9-2h-5l-0.9,2h-1.8l4.3-8.7H283z M280.2,51.5h3.6l-1.8-3.9L280.2,51.5z"/>
</g>
<g class="st0">
	<path class="st1" d="M289.5,45.8V51h-0.9v-3.9h-1.1v-0.6c0.6-0.1,1.1-0.3,1.4-0.7H289.5z"/>
	<path class="st1" d="M293.2,50v1l-0.4,1h-0.5l0.4-1.1h-0.4v-1H293.2z"/>
	<path class="st1" d="M298.7,47.5c0,0.7-0.4,1.3-1.2,1.7l-1.6,0.9v0h2.8V51h-4.5v-0.7l2.6-1.6c0.5-0.3,1.1-0.6,1.1-1.2
		c0-0.6-0.4-0.9-1.3-0.9c-0.7,0-1.2,0.3-1.4,1h-0.9c0-1,0.9-1.8,2.3-1.8C297.9,45.8,298.7,46.4,298.7,47.5z"/>
</g>
<g class="st0">
	<path class="st1" d="M12.5,61.8L11.9,62c-0.2-0.8-0.6-1.3-1.4-1.3c-1.1,0-1.5,1.2-1.5,2.4c0,1.6,0.6,2.4,1.6,2.4
		c0.7,0,1.2-0.4,1.4-1.4l0.6,0.1c-0.3,1.2-1,1.8-2,1.8c-1.6,0-2.2-1.4-2.2-3c0-1.6,0.6-3,2.2-3C11.6,60.1,12.2,60.7,12.5,61.8z"/>
	<path class="st1" d="M13.7,60.2l1.4,4.7h0l1.4-4.7h0.6L15.4,66h-0.6L13,60.2H13.7z"/>
	<path class="st1" d="M18.1,65.1V66l-0.5,1.2h-0.3l0.4-1.2h-0.3v-0.9H18.1z"/>
	<path class="st1" d="M24.9,62.9l-0.5,0.2c-0.2-0.5-0.5-0.8-1-0.8c-0.9,0-1.1,0.8-1.1,1.7c0,1.1,0.4,1.7,1.1,1.7
		c0.6,0,0.8-0.2,1.1-0.8L25,65c-0.4,0.7-0.8,1.1-1.6,1.1c-1.2,0-1.7-1-1.7-2.2s0.5-2.2,1.7-2.2C24.1,61.8,24.6,62.1,24.9,62.9z"/>
	<path class="st1" d="M28.8,63v2.2c0,0.2,0,0.5,0.1,0.8h-0.6l-0.1-0.6c-0.4,0.4-0.9,0.7-1.4,0.7c-0.7,0-1.2-0.5-1.2-1.2
		c0-1.2,1.4-1.5,2.5-1.7V63c0-0.6-0.4-0.8-0.9-0.8c-0.5,0-0.9,0.3-1.1,0.6l-0.5-0.3c0.3-0.6,0.9-0.9,1.6-0.9
		C28.1,61.8,28.8,62.2,28.8,63z M26.9,65.6c0.4,0,1-0.3,1.3-0.7v-1.1c-0.7,0.1-2,0.4-2,1.2C26.2,65.3,26.6,65.6,26.9,65.6z"/>
	<path class="st1" d="M31.8,62.4c-0.8,0-1.1,0.5-1.4,1.3V66h-0.6v-4.2h0.6v0.8h0c0.3-0.6,0.7-0.9,1.3-0.9h0V62.4z"/>
	<path class="st1" d="M35.7,60.2v5.4c0,0.1,0,0.3,0,0.4h-0.5l-0.1-0.4c-0.2,0.3-0.6,0.5-1.1,0.5c-0.9,0-1.7-0.7-1.7-2.2
		c0-1.5,0.9-2.2,1.7-2.2c0.4,0,0.8,0.2,1.1,0.5v-2H35.7z M34.1,65.6c0.4,0,0.7-0.2,1-0.6v-2.2c-0.3-0.3-0.7-0.6-1.1-0.6
		c-0.8,0-1.2,0.6-1.2,1.7C32.9,64.8,33.3,65.6,34.1,65.6z"/>
	<path class="st1" d="M37.8,60.1v0.7h-0.6v-0.7H37.8z M37.8,61.8V66h-0.6v-4.2H37.8z"/>
	<path class="st1" d="M42.4,63.9c0,1.1-0.5,2.2-1.7,2.2S39,65,39,63.9c0-1.1,0.5-2.2,1.7-2.2S42.4,62.8,42.4,63.9z M40.7,65.6
		c0.8,0,1.1-0.8,1.1-1.7s-0.3-1.7-1.1-1.7c-0.8,0-1.1,0.9-1.1,1.7C39.5,64.7,39.8,65.6,40.7,65.6z"/>
	<path class="st1" d="M43.4,61.8l1.1,3.4h0l1.1-3.4h0.6L44.8,66h-0.8l-1.3-4.2H43.4z"/>
	<path class="st1" d="M49.7,63v2.2c0,0.2,0,0.5,0.1,0.8h-0.6l-0.1-0.6c-0.4,0.4-0.9,0.7-1.4,0.7c-0.7,0-1.2-0.5-1.2-1.2
		c0-1.2,1.4-1.5,2.5-1.7V63c0-0.6-0.4-0.8-0.9-0.8c-0.5,0-0.9,0.3-1.1,0.6l-0.5-0.3c0.3-0.6,0.9-0.9,1.6-0.9
		C49,61.8,49.7,62.2,49.7,63z M47.8,65.6c0.4,0,1-0.3,1.3-0.7v-1.1c-0.7,0.1-2,0.4-2,1.2C47.1,65.3,47.5,65.6,47.8,65.6z"/>
	<path class="st1" d="M53.3,62.5l-0.4,0.4c-0.3-0.4-0.6-0.6-1.1-0.6c-0.5,0-0.8,0.2-0.8,0.6c0,0.3,0.3,0.5,0.9,0.7
		c0.8,0.2,1.5,0.5,1.5,1.3c0,0.8-0.7,1.2-1.5,1.2c-0.6,0-1.3-0.3-1.7-0.8l0.5-0.3c0.3,0.4,0.7,0.6,1.2,0.6c0.5,0,0.9-0.2,0.9-0.7
		c0-0.4-0.3-0.6-0.9-0.7c-0.9-0.3-1.5-0.5-1.5-1.2c0-0.8,0.6-1.2,1.3-1.2C52.4,61.8,53,62,53.3,62.5z"/>
	<path class="st1" d="M57.3,62.9l-0.5,0.2c-0.2-0.5-0.5-0.8-1-0.8c-0.9,0-1.1,0.8-1.1,1.7c0,1.1,0.4,1.7,1.1,1.7
		c0.6,0,0.8-0.2,1.1-0.8l0.5,0.2c-0.4,0.7-0.8,1.1-1.6,1.1c-1.2,0-1.7-1-1.7-2.2s0.5-2.2,1.7-2.2C56.5,61.8,57,62.1,57.3,62.9z"/>
	<path class="st1" d="M59.1,61.8v3c0,0.4,0.2,0.7,0.7,0.7c0.4,0,0.9-0.3,1.2-0.6v-3.1h0.6V66h-0.6v-0.6h0c-0.4,0.4-0.8,0.6-1.2,0.6
		c-0.7,0-1.2-0.5-1.2-1.2v-3H59.1z"/>
	<path class="st1" d="M63.6,60.2V66H63v-5.8H63.6z"/>
	<path class="st1" d="M67.9,63v2.2c0,0.2,0,0.5,0.1,0.8h-0.6l-0.1-0.6c-0.4,0.4-0.9,0.7-1.4,0.7c-0.7,0-1.2-0.5-1.2-1.2
		c0-1.2,1.4-1.5,2.5-1.7V63c0-0.6-0.4-0.8-0.9-0.8c-0.5,0-0.9,0.3-1.1,0.6l-0.5-0.3c0.3-0.6,0.9-0.9,1.6-0.9
		C67.3,61.8,67.9,62.2,67.9,63z M66,65.6c0.4,0,1-0.3,1.3-0.7v-1.1c-0.7,0.1-2,0.4-2,1.2C65.4,65.3,65.7,65.6,66,65.6z"/>
	<path class="st1" d="M70.9,62.4c-0.8,0-1.1,0.5-1.4,1.3V66H69v-4.2h0.6v0.8h0c0.3-0.6,0.7-0.9,1.3-0.9h0V62.4z"/>
	<path class="st1" d="M72.7,65.1V66l-0.5,1.2h-0.3l0.4-1.2h-0.3v-0.9H72.7z M72.7,62.8v0.9h-0.8v-0.9H72.7z"/>
	<path class="st1" d="M80.3,60.2v0.5h-2.8v1.9h2v0.5h-2v2.2h3V66h-3.6v-5.8H80.3z"/>
	<path class="st1" d="M85,61.6l-0.6,0.1c-0.2-0.6-0.7-1-1.3-1c-0.7,0-1.1,0.3-1.1,0.9c0,0.5,0.5,0.7,1.1,1c1.1,0.4,2.1,0.7,2.1,1.8
		c0,1.2-0.8,1.7-1.9,1.7c-1,0-1.6-0.5-2.1-1.5l0.6-0.2c0.3,0.8,0.8,1.2,1.5,1.2c0.7,0,1.3-0.3,1.3-1c0-0.7-0.7-1-1.6-1.3
		c-1-0.4-1.7-0.7-1.7-1.6c0-0.9,0.8-1.5,1.7-1.5C84.1,60.1,84.7,60.7,85,61.6z"/>
	<path class="st1" d="M88.7,60.2l1.8,5.8h-0.7l-0.5-1.8h-2.1L86.6,66H86l1.8-5.8H88.7z M87.3,63.6h1.8l-0.8-3h-0.1L87.3,63.6z"/>
	<path class="st1" d="M92.3,65.1V66l-0.5,1.2h-0.3l0.4-1.2h-0.3v-0.9H92.3z"/>
	<path class="st1" d="M99.1,63.6V64h-2.7c0,1,0.6,1.6,1.2,1.6c0.5,0,0.9-0.3,1.1-0.7l0.4,0.2c-0.4,0.7-0.9,1-1.6,1
		c-1.1,0-1.8-0.8-1.8-2.2c0-1.5,0.8-2.2,1.7-2.2C98.5,61.8,99.1,62.4,99.1,63.6z M98.5,63.5c0-0.8-0.4-1.3-1-1.3s-1,0.4-1.1,1.3
		H98.5z"/>
	<path class="st1" d="M102,62.4c-0.8,0-1.1,0.5-1.4,1.3V66h-0.6v-4.2h0.6v0.8h0c0.3-0.6,0.7-0.9,1.3-0.9h0V62.4z"/>
	<path class="st1" d="M102.9,61.8L104,65h0l1-3.2h0.6l-1.5,4.5c-0.3,0.8-0.7,1.2-1.4,1.2c-0.2,0-0.3,0-0.4,0V67c0.1,0,0.2,0,0.3,0
		c0.6,0,0.9-0.4,1.1-1l-1.4-4.2H102.9z"/>
	<path class="st1" d="M107.1,60.5v1.4h1v0.5h-1v3c0,0.2,0.1,0.3,0.5,0.3c0.2,0,0.3,0,0.5,0V66c-0.1,0-0.3,0.1-0.7,0.1
		c-0.6,0-0.9-0.1-0.9-0.7v-3.1h-0.7v-0.5h0.7v-1.4H107.1z"/>
	<path class="st1" d="M109.7,60.2v2.2h0c0.4-0.4,0.8-0.6,1.2-0.6c0.8,0,1.2,0.5,1.2,1.2V66h-0.6v-3c0-0.4-0.2-0.7-0.7-0.7
		c-0.4,0-0.9,0.3-1.2,0.6V66h-0.6v-5.8H109.7z"/>
	<path class="st1" d="M115.4,62.4c-0.8,0-1.1,0.5-1.4,1.3V66h-0.6v-4.2h0.6v0.8h0c0.3-0.6,0.7-0.9,1.3-0.9h0V62.4z"/>
	<path class="st1" d="M119.2,63.9c0,1.1-0.5,2.2-1.7,2.2s-1.7-1-1.7-2.2c0-1.1,0.5-2.2,1.7-2.2S119.2,62.8,119.2,63.9z M117.5,65.6
		c0.8,0,1.1-0.8,1.1-1.7s-0.3-1.7-1.1-1.7c-0.8,0-1.1,0.9-1.1,1.7C116.4,64.7,116.7,65.6,117.5,65.6z"/>
	<path class="st1" d="M123.6,63.9c0,1.7-1.1,2.2-1.7,2.2c-0.4,0-0.8-0.2-1.1-0.5v1.9h-0.6v-5.7h0.6v0.5c0.2-0.3,0.7-0.6,1.1-0.6
		C122.5,61.8,123.6,62.1,123.6,63.9z M120.8,65c0.4,0.4,0.7,0.6,1.1,0.6c0.8,0,1.2-0.6,1.2-1.7c0-1-0.4-1.6-1.2-1.6
		c-0.4,0-0.8,0.3-1,0.6V65z"/>
	<path class="st1" d="M127.7,63.9c0,1.1-0.5,2.2-1.7,2.2s-1.7-1-1.7-2.2c0-1.1,0.5-2.2,1.7-2.2S127.7,62.8,127.7,63.9z M126,65.6
		c0.8,0,1.1-0.8,1.1-1.7s-0.3-1.7-1.1-1.7c-0.8,0-1.1,0.9-1.1,1.7C124.8,64.7,125.1,65.6,126,65.6z"/>
	<path class="st1" d="M129.4,60.1v0.7h-0.6v-0.7H129.4z M129.4,61.8V66h-0.6v-4.2H129.4z"/>
	<path class="st1" d="M133.8,63.6V64h-2.7c0,1,0.6,1.6,1.2,1.6c0.5,0,0.9-0.3,1.1-0.7l0.4,0.2c-0.4,0.7-0.9,1-1.6,1
		c-1.1,0-1.8-0.8-1.8-2.2c0-1.5,0.8-2.2,1.7-2.2C133.1,61.8,133.8,62.4,133.8,63.6z M133.2,63.5c0-0.8-0.4-1.3-1-1.3s-1,0.4-1.1,1.3
		H133.2z"/>
	<path class="st1" d="M137.3,62.5l-0.4,0.4c-0.3-0.4-0.6-0.6-1.1-0.6c-0.5,0-0.8,0.2-0.8,0.6c0,0.3,0.3,0.5,0.9,0.7
		c0.8,0.2,1.5,0.5,1.5,1.3c0,0.8-0.7,1.2-1.5,1.2c-0.6,0-1.3-0.3-1.7-0.8l0.5-0.3c0.3,0.4,0.7,0.6,1.2,0.6c0.5,0,0.9-0.2,0.9-0.7
		c0-0.4-0.3-0.6-0.9-0.7c-0.9-0.3-1.5-0.5-1.5-1.2c0-0.8,0.6-1.2,1.3-1.2C136.4,61.8,137,62,137.3,62.5z"/>
	<path class="st1" d="M139.1,60.1v0.7h-0.6v-0.7H139.1z M139.1,61.8V66h-0.6v-4.2H139.1z"/>
	<path class="st1" d="M143.1,62.5l-0.4,0.4c-0.3-0.4-0.6-0.6-1.1-0.6c-0.5,0-0.8,0.2-0.8,0.6c0,0.3,0.3,0.5,0.9,0.7
		c0.8,0.2,1.5,0.5,1.5,1.3c0,0.8-0.7,1.2-1.5,1.2c-0.6,0-1.3-0.3-1.7-0.8l0.5-0.3c0.3,0.4,0.7,0.6,1.2,0.6c0.5,0,0.9-0.2,0.9-0.7
		c0-0.4-0.3-0.6-0.9-0.7c-0.9-0.3-1.5-0.5-1.5-1.2c0-0.8,0.6-1.2,1.3-1.2C142.2,61.8,142.8,62,143.1,62.5z"/>
	<path class="st1" d="M145.9,63.7v0.5h-2v-0.5H145.9z"/>
	<path class="st1" d="M149.3,62.5l-0.4,0.4c-0.3-0.4-0.6-0.6-1.1-0.6c-0.5,0-0.8,0.2-0.8,0.6c0,0.3,0.3,0.5,0.9,0.7
		c0.8,0.2,1.5,0.5,1.5,1.3c0,0.8-0.7,1.2-1.5,1.2c-0.6,0-1.3-0.3-1.7-0.8l0.5-0.3c0.3,0.4,0.7,0.6,1.2,0.6c0.5,0,0.9-0.2,0.9-0.7
		c0-0.4-0.3-0.6-0.9-0.7c-0.9-0.3-1.5-0.5-1.5-1.2c0-0.8,0.6-1.2,1.3-1.2C148.4,61.8,149,62,149.3,62.5z"/>
	<path class="st1" d="M151.1,60.5v1.4h1v0.5h-1v3c0,0.2,0.1,0.3,0.5,0.3c0.2,0,0.3,0,0.5,0V66c-0.1,0-0.3,0.1-0.7,0.1
		c-0.6,0-0.9-0.1-0.9-0.7v-3.1h-0.7v-0.5h0.7v-1.4H151.1z"/>
	<path class="st1" d="M153.8,60.1v0.7h-0.6v-0.7H153.8z M153.8,61.8V66h-0.6v-4.2H153.8z"/>
	<path class="st1" d="M159.5,61.8c0.8,0,1.1,0.4,1.1,1.2v3H160v-3c0-0.5-0.2-0.7-0.6-0.7c-0.5,0-0.8,0.3-1.2,0.6V66h-0.6v-3
		c0-0.5-0.2-0.7-0.6-0.7c-0.5,0-0.8,0.3-1.2,0.6V66h-0.6v-4.2h0.6v0.6c0.4-0.4,0.8-0.6,1.2-0.6c0.5,0,0.9,0.3,1.1,0.7
		C158.5,62,159,61.8,159.5,61.8z"/>
	<path class="st1" d="M162.6,61.8v3c0,0.4,0.2,0.7,0.7,0.7c0.4,0,0.9-0.3,1.2-0.6v-3.1h0.6V66h-0.6v-0.6h0c-0.4,0.4-0.8,0.6-1.2,0.6
		c-0.7,0-1.2-0.5-1.2-1.2v-3H162.6z"/>
	<path class="st1" d="M167.1,60.2V66h-0.6v-5.8H167.1z"/>
	<path class="st1" d="M171.4,63v2.2c0,0.2,0,0.5,0.1,0.8h-0.6l-0.1-0.6c-0.4,0.4-0.9,0.7-1.4,0.7c-0.7,0-1.2-0.5-1.2-1.2
		c0-1.2,1.4-1.5,2.5-1.7V63c0-0.6-0.4-0.8-0.9-0.8c-0.5,0-0.9,0.3-1.1,0.6l-0.5-0.3c0.3-0.6,0.9-0.9,1.6-0.9
		C170.8,61.8,171.4,62.2,171.4,63z M169.6,65.6c0.4,0,1-0.3,1.3-0.7v-1.1c-0.7,0.1-2,0.4-2,1.2C168.9,65.3,169.2,65.6,169.6,65.6z"
		/>
	<path class="st1" d="M173.4,60.5v1.4h1v0.5h-1v3c0,0.2,0.1,0.3,0.5,0.3c0.2,0,0.3,0,0.5,0V66c-0.1,0-0.3,0.1-0.7,0.1
		c-0.6,0-0.9-0.1-0.9-0.7v-3.1h-0.7v-0.5h0.7v-1.4H173.4z"/>
	<path class="st1" d="M176,60.1v0.7h-0.6v-0.7H176z M176,61.8V66h-0.6v-4.2H176z"/>
	<path class="st1" d="M180.6,62.9V66H180v-3c0-0.4-0.2-0.7-0.7-0.7c-0.4,0-0.9,0.3-1.2,0.6V66h-0.6v-4.2h0.6v0.6h0
		c0.4-0.4,0.8-0.6,1.2-0.6C180.1,61.8,180.6,62.2,180.6,62.9z"/>
	<path class="st1" d="M185.1,62.3c-0.3,0-0.5,0-0.6,0.1c0.2,0.2,0.3,0.5,0.3,0.8c0,0.8-0.7,1.5-1.5,1.5c-0.3,0-0.4,0-0.7-0.1
		c-0.2,0.1-0.3,0.2-0.3,0.4c0,0.2,0.1,0.3,0.4,0.3c1.8,0,2.6,0.3,2.6,1.2c0,0.6-0.6,1.1-1.9,1.1c-1.2,0-1.8-0.3-1.8-1
		c0-0.4,0.3-0.6,0.7-0.8c-0.3-0.1-0.5-0.3-0.5-0.6c0-0.4,0.3-0.5,0.6-0.7c-0.4-0.3-0.6-0.7-0.6-1.2c0-0.9,0.7-1.5,1.6-1.5
		c0.4,0,0.8,0.1,1,0.3c0.2-0.2,0.6-0.3,0.9-0.4V62.3z M183.3,67c0.8,0,1.3-0.2,1.3-0.6c0-0.4-0.4-0.6-1.4-0.6
		c-0.6,0-1.2,0.2-1.2,0.7C182,66.9,182.3,67,183.3,67z M183.2,64.2c0.6,0,1-0.4,1-0.9c0-0.6-0.4-1-1.1-1c-0.6,0-1,0.4-1,1
		S182.7,64.2,183.2,64.2z"/>
	<path class="st1" d="M191.2,63v2.2c0,0.2,0,0.5,0.1,0.8h-0.6l-0.1-0.6c-0.4,0.4-0.9,0.7-1.4,0.7c-0.7,0-1.2-0.5-1.2-1.2
		c0-1.2,1.4-1.5,2.5-1.7V63c0-0.6-0.4-0.8-0.9-0.8c-0.5,0-0.9,0.3-1.1,0.6l-0.5-0.3c0.3-0.6,0.9-0.9,1.6-0.9
		C190.5,61.8,191.2,62.2,191.2,63z M189.3,65.6c0.4,0,1-0.3,1.3-0.7v-1.1c-0.7,0.1-2,0.4-2,1.2C188.6,65.3,189,65.6,189.3,65.6z"/>
	<path class="st1" d="M195.6,62.3c-0.3,0-0.5,0-0.6,0.1c0.2,0.2,0.3,0.5,0.3,0.8c0,0.8-0.7,1.5-1.5,1.5c-0.3,0-0.4,0-0.7-0.1
		c-0.2,0.1-0.3,0.2-0.3,0.4c0,0.2,0.1,0.3,0.4,0.3c1.8,0,2.6,0.3,2.6,1.2c0,0.6-0.6,1.1-1.9,1.1c-1.2,0-1.8-0.3-1.8-1
		c0-0.4,0.3-0.6,0.7-0.8c-0.3-0.1-0.5-0.3-0.5-0.6c0-0.4,0.3-0.5,0.6-0.7c-0.4-0.3-0.6-0.7-0.6-1.2c0-0.9,0.7-1.5,1.6-1.5
		c0.4,0,0.8,0.1,1,0.3c0.2-0.2,0.6-0.3,0.9-0.4V62.3z M193.8,67c0.8,0,1.3-0.2,1.3-0.6c0-0.4-0.4-0.6-1.4-0.6
		c-0.6,0-1.2,0.2-1.2,0.7C192.4,66.9,192.7,67,193.8,67z M193.7,64.2c0.6,0,1-0.4,1-0.9c0-0.6-0.4-1-1.1-1c-0.6,0-1,0.4-1,1
		S193.1,64.2,193.7,64.2z"/>
	<path class="st1" d="M199.3,63.6V64h-2.7c0,1,0.6,1.6,1.2,1.6c0.5,0,0.9-0.3,1.1-0.7l0.4,0.2c-0.4,0.7-0.9,1-1.6,1
		c-1.1,0-1.8-0.8-1.8-2.2c0-1.5,0.8-2.2,1.7-2.2C198.7,61.8,199.3,62.4,199.3,63.6z M198.8,63.5c0-0.8-0.4-1.3-1-1.3s-1,0.4-1.1,1.3
		H198.8z"/>
	<path class="st1" d="M203.5,62.9V66h-0.6v-3c0-0.4-0.2-0.7-0.7-0.7c-0.4,0-0.9,0.3-1.2,0.6V66h-0.6v-4.2h0.6v0.6h0
		c0.4-0.4,0.8-0.6,1.2-0.6C203,61.8,203.5,62.2,203.5,62.9z"/>
	<path class="st1" d="M205.6,60.5v1.4h1v0.5h-1v3c0,0.2,0.1,0.3,0.5,0.3c0.2,0,0.3,0,0.5,0V66c-0.1,0-0.3,0.1-0.7,0.1
		c-0.6,0-0.9-0.1-0.9-0.7v-3.1h-0.7v-0.5h0.7v-1.4H205.6z"/>
</g>
<g class="st0">
	<path class="st1" d="M12.3,68.2v0.9H9.7v1.4h1.9v0.9H9.7V74H8.6v-5.8H12.3z"/>
	<path class="st1" d="M16.3,71.9c0,1.3-0.7,2.2-1.8,2.2c-1.1,0-1.8-0.8-1.8-2.2c0-1.3,0.7-2.2,1.8-2.2S16.3,70.6,16.3,71.9z
		 M14.4,73.3c0.5,0,0.8-0.4,0.8-1.4c0-0.9-0.3-1.4-0.8-1.4c-0.6,0-0.8,0.5-0.8,1.4C13.6,72.9,13.9,73.3,14.4,73.3z"/>
	<path class="st1" d="M19,70.8c0,0-0.1,0-0.2,0c-0.5,0-0.9,0.5-0.9,0.7V74h-1v-4.2h0.9v0.7h0c0.2-0.5,0.6-0.8,1.2-0.8V70.8z"/>
	<path class="st1" d="M23.3,68.2v2.3h2.2v-2.3h1.1V74h-1.1v-2.5h-2.2V74h-1.1v-5.8H23.3z"/>
	<path class="st1" d="M31,71.6v0.4h-2.5c0,0.8,0.3,1.2,0.9,1.2c0.4,0,0.6-0.1,0.9-0.5l0.7,0.4c-0.4,0.6-0.9,0.8-1.7,0.8
		c-1.1,0-1.8-0.8-1.8-2.2s0.7-2.2,1.8-2.2C30.5,69.8,31,70.8,31,71.6z M30.1,71.4c0-0.6-0.3-0.9-0.8-0.9c-0.5,0-0.8,0.3-0.8,0.9
		H30.1z"/>
	<path class="st1" d="M34.8,71.4v2c0,0.1,0,0.4,0.1,0.6h-1l-0.1-0.4c-0.4,0.3-0.8,0.4-1.3,0.4c-0.7,0-1.1-0.5-1.1-1.1
		c0-0.9,0.8-1.4,2.4-1.6V71c0-0.3-0.3-0.5-0.6-0.5c-0.3,0-0.6,0.2-0.9,0.5l-0.6-0.5c0.3-0.4,0.9-0.8,1.5-0.8
		C34.4,69.8,34.8,70.2,34.8,71.4z M32.9,73.3c0.3,0,0.6-0.2,0.9-0.4V72c-1.1,0.2-1.4,0.5-1.4,0.8C32.5,73.2,32.7,73.3,32.9,73.3z"/>
	<path class="st1" d="M36.9,68.2V74h-1v-5.8H36.9z"/>
	<path class="st1" d="M39.2,68.5v1.4H40v0.8h-0.8V73c0,0.2,0.1,0.3,0.4,0.3c0.2,0,0.3,0,0.5-0.1V74c-0.3,0-0.5,0.1-0.8,0.1
		c-0.7,0-1-0.3-1-1v-2.5h-0.6v-0.8h0.6v-1.4H39.2z"/>
	<path class="st1" d="M41.7,68.2v2.1c0.4-0.4,0.8-0.5,1.2-0.5c0.8,0,1.2,0.5,1.2,1.4V74h-1v-2.7c0-0.5-0.1-0.7-0.5-0.7
		c-0.3,0-0.7,0.2-0.9,0.4v3h-1v-5.8H41.7z"/>
	<path class="st1" d="M48.3,70.9l-0.8,0.3c-0.2-0.5-0.4-0.6-0.8-0.6c-0.6,0-0.8,0.4-0.8,1.4c0,0.9,0.3,1.4,0.8,1.4
		c0.4,0,0.6-0.2,0.9-0.7l0.8,0.4c-0.4,0.7-0.9,1-1.6,1c-1.2,0-1.8-0.8-1.8-2.2c0-1.3,0.7-2.2,1.8-2.2C47.4,69.8,48.1,70.2,48.3,70.9
		z"/>
	<path class="st1" d="M52.2,71.4v2c0,0.1,0,0.4,0.1,0.6h-1l-0.1-0.4c-0.4,0.3-0.8,0.4-1.3,0.4c-0.7,0-1.1-0.5-1.1-1.1
		c0-0.9,0.8-1.4,2.4-1.6V71c0-0.3-0.3-0.5-0.6-0.5c-0.3,0-0.6,0.2-0.9,0.5L49,70.5c0.3-0.4,0.9-0.8,1.5-0.8
		C51.7,69.8,52.2,70.2,52.2,71.4z M50.3,73.3c0.3,0,0.6-0.2,0.9-0.4V72c-1.1,0.2-1.4,0.5-1.4,0.8C49.8,73.2,50,73.3,50.3,73.3z"/>
	<path class="st1" d="M55.2,70.8c0,0-0.1,0-0.2,0c-0.5,0-0.9,0.5-0.9,0.7V74h-1v-4.2H54v0.7h0c0.2-0.5,0.6-0.8,1.2-0.8V70.8z"/>
	<path class="st1" d="M59,71.6v0.4h-2.5c0,0.8,0.3,1.2,0.9,1.2c0.4,0,0.6-0.1,0.9-0.5l0.7,0.4c-0.4,0.6-0.9,0.8-1.7,0.8
		c-1.1,0-1.8-0.8-1.8-2.2s0.7-2.2,1.8-2.2C58.5,69.8,59,70.8,59,71.6z M58.1,71.4c0-0.6-0.3-0.9-0.8-0.9c-0.5,0-0.8,0.3-0.8,0.9
		H58.1z"/>
	<path class="st1" d="M64.4,68.2c1.3,0,2,0.6,2,1.7s-0.7,1.7-2,1.7h-1V74h-1.1v-5.8H64.4z M64.3,70.8c0.7,0,1-0.2,1-0.8
		s-0.4-0.8-1-0.8h-0.9v1.6H64.3z"/>
	<path class="st1" d="M69.2,70.8c0,0-0.1,0-0.2,0c-0.5,0-0.9,0.5-0.9,0.7V74h-1v-4.2H68v0.7h0c0.2-0.5,0.6-0.8,1.2-0.8V70.8z"/>
	<path class="st1" d="M73.1,71.9c0,1.3-0.7,2.2-1.8,2.2c-1.1,0-1.8-0.8-1.8-2.2c0-1.3,0.7-2.2,1.8-2.2S73.1,70.6,73.1,71.9z
		 M71.3,73.3c0.5,0,0.8-0.4,0.8-1.4c0-0.9-0.3-1.4-0.8-1.4c-0.6,0-0.8,0.5-0.8,1.4C70.5,72.9,70.8,73.3,71.3,73.3z"/>
	<path class="st1" d="M75.8,68.1v0.8h-0.2c-0.5,0-0.6,0.2-0.6,0.5v0.4h0.8v0.8H75V74h-1v-3.4h-0.6v-0.8H74v-0.5
		c0-0.8,0.3-1.2,1.1-1.2H75.8z"/>
	<path class="st1" d="M79.7,71.6v0.4h-2.5c0,0.8,0.3,1.2,0.9,1.2c0.4,0,0.6-0.1,0.9-0.5l0.7,0.4c-0.4,0.6-0.9,0.8-1.7,0.8
		c-1.1,0-1.8-0.8-1.8-2.2s0.7-2.2,1.8-2.2C79.1,69.8,79.7,70.8,79.7,71.6z M78.8,71.4c0-0.6-0.3-0.9-0.8-0.9c-0.5,0-0.8,0.3-0.8,0.9
		H78.8z"/>
	<path class="st1" d="M83.1,70.4l-0.6,0.5c-0.3-0.3-0.5-0.4-0.8-0.4c-0.4,0-0.6,0.2-0.6,0.4c0,0.2,0.2,0.4,0.7,0.6
		c1,0.3,1.3,0.7,1.3,1.4c0,0.8-0.6,1.2-1.5,1.2c-0.7,0-1.2-0.3-1.6-0.8l0.7-0.5c0.3,0.4,0.6,0.6,1,0.6c0.4,0,0.6-0.2,0.6-0.5
		c0-0.2-0.2-0.4-0.8-0.6c-1-0.3-1.3-0.7-1.3-1.3c0-0.7,0.6-1.2,1.4-1.2C82.2,69.8,82.8,70,83.1,70.4z"/>
	<path class="st1" d="M86.7,70.4l-0.6,0.5c-0.3-0.3-0.5-0.4-0.8-0.4c-0.4,0-0.6,0.2-0.6,0.4c0,0.2,0.2,0.4,0.7,0.6
		c1,0.3,1.3,0.7,1.3,1.4c0,0.8-0.6,1.2-1.5,1.2c-0.7,0-1.2-0.3-1.6-0.8l0.7-0.5c0.3,0.4,0.6,0.6,1,0.6c0.4,0,0.6-0.2,0.6-0.5
		c0-0.2-0.2-0.4-0.8-0.6c-1-0.3-1.3-0.7-1.3-1.3c0-0.7,0.6-1.2,1.4-1.2C85.8,69.8,86.3,70,86.7,70.4z"/>
	<path class="st1" d="M88.7,68.1v0.9h-1v-0.9H88.7z M88.7,69.8V74h-1v-4.2H88.7z"/>
	<path class="st1" d="M93.1,71.9c0,1.3-0.7,2.2-1.8,2.2c-1.1,0-1.8-0.8-1.8-2.2c0-1.3,0.7-2.2,1.8-2.2S93.1,70.6,93.1,71.9z
		 M91.3,73.3c0.5,0,0.8-0.4,0.8-1.4c0-0.9-0.3-1.4-0.8-1.4c-0.6,0-0.8,0.5-0.8,1.4C90.5,72.9,90.8,73.3,91.3,73.3z"/>
	<path class="st1" d="M97.2,71.1V74h-1v-2.7c0-0.5-0.1-0.7-0.5-0.7c-0.3,0-0.7,0.2-0.9,0.4v3h-1v-4.2h0.9v0.4
		c0.5-0.4,0.9-0.5,1.3-0.5C96.8,69.8,97.2,70.3,97.2,71.1z"/>
	<path class="st1" d="M101.3,71.4v2c0,0.1,0,0.4,0.1,0.6h-1l-0.1-0.4c-0.4,0.3-0.8,0.4-1.3,0.4c-0.7,0-1.1-0.5-1.1-1.1
		c0-0.9,0.8-1.4,2.4-1.6V71c0-0.3-0.3-0.5-0.6-0.5c-0.3,0-0.6,0.2-0.9,0.5l-0.6-0.5c0.3-0.4,0.9-0.8,1.5-0.8
		C100.8,69.8,101.3,70.2,101.3,71.4z M99.4,73.3c0.3,0,0.6-0.2,0.9-0.4V72c-1.1,0.2-1.4,0.5-1.4,0.8C98.9,73.2,99.1,73.3,99.4,73.3z
		"/>
	<path class="st1" d="M103.4,68.2V74h-1v-5.8H103.4z"/>
	<path class="st1" d="M107.1,70.4l-0.6,0.5c-0.3-0.3-0.5-0.4-0.8-0.4c-0.4,0-0.6,0.2-0.6,0.4c0,0.2,0.2,0.4,0.7,0.6
		c1,0.3,1.3,0.7,1.3,1.4c0,0.8-0.6,1.2-1.5,1.2c-0.7,0-1.2-0.3-1.6-0.8l0.7-0.5c0.3,0.4,0.6,0.6,1,0.6c0.4,0,0.6-0.2,0.6-0.5
		c0-0.2-0.2-0.4-0.8-0.6c-1-0.3-1.3-0.7-1.3-1.3c0-0.7,0.6-1.2,1.4-1.2C106.2,69.8,106.8,70,107.1,70.4z"/>
	<path class="st1" d="M115.1,71.1c0,1.9-0.9,3-2.4,3s-2.4-1.1-2.4-3c0-1.9,0.9-3,2.4-3S115.1,69.2,115.1,71.1z M112.6,73.2
		c0.9,0,1.3-0.7,1.3-2c0-1.4-0.4-2-1.3-2c-0.9,0-1.3,0.6-1.3,2.1C111.3,72.5,111.7,73.2,112.6,73.2z"/>
	<path class="st1" d="M119.2,71.1V74h-1v-2.7c0-0.5-0.1-0.7-0.5-0.7c-0.3,0-0.7,0.2-0.9,0.4v3h-1v-4.2h0.9v0.4
		c0.5-0.4,0.9-0.5,1.3-0.5C118.8,69.8,119.2,70.3,119.2,71.1z"/>
	<path class="st1" d="M121.4,68.2V74h-1v-5.8H121.4z"/>
	<path class="st1" d="M123.1,69.8l0.7,2.6h0l0.7-2.6h1l-1.3,4.2c-0.1,0.2-0.2,0.5-0.4,0.8c-0.3,0.5-0.7,0.7-1.2,0.7
		c-0.2,0-0.3,0-0.5,0v-0.8c0.1,0,0.3,0,0.5,0c0.2,0,0.4,0,0.5-0.2c0.1-0.1,0.3-0.4,0.3-0.6c0-0.1,0-0.1,0-0.2l-1.2-3.9H123.1z"/>
</g>
<g class="st0">
	<path class="st1" d="M267.1,63.1v5.1h0.9V69h-2.8v-0.8h0.9v-4h-1v-0.7c0.5,0,1-0.1,1.3-0.4H267.1z"/>
	<path class="st1" d="M270.7,67.9V69h-1.1v-1.1H270.7z"/>
</g>
<g class="st0">
	<path class="st1" d="M276.7,63.2c1,0,1.7,0.5,1.7,1.4c0,0.7-0.3,1.1-1,1.3l0,0c0.7,0.2,1.1,0.8,1.1,1.5c0,1-0.7,1.6-2.1,1.6h-1.8
		v-5.8H276.7z M276.4,65.7c0.7,0,1.4-0.3,1.4-1c0-0.7-0.4-0.9-1.1-0.9h-1.4v1.9H276.4z M276.5,68.5c0.9,0,1.4-0.3,1.4-1
		c0-0.8-0.7-1.2-1.5-1.2h-1.1v2.2H276.5z"/>
	<path class="st1" d="M282.6,66v2.2c0,0.2,0,0.5,0.1,0.8h-0.6l-0.1-0.6c-0.4,0.4-0.9,0.7-1.4,0.7c-0.7,0-1.2-0.5-1.2-1.2
		c0-1.2,1.4-1.5,2.5-1.7V66c0-0.6-0.4-0.8-0.9-0.8c-0.5,0-0.9,0.3-1.1,0.6l-0.5-0.3c0.3-0.6,0.9-0.9,1.6-0.9
		C281.9,64.8,282.6,65.2,282.6,66z M280.7,68.6c0.4,0,1-0.3,1.3-0.7v-1.1c-0.7,0.1-2,0.4-2,1.2C280,68.3,280.4,68.6,280.7,68.6z"/>
	<path class="st1" d="M285.6,65.4c-0.8,0-1.1,0.5-1.4,1.3V69h-0.6v-4.2h0.6v0.8h0c0.3-0.6,0.7-0.9,1.3-0.9h0V65.4z"/>
	<path class="st1" d="M288.3,65.4c-0.8,0-1.1,0.5-1.4,1.3V69h-0.6v-4.2h0.6v0.8h0c0.3-0.6,0.7-0.9,1.3-0.9h0V65.4z"/>
	<path class="st1" d="M291.9,66v2.2c0,0.2,0,0.5,0.1,0.8h-0.6l-0.1-0.6c-0.4,0.4-0.9,0.7-1.4,0.7c-0.7,0-1.2-0.5-1.2-1.2
		c0-1.2,1.4-1.5,2.5-1.7V66c0-0.6-0.4-0.8-0.9-0.8c-0.5,0-0.9,0.3-1.1,0.6l-0.5-0.3c0.3-0.6,0.9-0.9,1.6-0.9
		C291.2,64.8,291.9,65.2,291.9,66z M290,68.6c0.4,0,1-0.3,1.3-0.7v-1.1c-0.7,0.1-2,0.4-2,1.2C289.3,68.3,289.7,68.6,290,68.6z"/>
	<path class="st1" d="M293.8,63.5v1.4h1v0.5h-1v3c0,0.2,0.1,0.3,0.5,0.3c0.2,0,0.3,0,0.5,0V69c-0.1,0-0.3,0.1-0.7,0.1
		c-0.6,0-0.9-0.1-0.9-0.7v-3.1h-0.7v-0.5h0.7v-1.4H293.8z"/>
	<path class="st1" d="M296.5,63.5v1.4h1v0.5h-1v3c0,0.2,0.1,0.3,0.5,0.3c0.2,0,0.3,0,0.5,0V69c-0.1,0-0.3,0.1-0.7,0.1
		c-0.6,0-0.9-0.1-0.9-0.7v-3.1h-0.7v-0.5h0.7v-1.4H296.5z"/>
	<path class="st1" d="M303,63.2v4.3c0,1-0.4,1.5-1.3,1.5c-0.6,0-1-0.2-1.4-0.7l0.5-0.3c0.2,0.3,0.5,0.5,0.9,0.5
		c0.5,0,0.7-0.3,0.7-0.8v-4.5H303z"/>
	<path class="st1" d="M309.8,66.6V67h-2.7c0,1,0.6,1.6,1.2,1.6c0.5,0,0.9-0.3,1.1-0.7l0.4,0.2c-0.4,0.7-0.9,1-1.6,1
		c-1.1,0-1.8-0.8-1.8-2.2c0-1.5,0.8-2.2,1.7-2.2C309.1,64.8,309.8,65.4,309.8,66.6z M309.2,66.5c0-0.8-0.4-1.3-1-1.3
		c-0.6,0-1,0.4-1.1,1.3H309.2z"/>
	<path class="st1" d="M311.6,63.5v1.4h1v0.5h-1v3c0,0.2,0.1,0.3,0.5,0.3c0.2,0,0.3,0,0.5,0V69c-0.1,0-0.3,0.1-0.7,0.1
		c-0.6,0-0.9-0.1-0.9-0.7v-3.1h-0.7v-0.5h0.7v-1.4H311.6z"/>
	<path class="st1" d="M318.7,66v2.2c0,0.2,0,0.5,0.1,0.8h-0.6l-0.1-0.6c-0.4,0.4-0.9,0.7-1.4,0.7c-0.7,0-1.2-0.5-1.2-1.2
		c0-1.2,1.4-1.5,2.5-1.7V66c0-0.6-0.4-0.8-0.9-0.8c-0.5,0-0.9,0.3-1.1,0.6l-0.5-0.3c0.3-0.6,0.9-0.9,1.6-0.9
		C318.1,64.8,318.7,65.2,318.7,66z M316.9,68.6c0.4,0,1-0.3,1.3-0.7v-1.1c-0.7,0.1-2,0.4-2,1.2C316.2,68.3,316.6,68.6,316.9,68.6z"
		/>
	<path class="st1" d="M320.7,63.2V69h-0.6v-5.8H320.7z"/>
	<path class="st1" d="M323.1,68.1V69h-0.8v-0.9H323.1z"/>
	<path class="st1" d="M329.3,63.2l1.8,5.8h-0.7l-0.5-1.8h-2.1l-0.5,1.8h-0.7l1.8-5.8H329.3z M328,66.6h1.8l-0.8-3h-0.1L328,66.6z"/>
	<path class="st1" d="M332.6,63.2v2c0.4-0.3,0.7-0.5,1.1-0.5c0.8,0,1.7,0.6,1.7,2.2c0,1.5-0.8,2.2-1.7,2.2c-0.5,0-0.9-0.2-1.2-0.5
		l-0.1,0.4H332c0-0.1,0-0.3,0-0.4v-5.4H332.6z M332.6,68c0.4,0.4,0.7,0.6,1,0.6c0.9,0,1.2-0.8,1.2-1.6c0-1.1-0.4-1.7-1.2-1.7
		c-0.3,0-0.7,0.2-1,0.6V68z"/>
	<path class="st1" d="M338.9,65.5l-0.4,0.4c-0.3-0.4-0.6-0.6-1.1-0.6c-0.5,0-0.8,0.2-0.8,0.6c0,0.3,0.3,0.5,0.9,0.7
		c0.8,0.2,1.5,0.5,1.5,1.3c0,0.8-0.7,1.2-1.5,1.2c-0.6,0-1.3-0.3-1.7-0.8l0.5-0.3c0.3,0.4,0.7,0.6,1.2,0.6c0.5,0,0.9-0.2,0.9-0.7
		c0-0.4-0.3-0.6-0.9-0.7c-0.9-0.3-1.5-0.5-1.5-1.2c0-0.8,0.6-1.2,1.3-1.2C337.9,64.8,338.6,65,338.9,65.5z"/>
	<path class="st1" d="M340.7,63.5v1.4h1v0.5h-1v3c0,0.2,0.1,0.3,0.5,0.3c0.2,0,0.3,0,0.5,0V69c-0.1,0-0.3,0.1-0.7,0.1
		c-0.6,0-0.9-0.1-0.9-0.7v-3.1h-0.7v-0.5h0.7v-1.4H340.7z"/>
	<path class="st1" d="M344.5,65.4c-0.8,0-1.1,0.5-1.4,1.3V69h-0.6v-4.2h0.6v0.8h0c0.3-0.6,0.7-0.9,1.3-0.9h0V65.4z"/>
	<path class="st1" d="M348.1,66v2.2c0,0.2,0,0.5,0.1,0.8h-0.6l-0.1-0.6c-0.4,0.4-0.9,0.7-1.4,0.7c-0.7,0-1.2-0.5-1.2-1.2
		c0-1.2,1.4-1.5,2.5-1.7V66c0-0.6-0.4-0.8-0.9-0.8c-0.5,0-0.9,0.3-1.1,0.6l-0.5-0.3c0.3-0.6,0.9-0.9,1.6-0.9
		C347.4,64.8,348.1,65.2,348.1,66z M346.2,68.6c0.4,0,1-0.3,1.3-0.7v-1.1c-0.7,0.1-2,0.4-2,1.2C345.5,68.3,345.9,68.6,346.2,68.6z"
		/>
	<path class="st1" d="M352.2,65.9l-0.5,0.2c-0.2-0.5-0.5-0.8-1-0.8c-0.9,0-1.1,0.8-1.1,1.7c0,1.1,0.4,1.7,1.1,1.7
		c0.6,0,0.8-0.2,1.1-0.8l0.5,0.2c-0.4,0.7-0.8,1.1-1.6,1.1c-1.2,0-1.7-1-1.7-2.2s0.5-2.2,1.7-2.2C351.4,64.8,351.8,65.1,352.2,65.9z
		"/>
	<path class="st1" d="M354,63.5v1.4h1v0.5h-1v3c0,0.2,0.1,0.3,0.5,0.3c0.2,0,0.3,0,0.5,0V69c-0.1,0-0.3,0.1-0.7,0.1
		c-0.6,0-0.9-0.1-0.9-0.7v-3.1h-0.7v-0.5h0.7v-1.4H354z"/>
	<path class="st1" d="M361.5,65.9V69h-0.6v-3c0-0.4-0.2-0.7-0.7-0.7c-0.4,0-0.9,0.3-1.2,0.6V69h-0.6v-4.2h0.6v0.6h0
		c0.4-0.4,0.8-0.6,1.2-0.6C361,64.8,361.5,65.2,361.5,65.9z"/>
	<path class="st1" d="M365.9,66.9c0,1.1-0.5,2.2-1.7,2.2s-1.7-1-1.7-2.2c0-1.1,0.5-2.2,1.7-2.2S365.9,65.8,365.9,66.9z M364.2,68.6
		c0.8,0,1.1-0.8,1.1-1.7s-0.3-1.7-1.1-1.7c-0.8,0-1.1,0.9-1.1,1.7C363,67.7,363.3,68.6,364.2,68.6z"/>
	<path class="st1" d="M367.8,68.1V69H367v-0.9H367.8z"/>
	<path class="st1" d="M375.3,64.7c0,0.6-0.2,1-0.6,1.4c-0.2,0.2-0.5,0.5-1,0.8c-0.7,0.5-1.2,0.9-1.5,1.6h3.1V69h-3.8v-0.6
		c0.3-0.7,0.9-1.3,1.5-1.7c0.3-0.2,0.6-0.4,0.9-0.6c0.5-0.4,0.8-0.8,0.8-1.4c0-0.7-0.4-1.1-1.2-1.1c-0.7,0-1.2,0.5-1.4,1.3l-0.6-0.1
		c0.3-1.1,0.9-1.6,1.9-1.6C374.6,63.1,375.3,63.7,375.3,64.7z"/>
	<path class="st1" d="M380,64.6c0,0.6-0.3,1.1-0.9,1.3c0.7,0.3,1.1,0.8,1.1,1.5c0,1.1-0.9,1.7-2,1.7c-0.9,0-1.6-0.4-2-1.1l0.5-0.3
		c0.4,0.6,1,1,1.6,1c0.7,0,1.4-0.4,1.4-1.1c0-0.9-0.6-1.3-1.6-1.3h-0.6v-0.5h0.4c0.8,0,1.6-0.2,1.6-1.1c0-0.6-0.5-1-1.1-1
		c-0.6,0-1,0.3-1.4,0.8l-0.5-0.3c0.5-0.7,1.1-1,1.9-1C379.3,63.1,380,63.6,380,64.6z"/>
	<path class="st1" d="M385.1,63.2v0.4l-2.4,5.4H382l2.4-5.3h-2.9v-0.5H385.1z"/>
	<path class="st1" d="M390.1,65.8c0,1.6-0.7,3.3-2.4,3.3c-0.5,0-1-0.1-1.2-0.3l0.2-0.5c0.3,0.2,0.6,0.3,1,0.3c1.2,0,1.7-1.2,1.8-2.4
		c-0.5,0.5-0.9,0.7-1.6,0.7c-0.8,0-1.7-0.5-1.7-1.9c0-1.2,0.8-1.9,1.9-1.9C389.4,63.1,390.1,64.1,390.1,65.8z M388,66.4
		c0.7,0,1.2-0.4,1.5-1.1c0-0.9-0.5-1.7-1.4-1.7c-0.7,0-1.3,0.5-1.3,1.3C386.8,65.9,387.4,66.4,388,66.4z"/>
	<path class="st1" d="M397.1,66.9c0,1.7-1.1,2.2-1.7,2.2c-0.4,0-0.8-0.2-1.1-0.5v1.9h-0.6v-5.7h0.6v0.5c0.2-0.3,0.7-0.6,1.1-0.6
		C396,64.8,397.1,65.1,397.1,66.9z M394.3,68c0.4,0.4,0.7,0.6,1.1,0.6c0.8,0,1.2-0.6,1.2-1.7c0-1-0.4-1.6-1.2-1.6
		c-0.4,0-0.8,0.3-1,0.6V68z"/>
	<path class="st1" d="M400,65.4c-0.8,0-1.1,0.5-1.4,1.3V69H398v-4.2h0.6v0.8h0c0.3-0.6,0.7-0.9,1.3-0.9h0V65.4z"/>
	<path class="st1" d="M403.7,66.6V67H401c0,1,0.6,1.6,1.2,1.6c0.5,0,0.9-0.3,1.1-0.7l0.4,0.2c-0.4,0.7-0.9,1-1.6,1
		c-1.1,0-1.8-0.8-1.8-2.2c0-1.5,0.8-2.2,1.7-2.2C403.1,64.8,403.7,65.4,403.7,66.6z M403.2,66.5c0-0.8-0.4-1.3-1-1.3
		c-0.6,0-1,0.4-1.1,1.3H403.2z"/>
	<path class="st1" d="M407.3,65.5l-0.4,0.4c-0.3-0.4-0.6-0.6-1.1-0.6c-0.5,0-0.8,0.2-0.8,0.6c0,0.3,0.3,0.5,0.9,0.7
		c0.8,0.2,1.5,0.5,1.5,1.3c0,0.8-0.7,1.2-1.5,1.2c-0.6,0-1.3-0.3-1.7-0.8l0.5-0.3c0.3,0.4,0.7,0.6,1.2,0.6c0.5,0,0.9-0.2,0.9-0.7
		c0-0.4-0.3-0.6-0.9-0.7c-0.9-0.3-1.5-0.5-1.5-1.2c0-0.8,0.6-1.2,1.3-1.2C406.3,64.8,407,65,407.3,65.5z"/>
	<path class="st1" d="M411.3,66.6V67h-2.7c0,1,0.6,1.6,1.2,1.6c0.5,0,0.9-0.3,1.1-0.7l0.4,0.2c-0.4,0.7-0.9,1-1.6,1
		c-1.1,0-1.8-0.8-1.8-2.2c0-1.5,0.8-2.2,1.7-2.2C410.6,64.8,411.3,65.4,411.3,66.6z M410.7,66.5c0-0.8-0.4-1.3-1-1.3
		c-0.6,0-1,0.4-1.1,1.3H410.7z"/>
	<path class="st1" d="M415.4,65.9V69h-0.6v-3c0-0.4-0.2-0.7-0.7-0.7c-0.4,0-0.9,0.3-1.2,0.6V69h-0.6v-4.2h0.6v0.6h0
		c0.4-0.4,0.8-0.6,1.2-0.6C415,64.8,415.4,65.2,415.4,65.9z"/>
	<path class="st1" d="M417.5,63.5v1.4h1v0.5h-1v3c0,0.2,0.1,0.3,0.5,0.3c0.2,0,0.3,0,0.5,0V69c-0.1,0-0.3,0.1-0.7,0.1
		c-0.6,0-0.9-0.1-0.9-0.7v-3.1h-0.7v-0.5h0.7v-1.4H417.5z"/>
	<path class="st1" d="M422.4,66.6V67h-2.7c0,1,0.6,1.6,1.2,1.6c0.5,0,0.9-0.3,1.1-0.7l0.4,0.2c-0.4,0.7-0.9,1-1.6,1
		c-1.1,0-1.8-0.8-1.8-2.2c0-1.5,0.8-2.2,1.7-2.2C421.7,64.8,422.4,65.4,422.4,66.6z M421.8,66.5c0-0.8-0.4-1.3-1-1.3
		c-0.6,0-1,0.4-1.1,1.3H421.8z"/>
	<path class="st1" d="M426.6,63.2v5.4c0,0.1,0,0.3,0,0.4h-0.5l-0.1-0.4c-0.2,0.3-0.6,0.5-1.1,0.5c-0.9,0-1.7-0.7-1.7-2.2
		c0-1.5,0.9-2.2,1.7-2.2c0.4,0,0.8,0.2,1.1,0.5v-2H426.6z M424.9,68.6c0.4,0,0.7-0.2,1-0.6v-2.2c-0.3-0.3-0.7-0.6-1.1-0.6
		c-0.8,0-1.2,0.6-1.2,1.7C423.8,67.8,424.1,68.6,424.9,68.6z"/>
	<path class="st1" d="M433.2,66v2.2c0,0.2,0,0.5,0.1,0.8h-0.6l-0.1-0.6c-0.4,0.4-0.9,0.7-1.4,0.7c-0.7,0-1.2-0.5-1.2-1.2
		c0-1.2,1.4-1.5,2.5-1.7V66c0-0.6-0.4-0.8-0.9-0.8c-0.5,0-0.9,0.3-1.1,0.6l-0.5-0.3c0.3-0.6,0.9-0.9,1.6-0.9
		C432.5,64.8,433.2,65.2,433.2,66z M431.3,68.6c0.4,0,1-0.3,1.3-0.7v-1.1c-0.7,0.1-2,0.4-2,1.2C430.6,68.3,431,68.6,431.3,68.6z"/>
	<path class="st1" d="M435.1,63.5v1.4h1v0.5h-1v3c0,0.2,0.1,0.3,0.5,0.3c0.2,0,0.3,0,0.5,0V69c-0.1,0-0.3,0.1-0.7,0.1
		c-0.6,0-0.9-0.1-0.9-0.7v-3.1h-0.7v-0.5h0.7v-1.4H435.1z"/>
	<path class="st1" d="M440.2,63.5v1.4h1v0.5h-1v3c0,0.2,0.1,0.3,0.5,0.3c0.2,0,0.3,0,0.5,0V69c-0.1,0-0.3,0.1-0.7,0.1
		c-0.6,0-0.9-0.1-0.9-0.7v-3.1H439v-0.5h0.7v-1.4H440.2z"/>
	<path class="st1" d="M442.8,63.2v2.2h0c0.4-0.4,0.8-0.6,1.2-0.6c0.8,0,1.2,0.5,1.2,1.2V69h-0.6v-3c0-0.4-0.2-0.7-0.7-0.7
		c-0.4,0-0.9,0.3-1.2,0.6V69h-0.6v-5.8H442.8z"/>
	<path class="st1" d="M449.5,66.6V67h-2.7c0,1,0.6,1.6,1.2,1.6c0.5,0,0.9-0.3,1.1-0.7l0.4,0.2c-0.4,0.7-0.9,1-1.6,1
		c-1.1,0-1.8-0.8-1.8-2.2c0-1.5,0.8-2.2,1.7-2.2C448.8,64.8,449.5,65.4,449.5,66.6z M448.9,66.5c0-0.8-0.4-1.3-1-1.3
		c-0.6,0-1,0.4-1.1,1.3H448.9z"/>
</g>
<g class="st0">
	<path class="st1" d="M268,71.2v0.5h-2.5l-0.1,1.8c0.4-0.3,0.8-0.5,1.2-0.5c1,0,1.8,0.7,1.8,1.9c0,0.9-0.6,2-2,2
		c-0.8,0-1.3-0.3-1.8-1.1l0.5-0.3c0.3,0.6,0.8,0.9,1.3,0.9c0.9,0,1.4-0.6,1.4-1.5c0-0.8-0.5-1.5-1.3-1.5c-0.6,0-1,0.3-1.2,0.9
		l-0.5-0.1l0.3-3.1H268z"/>
	<path class="st1" d="M273.3,73.8c0,1.6-0.7,3.3-2.4,3.3c-0.5,0-1-0.1-1.2-0.3l0.2-0.5c0.3,0.2,0.6,0.3,1,0.3c1.2,0,1.7-1.2,1.8-2.4
		c-0.5,0.5-0.9,0.7-1.6,0.7c-0.8,0-1.7-0.5-1.7-1.9c0-1.2,0.8-1.9,1.9-1.9C272.6,71.1,273.3,72.1,273.3,73.8z M271.2,74.4
		c0.7,0,1.2-0.4,1.5-1.1c0-0.9-0.5-1.7-1.4-1.7c-0.7,0-1.3,0.5-1.3,1.3C270,73.9,270.6,74.4,271.2,74.4z"/>
	<path class="st1" d="M275.2,71.5v1.4h1v0.5h-1v3c0,0.2,0.1,0.3,0.5,0.3c0.2,0,0.3,0,0.5,0V77c-0.1,0-0.3,0.1-0.7,0.1
		c-0.6,0-0.9-0.1-0.9-0.7v-3.1h-0.7v-0.5h0.7v-1.4H275.2z"/>
	<path class="st1" d="M277.7,71.2v2.2h0c0.4-0.4,0.8-0.6,1.2-0.6c0.8,0,1.2,0.5,1.2,1.2V77h-0.6v-3c0-0.4-0.2-0.7-0.7-0.7
		c-0.4,0-0.9,0.3-1.2,0.6V77h-0.6v-5.8H277.7z"/>
	<path class="st1" d="M287.7,71.2v0.5h-2.8v1.9h2v0.5h-2v2.2h3V77h-3.6v-5.8H287.7z"/>
	<path class="st1" d="M290.9,71.2c1.1,0,1.9,0.5,1.9,1.5c0,0.7-0.4,1.2-1.2,1.5l1.2,2.8h-0.7l-1.2-2.6h-1.4V77H289v-5.8H290.9z
		 M290.8,73.8c0.8,0,1.3-0.3,1.3-1.1c0-0.7-0.4-1-1.3-1h-1.2v2.1H290.8z"/>
	<path class="st1" d="M296.5,71.2l1.8,5.8h-0.7l-0.5-1.8H295l-0.5,1.8h-0.7l1.8-5.8H296.5z M295.1,74.6h1.8l-0.8-3H296L295.1,74.6z"
		/>
	<path class="st1" d="M305.4,72.8l-0.6,0.2c-0.2-0.8-0.6-1.3-1.4-1.3c-1.1,0-1.5,1.2-1.5,2.4c0,1.6,0.6,2.4,1.6,2.4
		c0.7,0,1.2-0.4,1.4-1.4l0.6,0.1c-0.3,1.2-1,1.8-2,1.8c-1.6,0-2.2-1.4-2.2-3c0-1.6,0.6-3,2.2-3C304.4,71.1,305.1,71.7,305.4,72.8z"
		/>
	<path class="st1" d="M309.5,74.9c0,1.1-0.5,2.2-1.7,2.2s-1.7-1-1.7-2.2c0-1.1,0.5-2.2,1.7-2.2S309.5,73.8,309.5,74.9z M307.8,76.6
		c0.8,0,1.1-0.8,1.1-1.7s-0.3-1.7-1.1-1.7c-0.8,0-1.1,0.9-1.1,1.7C306.6,75.7,306.9,76.6,307.8,76.6z"/>
	<path class="st1" d="M313.5,73.9V77h-0.6v-3c0-0.4-0.2-0.7-0.7-0.7c-0.4,0-0.9,0.3-1.2,0.6V77h-0.6v-4.2h0.6v0.6h0
		c0.4-0.4,0.8-0.6,1.2-0.6C313.1,72.8,313.5,73.2,313.5,73.9z"/>
	<path class="st1" d="M318.1,73.3c-0.3,0-0.5,0-0.6,0.1c0.2,0.2,0.3,0.5,0.3,0.8c0,0.8-0.7,1.5-1.5,1.5c-0.3,0-0.4,0-0.7-0.1
		c-0.2,0.1-0.3,0.2-0.3,0.4c0,0.2,0.1,0.3,0.4,0.3c1.8,0,2.6,0.3,2.6,1.2c0,0.6-0.6,1.1-1.9,1.1c-1.2,0-1.8-0.3-1.8-1
		c0-0.4,0.3-0.6,0.7-0.8c-0.3-0.1-0.5-0.3-0.5-0.6c0-0.4,0.3-0.5,0.6-0.7c-0.4-0.3-0.6-0.7-0.6-1.2c0-0.9,0.7-1.5,1.6-1.5
		c0.4,0,0.8,0.1,1,0.3c0.2-0.2,0.6-0.3,0.9-0.4V73.3z M316.2,78c0.8,0,1.3-0.2,1.3-0.6c0-0.4-0.4-0.6-1.4-0.6
		c-0.6,0-1.2,0.2-1.2,0.7C314.9,77.9,315.2,78,316.2,78z M316.2,75.2c0.6,0,1-0.4,1-0.9c0-0.6-0.4-1-1.1-1c-0.6,0-1,0.4-1,1
		S315.6,75.2,316.2,75.2z"/>
	<path class="st1" d="M320.7,73.4c-0.8,0-1.1,0.5-1.4,1.3V77h-0.6v-4.2h0.6v0.8h0c0.3-0.6,0.7-0.9,1.3-0.9h0V73.4z"/>
	<path class="st1" d="M324.5,74.6V75h-2.7c0,1,0.6,1.6,1.2,1.6c0.5,0,0.9-0.3,1.1-0.7l0.4,0.2c-0.4,0.7-0.9,1-1.6,1
		c-1.1,0-1.8-0.8-1.8-2.2c0-1.5,0.8-2.2,1.7-2.2C323.8,72.8,324.5,73.4,324.5,74.6z M323.9,74.5c0-0.8-0.4-1.3-1-1.3s-1,0.4-1.1,1.3
		H323.9z"/>
	<path class="st1" d="M328,73.5l-0.4,0.4c-0.3-0.4-0.6-0.6-1.1-0.6c-0.5,0-0.8,0.2-0.8,0.6c0,0.3,0.3,0.5,0.9,0.7
		c0.8,0.2,1.5,0.5,1.5,1.3c0,0.8-0.7,1.2-1.5,1.2c-0.6,0-1.3-0.3-1.7-0.8l0.5-0.3c0.3,0.4,0.7,0.6,1.2,0.6c0.5,0,0.9-0.2,0.9-0.7
		c0-0.4-0.3-0.6-0.9-0.7c-0.9-0.3-1.5-0.5-1.5-1.2c0-0.8,0.6-1.2,1.3-1.2C327.1,72.8,327.7,73,328,73.5z"/>
	<path class="st1" d="M331.5,73.5l-0.4,0.4c-0.3-0.4-0.6-0.6-1.1-0.6c-0.5,0-0.8,0.2-0.8,0.6c0,0.3,0.3,0.5,0.9,0.7
		c0.8,0.2,1.5,0.5,1.5,1.3c0,0.8-0.7,1.2-1.5,1.2c-0.6,0-1.3-0.3-1.7-0.8l0.5-0.3c0.3,0.4,0.7,0.6,1.2,0.6c0.5,0,0.9-0.2,0.9-0.7
		c0-0.4-0.3-0.6-0.9-0.7c-0.9-0.3-1.5-0.5-1.5-1.2c0-0.8,0.6-1.2,1.3-1.2C330.6,72.8,331.3,73,331.5,73.5z"/>
	<path class="st1" d="M333.6,76.1V77l-0.5,1.2h-0.3l0.4-1.2h-0.3v-0.9H333.6z"/>
	<path class="st1" d="M339.7,71.2c1.1,0,1.8,0.5,1.8,1.6c0,1.2-1,1.6-2.1,1.6h-1V77h-0.6v-5.8H339.7z M339.4,73.9
		c1,0,1.4-0.3,1.4-1.1s-0.5-1.1-1.3-1.1h-1.2v2.1H339.4z"/>
	<path class="st1" d="M345.2,74v2.2c0,0.2,0,0.5,0.1,0.8h-0.6l-0.1-0.6c-0.4,0.4-0.9,0.7-1.4,0.7c-0.7,0-1.2-0.5-1.2-1.2
		c0-1.2,1.4-1.5,2.5-1.7V74c0-0.6-0.4-0.8-0.9-0.8c-0.5,0-0.9,0.3-1.1,0.6l-0.5-0.3c0.3-0.6,0.9-0.9,1.6-0.9
		C344.6,72.8,345.2,73.2,345.2,74z M343.4,76.6c0.4,0,1-0.3,1.3-0.7v-1.1c-0.7,0.1-2,0.4-2,1.2C342.7,76.3,343,76.6,343.4,76.6z"/>
	<path class="st1" d="M348.3,73.4c-0.8,0-1.1,0.5-1.4,1.3V77h-0.6v-4.2h0.6v0.8h0c0.3-0.6,0.7-0.9,1.3-0.9h0V73.4z"/>
	<path class="st1" d="M349.8,71.1v0.7h-0.6v-0.7H349.8z M349.8,72.8V77h-0.6v-4.2H349.8z"/>
	<path class="st1" d="M353.8,73.5l-0.4,0.4c-0.3-0.4-0.6-0.6-1.1-0.6c-0.5,0-0.8,0.2-0.8,0.6c0,0.3,0.3,0.5,0.9,0.7
		c0.8,0.2,1.5,0.5,1.5,1.3c0,0.8-0.7,1.2-1.5,1.2c-0.6,0-1.3-0.3-1.7-0.8l0.5-0.3c0.3,0.4,0.7,0.6,1.2,0.6c0.5,0,0.9-0.2,0.9-0.7
		c0-0.4-0.3-0.6-0.9-0.7c-0.9-0.3-1.5-0.5-1.5-1.2c0-0.8,0.6-1.2,1.3-1.2C352.8,72.8,353.5,73,353.8,73.5z"/>
	<path class="st1" d="M355.8,76.1V77l-0.5,1.2H355l0.4-1.2H355v-0.9H355.8z"/>
	<path class="st1" d="M363.3,71.2v0.5h-2.8v1.9h2.1v0.5h-2.1V77h-0.6v-5.8H363.3z"/>
	<path class="st1" d="M366,73.4c-0.8,0-1.1,0.5-1.4,1.3V77h-0.6v-4.2h0.6v0.8h0c0.3-0.6,0.7-0.9,1.3-0.9h0V73.4z"/>
	<path class="st1" d="M369.6,74v2.2c0,0.2,0,0.5,0.1,0.8h-0.6l-0.1-0.6c-0.4,0.4-0.9,0.7-1.4,0.7c-0.7,0-1.2-0.5-1.2-1.2
		c0-1.2,1.4-1.5,2.5-1.7V74c0-0.6-0.4-0.8-0.9-0.8c-0.5,0-0.9,0.3-1.1,0.6l-0.5-0.3c0.3-0.6,0.9-0.9,1.6-0.9
		C369,72.8,369.6,73.2,369.6,74z M367.8,76.6c0.4,0,1-0.3,1.3-0.7v-1.1c-0.7,0.1-2,0.4-2,1.2C367.1,76.3,367.4,76.6,367.8,76.6z"/>
	<path class="st1" d="M373.9,73.9V77h-0.6v-3c0-0.4-0.2-0.7-0.7-0.7c-0.4,0-0.9,0.3-1.2,0.6V77h-0.6v-4.2h0.6v0.6h0
		c0.4-0.4,0.8-0.6,1.2-0.6C373.5,72.8,373.9,73.2,373.9,73.9z"/>
	<path class="st1" d="M378.2,73.9l-0.5,0.2c-0.2-0.5-0.5-0.8-1-0.8c-0.9,0-1.1,0.8-1.1,1.7c0,1.1,0.4,1.7,1.1,1.7
		c0.6,0,0.8-0.2,1.1-0.8l0.5,0.2c-0.4,0.7-0.8,1.1-1.6,1.1c-1.2,0-1.7-1-1.7-2.2s0.5-2.2,1.7-2.2C377.4,72.8,377.9,73.1,378.2,73.9z
		"/>
	<path class="st1" d="M382.2,74.6V75h-2.7c0,1,0.6,1.6,1.2,1.6c0.5,0,0.9-0.3,1.1-0.7l0.4,0.2c-0.4,0.7-0.9,1-1.6,1
		c-1.1,0-1.8-0.8-1.8-2.2c0-1.5,0.8-2.2,1.7-2.2C381.6,72.8,382.2,73.4,382.2,74.6z M381.7,74.5c0-0.8-0.4-1.3-1-1.3
		c-0.6,0-1,0.4-1.1,1.3H381.7z"/>
	<path class="st1" d="M384.2,76.1V77h-0.8v-0.9H384.2z"/>
	<path class="st1" d="M390.3,71.1v5.4h1V77h-2.6v-0.5h1v-4.7l-1.1,0.1v-0.4c0.5-0.1,0.9-0.2,1.1-0.4H390.3z"/>
	<path class="st1" d="M396.8,73.8c0,1.6-0.7,3.3-2.4,3.3c-0.5,0-1-0.1-1.2-0.3l0.2-0.5c0.3,0.2,0.6,0.3,1,0.3c1.2,0,1.7-1.2,1.8-2.4
		c-0.5,0.5-0.9,0.7-1.6,0.7c-0.8,0-1.7-0.5-1.7-1.9c0-1.2,0.8-1.9,1.9-1.9C396.1,71.1,396.8,72.1,396.8,73.8z M394.7,74.4
		c0.7,0,1.2-0.4,1.5-1.1c0-0.9-0.5-1.7-1.4-1.7c-0.7,0-1.3,0.5-1.3,1.3C393.5,73.9,394.1,74.4,394.7,74.4z"/>
	<path class="st1" d="M401.3,74.7v0.4h-4v-0.4H401.3z"/>
	<path class="st1" d="M405.6,72.7c0,0.6-0.2,1-0.6,1.4c-0.2,0.2-0.5,0.5-1,0.8c-0.7,0.5-1.2,0.9-1.5,1.6h3.1V77h-3.8v-0.6
		c0.3-0.7,0.9-1.3,1.5-1.7c0.3-0.2,0.6-0.4,0.9-0.6c0.5-0.4,0.8-0.8,0.8-1.4c0-0.7-0.4-1.1-1.2-1.1c-0.7,0-1.2,0.5-1.4,1.3l-0.6-0.1
		c0.3-1.1,0.9-1.6,1.9-1.6C404.8,71.1,405.6,71.7,405.6,72.7z"/>
	<path class="st1" d="M410.5,72.7c0,0.6-0.2,1-0.6,1.4c-0.2,0.2-0.5,0.5-1,0.8c-0.7,0.5-1.2,0.9-1.5,1.6h3.1V77h-3.8v-0.6
		c0.3-0.7,0.9-1.3,1.5-1.7c0.3-0.2,0.6-0.4,0.9-0.6c0.5-0.4,0.8-0.8,0.8-1.4c0-0.7-0.4-1.1-1.2-1.1c-0.7,0-1.2,0.5-1.4,1.3l-0.6-0.1
		c0.3-1.1,0.9-1.6,1.9-1.6C409.7,71.1,410.5,71.7,410.5,72.7z"/>
	<path class="st1" d="M415.4,71.2l1.5,4.7h0l1.4-4.7h1V77h-0.6v-5.4l-1.6,5.4h-0.5l-1.6-5.4V77h-0.6v-5.8H415.4z"/>
	<path class="st1" d="M423.6,74v2.2c0,0.2,0,0.5,0.1,0.8h-0.6l-0.1-0.6c-0.4,0.4-0.9,0.7-1.4,0.7c-0.7,0-1.2-0.5-1.2-1.2
		c0-1.2,1.4-1.5,2.5-1.7V74c0-0.6-0.4-0.8-0.9-0.8c-0.5,0-0.9,0.3-1.1,0.6l-0.5-0.3c0.3-0.6,0.9-0.9,1.6-0.9
		C423,72.8,423.6,73.2,423.6,74z M421.8,76.6c0.4,0,1-0.3,1.3-0.7v-1.1c-0.7,0.1-2,0.4-2,1.2C421.1,76.3,421.4,76.6,421.8,76.6z"/>
	<path class="st1" d="M424.9,72.8L426,76h0l1-3.2h0.6l-1.5,4.5c-0.3,0.8-0.7,1.2-1.4,1.2c-0.2,0-0.3,0-0.4,0V78c0.1,0,0.2,0,0.3,0
		c0.6,0,0.9-0.4,1.1-1l-1.4-4.2H424.9z"/>
	<path class="st1" d="M434.4,72.7c0,0.6-0.2,1-0.6,1.4c-0.2,0.2-0.5,0.5-1,0.8c-0.7,0.5-1.2,0.9-1.5,1.6h3.1V77h-3.8v-0.6
		c0.3-0.7,0.9-1.3,1.5-1.7c0.3-0.2,0.6-0.4,0.9-0.6c0.5-0.4,0.8-0.8,0.8-1.4c0-0.7-0.4-1.1-1.2-1.1s-1.2,0.5-1.4,1.3l-0.6-0.1
		c0.3-1.1,0.9-1.6,1.9-1.6C433.7,71.1,434.4,71.7,434.4,72.7z"/>
	<path class="st1" d="M439.5,74.1c0,2-0.7,3-2,3c-1.3,0-2-1-2-3c0-2,0.7-3,2-3C438.8,71.1,439.5,72.2,439.5,74.1z M437.5,76.6
		c1,0,1.4-0.8,1.4-2.5c0-1.7-0.4-2.5-1.4-2.5c-1,0-1.4,0.8-1.4,2.5C436.1,75.8,436.5,76.6,437.5,76.6z"/>
	<path class="st1" d="M444.2,72.7c0,0.6-0.2,1-0.6,1.4c-0.2,0.2-0.5,0.5-1,0.8c-0.7,0.5-1.2,0.9-1.5,1.6h3.1V77h-3.8v-0.6
		c0.3-0.7,0.9-1.3,1.5-1.7c0.3-0.2,0.6-0.4,0.9-0.6c0.5-0.4,0.8-0.8,0.8-1.4c0-0.7-0.4-1.1-1.2-1.1s-1.2,0.5-1.4,1.3l-0.6-0.1
		c0.3-1.1,0.9-1.6,1.9-1.6C443.4,71.1,444.2,71.7,444.2,72.7z"/>
	<path class="st1" d="M449.1,72.7c0,0.6-0.2,1-0.6,1.4c-0.2,0.2-0.5,0.5-1,0.8c-0.7,0.5-1.2,0.9-1.5,1.6h3.1V77h-3.8v-0.6
		c0.3-0.7,0.9-1.3,1.5-1.7c0.3-0.2,0.6-0.4,0.9-0.6c0.5-0.4,0.8-0.8,0.8-1.4c0-0.7-0.4-1.1-1.2-1.1c-0.7,0-1.2,0.5-1.4,1.3l-0.6-0.1
		c0.3-1.1,0.9-1.6,1.9-1.6C448.3,71.1,449.1,71.7,449.1,72.7z"/>
	<path class="st1" d="M451.3,76.1V77h-0.8v-0.9H451.3z"/>
</g>
<g class="st0">
	<path class="st1" d="M268.3,80.8c0,0.6-0.3,1.1-0.7,1.6c-0.4,0.4-1.6,1.3-2,1.7h2.7V85h-3.9v-1c0.1-0.3,0.4-0.7,1.2-1.3
		c1.4-1.1,1.6-1.5,1.6-1.9c0-0.5-0.3-0.8-0.9-0.8c-0.5,0-0.9,0.3-1,0.9l-0.9-0.2c0.1-0.9,1-1.6,2-1.6
		C267.5,79.1,268.3,79.8,268.3,80.8z"/>
	<path class="st1" d="M270.7,83.9V85h-1.1v-1.1H270.7z"/>
</g>
<g class="st0">
	<path class="st1" d="M278.1,79.2v0.5h-2.8v1.9h2v0.5h-2v2.2h3V85h-3.6v-5.8H278.1z"/>
	<path class="st1" d="M279.4,79.2l1.4,4.7h0l1.4-4.7h0.6l-1.8,5.8h-0.6l-1.8-5.8H279.4z"/>
	<path class="st1" d="M285.8,79.2c1.1,0,1.9,0.5,1.9,1.5c0,0.7-0.4,1.2-1.2,1.5l1.2,2.8h-0.7l-1.2-2.6h-1.4V85h-0.6v-5.8H285.8z
		 M285.7,81.8c0.8,0,1.3-0.3,1.3-1.1c0-0.7-0.4-1-1.3-1h-1.2v2.1H285.7z"/>
	<path class="st1" d="M292.8,79.2v0.5h-2.8v1.9h2v0.5h-2v2.2h3V85h-3.6v-5.8H292.8z"/>
	<path class="st1" d="M295.1,79.2l2.5,4.4h0v-4.4h0.6V85h-0.5l-2.9-5.1h0V85h-0.6v-5.8H295.1z"/>
	<path class="st1" d="M303.2,79.2v0.4l-2.9,4.8h3V85h-3.7v-0.5l2.9-4.8h-2.6v-0.5H303.2z"/>
	<path class="st1" d="M308.5,82.1c0,1.6-0.6,3-2.3,3s-2.3-1.4-2.3-3c0-1.6,0.6-3,2.3-3C307.9,79.1,308.5,80.5,308.5,82.1z
		 M306.2,84.5c1,0,1.6-0.8,1.6-2.4c0-1.6-0.6-2.4-1.6-2.4c-1,0-1.6,0.8-1.6,2.4C304.6,83.7,305.2,84.5,306.2,84.5z"/>
	<path class="st1" d="M315.5,80.6l-0.6,0.1c-0.2-0.6-0.7-1-1.3-1c-0.7,0-1.1,0.3-1.1,0.9c0,0.5,0.5,0.7,1.1,1
		c1.1,0.4,2.1,0.7,2.1,1.8c0,1.2-0.8,1.7-1.9,1.7c-1,0-1.6-0.5-2.1-1.5l0.6-0.2c0.3,0.8,0.8,1.2,1.5,1.2c0.7,0,1.3-0.3,1.3-1
		c0-0.7-0.7-1-1.6-1.3c-1-0.4-1.7-0.7-1.7-1.6c0-0.9,0.8-1.5,1.7-1.5C314.5,79.1,315.2,79.7,315.5,80.6z"/>
	<path class="st1" d="M321.1,80.8c0.8,0,1.1,0.4,1.1,1.2v3h-0.6v-3c0-0.5-0.2-0.7-0.6-0.7c-0.5,0-0.8,0.3-1.2,0.6V85h-0.6v-3
		c0-0.5-0.2-0.7-0.6-0.7c-0.5,0-0.8,0.3-1.2,0.6V85h-0.6v-4.2h0.6v0.6c0.4-0.4,0.8-0.6,1.2-0.6c0.5,0,0.9,0.3,1.1,0.7
		C320.1,81,320.6,80.8,321.1,80.8z"/>
	<path class="st1" d="M325.7,79.2c1.1,0,1.8,0.5,1.8,1.6c0,1.2-1,1.6-2.1,1.6h-1V85h-0.6v-5.8H325.7z M325.4,81.9
		c1,0,1.4-0.3,1.4-1.1s-0.5-1.1-1.3-1.1h-1.2v2.1H325.4z"/>
	<path class="st1" d="M332.3,80.8l-0.6,0.2c-0.2-0.8-0.6-1.3-1.4-1.3c-1.1,0-1.5,1.2-1.5,2.4c0,1.6,0.6,2.4,1.6,2.4
		c0.7,0,1.2-0.4,1.4-1.4l0.6,0.1c-0.3,1.2-1,1.8-2,1.8c-1.6,0-2.2-1.4-2.2-3c0-1.6,0.6-3,2.2-3C331.3,79.1,332,79.7,332.3,80.8z"/>
	<path class="st1" d="M334.3,84.1V85h-0.8v-0.9H334.3z"/>
</g>
</svg>
